G04 #@! TF.GenerationSoftware,KiCad,Pcbnew,(5.1.8-0-10_14)*
G04 #@! TF.CreationDate,2021-07-18T19:28:35+09:00*
G04 #@! TF.ProjectId,raspi3_debug_board,72617370-6933-45f6-9465-6275675f626f,rev?*
G04 #@! TF.SameCoordinates,Original*
G04 #@! TF.FileFunction,Copper,L2,Bot*
G04 #@! TF.FilePolarity,Positive*
%FSLAX46Y46*%
G04 Gerber Fmt 4.6, Leading zero omitted, Abs format (unit mm)*
G04 Created by KiCad (PCBNEW (5.1.8-0-10_14)) date 2021-07-18 19:28:35*
%MOMM*%
%LPD*%
G01*
G04 APERTURE LIST*
G04 #@! TA.AperFunction,ComponentPad*
%ADD10O,1.600000X1.600000*%
G04 #@! TD*
G04 #@! TA.AperFunction,ComponentPad*
%ADD11C,1.600000*%
G04 #@! TD*
G04 #@! TA.AperFunction,ComponentPad*
%ADD12O,1.700000X1.700000*%
G04 #@! TD*
G04 #@! TA.AperFunction,ComponentPad*
%ADD13R,1.700000X1.700000*%
G04 #@! TD*
G04 #@! TA.AperFunction,ComponentPad*
%ADD14C,1.524000*%
G04 #@! TD*
G04 #@! TA.AperFunction,ComponentPad*
%ADD15R,1.524000X1.524000*%
G04 #@! TD*
G04 #@! TA.AperFunction,ComponentPad*
%ADD16C,1.700000*%
G04 #@! TD*
G04 #@! TA.AperFunction,ComponentPad*
%ADD17C,1.800000*%
G04 #@! TD*
G04 #@! TA.AperFunction,ComponentPad*
%ADD18R,1.800000X1.800000*%
G04 #@! TD*
G04 #@! TA.AperFunction,ViaPad*
%ADD19C,0.800000*%
G04 #@! TD*
G04 #@! TA.AperFunction,Conductor*
%ADD20C,0.300000*%
G04 #@! TD*
G04 #@! TA.AperFunction,Conductor*
%ADD21C,1.000000*%
G04 #@! TD*
G04 #@! TA.AperFunction,Conductor*
%ADD22C,0.200000*%
G04 #@! TD*
G04 #@! TA.AperFunction,Conductor*
%ADD23C,0.100000*%
G04 #@! TD*
G04 APERTURE END LIST*
D10*
X34000000Y-45340000D03*
D11*
X34000000Y-55500000D03*
D12*
X38800000Y-75500000D03*
X41340000Y-75500000D03*
X43880000Y-75500000D03*
X46420000Y-75500000D03*
X48960000Y-75500000D03*
D13*
X51500000Y-75500000D03*
D12*
X86630000Y-32230000D03*
X86630000Y-34770000D03*
X84090000Y-32230000D03*
X84090000Y-34770000D03*
X81550000Y-32230000D03*
X81550000Y-34770000D03*
X79010000Y-32230000D03*
X79010000Y-34770000D03*
X76470000Y-32230000D03*
X76470000Y-34770000D03*
X73930000Y-32230000D03*
X73930000Y-34770000D03*
X71390000Y-32230000D03*
X71390000Y-34770000D03*
X68850000Y-32230000D03*
X68850000Y-34770000D03*
X66310000Y-32230000D03*
X66310000Y-34770000D03*
X63770000Y-32230000D03*
X63770000Y-34770000D03*
X61230000Y-32230000D03*
X61230000Y-34770000D03*
X58690000Y-32230000D03*
X58690000Y-34770000D03*
X56150000Y-32230000D03*
X56150000Y-34770000D03*
X53610000Y-32230000D03*
X53610000Y-34770000D03*
X51070000Y-32230000D03*
X51070000Y-34770000D03*
X48530000Y-32230000D03*
X48530000Y-34770000D03*
X45990000Y-32230000D03*
X45990000Y-34770000D03*
X43450000Y-32230000D03*
X43450000Y-34770000D03*
X40910000Y-32230000D03*
X40910000Y-34770000D03*
X38370000Y-32230000D03*
D13*
X38370000Y-34770000D03*
D14*
X56000000Y-52500000D03*
X56000000Y-50500000D03*
X56000000Y-48500000D03*
D15*
X56000000Y-46500000D03*
D16*
X59720000Y-74500000D03*
X59720000Y-71960000D03*
X62260000Y-74500000D03*
X62260000Y-71960000D03*
X64800000Y-74500000D03*
X64800000Y-71960000D03*
X67340000Y-74500000D03*
X67340000Y-71960000D03*
X69880000Y-74500000D03*
X69880000Y-71960000D03*
X72420000Y-74500000D03*
X72420000Y-71960000D03*
X74960000Y-74500000D03*
X74960000Y-71960000D03*
X77500000Y-74500000D03*
X77500000Y-71960000D03*
X80040000Y-74500000D03*
X80040000Y-71960000D03*
X82580000Y-74500000D03*
D13*
X82580000Y-71960000D03*
D17*
X34000000Y-42040000D03*
D18*
X34000000Y-39500000D03*
D19*
X80940000Y-36220000D03*
X83930000Y-36610000D03*
X31000000Y-52000000D03*
X31000000Y-62000000D03*
X31000000Y-57000000D03*
X31000000Y-67000000D03*
X31000000Y-77000000D03*
X31000000Y-72000000D03*
X41500000Y-85000000D03*
X51500000Y-85000000D03*
X46500000Y-85000000D03*
X61500000Y-85000000D03*
X66500000Y-85000000D03*
X56500000Y-85000000D03*
X76500000Y-85000000D03*
X81500000Y-85000000D03*
X86500000Y-85000000D03*
X71500000Y-85000000D03*
X94000000Y-41500000D03*
X94000000Y-51500000D03*
X94000000Y-46500000D03*
X94000000Y-56500000D03*
X94000000Y-66500000D03*
X94000000Y-61500000D03*
X94000000Y-76500000D03*
X94000000Y-71500000D03*
X42500000Y-31000000D03*
X47500000Y-31000000D03*
X52500000Y-31000000D03*
X57500000Y-31000000D03*
X62500000Y-31000000D03*
X67500000Y-31000000D03*
X83000000Y-31000000D03*
X88000000Y-31000000D03*
X37000000Y-31000000D03*
X31000000Y-79500000D03*
X36500000Y-85000000D03*
X88500000Y-85000000D03*
X94000000Y-79500000D03*
X94000000Y-36500000D03*
X31000000Y-37000000D03*
X31000000Y-42000000D03*
X31000000Y-47000000D03*
X64050000Y-38300000D03*
X41500000Y-77500000D03*
X48000000Y-77500000D03*
X37000000Y-77500000D03*
X37000000Y-73500000D03*
X42620000Y-74200000D03*
X54560000Y-47190000D03*
X52390000Y-44940000D03*
X50490000Y-42990000D03*
X48830000Y-41310000D03*
X48510000Y-38310000D03*
X57462001Y-49477999D03*
X52220000Y-48540000D03*
X48540000Y-52100000D03*
X46130000Y-54710000D03*
X50460000Y-54750000D03*
X38970000Y-54730000D03*
X39510000Y-52280000D03*
X39580000Y-36450000D03*
X39600000Y-41230000D03*
X39600000Y-46230000D03*
X42650000Y-61770000D03*
X46520000Y-57900000D03*
X53150000Y-58360000D03*
X50370000Y-60740000D03*
X57770000Y-53650000D03*
X46260000Y-65220000D03*
X42630000Y-68570000D03*
X40610000Y-60120000D03*
X43550000Y-57340000D03*
X40040000Y-61770000D03*
X40010000Y-65240000D03*
X40010000Y-68580000D03*
X40100000Y-74210000D03*
X42590000Y-65210000D03*
X45790000Y-69000000D03*
X45810000Y-74100000D03*
X48050000Y-66770000D03*
X50600000Y-64180000D03*
X53100000Y-61640000D03*
X56540000Y-58230000D03*
X59580000Y-55170000D03*
X60090000Y-53640000D03*
X60110000Y-49310000D03*
X57462001Y-46027999D03*
X55760000Y-44000000D03*
X51490000Y-39730000D03*
X51300000Y-36350000D03*
X46490000Y-42920000D03*
X49360000Y-45660000D03*
X46050000Y-36330000D03*
X46030000Y-39280000D03*
X66080000Y-70710000D03*
X68620000Y-70710000D03*
X71160000Y-70710000D03*
X73700000Y-70710000D03*
X76240000Y-70710000D03*
X78780000Y-70710000D03*
X81320000Y-70490000D03*
X66080000Y-65710000D03*
X68620000Y-65710000D03*
X71160000Y-65710000D03*
X73700000Y-65710000D03*
X76240000Y-65710000D03*
X78780000Y-65710000D03*
X81320000Y-65710000D03*
X66080000Y-60710000D03*
X68620000Y-60710000D03*
X71160000Y-60710000D03*
X73700000Y-60710000D03*
X76240000Y-60710000D03*
X78780000Y-60710000D03*
X81320000Y-60710000D03*
X66080000Y-55710000D03*
X68620000Y-55710000D03*
X71160000Y-55710000D03*
X73700000Y-55710000D03*
X76240000Y-55710000D03*
X78780000Y-55710000D03*
X81320000Y-55710000D03*
X66080000Y-50710000D03*
X68620000Y-50710000D03*
X71160000Y-50710000D03*
X73700000Y-50710000D03*
X76240000Y-50710000D03*
X78780000Y-50710000D03*
X81320000Y-50710000D03*
X66080000Y-45710000D03*
X68620000Y-45710000D03*
X71160000Y-45710000D03*
X73700000Y-45710000D03*
X76240000Y-45710000D03*
X78780000Y-45710000D03*
X81320000Y-45710000D03*
X66500000Y-40700000D03*
X68570000Y-40700000D03*
X70270000Y-40700000D03*
X73700000Y-40710000D03*
X76240000Y-40710000D03*
X80670000Y-40010000D03*
X71090000Y-41820000D03*
X68560000Y-43060000D03*
X64680000Y-43020000D03*
X73670000Y-43050000D03*
X76240000Y-43020000D03*
X78720000Y-43040000D03*
X64040000Y-45710000D03*
X54960000Y-36950000D03*
X58100000Y-40080000D03*
X61830000Y-43730000D03*
X52890000Y-38450000D03*
X59890000Y-45310000D03*
X62490000Y-47970000D03*
X66130000Y-48390000D03*
X68600000Y-48410000D03*
X71130000Y-48370000D03*
X73660000Y-48390000D03*
X78870000Y-38350000D03*
X67120000Y-36110000D03*
X68250000Y-37170000D03*
X70720000Y-37620000D03*
X72640000Y-35910000D03*
X75210000Y-35900000D03*
X77750000Y-35890000D03*
X69250000Y-39590000D03*
X66690000Y-39080000D03*
X64130000Y-36450000D03*
X61910000Y-36080000D03*
X37130000Y-52940000D03*
X35850000Y-54230000D03*
X37120000Y-46110000D03*
X37200000Y-36450000D03*
X37210000Y-41230000D03*
X60050000Y-77540000D03*
X83530000Y-77580000D03*
X65050000Y-77540000D03*
X70050000Y-77540000D03*
X75050000Y-77540000D03*
X80050000Y-77540000D03*
X60030000Y-80080000D03*
X65030000Y-80080000D03*
X70030000Y-80080000D03*
X75030000Y-80080000D03*
X80030000Y-80080000D03*
X85030000Y-80080000D03*
X83940000Y-73760000D03*
X86412001Y-72962001D03*
X53070000Y-70710000D03*
X50670000Y-70700000D03*
X56320000Y-41760000D03*
X69860000Y-41840000D03*
X74949998Y-47240000D03*
X80039998Y-45260000D03*
D20*
X34000000Y-38389998D02*
X34000000Y-39500000D01*
X36725001Y-34084997D02*
X36725001Y-35664997D01*
X36725001Y-35664997D02*
X34000000Y-38389998D01*
X37339998Y-33470000D02*
X36725001Y-34084997D01*
X44690000Y-33470000D02*
X37339998Y-33470000D01*
X45990000Y-34770000D02*
X44690000Y-33470000D01*
D21*
X53830000Y-48420000D02*
X47250000Y-41840000D01*
X56000000Y-48420000D02*
X53830000Y-48420000D01*
X47250000Y-41840000D02*
X47250000Y-35820000D01*
X56000000Y-48500000D02*
X56000000Y-48420000D01*
D20*
X47250000Y-33490000D02*
X47250000Y-35820000D01*
X45990000Y-32230000D02*
X47250000Y-33490000D01*
X56000000Y-48500000D02*
X54370000Y-48500000D01*
D21*
X54040000Y-48500000D02*
X41240000Y-61300000D01*
X41240000Y-75400000D02*
X41340000Y-75500000D01*
X41240000Y-61300000D02*
X41240000Y-75400000D01*
X56000000Y-48500000D02*
X54040000Y-48500000D01*
X56000000Y-46500000D02*
X49770000Y-40270000D01*
X49770000Y-40270000D02*
X49770000Y-35764002D01*
D20*
X49770000Y-33470000D02*
X49770000Y-35764002D01*
X48530000Y-32230000D02*
X49770000Y-33470000D01*
D21*
X58950000Y-54170000D02*
X58950000Y-49286238D01*
X56163762Y-46500000D02*
X56000000Y-46500000D01*
X58950000Y-49286238D02*
X56163762Y-46500000D01*
X44600000Y-74780000D02*
X44600000Y-68520000D01*
X44600000Y-68520000D02*
X58950000Y-54170000D01*
X43880000Y-75500000D02*
X44600000Y-74780000D01*
D20*
X44103998Y-77500000D02*
X48000000Y-77500000D01*
X42620000Y-76016002D02*
X44103998Y-77500000D01*
X42620000Y-74200000D02*
X42620000Y-76016002D01*
D21*
X81590001Y-76050001D02*
X80040000Y-74500000D01*
X83324001Y-76050001D02*
X81590001Y-76050001D01*
X86630000Y-72744002D02*
X86412001Y-72962001D01*
X86630000Y-34770000D02*
X86630000Y-72744002D01*
X86412001Y-72962001D02*
X83324001Y-76050001D01*
X59964002Y-35794002D02*
X59960000Y-35794002D01*
D20*
X59890001Y-35720001D02*
X59964002Y-35794002D01*
X59890001Y-33430001D02*
X59890001Y-35720001D01*
X58690000Y-32230000D02*
X59890001Y-33430001D01*
D21*
X67310000Y-71930000D02*
X67310000Y-43140000D01*
X67310000Y-43140000D02*
X59964002Y-35794002D01*
X67340000Y-71960000D02*
X67310000Y-71930000D01*
X69880000Y-71960000D02*
X69880000Y-41860000D01*
X69880000Y-41860000D02*
X69860000Y-41840000D01*
D20*
X64970001Y-35724003D02*
X65040000Y-35794002D01*
X64970001Y-33430001D02*
X64970001Y-35724003D01*
X63770000Y-32230000D02*
X64970001Y-33430001D01*
D21*
X65565999Y-36320001D02*
X65040000Y-35794002D01*
X69760000Y-38440000D02*
X67690000Y-38440000D01*
X65570001Y-36320001D02*
X65565999Y-36320001D01*
X72320000Y-41000000D02*
X69760000Y-38440000D01*
X72320000Y-71860000D02*
X72320000Y-41000000D01*
X67690000Y-38440000D02*
X65570001Y-36320001D01*
X72420000Y-71960000D02*
X72320000Y-71860000D01*
X74960000Y-71960000D02*
X74960000Y-47250002D01*
X74960000Y-47250002D02*
X74949998Y-47240000D01*
X77460000Y-41400000D02*
X84090000Y-34770000D01*
X77460000Y-71920000D02*
X77460000Y-41400000D01*
X77500000Y-71960000D02*
X77460000Y-71920000D01*
X80040000Y-71960000D02*
X80040000Y-45260002D01*
X80040000Y-45260002D02*
X80039998Y-45260000D01*
D22*
X90573887Y-30447014D02*
X89996074Y-30686352D01*
X89476056Y-31033817D01*
X89033817Y-31476056D01*
X88686352Y-31996074D01*
X88447014Y-32573887D01*
X88325000Y-33187290D01*
X88325000Y-33812710D01*
X88447014Y-34426113D01*
X88686352Y-35003926D01*
X89033817Y-35523944D01*
X89476056Y-35966183D01*
X89996074Y-36313648D01*
X90573887Y-36552986D01*
X91187290Y-36675000D01*
X91812710Y-36675000D01*
X92426113Y-36552986D01*
X93003926Y-36313648D01*
X93523944Y-35966183D01*
X93966183Y-35523944D01*
X94313648Y-35003926D01*
X94552986Y-34426113D01*
X94675000Y-33812710D01*
X94675001Y-82984094D01*
X94622526Y-83519274D01*
X94471719Y-84018770D01*
X94226768Y-84479458D01*
X93896995Y-84883799D01*
X93494970Y-85216383D01*
X93035997Y-85464548D01*
X92537575Y-85618836D01*
X92003342Y-85674986D01*
X91999441Y-85675000D01*
X91812710Y-85675000D01*
X92426113Y-85552986D01*
X93003926Y-85313648D01*
X93523944Y-84966183D01*
X93966183Y-84523944D01*
X94313648Y-84003926D01*
X94552986Y-83426113D01*
X94675000Y-82812710D01*
X94675000Y-82187290D01*
X94552986Y-81573887D01*
X94313648Y-80996074D01*
X93966183Y-80476056D01*
X93523944Y-80033817D01*
X93003926Y-79686352D01*
X92426113Y-79447014D01*
X91812710Y-79325000D01*
X91187290Y-79325000D01*
X90573887Y-79447014D01*
X89996074Y-79686352D01*
X89476056Y-80033817D01*
X89033817Y-80476056D01*
X88686352Y-80996074D01*
X88447014Y-81573887D01*
X88325000Y-82187290D01*
X88325000Y-82812710D01*
X88447014Y-83426113D01*
X88686352Y-84003926D01*
X89033817Y-84523944D01*
X89476056Y-84966183D01*
X89996074Y-85313648D01*
X90573887Y-85552986D01*
X91187290Y-85675000D01*
X33812710Y-85675000D01*
X34426113Y-85552986D01*
X35003926Y-85313648D01*
X35523944Y-84966183D01*
X35966183Y-84523944D01*
X36313648Y-84003926D01*
X36552986Y-83426113D01*
X36675000Y-82812710D01*
X36675000Y-82187290D01*
X36552986Y-81573887D01*
X36313648Y-80996074D01*
X35966183Y-80476056D01*
X35523944Y-80033817D01*
X35003926Y-79686352D01*
X34426113Y-79447014D01*
X33812710Y-79325000D01*
X33187290Y-79325000D01*
X32573887Y-79447014D01*
X31996074Y-79686352D01*
X31476056Y-80033817D01*
X31033817Y-80476056D01*
X30686352Y-80996074D01*
X30447014Y-81573887D01*
X30325000Y-82187290D01*
X30325000Y-75386735D01*
X37650000Y-75386735D01*
X37650000Y-75613265D01*
X37694194Y-75835443D01*
X37780884Y-76044729D01*
X37906737Y-76233082D01*
X38066918Y-76393263D01*
X38255271Y-76519116D01*
X38464557Y-76605806D01*
X38686735Y-76650000D01*
X38913265Y-76650000D01*
X39135443Y-76605806D01*
X39344729Y-76519116D01*
X39533082Y-76393263D01*
X39693263Y-76233082D01*
X39819116Y-76044729D01*
X39905806Y-75835443D01*
X39950000Y-75613265D01*
X39950000Y-75386735D01*
X39905806Y-75164557D01*
X39819116Y-74955271D01*
X39693263Y-74766918D01*
X39533082Y-74606737D01*
X39344729Y-74480884D01*
X39135443Y-74394194D01*
X38913265Y-74350000D01*
X38686735Y-74350000D01*
X38464557Y-74394194D01*
X38255271Y-74480884D01*
X38066918Y-74606737D01*
X37906737Y-74766918D01*
X37780884Y-74955271D01*
X37694194Y-75164557D01*
X37650000Y-75386735D01*
X30325000Y-75386735D01*
X30325000Y-55391659D01*
X32900000Y-55391659D01*
X32900000Y-55608341D01*
X32942273Y-55820858D01*
X33025193Y-56021045D01*
X33145575Y-56201209D01*
X33298791Y-56354425D01*
X33478955Y-56474807D01*
X33679142Y-56557727D01*
X33891659Y-56600000D01*
X34108341Y-56600000D01*
X34320858Y-56557727D01*
X34521045Y-56474807D01*
X34701209Y-56354425D01*
X34854425Y-56201209D01*
X34974807Y-56021045D01*
X35057727Y-55820858D01*
X35100000Y-55608341D01*
X35100000Y-55391659D01*
X35057727Y-55179142D01*
X34974807Y-54978955D01*
X34854425Y-54798791D01*
X34701209Y-54645575D01*
X34521045Y-54525193D01*
X34320858Y-54442273D01*
X34108341Y-54400000D01*
X33891659Y-54400000D01*
X33679142Y-54442273D01*
X33478955Y-54525193D01*
X33298791Y-54645575D01*
X33145575Y-54798791D01*
X33025193Y-54978955D01*
X32942273Y-55179142D01*
X32900000Y-55391659D01*
X30325000Y-55391659D01*
X30325000Y-45231659D01*
X32900000Y-45231659D01*
X32900000Y-45448341D01*
X32942273Y-45660858D01*
X33025193Y-45861045D01*
X33145575Y-46041209D01*
X33298791Y-46194425D01*
X33478955Y-46314807D01*
X33679142Y-46397727D01*
X33891659Y-46440000D01*
X34108341Y-46440000D01*
X34320858Y-46397727D01*
X34521045Y-46314807D01*
X34701209Y-46194425D01*
X34854425Y-46041209D01*
X34974807Y-45861045D01*
X35057727Y-45660858D01*
X35100000Y-45448341D01*
X35100000Y-45231659D01*
X35057727Y-45019142D01*
X34974807Y-44818955D01*
X34854425Y-44638791D01*
X34701209Y-44485575D01*
X34521045Y-44365193D01*
X34320858Y-44282273D01*
X34108341Y-44240000D01*
X33891659Y-44240000D01*
X33679142Y-44282273D01*
X33478955Y-44365193D01*
X33298791Y-44485575D01*
X33145575Y-44638791D01*
X33025193Y-44818955D01*
X32942273Y-45019142D01*
X32900000Y-45231659D01*
X30325000Y-45231659D01*
X30325000Y-41921810D01*
X32800000Y-41921810D01*
X32800000Y-42158190D01*
X32846116Y-42390027D01*
X32936574Y-42608413D01*
X33067899Y-42804955D01*
X33235045Y-42972101D01*
X33431587Y-43103426D01*
X33649973Y-43193884D01*
X33881810Y-43240000D01*
X34118190Y-43240000D01*
X34350027Y-43193884D01*
X34568413Y-43103426D01*
X34764955Y-42972101D01*
X34932101Y-42804955D01*
X35063426Y-42608413D01*
X35153884Y-42390027D01*
X35200000Y-42158190D01*
X35200000Y-41921810D01*
X35153884Y-41689973D01*
X35063426Y-41471587D01*
X34932101Y-41275045D01*
X34764955Y-41107899D01*
X34568413Y-40976574D01*
X34350027Y-40886116D01*
X34118190Y-40840000D01*
X33881810Y-40840000D01*
X33649973Y-40886116D01*
X33431587Y-40976574D01*
X33235045Y-41107899D01*
X33067899Y-41275045D01*
X32936574Y-41471587D01*
X32846116Y-41689973D01*
X32800000Y-41921810D01*
X30325000Y-41921810D01*
X30325000Y-33812710D01*
X30447014Y-34426113D01*
X30686352Y-35003926D01*
X31033817Y-35523944D01*
X31476056Y-35966183D01*
X31996074Y-36313648D01*
X32573887Y-36552986D01*
X33187290Y-36675000D01*
X33812710Y-36675000D01*
X34426113Y-36552986D01*
X35003926Y-36313648D01*
X35523944Y-35966183D01*
X35966183Y-35523944D01*
X36275002Y-35061764D01*
X36275002Y-35478600D01*
X33697434Y-38056169D01*
X33680263Y-38070261D01*
X33666172Y-38087431D01*
X33624029Y-38138782D01*
X33582244Y-38216957D01*
X33582243Y-38216958D01*
X33557492Y-38298549D01*
X33100000Y-38298549D01*
X33041190Y-38304341D01*
X32984640Y-38321496D01*
X32932523Y-38349353D01*
X32886842Y-38386842D01*
X32849353Y-38432523D01*
X32821496Y-38484640D01*
X32804341Y-38541190D01*
X32798549Y-38600000D01*
X32798549Y-40400000D01*
X32804341Y-40458810D01*
X32821496Y-40515360D01*
X32849353Y-40567477D01*
X32886842Y-40613158D01*
X32932523Y-40650647D01*
X32984640Y-40678504D01*
X33041190Y-40695659D01*
X33100000Y-40701451D01*
X34900000Y-40701451D01*
X34958810Y-40695659D01*
X35015360Y-40678504D01*
X35067477Y-40650647D01*
X35113158Y-40613158D01*
X35150647Y-40567477D01*
X35178504Y-40515360D01*
X35195659Y-40458810D01*
X35201451Y-40400000D01*
X35201451Y-38600000D01*
X35195659Y-38541190D01*
X35178504Y-38484640D01*
X35150647Y-38432523D01*
X35113158Y-38386842D01*
X35067477Y-38349353D01*
X35015360Y-38321496D01*
X34958810Y-38304341D01*
X34900000Y-38298549D01*
X34727844Y-38298549D01*
X37027573Y-35998821D01*
X37044738Y-35984734D01*
X37058825Y-35967569D01*
X37058829Y-35967565D01*
X37100972Y-35916214D01*
X37142758Y-35838038D01*
X37144584Y-35832018D01*
X37168490Y-35753212D01*
X37175001Y-35687102D01*
X37175001Y-35687090D01*
X37177177Y-35664998D01*
X37175001Y-35642906D01*
X37175001Y-34271392D01*
X37218549Y-34227844D01*
X37218549Y-35620000D01*
X37224341Y-35678810D01*
X37241496Y-35735360D01*
X37269353Y-35787477D01*
X37306842Y-35833158D01*
X37352523Y-35870647D01*
X37404640Y-35898504D01*
X37461190Y-35915659D01*
X37520000Y-35921451D01*
X39220000Y-35921451D01*
X39278810Y-35915659D01*
X39335360Y-35898504D01*
X39387477Y-35870647D01*
X39433158Y-35833158D01*
X39470647Y-35787477D01*
X39498504Y-35735360D01*
X39515659Y-35678810D01*
X39521451Y-35620000D01*
X39521451Y-33920000D01*
X40133655Y-33920000D01*
X40016737Y-34036918D01*
X39890884Y-34225271D01*
X39804194Y-34434557D01*
X39760000Y-34656735D01*
X39760000Y-34883265D01*
X39804194Y-35105443D01*
X39890884Y-35314729D01*
X40016737Y-35503082D01*
X40176918Y-35663263D01*
X40365271Y-35789116D01*
X40574557Y-35875806D01*
X40796735Y-35920000D01*
X41023265Y-35920000D01*
X41245443Y-35875806D01*
X41454729Y-35789116D01*
X41643082Y-35663263D01*
X41803263Y-35503082D01*
X41929116Y-35314729D01*
X42015806Y-35105443D01*
X42060000Y-34883265D01*
X42060000Y-34656735D01*
X42015806Y-34434557D01*
X41929116Y-34225271D01*
X41803263Y-34036918D01*
X41686345Y-33920000D01*
X42673655Y-33920000D01*
X42556737Y-34036918D01*
X42430884Y-34225271D01*
X42344194Y-34434557D01*
X42300000Y-34656735D01*
X42300000Y-34883265D01*
X42344194Y-35105443D01*
X42430884Y-35314729D01*
X42556737Y-35503082D01*
X42716918Y-35663263D01*
X42905271Y-35789116D01*
X43114557Y-35875806D01*
X43336735Y-35920000D01*
X43563265Y-35920000D01*
X43785443Y-35875806D01*
X43994729Y-35789116D01*
X44183082Y-35663263D01*
X44343263Y-35503082D01*
X44469116Y-35314729D01*
X44555806Y-35105443D01*
X44600000Y-34883265D01*
X44600000Y-34656735D01*
X44555806Y-34434557D01*
X44469116Y-34225271D01*
X44343263Y-34036918D01*
X44226345Y-33920000D01*
X44503605Y-33920000D01*
X44923432Y-34339828D01*
X44884194Y-34434557D01*
X44840000Y-34656735D01*
X44840000Y-34883265D01*
X44884194Y-35105443D01*
X44970884Y-35314729D01*
X45096737Y-35503082D01*
X45256918Y-35663263D01*
X45445271Y-35789116D01*
X45654557Y-35875806D01*
X45876735Y-35920000D01*
X46103265Y-35920000D01*
X46325443Y-35875806D01*
X46450001Y-35824212D01*
X46450000Y-41800709D01*
X46446130Y-41840000D01*
X46450000Y-41879291D01*
X46450000Y-41879292D01*
X46461576Y-41996826D01*
X46483286Y-42068393D01*
X46507321Y-42147627D01*
X46581607Y-42286606D01*
X46598021Y-42306606D01*
X46681578Y-42408422D01*
X46712103Y-42433473D01*
X52843629Y-48565000D01*
X40702103Y-60706527D01*
X40671578Y-60731578D01*
X40617151Y-60797899D01*
X40571607Y-60853394D01*
X40497322Y-60992372D01*
X40497321Y-60992373D01*
X40451576Y-61143174D01*
X40440000Y-61260707D01*
X40436130Y-61300000D01*
X40440000Y-61339291D01*
X40440001Y-74776999D01*
X40320884Y-74955271D01*
X40234194Y-75164557D01*
X40190000Y-75386735D01*
X40190000Y-75613265D01*
X40234194Y-75835443D01*
X40320884Y-76044729D01*
X40446737Y-76233082D01*
X40606918Y-76393263D01*
X40795271Y-76519116D01*
X41004557Y-76605806D01*
X41226735Y-76650000D01*
X41453265Y-76650000D01*
X41675443Y-76605806D01*
X41884729Y-76519116D01*
X42073082Y-76393263D01*
X42233263Y-76233082D01*
X42359116Y-76044729D01*
X42445806Y-75835443D01*
X42490000Y-75613265D01*
X42490000Y-75386735D01*
X42445806Y-75164557D01*
X42359116Y-74955271D01*
X42233263Y-74766918D01*
X42073082Y-74606737D01*
X42040000Y-74584632D01*
X42040000Y-61631370D01*
X50317869Y-53353501D01*
X55358632Y-53353501D01*
X55440728Y-53524967D01*
X55651435Y-53614381D01*
X55875538Y-53660970D01*
X56104423Y-53662944D01*
X56329296Y-53620226D01*
X56541514Y-53534459D01*
X56559272Y-53524967D01*
X56641368Y-53353501D01*
X56000000Y-52712132D01*
X55358632Y-53353501D01*
X50317869Y-53353501D01*
X51066947Y-52604423D01*
X54837056Y-52604423D01*
X54879774Y-52829296D01*
X54965541Y-53041514D01*
X54975033Y-53059272D01*
X55146499Y-53141368D01*
X55787868Y-52500000D01*
X56212132Y-52500000D01*
X56853501Y-53141368D01*
X57024967Y-53059272D01*
X57114381Y-52848565D01*
X57160970Y-52624462D01*
X57162944Y-52395577D01*
X57120226Y-52170704D01*
X57034459Y-51958486D01*
X57024967Y-51940728D01*
X56853501Y-51858632D01*
X56212132Y-52500000D01*
X55787868Y-52500000D01*
X55146499Y-51858632D01*
X54975033Y-51940728D01*
X54885619Y-52151435D01*
X54839030Y-52375538D01*
X54837056Y-52604423D01*
X51066947Y-52604423D01*
X54371371Y-49300000D01*
X55298104Y-49300000D01*
X55323014Y-49324910D01*
X55496954Y-49441133D01*
X55639073Y-49500000D01*
X55496954Y-49558867D01*
X55323014Y-49675090D01*
X55175090Y-49823014D01*
X55058867Y-49996954D01*
X54978812Y-50190226D01*
X54938000Y-50395402D01*
X54938000Y-50604598D01*
X54978812Y-50809774D01*
X55058867Y-51003046D01*
X55175090Y-51176986D01*
X55323014Y-51324910D01*
X55496954Y-51441133D01*
X55507782Y-51445618D01*
X55458486Y-51465541D01*
X55440728Y-51475033D01*
X55358632Y-51646499D01*
X56000000Y-52287868D01*
X56641368Y-51646499D01*
X56559272Y-51475033D01*
X56491073Y-51446092D01*
X56503046Y-51441133D01*
X56676986Y-51324910D01*
X56824910Y-51176986D01*
X56941133Y-51003046D01*
X57021188Y-50809774D01*
X57062000Y-50604598D01*
X57062000Y-50395402D01*
X57021188Y-50190226D01*
X56941133Y-49996954D01*
X56824910Y-49823014D01*
X56676986Y-49675090D01*
X56503046Y-49558867D01*
X56360927Y-49500000D01*
X56503046Y-49441133D01*
X56676986Y-49324910D01*
X56824910Y-49176986D01*
X56941133Y-49003046D01*
X57021188Y-48809774D01*
X57062000Y-48604598D01*
X57062000Y-48529609D01*
X58150001Y-49617610D01*
X58150000Y-53838629D01*
X44062099Y-67926531D01*
X44031579Y-67951578D01*
X44006532Y-67982098D01*
X44006531Y-67982099D01*
X43931607Y-68073394D01*
X43857321Y-68212373D01*
X43811577Y-68363173D01*
X43796130Y-68520000D01*
X43800001Y-68559301D01*
X43800000Y-74350000D01*
X43766735Y-74350000D01*
X43544557Y-74394194D01*
X43335271Y-74480884D01*
X43146918Y-74606737D01*
X42986737Y-74766918D01*
X42860884Y-74955271D01*
X42774194Y-75164557D01*
X42730000Y-75386735D01*
X42730000Y-75613265D01*
X42774194Y-75835443D01*
X42860884Y-76044729D01*
X42986737Y-76233082D01*
X43146918Y-76393263D01*
X43335271Y-76519116D01*
X43544557Y-76605806D01*
X43766735Y-76650000D01*
X43993265Y-76650000D01*
X44215443Y-76605806D01*
X44424729Y-76519116D01*
X44613082Y-76393263D01*
X44773263Y-76233082D01*
X44899116Y-76044729D01*
X44985806Y-75835443D01*
X45030000Y-75613265D01*
X45030000Y-75481370D01*
X45124635Y-75386735D01*
X45270000Y-75386735D01*
X45270000Y-75613265D01*
X45314194Y-75835443D01*
X45400884Y-76044729D01*
X45526737Y-76233082D01*
X45686918Y-76393263D01*
X45875271Y-76519116D01*
X46084557Y-76605806D01*
X46306735Y-76650000D01*
X46533265Y-76650000D01*
X46755443Y-76605806D01*
X46964729Y-76519116D01*
X47153082Y-76393263D01*
X47313263Y-76233082D01*
X47439116Y-76044729D01*
X47525806Y-75835443D01*
X47570000Y-75613265D01*
X47570000Y-75386735D01*
X47810000Y-75386735D01*
X47810000Y-75613265D01*
X47854194Y-75835443D01*
X47940884Y-76044729D01*
X48066737Y-76233082D01*
X48226918Y-76393263D01*
X48415271Y-76519116D01*
X48624557Y-76605806D01*
X48846735Y-76650000D01*
X49073265Y-76650000D01*
X49295443Y-76605806D01*
X49504729Y-76519116D01*
X49693082Y-76393263D01*
X49736345Y-76350000D01*
X50248065Y-76350000D01*
X50255788Y-76428414D01*
X50278660Y-76503814D01*
X50315803Y-76573303D01*
X50365789Y-76634211D01*
X50426697Y-76684197D01*
X50496186Y-76721340D01*
X50571586Y-76744212D01*
X50650000Y-76751935D01*
X51250000Y-76750000D01*
X51350000Y-76650000D01*
X51350000Y-75650000D01*
X51650000Y-75650000D01*
X51650000Y-76650000D01*
X51750000Y-76750000D01*
X52350000Y-76751935D01*
X52428414Y-76744212D01*
X52503814Y-76721340D01*
X52573303Y-76684197D01*
X52634211Y-76634211D01*
X52684197Y-76573303D01*
X52721340Y-76503814D01*
X52744212Y-76428414D01*
X52751935Y-76350000D01*
X52750000Y-75750000D01*
X52650000Y-75650000D01*
X51650000Y-75650000D01*
X51350000Y-75650000D01*
X50350000Y-75650000D01*
X50250000Y-75750000D01*
X50248065Y-76350000D01*
X49736345Y-76350000D01*
X49853263Y-76233082D01*
X49979116Y-76044729D01*
X50065806Y-75835443D01*
X50110000Y-75613265D01*
X50110000Y-75416605D01*
X59015527Y-75416605D01*
X59108350Y-75597059D01*
X59334128Y-75695307D01*
X59574736Y-75747618D01*
X59820925Y-75751986D01*
X60063236Y-75708240D01*
X60292356Y-75618062D01*
X60331650Y-75597059D01*
X60424473Y-75416605D01*
X61555527Y-75416605D01*
X61648350Y-75597059D01*
X61874128Y-75695307D01*
X62114736Y-75747618D01*
X62360925Y-75751986D01*
X62603236Y-75708240D01*
X62832356Y-75618062D01*
X62871650Y-75597059D01*
X62964473Y-75416605D01*
X64095527Y-75416605D01*
X64188350Y-75597059D01*
X64414128Y-75695307D01*
X64654736Y-75747618D01*
X64900925Y-75751986D01*
X65143236Y-75708240D01*
X65372356Y-75618062D01*
X65411650Y-75597059D01*
X65504473Y-75416605D01*
X66635527Y-75416605D01*
X66728350Y-75597059D01*
X66954128Y-75695307D01*
X67194736Y-75747618D01*
X67440925Y-75751986D01*
X67683236Y-75708240D01*
X67912356Y-75618062D01*
X67951650Y-75597059D01*
X68044473Y-75416605D01*
X69175527Y-75416605D01*
X69268350Y-75597059D01*
X69494128Y-75695307D01*
X69734736Y-75747618D01*
X69980925Y-75751986D01*
X70223236Y-75708240D01*
X70452356Y-75618062D01*
X70491650Y-75597059D01*
X70584473Y-75416605D01*
X71715527Y-75416605D01*
X71808350Y-75597059D01*
X72034128Y-75695307D01*
X72274736Y-75747618D01*
X72520925Y-75751986D01*
X72763236Y-75708240D01*
X72992356Y-75618062D01*
X73031650Y-75597059D01*
X73124473Y-75416605D01*
X74255527Y-75416605D01*
X74348350Y-75597059D01*
X74574128Y-75695307D01*
X74814736Y-75747618D01*
X75060925Y-75751986D01*
X75303236Y-75708240D01*
X75532356Y-75618062D01*
X75571650Y-75597059D01*
X75664473Y-75416605D01*
X76795527Y-75416605D01*
X76888350Y-75597059D01*
X77114128Y-75695307D01*
X77354736Y-75747618D01*
X77600925Y-75751986D01*
X77843236Y-75708240D01*
X78072356Y-75618062D01*
X78111650Y-75597059D01*
X78204473Y-75416605D01*
X79335527Y-75416605D01*
X79428350Y-75597059D01*
X79654128Y-75695307D01*
X79894736Y-75747618D01*
X80140925Y-75751986D01*
X80383236Y-75708240D01*
X80612356Y-75618062D01*
X80651650Y-75597059D01*
X80744473Y-75416605D01*
X80040000Y-74712132D01*
X79335527Y-75416605D01*
X78204473Y-75416605D01*
X77500000Y-74712132D01*
X76795527Y-75416605D01*
X75664473Y-75416605D01*
X74960000Y-74712132D01*
X74255527Y-75416605D01*
X73124473Y-75416605D01*
X72420000Y-74712132D01*
X71715527Y-75416605D01*
X70584473Y-75416605D01*
X69880000Y-74712132D01*
X69175527Y-75416605D01*
X68044473Y-75416605D01*
X67340000Y-74712132D01*
X66635527Y-75416605D01*
X65504473Y-75416605D01*
X64800000Y-74712132D01*
X64095527Y-75416605D01*
X62964473Y-75416605D01*
X62260000Y-74712132D01*
X61555527Y-75416605D01*
X60424473Y-75416605D01*
X59720000Y-74712132D01*
X59015527Y-75416605D01*
X50110000Y-75416605D01*
X50110000Y-75386735D01*
X50065806Y-75164557D01*
X49979116Y-74955271D01*
X49853263Y-74766918D01*
X49736345Y-74650000D01*
X50248065Y-74650000D01*
X50250000Y-75250000D01*
X50350000Y-75350000D01*
X51350000Y-75350000D01*
X51350000Y-74350000D01*
X51650000Y-74350000D01*
X51650000Y-75350000D01*
X52650000Y-75350000D01*
X52750000Y-75250000D01*
X52751935Y-74650000D01*
X52747102Y-74600925D01*
X58468014Y-74600925D01*
X58511760Y-74843236D01*
X58601938Y-75072356D01*
X58622941Y-75111650D01*
X58803395Y-75204473D01*
X59507868Y-74500000D01*
X59932132Y-74500000D01*
X60636605Y-75204473D01*
X60817059Y-75111650D01*
X60915307Y-74885872D01*
X60967618Y-74645264D01*
X60968404Y-74600925D01*
X61008014Y-74600925D01*
X61051760Y-74843236D01*
X61141938Y-75072356D01*
X61162941Y-75111650D01*
X61343395Y-75204473D01*
X62047868Y-74500000D01*
X62472132Y-74500000D01*
X63176605Y-75204473D01*
X63357059Y-75111650D01*
X63455307Y-74885872D01*
X63507618Y-74645264D01*
X63508404Y-74600925D01*
X63548014Y-74600925D01*
X63591760Y-74843236D01*
X63681938Y-75072356D01*
X63702941Y-75111650D01*
X63883395Y-75204473D01*
X64587868Y-74500000D01*
X65012132Y-74500000D01*
X65716605Y-75204473D01*
X65897059Y-75111650D01*
X65995307Y-74885872D01*
X66047618Y-74645264D01*
X66048404Y-74600925D01*
X66088014Y-74600925D01*
X66131760Y-74843236D01*
X66221938Y-75072356D01*
X66242941Y-75111650D01*
X66423395Y-75204473D01*
X67127868Y-74500000D01*
X67552132Y-74500000D01*
X68256605Y-75204473D01*
X68437059Y-75111650D01*
X68535307Y-74885872D01*
X68587618Y-74645264D01*
X68588404Y-74600925D01*
X68628014Y-74600925D01*
X68671760Y-74843236D01*
X68761938Y-75072356D01*
X68782941Y-75111650D01*
X68963395Y-75204473D01*
X69667868Y-74500000D01*
X70092132Y-74500000D01*
X70796605Y-75204473D01*
X70977059Y-75111650D01*
X71075307Y-74885872D01*
X71127618Y-74645264D01*
X71128404Y-74600925D01*
X71168014Y-74600925D01*
X71211760Y-74843236D01*
X71301938Y-75072356D01*
X71322941Y-75111650D01*
X71503395Y-75204473D01*
X72207868Y-74500000D01*
X72632132Y-74500000D01*
X73336605Y-75204473D01*
X73517059Y-75111650D01*
X73615307Y-74885872D01*
X73667618Y-74645264D01*
X73668404Y-74600925D01*
X73708014Y-74600925D01*
X73751760Y-74843236D01*
X73841938Y-75072356D01*
X73862941Y-75111650D01*
X74043395Y-75204473D01*
X74747868Y-74500000D01*
X75172132Y-74500000D01*
X75876605Y-75204473D01*
X76057059Y-75111650D01*
X76155307Y-74885872D01*
X76207618Y-74645264D01*
X76208404Y-74600925D01*
X76248014Y-74600925D01*
X76291760Y-74843236D01*
X76381938Y-75072356D01*
X76402941Y-75111650D01*
X76583395Y-75204473D01*
X77287868Y-74500000D01*
X77712132Y-74500000D01*
X78416605Y-75204473D01*
X78597059Y-75111650D01*
X78695307Y-74885872D01*
X78747618Y-74645264D01*
X78748404Y-74600925D01*
X78788014Y-74600925D01*
X78831760Y-74843236D01*
X78921938Y-75072356D01*
X78942941Y-75111650D01*
X79123395Y-75204473D01*
X79827868Y-74500000D01*
X80252132Y-74500000D01*
X80956605Y-75204473D01*
X81137059Y-75111650D01*
X81235307Y-74885872D01*
X81287618Y-74645264D01*
X81291986Y-74399075D01*
X81289759Y-74386735D01*
X81430000Y-74386735D01*
X81430000Y-74613265D01*
X81474194Y-74835443D01*
X81560884Y-75044729D01*
X81686737Y-75233082D01*
X81846918Y-75393263D01*
X82035271Y-75519116D01*
X82244557Y-75605806D01*
X82466735Y-75650000D01*
X82693265Y-75650000D01*
X82915443Y-75605806D01*
X83124729Y-75519116D01*
X83313082Y-75393263D01*
X83473263Y-75233082D01*
X83599116Y-75044729D01*
X83685806Y-74835443D01*
X83730000Y-74613265D01*
X83730000Y-74386735D01*
X83685806Y-74164557D01*
X83599116Y-73955271D01*
X83473263Y-73766918D01*
X83313082Y-73606737D01*
X83124729Y-73480884D01*
X82915443Y-73394194D01*
X82693265Y-73350000D01*
X82466735Y-73350000D01*
X82244557Y-73394194D01*
X82035271Y-73480884D01*
X81846918Y-73606737D01*
X81686737Y-73766918D01*
X81560884Y-73955271D01*
X81474194Y-74164557D01*
X81430000Y-74386735D01*
X81289759Y-74386735D01*
X81248240Y-74156764D01*
X81158062Y-73927644D01*
X81137059Y-73888350D01*
X80956605Y-73795527D01*
X80252132Y-74500000D01*
X79827868Y-74500000D01*
X79123395Y-73795527D01*
X78942941Y-73888350D01*
X78844693Y-74114128D01*
X78792382Y-74354736D01*
X78788014Y-74600925D01*
X78748404Y-74600925D01*
X78751986Y-74399075D01*
X78708240Y-74156764D01*
X78618062Y-73927644D01*
X78597059Y-73888350D01*
X78416605Y-73795527D01*
X77712132Y-74500000D01*
X77287868Y-74500000D01*
X76583395Y-73795527D01*
X76402941Y-73888350D01*
X76304693Y-74114128D01*
X76252382Y-74354736D01*
X76248014Y-74600925D01*
X76208404Y-74600925D01*
X76211986Y-74399075D01*
X76168240Y-74156764D01*
X76078062Y-73927644D01*
X76057059Y-73888350D01*
X75876605Y-73795527D01*
X75172132Y-74500000D01*
X74747868Y-74500000D01*
X74043395Y-73795527D01*
X73862941Y-73888350D01*
X73764693Y-74114128D01*
X73712382Y-74354736D01*
X73708014Y-74600925D01*
X73668404Y-74600925D01*
X73671986Y-74399075D01*
X73628240Y-74156764D01*
X73538062Y-73927644D01*
X73517059Y-73888350D01*
X73336605Y-73795527D01*
X72632132Y-74500000D01*
X72207868Y-74500000D01*
X71503395Y-73795527D01*
X71322941Y-73888350D01*
X71224693Y-74114128D01*
X71172382Y-74354736D01*
X71168014Y-74600925D01*
X71128404Y-74600925D01*
X71131986Y-74399075D01*
X71088240Y-74156764D01*
X70998062Y-73927644D01*
X70977059Y-73888350D01*
X70796605Y-73795527D01*
X70092132Y-74500000D01*
X69667868Y-74500000D01*
X68963395Y-73795527D01*
X68782941Y-73888350D01*
X68684693Y-74114128D01*
X68632382Y-74354736D01*
X68628014Y-74600925D01*
X68588404Y-74600925D01*
X68591986Y-74399075D01*
X68548240Y-74156764D01*
X68458062Y-73927644D01*
X68437059Y-73888350D01*
X68256605Y-73795527D01*
X67552132Y-74500000D01*
X67127868Y-74500000D01*
X66423395Y-73795527D01*
X66242941Y-73888350D01*
X66144693Y-74114128D01*
X66092382Y-74354736D01*
X66088014Y-74600925D01*
X66048404Y-74600925D01*
X66051986Y-74399075D01*
X66008240Y-74156764D01*
X65918062Y-73927644D01*
X65897059Y-73888350D01*
X65716605Y-73795527D01*
X65012132Y-74500000D01*
X64587868Y-74500000D01*
X63883395Y-73795527D01*
X63702941Y-73888350D01*
X63604693Y-74114128D01*
X63552382Y-74354736D01*
X63548014Y-74600925D01*
X63508404Y-74600925D01*
X63511986Y-74399075D01*
X63468240Y-74156764D01*
X63378062Y-73927644D01*
X63357059Y-73888350D01*
X63176605Y-73795527D01*
X62472132Y-74500000D01*
X62047868Y-74500000D01*
X61343395Y-73795527D01*
X61162941Y-73888350D01*
X61064693Y-74114128D01*
X61012382Y-74354736D01*
X61008014Y-74600925D01*
X60968404Y-74600925D01*
X60971986Y-74399075D01*
X60928240Y-74156764D01*
X60838062Y-73927644D01*
X60817059Y-73888350D01*
X60636605Y-73795527D01*
X59932132Y-74500000D01*
X59507868Y-74500000D01*
X58803395Y-73795527D01*
X58622941Y-73888350D01*
X58524693Y-74114128D01*
X58472382Y-74354736D01*
X58468014Y-74600925D01*
X52747102Y-74600925D01*
X52744212Y-74571586D01*
X52721340Y-74496186D01*
X52684197Y-74426697D01*
X52634211Y-74365789D01*
X52573303Y-74315803D01*
X52503814Y-74278660D01*
X52428414Y-74255788D01*
X52350000Y-74248065D01*
X51750000Y-74250000D01*
X51650000Y-74350000D01*
X51350000Y-74350000D01*
X51250000Y-74250000D01*
X50650000Y-74248065D01*
X50571586Y-74255788D01*
X50496186Y-74278660D01*
X50426697Y-74315803D01*
X50365789Y-74365789D01*
X50315803Y-74426697D01*
X50278660Y-74496186D01*
X50255788Y-74571586D01*
X50248065Y-74650000D01*
X49736345Y-74650000D01*
X49693082Y-74606737D01*
X49504729Y-74480884D01*
X49295443Y-74394194D01*
X49073265Y-74350000D01*
X48846735Y-74350000D01*
X48624557Y-74394194D01*
X48415271Y-74480884D01*
X48226918Y-74606737D01*
X48066737Y-74766918D01*
X47940884Y-74955271D01*
X47854194Y-75164557D01*
X47810000Y-75386735D01*
X47570000Y-75386735D01*
X47525806Y-75164557D01*
X47439116Y-74955271D01*
X47313263Y-74766918D01*
X47153082Y-74606737D01*
X46964729Y-74480884D01*
X46755443Y-74394194D01*
X46533265Y-74350000D01*
X46306735Y-74350000D01*
X46084557Y-74394194D01*
X45875271Y-74480884D01*
X45686918Y-74606737D01*
X45526737Y-74766918D01*
X45400884Y-74955271D01*
X45314194Y-75164557D01*
X45270000Y-75386735D01*
X45124635Y-75386735D01*
X45137898Y-75373472D01*
X45168422Y-75348422D01*
X45228869Y-75274767D01*
X45268393Y-75226607D01*
X45342679Y-75087628D01*
X45355692Y-75044729D01*
X45388424Y-74936827D01*
X45400000Y-74819293D01*
X45400000Y-74819291D01*
X45403870Y-74780000D01*
X45400000Y-74740709D01*
X45400000Y-73583395D01*
X59015527Y-73583395D01*
X59720000Y-74287868D01*
X60424473Y-73583395D01*
X61555527Y-73583395D01*
X62260000Y-74287868D01*
X62964473Y-73583395D01*
X64095527Y-73583395D01*
X64800000Y-74287868D01*
X65504473Y-73583395D01*
X66635527Y-73583395D01*
X67340000Y-74287868D01*
X68044473Y-73583395D01*
X69175527Y-73583395D01*
X69880000Y-74287868D01*
X70584473Y-73583395D01*
X71715527Y-73583395D01*
X72420000Y-74287868D01*
X73124473Y-73583395D01*
X74255527Y-73583395D01*
X74960000Y-74287868D01*
X75664473Y-73583395D01*
X76795527Y-73583395D01*
X77500000Y-74287868D01*
X78204473Y-73583395D01*
X79335527Y-73583395D01*
X80040000Y-74287868D01*
X80744473Y-73583395D01*
X80651650Y-73402941D01*
X80425872Y-73304693D01*
X80185264Y-73252382D01*
X79939075Y-73248014D01*
X79696764Y-73291760D01*
X79467644Y-73381938D01*
X79428350Y-73402941D01*
X79335527Y-73583395D01*
X78204473Y-73583395D01*
X78111650Y-73402941D01*
X77885872Y-73304693D01*
X77645264Y-73252382D01*
X77399075Y-73248014D01*
X77156764Y-73291760D01*
X76927644Y-73381938D01*
X76888350Y-73402941D01*
X76795527Y-73583395D01*
X75664473Y-73583395D01*
X75571650Y-73402941D01*
X75345872Y-73304693D01*
X75105264Y-73252382D01*
X74859075Y-73248014D01*
X74616764Y-73291760D01*
X74387644Y-73381938D01*
X74348350Y-73402941D01*
X74255527Y-73583395D01*
X73124473Y-73583395D01*
X73031650Y-73402941D01*
X72805872Y-73304693D01*
X72565264Y-73252382D01*
X72319075Y-73248014D01*
X72076764Y-73291760D01*
X71847644Y-73381938D01*
X71808350Y-73402941D01*
X71715527Y-73583395D01*
X70584473Y-73583395D01*
X70491650Y-73402941D01*
X70265872Y-73304693D01*
X70025264Y-73252382D01*
X69779075Y-73248014D01*
X69536764Y-73291760D01*
X69307644Y-73381938D01*
X69268350Y-73402941D01*
X69175527Y-73583395D01*
X68044473Y-73583395D01*
X67951650Y-73402941D01*
X67725872Y-73304693D01*
X67485264Y-73252382D01*
X67239075Y-73248014D01*
X66996764Y-73291760D01*
X66767644Y-73381938D01*
X66728350Y-73402941D01*
X66635527Y-73583395D01*
X65504473Y-73583395D01*
X65411650Y-73402941D01*
X65185872Y-73304693D01*
X64945264Y-73252382D01*
X64699075Y-73248014D01*
X64456764Y-73291760D01*
X64227644Y-73381938D01*
X64188350Y-73402941D01*
X64095527Y-73583395D01*
X62964473Y-73583395D01*
X62871650Y-73402941D01*
X62645872Y-73304693D01*
X62405264Y-73252382D01*
X62159075Y-73248014D01*
X61916764Y-73291760D01*
X61687644Y-73381938D01*
X61648350Y-73402941D01*
X61555527Y-73583395D01*
X60424473Y-73583395D01*
X60331650Y-73402941D01*
X60105872Y-73304693D01*
X59865264Y-73252382D01*
X59619075Y-73248014D01*
X59376764Y-73291760D01*
X59147644Y-73381938D01*
X59108350Y-73402941D01*
X59015527Y-73583395D01*
X45400000Y-73583395D01*
X45400000Y-71846735D01*
X58570000Y-71846735D01*
X58570000Y-72073265D01*
X58614194Y-72295443D01*
X58700884Y-72504729D01*
X58826737Y-72693082D01*
X58986918Y-72853263D01*
X59175271Y-72979116D01*
X59384557Y-73065806D01*
X59606735Y-73110000D01*
X59833265Y-73110000D01*
X60055443Y-73065806D01*
X60264729Y-72979116D01*
X60453082Y-72853263D01*
X60613263Y-72693082D01*
X60739116Y-72504729D01*
X60825806Y-72295443D01*
X60870000Y-72073265D01*
X60870000Y-71846735D01*
X61110000Y-71846735D01*
X61110000Y-72073265D01*
X61154194Y-72295443D01*
X61240884Y-72504729D01*
X61366737Y-72693082D01*
X61526918Y-72853263D01*
X61715271Y-72979116D01*
X61924557Y-73065806D01*
X62146735Y-73110000D01*
X62373265Y-73110000D01*
X62595443Y-73065806D01*
X62804729Y-72979116D01*
X62993082Y-72853263D01*
X63153263Y-72693082D01*
X63279116Y-72504729D01*
X63365806Y-72295443D01*
X63410000Y-72073265D01*
X63410000Y-71846735D01*
X63650000Y-71846735D01*
X63650000Y-72073265D01*
X63694194Y-72295443D01*
X63780884Y-72504729D01*
X63906737Y-72693082D01*
X64066918Y-72853263D01*
X64255271Y-72979116D01*
X64464557Y-73065806D01*
X64686735Y-73110000D01*
X64913265Y-73110000D01*
X65135443Y-73065806D01*
X65344729Y-72979116D01*
X65533082Y-72853263D01*
X65693263Y-72693082D01*
X65819116Y-72504729D01*
X65905806Y-72295443D01*
X65950000Y-72073265D01*
X65950000Y-71846735D01*
X65905806Y-71624557D01*
X65819116Y-71415271D01*
X65693263Y-71226918D01*
X65533082Y-71066737D01*
X65344729Y-70940884D01*
X65135443Y-70854194D01*
X64913265Y-70810000D01*
X64686735Y-70810000D01*
X64464557Y-70854194D01*
X64255271Y-70940884D01*
X64066918Y-71066737D01*
X63906737Y-71226918D01*
X63780884Y-71415271D01*
X63694194Y-71624557D01*
X63650000Y-71846735D01*
X63410000Y-71846735D01*
X63365806Y-71624557D01*
X63279116Y-71415271D01*
X63153263Y-71226918D01*
X62993082Y-71066737D01*
X62804729Y-70940884D01*
X62595443Y-70854194D01*
X62373265Y-70810000D01*
X62146735Y-70810000D01*
X61924557Y-70854194D01*
X61715271Y-70940884D01*
X61526918Y-71066737D01*
X61366737Y-71226918D01*
X61240884Y-71415271D01*
X61154194Y-71624557D01*
X61110000Y-71846735D01*
X60870000Y-71846735D01*
X60825806Y-71624557D01*
X60739116Y-71415271D01*
X60613263Y-71226918D01*
X60453082Y-71066737D01*
X60264729Y-70940884D01*
X60055443Y-70854194D01*
X59833265Y-70810000D01*
X59606735Y-70810000D01*
X59384557Y-70854194D01*
X59175271Y-70940884D01*
X58986918Y-71066737D01*
X58826737Y-71226918D01*
X58700884Y-71415271D01*
X58614194Y-71624557D01*
X58570000Y-71846735D01*
X45400000Y-71846735D01*
X45400000Y-68851370D01*
X59487904Y-54763467D01*
X59518422Y-54738422D01*
X59543470Y-54707901D01*
X59618393Y-54616607D01*
X59692679Y-54477628D01*
X59716227Y-54400000D01*
X59738424Y-54326827D01*
X59750000Y-54209293D01*
X59750000Y-54209291D01*
X59753870Y-54170000D01*
X59750000Y-54130709D01*
X59750000Y-49325529D01*
X59753870Y-49286238D01*
X59746206Y-49208424D01*
X59738424Y-49129411D01*
X59692679Y-48978610D01*
X59618393Y-48839631D01*
X59543470Y-48748337D01*
X59543469Y-48748336D01*
X59518422Y-48717816D01*
X59487902Y-48692769D01*
X57063451Y-46268319D01*
X57063451Y-45738000D01*
X57057659Y-45679190D01*
X57040504Y-45622640D01*
X57012647Y-45570523D01*
X56975158Y-45524842D01*
X56929477Y-45487353D01*
X56877360Y-45459496D01*
X56820810Y-45442341D01*
X56762000Y-45436549D01*
X56067920Y-45436549D01*
X50570000Y-39938630D01*
X50570000Y-35807644D01*
X50734557Y-35875806D01*
X50956735Y-35920000D01*
X51183265Y-35920000D01*
X51405443Y-35875806D01*
X51614729Y-35789116D01*
X51803082Y-35663263D01*
X51963263Y-35503082D01*
X52089116Y-35314729D01*
X52175806Y-35105443D01*
X52220000Y-34883265D01*
X52220000Y-34656735D01*
X52460000Y-34656735D01*
X52460000Y-34883265D01*
X52504194Y-35105443D01*
X52590884Y-35314729D01*
X52716737Y-35503082D01*
X52876918Y-35663263D01*
X53065271Y-35789116D01*
X53274557Y-35875806D01*
X53496735Y-35920000D01*
X53723265Y-35920000D01*
X53945443Y-35875806D01*
X54154729Y-35789116D01*
X54343082Y-35663263D01*
X54503263Y-35503082D01*
X54629116Y-35314729D01*
X54715806Y-35105443D01*
X54760000Y-34883265D01*
X54760000Y-34656735D01*
X55000000Y-34656735D01*
X55000000Y-34883265D01*
X55044194Y-35105443D01*
X55130884Y-35314729D01*
X55256737Y-35503082D01*
X55416918Y-35663263D01*
X55605271Y-35789116D01*
X55814557Y-35875806D01*
X56036735Y-35920000D01*
X56263265Y-35920000D01*
X56485443Y-35875806D01*
X56694729Y-35789116D01*
X56883082Y-35663263D01*
X57043263Y-35503082D01*
X57169116Y-35314729D01*
X57255806Y-35105443D01*
X57300000Y-34883265D01*
X57300000Y-34656735D01*
X57255806Y-34434557D01*
X57169116Y-34225271D01*
X57043263Y-34036918D01*
X56883082Y-33876737D01*
X56694729Y-33750884D01*
X56485443Y-33664194D01*
X56263265Y-33620000D01*
X56036735Y-33620000D01*
X55814557Y-33664194D01*
X55605271Y-33750884D01*
X55416918Y-33876737D01*
X55256737Y-34036918D01*
X55130884Y-34225271D01*
X55044194Y-34434557D01*
X55000000Y-34656735D01*
X54760000Y-34656735D01*
X54715806Y-34434557D01*
X54629116Y-34225271D01*
X54503263Y-34036918D01*
X54343082Y-33876737D01*
X54154729Y-33750884D01*
X53945443Y-33664194D01*
X53723265Y-33620000D01*
X53496735Y-33620000D01*
X53274557Y-33664194D01*
X53065271Y-33750884D01*
X52876918Y-33876737D01*
X52716737Y-34036918D01*
X52590884Y-34225271D01*
X52504194Y-34434557D01*
X52460000Y-34656735D01*
X52220000Y-34656735D01*
X52175806Y-34434557D01*
X52089116Y-34225271D01*
X51963263Y-34036918D01*
X51803082Y-33876737D01*
X51614729Y-33750884D01*
X51405443Y-33664194D01*
X51183265Y-33620000D01*
X50956735Y-33620000D01*
X50734557Y-33664194D01*
X50525271Y-33750884D01*
X50336918Y-33876737D01*
X50220000Y-33993655D01*
X50220000Y-33492094D01*
X50222176Y-33470000D01*
X50220000Y-33447906D01*
X50220000Y-33447895D01*
X50213489Y-33381785D01*
X50187757Y-33296959D01*
X50173384Y-33270069D01*
X50145971Y-33218783D01*
X50103828Y-33167432D01*
X50103824Y-33167428D01*
X50089737Y-33150263D01*
X50072573Y-33136177D01*
X49596568Y-32660172D01*
X49635806Y-32565443D01*
X49680000Y-32343265D01*
X49680000Y-32116735D01*
X49920000Y-32116735D01*
X49920000Y-32343265D01*
X49964194Y-32565443D01*
X50050884Y-32774729D01*
X50176737Y-32963082D01*
X50336918Y-33123263D01*
X50525271Y-33249116D01*
X50734557Y-33335806D01*
X50956735Y-33380000D01*
X51183265Y-33380000D01*
X51405443Y-33335806D01*
X51614729Y-33249116D01*
X51803082Y-33123263D01*
X51963263Y-32963082D01*
X52089116Y-32774729D01*
X52172972Y-32572284D01*
X52407770Y-32572284D01*
X52497647Y-32800251D01*
X52630271Y-33006303D01*
X52800545Y-33182522D01*
X53001926Y-33322136D01*
X53226675Y-33419780D01*
X53267717Y-33432223D01*
X53460000Y-33370175D01*
X53460000Y-32380000D01*
X53760000Y-32380000D01*
X53760000Y-33370175D01*
X53952283Y-33432223D01*
X53993325Y-33419780D01*
X54218074Y-33322136D01*
X54419455Y-33182522D01*
X54589729Y-33006303D01*
X54722353Y-32800251D01*
X54812230Y-32572284D01*
X54750974Y-32380000D01*
X53760000Y-32380000D01*
X53460000Y-32380000D01*
X52469026Y-32380000D01*
X52407770Y-32572284D01*
X52172972Y-32572284D01*
X52175806Y-32565443D01*
X52220000Y-32343265D01*
X52220000Y-32116735D01*
X55000000Y-32116735D01*
X55000000Y-32343265D01*
X55044194Y-32565443D01*
X55130884Y-32774729D01*
X55256737Y-32963082D01*
X55416918Y-33123263D01*
X55605271Y-33249116D01*
X55814557Y-33335806D01*
X56036735Y-33380000D01*
X56263265Y-33380000D01*
X56485443Y-33335806D01*
X56694729Y-33249116D01*
X56883082Y-33123263D01*
X57043263Y-32963082D01*
X57169116Y-32774729D01*
X57255806Y-32565443D01*
X57300000Y-32343265D01*
X57300000Y-32116735D01*
X57540000Y-32116735D01*
X57540000Y-32343265D01*
X57584194Y-32565443D01*
X57670884Y-32774729D01*
X57796737Y-32963082D01*
X57956918Y-33123263D01*
X58145271Y-33249116D01*
X58354557Y-33335806D01*
X58576735Y-33380000D01*
X58803265Y-33380000D01*
X59025443Y-33335806D01*
X59120172Y-33296568D01*
X59440001Y-33616397D01*
X59440001Y-33893656D01*
X59423082Y-33876737D01*
X59234729Y-33750884D01*
X59025443Y-33664194D01*
X58803265Y-33620000D01*
X58576735Y-33620000D01*
X58354557Y-33664194D01*
X58145271Y-33750884D01*
X57956918Y-33876737D01*
X57796737Y-34036918D01*
X57670884Y-34225271D01*
X57584194Y-34434557D01*
X57540000Y-34656735D01*
X57540000Y-34883265D01*
X57584194Y-35105443D01*
X57670884Y-35314729D01*
X57796737Y-35503082D01*
X57956918Y-35663263D01*
X58145271Y-35789116D01*
X58354557Y-35875806D01*
X58576735Y-35920000D01*
X58803265Y-35920000D01*
X59025443Y-35875806D01*
X59134814Y-35830503D01*
X59130000Y-35870000D01*
X59135764Y-35928527D01*
X59152836Y-35984805D01*
X59180559Y-36036671D01*
X59207617Y-36069642D01*
X59217321Y-36101630D01*
X59291607Y-36240608D01*
X59391578Y-36362424D01*
X59444420Y-36405790D01*
X66510001Y-43471372D01*
X66510000Y-71163655D01*
X66446737Y-71226918D01*
X66320884Y-71415271D01*
X66234194Y-71624557D01*
X66190000Y-71846735D01*
X66190000Y-72073265D01*
X66234194Y-72295443D01*
X66320884Y-72504729D01*
X66446737Y-72693082D01*
X66606918Y-72853263D01*
X66795271Y-72979116D01*
X67004557Y-73065806D01*
X67226735Y-73110000D01*
X67453265Y-73110000D01*
X67675443Y-73065806D01*
X67884729Y-72979116D01*
X68073082Y-72853263D01*
X68233263Y-72693082D01*
X68359116Y-72504729D01*
X68445806Y-72295443D01*
X68490000Y-72073265D01*
X68490000Y-71846735D01*
X68730000Y-71846735D01*
X68730000Y-72073265D01*
X68774194Y-72295443D01*
X68860884Y-72504729D01*
X68986737Y-72693082D01*
X69146918Y-72853263D01*
X69335271Y-72979116D01*
X69544557Y-73065806D01*
X69766735Y-73110000D01*
X69993265Y-73110000D01*
X70215443Y-73065806D01*
X70424729Y-72979116D01*
X70613082Y-72853263D01*
X70773263Y-72693082D01*
X70899116Y-72504729D01*
X70985806Y-72295443D01*
X71030000Y-72073265D01*
X71030000Y-71846735D01*
X70985806Y-71624557D01*
X70899116Y-71415271D01*
X70773263Y-71226918D01*
X70680000Y-71133655D01*
X70680000Y-41899282D01*
X70683869Y-41859999D01*
X70680000Y-41820716D01*
X70680000Y-41820707D01*
X70668424Y-41703173D01*
X70622679Y-41552372D01*
X70548393Y-41413394D01*
X70448422Y-41291578D01*
X70417897Y-41266527D01*
X70397901Y-41246531D01*
X70306606Y-41171607D01*
X70167627Y-41097321D01*
X70016827Y-41051577D01*
X69860000Y-41036130D01*
X69703173Y-41051577D01*
X69552373Y-41097321D01*
X69413394Y-41171607D01*
X69291579Y-41271579D01*
X69191607Y-41393394D01*
X69117321Y-41532373D01*
X69071577Y-41683173D01*
X69056130Y-41840000D01*
X69071577Y-41996827D01*
X69080001Y-42024598D01*
X69080000Y-71133655D01*
X68986737Y-71226918D01*
X68860884Y-71415271D01*
X68774194Y-71624557D01*
X68730000Y-71846735D01*
X68490000Y-71846735D01*
X68445806Y-71624557D01*
X68359116Y-71415271D01*
X68233263Y-71226918D01*
X68110000Y-71103655D01*
X68110000Y-43179290D01*
X68113870Y-43139999D01*
X68110000Y-43100707D01*
X68098424Y-42983173D01*
X68052679Y-42832372D01*
X68038024Y-42804955D01*
X67978393Y-42693393D01*
X67903469Y-42602098D01*
X67878422Y-42571578D01*
X67847902Y-42546531D01*
X61221370Y-35920000D01*
X61343265Y-35920000D01*
X61565443Y-35875806D01*
X61774729Y-35789116D01*
X61963082Y-35663263D01*
X62123263Y-35503082D01*
X62249116Y-35314729D01*
X62335806Y-35105443D01*
X62380000Y-34883265D01*
X62380000Y-34656735D01*
X62335806Y-34434557D01*
X62249116Y-34225271D01*
X62123263Y-34036918D01*
X61963082Y-33876737D01*
X61774729Y-33750884D01*
X61565443Y-33664194D01*
X61343265Y-33620000D01*
X61116735Y-33620000D01*
X60894557Y-33664194D01*
X60685271Y-33750884D01*
X60496918Y-33876737D01*
X60340001Y-34033654D01*
X60340001Y-33452095D01*
X60342177Y-33430001D01*
X60340001Y-33407907D01*
X60340001Y-33407896D01*
X60333490Y-33341786D01*
X60307758Y-33256960D01*
X60287352Y-33218783D01*
X60265972Y-33178784D01*
X60223829Y-33127433D01*
X60223825Y-33127429D01*
X60209738Y-33110264D01*
X60192574Y-33096178D01*
X59756568Y-32660172D01*
X59792972Y-32572284D01*
X60027770Y-32572284D01*
X60117647Y-32800251D01*
X60250271Y-33006303D01*
X60420545Y-33182522D01*
X60621926Y-33322136D01*
X60846675Y-33419780D01*
X60887717Y-33432223D01*
X61080000Y-33370175D01*
X61080000Y-32380000D01*
X61380000Y-32380000D01*
X61380000Y-33370175D01*
X61572283Y-33432223D01*
X61613325Y-33419780D01*
X61838074Y-33322136D01*
X62039455Y-33182522D01*
X62209729Y-33006303D01*
X62342353Y-32800251D01*
X62432230Y-32572284D01*
X62370974Y-32380000D01*
X61380000Y-32380000D01*
X61080000Y-32380000D01*
X60089026Y-32380000D01*
X60027770Y-32572284D01*
X59792972Y-32572284D01*
X59795806Y-32565443D01*
X59840000Y-32343265D01*
X59840000Y-32116735D01*
X62620000Y-32116735D01*
X62620000Y-32343265D01*
X62664194Y-32565443D01*
X62750884Y-32774729D01*
X62876737Y-32963082D01*
X63036918Y-33123263D01*
X63225271Y-33249116D01*
X63434557Y-33335806D01*
X63656735Y-33380000D01*
X63883265Y-33380000D01*
X64105443Y-33335806D01*
X64200172Y-33296568D01*
X64520001Y-33616397D01*
X64520001Y-33893656D01*
X64503082Y-33876737D01*
X64314729Y-33750884D01*
X64105443Y-33664194D01*
X63883265Y-33620000D01*
X63656735Y-33620000D01*
X63434557Y-33664194D01*
X63225271Y-33750884D01*
X63036918Y-33876737D01*
X62876737Y-34036918D01*
X62750884Y-34225271D01*
X62664194Y-34434557D01*
X62620000Y-34656735D01*
X62620000Y-34883265D01*
X62664194Y-35105443D01*
X62750884Y-35314729D01*
X62876737Y-35503082D01*
X63036918Y-35663263D01*
X63225271Y-35789116D01*
X63434557Y-35875806D01*
X63656735Y-35920000D01*
X63883265Y-35920000D01*
X64105443Y-35875806D01*
X64216170Y-35829941D01*
X64208633Y-35891778D01*
X64214397Y-35950305D01*
X64231469Y-36006583D01*
X64259192Y-36058449D01*
X64296501Y-36103910D01*
X64300134Y-36106891D01*
X64371607Y-36240608D01*
X64446531Y-36331903D01*
X64972526Y-36857898D01*
X64997577Y-36888423D01*
X65050419Y-36931789D01*
X67096530Y-38977901D01*
X67121578Y-39008422D01*
X67152098Y-39033469D01*
X67243393Y-39108393D01*
X67291803Y-39134269D01*
X67382372Y-39182679D01*
X67533173Y-39228424D01*
X67650707Y-39240000D01*
X67650716Y-39240000D01*
X67689999Y-39243869D01*
X67729282Y-39240000D01*
X69428630Y-39240000D01*
X71520001Y-41331371D01*
X71520000Y-71237001D01*
X71400884Y-71415271D01*
X71314194Y-71624557D01*
X71270000Y-71846735D01*
X71270000Y-72073265D01*
X71314194Y-72295443D01*
X71400884Y-72504729D01*
X71526737Y-72693082D01*
X71686918Y-72853263D01*
X71875271Y-72979116D01*
X72084557Y-73065806D01*
X72306735Y-73110000D01*
X72533265Y-73110000D01*
X72755443Y-73065806D01*
X72964729Y-72979116D01*
X73153082Y-72853263D01*
X73313263Y-72693082D01*
X73439116Y-72504729D01*
X73525806Y-72295443D01*
X73570000Y-72073265D01*
X73570000Y-71846735D01*
X73810000Y-71846735D01*
X73810000Y-72073265D01*
X73854194Y-72295443D01*
X73940884Y-72504729D01*
X74066737Y-72693082D01*
X74226918Y-72853263D01*
X74415271Y-72979116D01*
X74624557Y-73065806D01*
X74846735Y-73110000D01*
X75073265Y-73110000D01*
X75295443Y-73065806D01*
X75504729Y-72979116D01*
X75693082Y-72853263D01*
X75853263Y-72693082D01*
X75979116Y-72504729D01*
X76065806Y-72295443D01*
X76110000Y-72073265D01*
X76110000Y-71846735D01*
X76350000Y-71846735D01*
X76350000Y-72073265D01*
X76394194Y-72295443D01*
X76480884Y-72504729D01*
X76606737Y-72693082D01*
X76766918Y-72853263D01*
X76955271Y-72979116D01*
X77164557Y-73065806D01*
X77386735Y-73110000D01*
X77613265Y-73110000D01*
X77835443Y-73065806D01*
X78044729Y-72979116D01*
X78233082Y-72853263D01*
X78393263Y-72693082D01*
X78519116Y-72504729D01*
X78605806Y-72295443D01*
X78650000Y-72073265D01*
X78650000Y-71846735D01*
X78890000Y-71846735D01*
X78890000Y-72073265D01*
X78934194Y-72295443D01*
X79020884Y-72504729D01*
X79146737Y-72693082D01*
X79306918Y-72853263D01*
X79495271Y-72979116D01*
X79704557Y-73065806D01*
X79926735Y-73110000D01*
X80153265Y-73110000D01*
X80375443Y-73065806D01*
X80584729Y-72979116D01*
X80773082Y-72853263D01*
X80933263Y-72693082D01*
X81059116Y-72504729D01*
X81145806Y-72295443D01*
X81190000Y-72073265D01*
X81190000Y-71846735D01*
X81145806Y-71624557D01*
X81059116Y-71415271D01*
X80933263Y-71226918D01*
X80840000Y-71133655D01*
X80840000Y-71110000D01*
X81428549Y-71110000D01*
X81428549Y-72810000D01*
X81434341Y-72868810D01*
X81451496Y-72925360D01*
X81479353Y-72977477D01*
X81516842Y-73023158D01*
X81562523Y-73060647D01*
X81614640Y-73088504D01*
X81671190Y-73105659D01*
X81730000Y-73111451D01*
X83430000Y-73111451D01*
X83488810Y-73105659D01*
X83545360Y-73088504D01*
X83597477Y-73060647D01*
X83643158Y-73023158D01*
X83680647Y-72977477D01*
X83708504Y-72925360D01*
X83725659Y-72868810D01*
X83731451Y-72810000D01*
X83731451Y-71110000D01*
X83725659Y-71051190D01*
X83708504Y-70994640D01*
X83680647Y-70942523D01*
X83643158Y-70896842D01*
X83597477Y-70859353D01*
X83545360Y-70831496D01*
X83488810Y-70814341D01*
X83430000Y-70808549D01*
X81730000Y-70808549D01*
X81671190Y-70814341D01*
X81614640Y-70831496D01*
X81562523Y-70859353D01*
X81516842Y-70896842D01*
X81479353Y-70942523D01*
X81451496Y-70994640D01*
X81434341Y-71051190D01*
X81428549Y-71110000D01*
X80840000Y-71110000D01*
X80840000Y-45299293D01*
X80843870Y-45260002D01*
X80837079Y-45191056D01*
X80828424Y-45103175D01*
X80782679Y-44952374D01*
X80708393Y-44813396D01*
X80608422Y-44691580D01*
X80486606Y-44591609D01*
X80486604Y-44591607D01*
X80347625Y-44517321D01*
X80196825Y-44471577D01*
X80039998Y-44456130D01*
X79883171Y-44471577D01*
X79732371Y-44517321D01*
X79593392Y-44591607D01*
X79471577Y-44691579D01*
X79371605Y-44813394D01*
X79297319Y-44952373D01*
X79251575Y-45103173D01*
X79236128Y-45260000D01*
X79240001Y-45299321D01*
X79240000Y-71133655D01*
X79146737Y-71226918D01*
X79020884Y-71415271D01*
X78934194Y-71624557D01*
X78890000Y-71846735D01*
X78650000Y-71846735D01*
X78605806Y-71624557D01*
X78519116Y-71415271D01*
X78393263Y-71226918D01*
X78260000Y-71093655D01*
X78260000Y-41731370D01*
X84071371Y-35920000D01*
X84203265Y-35920000D01*
X84425443Y-35875806D01*
X84634729Y-35789116D01*
X84823082Y-35663263D01*
X84983263Y-35503082D01*
X85109116Y-35314729D01*
X85192972Y-35112284D01*
X85427770Y-35112284D01*
X85517647Y-35340251D01*
X85650271Y-35546303D01*
X85820545Y-35722522D01*
X86021926Y-35862136D01*
X86246675Y-35959780D01*
X86287717Y-35972223D01*
X86480000Y-35910175D01*
X86480000Y-34920000D01*
X86780000Y-34920000D01*
X86780000Y-35910175D01*
X86972283Y-35972223D01*
X87013325Y-35959780D01*
X87238074Y-35862136D01*
X87439455Y-35722522D01*
X87609729Y-35546303D01*
X87742353Y-35340251D01*
X87832230Y-35112284D01*
X87770974Y-34920000D01*
X86780000Y-34920000D01*
X86480000Y-34920000D01*
X85489026Y-34920000D01*
X85427770Y-35112284D01*
X85192972Y-35112284D01*
X85195806Y-35105443D01*
X85240000Y-34883265D01*
X85240000Y-34656735D01*
X85195806Y-34434557D01*
X85192973Y-34427716D01*
X85427770Y-34427716D01*
X85489026Y-34620000D01*
X86480000Y-34620000D01*
X86480000Y-33629825D01*
X86780000Y-33629825D01*
X86780000Y-34620000D01*
X87770974Y-34620000D01*
X87832230Y-34427716D01*
X87742353Y-34199749D01*
X87609729Y-33993697D01*
X87439455Y-33817478D01*
X87238074Y-33677864D01*
X87013325Y-33580220D01*
X86972283Y-33567777D01*
X86780000Y-33629825D01*
X86480000Y-33629825D01*
X86287717Y-33567777D01*
X86246675Y-33580220D01*
X86021926Y-33677864D01*
X85820545Y-33817478D01*
X85650271Y-33993697D01*
X85517647Y-34199749D01*
X85427770Y-34427716D01*
X85192973Y-34427716D01*
X85109116Y-34225271D01*
X84983263Y-34036918D01*
X84823082Y-33876737D01*
X84634729Y-33750884D01*
X84425443Y-33664194D01*
X84203265Y-33620000D01*
X83976735Y-33620000D01*
X83754557Y-33664194D01*
X83545271Y-33750884D01*
X83356918Y-33876737D01*
X83196737Y-34036918D01*
X83070884Y-34225271D01*
X82984194Y-34434557D01*
X82940000Y-34656735D01*
X82940000Y-34788629D01*
X82663906Y-35064724D01*
X82700000Y-34883265D01*
X82700000Y-34656735D01*
X82655806Y-34434557D01*
X82569116Y-34225271D01*
X82443263Y-34036918D01*
X82283082Y-33876737D01*
X82094729Y-33750884D01*
X81885443Y-33664194D01*
X81663265Y-33620000D01*
X81436735Y-33620000D01*
X81214557Y-33664194D01*
X81005271Y-33750884D01*
X80816918Y-33876737D01*
X80656737Y-34036918D01*
X80530884Y-34225271D01*
X80444194Y-34434557D01*
X80400000Y-34656735D01*
X80400000Y-34883265D01*
X80444194Y-35105443D01*
X80530884Y-35314729D01*
X80656737Y-35503082D01*
X80816918Y-35663263D01*
X81005271Y-35789116D01*
X81214557Y-35875806D01*
X81436735Y-35920000D01*
X81663265Y-35920000D01*
X81844724Y-35883906D01*
X76922098Y-40806532D01*
X76891579Y-40831578D01*
X76866532Y-40862098D01*
X76866531Y-40862099D01*
X76791607Y-40953394D01*
X76717321Y-41092373D01*
X76671577Y-41243173D01*
X76656130Y-41400000D01*
X76660001Y-41439301D01*
X76660000Y-71173655D01*
X76606737Y-71226918D01*
X76480884Y-71415271D01*
X76394194Y-71624557D01*
X76350000Y-71846735D01*
X76110000Y-71846735D01*
X76065806Y-71624557D01*
X75979116Y-71415271D01*
X75853263Y-71226918D01*
X75760000Y-71133655D01*
X75760000Y-47289293D01*
X75763870Y-47250002D01*
X75760000Y-47210709D01*
X75748424Y-47093175D01*
X75702679Y-46942374D01*
X75628393Y-46803396D01*
X75528422Y-46681580D01*
X75497897Y-46656529D01*
X75487899Y-46646531D01*
X75396604Y-46571607D01*
X75257625Y-46497321D01*
X75106825Y-46451577D01*
X74949998Y-46436130D01*
X74793171Y-46451577D01*
X74642371Y-46497321D01*
X74503392Y-46571607D01*
X74381577Y-46671579D01*
X74281605Y-46793394D01*
X74207319Y-46932373D01*
X74161575Y-47083173D01*
X74146128Y-47240000D01*
X74160001Y-47380847D01*
X74160000Y-71133655D01*
X74066737Y-71226918D01*
X73940884Y-71415271D01*
X73854194Y-71624557D01*
X73810000Y-71846735D01*
X73570000Y-71846735D01*
X73525806Y-71624557D01*
X73439116Y-71415271D01*
X73313263Y-71226918D01*
X73153082Y-71066737D01*
X73120000Y-71044632D01*
X73120000Y-41039291D01*
X73123870Y-41000000D01*
X73120000Y-40960707D01*
X73108424Y-40843173D01*
X73062679Y-40692372D01*
X73020338Y-40613158D01*
X72988393Y-40553393D01*
X72948869Y-40505233D01*
X72888422Y-40431578D01*
X72857897Y-40406527D01*
X70353473Y-37902103D01*
X70328422Y-37871578D01*
X70206606Y-37771607D01*
X70067628Y-37697321D01*
X69916827Y-37651576D01*
X69799293Y-37640000D01*
X69799291Y-37640000D01*
X69760000Y-37636130D01*
X69720709Y-37640000D01*
X68021371Y-37640000D01*
X66301370Y-35920000D01*
X66423265Y-35920000D01*
X66645443Y-35875806D01*
X66854729Y-35789116D01*
X67043082Y-35663263D01*
X67203263Y-35503082D01*
X67329116Y-35314729D01*
X67412972Y-35112284D01*
X67647770Y-35112284D01*
X67737647Y-35340251D01*
X67870271Y-35546303D01*
X68040545Y-35722522D01*
X68241926Y-35862136D01*
X68466675Y-35959780D01*
X68507717Y-35972223D01*
X68700000Y-35910175D01*
X68700000Y-34920000D01*
X69000000Y-34920000D01*
X69000000Y-35910175D01*
X69192283Y-35972223D01*
X69233325Y-35959780D01*
X69458074Y-35862136D01*
X69659455Y-35722522D01*
X69829729Y-35546303D01*
X69962353Y-35340251D01*
X70052230Y-35112284D01*
X69990974Y-34920000D01*
X69000000Y-34920000D01*
X68700000Y-34920000D01*
X67709026Y-34920000D01*
X67647770Y-35112284D01*
X67412972Y-35112284D01*
X67415806Y-35105443D01*
X67460000Y-34883265D01*
X67460000Y-34656735D01*
X70240000Y-34656735D01*
X70240000Y-34883265D01*
X70284194Y-35105443D01*
X70370884Y-35314729D01*
X70496737Y-35503082D01*
X70656918Y-35663263D01*
X70845271Y-35789116D01*
X71054557Y-35875806D01*
X71276735Y-35920000D01*
X71503265Y-35920000D01*
X71725443Y-35875806D01*
X71934729Y-35789116D01*
X72123082Y-35663263D01*
X72283263Y-35503082D01*
X72409116Y-35314729D01*
X72495806Y-35105443D01*
X72540000Y-34883265D01*
X72540000Y-34656735D01*
X72780000Y-34656735D01*
X72780000Y-34883265D01*
X72824194Y-35105443D01*
X72910884Y-35314729D01*
X73036737Y-35503082D01*
X73196918Y-35663263D01*
X73385271Y-35789116D01*
X73594557Y-35875806D01*
X73816735Y-35920000D01*
X74043265Y-35920000D01*
X74265443Y-35875806D01*
X74474729Y-35789116D01*
X74663082Y-35663263D01*
X74823263Y-35503082D01*
X74949116Y-35314729D01*
X75035806Y-35105443D01*
X75080000Y-34883265D01*
X75080000Y-34656735D01*
X75320000Y-34656735D01*
X75320000Y-34883265D01*
X75364194Y-35105443D01*
X75450884Y-35314729D01*
X75576737Y-35503082D01*
X75736918Y-35663263D01*
X75925271Y-35789116D01*
X76134557Y-35875806D01*
X76356735Y-35920000D01*
X76583265Y-35920000D01*
X76805443Y-35875806D01*
X77014729Y-35789116D01*
X77203082Y-35663263D01*
X77363263Y-35503082D01*
X77489116Y-35314729D01*
X77575806Y-35105443D01*
X77620000Y-34883265D01*
X77620000Y-34656735D01*
X77860000Y-34656735D01*
X77860000Y-34883265D01*
X77904194Y-35105443D01*
X77990884Y-35314729D01*
X78116737Y-35503082D01*
X78276918Y-35663263D01*
X78465271Y-35789116D01*
X78674557Y-35875806D01*
X78896735Y-35920000D01*
X79123265Y-35920000D01*
X79345443Y-35875806D01*
X79554729Y-35789116D01*
X79743082Y-35663263D01*
X79903263Y-35503082D01*
X80029116Y-35314729D01*
X80115806Y-35105443D01*
X80160000Y-34883265D01*
X80160000Y-34656735D01*
X80115806Y-34434557D01*
X80029116Y-34225271D01*
X79903263Y-34036918D01*
X79743082Y-33876737D01*
X79554729Y-33750884D01*
X79345443Y-33664194D01*
X79123265Y-33620000D01*
X78896735Y-33620000D01*
X78674557Y-33664194D01*
X78465271Y-33750884D01*
X78276918Y-33876737D01*
X78116737Y-34036918D01*
X77990884Y-34225271D01*
X77904194Y-34434557D01*
X77860000Y-34656735D01*
X77620000Y-34656735D01*
X77575806Y-34434557D01*
X77489116Y-34225271D01*
X77363263Y-34036918D01*
X77203082Y-33876737D01*
X77014729Y-33750884D01*
X76805443Y-33664194D01*
X76583265Y-33620000D01*
X76356735Y-33620000D01*
X76134557Y-33664194D01*
X75925271Y-33750884D01*
X75736918Y-33876737D01*
X75576737Y-34036918D01*
X75450884Y-34225271D01*
X75364194Y-34434557D01*
X75320000Y-34656735D01*
X75080000Y-34656735D01*
X75035806Y-34434557D01*
X74949116Y-34225271D01*
X74823263Y-34036918D01*
X74663082Y-33876737D01*
X74474729Y-33750884D01*
X74265443Y-33664194D01*
X74043265Y-33620000D01*
X73816735Y-33620000D01*
X73594557Y-33664194D01*
X73385271Y-33750884D01*
X73196918Y-33876737D01*
X73036737Y-34036918D01*
X72910884Y-34225271D01*
X72824194Y-34434557D01*
X72780000Y-34656735D01*
X72540000Y-34656735D01*
X72495806Y-34434557D01*
X72409116Y-34225271D01*
X72283263Y-34036918D01*
X72123082Y-33876737D01*
X71934729Y-33750884D01*
X71725443Y-33664194D01*
X71503265Y-33620000D01*
X71276735Y-33620000D01*
X71054557Y-33664194D01*
X70845271Y-33750884D01*
X70656918Y-33876737D01*
X70496737Y-34036918D01*
X70370884Y-34225271D01*
X70284194Y-34434557D01*
X70240000Y-34656735D01*
X67460000Y-34656735D01*
X67415806Y-34434557D01*
X67412973Y-34427716D01*
X67647770Y-34427716D01*
X67709026Y-34620000D01*
X68700000Y-34620000D01*
X68700000Y-33629825D01*
X69000000Y-33629825D01*
X69000000Y-34620000D01*
X69990974Y-34620000D01*
X70052230Y-34427716D01*
X69962353Y-34199749D01*
X69829729Y-33993697D01*
X69659455Y-33817478D01*
X69458074Y-33677864D01*
X69233325Y-33580220D01*
X69192283Y-33567777D01*
X69000000Y-33629825D01*
X68700000Y-33629825D01*
X68507717Y-33567777D01*
X68466675Y-33580220D01*
X68241926Y-33677864D01*
X68040545Y-33817478D01*
X67870271Y-33993697D01*
X67737647Y-34199749D01*
X67647770Y-34427716D01*
X67412973Y-34427716D01*
X67329116Y-34225271D01*
X67203263Y-34036918D01*
X67043082Y-33876737D01*
X66854729Y-33750884D01*
X66645443Y-33664194D01*
X66423265Y-33620000D01*
X66196735Y-33620000D01*
X65974557Y-33664194D01*
X65765271Y-33750884D01*
X65576918Y-33876737D01*
X65420001Y-34033654D01*
X65420001Y-33452095D01*
X65422177Y-33430001D01*
X65420001Y-33407907D01*
X65420001Y-33407896D01*
X65413490Y-33341786D01*
X65387758Y-33256960D01*
X65367352Y-33218783D01*
X65345972Y-33178784D01*
X65303829Y-33127433D01*
X65303825Y-33127429D01*
X65289738Y-33110264D01*
X65272574Y-33096178D01*
X64836568Y-32660172D01*
X64875806Y-32565443D01*
X64920000Y-32343265D01*
X64920000Y-32116735D01*
X65160000Y-32116735D01*
X65160000Y-32343265D01*
X65204194Y-32565443D01*
X65290884Y-32774729D01*
X65416737Y-32963082D01*
X65576918Y-33123263D01*
X65765271Y-33249116D01*
X65974557Y-33335806D01*
X66196735Y-33380000D01*
X66423265Y-33380000D01*
X66645443Y-33335806D01*
X66854729Y-33249116D01*
X67043082Y-33123263D01*
X67203263Y-32963082D01*
X67329116Y-32774729D01*
X67415806Y-32565443D01*
X67460000Y-32343265D01*
X67460000Y-32116735D01*
X67700000Y-32116735D01*
X67700000Y-32343265D01*
X67744194Y-32565443D01*
X67830884Y-32774729D01*
X67956737Y-32963082D01*
X68116918Y-33123263D01*
X68305271Y-33249116D01*
X68514557Y-33335806D01*
X68736735Y-33380000D01*
X68963265Y-33380000D01*
X69185443Y-33335806D01*
X69394729Y-33249116D01*
X69583082Y-33123263D01*
X69743263Y-32963082D01*
X69869116Y-32774729D01*
X69955806Y-32565443D01*
X70000000Y-32343265D01*
X70000000Y-32116735D01*
X70240000Y-32116735D01*
X70240000Y-32343265D01*
X70284194Y-32565443D01*
X70370884Y-32774729D01*
X70496737Y-32963082D01*
X70656918Y-33123263D01*
X70845271Y-33249116D01*
X71054557Y-33335806D01*
X71276735Y-33380000D01*
X71503265Y-33380000D01*
X71725443Y-33335806D01*
X71934729Y-33249116D01*
X72123082Y-33123263D01*
X72283263Y-32963082D01*
X72409116Y-32774729D01*
X72492972Y-32572284D01*
X72727770Y-32572284D01*
X72817647Y-32800251D01*
X72950271Y-33006303D01*
X73120545Y-33182522D01*
X73321926Y-33322136D01*
X73546675Y-33419780D01*
X73587717Y-33432223D01*
X73780000Y-33370175D01*
X73780000Y-32380000D01*
X74080000Y-32380000D01*
X74080000Y-33370175D01*
X74272283Y-33432223D01*
X74313325Y-33419780D01*
X74538074Y-33322136D01*
X74739455Y-33182522D01*
X74909729Y-33006303D01*
X75042353Y-32800251D01*
X75132230Y-32572284D01*
X75070974Y-32380000D01*
X74080000Y-32380000D01*
X73780000Y-32380000D01*
X72789026Y-32380000D01*
X72727770Y-32572284D01*
X72492972Y-32572284D01*
X72495806Y-32565443D01*
X72540000Y-32343265D01*
X72540000Y-32116735D01*
X75320000Y-32116735D01*
X75320000Y-32343265D01*
X75364194Y-32565443D01*
X75450884Y-32774729D01*
X75576737Y-32963082D01*
X75736918Y-33123263D01*
X75925271Y-33249116D01*
X76134557Y-33335806D01*
X76356735Y-33380000D01*
X76583265Y-33380000D01*
X76805443Y-33335806D01*
X77014729Y-33249116D01*
X77203082Y-33123263D01*
X77363263Y-32963082D01*
X77489116Y-32774729D01*
X77572972Y-32572284D01*
X77807770Y-32572284D01*
X77897647Y-32800251D01*
X78030271Y-33006303D01*
X78200545Y-33182522D01*
X78401926Y-33322136D01*
X78626675Y-33419780D01*
X78667717Y-33432223D01*
X78860000Y-33370175D01*
X78860000Y-32380000D01*
X79160000Y-32380000D01*
X79160000Y-33370175D01*
X79352283Y-33432223D01*
X79393325Y-33419780D01*
X79618074Y-33322136D01*
X79819455Y-33182522D01*
X79989729Y-33006303D01*
X80122353Y-32800251D01*
X80212230Y-32572284D01*
X80150974Y-32380000D01*
X79160000Y-32380000D01*
X78860000Y-32380000D01*
X77869026Y-32380000D01*
X77807770Y-32572284D01*
X77572972Y-32572284D01*
X77575806Y-32565443D01*
X77620000Y-32343265D01*
X77620000Y-32116735D01*
X80400000Y-32116735D01*
X80400000Y-32343265D01*
X80444194Y-32565443D01*
X80530884Y-32774729D01*
X80656737Y-32963082D01*
X80816918Y-33123263D01*
X81005271Y-33249116D01*
X81214557Y-33335806D01*
X81436735Y-33380000D01*
X81663265Y-33380000D01*
X81885443Y-33335806D01*
X82094729Y-33249116D01*
X82283082Y-33123263D01*
X82443263Y-32963082D01*
X82569116Y-32774729D01*
X82655806Y-32565443D01*
X82700000Y-32343265D01*
X82700000Y-32116735D01*
X82940000Y-32116735D01*
X82940000Y-32343265D01*
X82984194Y-32565443D01*
X83070884Y-32774729D01*
X83196737Y-32963082D01*
X83356918Y-33123263D01*
X83545271Y-33249116D01*
X83754557Y-33335806D01*
X83976735Y-33380000D01*
X84203265Y-33380000D01*
X84425443Y-33335806D01*
X84634729Y-33249116D01*
X84823082Y-33123263D01*
X84983263Y-32963082D01*
X85109116Y-32774729D01*
X85195806Y-32565443D01*
X85240000Y-32343265D01*
X85240000Y-32116735D01*
X85480000Y-32116735D01*
X85480000Y-32343265D01*
X85524194Y-32565443D01*
X85610884Y-32774729D01*
X85736737Y-32963082D01*
X85896918Y-33123263D01*
X86085271Y-33249116D01*
X86294557Y-33335806D01*
X86516735Y-33380000D01*
X86743265Y-33380000D01*
X86965443Y-33335806D01*
X87174729Y-33249116D01*
X87363082Y-33123263D01*
X87523263Y-32963082D01*
X87649116Y-32774729D01*
X87735806Y-32565443D01*
X87780000Y-32343265D01*
X87780000Y-32116735D01*
X87735806Y-31894557D01*
X87649116Y-31685271D01*
X87523263Y-31496918D01*
X87363082Y-31336737D01*
X87174729Y-31210884D01*
X86965443Y-31124194D01*
X86743265Y-31080000D01*
X86516735Y-31080000D01*
X86294557Y-31124194D01*
X86085271Y-31210884D01*
X85896918Y-31336737D01*
X85736737Y-31496918D01*
X85610884Y-31685271D01*
X85524194Y-31894557D01*
X85480000Y-32116735D01*
X85240000Y-32116735D01*
X85195806Y-31894557D01*
X85109116Y-31685271D01*
X84983263Y-31496918D01*
X84823082Y-31336737D01*
X84634729Y-31210884D01*
X84425443Y-31124194D01*
X84203265Y-31080000D01*
X83976735Y-31080000D01*
X83754557Y-31124194D01*
X83545271Y-31210884D01*
X83356918Y-31336737D01*
X83196737Y-31496918D01*
X83070884Y-31685271D01*
X82984194Y-31894557D01*
X82940000Y-32116735D01*
X82700000Y-32116735D01*
X82655806Y-31894557D01*
X82569116Y-31685271D01*
X82443263Y-31496918D01*
X82283082Y-31336737D01*
X82094729Y-31210884D01*
X81885443Y-31124194D01*
X81663265Y-31080000D01*
X81436735Y-31080000D01*
X81214557Y-31124194D01*
X81005271Y-31210884D01*
X80816918Y-31336737D01*
X80656737Y-31496918D01*
X80530884Y-31685271D01*
X80444194Y-31894557D01*
X80400000Y-32116735D01*
X77620000Y-32116735D01*
X77575806Y-31894557D01*
X77572973Y-31887716D01*
X77807770Y-31887716D01*
X77869026Y-32080000D01*
X78860000Y-32080000D01*
X78860000Y-31089825D01*
X79160000Y-31089825D01*
X79160000Y-32080000D01*
X80150974Y-32080000D01*
X80212230Y-31887716D01*
X80122353Y-31659749D01*
X79989729Y-31453697D01*
X79819455Y-31277478D01*
X79618074Y-31137864D01*
X79393325Y-31040220D01*
X79352283Y-31027777D01*
X79160000Y-31089825D01*
X78860000Y-31089825D01*
X78667717Y-31027777D01*
X78626675Y-31040220D01*
X78401926Y-31137864D01*
X78200545Y-31277478D01*
X78030271Y-31453697D01*
X77897647Y-31659749D01*
X77807770Y-31887716D01*
X77572973Y-31887716D01*
X77489116Y-31685271D01*
X77363263Y-31496918D01*
X77203082Y-31336737D01*
X77014729Y-31210884D01*
X76805443Y-31124194D01*
X76583265Y-31080000D01*
X76356735Y-31080000D01*
X76134557Y-31124194D01*
X75925271Y-31210884D01*
X75736918Y-31336737D01*
X75576737Y-31496918D01*
X75450884Y-31685271D01*
X75364194Y-31894557D01*
X75320000Y-32116735D01*
X72540000Y-32116735D01*
X72495806Y-31894557D01*
X72492973Y-31887716D01*
X72727770Y-31887716D01*
X72789026Y-32080000D01*
X73780000Y-32080000D01*
X73780000Y-31089825D01*
X74080000Y-31089825D01*
X74080000Y-32080000D01*
X75070974Y-32080000D01*
X75132230Y-31887716D01*
X75042353Y-31659749D01*
X74909729Y-31453697D01*
X74739455Y-31277478D01*
X74538074Y-31137864D01*
X74313325Y-31040220D01*
X74272283Y-31027777D01*
X74080000Y-31089825D01*
X73780000Y-31089825D01*
X73587717Y-31027777D01*
X73546675Y-31040220D01*
X73321926Y-31137864D01*
X73120545Y-31277478D01*
X72950271Y-31453697D01*
X72817647Y-31659749D01*
X72727770Y-31887716D01*
X72492973Y-31887716D01*
X72409116Y-31685271D01*
X72283263Y-31496918D01*
X72123082Y-31336737D01*
X71934729Y-31210884D01*
X71725443Y-31124194D01*
X71503265Y-31080000D01*
X71276735Y-31080000D01*
X71054557Y-31124194D01*
X70845271Y-31210884D01*
X70656918Y-31336737D01*
X70496737Y-31496918D01*
X70370884Y-31685271D01*
X70284194Y-31894557D01*
X70240000Y-32116735D01*
X70000000Y-32116735D01*
X69955806Y-31894557D01*
X69869116Y-31685271D01*
X69743263Y-31496918D01*
X69583082Y-31336737D01*
X69394729Y-31210884D01*
X69185443Y-31124194D01*
X68963265Y-31080000D01*
X68736735Y-31080000D01*
X68514557Y-31124194D01*
X68305271Y-31210884D01*
X68116918Y-31336737D01*
X67956737Y-31496918D01*
X67830884Y-31685271D01*
X67744194Y-31894557D01*
X67700000Y-32116735D01*
X67460000Y-32116735D01*
X67415806Y-31894557D01*
X67329116Y-31685271D01*
X67203263Y-31496918D01*
X67043082Y-31336737D01*
X66854729Y-31210884D01*
X66645443Y-31124194D01*
X66423265Y-31080000D01*
X66196735Y-31080000D01*
X65974557Y-31124194D01*
X65765271Y-31210884D01*
X65576918Y-31336737D01*
X65416737Y-31496918D01*
X65290884Y-31685271D01*
X65204194Y-31894557D01*
X65160000Y-32116735D01*
X64920000Y-32116735D01*
X64875806Y-31894557D01*
X64789116Y-31685271D01*
X64663263Y-31496918D01*
X64503082Y-31336737D01*
X64314729Y-31210884D01*
X64105443Y-31124194D01*
X63883265Y-31080000D01*
X63656735Y-31080000D01*
X63434557Y-31124194D01*
X63225271Y-31210884D01*
X63036918Y-31336737D01*
X62876737Y-31496918D01*
X62750884Y-31685271D01*
X62664194Y-31894557D01*
X62620000Y-32116735D01*
X59840000Y-32116735D01*
X59795806Y-31894557D01*
X59792973Y-31887716D01*
X60027770Y-31887716D01*
X60089026Y-32080000D01*
X61080000Y-32080000D01*
X61080000Y-31089825D01*
X61380000Y-31089825D01*
X61380000Y-32080000D01*
X62370974Y-32080000D01*
X62432230Y-31887716D01*
X62342353Y-31659749D01*
X62209729Y-31453697D01*
X62039455Y-31277478D01*
X61838074Y-31137864D01*
X61613325Y-31040220D01*
X61572283Y-31027777D01*
X61380000Y-31089825D01*
X61080000Y-31089825D01*
X60887717Y-31027777D01*
X60846675Y-31040220D01*
X60621926Y-31137864D01*
X60420545Y-31277478D01*
X60250271Y-31453697D01*
X60117647Y-31659749D01*
X60027770Y-31887716D01*
X59792973Y-31887716D01*
X59709116Y-31685271D01*
X59583263Y-31496918D01*
X59423082Y-31336737D01*
X59234729Y-31210884D01*
X59025443Y-31124194D01*
X58803265Y-31080000D01*
X58576735Y-31080000D01*
X58354557Y-31124194D01*
X58145271Y-31210884D01*
X57956918Y-31336737D01*
X57796737Y-31496918D01*
X57670884Y-31685271D01*
X57584194Y-31894557D01*
X57540000Y-32116735D01*
X57300000Y-32116735D01*
X57255806Y-31894557D01*
X57169116Y-31685271D01*
X57043263Y-31496918D01*
X56883082Y-31336737D01*
X56694729Y-31210884D01*
X56485443Y-31124194D01*
X56263265Y-31080000D01*
X56036735Y-31080000D01*
X55814557Y-31124194D01*
X55605271Y-31210884D01*
X55416918Y-31336737D01*
X55256737Y-31496918D01*
X55130884Y-31685271D01*
X55044194Y-31894557D01*
X55000000Y-32116735D01*
X52220000Y-32116735D01*
X52175806Y-31894557D01*
X52172973Y-31887716D01*
X52407770Y-31887716D01*
X52469026Y-32080000D01*
X53460000Y-32080000D01*
X53460000Y-31089825D01*
X53760000Y-31089825D01*
X53760000Y-32080000D01*
X54750974Y-32080000D01*
X54812230Y-31887716D01*
X54722353Y-31659749D01*
X54589729Y-31453697D01*
X54419455Y-31277478D01*
X54218074Y-31137864D01*
X53993325Y-31040220D01*
X53952283Y-31027777D01*
X53760000Y-31089825D01*
X53460000Y-31089825D01*
X53267717Y-31027777D01*
X53226675Y-31040220D01*
X53001926Y-31137864D01*
X52800545Y-31277478D01*
X52630271Y-31453697D01*
X52497647Y-31659749D01*
X52407770Y-31887716D01*
X52172973Y-31887716D01*
X52089116Y-31685271D01*
X51963263Y-31496918D01*
X51803082Y-31336737D01*
X51614729Y-31210884D01*
X51405443Y-31124194D01*
X51183265Y-31080000D01*
X50956735Y-31080000D01*
X50734557Y-31124194D01*
X50525271Y-31210884D01*
X50336918Y-31336737D01*
X50176737Y-31496918D01*
X50050884Y-31685271D01*
X49964194Y-31894557D01*
X49920000Y-32116735D01*
X49680000Y-32116735D01*
X49635806Y-31894557D01*
X49549116Y-31685271D01*
X49423263Y-31496918D01*
X49263082Y-31336737D01*
X49074729Y-31210884D01*
X48865443Y-31124194D01*
X48643265Y-31080000D01*
X48416735Y-31080000D01*
X48194557Y-31124194D01*
X47985271Y-31210884D01*
X47796918Y-31336737D01*
X47636737Y-31496918D01*
X47510884Y-31685271D01*
X47424194Y-31894557D01*
X47380000Y-32116735D01*
X47380000Y-32343265D01*
X47424194Y-32565443D01*
X47510884Y-32774729D01*
X47636737Y-32963082D01*
X47796918Y-33123263D01*
X47985271Y-33249116D01*
X48194557Y-33335806D01*
X48416735Y-33380000D01*
X48643265Y-33380000D01*
X48865443Y-33335806D01*
X48960172Y-33296568D01*
X49320000Y-33656396D01*
X49320000Y-33803990D01*
X49138074Y-33677864D01*
X48913325Y-33580220D01*
X48872283Y-33567777D01*
X48680000Y-33629825D01*
X48680000Y-34620000D01*
X48700000Y-34620000D01*
X48700000Y-34920000D01*
X48680000Y-34920000D01*
X48680000Y-35910175D01*
X48872283Y-35972223D01*
X48913325Y-35959780D01*
X48970001Y-35935157D01*
X48970000Y-40230709D01*
X48966130Y-40270000D01*
X48970000Y-40309291D01*
X48970000Y-40309292D01*
X48981576Y-40426826D01*
X48992276Y-40462099D01*
X49027321Y-40577627D01*
X49101607Y-40716606D01*
X49147151Y-40772101D01*
X49201578Y-40838422D01*
X49232103Y-40863473D01*
X54936549Y-46567920D01*
X54936549Y-47262000D01*
X54942341Y-47320810D01*
X54959496Y-47377360D01*
X54987353Y-47429477D01*
X55024842Y-47475158D01*
X55070523Y-47512647D01*
X55122640Y-47540504D01*
X55179190Y-47557659D01*
X55238000Y-47563451D01*
X55490094Y-47563451D01*
X55405462Y-47620000D01*
X54161371Y-47620000D01*
X48050000Y-41508630D01*
X48050000Y-35917779D01*
X48146675Y-35959780D01*
X48187717Y-35972223D01*
X48380000Y-35910175D01*
X48380000Y-34920000D01*
X48360000Y-34920000D01*
X48360000Y-34620000D01*
X48380000Y-34620000D01*
X48380000Y-33629825D01*
X48187717Y-33567777D01*
X48146675Y-33580220D01*
X47921926Y-33677864D01*
X47720545Y-33817478D01*
X47700000Y-33838740D01*
X47700000Y-33512094D01*
X47702176Y-33489999D01*
X47700000Y-33467905D01*
X47700000Y-33467895D01*
X47693489Y-33401785D01*
X47667757Y-33316959D01*
X47653445Y-33290184D01*
X47625971Y-33238783D01*
X47583828Y-33187432D01*
X47583824Y-33187428D01*
X47569737Y-33170263D01*
X47552573Y-33156177D01*
X47056568Y-32660172D01*
X47095806Y-32565443D01*
X47140000Y-32343265D01*
X47140000Y-32116735D01*
X47095806Y-31894557D01*
X47009116Y-31685271D01*
X46883263Y-31496918D01*
X46723082Y-31336737D01*
X46534729Y-31210884D01*
X46325443Y-31124194D01*
X46103265Y-31080000D01*
X45876735Y-31080000D01*
X45654557Y-31124194D01*
X45445271Y-31210884D01*
X45256918Y-31336737D01*
X45096737Y-31496918D01*
X44970884Y-31685271D01*
X44884194Y-31894557D01*
X44840000Y-32116735D01*
X44840000Y-32343265D01*
X44884194Y-32565443D01*
X44970884Y-32774729D01*
X45096737Y-32963082D01*
X45256918Y-33123263D01*
X45445271Y-33249116D01*
X45654557Y-33335806D01*
X45876735Y-33380000D01*
X46103265Y-33380000D01*
X46325443Y-33335806D01*
X46420172Y-33296568D01*
X46800000Y-33676396D01*
X46800000Y-33953655D01*
X46723082Y-33876737D01*
X46534729Y-33750884D01*
X46325443Y-33664194D01*
X46103265Y-33620000D01*
X45876735Y-33620000D01*
X45654557Y-33664194D01*
X45559828Y-33703432D01*
X45023827Y-33167432D01*
X45009737Y-33150263D01*
X44941216Y-33094029D01*
X44863041Y-33052243D01*
X44778215Y-33026511D01*
X44712105Y-33020000D01*
X44712094Y-33020000D01*
X44690000Y-33017824D01*
X44667906Y-33020000D01*
X44416494Y-33020000D01*
X44429729Y-33006303D01*
X44562353Y-32800251D01*
X44652230Y-32572284D01*
X44590974Y-32380000D01*
X43600000Y-32380000D01*
X43600000Y-32400000D01*
X43300000Y-32400000D01*
X43300000Y-32380000D01*
X42309026Y-32380000D01*
X42247770Y-32572284D01*
X42337647Y-32800251D01*
X42470271Y-33006303D01*
X42483506Y-33020000D01*
X41746345Y-33020000D01*
X41803263Y-32963082D01*
X41929116Y-32774729D01*
X42015806Y-32565443D01*
X42060000Y-32343265D01*
X42060000Y-32116735D01*
X42015806Y-31894557D01*
X42012973Y-31887716D01*
X42247770Y-31887716D01*
X42309026Y-32080000D01*
X43300000Y-32080000D01*
X43300000Y-31089825D01*
X43600000Y-31089825D01*
X43600000Y-32080000D01*
X44590974Y-32080000D01*
X44652230Y-31887716D01*
X44562353Y-31659749D01*
X44429729Y-31453697D01*
X44259455Y-31277478D01*
X44058074Y-31137864D01*
X43833325Y-31040220D01*
X43792283Y-31027777D01*
X43600000Y-31089825D01*
X43300000Y-31089825D01*
X43107717Y-31027777D01*
X43066675Y-31040220D01*
X42841926Y-31137864D01*
X42640545Y-31277478D01*
X42470271Y-31453697D01*
X42337647Y-31659749D01*
X42247770Y-31887716D01*
X42012973Y-31887716D01*
X41929116Y-31685271D01*
X41803263Y-31496918D01*
X41643082Y-31336737D01*
X41454729Y-31210884D01*
X41245443Y-31124194D01*
X41023265Y-31080000D01*
X40796735Y-31080000D01*
X40574557Y-31124194D01*
X40365271Y-31210884D01*
X40176918Y-31336737D01*
X40016737Y-31496918D01*
X39890884Y-31685271D01*
X39804194Y-31894557D01*
X39760000Y-32116735D01*
X39760000Y-32343265D01*
X39804194Y-32565443D01*
X39890884Y-32774729D01*
X40016737Y-32963082D01*
X40073655Y-33020000D01*
X39206345Y-33020000D01*
X39263263Y-32963082D01*
X39389116Y-32774729D01*
X39475806Y-32565443D01*
X39520000Y-32343265D01*
X39520000Y-32116735D01*
X39475806Y-31894557D01*
X39389116Y-31685271D01*
X39263263Y-31496918D01*
X39103082Y-31336737D01*
X38914729Y-31210884D01*
X38705443Y-31124194D01*
X38483265Y-31080000D01*
X38256735Y-31080000D01*
X38034557Y-31124194D01*
X37825271Y-31210884D01*
X37636918Y-31336737D01*
X37476737Y-31496918D01*
X37350884Y-31685271D01*
X37264194Y-31894557D01*
X37220000Y-32116735D01*
X37220000Y-32343265D01*
X37264194Y-32565443D01*
X37350884Y-32774729D01*
X37476737Y-32963082D01*
X37533655Y-33020000D01*
X37362092Y-33020000D01*
X37339997Y-33017824D01*
X37317903Y-33020000D01*
X37317893Y-33020000D01*
X37251783Y-33026511D01*
X37185853Y-33046511D01*
X37166957Y-33052243D01*
X37088781Y-33094029D01*
X37037430Y-33136172D01*
X37037426Y-33136176D01*
X37020261Y-33150263D01*
X37006174Y-33167428D01*
X36675000Y-33498603D01*
X36675000Y-33187290D01*
X36552986Y-32573887D01*
X36313648Y-31996074D01*
X35966183Y-31476056D01*
X35523944Y-31033817D01*
X35003926Y-30686352D01*
X34426113Y-30447014D01*
X33812710Y-30325000D01*
X91187290Y-30325000D01*
X90573887Y-30447014D01*
G04 #@! TA.AperFunction,Conductor*
D23*
G36*
X90573887Y-30447014D02*
G01*
X89996074Y-30686352D01*
X89476056Y-31033817D01*
X89033817Y-31476056D01*
X88686352Y-31996074D01*
X88447014Y-32573887D01*
X88325000Y-33187290D01*
X88325000Y-33812710D01*
X88447014Y-34426113D01*
X88686352Y-35003926D01*
X89033817Y-35523944D01*
X89476056Y-35966183D01*
X89996074Y-36313648D01*
X90573887Y-36552986D01*
X91187290Y-36675000D01*
X91812710Y-36675000D01*
X92426113Y-36552986D01*
X93003926Y-36313648D01*
X93523944Y-35966183D01*
X93966183Y-35523944D01*
X94313648Y-35003926D01*
X94552986Y-34426113D01*
X94675000Y-33812710D01*
X94675001Y-82984094D01*
X94622526Y-83519274D01*
X94471719Y-84018770D01*
X94226768Y-84479458D01*
X93896995Y-84883799D01*
X93494970Y-85216383D01*
X93035997Y-85464548D01*
X92537575Y-85618836D01*
X92003342Y-85674986D01*
X91999441Y-85675000D01*
X91812710Y-85675000D01*
X92426113Y-85552986D01*
X93003926Y-85313648D01*
X93523944Y-84966183D01*
X93966183Y-84523944D01*
X94313648Y-84003926D01*
X94552986Y-83426113D01*
X94675000Y-82812710D01*
X94675000Y-82187290D01*
X94552986Y-81573887D01*
X94313648Y-80996074D01*
X93966183Y-80476056D01*
X93523944Y-80033817D01*
X93003926Y-79686352D01*
X92426113Y-79447014D01*
X91812710Y-79325000D01*
X91187290Y-79325000D01*
X90573887Y-79447014D01*
X89996074Y-79686352D01*
X89476056Y-80033817D01*
X89033817Y-80476056D01*
X88686352Y-80996074D01*
X88447014Y-81573887D01*
X88325000Y-82187290D01*
X88325000Y-82812710D01*
X88447014Y-83426113D01*
X88686352Y-84003926D01*
X89033817Y-84523944D01*
X89476056Y-84966183D01*
X89996074Y-85313648D01*
X90573887Y-85552986D01*
X91187290Y-85675000D01*
X33812710Y-85675000D01*
X34426113Y-85552986D01*
X35003926Y-85313648D01*
X35523944Y-84966183D01*
X35966183Y-84523944D01*
X36313648Y-84003926D01*
X36552986Y-83426113D01*
X36675000Y-82812710D01*
X36675000Y-82187290D01*
X36552986Y-81573887D01*
X36313648Y-80996074D01*
X35966183Y-80476056D01*
X35523944Y-80033817D01*
X35003926Y-79686352D01*
X34426113Y-79447014D01*
X33812710Y-79325000D01*
X33187290Y-79325000D01*
X32573887Y-79447014D01*
X31996074Y-79686352D01*
X31476056Y-80033817D01*
X31033817Y-80476056D01*
X30686352Y-80996074D01*
X30447014Y-81573887D01*
X30325000Y-82187290D01*
X30325000Y-75386735D01*
X37650000Y-75386735D01*
X37650000Y-75613265D01*
X37694194Y-75835443D01*
X37780884Y-76044729D01*
X37906737Y-76233082D01*
X38066918Y-76393263D01*
X38255271Y-76519116D01*
X38464557Y-76605806D01*
X38686735Y-76650000D01*
X38913265Y-76650000D01*
X39135443Y-76605806D01*
X39344729Y-76519116D01*
X39533082Y-76393263D01*
X39693263Y-76233082D01*
X39819116Y-76044729D01*
X39905806Y-75835443D01*
X39950000Y-75613265D01*
X39950000Y-75386735D01*
X39905806Y-75164557D01*
X39819116Y-74955271D01*
X39693263Y-74766918D01*
X39533082Y-74606737D01*
X39344729Y-74480884D01*
X39135443Y-74394194D01*
X38913265Y-74350000D01*
X38686735Y-74350000D01*
X38464557Y-74394194D01*
X38255271Y-74480884D01*
X38066918Y-74606737D01*
X37906737Y-74766918D01*
X37780884Y-74955271D01*
X37694194Y-75164557D01*
X37650000Y-75386735D01*
X30325000Y-75386735D01*
X30325000Y-55391659D01*
X32900000Y-55391659D01*
X32900000Y-55608341D01*
X32942273Y-55820858D01*
X33025193Y-56021045D01*
X33145575Y-56201209D01*
X33298791Y-56354425D01*
X33478955Y-56474807D01*
X33679142Y-56557727D01*
X33891659Y-56600000D01*
X34108341Y-56600000D01*
X34320858Y-56557727D01*
X34521045Y-56474807D01*
X34701209Y-56354425D01*
X34854425Y-56201209D01*
X34974807Y-56021045D01*
X35057727Y-55820858D01*
X35100000Y-55608341D01*
X35100000Y-55391659D01*
X35057727Y-55179142D01*
X34974807Y-54978955D01*
X34854425Y-54798791D01*
X34701209Y-54645575D01*
X34521045Y-54525193D01*
X34320858Y-54442273D01*
X34108341Y-54400000D01*
X33891659Y-54400000D01*
X33679142Y-54442273D01*
X33478955Y-54525193D01*
X33298791Y-54645575D01*
X33145575Y-54798791D01*
X33025193Y-54978955D01*
X32942273Y-55179142D01*
X32900000Y-55391659D01*
X30325000Y-55391659D01*
X30325000Y-45231659D01*
X32900000Y-45231659D01*
X32900000Y-45448341D01*
X32942273Y-45660858D01*
X33025193Y-45861045D01*
X33145575Y-46041209D01*
X33298791Y-46194425D01*
X33478955Y-46314807D01*
X33679142Y-46397727D01*
X33891659Y-46440000D01*
X34108341Y-46440000D01*
X34320858Y-46397727D01*
X34521045Y-46314807D01*
X34701209Y-46194425D01*
X34854425Y-46041209D01*
X34974807Y-45861045D01*
X35057727Y-45660858D01*
X35100000Y-45448341D01*
X35100000Y-45231659D01*
X35057727Y-45019142D01*
X34974807Y-44818955D01*
X34854425Y-44638791D01*
X34701209Y-44485575D01*
X34521045Y-44365193D01*
X34320858Y-44282273D01*
X34108341Y-44240000D01*
X33891659Y-44240000D01*
X33679142Y-44282273D01*
X33478955Y-44365193D01*
X33298791Y-44485575D01*
X33145575Y-44638791D01*
X33025193Y-44818955D01*
X32942273Y-45019142D01*
X32900000Y-45231659D01*
X30325000Y-45231659D01*
X30325000Y-41921810D01*
X32800000Y-41921810D01*
X32800000Y-42158190D01*
X32846116Y-42390027D01*
X32936574Y-42608413D01*
X33067899Y-42804955D01*
X33235045Y-42972101D01*
X33431587Y-43103426D01*
X33649973Y-43193884D01*
X33881810Y-43240000D01*
X34118190Y-43240000D01*
X34350027Y-43193884D01*
X34568413Y-43103426D01*
X34764955Y-42972101D01*
X34932101Y-42804955D01*
X35063426Y-42608413D01*
X35153884Y-42390027D01*
X35200000Y-42158190D01*
X35200000Y-41921810D01*
X35153884Y-41689973D01*
X35063426Y-41471587D01*
X34932101Y-41275045D01*
X34764955Y-41107899D01*
X34568413Y-40976574D01*
X34350027Y-40886116D01*
X34118190Y-40840000D01*
X33881810Y-40840000D01*
X33649973Y-40886116D01*
X33431587Y-40976574D01*
X33235045Y-41107899D01*
X33067899Y-41275045D01*
X32936574Y-41471587D01*
X32846116Y-41689973D01*
X32800000Y-41921810D01*
X30325000Y-41921810D01*
X30325000Y-33812710D01*
X30447014Y-34426113D01*
X30686352Y-35003926D01*
X31033817Y-35523944D01*
X31476056Y-35966183D01*
X31996074Y-36313648D01*
X32573887Y-36552986D01*
X33187290Y-36675000D01*
X33812710Y-36675000D01*
X34426113Y-36552986D01*
X35003926Y-36313648D01*
X35523944Y-35966183D01*
X35966183Y-35523944D01*
X36275002Y-35061764D01*
X36275002Y-35478600D01*
X33697434Y-38056169D01*
X33680263Y-38070261D01*
X33666172Y-38087431D01*
X33624029Y-38138782D01*
X33582244Y-38216957D01*
X33582243Y-38216958D01*
X33557492Y-38298549D01*
X33100000Y-38298549D01*
X33041190Y-38304341D01*
X32984640Y-38321496D01*
X32932523Y-38349353D01*
X32886842Y-38386842D01*
X32849353Y-38432523D01*
X32821496Y-38484640D01*
X32804341Y-38541190D01*
X32798549Y-38600000D01*
X32798549Y-40400000D01*
X32804341Y-40458810D01*
X32821496Y-40515360D01*
X32849353Y-40567477D01*
X32886842Y-40613158D01*
X32932523Y-40650647D01*
X32984640Y-40678504D01*
X33041190Y-40695659D01*
X33100000Y-40701451D01*
X34900000Y-40701451D01*
X34958810Y-40695659D01*
X35015360Y-40678504D01*
X35067477Y-40650647D01*
X35113158Y-40613158D01*
X35150647Y-40567477D01*
X35178504Y-40515360D01*
X35195659Y-40458810D01*
X35201451Y-40400000D01*
X35201451Y-38600000D01*
X35195659Y-38541190D01*
X35178504Y-38484640D01*
X35150647Y-38432523D01*
X35113158Y-38386842D01*
X35067477Y-38349353D01*
X35015360Y-38321496D01*
X34958810Y-38304341D01*
X34900000Y-38298549D01*
X34727844Y-38298549D01*
X37027573Y-35998821D01*
X37044738Y-35984734D01*
X37058825Y-35967569D01*
X37058829Y-35967565D01*
X37100972Y-35916214D01*
X37142758Y-35838038D01*
X37144584Y-35832018D01*
X37168490Y-35753212D01*
X37175001Y-35687102D01*
X37175001Y-35687090D01*
X37177177Y-35664998D01*
X37175001Y-35642906D01*
X37175001Y-34271392D01*
X37218549Y-34227844D01*
X37218549Y-35620000D01*
X37224341Y-35678810D01*
X37241496Y-35735360D01*
X37269353Y-35787477D01*
X37306842Y-35833158D01*
X37352523Y-35870647D01*
X37404640Y-35898504D01*
X37461190Y-35915659D01*
X37520000Y-35921451D01*
X39220000Y-35921451D01*
X39278810Y-35915659D01*
X39335360Y-35898504D01*
X39387477Y-35870647D01*
X39433158Y-35833158D01*
X39470647Y-35787477D01*
X39498504Y-35735360D01*
X39515659Y-35678810D01*
X39521451Y-35620000D01*
X39521451Y-33920000D01*
X40133655Y-33920000D01*
X40016737Y-34036918D01*
X39890884Y-34225271D01*
X39804194Y-34434557D01*
X39760000Y-34656735D01*
X39760000Y-34883265D01*
X39804194Y-35105443D01*
X39890884Y-35314729D01*
X40016737Y-35503082D01*
X40176918Y-35663263D01*
X40365271Y-35789116D01*
X40574557Y-35875806D01*
X40796735Y-35920000D01*
X41023265Y-35920000D01*
X41245443Y-35875806D01*
X41454729Y-35789116D01*
X41643082Y-35663263D01*
X41803263Y-35503082D01*
X41929116Y-35314729D01*
X42015806Y-35105443D01*
X42060000Y-34883265D01*
X42060000Y-34656735D01*
X42015806Y-34434557D01*
X41929116Y-34225271D01*
X41803263Y-34036918D01*
X41686345Y-33920000D01*
X42673655Y-33920000D01*
X42556737Y-34036918D01*
X42430884Y-34225271D01*
X42344194Y-34434557D01*
X42300000Y-34656735D01*
X42300000Y-34883265D01*
X42344194Y-35105443D01*
X42430884Y-35314729D01*
X42556737Y-35503082D01*
X42716918Y-35663263D01*
X42905271Y-35789116D01*
X43114557Y-35875806D01*
X43336735Y-35920000D01*
X43563265Y-35920000D01*
X43785443Y-35875806D01*
X43994729Y-35789116D01*
X44183082Y-35663263D01*
X44343263Y-35503082D01*
X44469116Y-35314729D01*
X44555806Y-35105443D01*
X44600000Y-34883265D01*
X44600000Y-34656735D01*
X44555806Y-34434557D01*
X44469116Y-34225271D01*
X44343263Y-34036918D01*
X44226345Y-33920000D01*
X44503605Y-33920000D01*
X44923432Y-34339828D01*
X44884194Y-34434557D01*
X44840000Y-34656735D01*
X44840000Y-34883265D01*
X44884194Y-35105443D01*
X44970884Y-35314729D01*
X45096737Y-35503082D01*
X45256918Y-35663263D01*
X45445271Y-35789116D01*
X45654557Y-35875806D01*
X45876735Y-35920000D01*
X46103265Y-35920000D01*
X46325443Y-35875806D01*
X46450001Y-35824212D01*
X46450000Y-41800709D01*
X46446130Y-41840000D01*
X46450000Y-41879291D01*
X46450000Y-41879292D01*
X46461576Y-41996826D01*
X46483286Y-42068393D01*
X46507321Y-42147627D01*
X46581607Y-42286606D01*
X46598021Y-42306606D01*
X46681578Y-42408422D01*
X46712103Y-42433473D01*
X52843629Y-48565000D01*
X40702103Y-60706527D01*
X40671578Y-60731578D01*
X40617151Y-60797899D01*
X40571607Y-60853394D01*
X40497322Y-60992372D01*
X40497321Y-60992373D01*
X40451576Y-61143174D01*
X40440000Y-61260707D01*
X40436130Y-61300000D01*
X40440000Y-61339291D01*
X40440001Y-74776999D01*
X40320884Y-74955271D01*
X40234194Y-75164557D01*
X40190000Y-75386735D01*
X40190000Y-75613265D01*
X40234194Y-75835443D01*
X40320884Y-76044729D01*
X40446737Y-76233082D01*
X40606918Y-76393263D01*
X40795271Y-76519116D01*
X41004557Y-76605806D01*
X41226735Y-76650000D01*
X41453265Y-76650000D01*
X41675443Y-76605806D01*
X41884729Y-76519116D01*
X42073082Y-76393263D01*
X42233263Y-76233082D01*
X42359116Y-76044729D01*
X42445806Y-75835443D01*
X42490000Y-75613265D01*
X42490000Y-75386735D01*
X42445806Y-75164557D01*
X42359116Y-74955271D01*
X42233263Y-74766918D01*
X42073082Y-74606737D01*
X42040000Y-74584632D01*
X42040000Y-61631370D01*
X50317869Y-53353501D01*
X55358632Y-53353501D01*
X55440728Y-53524967D01*
X55651435Y-53614381D01*
X55875538Y-53660970D01*
X56104423Y-53662944D01*
X56329296Y-53620226D01*
X56541514Y-53534459D01*
X56559272Y-53524967D01*
X56641368Y-53353501D01*
X56000000Y-52712132D01*
X55358632Y-53353501D01*
X50317869Y-53353501D01*
X51066947Y-52604423D01*
X54837056Y-52604423D01*
X54879774Y-52829296D01*
X54965541Y-53041514D01*
X54975033Y-53059272D01*
X55146499Y-53141368D01*
X55787868Y-52500000D01*
X56212132Y-52500000D01*
X56853501Y-53141368D01*
X57024967Y-53059272D01*
X57114381Y-52848565D01*
X57160970Y-52624462D01*
X57162944Y-52395577D01*
X57120226Y-52170704D01*
X57034459Y-51958486D01*
X57024967Y-51940728D01*
X56853501Y-51858632D01*
X56212132Y-52500000D01*
X55787868Y-52500000D01*
X55146499Y-51858632D01*
X54975033Y-51940728D01*
X54885619Y-52151435D01*
X54839030Y-52375538D01*
X54837056Y-52604423D01*
X51066947Y-52604423D01*
X54371371Y-49300000D01*
X55298104Y-49300000D01*
X55323014Y-49324910D01*
X55496954Y-49441133D01*
X55639073Y-49500000D01*
X55496954Y-49558867D01*
X55323014Y-49675090D01*
X55175090Y-49823014D01*
X55058867Y-49996954D01*
X54978812Y-50190226D01*
X54938000Y-50395402D01*
X54938000Y-50604598D01*
X54978812Y-50809774D01*
X55058867Y-51003046D01*
X55175090Y-51176986D01*
X55323014Y-51324910D01*
X55496954Y-51441133D01*
X55507782Y-51445618D01*
X55458486Y-51465541D01*
X55440728Y-51475033D01*
X55358632Y-51646499D01*
X56000000Y-52287868D01*
X56641368Y-51646499D01*
X56559272Y-51475033D01*
X56491073Y-51446092D01*
X56503046Y-51441133D01*
X56676986Y-51324910D01*
X56824910Y-51176986D01*
X56941133Y-51003046D01*
X57021188Y-50809774D01*
X57062000Y-50604598D01*
X57062000Y-50395402D01*
X57021188Y-50190226D01*
X56941133Y-49996954D01*
X56824910Y-49823014D01*
X56676986Y-49675090D01*
X56503046Y-49558867D01*
X56360927Y-49500000D01*
X56503046Y-49441133D01*
X56676986Y-49324910D01*
X56824910Y-49176986D01*
X56941133Y-49003046D01*
X57021188Y-48809774D01*
X57062000Y-48604598D01*
X57062000Y-48529609D01*
X58150001Y-49617610D01*
X58150000Y-53838629D01*
X44062099Y-67926531D01*
X44031579Y-67951578D01*
X44006532Y-67982098D01*
X44006531Y-67982099D01*
X43931607Y-68073394D01*
X43857321Y-68212373D01*
X43811577Y-68363173D01*
X43796130Y-68520000D01*
X43800001Y-68559301D01*
X43800000Y-74350000D01*
X43766735Y-74350000D01*
X43544557Y-74394194D01*
X43335271Y-74480884D01*
X43146918Y-74606737D01*
X42986737Y-74766918D01*
X42860884Y-74955271D01*
X42774194Y-75164557D01*
X42730000Y-75386735D01*
X42730000Y-75613265D01*
X42774194Y-75835443D01*
X42860884Y-76044729D01*
X42986737Y-76233082D01*
X43146918Y-76393263D01*
X43335271Y-76519116D01*
X43544557Y-76605806D01*
X43766735Y-76650000D01*
X43993265Y-76650000D01*
X44215443Y-76605806D01*
X44424729Y-76519116D01*
X44613082Y-76393263D01*
X44773263Y-76233082D01*
X44899116Y-76044729D01*
X44985806Y-75835443D01*
X45030000Y-75613265D01*
X45030000Y-75481370D01*
X45124635Y-75386735D01*
X45270000Y-75386735D01*
X45270000Y-75613265D01*
X45314194Y-75835443D01*
X45400884Y-76044729D01*
X45526737Y-76233082D01*
X45686918Y-76393263D01*
X45875271Y-76519116D01*
X46084557Y-76605806D01*
X46306735Y-76650000D01*
X46533265Y-76650000D01*
X46755443Y-76605806D01*
X46964729Y-76519116D01*
X47153082Y-76393263D01*
X47313263Y-76233082D01*
X47439116Y-76044729D01*
X47525806Y-75835443D01*
X47570000Y-75613265D01*
X47570000Y-75386735D01*
X47810000Y-75386735D01*
X47810000Y-75613265D01*
X47854194Y-75835443D01*
X47940884Y-76044729D01*
X48066737Y-76233082D01*
X48226918Y-76393263D01*
X48415271Y-76519116D01*
X48624557Y-76605806D01*
X48846735Y-76650000D01*
X49073265Y-76650000D01*
X49295443Y-76605806D01*
X49504729Y-76519116D01*
X49693082Y-76393263D01*
X49736345Y-76350000D01*
X50248065Y-76350000D01*
X50255788Y-76428414D01*
X50278660Y-76503814D01*
X50315803Y-76573303D01*
X50365789Y-76634211D01*
X50426697Y-76684197D01*
X50496186Y-76721340D01*
X50571586Y-76744212D01*
X50650000Y-76751935D01*
X51250000Y-76750000D01*
X51350000Y-76650000D01*
X51350000Y-75650000D01*
X51650000Y-75650000D01*
X51650000Y-76650000D01*
X51750000Y-76750000D01*
X52350000Y-76751935D01*
X52428414Y-76744212D01*
X52503814Y-76721340D01*
X52573303Y-76684197D01*
X52634211Y-76634211D01*
X52684197Y-76573303D01*
X52721340Y-76503814D01*
X52744212Y-76428414D01*
X52751935Y-76350000D01*
X52750000Y-75750000D01*
X52650000Y-75650000D01*
X51650000Y-75650000D01*
X51350000Y-75650000D01*
X50350000Y-75650000D01*
X50250000Y-75750000D01*
X50248065Y-76350000D01*
X49736345Y-76350000D01*
X49853263Y-76233082D01*
X49979116Y-76044729D01*
X50065806Y-75835443D01*
X50110000Y-75613265D01*
X50110000Y-75416605D01*
X59015527Y-75416605D01*
X59108350Y-75597059D01*
X59334128Y-75695307D01*
X59574736Y-75747618D01*
X59820925Y-75751986D01*
X60063236Y-75708240D01*
X60292356Y-75618062D01*
X60331650Y-75597059D01*
X60424473Y-75416605D01*
X61555527Y-75416605D01*
X61648350Y-75597059D01*
X61874128Y-75695307D01*
X62114736Y-75747618D01*
X62360925Y-75751986D01*
X62603236Y-75708240D01*
X62832356Y-75618062D01*
X62871650Y-75597059D01*
X62964473Y-75416605D01*
X64095527Y-75416605D01*
X64188350Y-75597059D01*
X64414128Y-75695307D01*
X64654736Y-75747618D01*
X64900925Y-75751986D01*
X65143236Y-75708240D01*
X65372356Y-75618062D01*
X65411650Y-75597059D01*
X65504473Y-75416605D01*
X66635527Y-75416605D01*
X66728350Y-75597059D01*
X66954128Y-75695307D01*
X67194736Y-75747618D01*
X67440925Y-75751986D01*
X67683236Y-75708240D01*
X67912356Y-75618062D01*
X67951650Y-75597059D01*
X68044473Y-75416605D01*
X69175527Y-75416605D01*
X69268350Y-75597059D01*
X69494128Y-75695307D01*
X69734736Y-75747618D01*
X69980925Y-75751986D01*
X70223236Y-75708240D01*
X70452356Y-75618062D01*
X70491650Y-75597059D01*
X70584473Y-75416605D01*
X71715527Y-75416605D01*
X71808350Y-75597059D01*
X72034128Y-75695307D01*
X72274736Y-75747618D01*
X72520925Y-75751986D01*
X72763236Y-75708240D01*
X72992356Y-75618062D01*
X73031650Y-75597059D01*
X73124473Y-75416605D01*
X74255527Y-75416605D01*
X74348350Y-75597059D01*
X74574128Y-75695307D01*
X74814736Y-75747618D01*
X75060925Y-75751986D01*
X75303236Y-75708240D01*
X75532356Y-75618062D01*
X75571650Y-75597059D01*
X75664473Y-75416605D01*
X76795527Y-75416605D01*
X76888350Y-75597059D01*
X77114128Y-75695307D01*
X77354736Y-75747618D01*
X77600925Y-75751986D01*
X77843236Y-75708240D01*
X78072356Y-75618062D01*
X78111650Y-75597059D01*
X78204473Y-75416605D01*
X79335527Y-75416605D01*
X79428350Y-75597059D01*
X79654128Y-75695307D01*
X79894736Y-75747618D01*
X80140925Y-75751986D01*
X80383236Y-75708240D01*
X80612356Y-75618062D01*
X80651650Y-75597059D01*
X80744473Y-75416605D01*
X80040000Y-74712132D01*
X79335527Y-75416605D01*
X78204473Y-75416605D01*
X77500000Y-74712132D01*
X76795527Y-75416605D01*
X75664473Y-75416605D01*
X74960000Y-74712132D01*
X74255527Y-75416605D01*
X73124473Y-75416605D01*
X72420000Y-74712132D01*
X71715527Y-75416605D01*
X70584473Y-75416605D01*
X69880000Y-74712132D01*
X69175527Y-75416605D01*
X68044473Y-75416605D01*
X67340000Y-74712132D01*
X66635527Y-75416605D01*
X65504473Y-75416605D01*
X64800000Y-74712132D01*
X64095527Y-75416605D01*
X62964473Y-75416605D01*
X62260000Y-74712132D01*
X61555527Y-75416605D01*
X60424473Y-75416605D01*
X59720000Y-74712132D01*
X59015527Y-75416605D01*
X50110000Y-75416605D01*
X50110000Y-75386735D01*
X50065806Y-75164557D01*
X49979116Y-74955271D01*
X49853263Y-74766918D01*
X49736345Y-74650000D01*
X50248065Y-74650000D01*
X50250000Y-75250000D01*
X50350000Y-75350000D01*
X51350000Y-75350000D01*
X51350000Y-74350000D01*
X51650000Y-74350000D01*
X51650000Y-75350000D01*
X52650000Y-75350000D01*
X52750000Y-75250000D01*
X52751935Y-74650000D01*
X52747102Y-74600925D01*
X58468014Y-74600925D01*
X58511760Y-74843236D01*
X58601938Y-75072356D01*
X58622941Y-75111650D01*
X58803395Y-75204473D01*
X59507868Y-74500000D01*
X59932132Y-74500000D01*
X60636605Y-75204473D01*
X60817059Y-75111650D01*
X60915307Y-74885872D01*
X60967618Y-74645264D01*
X60968404Y-74600925D01*
X61008014Y-74600925D01*
X61051760Y-74843236D01*
X61141938Y-75072356D01*
X61162941Y-75111650D01*
X61343395Y-75204473D01*
X62047868Y-74500000D01*
X62472132Y-74500000D01*
X63176605Y-75204473D01*
X63357059Y-75111650D01*
X63455307Y-74885872D01*
X63507618Y-74645264D01*
X63508404Y-74600925D01*
X63548014Y-74600925D01*
X63591760Y-74843236D01*
X63681938Y-75072356D01*
X63702941Y-75111650D01*
X63883395Y-75204473D01*
X64587868Y-74500000D01*
X65012132Y-74500000D01*
X65716605Y-75204473D01*
X65897059Y-75111650D01*
X65995307Y-74885872D01*
X66047618Y-74645264D01*
X66048404Y-74600925D01*
X66088014Y-74600925D01*
X66131760Y-74843236D01*
X66221938Y-75072356D01*
X66242941Y-75111650D01*
X66423395Y-75204473D01*
X67127868Y-74500000D01*
X67552132Y-74500000D01*
X68256605Y-75204473D01*
X68437059Y-75111650D01*
X68535307Y-74885872D01*
X68587618Y-74645264D01*
X68588404Y-74600925D01*
X68628014Y-74600925D01*
X68671760Y-74843236D01*
X68761938Y-75072356D01*
X68782941Y-75111650D01*
X68963395Y-75204473D01*
X69667868Y-74500000D01*
X70092132Y-74500000D01*
X70796605Y-75204473D01*
X70977059Y-75111650D01*
X71075307Y-74885872D01*
X71127618Y-74645264D01*
X71128404Y-74600925D01*
X71168014Y-74600925D01*
X71211760Y-74843236D01*
X71301938Y-75072356D01*
X71322941Y-75111650D01*
X71503395Y-75204473D01*
X72207868Y-74500000D01*
X72632132Y-74500000D01*
X73336605Y-75204473D01*
X73517059Y-75111650D01*
X73615307Y-74885872D01*
X73667618Y-74645264D01*
X73668404Y-74600925D01*
X73708014Y-74600925D01*
X73751760Y-74843236D01*
X73841938Y-75072356D01*
X73862941Y-75111650D01*
X74043395Y-75204473D01*
X74747868Y-74500000D01*
X75172132Y-74500000D01*
X75876605Y-75204473D01*
X76057059Y-75111650D01*
X76155307Y-74885872D01*
X76207618Y-74645264D01*
X76208404Y-74600925D01*
X76248014Y-74600925D01*
X76291760Y-74843236D01*
X76381938Y-75072356D01*
X76402941Y-75111650D01*
X76583395Y-75204473D01*
X77287868Y-74500000D01*
X77712132Y-74500000D01*
X78416605Y-75204473D01*
X78597059Y-75111650D01*
X78695307Y-74885872D01*
X78747618Y-74645264D01*
X78748404Y-74600925D01*
X78788014Y-74600925D01*
X78831760Y-74843236D01*
X78921938Y-75072356D01*
X78942941Y-75111650D01*
X79123395Y-75204473D01*
X79827868Y-74500000D01*
X80252132Y-74500000D01*
X80956605Y-75204473D01*
X81137059Y-75111650D01*
X81235307Y-74885872D01*
X81287618Y-74645264D01*
X81291986Y-74399075D01*
X81289759Y-74386735D01*
X81430000Y-74386735D01*
X81430000Y-74613265D01*
X81474194Y-74835443D01*
X81560884Y-75044729D01*
X81686737Y-75233082D01*
X81846918Y-75393263D01*
X82035271Y-75519116D01*
X82244557Y-75605806D01*
X82466735Y-75650000D01*
X82693265Y-75650000D01*
X82915443Y-75605806D01*
X83124729Y-75519116D01*
X83313082Y-75393263D01*
X83473263Y-75233082D01*
X83599116Y-75044729D01*
X83685806Y-74835443D01*
X83730000Y-74613265D01*
X83730000Y-74386735D01*
X83685806Y-74164557D01*
X83599116Y-73955271D01*
X83473263Y-73766918D01*
X83313082Y-73606737D01*
X83124729Y-73480884D01*
X82915443Y-73394194D01*
X82693265Y-73350000D01*
X82466735Y-73350000D01*
X82244557Y-73394194D01*
X82035271Y-73480884D01*
X81846918Y-73606737D01*
X81686737Y-73766918D01*
X81560884Y-73955271D01*
X81474194Y-74164557D01*
X81430000Y-74386735D01*
X81289759Y-74386735D01*
X81248240Y-74156764D01*
X81158062Y-73927644D01*
X81137059Y-73888350D01*
X80956605Y-73795527D01*
X80252132Y-74500000D01*
X79827868Y-74500000D01*
X79123395Y-73795527D01*
X78942941Y-73888350D01*
X78844693Y-74114128D01*
X78792382Y-74354736D01*
X78788014Y-74600925D01*
X78748404Y-74600925D01*
X78751986Y-74399075D01*
X78708240Y-74156764D01*
X78618062Y-73927644D01*
X78597059Y-73888350D01*
X78416605Y-73795527D01*
X77712132Y-74500000D01*
X77287868Y-74500000D01*
X76583395Y-73795527D01*
X76402941Y-73888350D01*
X76304693Y-74114128D01*
X76252382Y-74354736D01*
X76248014Y-74600925D01*
X76208404Y-74600925D01*
X76211986Y-74399075D01*
X76168240Y-74156764D01*
X76078062Y-73927644D01*
X76057059Y-73888350D01*
X75876605Y-73795527D01*
X75172132Y-74500000D01*
X74747868Y-74500000D01*
X74043395Y-73795527D01*
X73862941Y-73888350D01*
X73764693Y-74114128D01*
X73712382Y-74354736D01*
X73708014Y-74600925D01*
X73668404Y-74600925D01*
X73671986Y-74399075D01*
X73628240Y-74156764D01*
X73538062Y-73927644D01*
X73517059Y-73888350D01*
X73336605Y-73795527D01*
X72632132Y-74500000D01*
X72207868Y-74500000D01*
X71503395Y-73795527D01*
X71322941Y-73888350D01*
X71224693Y-74114128D01*
X71172382Y-74354736D01*
X71168014Y-74600925D01*
X71128404Y-74600925D01*
X71131986Y-74399075D01*
X71088240Y-74156764D01*
X70998062Y-73927644D01*
X70977059Y-73888350D01*
X70796605Y-73795527D01*
X70092132Y-74500000D01*
X69667868Y-74500000D01*
X68963395Y-73795527D01*
X68782941Y-73888350D01*
X68684693Y-74114128D01*
X68632382Y-74354736D01*
X68628014Y-74600925D01*
X68588404Y-74600925D01*
X68591986Y-74399075D01*
X68548240Y-74156764D01*
X68458062Y-73927644D01*
X68437059Y-73888350D01*
X68256605Y-73795527D01*
X67552132Y-74500000D01*
X67127868Y-74500000D01*
X66423395Y-73795527D01*
X66242941Y-73888350D01*
X66144693Y-74114128D01*
X66092382Y-74354736D01*
X66088014Y-74600925D01*
X66048404Y-74600925D01*
X66051986Y-74399075D01*
X66008240Y-74156764D01*
X65918062Y-73927644D01*
X65897059Y-73888350D01*
X65716605Y-73795527D01*
X65012132Y-74500000D01*
X64587868Y-74500000D01*
X63883395Y-73795527D01*
X63702941Y-73888350D01*
X63604693Y-74114128D01*
X63552382Y-74354736D01*
X63548014Y-74600925D01*
X63508404Y-74600925D01*
X63511986Y-74399075D01*
X63468240Y-74156764D01*
X63378062Y-73927644D01*
X63357059Y-73888350D01*
X63176605Y-73795527D01*
X62472132Y-74500000D01*
X62047868Y-74500000D01*
X61343395Y-73795527D01*
X61162941Y-73888350D01*
X61064693Y-74114128D01*
X61012382Y-74354736D01*
X61008014Y-74600925D01*
X60968404Y-74600925D01*
X60971986Y-74399075D01*
X60928240Y-74156764D01*
X60838062Y-73927644D01*
X60817059Y-73888350D01*
X60636605Y-73795527D01*
X59932132Y-74500000D01*
X59507868Y-74500000D01*
X58803395Y-73795527D01*
X58622941Y-73888350D01*
X58524693Y-74114128D01*
X58472382Y-74354736D01*
X58468014Y-74600925D01*
X52747102Y-74600925D01*
X52744212Y-74571586D01*
X52721340Y-74496186D01*
X52684197Y-74426697D01*
X52634211Y-74365789D01*
X52573303Y-74315803D01*
X52503814Y-74278660D01*
X52428414Y-74255788D01*
X52350000Y-74248065D01*
X51750000Y-74250000D01*
X51650000Y-74350000D01*
X51350000Y-74350000D01*
X51250000Y-74250000D01*
X50650000Y-74248065D01*
X50571586Y-74255788D01*
X50496186Y-74278660D01*
X50426697Y-74315803D01*
X50365789Y-74365789D01*
X50315803Y-74426697D01*
X50278660Y-74496186D01*
X50255788Y-74571586D01*
X50248065Y-74650000D01*
X49736345Y-74650000D01*
X49693082Y-74606737D01*
X49504729Y-74480884D01*
X49295443Y-74394194D01*
X49073265Y-74350000D01*
X48846735Y-74350000D01*
X48624557Y-74394194D01*
X48415271Y-74480884D01*
X48226918Y-74606737D01*
X48066737Y-74766918D01*
X47940884Y-74955271D01*
X47854194Y-75164557D01*
X47810000Y-75386735D01*
X47570000Y-75386735D01*
X47525806Y-75164557D01*
X47439116Y-74955271D01*
X47313263Y-74766918D01*
X47153082Y-74606737D01*
X46964729Y-74480884D01*
X46755443Y-74394194D01*
X46533265Y-74350000D01*
X46306735Y-74350000D01*
X46084557Y-74394194D01*
X45875271Y-74480884D01*
X45686918Y-74606737D01*
X45526737Y-74766918D01*
X45400884Y-74955271D01*
X45314194Y-75164557D01*
X45270000Y-75386735D01*
X45124635Y-75386735D01*
X45137898Y-75373472D01*
X45168422Y-75348422D01*
X45228869Y-75274767D01*
X45268393Y-75226607D01*
X45342679Y-75087628D01*
X45355692Y-75044729D01*
X45388424Y-74936827D01*
X45400000Y-74819293D01*
X45400000Y-74819291D01*
X45403870Y-74780000D01*
X45400000Y-74740709D01*
X45400000Y-73583395D01*
X59015527Y-73583395D01*
X59720000Y-74287868D01*
X60424473Y-73583395D01*
X61555527Y-73583395D01*
X62260000Y-74287868D01*
X62964473Y-73583395D01*
X64095527Y-73583395D01*
X64800000Y-74287868D01*
X65504473Y-73583395D01*
X66635527Y-73583395D01*
X67340000Y-74287868D01*
X68044473Y-73583395D01*
X69175527Y-73583395D01*
X69880000Y-74287868D01*
X70584473Y-73583395D01*
X71715527Y-73583395D01*
X72420000Y-74287868D01*
X73124473Y-73583395D01*
X74255527Y-73583395D01*
X74960000Y-74287868D01*
X75664473Y-73583395D01*
X76795527Y-73583395D01*
X77500000Y-74287868D01*
X78204473Y-73583395D01*
X79335527Y-73583395D01*
X80040000Y-74287868D01*
X80744473Y-73583395D01*
X80651650Y-73402941D01*
X80425872Y-73304693D01*
X80185264Y-73252382D01*
X79939075Y-73248014D01*
X79696764Y-73291760D01*
X79467644Y-73381938D01*
X79428350Y-73402941D01*
X79335527Y-73583395D01*
X78204473Y-73583395D01*
X78111650Y-73402941D01*
X77885872Y-73304693D01*
X77645264Y-73252382D01*
X77399075Y-73248014D01*
X77156764Y-73291760D01*
X76927644Y-73381938D01*
X76888350Y-73402941D01*
X76795527Y-73583395D01*
X75664473Y-73583395D01*
X75571650Y-73402941D01*
X75345872Y-73304693D01*
X75105264Y-73252382D01*
X74859075Y-73248014D01*
X74616764Y-73291760D01*
X74387644Y-73381938D01*
X74348350Y-73402941D01*
X74255527Y-73583395D01*
X73124473Y-73583395D01*
X73031650Y-73402941D01*
X72805872Y-73304693D01*
X72565264Y-73252382D01*
X72319075Y-73248014D01*
X72076764Y-73291760D01*
X71847644Y-73381938D01*
X71808350Y-73402941D01*
X71715527Y-73583395D01*
X70584473Y-73583395D01*
X70491650Y-73402941D01*
X70265872Y-73304693D01*
X70025264Y-73252382D01*
X69779075Y-73248014D01*
X69536764Y-73291760D01*
X69307644Y-73381938D01*
X69268350Y-73402941D01*
X69175527Y-73583395D01*
X68044473Y-73583395D01*
X67951650Y-73402941D01*
X67725872Y-73304693D01*
X67485264Y-73252382D01*
X67239075Y-73248014D01*
X66996764Y-73291760D01*
X66767644Y-73381938D01*
X66728350Y-73402941D01*
X66635527Y-73583395D01*
X65504473Y-73583395D01*
X65411650Y-73402941D01*
X65185872Y-73304693D01*
X64945264Y-73252382D01*
X64699075Y-73248014D01*
X64456764Y-73291760D01*
X64227644Y-73381938D01*
X64188350Y-73402941D01*
X64095527Y-73583395D01*
X62964473Y-73583395D01*
X62871650Y-73402941D01*
X62645872Y-73304693D01*
X62405264Y-73252382D01*
X62159075Y-73248014D01*
X61916764Y-73291760D01*
X61687644Y-73381938D01*
X61648350Y-73402941D01*
X61555527Y-73583395D01*
X60424473Y-73583395D01*
X60331650Y-73402941D01*
X60105872Y-73304693D01*
X59865264Y-73252382D01*
X59619075Y-73248014D01*
X59376764Y-73291760D01*
X59147644Y-73381938D01*
X59108350Y-73402941D01*
X59015527Y-73583395D01*
X45400000Y-73583395D01*
X45400000Y-71846735D01*
X58570000Y-71846735D01*
X58570000Y-72073265D01*
X58614194Y-72295443D01*
X58700884Y-72504729D01*
X58826737Y-72693082D01*
X58986918Y-72853263D01*
X59175271Y-72979116D01*
X59384557Y-73065806D01*
X59606735Y-73110000D01*
X59833265Y-73110000D01*
X60055443Y-73065806D01*
X60264729Y-72979116D01*
X60453082Y-72853263D01*
X60613263Y-72693082D01*
X60739116Y-72504729D01*
X60825806Y-72295443D01*
X60870000Y-72073265D01*
X60870000Y-71846735D01*
X61110000Y-71846735D01*
X61110000Y-72073265D01*
X61154194Y-72295443D01*
X61240884Y-72504729D01*
X61366737Y-72693082D01*
X61526918Y-72853263D01*
X61715271Y-72979116D01*
X61924557Y-73065806D01*
X62146735Y-73110000D01*
X62373265Y-73110000D01*
X62595443Y-73065806D01*
X62804729Y-72979116D01*
X62993082Y-72853263D01*
X63153263Y-72693082D01*
X63279116Y-72504729D01*
X63365806Y-72295443D01*
X63410000Y-72073265D01*
X63410000Y-71846735D01*
X63650000Y-71846735D01*
X63650000Y-72073265D01*
X63694194Y-72295443D01*
X63780884Y-72504729D01*
X63906737Y-72693082D01*
X64066918Y-72853263D01*
X64255271Y-72979116D01*
X64464557Y-73065806D01*
X64686735Y-73110000D01*
X64913265Y-73110000D01*
X65135443Y-73065806D01*
X65344729Y-72979116D01*
X65533082Y-72853263D01*
X65693263Y-72693082D01*
X65819116Y-72504729D01*
X65905806Y-72295443D01*
X65950000Y-72073265D01*
X65950000Y-71846735D01*
X65905806Y-71624557D01*
X65819116Y-71415271D01*
X65693263Y-71226918D01*
X65533082Y-71066737D01*
X65344729Y-70940884D01*
X65135443Y-70854194D01*
X64913265Y-70810000D01*
X64686735Y-70810000D01*
X64464557Y-70854194D01*
X64255271Y-70940884D01*
X64066918Y-71066737D01*
X63906737Y-71226918D01*
X63780884Y-71415271D01*
X63694194Y-71624557D01*
X63650000Y-71846735D01*
X63410000Y-71846735D01*
X63365806Y-71624557D01*
X63279116Y-71415271D01*
X63153263Y-71226918D01*
X62993082Y-71066737D01*
X62804729Y-70940884D01*
X62595443Y-70854194D01*
X62373265Y-70810000D01*
X62146735Y-70810000D01*
X61924557Y-70854194D01*
X61715271Y-70940884D01*
X61526918Y-71066737D01*
X61366737Y-71226918D01*
X61240884Y-71415271D01*
X61154194Y-71624557D01*
X61110000Y-71846735D01*
X60870000Y-71846735D01*
X60825806Y-71624557D01*
X60739116Y-71415271D01*
X60613263Y-71226918D01*
X60453082Y-71066737D01*
X60264729Y-70940884D01*
X60055443Y-70854194D01*
X59833265Y-70810000D01*
X59606735Y-70810000D01*
X59384557Y-70854194D01*
X59175271Y-70940884D01*
X58986918Y-71066737D01*
X58826737Y-71226918D01*
X58700884Y-71415271D01*
X58614194Y-71624557D01*
X58570000Y-71846735D01*
X45400000Y-71846735D01*
X45400000Y-68851370D01*
X59487904Y-54763467D01*
X59518422Y-54738422D01*
X59543470Y-54707901D01*
X59618393Y-54616607D01*
X59692679Y-54477628D01*
X59716227Y-54400000D01*
X59738424Y-54326827D01*
X59750000Y-54209293D01*
X59750000Y-54209291D01*
X59753870Y-54170000D01*
X59750000Y-54130709D01*
X59750000Y-49325529D01*
X59753870Y-49286238D01*
X59746206Y-49208424D01*
X59738424Y-49129411D01*
X59692679Y-48978610D01*
X59618393Y-48839631D01*
X59543470Y-48748337D01*
X59543469Y-48748336D01*
X59518422Y-48717816D01*
X59487902Y-48692769D01*
X57063451Y-46268319D01*
X57063451Y-45738000D01*
X57057659Y-45679190D01*
X57040504Y-45622640D01*
X57012647Y-45570523D01*
X56975158Y-45524842D01*
X56929477Y-45487353D01*
X56877360Y-45459496D01*
X56820810Y-45442341D01*
X56762000Y-45436549D01*
X56067920Y-45436549D01*
X50570000Y-39938630D01*
X50570000Y-35807644D01*
X50734557Y-35875806D01*
X50956735Y-35920000D01*
X51183265Y-35920000D01*
X51405443Y-35875806D01*
X51614729Y-35789116D01*
X51803082Y-35663263D01*
X51963263Y-35503082D01*
X52089116Y-35314729D01*
X52175806Y-35105443D01*
X52220000Y-34883265D01*
X52220000Y-34656735D01*
X52460000Y-34656735D01*
X52460000Y-34883265D01*
X52504194Y-35105443D01*
X52590884Y-35314729D01*
X52716737Y-35503082D01*
X52876918Y-35663263D01*
X53065271Y-35789116D01*
X53274557Y-35875806D01*
X53496735Y-35920000D01*
X53723265Y-35920000D01*
X53945443Y-35875806D01*
X54154729Y-35789116D01*
X54343082Y-35663263D01*
X54503263Y-35503082D01*
X54629116Y-35314729D01*
X54715806Y-35105443D01*
X54760000Y-34883265D01*
X54760000Y-34656735D01*
X55000000Y-34656735D01*
X55000000Y-34883265D01*
X55044194Y-35105443D01*
X55130884Y-35314729D01*
X55256737Y-35503082D01*
X55416918Y-35663263D01*
X55605271Y-35789116D01*
X55814557Y-35875806D01*
X56036735Y-35920000D01*
X56263265Y-35920000D01*
X56485443Y-35875806D01*
X56694729Y-35789116D01*
X56883082Y-35663263D01*
X57043263Y-35503082D01*
X57169116Y-35314729D01*
X57255806Y-35105443D01*
X57300000Y-34883265D01*
X57300000Y-34656735D01*
X57255806Y-34434557D01*
X57169116Y-34225271D01*
X57043263Y-34036918D01*
X56883082Y-33876737D01*
X56694729Y-33750884D01*
X56485443Y-33664194D01*
X56263265Y-33620000D01*
X56036735Y-33620000D01*
X55814557Y-33664194D01*
X55605271Y-33750884D01*
X55416918Y-33876737D01*
X55256737Y-34036918D01*
X55130884Y-34225271D01*
X55044194Y-34434557D01*
X55000000Y-34656735D01*
X54760000Y-34656735D01*
X54715806Y-34434557D01*
X54629116Y-34225271D01*
X54503263Y-34036918D01*
X54343082Y-33876737D01*
X54154729Y-33750884D01*
X53945443Y-33664194D01*
X53723265Y-33620000D01*
X53496735Y-33620000D01*
X53274557Y-33664194D01*
X53065271Y-33750884D01*
X52876918Y-33876737D01*
X52716737Y-34036918D01*
X52590884Y-34225271D01*
X52504194Y-34434557D01*
X52460000Y-34656735D01*
X52220000Y-34656735D01*
X52175806Y-34434557D01*
X52089116Y-34225271D01*
X51963263Y-34036918D01*
X51803082Y-33876737D01*
X51614729Y-33750884D01*
X51405443Y-33664194D01*
X51183265Y-33620000D01*
X50956735Y-33620000D01*
X50734557Y-33664194D01*
X50525271Y-33750884D01*
X50336918Y-33876737D01*
X50220000Y-33993655D01*
X50220000Y-33492094D01*
X50222176Y-33470000D01*
X50220000Y-33447906D01*
X50220000Y-33447895D01*
X50213489Y-33381785D01*
X50187757Y-33296959D01*
X50173384Y-33270069D01*
X50145971Y-33218783D01*
X50103828Y-33167432D01*
X50103824Y-33167428D01*
X50089737Y-33150263D01*
X50072573Y-33136177D01*
X49596568Y-32660172D01*
X49635806Y-32565443D01*
X49680000Y-32343265D01*
X49680000Y-32116735D01*
X49920000Y-32116735D01*
X49920000Y-32343265D01*
X49964194Y-32565443D01*
X50050884Y-32774729D01*
X50176737Y-32963082D01*
X50336918Y-33123263D01*
X50525271Y-33249116D01*
X50734557Y-33335806D01*
X50956735Y-33380000D01*
X51183265Y-33380000D01*
X51405443Y-33335806D01*
X51614729Y-33249116D01*
X51803082Y-33123263D01*
X51963263Y-32963082D01*
X52089116Y-32774729D01*
X52172972Y-32572284D01*
X52407770Y-32572284D01*
X52497647Y-32800251D01*
X52630271Y-33006303D01*
X52800545Y-33182522D01*
X53001926Y-33322136D01*
X53226675Y-33419780D01*
X53267717Y-33432223D01*
X53460000Y-33370175D01*
X53460000Y-32380000D01*
X53760000Y-32380000D01*
X53760000Y-33370175D01*
X53952283Y-33432223D01*
X53993325Y-33419780D01*
X54218074Y-33322136D01*
X54419455Y-33182522D01*
X54589729Y-33006303D01*
X54722353Y-32800251D01*
X54812230Y-32572284D01*
X54750974Y-32380000D01*
X53760000Y-32380000D01*
X53460000Y-32380000D01*
X52469026Y-32380000D01*
X52407770Y-32572284D01*
X52172972Y-32572284D01*
X52175806Y-32565443D01*
X52220000Y-32343265D01*
X52220000Y-32116735D01*
X55000000Y-32116735D01*
X55000000Y-32343265D01*
X55044194Y-32565443D01*
X55130884Y-32774729D01*
X55256737Y-32963082D01*
X55416918Y-33123263D01*
X55605271Y-33249116D01*
X55814557Y-33335806D01*
X56036735Y-33380000D01*
X56263265Y-33380000D01*
X56485443Y-33335806D01*
X56694729Y-33249116D01*
X56883082Y-33123263D01*
X57043263Y-32963082D01*
X57169116Y-32774729D01*
X57255806Y-32565443D01*
X57300000Y-32343265D01*
X57300000Y-32116735D01*
X57540000Y-32116735D01*
X57540000Y-32343265D01*
X57584194Y-32565443D01*
X57670884Y-32774729D01*
X57796737Y-32963082D01*
X57956918Y-33123263D01*
X58145271Y-33249116D01*
X58354557Y-33335806D01*
X58576735Y-33380000D01*
X58803265Y-33380000D01*
X59025443Y-33335806D01*
X59120172Y-33296568D01*
X59440001Y-33616397D01*
X59440001Y-33893656D01*
X59423082Y-33876737D01*
X59234729Y-33750884D01*
X59025443Y-33664194D01*
X58803265Y-33620000D01*
X58576735Y-33620000D01*
X58354557Y-33664194D01*
X58145271Y-33750884D01*
X57956918Y-33876737D01*
X57796737Y-34036918D01*
X57670884Y-34225271D01*
X57584194Y-34434557D01*
X57540000Y-34656735D01*
X57540000Y-34883265D01*
X57584194Y-35105443D01*
X57670884Y-35314729D01*
X57796737Y-35503082D01*
X57956918Y-35663263D01*
X58145271Y-35789116D01*
X58354557Y-35875806D01*
X58576735Y-35920000D01*
X58803265Y-35920000D01*
X59025443Y-35875806D01*
X59134814Y-35830503D01*
X59130000Y-35870000D01*
X59135764Y-35928527D01*
X59152836Y-35984805D01*
X59180559Y-36036671D01*
X59207617Y-36069642D01*
X59217321Y-36101630D01*
X59291607Y-36240608D01*
X59391578Y-36362424D01*
X59444420Y-36405790D01*
X66510001Y-43471372D01*
X66510000Y-71163655D01*
X66446737Y-71226918D01*
X66320884Y-71415271D01*
X66234194Y-71624557D01*
X66190000Y-71846735D01*
X66190000Y-72073265D01*
X66234194Y-72295443D01*
X66320884Y-72504729D01*
X66446737Y-72693082D01*
X66606918Y-72853263D01*
X66795271Y-72979116D01*
X67004557Y-73065806D01*
X67226735Y-73110000D01*
X67453265Y-73110000D01*
X67675443Y-73065806D01*
X67884729Y-72979116D01*
X68073082Y-72853263D01*
X68233263Y-72693082D01*
X68359116Y-72504729D01*
X68445806Y-72295443D01*
X68490000Y-72073265D01*
X68490000Y-71846735D01*
X68730000Y-71846735D01*
X68730000Y-72073265D01*
X68774194Y-72295443D01*
X68860884Y-72504729D01*
X68986737Y-72693082D01*
X69146918Y-72853263D01*
X69335271Y-72979116D01*
X69544557Y-73065806D01*
X69766735Y-73110000D01*
X69993265Y-73110000D01*
X70215443Y-73065806D01*
X70424729Y-72979116D01*
X70613082Y-72853263D01*
X70773263Y-72693082D01*
X70899116Y-72504729D01*
X70985806Y-72295443D01*
X71030000Y-72073265D01*
X71030000Y-71846735D01*
X70985806Y-71624557D01*
X70899116Y-71415271D01*
X70773263Y-71226918D01*
X70680000Y-71133655D01*
X70680000Y-41899282D01*
X70683869Y-41859999D01*
X70680000Y-41820716D01*
X70680000Y-41820707D01*
X70668424Y-41703173D01*
X70622679Y-41552372D01*
X70548393Y-41413394D01*
X70448422Y-41291578D01*
X70417897Y-41266527D01*
X70397901Y-41246531D01*
X70306606Y-41171607D01*
X70167627Y-41097321D01*
X70016827Y-41051577D01*
X69860000Y-41036130D01*
X69703173Y-41051577D01*
X69552373Y-41097321D01*
X69413394Y-41171607D01*
X69291579Y-41271579D01*
X69191607Y-41393394D01*
X69117321Y-41532373D01*
X69071577Y-41683173D01*
X69056130Y-41840000D01*
X69071577Y-41996827D01*
X69080001Y-42024598D01*
X69080000Y-71133655D01*
X68986737Y-71226918D01*
X68860884Y-71415271D01*
X68774194Y-71624557D01*
X68730000Y-71846735D01*
X68490000Y-71846735D01*
X68445806Y-71624557D01*
X68359116Y-71415271D01*
X68233263Y-71226918D01*
X68110000Y-71103655D01*
X68110000Y-43179290D01*
X68113870Y-43139999D01*
X68110000Y-43100707D01*
X68098424Y-42983173D01*
X68052679Y-42832372D01*
X68038024Y-42804955D01*
X67978393Y-42693393D01*
X67903469Y-42602098D01*
X67878422Y-42571578D01*
X67847902Y-42546531D01*
X61221370Y-35920000D01*
X61343265Y-35920000D01*
X61565443Y-35875806D01*
X61774729Y-35789116D01*
X61963082Y-35663263D01*
X62123263Y-35503082D01*
X62249116Y-35314729D01*
X62335806Y-35105443D01*
X62380000Y-34883265D01*
X62380000Y-34656735D01*
X62335806Y-34434557D01*
X62249116Y-34225271D01*
X62123263Y-34036918D01*
X61963082Y-33876737D01*
X61774729Y-33750884D01*
X61565443Y-33664194D01*
X61343265Y-33620000D01*
X61116735Y-33620000D01*
X60894557Y-33664194D01*
X60685271Y-33750884D01*
X60496918Y-33876737D01*
X60340001Y-34033654D01*
X60340001Y-33452095D01*
X60342177Y-33430001D01*
X60340001Y-33407907D01*
X60340001Y-33407896D01*
X60333490Y-33341786D01*
X60307758Y-33256960D01*
X60287352Y-33218783D01*
X60265972Y-33178784D01*
X60223829Y-33127433D01*
X60223825Y-33127429D01*
X60209738Y-33110264D01*
X60192574Y-33096178D01*
X59756568Y-32660172D01*
X59792972Y-32572284D01*
X60027770Y-32572284D01*
X60117647Y-32800251D01*
X60250271Y-33006303D01*
X60420545Y-33182522D01*
X60621926Y-33322136D01*
X60846675Y-33419780D01*
X60887717Y-33432223D01*
X61080000Y-33370175D01*
X61080000Y-32380000D01*
X61380000Y-32380000D01*
X61380000Y-33370175D01*
X61572283Y-33432223D01*
X61613325Y-33419780D01*
X61838074Y-33322136D01*
X62039455Y-33182522D01*
X62209729Y-33006303D01*
X62342353Y-32800251D01*
X62432230Y-32572284D01*
X62370974Y-32380000D01*
X61380000Y-32380000D01*
X61080000Y-32380000D01*
X60089026Y-32380000D01*
X60027770Y-32572284D01*
X59792972Y-32572284D01*
X59795806Y-32565443D01*
X59840000Y-32343265D01*
X59840000Y-32116735D01*
X62620000Y-32116735D01*
X62620000Y-32343265D01*
X62664194Y-32565443D01*
X62750884Y-32774729D01*
X62876737Y-32963082D01*
X63036918Y-33123263D01*
X63225271Y-33249116D01*
X63434557Y-33335806D01*
X63656735Y-33380000D01*
X63883265Y-33380000D01*
X64105443Y-33335806D01*
X64200172Y-33296568D01*
X64520001Y-33616397D01*
X64520001Y-33893656D01*
X64503082Y-33876737D01*
X64314729Y-33750884D01*
X64105443Y-33664194D01*
X63883265Y-33620000D01*
X63656735Y-33620000D01*
X63434557Y-33664194D01*
X63225271Y-33750884D01*
X63036918Y-33876737D01*
X62876737Y-34036918D01*
X62750884Y-34225271D01*
X62664194Y-34434557D01*
X62620000Y-34656735D01*
X62620000Y-34883265D01*
X62664194Y-35105443D01*
X62750884Y-35314729D01*
X62876737Y-35503082D01*
X63036918Y-35663263D01*
X63225271Y-35789116D01*
X63434557Y-35875806D01*
X63656735Y-35920000D01*
X63883265Y-35920000D01*
X64105443Y-35875806D01*
X64216170Y-35829941D01*
X64208633Y-35891778D01*
X64214397Y-35950305D01*
X64231469Y-36006583D01*
X64259192Y-36058449D01*
X64296501Y-36103910D01*
X64300134Y-36106891D01*
X64371607Y-36240608D01*
X64446531Y-36331903D01*
X64972526Y-36857898D01*
X64997577Y-36888423D01*
X65050419Y-36931789D01*
X67096530Y-38977901D01*
X67121578Y-39008422D01*
X67152098Y-39033469D01*
X67243393Y-39108393D01*
X67291803Y-39134269D01*
X67382372Y-39182679D01*
X67533173Y-39228424D01*
X67650707Y-39240000D01*
X67650716Y-39240000D01*
X67689999Y-39243869D01*
X67729282Y-39240000D01*
X69428630Y-39240000D01*
X71520001Y-41331371D01*
X71520000Y-71237001D01*
X71400884Y-71415271D01*
X71314194Y-71624557D01*
X71270000Y-71846735D01*
X71270000Y-72073265D01*
X71314194Y-72295443D01*
X71400884Y-72504729D01*
X71526737Y-72693082D01*
X71686918Y-72853263D01*
X71875271Y-72979116D01*
X72084557Y-73065806D01*
X72306735Y-73110000D01*
X72533265Y-73110000D01*
X72755443Y-73065806D01*
X72964729Y-72979116D01*
X73153082Y-72853263D01*
X73313263Y-72693082D01*
X73439116Y-72504729D01*
X73525806Y-72295443D01*
X73570000Y-72073265D01*
X73570000Y-71846735D01*
X73810000Y-71846735D01*
X73810000Y-72073265D01*
X73854194Y-72295443D01*
X73940884Y-72504729D01*
X74066737Y-72693082D01*
X74226918Y-72853263D01*
X74415271Y-72979116D01*
X74624557Y-73065806D01*
X74846735Y-73110000D01*
X75073265Y-73110000D01*
X75295443Y-73065806D01*
X75504729Y-72979116D01*
X75693082Y-72853263D01*
X75853263Y-72693082D01*
X75979116Y-72504729D01*
X76065806Y-72295443D01*
X76110000Y-72073265D01*
X76110000Y-71846735D01*
X76350000Y-71846735D01*
X76350000Y-72073265D01*
X76394194Y-72295443D01*
X76480884Y-72504729D01*
X76606737Y-72693082D01*
X76766918Y-72853263D01*
X76955271Y-72979116D01*
X77164557Y-73065806D01*
X77386735Y-73110000D01*
X77613265Y-73110000D01*
X77835443Y-73065806D01*
X78044729Y-72979116D01*
X78233082Y-72853263D01*
X78393263Y-72693082D01*
X78519116Y-72504729D01*
X78605806Y-72295443D01*
X78650000Y-72073265D01*
X78650000Y-71846735D01*
X78890000Y-71846735D01*
X78890000Y-72073265D01*
X78934194Y-72295443D01*
X79020884Y-72504729D01*
X79146737Y-72693082D01*
X79306918Y-72853263D01*
X79495271Y-72979116D01*
X79704557Y-73065806D01*
X79926735Y-73110000D01*
X80153265Y-73110000D01*
X80375443Y-73065806D01*
X80584729Y-72979116D01*
X80773082Y-72853263D01*
X80933263Y-72693082D01*
X81059116Y-72504729D01*
X81145806Y-72295443D01*
X81190000Y-72073265D01*
X81190000Y-71846735D01*
X81145806Y-71624557D01*
X81059116Y-71415271D01*
X80933263Y-71226918D01*
X80840000Y-71133655D01*
X80840000Y-71110000D01*
X81428549Y-71110000D01*
X81428549Y-72810000D01*
X81434341Y-72868810D01*
X81451496Y-72925360D01*
X81479353Y-72977477D01*
X81516842Y-73023158D01*
X81562523Y-73060647D01*
X81614640Y-73088504D01*
X81671190Y-73105659D01*
X81730000Y-73111451D01*
X83430000Y-73111451D01*
X83488810Y-73105659D01*
X83545360Y-73088504D01*
X83597477Y-73060647D01*
X83643158Y-73023158D01*
X83680647Y-72977477D01*
X83708504Y-72925360D01*
X83725659Y-72868810D01*
X83731451Y-72810000D01*
X83731451Y-71110000D01*
X83725659Y-71051190D01*
X83708504Y-70994640D01*
X83680647Y-70942523D01*
X83643158Y-70896842D01*
X83597477Y-70859353D01*
X83545360Y-70831496D01*
X83488810Y-70814341D01*
X83430000Y-70808549D01*
X81730000Y-70808549D01*
X81671190Y-70814341D01*
X81614640Y-70831496D01*
X81562523Y-70859353D01*
X81516842Y-70896842D01*
X81479353Y-70942523D01*
X81451496Y-70994640D01*
X81434341Y-71051190D01*
X81428549Y-71110000D01*
X80840000Y-71110000D01*
X80840000Y-45299293D01*
X80843870Y-45260002D01*
X80837079Y-45191056D01*
X80828424Y-45103175D01*
X80782679Y-44952374D01*
X80708393Y-44813396D01*
X80608422Y-44691580D01*
X80486606Y-44591609D01*
X80486604Y-44591607D01*
X80347625Y-44517321D01*
X80196825Y-44471577D01*
X80039998Y-44456130D01*
X79883171Y-44471577D01*
X79732371Y-44517321D01*
X79593392Y-44591607D01*
X79471577Y-44691579D01*
X79371605Y-44813394D01*
X79297319Y-44952373D01*
X79251575Y-45103173D01*
X79236128Y-45260000D01*
X79240001Y-45299321D01*
X79240000Y-71133655D01*
X79146737Y-71226918D01*
X79020884Y-71415271D01*
X78934194Y-71624557D01*
X78890000Y-71846735D01*
X78650000Y-71846735D01*
X78605806Y-71624557D01*
X78519116Y-71415271D01*
X78393263Y-71226918D01*
X78260000Y-71093655D01*
X78260000Y-41731370D01*
X84071371Y-35920000D01*
X84203265Y-35920000D01*
X84425443Y-35875806D01*
X84634729Y-35789116D01*
X84823082Y-35663263D01*
X84983263Y-35503082D01*
X85109116Y-35314729D01*
X85192972Y-35112284D01*
X85427770Y-35112284D01*
X85517647Y-35340251D01*
X85650271Y-35546303D01*
X85820545Y-35722522D01*
X86021926Y-35862136D01*
X86246675Y-35959780D01*
X86287717Y-35972223D01*
X86480000Y-35910175D01*
X86480000Y-34920000D01*
X86780000Y-34920000D01*
X86780000Y-35910175D01*
X86972283Y-35972223D01*
X87013325Y-35959780D01*
X87238074Y-35862136D01*
X87439455Y-35722522D01*
X87609729Y-35546303D01*
X87742353Y-35340251D01*
X87832230Y-35112284D01*
X87770974Y-34920000D01*
X86780000Y-34920000D01*
X86480000Y-34920000D01*
X85489026Y-34920000D01*
X85427770Y-35112284D01*
X85192972Y-35112284D01*
X85195806Y-35105443D01*
X85240000Y-34883265D01*
X85240000Y-34656735D01*
X85195806Y-34434557D01*
X85192973Y-34427716D01*
X85427770Y-34427716D01*
X85489026Y-34620000D01*
X86480000Y-34620000D01*
X86480000Y-33629825D01*
X86780000Y-33629825D01*
X86780000Y-34620000D01*
X87770974Y-34620000D01*
X87832230Y-34427716D01*
X87742353Y-34199749D01*
X87609729Y-33993697D01*
X87439455Y-33817478D01*
X87238074Y-33677864D01*
X87013325Y-33580220D01*
X86972283Y-33567777D01*
X86780000Y-33629825D01*
X86480000Y-33629825D01*
X86287717Y-33567777D01*
X86246675Y-33580220D01*
X86021926Y-33677864D01*
X85820545Y-33817478D01*
X85650271Y-33993697D01*
X85517647Y-34199749D01*
X85427770Y-34427716D01*
X85192973Y-34427716D01*
X85109116Y-34225271D01*
X84983263Y-34036918D01*
X84823082Y-33876737D01*
X84634729Y-33750884D01*
X84425443Y-33664194D01*
X84203265Y-33620000D01*
X83976735Y-33620000D01*
X83754557Y-33664194D01*
X83545271Y-33750884D01*
X83356918Y-33876737D01*
X83196737Y-34036918D01*
X83070884Y-34225271D01*
X82984194Y-34434557D01*
X82940000Y-34656735D01*
X82940000Y-34788629D01*
X82663906Y-35064724D01*
X82700000Y-34883265D01*
X82700000Y-34656735D01*
X82655806Y-34434557D01*
X82569116Y-34225271D01*
X82443263Y-34036918D01*
X82283082Y-33876737D01*
X82094729Y-33750884D01*
X81885443Y-33664194D01*
X81663265Y-33620000D01*
X81436735Y-33620000D01*
X81214557Y-33664194D01*
X81005271Y-33750884D01*
X80816918Y-33876737D01*
X80656737Y-34036918D01*
X80530884Y-34225271D01*
X80444194Y-34434557D01*
X80400000Y-34656735D01*
X80400000Y-34883265D01*
X80444194Y-35105443D01*
X80530884Y-35314729D01*
X80656737Y-35503082D01*
X80816918Y-35663263D01*
X81005271Y-35789116D01*
X81214557Y-35875806D01*
X81436735Y-35920000D01*
X81663265Y-35920000D01*
X81844724Y-35883906D01*
X76922098Y-40806532D01*
X76891579Y-40831578D01*
X76866532Y-40862098D01*
X76866531Y-40862099D01*
X76791607Y-40953394D01*
X76717321Y-41092373D01*
X76671577Y-41243173D01*
X76656130Y-41400000D01*
X76660001Y-41439301D01*
X76660000Y-71173655D01*
X76606737Y-71226918D01*
X76480884Y-71415271D01*
X76394194Y-71624557D01*
X76350000Y-71846735D01*
X76110000Y-71846735D01*
X76065806Y-71624557D01*
X75979116Y-71415271D01*
X75853263Y-71226918D01*
X75760000Y-71133655D01*
X75760000Y-47289293D01*
X75763870Y-47250002D01*
X75760000Y-47210709D01*
X75748424Y-47093175D01*
X75702679Y-46942374D01*
X75628393Y-46803396D01*
X75528422Y-46681580D01*
X75497897Y-46656529D01*
X75487899Y-46646531D01*
X75396604Y-46571607D01*
X75257625Y-46497321D01*
X75106825Y-46451577D01*
X74949998Y-46436130D01*
X74793171Y-46451577D01*
X74642371Y-46497321D01*
X74503392Y-46571607D01*
X74381577Y-46671579D01*
X74281605Y-46793394D01*
X74207319Y-46932373D01*
X74161575Y-47083173D01*
X74146128Y-47240000D01*
X74160001Y-47380847D01*
X74160000Y-71133655D01*
X74066737Y-71226918D01*
X73940884Y-71415271D01*
X73854194Y-71624557D01*
X73810000Y-71846735D01*
X73570000Y-71846735D01*
X73525806Y-71624557D01*
X73439116Y-71415271D01*
X73313263Y-71226918D01*
X73153082Y-71066737D01*
X73120000Y-71044632D01*
X73120000Y-41039291D01*
X73123870Y-41000000D01*
X73120000Y-40960707D01*
X73108424Y-40843173D01*
X73062679Y-40692372D01*
X73020338Y-40613158D01*
X72988393Y-40553393D01*
X72948869Y-40505233D01*
X72888422Y-40431578D01*
X72857897Y-40406527D01*
X70353473Y-37902103D01*
X70328422Y-37871578D01*
X70206606Y-37771607D01*
X70067628Y-37697321D01*
X69916827Y-37651576D01*
X69799293Y-37640000D01*
X69799291Y-37640000D01*
X69760000Y-37636130D01*
X69720709Y-37640000D01*
X68021371Y-37640000D01*
X66301370Y-35920000D01*
X66423265Y-35920000D01*
X66645443Y-35875806D01*
X66854729Y-35789116D01*
X67043082Y-35663263D01*
X67203263Y-35503082D01*
X67329116Y-35314729D01*
X67412972Y-35112284D01*
X67647770Y-35112284D01*
X67737647Y-35340251D01*
X67870271Y-35546303D01*
X68040545Y-35722522D01*
X68241926Y-35862136D01*
X68466675Y-35959780D01*
X68507717Y-35972223D01*
X68700000Y-35910175D01*
X68700000Y-34920000D01*
X69000000Y-34920000D01*
X69000000Y-35910175D01*
X69192283Y-35972223D01*
X69233325Y-35959780D01*
X69458074Y-35862136D01*
X69659455Y-35722522D01*
X69829729Y-35546303D01*
X69962353Y-35340251D01*
X70052230Y-35112284D01*
X69990974Y-34920000D01*
X69000000Y-34920000D01*
X68700000Y-34920000D01*
X67709026Y-34920000D01*
X67647770Y-35112284D01*
X67412972Y-35112284D01*
X67415806Y-35105443D01*
X67460000Y-34883265D01*
X67460000Y-34656735D01*
X70240000Y-34656735D01*
X70240000Y-34883265D01*
X70284194Y-35105443D01*
X70370884Y-35314729D01*
X70496737Y-35503082D01*
X70656918Y-35663263D01*
X70845271Y-35789116D01*
X71054557Y-35875806D01*
X71276735Y-35920000D01*
X71503265Y-35920000D01*
X71725443Y-35875806D01*
X71934729Y-35789116D01*
X72123082Y-35663263D01*
X72283263Y-35503082D01*
X72409116Y-35314729D01*
X72495806Y-35105443D01*
X72540000Y-34883265D01*
X72540000Y-34656735D01*
X72780000Y-34656735D01*
X72780000Y-34883265D01*
X72824194Y-35105443D01*
X72910884Y-35314729D01*
X73036737Y-35503082D01*
X73196918Y-35663263D01*
X73385271Y-35789116D01*
X73594557Y-35875806D01*
X73816735Y-35920000D01*
X74043265Y-35920000D01*
X74265443Y-35875806D01*
X74474729Y-35789116D01*
X74663082Y-35663263D01*
X74823263Y-35503082D01*
X74949116Y-35314729D01*
X75035806Y-35105443D01*
X75080000Y-34883265D01*
X75080000Y-34656735D01*
X75320000Y-34656735D01*
X75320000Y-34883265D01*
X75364194Y-35105443D01*
X75450884Y-35314729D01*
X75576737Y-35503082D01*
X75736918Y-35663263D01*
X75925271Y-35789116D01*
X76134557Y-35875806D01*
X76356735Y-35920000D01*
X76583265Y-35920000D01*
X76805443Y-35875806D01*
X77014729Y-35789116D01*
X77203082Y-35663263D01*
X77363263Y-35503082D01*
X77489116Y-35314729D01*
X77575806Y-35105443D01*
X77620000Y-34883265D01*
X77620000Y-34656735D01*
X77860000Y-34656735D01*
X77860000Y-34883265D01*
X77904194Y-35105443D01*
X77990884Y-35314729D01*
X78116737Y-35503082D01*
X78276918Y-35663263D01*
X78465271Y-35789116D01*
X78674557Y-35875806D01*
X78896735Y-35920000D01*
X79123265Y-35920000D01*
X79345443Y-35875806D01*
X79554729Y-35789116D01*
X79743082Y-35663263D01*
X79903263Y-35503082D01*
X80029116Y-35314729D01*
X80115806Y-35105443D01*
X80160000Y-34883265D01*
X80160000Y-34656735D01*
X80115806Y-34434557D01*
X80029116Y-34225271D01*
X79903263Y-34036918D01*
X79743082Y-33876737D01*
X79554729Y-33750884D01*
X79345443Y-33664194D01*
X79123265Y-33620000D01*
X78896735Y-33620000D01*
X78674557Y-33664194D01*
X78465271Y-33750884D01*
X78276918Y-33876737D01*
X78116737Y-34036918D01*
X77990884Y-34225271D01*
X77904194Y-34434557D01*
X77860000Y-34656735D01*
X77620000Y-34656735D01*
X77575806Y-34434557D01*
X77489116Y-34225271D01*
X77363263Y-34036918D01*
X77203082Y-33876737D01*
X77014729Y-33750884D01*
X76805443Y-33664194D01*
X76583265Y-33620000D01*
X76356735Y-33620000D01*
X76134557Y-33664194D01*
X75925271Y-33750884D01*
X75736918Y-33876737D01*
X75576737Y-34036918D01*
X75450884Y-34225271D01*
X75364194Y-34434557D01*
X75320000Y-34656735D01*
X75080000Y-34656735D01*
X75035806Y-34434557D01*
X74949116Y-34225271D01*
X74823263Y-34036918D01*
X74663082Y-33876737D01*
X74474729Y-33750884D01*
X74265443Y-33664194D01*
X74043265Y-33620000D01*
X73816735Y-33620000D01*
X73594557Y-33664194D01*
X73385271Y-33750884D01*
X73196918Y-33876737D01*
X73036737Y-34036918D01*
X72910884Y-34225271D01*
X72824194Y-34434557D01*
X72780000Y-34656735D01*
X72540000Y-34656735D01*
X72495806Y-34434557D01*
X72409116Y-34225271D01*
X72283263Y-34036918D01*
X72123082Y-33876737D01*
X71934729Y-33750884D01*
X71725443Y-33664194D01*
X71503265Y-33620000D01*
X71276735Y-33620000D01*
X71054557Y-33664194D01*
X70845271Y-33750884D01*
X70656918Y-33876737D01*
X70496737Y-34036918D01*
X70370884Y-34225271D01*
X70284194Y-34434557D01*
X70240000Y-34656735D01*
X67460000Y-34656735D01*
X67415806Y-34434557D01*
X67412973Y-34427716D01*
X67647770Y-34427716D01*
X67709026Y-34620000D01*
X68700000Y-34620000D01*
X68700000Y-33629825D01*
X69000000Y-33629825D01*
X69000000Y-34620000D01*
X69990974Y-34620000D01*
X70052230Y-34427716D01*
X69962353Y-34199749D01*
X69829729Y-33993697D01*
X69659455Y-33817478D01*
X69458074Y-33677864D01*
X69233325Y-33580220D01*
X69192283Y-33567777D01*
X69000000Y-33629825D01*
X68700000Y-33629825D01*
X68507717Y-33567777D01*
X68466675Y-33580220D01*
X68241926Y-33677864D01*
X68040545Y-33817478D01*
X67870271Y-33993697D01*
X67737647Y-34199749D01*
X67647770Y-34427716D01*
X67412973Y-34427716D01*
X67329116Y-34225271D01*
X67203263Y-34036918D01*
X67043082Y-33876737D01*
X66854729Y-33750884D01*
X66645443Y-33664194D01*
X66423265Y-33620000D01*
X66196735Y-33620000D01*
X65974557Y-33664194D01*
X65765271Y-33750884D01*
X65576918Y-33876737D01*
X65420001Y-34033654D01*
X65420001Y-33452095D01*
X65422177Y-33430001D01*
X65420001Y-33407907D01*
X65420001Y-33407896D01*
X65413490Y-33341786D01*
X65387758Y-33256960D01*
X65367352Y-33218783D01*
X65345972Y-33178784D01*
X65303829Y-33127433D01*
X65303825Y-33127429D01*
X65289738Y-33110264D01*
X65272574Y-33096178D01*
X64836568Y-32660172D01*
X64875806Y-32565443D01*
X64920000Y-32343265D01*
X64920000Y-32116735D01*
X65160000Y-32116735D01*
X65160000Y-32343265D01*
X65204194Y-32565443D01*
X65290884Y-32774729D01*
X65416737Y-32963082D01*
X65576918Y-33123263D01*
X65765271Y-33249116D01*
X65974557Y-33335806D01*
X66196735Y-33380000D01*
X66423265Y-33380000D01*
X66645443Y-33335806D01*
X66854729Y-33249116D01*
X67043082Y-33123263D01*
X67203263Y-32963082D01*
X67329116Y-32774729D01*
X67415806Y-32565443D01*
X67460000Y-32343265D01*
X67460000Y-32116735D01*
X67700000Y-32116735D01*
X67700000Y-32343265D01*
X67744194Y-32565443D01*
X67830884Y-32774729D01*
X67956737Y-32963082D01*
X68116918Y-33123263D01*
X68305271Y-33249116D01*
X68514557Y-33335806D01*
X68736735Y-33380000D01*
X68963265Y-33380000D01*
X69185443Y-33335806D01*
X69394729Y-33249116D01*
X69583082Y-33123263D01*
X69743263Y-32963082D01*
X69869116Y-32774729D01*
X69955806Y-32565443D01*
X70000000Y-32343265D01*
X70000000Y-32116735D01*
X70240000Y-32116735D01*
X70240000Y-32343265D01*
X70284194Y-32565443D01*
X70370884Y-32774729D01*
X70496737Y-32963082D01*
X70656918Y-33123263D01*
X70845271Y-33249116D01*
X71054557Y-33335806D01*
X71276735Y-33380000D01*
X71503265Y-33380000D01*
X71725443Y-33335806D01*
X71934729Y-33249116D01*
X72123082Y-33123263D01*
X72283263Y-32963082D01*
X72409116Y-32774729D01*
X72492972Y-32572284D01*
X72727770Y-32572284D01*
X72817647Y-32800251D01*
X72950271Y-33006303D01*
X73120545Y-33182522D01*
X73321926Y-33322136D01*
X73546675Y-33419780D01*
X73587717Y-33432223D01*
X73780000Y-33370175D01*
X73780000Y-32380000D01*
X74080000Y-32380000D01*
X74080000Y-33370175D01*
X74272283Y-33432223D01*
X74313325Y-33419780D01*
X74538074Y-33322136D01*
X74739455Y-33182522D01*
X74909729Y-33006303D01*
X75042353Y-32800251D01*
X75132230Y-32572284D01*
X75070974Y-32380000D01*
X74080000Y-32380000D01*
X73780000Y-32380000D01*
X72789026Y-32380000D01*
X72727770Y-32572284D01*
X72492972Y-32572284D01*
X72495806Y-32565443D01*
X72540000Y-32343265D01*
X72540000Y-32116735D01*
X75320000Y-32116735D01*
X75320000Y-32343265D01*
X75364194Y-32565443D01*
X75450884Y-32774729D01*
X75576737Y-32963082D01*
X75736918Y-33123263D01*
X75925271Y-33249116D01*
X76134557Y-33335806D01*
X76356735Y-33380000D01*
X76583265Y-33380000D01*
X76805443Y-33335806D01*
X77014729Y-33249116D01*
X77203082Y-33123263D01*
X77363263Y-32963082D01*
X77489116Y-32774729D01*
X77572972Y-32572284D01*
X77807770Y-32572284D01*
X77897647Y-32800251D01*
X78030271Y-33006303D01*
X78200545Y-33182522D01*
X78401926Y-33322136D01*
X78626675Y-33419780D01*
X78667717Y-33432223D01*
X78860000Y-33370175D01*
X78860000Y-32380000D01*
X79160000Y-32380000D01*
X79160000Y-33370175D01*
X79352283Y-33432223D01*
X79393325Y-33419780D01*
X79618074Y-33322136D01*
X79819455Y-33182522D01*
X79989729Y-33006303D01*
X80122353Y-32800251D01*
X80212230Y-32572284D01*
X80150974Y-32380000D01*
X79160000Y-32380000D01*
X78860000Y-32380000D01*
X77869026Y-32380000D01*
X77807770Y-32572284D01*
X77572972Y-32572284D01*
X77575806Y-32565443D01*
X77620000Y-32343265D01*
X77620000Y-32116735D01*
X80400000Y-32116735D01*
X80400000Y-32343265D01*
X80444194Y-32565443D01*
X80530884Y-32774729D01*
X80656737Y-32963082D01*
X80816918Y-33123263D01*
X81005271Y-33249116D01*
X81214557Y-33335806D01*
X81436735Y-33380000D01*
X81663265Y-33380000D01*
X81885443Y-33335806D01*
X82094729Y-33249116D01*
X82283082Y-33123263D01*
X82443263Y-32963082D01*
X82569116Y-32774729D01*
X82655806Y-32565443D01*
X82700000Y-32343265D01*
X82700000Y-32116735D01*
X82940000Y-32116735D01*
X82940000Y-32343265D01*
X82984194Y-32565443D01*
X83070884Y-32774729D01*
X83196737Y-32963082D01*
X83356918Y-33123263D01*
X83545271Y-33249116D01*
X83754557Y-33335806D01*
X83976735Y-33380000D01*
X84203265Y-33380000D01*
X84425443Y-33335806D01*
X84634729Y-33249116D01*
X84823082Y-33123263D01*
X84983263Y-32963082D01*
X85109116Y-32774729D01*
X85195806Y-32565443D01*
X85240000Y-32343265D01*
X85240000Y-32116735D01*
X85480000Y-32116735D01*
X85480000Y-32343265D01*
X85524194Y-32565443D01*
X85610884Y-32774729D01*
X85736737Y-32963082D01*
X85896918Y-33123263D01*
X86085271Y-33249116D01*
X86294557Y-33335806D01*
X86516735Y-33380000D01*
X86743265Y-33380000D01*
X86965443Y-33335806D01*
X87174729Y-33249116D01*
X87363082Y-33123263D01*
X87523263Y-32963082D01*
X87649116Y-32774729D01*
X87735806Y-32565443D01*
X87780000Y-32343265D01*
X87780000Y-32116735D01*
X87735806Y-31894557D01*
X87649116Y-31685271D01*
X87523263Y-31496918D01*
X87363082Y-31336737D01*
X87174729Y-31210884D01*
X86965443Y-31124194D01*
X86743265Y-31080000D01*
X86516735Y-31080000D01*
X86294557Y-31124194D01*
X86085271Y-31210884D01*
X85896918Y-31336737D01*
X85736737Y-31496918D01*
X85610884Y-31685271D01*
X85524194Y-31894557D01*
X85480000Y-32116735D01*
X85240000Y-32116735D01*
X85195806Y-31894557D01*
X85109116Y-31685271D01*
X84983263Y-31496918D01*
X84823082Y-31336737D01*
X84634729Y-31210884D01*
X84425443Y-31124194D01*
X84203265Y-31080000D01*
X83976735Y-31080000D01*
X83754557Y-31124194D01*
X83545271Y-31210884D01*
X83356918Y-31336737D01*
X83196737Y-31496918D01*
X83070884Y-31685271D01*
X82984194Y-31894557D01*
X82940000Y-32116735D01*
X82700000Y-32116735D01*
X82655806Y-31894557D01*
X82569116Y-31685271D01*
X82443263Y-31496918D01*
X82283082Y-31336737D01*
X82094729Y-31210884D01*
X81885443Y-31124194D01*
X81663265Y-31080000D01*
X81436735Y-31080000D01*
X81214557Y-31124194D01*
X81005271Y-31210884D01*
X80816918Y-31336737D01*
X80656737Y-31496918D01*
X80530884Y-31685271D01*
X80444194Y-31894557D01*
X80400000Y-32116735D01*
X77620000Y-32116735D01*
X77575806Y-31894557D01*
X77572973Y-31887716D01*
X77807770Y-31887716D01*
X77869026Y-32080000D01*
X78860000Y-32080000D01*
X78860000Y-31089825D01*
X79160000Y-31089825D01*
X79160000Y-32080000D01*
X80150974Y-32080000D01*
X80212230Y-31887716D01*
X80122353Y-31659749D01*
X79989729Y-31453697D01*
X79819455Y-31277478D01*
X79618074Y-31137864D01*
X79393325Y-31040220D01*
X79352283Y-31027777D01*
X79160000Y-31089825D01*
X78860000Y-31089825D01*
X78667717Y-31027777D01*
X78626675Y-31040220D01*
X78401926Y-31137864D01*
X78200545Y-31277478D01*
X78030271Y-31453697D01*
X77897647Y-31659749D01*
X77807770Y-31887716D01*
X77572973Y-31887716D01*
X77489116Y-31685271D01*
X77363263Y-31496918D01*
X77203082Y-31336737D01*
X77014729Y-31210884D01*
X76805443Y-31124194D01*
X76583265Y-31080000D01*
X76356735Y-31080000D01*
X76134557Y-31124194D01*
X75925271Y-31210884D01*
X75736918Y-31336737D01*
X75576737Y-31496918D01*
X75450884Y-31685271D01*
X75364194Y-31894557D01*
X75320000Y-32116735D01*
X72540000Y-32116735D01*
X72495806Y-31894557D01*
X72492973Y-31887716D01*
X72727770Y-31887716D01*
X72789026Y-32080000D01*
X73780000Y-32080000D01*
X73780000Y-31089825D01*
X74080000Y-31089825D01*
X74080000Y-32080000D01*
X75070974Y-32080000D01*
X75132230Y-31887716D01*
X75042353Y-31659749D01*
X74909729Y-31453697D01*
X74739455Y-31277478D01*
X74538074Y-31137864D01*
X74313325Y-31040220D01*
X74272283Y-31027777D01*
X74080000Y-31089825D01*
X73780000Y-31089825D01*
X73587717Y-31027777D01*
X73546675Y-31040220D01*
X73321926Y-31137864D01*
X73120545Y-31277478D01*
X72950271Y-31453697D01*
X72817647Y-31659749D01*
X72727770Y-31887716D01*
X72492973Y-31887716D01*
X72409116Y-31685271D01*
X72283263Y-31496918D01*
X72123082Y-31336737D01*
X71934729Y-31210884D01*
X71725443Y-31124194D01*
X71503265Y-31080000D01*
X71276735Y-31080000D01*
X71054557Y-31124194D01*
X70845271Y-31210884D01*
X70656918Y-31336737D01*
X70496737Y-31496918D01*
X70370884Y-31685271D01*
X70284194Y-31894557D01*
X70240000Y-32116735D01*
X70000000Y-32116735D01*
X69955806Y-31894557D01*
X69869116Y-31685271D01*
X69743263Y-31496918D01*
X69583082Y-31336737D01*
X69394729Y-31210884D01*
X69185443Y-31124194D01*
X68963265Y-31080000D01*
X68736735Y-31080000D01*
X68514557Y-31124194D01*
X68305271Y-31210884D01*
X68116918Y-31336737D01*
X67956737Y-31496918D01*
X67830884Y-31685271D01*
X67744194Y-31894557D01*
X67700000Y-32116735D01*
X67460000Y-32116735D01*
X67415806Y-31894557D01*
X67329116Y-31685271D01*
X67203263Y-31496918D01*
X67043082Y-31336737D01*
X66854729Y-31210884D01*
X66645443Y-31124194D01*
X66423265Y-31080000D01*
X66196735Y-31080000D01*
X65974557Y-31124194D01*
X65765271Y-31210884D01*
X65576918Y-31336737D01*
X65416737Y-31496918D01*
X65290884Y-31685271D01*
X65204194Y-31894557D01*
X65160000Y-32116735D01*
X64920000Y-32116735D01*
X64875806Y-31894557D01*
X64789116Y-31685271D01*
X64663263Y-31496918D01*
X64503082Y-31336737D01*
X64314729Y-31210884D01*
X64105443Y-31124194D01*
X63883265Y-31080000D01*
X63656735Y-31080000D01*
X63434557Y-31124194D01*
X63225271Y-31210884D01*
X63036918Y-31336737D01*
X62876737Y-31496918D01*
X62750884Y-31685271D01*
X62664194Y-31894557D01*
X62620000Y-32116735D01*
X59840000Y-32116735D01*
X59795806Y-31894557D01*
X59792973Y-31887716D01*
X60027770Y-31887716D01*
X60089026Y-32080000D01*
X61080000Y-32080000D01*
X61080000Y-31089825D01*
X61380000Y-31089825D01*
X61380000Y-32080000D01*
X62370974Y-32080000D01*
X62432230Y-31887716D01*
X62342353Y-31659749D01*
X62209729Y-31453697D01*
X62039455Y-31277478D01*
X61838074Y-31137864D01*
X61613325Y-31040220D01*
X61572283Y-31027777D01*
X61380000Y-31089825D01*
X61080000Y-31089825D01*
X60887717Y-31027777D01*
X60846675Y-31040220D01*
X60621926Y-31137864D01*
X60420545Y-31277478D01*
X60250271Y-31453697D01*
X60117647Y-31659749D01*
X60027770Y-31887716D01*
X59792973Y-31887716D01*
X59709116Y-31685271D01*
X59583263Y-31496918D01*
X59423082Y-31336737D01*
X59234729Y-31210884D01*
X59025443Y-31124194D01*
X58803265Y-31080000D01*
X58576735Y-31080000D01*
X58354557Y-31124194D01*
X58145271Y-31210884D01*
X57956918Y-31336737D01*
X57796737Y-31496918D01*
X57670884Y-31685271D01*
X57584194Y-31894557D01*
X57540000Y-32116735D01*
X57300000Y-32116735D01*
X57255806Y-31894557D01*
X57169116Y-31685271D01*
X57043263Y-31496918D01*
X56883082Y-31336737D01*
X56694729Y-31210884D01*
X56485443Y-31124194D01*
X56263265Y-31080000D01*
X56036735Y-31080000D01*
X55814557Y-31124194D01*
X55605271Y-31210884D01*
X55416918Y-31336737D01*
X55256737Y-31496918D01*
X55130884Y-31685271D01*
X55044194Y-31894557D01*
X55000000Y-32116735D01*
X52220000Y-32116735D01*
X52175806Y-31894557D01*
X52172973Y-31887716D01*
X52407770Y-31887716D01*
X52469026Y-32080000D01*
X53460000Y-32080000D01*
X53460000Y-31089825D01*
X53760000Y-31089825D01*
X53760000Y-32080000D01*
X54750974Y-32080000D01*
X54812230Y-31887716D01*
X54722353Y-31659749D01*
X54589729Y-31453697D01*
X54419455Y-31277478D01*
X54218074Y-31137864D01*
X53993325Y-31040220D01*
X53952283Y-31027777D01*
X53760000Y-31089825D01*
X53460000Y-31089825D01*
X53267717Y-31027777D01*
X53226675Y-31040220D01*
X53001926Y-31137864D01*
X52800545Y-31277478D01*
X52630271Y-31453697D01*
X52497647Y-31659749D01*
X52407770Y-31887716D01*
X52172973Y-31887716D01*
X52089116Y-31685271D01*
X51963263Y-31496918D01*
X51803082Y-31336737D01*
X51614729Y-31210884D01*
X51405443Y-31124194D01*
X51183265Y-31080000D01*
X50956735Y-31080000D01*
X50734557Y-31124194D01*
X50525271Y-31210884D01*
X50336918Y-31336737D01*
X50176737Y-31496918D01*
X50050884Y-31685271D01*
X49964194Y-31894557D01*
X49920000Y-32116735D01*
X49680000Y-32116735D01*
X49635806Y-31894557D01*
X49549116Y-31685271D01*
X49423263Y-31496918D01*
X49263082Y-31336737D01*
X49074729Y-31210884D01*
X48865443Y-31124194D01*
X48643265Y-31080000D01*
X48416735Y-31080000D01*
X48194557Y-31124194D01*
X47985271Y-31210884D01*
X47796918Y-31336737D01*
X47636737Y-31496918D01*
X47510884Y-31685271D01*
X47424194Y-31894557D01*
X47380000Y-32116735D01*
X47380000Y-32343265D01*
X47424194Y-32565443D01*
X47510884Y-32774729D01*
X47636737Y-32963082D01*
X47796918Y-33123263D01*
X47985271Y-33249116D01*
X48194557Y-33335806D01*
X48416735Y-33380000D01*
X48643265Y-33380000D01*
X48865443Y-33335806D01*
X48960172Y-33296568D01*
X49320000Y-33656396D01*
X49320000Y-33803990D01*
X49138074Y-33677864D01*
X48913325Y-33580220D01*
X48872283Y-33567777D01*
X48680000Y-33629825D01*
X48680000Y-34620000D01*
X48700000Y-34620000D01*
X48700000Y-34920000D01*
X48680000Y-34920000D01*
X48680000Y-35910175D01*
X48872283Y-35972223D01*
X48913325Y-35959780D01*
X48970001Y-35935157D01*
X48970000Y-40230709D01*
X48966130Y-40270000D01*
X48970000Y-40309291D01*
X48970000Y-40309292D01*
X48981576Y-40426826D01*
X48992276Y-40462099D01*
X49027321Y-40577627D01*
X49101607Y-40716606D01*
X49147151Y-40772101D01*
X49201578Y-40838422D01*
X49232103Y-40863473D01*
X54936549Y-46567920D01*
X54936549Y-47262000D01*
X54942341Y-47320810D01*
X54959496Y-47377360D01*
X54987353Y-47429477D01*
X55024842Y-47475158D01*
X55070523Y-47512647D01*
X55122640Y-47540504D01*
X55179190Y-47557659D01*
X55238000Y-47563451D01*
X55490094Y-47563451D01*
X55405462Y-47620000D01*
X54161371Y-47620000D01*
X48050000Y-41508630D01*
X48050000Y-35917779D01*
X48146675Y-35959780D01*
X48187717Y-35972223D01*
X48380000Y-35910175D01*
X48380000Y-34920000D01*
X48360000Y-34920000D01*
X48360000Y-34620000D01*
X48380000Y-34620000D01*
X48380000Y-33629825D01*
X48187717Y-33567777D01*
X48146675Y-33580220D01*
X47921926Y-33677864D01*
X47720545Y-33817478D01*
X47700000Y-33838740D01*
X47700000Y-33512094D01*
X47702176Y-33489999D01*
X47700000Y-33467905D01*
X47700000Y-33467895D01*
X47693489Y-33401785D01*
X47667757Y-33316959D01*
X47653445Y-33290184D01*
X47625971Y-33238783D01*
X47583828Y-33187432D01*
X47583824Y-33187428D01*
X47569737Y-33170263D01*
X47552573Y-33156177D01*
X47056568Y-32660172D01*
X47095806Y-32565443D01*
X47140000Y-32343265D01*
X47140000Y-32116735D01*
X47095806Y-31894557D01*
X47009116Y-31685271D01*
X46883263Y-31496918D01*
X46723082Y-31336737D01*
X46534729Y-31210884D01*
X46325443Y-31124194D01*
X46103265Y-31080000D01*
X45876735Y-31080000D01*
X45654557Y-31124194D01*
X45445271Y-31210884D01*
X45256918Y-31336737D01*
X45096737Y-31496918D01*
X44970884Y-31685271D01*
X44884194Y-31894557D01*
X44840000Y-32116735D01*
X44840000Y-32343265D01*
X44884194Y-32565443D01*
X44970884Y-32774729D01*
X45096737Y-32963082D01*
X45256918Y-33123263D01*
X45445271Y-33249116D01*
X45654557Y-33335806D01*
X45876735Y-33380000D01*
X46103265Y-33380000D01*
X46325443Y-33335806D01*
X46420172Y-33296568D01*
X46800000Y-33676396D01*
X46800000Y-33953655D01*
X46723082Y-33876737D01*
X46534729Y-33750884D01*
X46325443Y-33664194D01*
X46103265Y-33620000D01*
X45876735Y-33620000D01*
X45654557Y-33664194D01*
X45559828Y-33703432D01*
X45023827Y-33167432D01*
X45009737Y-33150263D01*
X44941216Y-33094029D01*
X44863041Y-33052243D01*
X44778215Y-33026511D01*
X44712105Y-33020000D01*
X44712094Y-33020000D01*
X44690000Y-33017824D01*
X44667906Y-33020000D01*
X44416494Y-33020000D01*
X44429729Y-33006303D01*
X44562353Y-32800251D01*
X44652230Y-32572284D01*
X44590974Y-32380000D01*
X43600000Y-32380000D01*
X43600000Y-32400000D01*
X43300000Y-32400000D01*
X43300000Y-32380000D01*
X42309026Y-32380000D01*
X42247770Y-32572284D01*
X42337647Y-32800251D01*
X42470271Y-33006303D01*
X42483506Y-33020000D01*
X41746345Y-33020000D01*
X41803263Y-32963082D01*
X41929116Y-32774729D01*
X42015806Y-32565443D01*
X42060000Y-32343265D01*
X42060000Y-32116735D01*
X42015806Y-31894557D01*
X42012973Y-31887716D01*
X42247770Y-31887716D01*
X42309026Y-32080000D01*
X43300000Y-32080000D01*
X43300000Y-31089825D01*
X43600000Y-31089825D01*
X43600000Y-32080000D01*
X44590974Y-32080000D01*
X44652230Y-31887716D01*
X44562353Y-31659749D01*
X44429729Y-31453697D01*
X44259455Y-31277478D01*
X44058074Y-31137864D01*
X43833325Y-31040220D01*
X43792283Y-31027777D01*
X43600000Y-31089825D01*
X43300000Y-31089825D01*
X43107717Y-31027777D01*
X43066675Y-31040220D01*
X42841926Y-31137864D01*
X42640545Y-31277478D01*
X42470271Y-31453697D01*
X42337647Y-31659749D01*
X42247770Y-31887716D01*
X42012973Y-31887716D01*
X41929116Y-31685271D01*
X41803263Y-31496918D01*
X41643082Y-31336737D01*
X41454729Y-31210884D01*
X41245443Y-31124194D01*
X41023265Y-31080000D01*
X40796735Y-31080000D01*
X40574557Y-31124194D01*
X40365271Y-31210884D01*
X40176918Y-31336737D01*
X40016737Y-31496918D01*
X39890884Y-31685271D01*
X39804194Y-31894557D01*
X39760000Y-32116735D01*
X39760000Y-32343265D01*
X39804194Y-32565443D01*
X39890884Y-32774729D01*
X40016737Y-32963082D01*
X40073655Y-33020000D01*
X39206345Y-33020000D01*
X39263263Y-32963082D01*
X39389116Y-32774729D01*
X39475806Y-32565443D01*
X39520000Y-32343265D01*
X39520000Y-32116735D01*
X39475806Y-31894557D01*
X39389116Y-31685271D01*
X39263263Y-31496918D01*
X39103082Y-31336737D01*
X38914729Y-31210884D01*
X38705443Y-31124194D01*
X38483265Y-31080000D01*
X38256735Y-31080000D01*
X38034557Y-31124194D01*
X37825271Y-31210884D01*
X37636918Y-31336737D01*
X37476737Y-31496918D01*
X37350884Y-31685271D01*
X37264194Y-31894557D01*
X37220000Y-32116735D01*
X37220000Y-32343265D01*
X37264194Y-32565443D01*
X37350884Y-32774729D01*
X37476737Y-32963082D01*
X37533655Y-33020000D01*
X37362092Y-33020000D01*
X37339997Y-33017824D01*
X37317903Y-33020000D01*
X37317893Y-33020000D01*
X37251783Y-33026511D01*
X37185853Y-33046511D01*
X37166957Y-33052243D01*
X37088781Y-33094029D01*
X37037430Y-33136172D01*
X37037426Y-33136176D01*
X37020261Y-33150263D01*
X37006174Y-33167428D01*
X36675000Y-33498603D01*
X36675000Y-33187290D01*
X36552986Y-32573887D01*
X36313648Y-31996074D01*
X35966183Y-31476056D01*
X35523944Y-31033817D01*
X35003926Y-30686352D01*
X34426113Y-30447014D01*
X33812710Y-30325000D01*
X91187290Y-30325000D01*
X90573887Y-30447014D01*
G37*
G04 #@! TD.AperFunction*
D22*
X60080000Y-34752152D02*
X60080000Y-34883265D01*
X60124194Y-35105443D01*
X60210884Y-35314729D01*
X60326435Y-35487663D01*
X60421032Y-35770000D01*
X59557758Y-35770000D01*
X59647637Y-35406739D01*
X59709116Y-35314729D01*
X59795806Y-35105443D01*
X59840000Y-34883265D01*
X59840000Y-34656735D01*
X59836972Y-34641510D01*
X59924458Y-34287919D01*
X60080000Y-34752152D01*
G04 #@! TA.AperFunction,Conductor*
D23*
G36*
X60080000Y-34752152D02*
G01*
X60080000Y-34883265D01*
X60124194Y-35105443D01*
X60210884Y-35314729D01*
X60326435Y-35487663D01*
X60421032Y-35770000D01*
X59557758Y-35770000D01*
X59647637Y-35406739D01*
X59709116Y-35314729D01*
X59795806Y-35105443D01*
X59840000Y-34883265D01*
X59840000Y-34656735D01*
X59836972Y-34641510D01*
X59924458Y-34287919D01*
X60080000Y-34752152D01*
G37*
G04 #@! TD.AperFunction*
D22*
X65160000Y-34778010D02*
X65160000Y-34883265D01*
X65204194Y-35105443D01*
X65290884Y-35314729D01*
X65389057Y-35461656D01*
X65499665Y-35791778D01*
X64636391Y-35791778D01*
X64734023Y-35397182D01*
X64789116Y-35314729D01*
X64875806Y-35105443D01*
X64920000Y-34883265D01*
X64920000Y-34656735D01*
X64918764Y-34650520D01*
X65003091Y-34309697D01*
X65160000Y-34778010D01*
G04 #@! TA.AperFunction,Conductor*
D23*
G36*
X65160000Y-34778010D02*
G01*
X65160000Y-34883265D01*
X65204194Y-35105443D01*
X65290884Y-35314729D01*
X65389057Y-35461656D01*
X65499665Y-35791778D01*
X64636391Y-35791778D01*
X64734023Y-35397182D01*
X64789116Y-35314729D01*
X64875806Y-35105443D01*
X64920000Y-34883265D01*
X64920000Y-34656735D01*
X64918764Y-34650520D01*
X65003091Y-34309697D01*
X65160000Y-34778010D01*
G37*
G04 #@! TD.AperFunction*
M02*
