G04 #@! TF.GenerationSoftware,KiCad,Pcbnew,(5.1.8-0-10_14)*
G04 #@! TF.CreationDate,2021-07-18T19:28:35+09:00*
G04 #@! TF.ProjectId,raspi3_debug_board,72617370-6933-45f6-9465-6275675f626f,rev?*
G04 #@! TF.SameCoordinates,Original*
G04 #@! TF.FileFunction,Soldermask,Bot*
G04 #@! TF.FilePolarity,Negative*
%FSLAX46Y46*%
G04 Gerber Fmt 4.6, Leading zero omitted, Abs format (unit mm)*
G04 Created by KiCad (PCBNEW (5.1.8-0-10_14)) date 2021-07-18 19:28:35*
%MOMM*%
%LPD*%
G01*
G04 APERTURE LIST*
%ADD10C,2.700000*%
%ADD11O,1.600000X1.600000*%
%ADD12C,1.600000*%
%ADD13O,1.700000X1.700000*%
%ADD14R,1.700000X1.700000*%
%ADD15C,1.524000*%
%ADD16R,1.524000X1.524000*%
%ADD17C,1.700000*%
%ADD18C,1.800000*%
%ADD19R,1.800000X1.800000*%
G04 APERTURE END LIST*
D10*
X33500000Y-82500000D03*
X91500000Y-82500000D03*
X91500000Y-33500000D03*
X33500000Y-33500000D03*
D11*
X34000000Y-45340000D03*
D12*
X34000000Y-55500000D03*
D13*
X38800000Y-75500000D03*
X41340000Y-75500000D03*
X43880000Y-75500000D03*
X46420000Y-75500000D03*
X48960000Y-75500000D03*
D14*
X51500000Y-75500000D03*
D13*
X86630000Y-32230000D03*
X86630000Y-34770000D03*
X84090000Y-32230000D03*
X84090000Y-34770000D03*
X81550000Y-32230000D03*
X81550000Y-34770000D03*
X79010000Y-32230000D03*
X79010000Y-34770000D03*
X76470000Y-32230000D03*
X76470000Y-34770000D03*
X73930000Y-32230000D03*
X73930000Y-34770000D03*
X71390000Y-32230000D03*
X71390000Y-34770000D03*
X68850000Y-32230000D03*
X68850000Y-34770000D03*
X66310000Y-32230000D03*
X66310000Y-34770000D03*
X63770000Y-32230000D03*
X63770000Y-34770000D03*
X61230000Y-32230000D03*
X61230000Y-34770000D03*
X58690000Y-32230000D03*
X58690000Y-34770000D03*
X56150000Y-32230000D03*
X56150000Y-34770000D03*
X53610000Y-32230000D03*
X53610000Y-34770000D03*
X51070000Y-32230000D03*
X51070000Y-34770000D03*
X48530000Y-32230000D03*
X48530000Y-34770000D03*
X45990000Y-32230000D03*
X45990000Y-34770000D03*
X43450000Y-32230000D03*
X43450000Y-34770000D03*
X40910000Y-32230000D03*
X40910000Y-34770000D03*
X38370000Y-32230000D03*
D14*
X38370000Y-34770000D03*
D15*
X56000000Y-52500000D03*
X56000000Y-50500000D03*
X56000000Y-48500000D03*
D16*
X56000000Y-46500000D03*
D17*
X59720000Y-74500000D03*
X59720000Y-71960000D03*
X62260000Y-74500000D03*
X62260000Y-71960000D03*
X64800000Y-74500000D03*
X64800000Y-71960000D03*
X67340000Y-74500000D03*
X67340000Y-71960000D03*
X69880000Y-74500000D03*
X69880000Y-71960000D03*
X72420000Y-74500000D03*
X72420000Y-71960000D03*
X74960000Y-74500000D03*
X74960000Y-71960000D03*
X77500000Y-74500000D03*
X77500000Y-71960000D03*
X80040000Y-74500000D03*
X80040000Y-71960000D03*
X82580000Y-74500000D03*
D14*
X82580000Y-71960000D03*
D18*
X34000000Y-42040000D03*
D19*
X34000000Y-39500000D03*
M02*
