G04 #@! TF.GenerationSoftware,KiCad,Pcbnew,(5.1.8-0-10_14)*
G04 #@! TF.CreationDate,2021-07-18T19:28:35+09:00*
G04 #@! TF.ProjectId,raspi3_debug_board,72617370-6933-45f6-9465-6275675f626f,rev?*
G04 #@! TF.SameCoordinates,Original*
G04 #@! TF.FileFunction,Legend,Top*
G04 #@! TF.FilePolarity,Positive*
%FSLAX46Y46*%
G04 Gerber Fmt 4.6, Leading zero omitted, Abs format (unit mm)*
G04 Created by KiCad (PCBNEW (5.1.8-0-10_14)) date 2021-07-18 19:28:35*
%MOMM*%
%LPD*%
G01*
G04 APERTURE LIST*
%ADD10C,0.150000*%
%ADD11C,0.300000*%
%ADD12C,0.120000*%
G04 APERTURE END LIST*
D10*
X66285714Y-69166666D02*
X66761904Y-69166666D01*
X66190476Y-69452380D02*
X66523809Y-68452380D01*
X66857142Y-69452380D01*
X67761904Y-69452380D02*
X67428571Y-68976190D01*
X67190476Y-69452380D02*
X67190476Y-68452380D01*
X67571428Y-68452380D01*
X67666666Y-68500000D01*
X67714285Y-68547619D01*
X67761904Y-68642857D01*
X67761904Y-68785714D01*
X67714285Y-68880952D01*
X67666666Y-68928571D01*
X67571428Y-68976190D01*
X67190476Y-68976190D01*
X68190476Y-69452380D02*
X68190476Y-68452380D01*
X68523809Y-69166666D01*
X68857142Y-68452380D01*
X68857142Y-69452380D01*
X70380952Y-68452380D02*
X70380952Y-69166666D01*
X70333333Y-69309523D01*
X70238095Y-69404761D01*
X70095238Y-69452380D01*
X70000000Y-69452380D01*
X70714285Y-68452380D02*
X71285714Y-68452380D01*
X71000000Y-69452380D02*
X71000000Y-68452380D01*
X71571428Y-69166666D02*
X72047619Y-69166666D01*
X71476190Y-69452380D02*
X71809523Y-68452380D01*
X72142857Y-69452380D01*
X73000000Y-68500000D02*
X72904761Y-68452380D01*
X72761904Y-68452380D01*
X72619047Y-68500000D01*
X72523809Y-68595238D01*
X72476190Y-68690476D01*
X72428571Y-68880952D01*
X72428571Y-69023809D01*
X72476190Y-69214285D01*
X72523809Y-69309523D01*
X72619047Y-69404761D01*
X72761904Y-69452380D01*
X72857142Y-69452380D01*
X73000000Y-69404761D01*
X73047619Y-69357142D01*
X73047619Y-69023809D01*
X72857142Y-69023809D01*
X74190476Y-68547619D02*
X74238095Y-68500000D01*
X74333333Y-68452380D01*
X74571428Y-68452380D01*
X74666666Y-68500000D01*
X74714285Y-68547619D01*
X74761904Y-68642857D01*
X74761904Y-68738095D01*
X74714285Y-68880952D01*
X74142857Y-69452380D01*
X74761904Y-69452380D01*
X75380952Y-68452380D02*
X75476190Y-68452380D01*
X75571428Y-68500000D01*
X75619047Y-68547619D01*
X75666666Y-68642857D01*
X75714285Y-68833333D01*
X75714285Y-69071428D01*
X75666666Y-69261904D01*
X75619047Y-69357142D01*
X75571428Y-69404761D01*
X75476190Y-69452380D01*
X75380952Y-69452380D01*
X75285714Y-69404761D01*
X75238095Y-69357142D01*
X75190476Y-69261904D01*
X75142857Y-69071428D01*
X75142857Y-68833333D01*
X75190476Y-68642857D01*
X75238095Y-68547619D01*
X75285714Y-68500000D01*
X75380952Y-68452380D01*
X41952380Y-72261904D02*
X41476190Y-72595238D01*
X41952380Y-72833333D02*
X40952380Y-72833333D01*
X40952380Y-72452380D01*
X41000000Y-72357142D01*
X41047619Y-72309523D01*
X41142857Y-72261904D01*
X41285714Y-72261904D01*
X41380952Y-72309523D01*
X41428571Y-72357142D01*
X41476190Y-72452380D01*
X41476190Y-72833333D01*
X40952380Y-71928571D02*
X41952380Y-71261904D01*
X40952380Y-71261904D02*
X41952380Y-71928571D01*
X41571428Y-70880952D02*
X41571428Y-70119047D01*
X41285714Y-69642857D02*
X41571428Y-68880952D01*
X41857142Y-69642857D01*
X40952380Y-68547619D02*
X40952380Y-67976190D01*
X41952380Y-68261904D02*
X40952380Y-68261904D01*
X40952380Y-67738095D02*
X41952380Y-67071428D01*
X40952380Y-67071428D02*
X41952380Y-67738095D01*
X43452380Y-72976190D02*
X43452380Y-72404761D01*
X44452380Y-72690476D02*
X43452380Y-72690476D01*
X43452380Y-72166666D02*
X44452380Y-71500000D01*
X43452380Y-71500000D02*
X44452380Y-72166666D01*
X44071428Y-71119047D02*
X44071428Y-70357142D01*
X43785714Y-69880952D02*
X44071428Y-69119047D01*
X44357142Y-69880952D01*
X44452380Y-68071428D02*
X43976190Y-68404761D01*
X44452380Y-68642857D02*
X43452380Y-68642857D01*
X43452380Y-68261904D01*
X43500000Y-68166666D01*
X43547619Y-68119047D01*
X43642857Y-68071428D01*
X43785714Y-68071428D01*
X43880952Y-68119047D01*
X43928571Y-68166666D01*
X43976190Y-68261904D01*
X43976190Y-68642857D01*
X43452380Y-67738095D02*
X44452380Y-67071428D01*
X43452380Y-67071428D02*
X44452380Y-67738095D01*
X51000000Y-72761904D02*
X50952380Y-72857142D01*
X50952380Y-73000000D01*
X51000000Y-73142857D01*
X51095238Y-73238095D01*
X51190476Y-73285714D01*
X51380952Y-73333333D01*
X51523809Y-73333333D01*
X51714285Y-73285714D01*
X51809523Y-73238095D01*
X51904761Y-73142857D01*
X51952380Y-73000000D01*
X51952380Y-72904761D01*
X51904761Y-72761904D01*
X51857142Y-72714285D01*
X51523809Y-72714285D01*
X51523809Y-72904761D01*
X51952380Y-72285714D02*
X50952380Y-72285714D01*
X51952380Y-71714285D01*
X50952380Y-71714285D01*
X51952380Y-71238095D02*
X50952380Y-71238095D01*
X50952380Y-71000000D01*
X51000000Y-70857142D01*
X51095238Y-70761904D01*
X51190476Y-70714285D01*
X51380952Y-70666666D01*
X51523809Y-70666666D01*
X51714285Y-70714285D01*
X51809523Y-70761904D01*
X51904761Y-70857142D01*
X51952380Y-71000000D01*
X51952380Y-71238095D01*
D11*
X34285714Y-60628571D02*
X33785714Y-59914285D01*
X33428571Y-60628571D02*
X33428571Y-59128571D01*
X33999999Y-59128571D01*
X34142857Y-59200000D01*
X34214285Y-59271428D01*
X34285714Y-59414285D01*
X34285714Y-59628571D01*
X34214285Y-59771428D01*
X34142857Y-59842857D01*
X33999999Y-59914285D01*
X33428571Y-59914285D01*
X35571428Y-60628571D02*
X35571428Y-59842857D01*
X35499999Y-59700000D01*
X35357142Y-59628571D01*
X35071428Y-59628571D01*
X34928571Y-59700000D01*
X35571428Y-60557142D02*
X35428571Y-60628571D01*
X35071428Y-60628571D01*
X34928571Y-60557142D01*
X34857142Y-60414285D01*
X34857142Y-60271428D01*
X34928571Y-60128571D01*
X35071428Y-60057142D01*
X35428571Y-60057142D01*
X35571428Y-59985714D01*
X36214285Y-60557142D02*
X36357142Y-60628571D01*
X36642857Y-60628571D01*
X36785714Y-60557142D01*
X36857142Y-60414285D01*
X36857142Y-60342857D01*
X36785714Y-60200000D01*
X36642857Y-60128571D01*
X36428571Y-60128571D01*
X36285714Y-60057142D01*
X36214285Y-59914285D01*
X36214285Y-59842857D01*
X36285714Y-59700000D01*
X36428571Y-59628571D01*
X36642857Y-59628571D01*
X36785714Y-59700000D01*
X37499999Y-59628571D02*
X37499999Y-61128571D01*
X37499999Y-59700000D02*
X37642857Y-59628571D01*
X37928571Y-59628571D01*
X38071428Y-59700000D01*
X38142857Y-59771428D01*
X38214285Y-59914285D01*
X38214285Y-60342857D01*
X38142857Y-60485714D01*
X38071428Y-60557142D01*
X37928571Y-60628571D01*
X37642857Y-60628571D01*
X37499999Y-60557142D01*
X38857142Y-60628571D02*
X38857142Y-59128571D01*
X38857142Y-59700000D02*
X38999999Y-59628571D01*
X39285714Y-59628571D01*
X39428571Y-59700000D01*
X39499999Y-59771428D01*
X39571428Y-59914285D01*
X39571428Y-60342857D01*
X39499999Y-60485714D01*
X39428571Y-60557142D01*
X39285714Y-60628571D01*
X38999999Y-60628571D01*
X38857142Y-60557142D01*
X40785714Y-60557142D02*
X40642857Y-60628571D01*
X40357142Y-60628571D01*
X40214285Y-60557142D01*
X40142857Y-60414285D01*
X40142857Y-59842857D01*
X40214285Y-59700000D01*
X40357142Y-59628571D01*
X40642857Y-59628571D01*
X40785714Y-59700000D01*
X40857142Y-59842857D01*
X40857142Y-59985714D01*
X40142857Y-60128571D01*
X41499999Y-60628571D02*
X41499999Y-59628571D01*
X41499999Y-59914285D02*
X41571428Y-59771428D01*
X41642857Y-59700000D01*
X41785714Y-59628571D01*
X41928571Y-59628571D01*
X42428571Y-60628571D02*
X42428571Y-59628571D01*
X42428571Y-59914285D02*
X42500000Y-59771428D01*
X42571428Y-59700000D01*
X42714285Y-59628571D01*
X42857142Y-59628571D01*
X43214285Y-59628571D02*
X43571428Y-60628571D01*
X43928571Y-59628571D02*
X43571428Y-60628571D01*
X43428571Y-60985714D01*
X43357142Y-61057142D01*
X43214285Y-61128571D01*
X45642857Y-60628571D02*
X45642857Y-59128571D01*
X46214285Y-59128571D01*
X46357142Y-59200000D01*
X46428571Y-59271428D01*
X46499999Y-59414285D01*
X46499999Y-59628571D01*
X46428571Y-59771428D01*
X46357142Y-59842857D01*
X46214285Y-59914285D01*
X45642857Y-59914285D01*
X47142857Y-60628571D02*
X47142857Y-59628571D01*
X47142857Y-59128571D02*
X47071428Y-59200000D01*
X47142857Y-59271428D01*
X47214285Y-59200000D01*
X47142857Y-59128571D01*
X47142857Y-59271428D01*
X49642857Y-60628571D02*
X49642857Y-59128571D01*
X49642857Y-60557142D02*
X49499999Y-60628571D01*
X49214285Y-60628571D01*
X49071428Y-60557142D01*
X48999999Y-60485714D01*
X48928571Y-60342857D01*
X48928571Y-59914285D01*
X48999999Y-59771428D01*
X49071428Y-59700000D01*
X49214285Y-59628571D01*
X49499999Y-59628571D01*
X49642857Y-59700000D01*
X50928571Y-60557142D02*
X50785714Y-60628571D01*
X50500000Y-60628571D01*
X50357142Y-60557142D01*
X50285714Y-60414285D01*
X50285714Y-59842857D01*
X50357142Y-59700000D01*
X50500000Y-59628571D01*
X50785714Y-59628571D01*
X50928571Y-59700000D01*
X51000000Y-59842857D01*
X51000000Y-59985714D01*
X50285714Y-60128571D01*
X51500000Y-59628571D02*
X51857142Y-60628571D01*
X52214285Y-59628571D01*
X53928571Y-60628571D02*
X53928571Y-59128571D01*
X53928571Y-59700000D02*
X54071428Y-59628571D01*
X54357142Y-59628571D01*
X54500000Y-59700000D01*
X54571428Y-59771428D01*
X54642857Y-59914285D01*
X54642857Y-60342857D01*
X54571428Y-60485714D01*
X54500000Y-60557142D01*
X54357142Y-60628571D01*
X54071428Y-60628571D01*
X53928571Y-60557142D01*
X55500000Y-60628571D02*
X55357142Y-60557142D01*
X55285714Y-60485714D01*
X55214285Y-60342857D01*
X55214285Y-59914285D01*
X55285714Y-59771428D01*
X55357142Y-59700000D01*
X55500000Y-59628571D01*
X55714285Y-59628571D01*
X55857142Y-59700000D01*
X55928571Y-59771428D01*
X56000000Y-59914285D01*
X56000000Y-60342857D01*
X55928571Y-60485714D01*
X55857142Y-60557142D01*
X55714285Y-60628571D01*
X55500000Y-60628571D01*
X57285714Y-60628571D02*
X57285714Y-59842857D01*
X57214285Y-59700000D01*
X57071428Y-59628571D01*
X56785714Y-59628571D01*
X56642857Y-59700000D01*
X57285714Y-60557142D02*
X57142857Y-60628571D01*
X56785714Y-60628571D01*
X56642857Y-60557142D01*
X56571428Y-60414285D01*
X56571428Y-60271428D01*
X56642857Y-60128571D01*
X56785714Y-60057142D01*
X57142857Y-60057142D01*
X57285714Y-59985714D01*
X58000000Y-60628571D02*
X58000000Y-59628571D01*
X58000000Y-59914285D02*
X58071428Y-59771428D01*
X58142857Y-59700000D01*
X58285714Y-59628571D01*
X58428571Y-59628571D01*
X59571428Y-60628571D02*
X59571428Y-59128571D01*
X59571428Y-60557142D02*
X59428571Y-60628571D01*
X59142857Y-60628571D01*
X59000000Y-60557142D01*
X58928571Y-60485714D01*
X58857142Y-60342857D01*
X58857142Y-59914285D01*
X58928571Y-59771428D01*
X59000000Y-59700000D01*
X59142857Y-59628571D01*
X59428571Y-59628571D01*
X59571428Y-59700000D01*
X39142857Y-61678571D02*
X39642857Y-63178571D01*
X40142857Y-61678571D01*
X41214285Y-63107142D02*
X41071428Y-63178571D01*
X40785714Y-63178571D01*
X40642857Y-63107142D01*
X40571428Y-62964285D01*
X40571428Y-62392857D01*
X40642857Y-62250000D01*
X40785714Y-62178571D01*
X41071428Y-62178571D01*
X41214285Y-62250000D01*
X41285714Y-62392857D01*
X41285714Y-62535714D01*
X40571428Y-62678571D01*
X41928571Y-63178571D02*
X41928571Y-62178571D01*
X41928571Y-62464285D02*
X42000000Y-62321428D01*
X42071428Y-62250000D01*
X42214285Y-62178571D01*
X42357142Y-62178571D01*
X42785714Y-63107142D02*
X42928571Y-63178571D01*
X43214285Y-63178571D01*
X43357142Y-63107142D01*
X43428571Y-62964285D01*
X43428571Y-62892857D01*
X43357142Y-62750000D01*
X43214285Y-62678571D01*
X43000000Y-62678571D01*
X42857142Y-62607142D01*
X42785714Y-62464285D01*
X42785714Y-62392857D01*
X42857142Y-62250000D01*
X43000000Y-62178571D01*
X43214285Y-62178571D01*
X43357142Y-62250000D01*
X44071428Y-63178571D02*
X44071428Y-62178571D01*
X44071428Y-61678571D02*
X44000000Y-61750000D01*
X44071428Y-61821428D01*
X44142857Y-61750000D01*
X44071428Y-61678571D01*
X44071428Y-61821428D01*
X45000000Y-63178571D02*
X44857142Y-63107142D01*
X44785714Y-63035714D01*
X44714285Y-62892857D01*
X44714285Y-62464285D01*
X44785714Y-62321428D01*
X44857142Y-62250000D01*
X45000000Y-62178571D01*
X45214285Y-62178571D01*
X45357142Y-62250000D01*
X45428571Y-62321428D01*
X45500000Y-62464285D01*
X45500000Y-62892857D01*
X45428571Y-63035714D01*
X45357142Y-63107142D01*
X45214285Y-63178571D01*
X45000000Y-63178571D01*
X46142857Y-62178571D02*
X46142857Y-63178571D01*
X46142857Y-62321428D02*
X46214285Y-62250000D01*
X46357142Y-62178571D01*
X46571428Y-62178571D01*
X46714285Y-62250000D01*
X46785714Y-62392857D01*
X46785714Y-63178571D01*
X48928571Y-61678571D02*
X49071428Y-61678571D01*
X49214285Y-61750000D01*
X49285714Y-61821428D01*
X49357142Y-61964285D01*
X49428571Y-62250000D01*
X49428571Y-62607142D01*
X49357142Y-62892857D01*
X49285714Y-63035714D01*
X49214285Y-63107142D01*
X49071428Y-63178571D01*
X48928571Y-63178571D01*
X48785714Y-63107142D01*
X48714285Y-63035714D01*
X48642857Y-62892857D01*
X48571428Y-62607142D01*
X48571428Y-62250000D01*
X48642857Y-61964285D01*
X48714285Y-61821428D01*
X48785714Y-61750000D01*
X48928571Y-61678571D01*
X50071428Y-63035714D02*
X50142857Y-63107142D01*
X50071428Y-63178571D01*
X50000000Y-63107142D01*
X50071428Y-63035714D01*
X50071428Y-63178571D01*
X50714285Y-61821428D02*
X50785714Y-61750000D01*
X50928571Y-61678571D01*
X51285714Y-61678571D01*
X51428571Y-61750000D01*
X51500000Y-61821428D01*
X51571428Y-61964285D01*
X51571428Y-62107142D01*
X51500000Y-62321428D01*
X50642857Y-63178571D01*
X51571428Y-63178571D01*
X52214285Y-63035714D02*
X52285714Y-63107142D01*
X52214285Y-63178571D01*
X52142857Y-63107142D01*
X52214285Y-63035714D01*
X52214285Y-63178571D01*
X53214285Y-61678571D02*
X53357142Y-61678571D01*
X53500000Y-61750000D01*
X53571428Y-61821428D01*
X53642857Y-61964285D01*
X53714285Y-62250000D01*
X53714285Y-62607142D01*
X53642857Y-62892857D01*
X53571428Y-63035714D01*
X53500000Y-63107142D01*
X53357142Y-63178571D01*
X53214285Y-63178571D01*
X53071428Y-63107142D01*
X53000000Y-63035714D01*
X52928571Y-62892857D01*
X52857142Y-62607142D01*
X52857142Y-62250000D01*
X52928571Y-61964285D01*
X53000000Y-61821428D01*
X53071428Y-61750000D01*
X53214285Y-61678571D01*
X41000000Y-65014285D02*
X40928571Y-64942857D01*
X40785714Y-64871428D01*
X40642857Y-64871428D01*
X40500000Y-64942857D01*
X40428571Y-65014285D01*
X40357142Y-65157142D01*
X40357142Y-65300000D01*
X40428571Y-65442857D01*
X40500000Y-65514285D01*
X40642857Y-65585714D01*
X40785714Y-65585714D01*
X40928571Y-65514285D01*
X41000000Y-65442857D01*
X41000000Y-64871428D02*
X41000000Y-65442857D01*
X41071428Y-65514285D01*
X41142857Y-65514285D01*
X41285714Y-65442857D01*
X41357142Y-65300000D01*
X41357142Y-64942857D01*
X41214285Y-64728571D01*
X41000000Y-64585714D01*
X40714285Y-64514285D01*
X40428571Y-64585714D01*
X40214285Y-64728571D01*
X40071428Y-64942857D01*
X40000000Y-65228571D01*
X40071428Y-65514285D01*
X40214285Y-65728571D01*
X40428571Y-65871428D01*
X40714285Y-65942857D01*
X41000000Y-65871428D01*
X41214285Y-65728571D01*
X41785714Y-64728571D02*
X42357142Y-64728571D01*
X42000000Y-64228571D02*
X42000000Y-65514285D01*
X42071428Y-65657142D01*
X42214285Y-65728571D01*
X42357142Y-65728571D01*
X42857142Y-64728571D02*
X42857142Y-65728571D01*
X42857142Y-64871428D02*
X42928571Y-64800000D01*
X43071428Y-64728571D01*
X43285714Y-64728571D01*
X43428571Y-64800000D01*
X43500000Y-64942857D01*
X43500000Y-65728571D01*
X44214285Y-65728571D02*
X44214285Y-64728571D01*
X44214285Y-64228571D02*
X44142857Y-64300000D01*
X44214285Y-64371428D01*
X44285714Y-64300000D01*
X44214285Y-64228571D01*
X44214285Y-64371428D01*
X44857142Y-65657142D02*
X45000000Y-65728571D01*
X45285714Y-65728571D01*
X45428571Y-65657142D01*
X45500000Y-65514285D01*
X45500000Y-65442857D01*
X45428571Y-65300000D01*
X45285714Y-65228571D01*
X45071428Y-65228571D01*
X44928571Y-65157142D01*
X44857142Y-65014285D01*
X44857142Y-64942857D01*
X44928571Y-64800000D01*
X45071428Y-64728571D01*
X45285714Y-64728571D01*
X45428571Y-64800000D01*
X46142857Y-65728571D02*
X46142857Y-64228571D01*
X46785714Y-65728571D02*
X46785714Y-64942857D01*
X46714285Y-64800000D01*
X46571428Y-64728571D01*
X46357142Y-64728571D01*
X46214285Y-64800000D01*
X46142857Y-64871428D01*
X47500000Y-65728571D02*
X47500000Y-64728571D01*
X47500000Y-64228571D02*
X47428571Y-64300000D01*
X47500000Y-64371428D01*
X47571428Y-64300000D01*
X47500000Y-64228571D01*
X47500000Y-64371428D01*
X48214285Y-64728571D02*
X48214285Y-65728571D01*
X48214285Y-64871428D02*
X48285714Y-64800000D01*
X48428571Y-64728571D01*
X48642857Y-64728571D01*
X48785714Y-64800000D01*
X48857142Y-64942857D01*
X48857142Y-65728571D01*
X50214285Y-65728571D02*
X50214285Y-64942857D01*
X50142857Y-64800000D01*
X50000000Y-64728571D01*
X49714285Y-64728571D01*
X49571428Y-64800000D01*
X50214285Y-65657142D02*
X50071428Y-65728571D01*
X49714285Y-65728571D01*
X49571428Y-65657142D01*
X49500000Y-65514285D01*
X49500000Y-65371428D01*
X49571428Y-65228571D01*
X49714285Y-65157142D01*
X50071428Y-65157142D01*
X50214285Y-65085714D01*
X51571428Y-64728571D02*
X51571428Y-65942857D01*
X51500000Y-66085714D01*
X51428571Y-66157142D01*
X51285714Y-66228571D01*
X51071428Y-66228571D01*
X50928571Y-66157142D01*
X51571428Y-65657142D02*
X51428571Y-65728571D01*
X51142857Y-65728571D01*
X51000000Y-65657142D01*
X50928571Y-65585714D01*
X50857142Y-65442857D01*
X50857142Y-65014285D01*
X50928571Y-64871428D01*
X51000000Y-64800000D01*
X51142857Y-64728571D01*
X51428571Y-64728571D01*
X51571428Y-64800000D01*
X52928571Y-65728571D02*
X52928571Y-64942857D01*
X52857142Y-64800000D01*
X52714285Y-64728571D01*
X52428571Y-64728571D01*
X52285714Y-64800000D01*
X52928571Y-65657142D02*
X52785714Y-65728571D01*
X52428571Y-65728571D01*
X52285714Y-65657142D01*
X52214285Y-65514285D01*
X52214285Y-65371428D01*
X52285714Y-65228571D01*
X52428571Y-65157142D01*
X52785714Y-65157142D01*
X52928571Y-65085714D01*
D10*
X50238095Y-52000000D02*
X50142857Y-51952380D01*
X50000000Y-51952380D01*
X49857142Y-52000000D01*
X49761904Y-52095238D01*
X49714285Y-52190476D01*
X49666666Y-52380952D01*
X49666666Y-52523809D01*
X49714285Y-52714285D01*
X49761904Y-52809523D01*
X49857142Y-52904761D01*
X50000000Y-52952380D01*
X50095238Y-52952380D01*
X50238095Y-52904761D01*
X50285714Y-52857142D01*
X50285714Y-52523809D01*
X50095238Y-52523809D01*
X50714285Y-52952380D02*
X50714285Y-51952380D01*
X51285714Y-52952380D01*
X51285714Y-51952380D01*
X51761904Y-52952380D02*
X51761904Y-51952380D01*
X52000000Y-51952380D01*
X52142857Y-52000000D01*
X52238095Y-52095238D01*
X52285714Y-52190476D01*
X52333333Y-52380952D01*
X52333333Y-52523809D01*
X52285714Y-52714285D01*
X52238095Y-52809523D01*
X52142857Y-52904761D01*
X52000000Y-52952380D01*
X51761904Y-52952380D01*
X50738095Y-47952380D02*
X51309523Y-47952380D01*
X51023809Y-48952380D02*
X51023809Y-47952380D01*
X51547619Y-47952380D02*
X52214285Y-48952380D01*
X52214285Y-47952380D02*
X51547619Y-48952380D01*
X51333333Y-46952380D02*
X51000000Y-46476190D01*
X50761904Y-46952380D02*
X50761904Y-45952380D01*
X51142857Y-45952380D01*
X51238095Y-46000000D01*
X51285714Y-46047619D01*
X51333333Y-46142857D01*
X51333333Y-46285714D01*
X51285714Y-46380952D01*
X51238095Y-46428571D01*
X51142857Y-46476190D01*
X50761904Y-46476190D01*
X51666666Y-45952380D02*
X52333333Y-46952380D01*
X52333333Y-45952380D02*
X51666666Y-46952380D01*
X49666666Y-49952380D02*
X50000000Y-50952380D01*
X50333333Y-49952380D01*
X51238095Y-50857142D02*
X51190476Y-50904761D01*
X51047619Y-50952380D01*
X50952380Y-50952380D01*
X50809523Y-50904761D01*
X50714285Y-50809523D01*
X50666666Y-50714285D01*
X50619047Y-50523809D01*
X50619047Y-50380952D01*
X50666666Y-50190476D01*
X50714285Y-50095238D01*
X50809523Y-50000000D01*
X50952380Y-49952380D01*
X51047619Y-49952380D01*
X51190476Y-50000000D01*
X51238095Y-50047619D01*
X52238095Y-50857142D02*
X52190476Y-50904761D01*
X52047619Y-50952380D01*
X51952380Y-50952380D01*
X51809523Y-50904761D01*
X51714285Y-50809523D01*
X51666666Y-50714285D01*
X51619047Y-50523809D01*
X51619047Y-50380952D01*
X51666666Y-50190476D01*
X51714285Y-50095238D01*
X51809523Y-50000000D01*
X51952380Y-49952380D01*
X52047619Y-49952380D01*
X52190476Y-50000000D01*
X52238095Y-50047619D01*
X37738095Y-52000000D02*
X37642857Y-51952380D01*
X37500000Y-51952380D01*
X37357142Y-52000000D01*
X37261904Y-52095238D01*
X37214285Y-52190476D01*
X37166666Y-52380952D01*
X37166666Y-52523809D01*
X37214285Y-52714285D01*
X37261904Y-52809523D01*
X37357142Y-52904761D01*
X37500000Y-52952380D01*
X37595238Y-52952380D01*
X37738095Y-52904761D01*
X37785714Y-52857142D01*
X37785714Y-52523809D01*
X37595238Y-52523809D01*
X38214285Y-52952380D02*
X38214285Y-51952380D01*
X38785714Y-52952380D01*
X38785714Y-51952380D01*
X39261904Y-52952380D02*
X39261904Y-51952380D01*
X39500000Y-51952380D01*
X39642857Y-52000000D01*
X39738095Y-52095238D01*
X39785714Y-52190476D01*
X39833333Y-52380952D01*
X39833333Y-52523809D01*
X39785714Y-52714285D01*
X39738095Y-52809523D01*
X39642857Y-52904761D01*
X39500000Y-52952380D01*
X39261904Y-52952380D01*
X37166666Y-49952380D02*
X37500000Y-50952380D01*
X37833333Y-49952380D01*
X38738095Y-50857142D02*
X38690476Y-50904761D01*
X38547619Y-50952380D01*
X38452380Y-50952380D01*
X38309523Y-50904761D01*
X38214285Y-50809523D01*
X38166666Y-50714285D01*
X38119047Y-50523809D01*
X38119047Y-50380952D01*
X38166666Y-50190476D01*
X38214285Y-50095238D01*
X38309523Y-50000000D01*
X38452380Y-49952380D01*
X38547619Y-49952380D01*
X38690476Y-50000000D01*
X38738095Y-50047619D01*
X39738095Y-50857142D02*
X39690476Y-50904761D01*
X39547619Y-50952380D01*
X39452380Y-50952380D01*
X39309523Y-50904761D01*
X39214285Y-50809523D01*
X39166666Y-50714285D01*
X39119047Y-50523809D01*
X39119047Y-50380952D01*
X39166666Y-50190476D01*
X39214285Y-50095238D01*
X39309523Y-50000000D01*
X39452380Y-49952380D01*
X39547619Y-49952380D01*
X39690476Y-50000000D01*
X39738095Y-50047619D01*
D12*
X34000000Y-46380000D02*
X34000000Y-47150000D01*
X34000000Y-54460000D02*
X34000000Y-53690000D01*
X32630000Y-47150000D02*
X32630000Y-53690000D01*
X35370000Y-47150000D02*
X32630000Y-47150000D01*
X35370000Y-53690000D02*
X35370000Y-47150000D01*
X32630000Y-53690000D02*
X35370000Y-53690000D01*
X52770000Y-74230000D02*
X52770000Y-75500000D01*
X51500000Y-74230000D02*
X52770000Y-74230000D01*
X38420000Y-76542929D02*
X38420000Y-76940000D01*
X39180000Y-76542929D02*
X39180000Y-76940000D01*
X38420000Y-85600000D02*
X38420000Y-79600000D01*
X39180000Y-85600000D02*
X38420000Y-85600000D01*
X39180000Y-79600000D02*
X39180000Y-85600000D01*
X40070000Y-76940000D02*
X40070000Y-79600000D01*
X40960000Y-76542929D02*
X40960000Y-76940000D01*
X41720000Y-76542929D02*
X41720000Y-76940000D01*
X40960000Y-85600000D02*
X40960000Y-79600000D01*
X41720000Y-85600000D02*
X40960000Y-85600000D01*
X41720000Y-79600000D02*
X41720000Y-85600000D01*
X42610000Y-76940000D02*
X42610000Y-79600000D01*
X43500000Y-76542929D02*
X43500000Y-76940000D01*
X44260000Y-76542929D02*
X44260000Y-76940000D01*
X43500000Y-85600000D02*
X43500000Y-79600000D01*
X44260000Y-85600000D02*
X43500000Y-85600000D01*
X44260000Y-79600000D02*
X44260000Y-85600000D01*
X45150000Y-76940000D02*
X45150000Y-79600000D01*
X46040000Y-76542929D02*
X46040000Y-76940000D01*
X46800000Y-76542929D02*
X46800000Y-76940000D01*
X46040000Y-85600000D02*
X46040000Y-79600000D01*
X46800000Y-85600000D02*
X46040000Y-85600000D01*
X46800000Y-79600000D02*
X46800000Y-85600000D01*
X47690000Y-76940000D02*
X47690000Y-79600000D01*
X48580000Y-76542929D02*
X48580000Y-76940000D01*
X49340000Y-76542929D02*
X49340000Y-76940000D01*
X48580000Y-85600000D02*
X48580000Y-79600000D01*
X49340000Y-85600000D02*
X48580000Y-85600000D01*
X49340000Y-79600000D02*
X49340000Y-85600000D01*
X50230000Y-76940000D02*
X50230000Y-79600000D01*
X51120000Y-76610000D02*
X51120000Y-76940000D01*
X51880000Y-76610000D02*
X51880000Y-76940000D01*
X51220000Y-79600000D02*
X51220000Y-85600000D01*
X51340000Y-79600000D02*
X51340000Y-85600000D01*
X51460000Y-79600000D02*
X51460000Y-85600000D01*
X51580000Y-79600000D02*
X51580000Y-85600000D01*
X51700000Y-79600000D02*
X51700000Y-85600000D01*
X51820000Y-79600000D02*
X51820000Y-85600000D01*
X51120000Y-85600000D02*
X51120000Y-79600000D01*
X51880000Y-85600000D02*
X51120000Y-85600000D01*
X51880000Y-79600000D02*
X51880000Y-85600000D01*
X52830000Y-79600000D02*
X52830000Y-76940000D01*
X37470000Y-79600000D02*
X52830000Y-79600000D01*
X37470000Y-76940000D02*
X37470000Y-79600000D01*
X52830000Y-76940000D02*
X37470000Y-76940000D01*
X52700000Y-52400000D02*
X52700000Y-55050000D01*
X52700000Y-44000000D02*
X52700000Y-46650000D01*
X52700000Y-55050000D02*
X58550000Y-55050000D01*
X52700000Y-47750000D02*
X52700000Y-51250000D01*
X52700000Y-44000000D02*
X58550000Y-44000000D01*
X58550000Y-44000000D02*
X58550000Y-55050000D01*
X52700000Y-46900000D02*
X52700000Y-47500000D01*
X52700000Y-51500000D02*
X52700000Y-52100000D01*
X56000000Y-43500000D02*
X59000000Y-43500000D01*
X59000000Y-43500000D02*
X59000000Y-46500000D01*
D10*
X59320000Y-75600000D02*
X59320000Y-76300000D01*
X60120000Y-75600000D02*
X60120000Y-76300000D01*
X59320000Y-73060000D02*
X59320000Y-73400000D01*
X60120000Y-73060000D02*
X60120000Y-73400000D01*
X61860000Y-75600000D02*
X61860000Y-76300000D01*
X62660000Y-75600000D02*
X62660000Y-76300000D01*
X61860000Y-73060000D02*
X61860000Y-73400000D01*
X62660000Y-73060000D02*
X62660000Y-73400000D01*
X64400000Y-75600000D02*
X64400000Y-76300000D01*
X65200000Y-75600000D02*
X65200000Y-76300000D01*
X64400000Y-73060000D02*
X64400000Y-73400000D01*
X65200000Y-73060000D02*
X65200000Y-73400000D01*
X66940000Y-75600000D02*
X66940000Y-76300000D01*
X67740000Y-75600000D02*
X67740000Y-76300000D01*
X66940000Y-73060000D02*
X66940000Y-73400000D01*
X67740000Y-73060000D02*
X67740000Y-73400000D01*
X69480000Y-75600000D02*
X69480000Y-76300000D01*
X70280000Y-75600000D02*
X70280000Y-76300000D01*
X69480000Y-73060000D02*
X69480000Y-73400000D01*
X70280000Y-73060000D02*
X70280000Y-73400000D01*
X72020000Y-75600000D02*
X72020000Y-76300000D01*
X72820000Y-75600000D02*
X72820000Y-76300000D01*
X72020000Y-73060000D02*
X72020000Y-73400000D01*
X72820000Y-73060000D02*
X72820000Y-73400000D01*
X74560000Y-75600000D02*
X74560000Y-76300000D01*
X75360000Y-75600000D02*
X75360000Y-76300000D01*
X74560000Y-73060000D02*
X74560000Y-73400000D01*
X75360000Y-73060000D02*
X75360000Y-73400000D01*
X77100000Y-75600000D02*
X77100000Y-76300000D01*
X77900000Y-75600000D02*
X77900000Y-76300000D01*
X77100000Y-73060000D02*
X77100000Y-73400000D01*
X77900000Y-73060000D02*
X77900000Y-73400000D01*
X79640000Y-75600000D02*
X79640000Y-76300000D01*
X80440000Y-75600000D02*
X80440000Y-76300000D01*
X79640000Y-73060000D02*
X79640000Y-73400000D01*
X80440000Y-73060000D02*
X80440000Y-73400000D01*
X82180000Y-75600000D02*
X82180000Y-76300000D01*
X82980000Y-75600000D02*
X82980000Y-76300000D01*
X82180000Y-73060000D02*
X82180000Y-73400000D01*
X82980000Y-73060000D02*
X82980000Y-73400000D01*
X82580000Y-82960000D02*
X83580000Y-84460000D01*
X81580000Y-84460000D02*
X82580000Y-82960000D01*
X83580000Y-84460000D02*
X81580000Y-84460000D01*
X69480000Y-84800000D02*
X69480000Y-78600000D01*
X69680000Y-85000000D02*
X69480000Y-84800000D01*
X70080000Y-85000000D02*
X69680000Y-85000000D01*
X70280000Y-84800000D02*
X70080000Y-85000000D01*
X70280000Y-78600000D02*
X70280000Y-84800000D01*
X72020000Y-84800000D02*
X72020000Y-78600000D01*
X72220000Y-85000000D02*
X72020000Y-84800000D01*
X72620000Y-85000000D02*
X72220000Y-85000000D01*
X72820000Y-84800000D02*
X72620000Y-85000000D01*
X72820000Y-78600000D02*
X72820000Y-84800000D01*
X68925000Y-78600000D02*
X68925000Y-85200000D01*
X73375000Y-78600000D02*
X68925000Y-78600000D01*
X73375000Y-85200000D02*
X73375000Y-78600000D01*
X54650000Y-76300000D02*
X87650000Y-76300000D01*
X54650000Y-85200000D02*
X54650000Y-76300000D01*
X87650000Y-85200000D02*
X54650000Y-85200000D01*
X87650000Y-76300000D02*
X87650000Y-85200000D01*
D12*
X32920000Y-39210000D02*
X32764000Y-39210000D01*
X35236000Y-39210000D02*
X35080000Y-39210000D01*
X32920163Y-41811130D02*
G75*
G02*
X32920000Y-39729039I1079837J1041130D01*
G01*
X35079837Y-41811130D02*
G75*
G03*
X35080000Y-39729039I-1079837J1041130D01*
G01*
X32921392Y-42442335D02*
G75*
G02*
X32764484Y-39210000I1078608J1672335D01*
G01*
X35078608Y-42442335D02*
G75*
G03*
X35235516Y-39210000I-1078608J1672335D01*
G01*
D10*
X32082380Y-50586666D02*
X31606190Y-50920000D01*
X32082380Y-51158095D02*
X31082380Y-51158095D01*
X31082380Y-50777142D01*
X31130000Y-50681904D01*
X31177619Y-50634285D01*
X31272857Y-50586666D01*
X31415714Y-50586666D01*
X31510952Y-50634285D01*
X31558571Y-50681904D01*
X31606190Y-50777142D01*
X31606190Y-51158095D01*
X32082380Y-49634285D02*
X32082380Y-50205714D01*
X32082380Y-49920000D02*
X31082380Y-49920000D01*
X31225238Y-50015238D01*
X31320476Y-50110476D01*
X31368095Y-50205714D01*
X53222380Y-80218333D02*
X53936666Y-80218333D01*
X54079523Y-80265952D01*
X54174761Y-80361190D01*
X54222380Y-80504047D01*
X54222380Y-80599285D01*
X54222380Y-79218333D02*
X54222380Y-79789761D01*
X54222380Y-79504047D02*
X53222380Y-79504047D01*
X53365238Y-79599285D01*
X53460476Y-79694523D01*
X53508095Y-79789761D01*
X88166666Y-35952380D02*
X88166666Y-36666666D01*
X88119047Y-36809523D01*
X88023809Y-36904761D01*
X87880952Y-36952380D01*
X87785714Y-36952380D01*
X88547619Y-35952380D02*
X89166666Y-35952380D01*
X88833333Y-36333333D01*
X88976190Y-36333333D01*
X89071428Y-36380952D01*
X89119047Y-36428571D01*
X89166666Y-36523809D01*
X89166666Y-36761904D01*
X89119047Y-36857142D01*
X89071428Y-36904761D01*
X88976190Y-36952380D01*
X88690476Y-36952380D01*
X88595238Y-36904761D01*
X88547619Y-36857142D01*
X54166666Y-41952380D02*
X54166666Y-42666666D01*
X54119047Y-42809523D01*
X54023809Y-42904761D01*
X53880952Y-42952380D01*
X53785714Y-42952380D01*
X54785714Y-42380952D02*
X54690476Y-42333333D01*
X54642857Y-42285714D01*
X54595238Y-42190476D01*
X54595238Y-42142857D01*
X54642857Y-42047619D01*
X54690476Y-42000000D01*
X54785714Y-41952380D01*
X54976190Y-41952380D01*
X55071428Y-42000000D01*
X55119047Y-42047619D01*
X55166666Y-42142857D01*
X55166666Y-42190476D01*
X55119047Y-42285714D01*
X55071428Y-42333333D01*
X54976190Y-42380952D01*
X54785714Y-42380952D01*
X54690476Y-42428571D01*
X54642857Y-42476190D01*
X54595238Y-42571428D01*
X54595238Y-42761904D01*
X54642857Y-42857142D01*
X54690476Y-42904761D01*
X54785714Y-42952380D01*
X54976190Y-42952380D01*
X55071428Y-42904761D01*
X55119047Y-42857142D01*
X55166666Y-42761904D01*
X55166666Y-42571428D01*
X55119047Y-42476190D01*
X55071428Y-42428571D01*
X54976190Y-42380952D01*
X52476190Y-56000000D02*
X52380952Y-55952380D01*
X52238095Y-55952380D01*
X52095238Y-56000000D01*
X52000000Y-56095238D01*
X51952380Y-56190476D01*
X51904761Y-56380952D01*
X51904761Y-56523809D01*
X51952380Y-56714285D01*
X52000000Y-56809523D01*
X52095238Y-56904761D01*
X52238095Y-56952380D01*
X52333333Y-56952380D01*
X52476190Y-56904761D01*
X52523809Y-56857142D01*
X52523809Y-56523809D01*
X52333333Y-56523809D01*
X52952380Y-56952380D02*
X52952380Y-56285714D01*
X52952380Y-56476190D02*
X53000000Y-56380952D01*
X53047619Y-56333333D01*
X53142857Y-56285714D01*
X53238095Y-56285714D01*
X53714285Y-56952380D02*
X53619047Y-56904761D01*
X53571428Y-56857142D01*
X53523809Y-56761904D01*
X53523809Y-56476190D01*
X53571428Y-56380952D01*
X53619047Y-56333333D01*
X53714285Y-56285714D01*
X53857142Y-56285714D01*
X53952380Y-56333333D01*
X54000000Y-56380952D01*
X54047619Y-56476190D01*
X54047619Y-56761904D01*
X54000000Y-56857142D01*
X53952380Y-56904761D01*
X53857142Y-56952380D01*
X53714285Y-56952380D01*
X54380952Y-56285714D02*
X54619047Y-56952380D01*
X54857142Y-56285714D01*
X55619047Y-56904761D02*
X55523809Y-56952380D01*
X55333333Y-56952380D01*
X55238095Y-56904761D01*
X55190476Y-56809523D01*
X55190476Y-56428571D01*
X55238095Y-56333333D01*
X55333333Y-56285714D01*
X55523809Y-56285714D01*
X55619047Y-56333333D01*
X55666666Y-56428571D01*
X55666666Y-56523809D01*
X55190476Y-56619047D01*
X55857142Y-57047619D02*
X56619047Y-57047619D01*
X56857142Y-55952380D02*
X56857142Y-56761904D01*
X56904761Y-56857142D01*
X56952380Y-56904761D01*
X57047619Y-56952380D01*
X57238095Y-56952380D01*
X57333333Y-56904761D01*
X57380952Y-56857142D01*
X57428571Y-56761904D01*
X57428571Y-55952380D01*
X57857142Y-56666666D02*
X58333333Y-56666666D01*
X57761904Y-56952380D02*
X58095238Y-55952380D01*
X58428571Y-56952380D01*
X59333333Y-56952380D02*
X59000000Y-56476190D01*
X58761904Y-56952380D02*
X58761904Y-55952380D01*
X59142857Y-55952380D01*
X59238095Y-56000000D01*
X59285714Y-56047619D01*
X59333333Y-56142857D01*
X59333333Y-56285714D01*
X59285714Y-56380952D01*
X59238095Y-56428571D01*
X59142857Y-56476190D01*
X58761904Y-56476190D01*
X59619047Y-55952380D02*
X60190476Y-55952380D01*
X59904761Y-56952380D02*
X59904761Y-55952380D01*
X84546666Y-72952380D02*
X84546666Y-73666666D01*
X84499047Y-73809523D01*
X84403809Y-73904761D01*
X84260952Y-73952380D01*
X84165714Y-73952380D01*
X84975238Y-73047619D02*
X85022857Y-73000000D01*
X85118095Y-72952380D01*
X85356190Y-72952380D01*
X85451428Y-73000000D01*
X85499047Y-73047619D01*
X85546666Y-73142857D01*
X85546666Y-73238095D01*
X85499047Y-73380952D01*
X84927619Y-73952380D01*
X85546666Y-73952380D01*
X37412380Y-41508095D02*
X36412380Y-41508095D01*
X36412380Y-41270000D01*
X36460000Y-41127142D01*
X36555238Y-41031904D01*
X36650476Y-40984285D01*
X36840952Y-40936666D01*
X36983809Y-40936666D01*
X37174285Y-40984285D01*
X37269523Y-41031904D01*
X37364761Y-41127142D01*
X37412380Y-41270000D01*
X37412380Y-41508095D01*
X37412380Y-39984285D02*
X37412380Y-40555714D01*
X37412380Y-40270000D02*
X36412380Y-40270000D01*
X36555238Y-40365238D01*
X36650476Y-40460476D01*
X36698095Y-40555714D01*
M02*
