M48
; DRILL file {KiCad (5.1.8-0-10_14)} date Sunday, July 18, 2021 at 07:28:44 PM
; FORMAT={-:-/ absolute / inch / decimal}
; #@! TF.CreationDate,2021-07-18T19:28:44+09:00
; #@! TF.GenerationSoftware,Kicad,Pcbnew,(5.1.8-0-10_14)
FMAT,2
INCH
T1C0.0157
T2C0.0300
T3C0.0315
T4C0.0354
T5C0.0394
T6C0.1063
%
G90
G05
T1
X1.2205Y-1.4567
X1.2205Y-1.6535
X1.2205Y-1.8504
X1.2205Y-2.0472
X1.2205Y-2.2441
X1.2205Y-2.4409
X1.2205Y-2.6378
X1.2205Y-2.8346
X1.2205Y-3.0315
X1.2205Y-3.1299
X1.4114Y-2.135
X1.437Y-3.3465
X1.4567Y-1.2205
X1.4567Y-2.8937
X1.4567Y-3.0512
X1.4614Y-1.8154
X1.4618Y-2.0843
X1.4646Y-1.435
X1.465Y-1.6232
X1.5343Y-2.1547
X1.5555Y-2.0583
X1.5583Y-1.435
X1.5591Y-1.6232
X1.5591Y-1.8201
X1.5752Y-2.5685
X1.5752Y-2.7
X1.5764Y-2.4319
X1.5787Y-2.9217
X1.5988Y-2.3669
X1.6339Y-3.0512
X1.6339Y-3.3465
X1.6732Y-1.2205
X1.6768Y-2.5673
X1.678Y-2.9213
X1.6783Y-2.6996
X1.6791Y-2.4319
X1.7146Y-2.2575
X1.8028Y-2.7165
X1.8035Y-2.9173
X1.8122Y-1.5465
X1.813Y-1.4303
X1.8161Y-2.1539
X1.8213Y-2.5677
X1.8303Y-1.6898
X1.8307Y-3.3465
X1.8315Y-2.2795
X1.8701Y-1.2205
X1.8898Y-3.0512
X1.8917Y-2.6287
X1.9098Y-1.5083
X1.911Y-2.0512
X1.9224Y-1.6264
X1.9433Y-1.7976
X1.9831Y-2.3913
X1.9866Y-2.1555
X1.9878Y-1.6925
X1.9921Y-2.5268
X1.9949Y-2.7835
X2.0197Y-1.4311
X2.0272Y-1.5642
X2.0276Y-3.3465
X2.0559Y-1.911
X2.0626Y-1.7693
X2.0669Y-1.2205
X2.0823Y-1.5138
X2.0894Y-2.7839
X2.0906Y-2.4268
X2.0925Y-2.2976
X2.148Y-1.8579
X2.1638Y-1.4547
X2.1953Y-1.7323
X2.2173Y-1.6441
X2.2244Y-3.3465
X2.226Y-2.2925
X2.2623Y-1.8121
X2.2623Y-1.948
X2.2638Y-1.2205
X2.2744Y-2.1122
X2.2874Y-1.578
X2.3457Y-2.172
X2.3579Y-1.7839
X2.3634Y-3.1528
X2.3642Y-3.0528
X2.3657Y-2.1118
X2.3665Y-1.9413
X2.4213Y-3.3465
X2.4343Y-1.7217
X2.4374Y-1.4205
X2.4602Y-1.8886
X2.4606Y-1.2205
X2.5213Y-1.7996
X2.5217Y-1.5079
X2.5248Y-1.435
X2.5465Y-1.6937
X2.5602Y-3.1528
X2.561Y-3.0528
X2.6016Y-1.7996
X2.6016Y-1.9965
X2.6016Y-2.1933
X2.6016Y-2.3902
X2.6016Y-2.587
X2.6016Y-2.7839
X2.6035Y-1.9051
X2.6181Y-1.6024
X2.6181Y-3.3465
X2.6256Y-1.5386
X2.6425Y-1.4217
X2.6575Y-1.2205
X2.687Y-1.4634
X2.6992Y-1.6953
X2.6996Y-1.6024
X2.7008Y-1.9059
X2.7016Y-1.7996
X2.7016Y-1.9965
X2.7016Y-2.1933
X2.7016Y-2.3902
X2.7016Y-2.587
X2.7016Y-2.7839
X2.7264Y-1.5587
X2.7504Y-1.6472
X2.7571Y-3.1528
X2.7579Y-3.0528
X2.7665Y-1.6024
X2.7843Y-1.4811
X2.7988Y-1.6465
X2.8004Y-1.9043
X2.8016Y-1.7996
X2.8016Y-1.9965
X2.8016Y-2.1933
X2.8016Y-2.3902
X2.8016Y-2.587
X2.8016Y-2.7839
X2.815Y-3.3465
X2.8598Y-1.4138
X2.9Y-1.9051
X2.9004Y-1.6949
X2.9016Y-1.6028
X2.9016Y-1.7996
X2.9016Y-1.9965
X2.9016Y-2.1933
X2.9016Y-2.3902
X2.9016Y-2.587
X2.9016Y-2.7839
X2.9508Y-1.8598
X2.9539Y-3.1528
X2.9547Y-3.0528
X2.961Y-1.4134
X3.0016Y-1.6028
X3.0016Y-1.6937
X3.0016Y-1.7996
X3.0016Y-1.9965
X3.0016Y-2.1933
X3.0016Y-2.3902
X3.0016Y-2.587
X3.0016Y-2.7839
X3.0118Y-3.3465
X3.061Y-1.413
X3.0992Y-1.6945
X3.1016Y-1.7996
X3.1016Y-1.9965
X3.1016Y-2.1933
X3.1016Y-2.3902
X3.1016Y-2.587
X3.1016Y-2.7839
X3.1051Y-1.5098
X3.1508Y-3.1528
X3.1512Y-1.7819
X3.1516Y-3.0528
X3.176Y-1.5752
X3.1866Y-1.426
X3.2016Y-1.7996
X3.2016Y-1.9965
X3.2016Y-2.1933
X3.2016Y-2.3902
X3.2016Y-2.587
X3.2016Y-2.7752
X3.2087Y-3.3465
X3.2677Y-1.2205
X3.2886Y-3.0543
X3.3043Y-1.4413
X3.3047Y-2.9039
X3.3476Y-3.1528
X3.402Y-2.8725
X3.4055Y-3.3465
X3.4646Y-1.2205
X3.4843Y-3.3465
X3.7008Y-1.437
X3.7008Y-1.6339
X3.7008Y-1.8307
X3.7008Y-2.0276
X3.7008Y-2.2244
X3.7008Y-2.4213
X3.7008Y-2.6181
X3.7008Y-2.815
X3.7008Y-3.0118
X3.7008Y-3.1299
T2
X2.2047Y-1.8307
X2.2047Y-1.9094
X2.2047Y-1.9882
X2.2047Y-2.0669
T3
X1.3386Y-1.785
X1.3386Y-2.185
T4
X1.3386Y-1.5551
X1.3386Y-1.6551
T5
X1.5106Y-1.2689
X1.5106Y-1.3689
X1.6106Y-1.2689
X1.6106Y-1.3689
X1.7106Y-1.2689
X1.7106Y-1.3689
X1.8106Y-1.2689
X1.8106Y-1.3689
X1.9106Y-1.2689
X1.9106Y-1.3689
X2.0106Y-1.2689
X2.0106Y-1.3689
X2.1106Y-1.2689
X2.1106Y-1.3689
X2.2106Y-1.2689
X2.2106Y-1.3689
X2.3106Y-1.2689
X2.3106Y-1.3689
X2.4106Y-1.2689
X2.4106Y-1.3689
X2.5106Y-1.2689
X2.5106Y-1.3689
X2.6106Y-1.2689
X2.6106Y-1.3689
X2.7106Y-1.2689
X2.7106Y-1.3689
X2.8106Y-1.2689
X2.8106Y-1.3689
X2.9106Y-1.2689
X2.9106Y-1.3689
X3.0106Y-1.2689
X3.0106Y-1.3689
X3.1106Y-1.2689
X3.1106Y-1.3689
X3.2106Y-1.2689
X3.2106Y-1.3689
X3.3106Y-1.2689
X3.3106Y-1.3689
X3.4106Y-1.2689
X3.4106Y-1.3689
X2.3512Y-2.8331
X2.3512Y-2.9331
X2.4512Y-2.8331
X2.4512Y-2.9331
X2.5512Y-2.8331
X2.5512Y-2.9331
X2.6512Y-2.8331
X2.6512Y-2.9331
X2.7512Y-2.8331
X2.7512Y-2.9331
X2.8512Y-2.8331
X2.8512Y-2.9331
X2.9512Y-2.8331
X2.9512Y-2.9331
X3.0512Y-2.8331
X3.0512Y-2.9331
X3.1512Y-2.8331
X3.1512Y-2.9331
X3.2512Y-2.8331
X3.2512Y-2.9331
X1.5276Y-2.9724
X1.6276Y-2.9724
X1.7276Y-2.9724
X1.8276Y-2.9724
X1.9276Y-2.9724
X2.0276Y-2.9724
T6
X3.6024Y-3.248
X3.6024Y-1.3189
X1.3189Y-3.248
X1.3189Y-1.3189
T0
M30
