G04 #@! TF.GenerationSoftware,KiCad,Pcbnew,(5.1.8-0-10_14)*
G04 #@! TF.CreationDate,2021-05-20T18:09:43+09:00*
G04 #@! TF.ProjectId,ft2232_jtag_tap,66743232-3332-45f6-9a74-61675f746170,rev?*
G04 #@! TF.SameCoordinates,Original*
G04 #@! TF.FileFunction,Profile,NP*
%FSLAX46Y46*%
G04 Gerber Fmt 4.6, Leading zero omitted, Abs format (unit mm)*
G04 Created by KiCad (PCBNEW (5.1.8-0-10_14)) date 2021-05-20 18:09:43*
%MOMM*%
%LPD*%
G01*
G04 APERTURE LIST*
G04 #@! TA.AperFunction,Profile*
%ADD10C,0.050000*%
G04 #@! TD*
G04 APERTURE END LIST*
D10*
X150400000Y-160000000D02*
X151000000Y-160600000D01*
X152300000Y-160600000D02*
X152600000Y-160800000D01*
X153200000Y-159000000D02*
X152900000Y-158800000D01*
X152900000Y-158800000D02*
X152500000Y-158800000D01*
X152300000Y-159000000D02*
X152300000Y-159500000D01*
X153200000Y-159400000D02*
X153200000Y-159000000D01*
X152900000Y-161100000D02*
X152900000Y-161900000D01*
X152500000Y-158300000D02*
X153200000Y-158500000D01*
X153200000Y-158100000D02*
X152500000Y-158300000D01*
X150400000Y-160000000D02*
X150900000Y-159500000D01*
X153100000Y-159600000D02*
X153200000Y-159400000D01*
X152100000Y-160000000D02*
X150400000Y-160000000D01*
X152300000Y-160200000D02*
X152300000Y-160600000D01*
X152600000Y-160000000D02*
X152300000Y-160200000D01*
X152300000Y-159500000D02*
X152600000Y-159600000D01*
X153200000Y-160000000D02*
X152600000Y-160000000D01*
X152600000Y-160800000D02*
X153200000Y-160800000D01*
X153200000Y-161500000D02*
X152300000Y-161500000D01*
X152500000Y-158800000D02*
X152300000Y-159000000D01*
X150500000Y-130000000D02*
X151100000Y-130600000D01*
X152400000Y-130600000D02*
X152700000Y-130800000D01*
X153300000Y-129000000D02*
X153000000Y-128800000D01*
X153000000Y-128800000D02*
X152600000Y-128800000D01*
X152400000Y-129000000D02*
X152400000Y-129500000D01*
X153300000Y-129400000D02*
X153300000Y-129000000D01*
X153000000Y-131100000D02*
X153000000Y-131900000D01*
X152600000Y-128300000D02*
X153300000Y-128500000D01*
X153300000Y-128100000D02*
X152600000Y-128300000D01*
X150500000Y-130000000D02*
X151000000Y-129500000D01*
X153200000Y-129600000D02*
X153300000Y-129400000D01*
X152200000Y-130000000D02*
X150500000Y-130000000D01*
X152400000Y-130200000D02*
X152400000Y-130600000D01*
X152700000Y-130000000D02*
X152400000Y-130200000D01*
X152400000Y-129500000D02*
X152700000Y-129600000D01*
X153300000Y-130000000D02*
X152700000Y-130000000D01*
X152700000Y-130800000D02*
X153300000Y-130800000D01*
X153300000Y-131500000D02*
X152400000Y-131500000D01*
X152600000Y-128800000D02*
X152400000Y-129000000D01*
X101500000Y-96700000D02*
X101500000Y-97600000D01*
X101100000Y-97000000D02*
X101900000Y-97000000D01*
X100800000Y-97300000D02*
X100800000Y-96700000D01*
X100600000Y-97600000D02*
X100800000Y-97300000D01*
X100200000Y-97600000D02*
X100600000Y-97600000D01*
X100000000Y-97300000D02*
X100200000Y-97600000D01*
X100000000Y-96700000D02*
X100000000Y-97300000D01*
X99500000Y-97600000D02*
X99600000Y-97300000D01*
X99000000Y-97600000D02*
X99500000Y-97600000D01*
X98800000Y-97400000D02*
X99000000Y-97600000D01*
X98800000Y-97000000D02*
X98800000Y-97400000D01*
X99000000Y-96700000D02*
X98800000Y-97000000D01*
X99400000Y-96700000D02*
X99000000Y-96700000D01*
X99600000Y-96800000D02*
X99400000Y-96700000D01*
X98300000Y-97400000D02*
X98500000Y-96700000D01*
X98100000Y-96700000D02*
X98300000Y-97400000D01*
X100000000Y-99500000D02*
X99500000Y-99000000D01*
X100000000Y-99500000D02*
X100600000Y-98900000D01*
X100000000Y-97800000D02*
X100000000Y-99500000D01*
X150000000Y-130000000D02*
X150000000Y-100000000D01*
X150000000Y-160000000D02*
X150000000Y-130000000D01*
X150000000Y-190000000D02*
X150000000Y-160000000D01*
X100000000Y-190000000D02*
X150000000Y-190000000D01*
X50000000Y-190000000D02*
X100000000Y-190000000D01*
X100000000Y-160000000D02*
X100000000Y-190000000D01*
X50000000Y-160000000D02*
X50000000Y-190000000D01*
X100000000Y-130000000D02*
X100000000Y-160000000D01*
X50000000Y-130000000D02*
X50000000Y-160000000D01*
X100000000Y-100000000D02*
X100000000Y-130000000D01*
X100000000Y-160000000D02*
X150000000Y-160000000D01*
X50000000Y-160000000D02*
X100000000Y-160000000D01*
X100000000Y-130000000D02*
X150000000Y-130000000D01*
X50000000Y-130000000D02*
X100000000Y-130000000D01*
X100000000Y-100000000D02*
X150000000Y-100000000D01*
X50000000Y-100000000D02*
X100000000Y-100000000D01*
X50000000Y-100000000D02*
X50000000Y-130000000D01*
M02*
