G04 #@! TF.GenerationSoftware,KiCad,Pcbnew,(5.1.8-0-10_14)*
G04 #@! TF.CreationDate,2021-05-20T18:09:43+09:00*
G04 #@! TF.ProjectId,ft2232_jtag_tap,66743232-3332-45f6-9a74-61675f746170,rev?*
G04 #@! TF.SameCoordinates,Original*
G04 #@! TF.FileFunction,Soldermask,Bot*
G04 #@! TF.FilePolarity,Negative*
%FSLAX46Y46*%
G04 Gerber Fmt 4.6, Leading zero omitted, Abs format (unit mm)*
G04 Created by KiCad (PCBNEW (5.1.8-0-10_14)) date 2021-05-20 18:09:43*
%MOMM*%
%LPD*%
G01*
G04 APERTURE LIST*
%ADD10C,2.500000*%
%ADD11R,1.500000X1.000000*%
%ADD12R,1.700000X1.700000*%
%ADD13O,1.700000X1.700000*%
%ADD14C,0.650000*%
%ADD15O,2.400000X0.900000*%
%ADD16O,1.700000X0.900000*%
G04 APERTURE END LIST*
D10*
X103000000Y-163000000D03*
X53000000Y-163000000D03*
X103000000Y-133000000D03*
X53000000Y-133000000D03*
X103000000Y-103000000D03*
X103000000Y-187000000D03*
X53000000Y-187000000D03*
X103000000Y-157000000D03*
X53000000Y-157000000D03*
X103000000Y-127000000D03*
X132500000Y-163000000D03*
X82500000Y-163000000D03*
X132500000Y-133000000D03*
X82500000Y-133000000D03*
X132500000Y-103000000D03*
X132500000Y-187000000D03*
X82500000Y-187000000D03*
X132500000Y-157000000D03*
X82500000Y-157000000D03*
X132500000Y-127000000D03*
D11*
X119900000Y-173450000D03*
X119900000Y-174750000D03*
X69900000Y-173450000D03*
X69900000Y-174750000D03*
X119900000Y-143450000D03*
X119900000Y-144750000D03*
X69900000Y-143450000D03*
X69900000Y-144750000D03*
X119900000Y-113450000D03*
X119900000Y-114750000D03*
D12*
X137010000Y-163660000D03*
D13*
X139550000Y-163660000D03*
X137010000Y-166200000D03*
X139550000Y-166200000D03*
X137010000Y-168740000D03*
X139550000Y-168740000D03*
X137010000Y-171280000D03*
X139550000Y-171280000D03*
X137010000Y-173820000D03*
X139550000Y-173820000D03*
X137010000Y-176360000D03*
X139550000Y-176360000D03*
X137010000Y-178900000D03*
X139550000Y-178900000D03*
X137010000Y-181440000D03*
X139550000Y-181440000D03*
X137010000Y-183980000D03*
X139550000Y-183980000D03*
X137010000Y-186520000D03*
X139550000Y-186520000D03*
D12*
X87010000Y-163660000D03*
D13*
X89550000Y-163660000D03*
X87010000Y-166200000D03*
X89550000Y-166200000D03*
X87010000Y-168740000D03*
X89550000Y-168740000D03*
X87010000Y-171280000D03*
X89550000Y-171280000D03*
X87010000Y-173820000D03*
X89550000Y-173820000D03*
X87010000Y-176360000D03*
X89550000Y-176360000D03*
X87010000Y-178900000D03*
X89550000Y-178900000D03*
X87010000Y-181440000D03*
X89550000Y-181440000D03*
X87010000Y-183980000D03*
X89550000Y-183980000D03*
X87010000Y-186520000D03*
X89550000Y-186520000D03*
D12*
X137010000Y-133660000D03*
D13*
X139550000Y-133660000D03*
X137010000Y-136200000D03*
X139550000Y-136200000D03*
X137010000Y-138740000D03*
X139550000Y-138740000D03*
X137010000Y-141280000D03*
X139550000Y-141280000D03*
X137010000Y-143820000D03*
X139550000Y-143820000D03*
X137010000Y-146360000D03*
X139550000Y-146360000D03*
X137010000Y-148900000D03*
X139550000Y-148900000D03*
X137010000Y-151440000D03*
X139550000Y-151440000D03*
X137010000Y-153980000D03*
X139550000Y-153980000D03*
X137010000Y-156520000D03*
X139550000Y-156520000D03*
D12*
X87010000Y-133660000D03*
D13*
X89550000Y-133660000D03*
X87010000Y-136200000D03*
X89550000Y-136200000D03*
X87010000Y-138740000D03*
X89550000Y-138740000D03*
X87010000Y-141280000D03*
X89550000Y-141280000D03*
X87010000Y-143820000D03*
X89550000Y-143820000D03*
X87010000Y-146360000D03*
X89550000Y-146360000D03*
X87010000Y-148900000D03*
X89550000Y-148900000D03*
X87010000Y-151440000D03*
X89550000Y-151440000D03*
X87010000Y-153980000D03*
X89550000Y-153980000D03*
X87010000Y-156520000D03*
X89550000Y-156520000D03*
D12*
X137010000Y-103660000D03*
D13*
X139550000Y-103660000D03*
X137010000Y-106200000D03*
X139550000Y-106200000D03*
X137010000Y-108740000D03*
X139550000Y-108740000D03*
X137010000Y-111280000D03*
X139550000Y-111280000D03*
X137010000Y-113820000D03*
X139550000Y-113820000D03*
X137010000Y-116360000D03*
X139550000Y-116360000D03*
X137010000Y-118900000D03*
X139550000Y-118900000D03*
X137010000Y-121440000D03*
X139550000Y-121440000D03*
X137010000Y-123980000D03*
X139550000Y-123980000D03*
X137010000Y-126520000D03*
X139550000Y-126520000D03*
D14*
X109000000Y-172000000D03*
X109000000Y-172850000D03*
X109000000Y-173700000D03*
X109000000Y-174550000D03*
X109000000Y-175400000D03*
X109000000Y-176250000D03*
X109000000Y-177100000D03*
X109000000Y-177950000D03*
X107650000Y-172850000D03*
X107650000Y-174550000D03*
X107650000Y-173700000D03*
X107650000Y-172000000D03*
X107650000Y-176250000D03*
X107650000Y-177100000D03*
X107650000Y-177950000D03*
X107650000Y-175400000D03*
D15*
X108020000Y-170650000D03*
X108020000Y-179300000D03*
D16*
X104640000Y-170650000D03*
X104640000Y-179300000D03*
D14*
X59000000Y-172000000D03*
X59000000Y-172850000D03*
X59000000Y-173700000D03*
X59000000Y-174550000D03*
X59000000Y-175400000D03*
X59000000Y-176250000D03*
X59000000Y-177100000D03*
X59000000Y-177950000D03*
X57650000Y-172850000D03*
X57650000Y-174550000D03*
X57650000Y-173700000D03*
X57650000Y-172000000D03*
X57650000Y-176250000D03*
X57650000Y-177100000D03*
X57650000Y-177950000D03*
X57650000Y-175400000D03*
D15*
X58020000Y-170650000D03*
X58020000Y-179300000D03*
D16*
X54640000Y-170650000D03*
X54640000Y-179300000D03*
D14*
X109000000Y-142000000D03*
X109000000Y-142850000D03*
X109000000Y-143700000D03*
X109000000Y-144550000D03*
X109000000Y-145400000D03*
X109000000Y-146250000D03*
X109000000Y-147100000D03*
X109000000Y-147950000D03*
X107650000Y-142850000D03*
X107650000Y-144550000D03*
X107650000Y-143700000D03*
X107650000Y-142000000D03*
X107650000Y-146250000D03*
X107650000Y-147100000D03*
X107650000Y-147950000D03*
X107650000Y-145400000D03*
D15*
X108020000Y-140650000D03*
X108020000Y-149300000D03*
D16*
X104640000Y-140650000D03*
X104640000Y-149300000D03*
D14*
X59000000Y-142000000D03*
X59000000Y-142850000D03*
X59000000Y-143700000D03*
X59000000Y-144550000D03*
X59000000Y-145400000D03*
X59000000Y-146250000D03*
X59000000Y-147100000D03*
X59000000Y-147950000D03*
X57650000Y-142850000D03*
X57650000Y-144550000D03*
X57650000Y-143700000D03*
X57650000Y-142000000D03*
X57650000Y-146250000D03*
X57650000Y-147100000D03*
X57650000Y-147950000D03*
X57650000Y-145400000D03*
D15*
X58020000Y-140650000D03*
X58020000Y-149300000D03*
D16*
X54640000Y-140650000D03*
X54640000Y-149300000D03*
D14*
X109000000Y-112000000D03*
X109000000Y-112850000D03*
X109000000Y-113700000D03*
X109000000Y-114550000D03*
X109000000Y-115400000D03*
X109000000Y-116250000D03*
X109000000Y-117100000D03*
X109000000Y-117950000D03*
X107650000Y-112850000D03*
X107650000Y-114550000D03*
X107650000Y-113700000D03*
X107650000Y-112000000D03*
X107650000Y-116250000D03*
X107650000Y-117100000D03*
X107650000Y-117950000D03*
X107650000Y-115400000D03*
D15*
X108020000Y-110650000D03*
X108020000Y-119300000D03*
D16*
X104640000Y-110650000D03*
X104640000Y-119300000D03*
X54640000Y-119300000D03*
X54640000Y-110650000D03*
D15*
X58020000Y-119300000D03*
X58020000Y-110650000D03*
D14*
X57650000Y-115400000D03*
X57650000Y-117950000D03*
X57650000Y-117100000D03*
X57650000Y-116250000D03*
X57650000Y-112000000D03*
X57650000Y-113700000D03*
X57650000Y-114550000D03*
X57650000Y-112850000D03*
X59000000Y-117950000D03*
X59000000Y-117100000D03*
X59000000Y-116250000D03*
X59000000Y-115400000D03*
X59000000Y-114550000D03*
X59000000Y-113700000D03*
X59000000Y-112850000D03*
X59000000Y-112000000D03*
D13*
X89550000Y-126520000D03*
X87010000Y-126520000D03*
X89550000Y-123980000D03*
X87010000Y-123980000D03*
X89550000Y-121440000D03*
X87010000Y-121440000D03*
X89550000Y-118900000D03*
X87010000Y-118900000D03*
X89550000Y-116360000D03*
X87010000Y-116360000D03*
X89550000Y-113820000D03*
X87010000Y-113820000D03*
X89550000Y-111280000D03*
X87010000Y-111280000D03*
X89550000Y-108740000D03*
X87010000Y-108740000D03*
X89550000Y-106200000D03*
X87010000Y-106200000D03*
X89550000Y-103660000D03*
D12*
X87010000Y-103660000D03*
D11*
X69900000Y-114750000D03*
X69900000Y-113450000D03*
D10*
X82500000Y-127000000D03*
X82500000Y-103000000D03*
X53000000Y-127000000D03*
X53000000Y-103000000D03*
M02*
