M48
; DRILL file {KiCad (5.1.8-0-10_14)} date Thursday, May 20, 2021 at 06:09:45 PM
; FORMAT={-:-/ absolute / inch / decimal}
; #@! TF.CreationDate,2021-05-20T18:09:45+09:00
; #@! TF.GenerationSoftware,Kicad,Pcbnew,(5.1.8-0-10_14)
FMAT,2
INCH
T1C0.0118
T2C0.0138
T3C0.0236
T4C0.0394
T5C0.0591
T6C0.0984
%
G90
G05
T1
X2.002Y-4.1516
X2.002Y-4.2697
X2.002Y-4.3878
X2.002Y-4.5059
X2.002Y-4.624
X2.002Y-4.7421
X2.002Y-4.8602
X2.002Y-5.3327
X2.002Y-5.4508
X2.002Y-5.5689
X2.002Y-5.687
X2.002Y-5.8051
X2.002Y-5.9232
X2.002Y-6.0413
X2.002Y-6.5138
X2.002Y-6.6319
X2.002Y-6.75
X2.002Y-6.8681
X2.002Y-6.9862
X2.002Y-7.1043
X2.002Y-7.2224
X2.1693Y-4.1772
X2.1693Y-5.3583
X2.1693Y-6.5394
X2.1831Y-3.9705
X2.1831Y-5.1516
X2.1831Y-6.3327
X2.1909Y-5.0827
X2.1909Y-6.2638
X2.1909Y-7.4449
X2.2165Y-4.311
X2.2165Y-5.4921
X2.2165Y-6.6732
X2.2185Y-4.7362
X2.2185Y-5.9173
X2.2185Y-7.0984
X2.25Y-4.0974
X2.25Y-5.2785
X2.25Y-6.4596
X2.3012Y-3.9705
X2.3012Y-5.1516
X2.3012Y-6.3327
X2.3091Y-5.0827
X2.3091Y-6.2638
X2.3091Y-7.4449
X2.3366Y-4.1457
X2.3366Y-5.3268
X2.3366Y-6.5079
X2.3386Y-4.2087
X2.3386Y-4.2736
X2.3386Y-5.3898
X2.3386Y-5.4547
X2.3386Y-6.5709
X2.3386Y-6.6358
X2.372Y-4.3012
X2.372Y-5.4823
X2.372Y-6.6634
X2.376Y-4.3642
X2.376Y-5.5453
X2.376Y-6.7264
X2.378Y-4.5551
X2.378Y-5.7362
X2.378Y-6.9173
X2.3819Y-4.2402
X2.3819Y-5.4213
X2.3819Y-6.6024
X2.4114Y-4.8031
X2.4114Y-5.9843
X2.4114Y-7.1654
X2.4193Y-3.9705
X2.4193Y-5.1516
X2.4193Y-6.3327
X2.4272Y-5.0827
X2.4272Y-6.2638
X2.4272Y-7.4449
X2.4449Y-4.1909
X2.4449Y-5.372
X2.4449Y-6.5531
X2.4764Y-4.7953
X2.4764Y-5.9764
X2.4764Y-7.1575
X2.5079Y-4.6181
X2.5079Y-4.687
X2.5079Y-5.7992
X2.5079Y-5.8681
X2.5079Y-6.9803
X2.5079Y-7.0492
X2.5089Y-4.3996
X2.5089Y-5.5807
X2.5089Y-6.7618
X2.5098Y-4.4291
X2.5098Y-5.6102
X2.5098Y-6.7913
X2.5197Y-4.2067
X2.5197Y-4.3071
X2.5197Y-5.3878
X2.5197Y-5.4882
X2.5197Y-6.5689
X2.5197Y-6.6693
X2.5374Y-3.9705
X2.5374Y-5.1516
X2.5374Y-6.3327
X2.5384Y-4.8219
X2.5384Y-6.003
X2.5384Y-7.1841
X2.5453Y-5.0827
X2.5453Y-6.2638
X2.5453Y-7.4449
X2.5827Y-4.0787
X2.5827Y-5.2598
X2.5827Y-6.4409
X2.6102Y-4.8189
X2.6102Y-6.0
X2.6102Y-7.1811
X2.626Y-4.4724
X2.626Y-5.6535
X2.626Y-6.8346
X2.6457Y-4.0787
X2.6457Y-5.2598
X2.6457Y-6.4409
X2.6526Y-4.9006
X2.6526Y-6.0817
X2.6526Y-7.2628
X2.6575Y-4.374
X2.6575Y-5.5551
X2.6575Y-6.7362
X2.6634Y-5.0827
X2.6634Y-6.2638
X2.6634Y-7.4449
X2.6969Y-3.9705
X2.6969Y-4.0295
X2.6969Y-4.1181
X2.6969Y-5.1516
X2.6969Y-5.2106
X2.6969Y-5.2992
X2.6969Y-6.3327
X2.6969Y-6.3917
X2.6969Y-6.4803
X2.7165Y-4.1929
X2.7165Y-5.374
X2.7165Y-6.5551
X2.7231Y-4.2533
X2.7231Y-5.4344
X2.7231Y-6.6155
X2.7426Y-4.591
X2.7426Y-5.7721
X2.7426Y-6.9532
X2.7534Y-4.4621
X2.7534Y-5.6432
X2.7534Y-6.8243
X2.7559Y-4.4134
X2.7559Y-5.5945
X2.7559Y-6.7756
X2.7815Y-5.0276
X2.7815Y-5.0827
X2.7815Y-6.2087
X2.7815Y-6.2638
X2.7815Y-7.3898
X2.7815Y-7.4449
X2.8307Y-4.4124
X2.8307Y-5.5935
X2.8307Y-6.7746
X2.8425Y-4.1063
X2.8425Y-5.2874
X2.8425Y-6.4685
X2.8819Y-4.2972
X2.8819Y-5.4783
X2.8819Y-6.6594
X2.8996Y-5.0364
X2.8996Y-5.0827
X2.8996Y-6.2175
X2.8996Y-6.2638
X2.8996Y-7.3986
X2.8996Y-7.4449
X2.9114Y-4.1634
X2.9114Y-5.3445
X2.9114Y-6.5256
X2.9331Y-4.6378
X2.9331Y-5.8189
X2.9331Y-7.0
X2.9626Y-4.4291
X2.9626Y-5.6102
X2.9626Y-6.7913
X2.9685Y-4.1614
X2.9685Y-5.3425
X2.9685Y-6.5236
X2.9724Y-4.8996
X2.9724Y-6.0807
X2.9724Y-7.2618
X3.0039Y-4.0433
X3.0039Y-5.2244
X3.0039Y-6.4055
X3.0177Y-5.0364
X3.0177Y-5.0827
X3.0177Y-6.2175
X3.0177Y-6.2638
X3.0177Y-7.3986
X3.0177Y-7.4449
X3.0276Y-4.1614
X3.0276Y-5.3425
X3.0276Y-6.5236
X3.0394Y-4.7402
X3.0394Y-5.9213
X3.0394Y-7.1024
X3.0591Y-4.2913
X3.0591Y-5.4724
X3.0591Y-6.6535
X3.0748Y-4.6063
X3.0748Y-4.8179
X3.0748Y-5.7874
X3.0748Y-5.999
X3.0748Y-6.9685
X3.0748Y-7.1801
X3.0807Y-4.498
X3.0807Y-4.5591
X3.0807Y-5.6791
X3.0807Y-5.7402
X3.0807Y-6.8602
X3.0807Y-6.9213
X3.0866Y-4.1614
X3.0866Y-5.3425
X3.0866Y-6.5236
X3.0984Y-4.1102
X3.0984Y-5.2913
X3.0984Y-6.4724
X3.1024Y-4.6496
X3.1024Y-5.8307
X3.1024Y-7.0118
X3.1181Y-4.3583
X3.1181Y-5.5394
X3.1181Y-6.7205
X3.126Y-4.7549
X3.126Y-5.936
X3.126Y-7.1171
X3.1309Y-5.003
X3.1309Y-6.1841
X3.1309Y-7.3652
X3.1358Y-5.0827
X3.1358Y-6.2638
X3.1358Y-7.4449
X3.1398Y-4.6929
X3.1398Y-5.874
X3.1398Y-7.0551
X3.1457Y-4.1614
X3.1457Y-5.3425
X3.1457Y-6.5236
X3.1811Y-4.3543
X3.1811Y-5.5354
X3.1811Y-6.7165
X3.1909Y-4.6929
X3.1909Y-5.874
X3.1909Y-7.0551
X3.2156Y-4.5217
X3.2156Y-5.7028
X3.2156Y-6.8839
X3.2283Y-4.5807
X3.2283Y-5.7618
X3.2283Y-6.9429
X3.247Y-4.8809
X3.247Y-6.062
X3.247Y-7.2431
X3.248Y-4.1772
X3.248Y-4.2411
X3.248Y-4.3061
X3.248Y-5.3583
X3.248Y-5.4222
X3.248Y-5.4872
X3.248Y-6.5394
X3.248Y-6.6033
X3.248Y-6.6683
X3.2992Y-4.4291
X3.2992Y-4.5512
X3.2992Y-4.6299
X3.2992Y-4.6811
X3.2992Y-5.6102
X3.2992Y-5.7323
X3.2992Y-5.811
X3.2992Y-5.8622
X3.2992Y-6.7913
X3.2992Y-6.9134
X3.2992Y-6.9921
X3.2992Y-7.0433
X3.3012Y-4.3819
X3.3012Y-5.563
X3.3012Y-6.7441
X3.3189Y-4.3386
X3.3189Y-5.5197
X3.3189Y-6.7008
X3.3199Y-4.8091
X3.3199Y-5.9902
X3.3199Y-7.1713
X3.3406Y-3.9724
X3.3406Y-5.1535
X3.3406Y-6.3346
X3.3602Y-4.1398
X3.3602Y-4.1949
X3.3602Y-5.3209
X3.3602Y-5.376
X3.3602Y-6.502
X3.3602Y-6.5571
X3.3622Y-4.4094
X3.3622Y-4.4921
X3.3622Y-5.5906
X3.3622Y-5.6732
X3.3622Y-6.7717
X3.3622Y-6.8543
X3.3661Y-4.2913
X3.3661Y-5.4724
X3.3661Y-6.6535
X3.372Y-5.0827
X3.372Y-6.2638
X3.372Y-7.4449
X3.378Y-4.6309
X3.378Y-4.7313
X3.378Y-5.812
X3.378Y-5.9124
X3.378Y-6.9931
X3.378Y-7.0935
X3.3799Y-4.8287
X3.3799Y-4.9311
X3.3799Y-6.0098
X3.3799Y-6.1122
X3.3799Y-7.1909
X3.3799Y-7.2933
X3.4587Y-3.9724
X3.4587Y-5.1535
X3.4587Y-6.3346
X3.4902Y-5.0827
X3.4902Y-6.2638
X3.4902Y-7.4449
X3.5768Y-3.9724
X3.5768Y-5.1535
X3.5768Y-6.3346
X3.6083Y-5.0827
X3.6083Y-6.2638
X3.6083Y-7.4449
X3.6949Y-3.9724
X3.6949Y-5.1535
X3.6949Y-6.3346
X3.7264Y-5.0827
X3.7264Y-6.2638
X3.7264Y-7.4449
X3.813Y-3.9724
X3.813Y-5.1535
X3.813Y-6.3346
X3.8445Y-5.0827
X3.8445Y-6.2638
X3.8445Y-7.4449
X3.9016Y-3.9724
X3.9016Y-4.0906
X3.9016Y-4.2087
X3.9016Y-4.3268
X3.9016Y-4.4449
X3.9016Y-4.563
X3.9016Y-4.6811
X3.9016Y-4.7992
X3.9016Y-4.9173
X3.9016Y-5.0827
X3.9016Y-5.1535
X3.9016Y-5.2717
X3.9016Y-5.3898
X3.9016Y-5.5079
X3.9016Y-5.626
X3.9016Y-5.7441
X3.9016Y-5.8622
X3.9016Y-5.9803
X3.9016Y-6.0984
X3.9016Y-6.2638
X3.9016Y-6.3346
X3.9016Y-6.4528
X3.9016Y-6.5709
X3.9016Y-6.689
X3.9016Y-6.8071
X3.9016Y-6.9252
X3.9016Y-7.0433
X3.9016Y-7.1614
X3.9016Y-7.2795
X3.9016Y-7.4449
X3.9705Y-4.1516
X3.9705Y-4.2697
X3.9705Y-4.3878
X3.9705Y-4.5059
X3.9705Y-4.624
X3.9705Y-4.7421
X3.9705Y-4.8602
X3.9705Y-5.3327
X3.9705Y-5.4508
X3.9705Y-5.5689
X3.9705Y-5.687
X3.9705Y-5.8051
X3.9705Y-5.9232
X3.9705Y-6.0413
X3.9705Y-6.5138
X3.9705Y-6.6319
X3.9705Y-6.75
X3.9705Y-6.8681
X3.9705Y-6.9862
X3.9705Y-7.1043
X3.9705Y-7.2224
X4.1378Y-4.1772
X4.1378Y-5.3583
X4.1378Y-6.5394
X4.1516Y-3.9705
X4.1516Y-5.1516
X4.1516Y-6.3327
X4.1594Y-5.0827
X4.1594Y-6.2638
X4.1594Y-7.4449
X4.185Y-4.311
X4.185Y-5.4921
X4.185Y-6.6732
X4.187Y-4.7362
X4.187Y-5.9173
X4.187Y-7.0984
X4.2185Y-4.0974
X4.2185Y-5.2785
X4.2185Y-6.4596
X4.2697Y-3.9705
X4.2697Y-5.1516
X4.2697Y-6.3327
X4.2776Y-5.0827
X4.2776Y-6.2638
X4.2776Y-7.4449
X4.3051Y-4.1457
X4.3051Y-5.3268
X4.3051Y-6.5079
X4.3071Y-4.2087
X4.3071Y-4.2736
X4.3071Y-5.3898
X4.3071Y-5.4547
X4.3071Y-6.5709
X4.3071Y-6.6358
X4.3406Y-4.3012
X4.3406Y-5.4823
X4.3406Y-6.6634
X4.3445Y-4.3642
X4.3445Y-5.5453
X4.3445Y-6.7264
X4.3465Y-4.5551
X4.3465Y-5.7362
X4.3465Y-6.9173
X4.3504Y-4.2402
X4.3504Y-5.4213
X4.3504Y-6.6024
X4.3799Y-4.8031
X4.3799Y-5.9843
X4.3799Y-7.1654
X4.3878Y-3.9705
X4.3878Y-5.1516
X4.3878Y-6.3327
X4.3957Y-5.0827
X4.3957Y-6.2638
X4.3957Y-7.4449
X4.4134Y-4.1909
X4.4134Y-5.372
X4.4134Y-6.5531
X4.4449Y-4.7953
X4.4449Y-5.9764
X4.4449Y-7.1575
X4.4764Y-4.6181
X4.4764Y-4.687
X4.4764Y-5.7992
X4.4764Y-5.8681
X4.4764Y-6.9803
X4.4764Y-7.0492
X4.4774Y-4.3996
X4.4774Y-5.5807
X4.4774Y-6.7618
X4.4783Y-4.4291
X4.4783Y-5.6102
X4.4783Y-6.7913
X4.4882Y-4.2067
X4.4882Y-4.3071
X4.4882Y-5.3878
X4.4882Y-5.4882
X4.4882Y-6.5689
X4.4882Y-6.6693
X4.5059Y-3.9705
X4.5059Y-5.1516
X4.5059Y-6.3327
X4.5069Y-4.8219
X4.5069Y-6.003
X4.5069Y-7.1841
X4.5138Y-5.0827
X4.5138Y-6.2638
X4.5138Y-7.4449
X4.5512Y-4.0787
X4.5512Y-5.2598
X4.5512Y-6.4409
X4.5787Y-4.8189
X4.5787Y-6.0
X4.5787Y-7.1811
X4.5945Y-4.4724
X4.5945Y-5.6535
X4.5945Y-6.8346
X4.6142Y-4.0787
X4.6142Y-5.2598
X4.6142Y-6.4409
X4.6211Y-4.9006
X4.6211Y-6.0817
X4.6211Y-7.2628
X4.626Y-4.374
X4.626Y-5.5551
X4.626Y-6.7362
X4.6319Y-5.0827
X4.6319Y-6.2638
X4.6319Y-7.4449
X4.6654Y-3.9705
X4.6654Y-4.0295
X4.6654Y-4.1181
X4.6654Y-5.1516
X4.6654Y-5.2106
X4.6654Y-5.2992
X4.6654Y-6.3327
X4.6654Y-6.3917
X4.6654Y-6.4803
X4.685Y-4.1929
X4.685Y-5.374
X4.685Y-6.5551
X4.6916Y-4.2533
X4.6916Y-5.4344
X4.6916Y-6.6155
X4.7111Y-4.591
X4.7111Y-5.7721
X4.7111Y-6.9532
X4.7219Y-4.4621
X4.7219Y-5.6432
X4.7219Y-6.8243
X4.7244Y-4.4134
X4.7244Y-5.5945
X4.7244Y-6.7756
X4.75Y-5.0276
X4.75Y-5.0827
X4.75Y-6.2087
X4.75Y-6.2638
X4.75Y-7.3898
X4.75Y-7.4449
X4.7992Y-4.4124
X4.7992Y-5.5935
X4.7992Y-6.7746
X4.811Y-4.1063
X4.811Y-5.2874
X4.811Y-6.4685
X4.8504Y-4.2972
X4.8504Y-5.4783
X4.8504Y-6.6594
X4.8681Y-5.0364
X4.8681Y-5.0827
X4.8681Y-6.2175
X4.8681Y-6.2638
X4.8681Y-7.3986
X4.8681Y-7.4449
X4.8799Y-4.1634
X4.8799Y-5.3445
X4.8799Y-6.5256
X4.9016Y-4.6378
X4.9016Y-5.8189
X4.9016Y-7.0
X4.9311Y-4.4291
X4.9311Y-5.6102
X4.9311Y-6.7913
X4.937Y-4.1614
X4.937Y-5.3425
X4.937Y-6.5236
X4.9409Y-4.8996
X4.9409Y-6.0807
X4.9409Y-7.2618
X4.9724Y-4.0433
X4.9724Y-5.2244
X4.9724Y-6.4055
X4.9862Y-5.0364
X4.9862Y-5.0827
X4.9862Y-6.2175
X4.9862Y-6.2638
X4.9862Y-7.3986
X4.9862Y-7.4449
X4.9961Y-4.1614
X4.9961Y-5.3425
X4.9961Y-6.5236
X5.0079Y-4.7402
X5.0079Y-5.9213
X5.0079Y-7.1024
X5.0276Y-4.2913
X5.0276Y-5.4724
X5.0276Y-6.6535
X5.0433Y-4.6063
X5.0433Y-4.8179
X5.0433Y-5.7874
X5.0433Y-5.999
X5.0433Y-6.9685
X5.0433Y-7.1801
X5.0492Y-4.498
X5.0492Y-4.5591
X5.0492Y-5.6791
X5.0492Y-5.7402
X5.0492Y-6.8602
X5.0492Y-6.9213
X5.0551Y-4.1614
X5.0551Y-5.3425
X5.0551Y-6.5236
X5.0669Y-4.1102
X5.0669Y-5.2913
X5.0669Y-6.4724
X5.0709Y-4.6496
X5.0709Y-5.8307
X5.0709Y-7.0118
X5.0866Y-4.3583
X5.0866Y-5.5394
X5.0866Y-6.7205
X5.0945Y-4.7549
X5.0945Y-5.936
X5.0945Y-7.1171
X5.0994Y-5.003
X5.0994Y-6.1841
X5.0994Y-7.3652
X5.1043Y-5.0827
X5.1043Y-6.2638
X5.1043Y-7.4449
X5.1083Y-4.6929
X5.1083Y-5.874
X5.1083Y-7.0551
X5.1142Y-4.1614
X5.1142Y-5.3425
X5.1142Y-6.5236
X5.1496Y-4.3543
X5.1496Y-5.5354
X5.1496Y-6.7165
X5.1594Y-4.6929
X5.1594Y-5.874
X5.1594Y-7.0551
X5.1841Y-4.5217
X5.1841Y-5.7028
X5.1841Y-6.8839
X5.1969Y-4.5807
X5.1969Y-5.7618
X5.1969Y-6.9429
X5.2156Y-4.8809
X5.2156Y-6.062
X5.2156Y-7.2431
X5.2165Y-4.1772
X5.2165Y-4.2411
X5.2165Y-4.3061
X5.2165Y-5.3583
X5.2165Y-5.4222
X5.2165Y-5.4872
X5.2165Y-6.5394
X5.2165Y-6.6033
X5.2165Y-6.6683
X5.2677Y-4.4291
X5.2677Y-4.5512
X5.2677Y-4.6299
X5.2677Y-4.6811
X5.2677Y-5.6102
X5.2677Y-5.7323
X5.2677Y-5.811
X5.2677Y-5.8622
X5.2677Y-6.7913
X5.2677Y-6.9134
X5.2677Y-6.9921
X5.2677Y-7.0433
X5.2697Y-4.3819
X5.2697Y-5.563
X5.2697Y-6.7441
X5.2874Y-4.3386
X5.2874Y-5.5197
X5.2874Y-6.7008
X5.2884Y-4.8091
X5.2884Y-5.9902
X5.2884Y-7.1713
X5.3091Y-3.9724
X5.3091Y-5.1535
X5.3091Y-6.3346
X5.3287Y-4.1398
X5.3287Y-4.1949
X5.3287Y-5.3209
X5.3287Y-5.376
X5.3287Y-6.502
X5.3287Y-6.5571
X5.3307Y-4.4094
X5.3307Y-4.4921
X5.3307Y-5.5906
X5.3307Y-5.6732
X5.3307Y-6.7717
X5.3307Y-6.8543
X5.3346Y-4.2913
X5.3346Y-5.4724
X5.3346Y-6.6535
X5.3406Y-5.0827
X5.3406Y-6.2638
X5.3406Y-7.4449
X5.3465Y-4.6309
X5.3465Y-4.7313
X5.3465Y-5.812
X5.3465Y-5.9124
X5.3465Y-6.9931
X5.3465Y-7.0935
X5.3484Y-4.8287
X5.3484Y-4.9311
X5.3484Y-6.0098
X5.3484Y-6.1122
X5.3484Y-7.1909
X5.3484Y-7.2933
X5.4272Y-3.9724
X5.4272Y-5.1535
X5.4272Y-6.3346
X5.4587Y-5.0827
X5.4587Y-6.2638
X5.4587Y-7.4449
X5.5453Y-3.9724
X5.5453Y-5.1535
X5.5453Y-6.3346
X5.5768Y-5.0827
X5.5768Y-6.2638
X5.5768Y-7.4449
X5.6634Y-3.9724
X5.6634Y-5.1535
X5.6634Y-6.3346
X5.6949Y-5.0827
X5.6949Y-6.2638
X5.6949Y-7.4449
X5.7815Y-3.9724
X5.7815Y-5.1535
X5.7815Y-6.3346
X5.813Y-5.0827
X5.813Y-6.2638
X5.813Y-7.4449
X5.8701Y-3.9724
X5.8701Y-4.0906
X5.8701Y-4.2087
X5.8701Y-4.3268
X5.8701Y-4.4449
X5.8701Y-4.563
X5.8701Y-4.6811
X5.8701Y-4.7992
X5.8701Y-4.9173
X5.8701Y-5.0827
X5.8701Y-5.1535
X5.8701Y-5.2717
X5.8701Y-5.3898
X5.8701Y-5.5079
X5.8701Y-5.626
X5.8701Y-5.7441
X5.8701Y-5.8622
X5.8701Y-5.9803
X5.8701Y-6.0984
X5.8701Y-6.2638
X5.8701Y-6.3346
X5.8701Y-6.4528
X5.8701Y-6.5709
X5.8701Y-6.689
X5.8701Y-6.8071
X5.8701Y-6.9252
X5.8701Y-7.0433
X5.8701Y-7.1614
X5.8701Y-7.2795
X5.8701Y-7.4449
T2
X4.2382Y-6.7717
X4.2382Y-6.8051
X4.2382Y-6.8386
X4.2382Y-6.872
X4.2382Y-6.9055
X4.2382Y-6.939
X4.2382Y-6.9724
X4.2382Y-7.0059
X4.2913Y-6.7717
X4.2913Y-6.8051
X4.2913Y-6.8386
X4.2913Y-6.872
X4.2913Y-6.9055
X4.2913Y-6.939
X4.2913Y-6.9724
X4.2913Y-7.0059
X4.2382Y-5.5906
X4.2382Y-5.624
X4.2382Y-5.6575
X4.2382Y-5.6909
X4.2382Y-5.7244
X4.2382Y-5.7579
X4.2382Y-5.7913
X4.2382Y-5.8248
X4.2913Y-5.5906
X4.2913Y-5.624
X4.2913Y-5.6575
X4.2913Y-5.6909
X4.2913Y-5.7244
X4.2913Y-5.7579
X4.2913Y-5.7913
X4.2913Y-5.8248
X2.2697Y-4.4094
X2.2697Y-4.4429
X2.2697Y-4.4764
X2.2697Y-4.5098
X2.2697Y-4.5433
X2.2697Y-4.5768
X2.2697Y-4.6102
X2.2697Y-4.6437
X2.3228Y-4.4094
X2.3228Y-4.4429
X2.3228Y-4.4764
X2.3228Y-4.5098
X2.3228Y-4.5433
X2.3228Y-4.5768
X2.3228Y-4.6102
X2.3228Y-4.6437
X4.2382Y-4.4094
X4.2382Y-4.4429
X4.2382Y-4.4764
X4.2382Y-4.5098
X4.2382Y-4.5433
X4.2382Y-4.5768
X4.2382Y-4.6102
X4.2382Y-4.6437
X4.2913Y-4.4094
X4.2913Y-4.4429
X4.2913Y-4.4764
X4.2913Y-4.5098
X4.2913Y-4.5433
X4.2913Y-4.5768
X4.2913Y-4.6102
X4.2913Y-4.6437
X2.2697Y-6.7717
X2.2697Y-6.8051
X2.2697Y-6.8386
X2.2697Y-6.872
X2.2697Y-6.9055
X2.2697Y-6.939
X2.2697Y-6.9724
X2.2697Y-7.0059
X2.3228Y-6.7717
X2.3228Y-6.8051
X2.3228Y-6.8386
X2.3228Y-6.872
X2.3228Y-6.9055
X2.3228Y-6.939
X2.3228Y-6.9724
X2.3228Y-7.0059
X2.2697Y-5.5906
X2.2697Y-5.624
X2.2697Y-5.6575
X2.2697Y-5.6909
X2.2697Y-5.7244
X2.2697Y-5.7579
X2.2697Y-5.7913
X2.2697Y-5.8248
X2.3228Y-5.5906
X2.3228Y-5.624
X2.3228Y-5.6575
X2.3228Y-5.6909
X2.3228Y-5.7244
X2.3228Y-5.7579
X2.3228Y-5.7913
X2.3228Y-5.8248
T4
X3.4256Y-5.2622
X3.4256Y-5.3622
X3.4256Y-5.4622
X3.4256Y-5.5622
X3.4256Y-5.6622
X3.4256Y-5.7622
X3.4256Y-5.8622
X3.4256Y-5.9622
X3.4256Y-6.0622
X3.4256Y-6.1622
X3.5256Y-5.2622
X3.5256Y-5.3622
X3.5256Y-5.4622
X3.5256Y-5.5622
X3.5256Y-5.6622
X3.5256Y-5.7622
X3.5256Y-5.8622
X3.5256Y-5.9622
X3.5256Y-6.0622
X3.5256Y-6.1622
X3.4256Y-4.0811
X3.4256Y-4.1811
X3.4256Y-4.2811
X3.4256Y-4.3811
X3.4256Y-4.4811
X3.4256Y-4.5811
X3.4256Y-4.6811
X3.4256Y-4.7811
X3.4256Y-4.8811
X3.4256Y-4.9811
X3.5256Y-4.0811
X3.5256Y-4.1811
X3.5256Y-4.2811
X3.5256Y-4.3811
X3.5256Y-4.4811
X3.5256Y-4.5811
X3.5256Y-4.6811
X3.5256Y-4.7811
X3.5256Y-4.8811
X3.5256Y-4.9811
X5.3941Y-6.4433
X5.3941Y-6.5433
X5.3941Y-6.6433
X5.3941Y-6.7433
X5.3941Y-6.8433
X5.3941Y-6.9433
X5.3941Y-7.0433
X5.3941Y-7.1433
X5.3941Y-7.2433
X5.3941Y-7.3433
X5.4941Y-6.4433
X5.4941Y-6.5433
X5.4941Y-6.6433
X5.4941Y-6.7433
X5.4941Y-6.8433
X5.4941Y-6.9433
X5.4941Y-7.0433
X5.4941Y-7.1433
X5.4941Y-7.2433
X5.4941Y-7.3433
X3.4256Y-6.4433
X3.4256Y-6.5433
X3.4256Y-6.6433
X3.4256Y-6.7433
X3.4256Y-6.8433
X3.4256Y-6.9433
X3.4256Y-7.0433
X3.4256Y-7.1433
X3.4256Y-7.2433
X3.4256Y-7.3433
X3.5256Y-6.4433
X3.5256Y-6.5433
X3.5256Y-6.6433
X3.5256Y-6.7433
X3.5256Y-6.8433
X3.5256Y-6.9433
X3.5256Y-7.0433
X3.5256Y-7.1433
X3.5256Y-7.2433
X3.5256Y-7.3433
X5.3941Y-5.2622
X5.3941Y-5.3622
X5.3941Y-5.4622
X5.3941Y-5.5622
X5.3941Y-5.6622
X5.3941Y-5.7622
X5.3941Y-5.8622
X5.3941Y-5.9622
X5.3941Y-6.0622
X5.3941Y-6.1622
X5.4941Y-5.2622
X5.4941Y-5.3622
X5.4941Y-5.4622
X5.4941Y-5.5622
X5.4941Y-5.6622
X5.4941Y-5.7622
X5.4941Y-5.8622
X5.4941Y-5.9622
X5.4941Y-6.0622
X5.4941Y-6.1622
X5.3941Y-4.0811
X5.3941Y-4.1811
X5.3941Y-4.2811
X5.3941Y-4.3811
X5.3941Y-4.4811
X5.3941Y-4.5811
X5.3941Y-4.6811
X5.3941Y-4.7811
X5.3941Y-4.8811
X5.3941Y-4.9811
X5.4941Y-4.0811
X5.4941Y-4.1811
X5.4941Y-4.2811
X5.4941Y-4.3811
X5.4941Y-4.4811
X5.4941Y-4.5811
X5.4941Y-4.6811
X5.4941Y-4.7811
X5.4941Y-4.8811
X5.4941Y-4.9811
T5
X2.8563Y-4.5295
X2.8563Y-5.7106
X2.8563Y-6.8917
X4.8248Y-4.5295
X4.8248Y-5.7106
X4.8248Y-6.8917
T6
X5.2165Y-6.1811
X3.248Y-6.1811
X3.248Y-7.3622
X5.2165Y-5.0
X5.2165Y-4.0551
X5.2165Y-5.2362
X5.2165Y-7.3622
X3.248Y-5.2362
X5.2165Y-6.4173
X2.0866Y-6.1811
X3.248Y-6.4173
X2.0866Y-7.3622
X4.0551Y-5.0
X4.0551Y-4.0551
X4.0551Y-6.1811
X4.0551Y-5.2362
X4.0551Y-7.3622
X4.0551Y-6.4173
X3.248Y-5.0
X2.0866Y-5.2362
X2.0866Y-6.4173
X3.248Y-4.0551
X2.0866Y-5.0
X2.0866Y-4.0551
T3
G00X2.1669Y-6.7185
M15
G01X2.1354Y-6.7185
M16
G05
G00X2.1669Y-7.0591
M15
G01X2.1354Y-7.0591
M16
G05
G00X2.3138Y-6.7185
M15
G01X2.2547Y-6.7185
M16
G05
G00X2.3138Y-7.0591
M15
G01X2.2547Y-7.0591
M16
G05
G00X2.1669Y-5.5374
M15
G01X2.1354Y-5.5374
M16
G05
G00X2.1669Y-5.878
M15
G01X2.1354Y-5.878
M16
G05
G00X2.3138Y-5.5374
M15
G01X2.2547Y-5.5374
M16
G05
G00X2.3138Y-5.878
M15
G01X2.2547Y-5.878
M16
G05
G00X4.1354Y-6.7185
M15
G01X4.1039Y-6.7185
M16
G05
G00X4.1354Y-7.0591
M15
G01X4.1039Y-7.0591
M16
G05
G00X4.2823Y-6.7185
M15
G01X4.2232Y-6.7185
M16
G05
G00X4.2823Y-7.0591
M15
G01X4.2232Y-7.0591
M16
G05
G00X4.1354Y-5.5374
M15
G01X4.1039Y-5.5374
M16
G05
G00X4.1354Y-5.878
M15
G01X4.1039Y-5.878
M16
G05
G00X4.2823Y-5.5374
M15
G01X4.2232Y-5.5374
M16
G05
G00X4.2823Y-5.878
M15
G01X4.2232Y-5.878
M16
G05
G00X2.1669Y-4.3563
M15
G01X2.1354Y-4.3563
M16
G05
G00X2.1669Y-4.6969
M15
G01X2.1354Y-4.6969
M16
G05
G00X2.3138Y-4.3563
M15
G01X2.2547Y-4.3563
M16
G05
G00X2.3138Y-4.6969
M15
G01X2.2547Y-4.6969
M16
G05
G00X4.1354Y-4.3563
M15
G01X4.1039Y-4.3563
M16
G05
G00X4.1354Y-4.6969
M15
G01X4.1039Y-4.6969
M16
G05
G00X4.2823Y-4.3563
M15
G01X4.2232Y-4.3563
M16
G05
G00X4.2823Y-4.6969
M15
G01X4.2232Y-4.6969
M16
G05
T0
M30
