G04 #@! TF.GenerationSoftware,KiCad,Pcbnew,(5.1.10-1-10_14)*
G04 #@! TF.CreationDate,2021-09-04T17:53:57+09:00*
G04 #@! TF.ProjectId,ft2232_jtag_tap,66743232-3332-45f6-9a74-61675f746170,rev?*
G04 #@! TF.SameCoordinates,Original*
G04 #@! TF.FileFunction,Legend,Bot*
G04 #@! TF.FilePolarity,Positive*
%FSLAX46Y46*%
G04 Gerber Fmt 4.6, Leading zero omitted, Abs format (unit mm)*
G04 Created by KiCad (PCBNEW (5.1.10-1-10_14)) date 2021-09-04 17:53:57*
%MOMM*%
%LPD*%
G01*
G04 APERTURE LIST*
%ADD10C,0.150000*%
%ADD11C,0.120000*%
G04 APERTURE END LIST*
D10*
X143448714Y-140038476D02*
X144305857Y-140038476D01*
X144401095Y-139990857D01*
X144448714Y-139895619D01*
X144448714Y-139848000D01*
X143115380Y-140038476D02*
X143163000Y-139990857D01*
X143210619Y-140038476D01*
X143163000Y-140086095D01*
X143115380Y-140038476D01*
X143210619Y-140038476D01*
X143448714Y-140371809D02*
X143448714Y-140752761D01*
X143115380Y-140514666D02*
X143972523Y-140514666D01*
X144067761Y-140562285D01*
X144115380Y-140657523D01*
X144115380Y-140752761D01*
X144115380Y-141514666D02*
X143591571Y-141514666D01*
X143496333Y-141467047D01*
X143448714Y-141371809D01*
X143448714Y-141181333D01*
X143496333Y-141086095D01*
X144067761Y-141514666D02*
X144115380Y-141419428D01*
X144115380Y-141181333D01*
X144067761Y-141086095D01*
X143972523Y-141038476D01*
X143877285Y-141038476D01*
X143782047Y-141086095D01*
X143734428Y-141181333D01*
X143734428Y-141419428D01*
X143686809Y-141514666D01*
X143448714Y-142419428D02*
X144258238Y-142419428D01*
X144353476Y-142371809D01*
X144401095Y-142324190D01*
X144448714Y-142228952D01*
X144448714Y-142086095D01*
X144401095Y-141990857D01*
X144067761Y-142419428D02*
X144115380Y-142324190D01*
X144115380Y-142133714D01*
X144067761Y-142038476D01*
X144020142Y-141990857D01*
X143924904Y-141943238D01*
X143639190Y-141943238D01*
X143543952Y-141990857D01*
X143496333Y-142038476D01*
X143448714Y-142133714D01*
X143448714Y-142324190D01*
X143496333Y-142419428D01*
X144115380Y-144086095D02*
X143591571Y-144086095D01*
X143496333Y-144038476D01*
X143448714Y-143943238D01*
X143448714Y-143752761D01*
X143496333Y-143657523D01*
X144067761Y-144086095D02*
X144115380Y-143990857D01*
X144115380Y-143752761D01*
X144067761Y-143657523D01*
X143972523Y-143609904D01*
X143877285Y-143609904D01*
X143782047Y-143657523D01*
X143734428Y-143752761D01*
X143734428Y-143990857D01*
X143686809Y-144086095D01*
X144115380Y-144990857D02*
X143115380Y-144990857D01*
X144067761Y-144990857D02*
X144115380Y-144895619D01*
X144115380Y-144705142D01*
X144067761Y-144609904D01*
X144020142Y-144562285D01*
X143924904Y-144514666D01*
X143639190Y-144514666D01*
X143543952Y-144562285D01*
X143496333Y-144609904D01*
X143448714Y-144705142D01*
X143448714Y-144895619D01*
X143496333Y-144990857D01*
X144115380Y-145895619D02*
X143591571Y-145895619D01*
X143496333Y-145848000D01*
X143448714Y-145752761D01*
X143448714Y-145562285D01*
X143496333Y-145467047D01*
X144067761Y-145895619D02*
X144115380Y-145800380D01*
X144115380Y-145562285D01*
X144067761Y-145467047D01*
X143972523Y-145419428D01*
X143877285Y-145419428D01*
X143782047Y-145467047D01*
X143734428Y-145562285D01*
X143734428Y-145800380D01*
X143686809Y-145895619D01*
X143448714Y-146371809D02*
X144448714Y-146371809D01*
X143496333Y-146371809D02*
X143448714Y-146467047D01*
X143448714Y-146657523D01*
X143496333Y-146752761D01*
X143543952Y-146800380D01*
X143639190Y-146848000D01*
X143924904Y-146848000D01*
X144020142Y-146800380D01*
X144067761Y-146752761D01*
X144115380Y-146657523D01*
X144115380Y-146467047D01*
X144067761Y-146371809D01*
X143448714Y-147133714D02*
X143448714Y-147514666D01*
X143115380Y-147276571D02*
X143972523Y-147276571D01*
X144067761Y-147324190D01*
X144115380Y-147419428D01*
X144115380Y-147514666D01*
X144067761Y-148228952D02*
X144115380Y-148133714D01*
X144115380Y-147943238D01*
X144067761Y-147848000D01*
X143972523Y-147800380D01*
X143591571Y-147800380D01*
X143496333Y-147848000D01*
X143448714Y-147943238D01*
X143448714Y-148133714D01*
X143496333Y-148228952D01*
X143591571Y-148276571D01*
X143686809Y-148276571D01*
X143782047Y-147800380D01*
X144115380Y-148705142D02*
X143448714Y-148705142D01*
X143639190Y-148705142D02*
X143543952Y-148752761D01*
X143496333Y-148800380D01*
X143448714Y-148895619D01*
X143448714Y-148990857D01*
X143448714Y-149990857D02*
X144115380Y-150228952D01*
X143448714Y-150467047D01*
X144115380Y-151371809D02*
X144115380Y-150800380D01*
X144115380Y-151086095D02*
X143115380Y-151086095D01*
X143258238Y-150990857D01*
X143353476Y-150895619D01*
X143401095Y-150800380D01*
X144020142Y-151800380D02*
X144067761Y-151848000D01*
X144115380Y-151800380D01*
X144067761Y-151752761D01*
X144020142Y-151800380D01*
X144115380Y-151800380D01*
X143115380Y-152467047D02*
X143115380Y-152562285D01*
X143163000Y-152657523D01*
X143210619Y-152705142D01*
X143305857Y-152752761D01*
X143496333Y-152800380D01*
X143734428Y-152800380D01*
X143924904Y-152752761D01*
X144020142Y-152705142D01*
X144067761Y-152657523D01*
X144115380Y-152562285D01*
X144115380Y-152467047D01*
X144067761Y-152371809D01*
X144020142Y-152324190D01*
X143924904Y-152276571D01*
X143734428Y-152228952D01*
X143496333Y-152228952D01*
X143305857Y-152276571D01*
X143210619Y-152324190D01*
X143163000Y-152371809D01*
X143115380Y-152467047D01*
X144496333Y-153514666D02*
X144448714Y-153467047D01*
X144305857Y-153371809D01*
X144210619Y-153324190D01*
X144067761Y-153276571D01*
X143829666Y-153228952D01*
X143639190Y-153228952D01*
X143401095Y-153276571D01*
X143258238Y-153324190D01*
X143163000Y-153371809D01*
X143020142Y-153467047D01*
X142972523Y-153514666D01*
X143210619Y-153848000D02*
X143163000Y-153895619D01*
X143115380Y-153990857D01*
X143115380Y-154228952D01*
X143163000Y-154324190D01*
X143210619Y-154371809D01*
X143305857Y-154419428D01*
X143401095Y-154419428D01*
X143543952Y-154371809D01*
X144115380Y-153800380D01*
X144115380Y-154419428D01*
X143115380Y-155038476D02*
X143115380Y-155133714D01*
X143163000Y-155228952D01*
X143210619Y-155276571D01*
X143305857Y-155324190D01*
X143496333Y-155371809D01*
X143734428Y-155371809D01*
X143924904Y-155324190D01*
X144020142Y-155276571D01*
X144067761Y-155228952D01*
X144115380Y-155133714D01*
X144115380Y-155038476D01*
X144067761Y-154943238D01*
X144020142Y-154895619D01*
X143924904Y-154848000D01*
X143734428Y-154800380D01*
X143496333Y-154800380D01*
X143305857Y-154848000D01*
X143210619Y-154895619D01*
X143163000Y-154943238D01*
X143115380Y-155038476D01*
X143210619Y-155752761D02*
X143163000Y-155800380D01*
X143115380Y-155895619D01*
X143115380Y-156133714D01*
X143163000Y-156228952D01*
X143210619Y-156276571D01*
X143305857Y-156324190D01*
X143401095Y-156324190D01*
X143543952Y-156276571D01*
X144115380Y-155705142D01*
X144115380Y-156324190D01*
X144115380Y-157276571D02*
X144115380Y-156705142D01*
X144115380Y-156990857D02*
X143115380Y-156990857D01*
X143258238Y-156895619D01*
X143353476Y-156800380D01*
X143401095Y-156705142D01*
X144020142Y-157705142D02*
X144067761Y-157752761D01*
X144115380Y-157705142D01*
X144067761Y-157657523D01*
X144020142Y-157705142D01*
X144115380Y-157705142D01*
X143115380Y-158371809D02*
X143115380Y-158467047D01*
X143163000Y-158562285D01*
X143210619Y-158609904D01*
X143305857Y-158657523D01*
X143496333Y-158705142D01*
X143734428Y-158705142D01*
X143924904Y-158657523D01*
X144020142Y-158609904D01*
X144067761Y-158562285D01*
X144115380Y-158467047D01*
X144115380Y-158371809D01*
X144067761Y-158276571D01*
X144020142Y-158228952D01*
X143924904Y-158181333D01*
X143734428Y-158133714D01*
X143496333Y-158133714D01*
X143305857Y-158181333D01*
X143210619Y-158228952D01*
X143163000Y-158276571D01*
X143115380Y-158371809D01*
X144115380Y-159181333D02*
X144115380Y-159371809D01*
X144067761Y-159467047D01*
X144020142Y-159514666D01*
X143877285Y-159609904D01*
X143686809Y-159657523D01*
X143305857Y-159657523D01*
X143210619Y-159609904D01*
X143163000Y-159562285D01*
X143115380Y-159467047D01*
X143115380Y-159276571D01*
X143163000Y-159181333D01*
X143210619Y-159133714D01*
X143305857Y-159086095D01*
X143543952Y-159086095D01*
X143639190Y-159133714D01*
X143686809Y-159181333D01*
X143734428Y-159276571D01*
X143734428Y-159467047D01*
X143686809Y-159562285D01*
X143639190Y-159609904D01*
X143543952Y-159657523D01*
X144020142Y-160086095D02*
X144067761Y-160133714D01*
X144115380Y-160086095D01*
X144067761Y-160038476D01*
X144020142Y-160086095D01*
X144115380Y-160086095D01*
X143115380Y-160752761D02*
X143115380Y-160848000D01*
X143163000Y-160943238D01*
X143210619Y-160990857D01*
X143305857Y-161038476D01*
X143496333Y-161086095D01*
X143734428Y-161086095D01*
X143924904Y-161038476D01*
X144020142Y-160990857D01*
X144067761Y-160943238D01*
X144115380Y-160848000D01*
X144115380Y-160752761D01*
X144067761Y-160657523D01*
X144020142Y-160609904D01*
X143924904Y-160562285D01*
X143734428Y-160514666D01*
X143496333Y-160514666D01*
X143305857Y-160562285D01*
X143210619Y-160609904D01*
X143163000Y-160657523D01*
X143115380Y-160752761D01*
X143115380Y-161419428D02*
X143115380Y-162038476D01*
X143496333Y-161705142D01*
X143496333Y-161848000D01*
X143543952Y-161943238D01*
X143591571Y-161990857D01*
X143686809Y-162038476D01*
X143924904Y-162038476D01*
X144020142Y-161990857D01*
X144067761Y-161943238D01*
X144115380Y-161848000D01*
X144115380Y-161562285D01*
X144067761Y-161467047D01*
X144020142Y-161419428D01*
X144496333Y-162371809D02*
X144448714Y-162419428D01*
X144305857Y-162514666D01*
X144210619Y-162562285D01*
X144067761Y-162609904D01*
X143829666Y-162657523D01*
X143639190Y-162657523D01*
X143401095Y-162609904D01*
X143258238Y-162562285D01*
X143163000Y-162514666D01*
X143020142Y-162419428D01*
X142972523Y-162371809D01*
X145289190Y-147681333D02*
X145241571Y-147633714D01*
X145193952Y-147538476D01*
X145193952Y-147443238D01*
X145241571Y-147348000D01*
X145289190Y-147300380D01*
X145384428Y-147252761D01*
X145479666Y-147252761D01*
X145574904Y-147300380D01*
X145622523Y-147348000D01*
X145670142Y-147443238D01*
X145670142Y-147538476D01*
X145622523Y-147633714D01*
X145574904Y-147681333D01*
X145193952Y-147681333D02*
X145574904Y-147681333D01*
X145622523Y-147728952D01*
X145622523Y-147776571D01*
X145574904Y-147871809D01*
X145479666Y-147919428D01*
X145241571Y-147919428D01*
X145098714Y-147824190D01*
X145003476Y-147681333D01*
X144955857Y-147490857D01*
X145003476Y-147300380D01*
X145098714Y-147157523D01*
X145241571Y-147062285D01*
X145432047Y-147014666D01*
X145622523Y-147062285D01*
X145765380Y-147157523D01*
X145860619Y-147300380D01*
X145908238Y-147490857D01*
X145860619Y-147681333D01*
X145765380Y-147824190D01*
X145098714Y-148205142D02*
X145098714Y-148586095D01*
X144765380Y-148348000D02*
X145622523Y-148348000D01*
X145717761Y-148395619D01*
X145765380Y-148490857D01*
X145765380Y-148586095D01*
X145098714Y-148919428D02*
X145765380Y-148919428D01*
X145193952Y-148919428D02*
X145146333Y-148967047D01*
X145098714Y-149062285D01*
X145098714Y-149205142D01*
X145146333Y-149300380D01*
X145241571Y-149348000D01*
X145765380Y-149348000D01*
X145765380Y-149824190D02*
X145098714Y-149824190D01*
X144765380Y-149824190D02*
X144813000Y-149776571D01*
X144860619Y-149824190D01*
X144813000Y-149871809D01*
X144765380Y-149824190D01*
X144860619Y-149824190D01*
X145717761Y-150252761D02*
X145765380Y-150348000D01*
X145765380Y-150538476D01*
X145717761Y-150633714D01*
X145622523Y-150681333D01*
X145574904Y-150681333D01*
X145479666Y-150633714D01*
X145432047Y-150538476D01*
X145432047Y-150395619D01*
X145384428Y-150300380D01*
X145289190Y-150252761D01*
X145241571Y-150252761D01*
X145146333Y-150300380D01*
X145098714Y-150395619D01*
X145098714Y-150538476D01*
X145146333Y-150633714D01*
X145765380Y-151109904D02*
X144765380Y-151109904D01*
X145765380Y-151538476D02*
X145241571Y-151538476D01*
X145146333Y-151490857D01*
X145098714Y-151395619D01*
X145098714Y-151252761D01*
X145146333Y-151157523D01*
X145193952Y-151109904D01*
X145765380Y-152014666D02*
X145098714Y-152014666D01*
X144765380Y-152014666D02*
X144813000Y-151967047D01*
X144860619Y-152014666D01*
X144813000Y-152062285D01*
X144765380Y-152014666D01*
X144860619Y-152014666D01*
X145098714Y-152490857D02*
X145765380Y-152490857D01*
X145193952Y-152490857D02*
X145146333Y-152538476D01*
X145098714Y-152633714D01*
X145098714Y-152776571D01*
X145146333Y-152871809D01*
X145241571Y-152919428D01*
X145765380Y-152919428D01*
X145765380Y-153824190D02*
X145241571Y-153824190D01*
X145146333Y-153776571D01*
X145098714Y-153681333D01*
X145098714Y-153490857D01*
X145146333Y-153395619D01*
X145717761Y-153824190D02*
X145765380Y-153728952D01*
X145765380Y-153490857D01*
X145717761Y-153395619D01*
X145622523Y-153348000D01*
X145527285Y-153348000D01*
X145432047Y-153395619D01*
X145384428Y-153490857D01*
X145384428Y-153728952D01*
X145336809Y-153824190D01*
X145098714Y-154728952D02*
X145908238Y-154728952D01*
X146003476Y-154681333D01*
X146051095Y-154633714D01*
X146098714Y-154538476D01*
X146098714Y-154395619D01*
X146051095Y-154300380D01*
X145717761Y-154728952D02*
X145765380Y-154633714D01*
X145765380Y-154443238D01*
X145717761Y-154348000D01*
X145670142Y-154300380D01*
X145574904Y-154252761D01*
X145289190Y-154252761D01*
X145193952Y-154300380D01*
X145146333Y-154348000D01*
X145098714Y-154443238D01*
X145098714Y-154633714D01*
X145146333Y-154728952D01*
X145765380Y-155633714D02*
X145241571Y-155633714D01*
X145146333Y-155586095D01*
X145098714Y-155490857D01*
X145098714Y-155300380D01*
X145146333Y-155205142D01*
X145717761Y-155633714D02*
X145765380Y-155538476D01*
X145765380Y-155300380D01*
X145717761Y-155205142D01*
X145622523Y-155157523D01*
X145527285Y-155157523D01*
X145432047Y-155205142D01*
X145384428Y-155300380D01*
X145384428Y-155538476D01*
X145336809Y-155633714D01*
X93448714Y-140038476D02*
X94305857Y-140038476D01*
X94401095Y-139990857D01*
X94448714Y-139895619D01*
X94448714Y-139848000D01*
X93115380Y-140038476D02*
X93163000Y-139990857D01*
X93210619Y-140038476D01*
X93163000Y-140086095D01*
X93115380Y-140038476D01*
X93210619Y-140038476D01*
X93448714Y-140371809D02*
X93448714Y-140752761D01*
X93115380Y-140514666D02*
X93972523Y-140514666D01*
X94067761Y-140562285D01*
X94115380Y-140657523D01*
X94115380Y-140752761D01*
X94115380Y-141514666D02*
X93591571Y-141514666D01*
X93496333Y-141467047D01*
X93448714Y-141371809D01*
X93448714Y-141181333D01*
X93496333Y-141086095D01*
X94067761Y-141514666D02*
X94115380Y-141419428D01*
X94115380Y-141181333D01*
X94067761Y-141086095D01*
X93972523Y-141038476D01*
X93877285Y-141038476D01*
X93782047Y-141086095D01*
X93734428Y-141181333D01*
X93734428Y-141419428D01*
X93686809Y-141514666D01*
X93448714Y-142419428D02*
X94258238Y-142419428D01*
X94353476Y-142371809D01*
X94401095Y-142324190D01*
X94448714Y-142228952D01*
X94448714Y-142086095D01*
X94401095Y-141990857D01*
X94067761Y-142419428D02*
X94115380Y-142324190D01*
X94115380Y-142133714D01*
X94067761Y-142038476D01*
X94020142Y-141990857D01*
X93924904Y-141943238D01*
X93639190Y-141943238D01*
X93543952Y-141990857D01*
X93496333Y-142038476D01*
X93448714Y-142133714D01*
X93448714Y-142324190D01*
X93496333Y-142419428D01*
X94115380Y-144086095D02*
X93591571Y-144086095D01*
X93496333Y-144038476D01*
X93448714Y-143943238D01*
X93448714Y-143752761D01*
X93496333Y-143657523D01*
X94067761Y-144086095D02*
X94115380Y-143990857D01*
X94115380Y-143752761D01*
X94067761Y-143657523D01*
X93972523Y-143609904D01*
X93877285Y-143609904D01*
X93782047Y-143657523D01*
X93734428Y-143752761D01*
X93734428Y-143990857D01*
X93686809Y-144086095D01*
X94115380Y-144990857D02*
X93115380Y-144990857D01*
X94067761Y-144990857D02*
X94115380Y-144895619D01*
X94115380Y-144705142D01*
X94067761Y-144609904D01*
X94020142Y-144562285D01*
X93924904Y-144514666D01*
X93639190Y-144514666D01*
X93543952Y-144562285D01*
X93496333Y-144609904D01*
X93448714Y-144705142D01*
X93448714Y-144895619D01*
X93496333Y-144990857D01*
X94115380Y-145895619D02*
X93591571Y-145895619D01*
X93496333Y-145848000D01*
X93448714Y-145752761D01*
X93448714Y-145562285D01*
X93496333Y-145467047D01*
X94067761Y-145895619D02*
X94115380Y-145800380D01*
X94115380Y-145562285D01*
X94067761Y-145467047D01*
X93972523Y-145419428D01*
X93877285Y-145419428D01*
X93782047Y-145467047D01*
X93734428Y-145562285D01*
X93734428Y-145800380D01*
X93686809Y-145895619D01*
X93448714Y-146371809D02*
X94448714Y-146371809D01*
X93496333Y-146371809D02*
X93448714Y-146467047D01*
X93448714Y-146657523D01*
X93496333Y-146752761D01*
X93543952Y-146800380D01*
X93639190Y-146848000D01*
X93924904Y-146848000D01*
X94020142Y-146800380D01*
X94067761Y-146752761D01*
X94115380Y-146657523D01*
X94115380Y-146467047D01*
X94067761Y-146371809D01*
X93448714Y-147133714D02*
X93448714Y-147514666D01*
X93115380Y-147276571D02*
X93972523Y-147276571D01*
X94067761Y-147324190D01*
X94115380Y-147419428D01*
X94115380Y-147514666D01*
X94067761Y-148228952D02*
X94115380Y-148133714D01*
X94115380Y-147943238D01*
X94067761Y-147848000D01*
X93972523Y-147800380D01*
X93591571Y-147800380D01*
X93496333Y-147848000D01*
X93448714Y-147943238D01*
X93448714Y-148133714D01*
X93496333Y-148228952D01*
X93591571Y-148276571D01*
X93686809Y-148276571D01*
X93782047Y-147800380D01*
X94115380Y-148705142D02*
X93448714Y-148705142D01*
X93639190Y-148705142D02*
X93543952Y-148752761D01*
X93496333Y-148800380D01*
X93448714Y-148895619D01*
X93448714Y-148990857D01*
X93448714Y-149990857D02*
X94115380Y-150228952D01*
X93448714Y-150467047D01*
X94115380Y-151371809D02*
X94115380Y-150800380D01*
X94115380Y-151086095D02*
X93115380Y-151086095D01*
X93258238Y-150990857D01*
X93353476Y-150895619D01*
X93401095Y-150800380D01*
X94020142Y-151800380D02*
X94067761Y-151848000D01*
X94115380Y-151800380D01*
X94067761Y-151752761D01*
X94020142Y-151800380D01*
X94115380Y-151800380D01*
X93115380Y-152467047D02*
X93115380Y-152562285D01*
X93163000Y-152657523D01*
X93210619Y-152705142D01*
X93305857Y-152752761D01*
X93496333Y-152800380D01*
X93734428Y-152800380D01*
X93924904Y-152752761D01*
X94020142Y-152705142D01*
X94067761Y-152657523D01*
X94115380Y-152562285D01*
X94115380Y-152467047D01*
X94067761Y-152371809D01*
X94020142Y-152324190D01*
X93924904Y-152276571D01*
X93734428Y-152228952D01*
X93496333Y-152228952D01*
X93305857Y-152276571D01*
X93210619Y-152324190D01*
X93163000Y-152371809D01*
X93115380Y-152467047D01*
X94496333Y-153514666D02*
X94448714Y-153467047D01*
X94305857Y-153371809D01*
X94210619Y-153324190D01*
X94067761Y-153276571D01*
X93829666Y-153228952D01*
X93639190Y-153228952D01*
X93401095Y-153276571D01*
X93258238Y-153324190D01*
X93163000Y-153371809D01*
X93020142Y-153467047D01*
X92972523Y-153514666D01*
X93210619Y-153848000D02*
X93163000Y-153895619D01*
X93115380Y-153990857D01*
X93115380Y-154228952D01*
X93163000Y-154324190D01*
X93210619Y-154371809D01*
X93305857Y-154419428D01*
X93401095Y-154419428D01*
X93543952Y-154371809D01*
X94115380Y-153800380D01*
X94115380Y-154419428D01*
X93115380Y-155038476D02*
X93115380Y-155133714D01*
X93163000Y-155228952D01*
X93210619Y-155276571D01*
X93305857Y-155324190D01*
X93496333Y-155371809D01*
X93734428Y-155371809D01*
X93924904Y-155324190D01*
X94020142Y-155276571D01*
X94067761Y-155228952D01*
X94115380Y-155133714D01*
X94115380Y-155038476D01*
X94067761Y-154943238D01*
X94020142Y-154895619D01*
X93924904Y-154848000D01*
X93734428Y-154800380D01*
X93496333Y-154800380D01*
X93305857Y-154848000D01*
X93210619Y-154895619D01*
X93163000Y-154943238D01*
X93115380Y-155038476D01*
X93210619Y-155752761D02*
X93163000Y-155800380D01*
X93115380Y-155895619D01*
X93115380Y-156133714D01*
X93163000Y-156228952D01*
X93210619Y-156276571D01*
X93305857Y-156324190D01*
X93401095Y-156324190D01*
X93543952Y-156276571D01*
X94115380Y-155705142D01*
X94115380Y-156324190D01*
X94115380Y-157276571D02*
X94115380Y-156705142D01*
X94115380Y-156990857D02*
X93115380Y-156990857D01*
X93258238Y-156895619D01*
X93353476Y-156800380D01*
X93401095Y-156705142D01*
X94020142Y-157705142D02*
X94067761Y-157752761D01*
X94115380Y-157705142D01*
X94067761Y-157657523D01*
X94020142Y-157705142D01*
X94115380Y-157705142D01*
X93115380Y-158371809D02*
X93115380Y-158467047D01*
X93163000Y-158562285D01*
X93210619Y-158609904D01*
X93305857Y-158657523D01*
X93496333Y-158705142D01*
X93734428Y-158705142D01*
X93924904Y-158657523D01*
X94020142Y-158609904D01*
X94067761Y-158562285D01*
X94115380Y-158467047D01*
X94115380Y-158371809D01*
X94067761Y-158276571D01*
X94020142Y-158228952D01*
X93924904Y-158181333D01*
X93734428Y-158133714D01*
X93496333Y-158133714D01*
X93305857Y-158181333D01*
X93210619Y-158228952D01*
X93163000Y-158276571D01*
X93115380Y-158371809D01*
X94115380Y-159181333D02*
X94115380Y-159371809D01*
X94067761Y-159467047D01*
X94020142Y-159514666D01*
X93877285Y-159609904D01*
X93686809Y-159657523D01*
X93305857Y-159657523D01*
X93210619Y-159609904D01*
X93163000Y-159562285D01*
X93115380Y-159467047D01*
X93115380Y-159276571D01*
X93163000Y-159181333D01*
X93210619Y-159133714D01*
X93305857Y-159086095D01*
X93543952Y-159086095D01*
X93639190Y-159133714D01*
X93686809Y-159181333D01*
X93734428Y-159276571D01*
X93734428Y-159467047D01*
X93686809Y-159562285D01*
X93639190Y-159609904D01*
X93543952Y-159657523D01*
X94020142Y-160086095D02*
X94067761Y-160133714D01*
X94115380Y-160086095D01*
X94067761Y-160038476D01*
X94020142Y-160086095D01*
X94115380Y-160086095D01*
X93115380Y-160752761D02*
X93115380Y-160848000D01*
X93163000Y-160943238D01*
X93210619Y-160990857D01*
X93305857Y-161038476D01*
X93496333Y-161086095D01*
X93734428Y-161086095D01*
X93924904Y-161038476D01*
X94020142Y-160990857D01*
X94067761Y-160943238D01*
X94115380Y-160848000D01*
X94115380Y-160752761D01*
X94067761Y-160657523D01*
X94020142Y-160609904D01*
X93924904Y-160562285D01*
X93734428Y-160514666D01*
X93496333Y-160514666D01*
X93305857Y-160562285D01*
X93210619Y-160609904D01*
X93163000Y-160657523D01*
X93115380Y-160752761D01*
X93115380Y-161419428D02*
X93115380Y-162038476D01*
X93496333Y-161705142D01*
X93496333Y-161848000D01*
X93543952Y-161943238D01*
X93591571Y-161990857D01*
X93686809Y-162038476D01*
X93924904Y-162038476D01*
X94020142Y-161990857D01*
X94067761Y-161943238D01*
X94115380Y-161848000D01*
X94115380Y-161562285D01*
X94067761Y-161467047D01*
X94020142Y-161419428D01*
X94496333Y-162371809D02*
X94448714Y-162419428D01*
X94305857Y-162514666D01*
X94210619Y-162562285D01*
X94067761Y-162609904D01*
X93829666Y-162657523D01*
X93639190Y-162657523D01*
X93401095Y-162609904D01*
X93258238Y-162562285D01*
X93163000Y-162514666D01*
X93020142Y-162419428D01*
X92972523Y-162371809D01*
X95289190Y-147681333D02*
X95241571Y-147633714D01*
X95193952Y-147538476D01*
X95193952Y-147443238D01*
X95241571Y-147348000D01*
X95289190Y-147300380D01*
X95384428Y-147252761D01*
X95479666Y-147252761D01*
X95574904Y-147300380D01*
X95622523Y-147348000D01*
X95670142Y-147443238D01*
X95670142Y-147538476D01*
X95622523Y-147633714D01*
X95574904Y-147681333D01*
X95193952Y-147681333D02*
X95574904Y-147681333D01*
X95622523Y-147728952D01*
X95622523Y-147776571D01*
X95574904Y-147871809D01*
X95479666Y-147919428D01*
X95241571Y-147919428D01*
X95098714Y-147824190D01*
X95003476Y-147681333D01*
X94955857Y-147490857D01*
X95003476Y-147300380D01*
X95098714Y-147157523D01*
X95241571Y-147062285D01*
X95432047Y-147014666D01*
X95622523Y-147062285D01*
X95765380Y-147157523D01*
X95860619Y-147300380D01*
X95908238Y-147490857D01*
X95860619Y-147681333D01*
X95765380Y-147824190D01*
X95098714Y-148205142D02*
X95098714Y-148586095D01*
X94765380Y-148348000D02*
X95622523Y-148348000D01*
X95717761Y-148395619D01*
X95765380Y-148490857D01*
X95765380Y-148586095D01*
X95098714Y-148919428D02*
X95765380Y-148919428D01*
X95193952Y-148919428D02*
X95146333Y-148967047D01*
X95098714Y-149062285D01*
X95098714Y-149205142D01*
X95146333Y-149300380D01*
X95241571Y-149348000D01*
X95765380Y-149348000D01*
X95765380Y-149824190D02*
X95098714Y-149824190D01*
X94765380Y-149824190D02*
X94813000Y-149776571D01*
X94860619Y-149824190D01*
X94813000Y-149871809D01*
X94765380Y-149824190D01*
X94860619Y-149824190D01*
X95717761Y-150252761D02*
X95765380Y-150348000D01*
X95765380Y-150538476D01*
X95717761Y-150633714D01*
X95622523Y-150681333D01*
X95574904Y-150681333D01*
X95479666Y-150633714D01*
X95432047Y-150538476D01*
X95432047Y-150395619D01*
X95384428Y-150300380D01*
X95289190Y-150252761D01*
X95241571Y-150252761D01*
X95146333Y-150300380D01*
X95098714Y-150395619D01*
X95098714Y-150538476D01*
X95146333Y-150633714D01*
X95765380Y-151109904D02*
X94765380Y-151109904D01*
X95765380Y-151538476D02*
X95241571Y-151538476D01*
X95146333Y-151490857D01*
X95098714Y-151395619D01*
X95098714Y-151252761D01*
X95146333Y-151157523D01*
X95193952Y-151109904D01*
X95765380Y-152014666D02*
X95098714Y-152014666D01*
X94765380Y-152014666D02*
X94813000Y-151967047D01*
X94860619Y-152014666D01*
X94813000Y-152062285D01*
X94765380Y-152014666D01*
X94860619Y-152014666D01*
X95098714Y-152490857D02*
X95765380Y-152490857D01*
X95193952Y-152490857D02*
X95146333Y-152538476D01*
X95098714Y-152633714D01*
X95098714Y-152776571D01*
X95146333Y-152871809D01*
X95241571Y-152919428D01*
X95765380Y-152919428D01*
X95765380Y-153824190D02*
X95241571Y-153824190D01*
X95146333Y-153776571D01*
X95098714Y-153681333D01*
X95098714Y-153490857D01*
X95146333Y-153395619D01*
X95717761Y-153824190D02*
X95765380Y-153728952D01*
X95765380Y-153490857D01*
X95717761Y-153395619D01*
X95622523Y-153348000D01*
X95527285Y-153348000D01*
X95432047Y-153395619D01*
X95384428Y-153490857D01*
X95384428Y-153728952D01*
X95336809Y-153824190D01*
X95098714Y-154728952D02*
X95908238Y-154728952D01*
X96003476Y-154681333D01*
X96051095Y-154633714D01*
X96098714Y-154538476D01*
X96098714Y-154395619D01*
X96051095Y-154300380D01*
X95717761Y-154728952D02*
X95765380Y-154633714D01*
X95765380Y-154443238D01*
X95717761Y-154348000D01*
X95670142Y-154300380D01*
X95574904Y-154252761D01*
X95289190Y-154252761D01*
X95193952Y-154300380D01*
X95146333Y-154348000D01*
X95098714Y-154443238D01*
X95098714Y-154633714D01*
X95146333Y-154728952D01*
X95765380Y-155633714D02*
X95241571Y-155633714D01*
X95146333Y-155586095D01*
X95098714Y-155490857D01*
X95098714Y-155300380D01*
X95146333Y-155205142D01*
X95717761Y-155633714D02*
X95765380Y-155538476D01*
X95765380Y-155300380D01*
X95717761Y-155205142D01*
X95622523Y-155157523D01*
X95527285Y-155157523D01*
X95432047Y-155205142D01*
X95384428Y-155300380D01*
X95384428Y-155538476D01*
X95336809Y-155633714D01*
X143448714Y-106038476D02*
X144305857Y-106038476D01*
X144401095Y-105990857D01*
X144448714Y-105895619D01*
X144448714Y-105848000D01*
X143115380Y-106038476D02*
X143163000Y-105990857D01*
X143210619Y-106038476D01*
X143163000Y-106086095D01*
X143115380Y-106038476D01*
X143210619Y-106038476D01*
X143448714Y-106371809D02*
X143448714Y-106752761D01*
X143115380Y-106514666D02*
X143972523Y-106514666D01*
X144067761Y-106562285D01*
X144115380Y-106657523D01*
X144115380Y-106752761D01*
X144115380Y-107514666D02*
X143591571Y-107514666D01*
X143496333Y-107467047D01*
X143448714Y-107371809D01*
X143448714Y-107181333D01*
X143496333Y-107086095D01*
X144067761Y-107514666D02*
X144115380Y-107419428D01*
X144115380Y-107181333D01*
X144067761Y-107086095D01*
X143972523Y-107038476D01*
X143877285Y-107038476D01*
X143782047Y-107086095D01*
X143734428Y-107181333D01*
X143734428Y-107419428D01*
X143686809Y-107514666D01*
X143448714Y-108419428D02*
X144258238Y-108419428D01*
X144353476Y-108371809D01*
X144401095Y-108324190D01*
X144448714Y-108228952D01*
X144448714Y-108086095D01*
X144401095Y-107990857D01*
X144067761Y-108419428D02*
X144115380Y-108324190D01*
X144115380Y-108133714D01*
X144067761Y-108038476D01*
X144020142Y-107990857D01*
X143924904Y-107943238D01*
X143639190Y-107943238D01*
X143543952Y-107990857D01*
X143496333Y-108038476D01*
X143448714Y-108133714D01*
X143448714Y-108324190D01*
X143496333Y-108419428D01*
X144115380Y-110086095D02*
X143591571Y-110086095D01*
X143496333Y-110038476D01*
X143448714Y-109943238D01*
X143448714Y-109752761D01*
X143496333Y-109657523D01*
X144067761Y-110086095D02*
X144115380Y-109990857D01*
X144115380Y-109752761D01*
X144067761Y-109657523D01*
X143972523Y-109609904D01*
X143877285Y-109609904D01*
X143782047Y-109657523D01*
X143734428Y-109752761D01*
X143734428Y-109990857D01*
X143686809Y-110086095D01*
X144115380Y-110990857D02*
X143115380Y-110990857D01*
X144067761Y-110990857D02*
X144115380Y-110895619D01*
X144115380Y-110705142D01*
X144067761Y-110609904D01*
X144020142Y-110562285D01*
X143924904Y-110514666D01*
X143639190Y-110514666D01*
X143543952Y-110562285D01*
X143496333Y-110609904D01*
X143448714Y-110705142D01*
X143448714Y-110895619D01*
X143496333Y-110990857D01*
X144115380Y-111895619D02*
X143591571Y-111895619D01*
X143496333Y-111848000D01*
X143448714Y-111752761D01*
X143448714Y-111562285D01*
X143496333Y-111467047D01*
X144067761Y-111895619D02*
X144115380Y-111800380D01*
X144115380Y-111562285D01*
X144067761Y-111467047D01*
X143972523Y-111419428D01*
X143877285Y-111419428D01*
X143782047Y-111467047D01*
X143734428Y-111562285D01*
X143734428Y-111800380D01*
X143686809Y-111895619D01*
X143448714Y-112371809D02*
X144448714Y-112371809D01*
X143496333Y-112371809D02*
X143448714Y-112467047D01*
X143448714Y-112657523D01*
X143496333Y-112752761D01*
X143543952Y-112800380D01*
X143639190Y-112848000D01*
X143924904Y-112848000D01*
X144020142Y-112800380D01*
X144067761Y-112752761D01*
X144115380Y-112657523D01*
X144115380Y-112467047D01*
X144067761Y-112371809D01*
X143448714Y-113133714D02*
X143448714Y-113514666D01*
X143115380Y-113276571D02*
X143972523Y-113276571D01*
X144067761Y-113324190D01*
X144115380Y-113419428D01*
X144115380Y-113514666D01*
X144067761Y-114228952D02*
X144115380Y-114133714D01*
X144115380Y-113943238D01*
X144067761Y-113848000D01*
X143972523Y-113800380D01*
X143591571Y-113800380D01*
X143496333Y-113848000D01*
X143448714Y-113943238D01*
X143448714Y-114133714D01*
X143496333Y-114228952D01*
X143591571Y-114276571D01*
X143686809Y-114276571D01*
X143782047Y-113800380D01*
X144115380Y-114705142D02*
X143448714Y-114705142D01*
X143639190Y-114705142D02*
X143543952Y-114752761D01*
X143496333Y-114800380D01*
X143448714Y-114895619D01*
X143448714Y-114990857D01*
X143448714Y-115990857D02*
X144115380Y-116228952D01*
X143448714Y-116467047D01*
X144115380Y-117371809D02*
X144115380Y-116800380D01*
X144115380Y-117086095D02*
X143115380Y-117086095D01*
X143258238Y-116990857D01*
X143353476Y-116895619D01*
X143401095Y-116800380D01*
X144020142Y-117800380D02*
X144067761Y-117848000D01*
X144115380Y-117800380D01*
X144067761Y-117752761D01*
X144020142Y-117800380D01*
X144115380Y-117800380D01*
X143115380Y-118467047D02*
X143115380Y-118562285D01*
X143163000Y-118657523D01*
X143210619Y-118705142D01*
X143305857Y-118752761D01*
X143496333Y-118800380D01*
X143734428Y-118800380D01*
X143924904Y-118752761D01*
X144020142Y-118705142D01*
X144067761Y-118657523D01*
X144115380Y-118562285D01*
X144115380Y-118467047D01*
X144067761Y-118371809D01*
X144020142Y-118324190D01*
X143924904Y-118276571D01*
X143734428Y-118228952D01*
X143496333Y-118228952D01*
X143305857Y-118276571D01*
X143210619Y-118324190D01*
X143163000Y-118371809D01*
X143115380Y-118467047D01*
X144496333Y-119514666D02*
X144448714Y-119467047D01*
X144305857Y-119371809D01*
X144210619Y-119324190D01*
X144067761Y-119276571D01*
X143829666Y-119228952D01*
X143639190Y-119228952D01*
X143401095Y-119276571D01*
X143258238Y-119324190D01*
X143163000Y-119371809D01*
X143020142Y-119467047D01*
X142972523Y-119514666D01*
X143210619Y-119848000D02*
X143163000Y-119895619D01*
X143115380Y-119990857D01*
X143115380Y-120228952D01*
X143163000Y-120324190D01*
X143210619Y-120371809D01*
X143305857Y-120419428D01*
X143401095Y-120419428D01*
X143543952Y-120371809D01*
X144115380Y-119800380D01*
X144115380Y-120419428D01*
X143115380Y-121038476D02*
X143115380Y-121133714D01*
X143163000Y-121228952D01*
X143210619Y-121276571D01*
X143305857Y-121324190D01*
X143496333Y-121371809D01*
X143734428Y-121371809D01*
X143924904Y-121324190D01*
X144020142Y-121276571D01*
X144067761Y-121228952D01*
X144115380Y-121133714D01*
X144115380Y-121038476D01*
X144067761Y-120943238D01*
X144020142Y-120895619D01*
X143924904Y-120848000D01*
X143734428Y-120800380D01*
X143496333Y-120800380D01*
X143305857Y-120848000D01*
X143210619Y-120895619D01*
X143163000Y-120943238D01*
X143115380Y-121038476D01*
X143210619Y-121752761D02*
X143163000Y-121800380D01*
X143115380Y-121895619D01*
X143115380Y-122133714D01*
X143163000Y-122228952D01*
X143210619Y-122276571D01*
X143305857Y-122324190D01*
X143401095Y-122324190D01*
X143543952Y-122276571D01*
X144115380Y-121705142D01*
X144115380Y-122324190D01*
X144115380Y-123276571D02*
X144115380Y-122705142D01*
X144115380Y-122990857D02*
X143115380Y-122990857D01*
X143258238Y-122895619D01*
X143353476Y-122800380D01*
X143401095Y-122705142D01*
X144020142Y-123705142D02*
X144067761Y-123752761D01*
X144115380Y-123705142D01*
X144067761Y-123657523D01*
X144020142Y-123705142D01*
X144115380Y-123705142D01*
X143115380Y-124371809D02*
X143115380Y-124467047D01*
X143163000Y-124562285D01*
X143210619Y-124609904D01*
X143305857Y-124657523D01*
X143496333Y-124705142D01*
X143734428Y-124705142D01*
X143924904Y-124657523D01*
X144020142Y-124609904D01*
X144067761Y-124562285D01*
X144115380Y-124467047D01*
X144115380Y-124371809D01*
X144067761Y-124276571D01*
X144020142Y-124228952D01*
X143924904Y-124181333D01*
X143734428Y-124133714D01*
X143496333Y-124133714D01*
X143305857Y-124181333D01*
X143210619Y-124228952D01*
X143163000Y-124276571D01*
X143115380Y-124371809D01*
X144115380Y-125181333D02*
X144115380Y-125371809D01*
X144067761Y-125467047D01*
X144020142Y-125514666D01*
X143877285Y-125609904D01*
X143686809Y-125657523D01*
X143305857Y-125657523D01*
X143210619Y-125609904D01*
X143163000Y-125562285D01*
X143115380Y-125467047D01*
X143115380Y-125276571D01*
X143163000Y-125181333D01*
X143210619Y-125133714D01*
X143305857Y-125086095D01*
X143543952Y-125086095D01*
X143639190Y-125133714D01*
X143686809Y-125181333D01*
X143734428Y-125276571D01*
X143734428Y-125467047D01*
X143686809Y-125562285D01*
X143639190Y-125609904D01*
X143543952Y-125657523D01*
X144020142Y-126086095D02*
X144067761Y-126133714D01*
X144115380Y-126086095D01*
X144067761Y-126038476D01*
X144020142Y-126086095D01*
X144115380Y-126086095D01*
X143115380Y-126752761D02*
X143115380Y-126847999D01*
X143163000Y-126943238D01*
X143210619Y-126990857D01*
X143305857Y-127038476D01*
X143496333Y-127086095D01*
X143734428Y-127086095D01*
X143924904Y-127038476D01*
X144020142Y-126990857D01*
X144067761Y-126943238D01*
X144115380Y-126847999D01*
X144115380Y-126752761D01*
X144067761Y-126657523D01*
X144020142Y-126609904D01*
X143924904Y-126562285D01*
X143734428Y-126514666D01*
X143496333Y-126514666D01*
X143305857Y-126562285D01*
X143210619Y-126609904D01*
X143163000Y-126657523D01*
X143115380Y-126752761D01*
X143115380Y-127419428D02*
X143115380Y-128038476D01*
X143496333Y-127705142D01*
X143496333Y-127847999D01*
X143543952Y-127943238D01*
X143591571Y-127990857D01*
X143686809Y-128038476D01*
X143924904Y-128038476D01*
X144020142Y-127990857D01*
X144067761Y-127943238D01*
X144115380Y-127847999D01*
X144115380Y-127562285D01*
X144067761Y-127467047D01*
X144020142Y-127419428D01*
X144496333Y-128371809D02*
X144448714Y-128419428D01*
X144305857Y-128514666D01*
X144210619Y-128562285D01*
X144067761Y-128609904D01*
X143829666Y-128657523D01*
X143639190Y-128657523D01*
X143401095Y-128609904D01*
X143258238Y-128562285D01*
X143163000Y-128514666D01*
X143020142Y-128419428D01*
X142972523Y-128371809D01*
X145289190Y-113681333D02*
X145241571Y-113633714D01*
X145193952Y-113538476D01*
X145193952Y-113443238D01*
X145241571Y-113348000D01*
X145289190Y-113300380D01*
X145384428Y-113252761D01*
X145479666Y-113252761D01*
X145574904Y-113300380D01*
X145622523Y-113348000D01*
X145670142Y-113443238D01*
X145670142Y-113538476D01*
X145622523Y-113633714D01*
X145574904Y-113681333D01*
X145193952Y-113681333D02*
X145574904Y-113681333D01*
X145622523Y-113728952D01*
X145622523Y-113776571D01*
X145574904Y-113871809D01*
X145479666Y-113919428D01*
X145241571Y-113919428D01*
X145098714Y-113824190D01*
X145003476Y-113681333D01*
X144955857Y-113490857D01*
X145003476Y-113300380D01*
X145098714Y-113157523D01*
X145241571Y-113062285D01*
X145432047Y-113014666D01*
X145622523Y-113062285D01*
X145765380Y-113157523D01*
X145860619Y-113300380D01*
X145908238Y-113490857D01*
X145860619Y-113681333D01*
X145765380Y-113824190D01*
X145098714Y-114205142D02*
X145098714Y-114586095D01*
X144765380Y-114348000D02*
X145622523Y-114348000D01*
X145717761Y-114395619D01*
X145765380Y-114490857D01*
X145765380Y-114586095D01*
X145098714Y-114919428D02*
X145765380Y-114919428D01*
X145193952Y-114919428D02*
X145146333Y-114967047D01*
X145098714Y-115062285D01*
X145098714Y-115205142D01*
X145146333Y-115300380D01*
X145241571Y-115348000D01*
X145765380Y-115348000D01*
X145765380Y-115824190D02*
X145098714Y-115824190D01*
X144765380Y-115824190D02*
X144813000Y-115776571D01*
X144860619Y-115824190D01*
X144813000Y-115871809D01*
X144765380Y-115824190D01*
X144860619Y-115824190D01*
X145717761Y-116252761D02*
X145765380Y-116348000D01*
X145765380Y-116538476D01*
X145717761Y-116633714D01*
X145622523Y-116681333D01*
X145574904Y-116681333D01*
X145479666Y-116633714D01*
X145432047Y-116538476D01*
X145432047Y-116395619D01*
X145384428Y-116300380D01*
X145289190Y-116252761D01*
X145241571Y-116252761D01*
X145146333Y-116300380D01*
X145098714Y-116395619D01*
X145098714Y-116538476D01*
X145146333Y-116633714D01*
X145765380Y-117109904D02*
X144765380Y-117109904D01*
X145765380Y-117538476D02*
X145241571Y-117538476D01*
X145146333Y-117490857D01*
X145098714Y-117395619D01*
X145098714Y-117252761D01*
X145146333Y-117157523D01*
X145193952Y-117109904D01*
X145765380Y-118014666D02*
X145098714Y-118014666D01*
X144765380Y-118014666D02*
X144813000Y-117967047D01*
X144860619Y-118014666D01*
X144813000Y-118062285D01*
X144765380Y-118014666D01*
X144860619Y-118014666D01*
X145098714Y-118490857D02*
X145765380Y-118490857D01*
X145193952Y-118490857D02*
X145146333Y-118538476D01*
X145098714Y-118633714D01*
X145098714Y-118776571D01*
X145146333Y-118871809D01*
X145241571Y-118919428D01*
X145765380Y-118919428D01*
X145765380Y-119824190D02*
X145241571Y-119824190D01*
X145146333Y-119776571D01*
X145098714Y-119681333D01*
X145098714Y-119490857D01*
X145146333Y-119395619D01*
X145717761Y-119824190D02*
X145765380Y-119728952D01*
X145765380Y-119490857D01*
X145717761Y-119395619D01*
X145622523Y-119348000D01*
X145527285Y-119348000D01*
X145432047Y-119395619D01*
X145384428Y-119490857D01*
X145384428Y-119728952D01*
X145336809Y-119824190D01*
X145098714Y-120728952D02*
X145908238Y-120728952D01*
X146003476Y-120681333D01*
X146051095Y-120633714D01*
X146098714Y-120538476D01*
X146098714Y-120395619D01*
X146051095Y-120300380D01*
X145717761Y-120728952D02*
X145765380Y-120633714D01*
X145765380Y-120443238D01*
X145717761Y-120348000D01*
X145670142Y-120300380D01*
X145574904Y-120252761D01*
X145289190Y-120252761D01*
X145193952Y-120300380D01*
X145146333Y-120348000D01*
X145098714Y-120443238D01*
X145098714Y-120633714D01*
X145146333Y-120728952D01*
X145765380Y-121633714D02*
X145241571Y-121633714D01*
X145146333Y-121586095D01*
X145098714Y-121490857D01*
X145098714Y-121300380D01*
X145146333Y-121205142D01*
X145717761Y-121633714D02*
X145765380Y-121538476D01*
X145765380Y-121300380D01*
X145717761Y-121205142D01*
X145622523Y-121157523D01*
X145527285Y-121157523D01*
X145432047Y-121205142D01*
X145384428Y-121300380D01*
X145384428Y-121538476D01*
X145336809Y-121633714D01*
X93448714Y-106038476D02*
X94305857Y-106038476D01*
X94401095Y-105990857D01*
X94448714Y-105895619D01*
X94448714Y-105848000D01*
X93115380Y-106038476D02*
X93163000Y-105990857D01*
X93210619Y-106038476D01*
X93163000Y-106086095D01*
X93115380Y-106038476D01*
X93210619Y-106038476D01*
X93448714Y-106371809D02*
X93448714Y-106752761D01*
X93115380Y-106514666D02*
X93972523Y-106514666D01*
X94067761Y-106562285D01*
X94115380Y-106657523D01*
X94115380Y-106752761D01*
X94115380Y-107514666D02*
X93591571Y-107514666D01*
X93496333Y-107467047D01*
X93448714Y-107371809D01*
X93448714Y-107181333D01*
X93496333Y-107086095D01*
X94067761Y-107514666D02*
X94115380Y-107419428D01*
X94115380Y-107181333D01*
X94067761Y-107086095D01*
X93972523Y-107038476D01*
X93877285Y-107038476D01*
X93782047Y-107086095D01*
X93734428Y-107181333D01*
X93734428Y-107419428D01*
X93686809Y-107514666D01*
X93448714Y-108419428D02*
X94258238Y-108419428D01*
X94353476Y-108371809D01*
X94401095Y-108324190D01*
X94448714Y-108228952D01*
X94448714Y-108086095D01*
X94401095Y-107990857D01*
X94067761Y-108419428D02*
X94115380Y-108324190D01*
X94115380Y-108133714D01*
X94067761Y-108038476D01*
X94020142Y-107990857D01*
X93924904Y-107943238D01*
X93639190Y-107943238D01*
X93543952Y-107990857D01*
X93496333Y-108038476D01*
X93448714Y-108133714D01*
X93448714Y-108324190D01*
X93496333Y-108419428D01*
X94115380Y-110086095D02*
X93591571Y-110086095D01*
X93496333Y-110038476D01*
X93448714Y-109943238D01*
X93448714Y-109752761D01*
X93496333Y-109657523D01*
X94067761Y-110086095D02*
X94115380Y-109990857D01*
X94115380Y-109752761D01*
X94067761Y-109657523D01*
X93972523Y-109609904D01*
X93877285Y-109609904D01*
X93782047Y-109657523D01*
X93734428Y-109752761D01*
X93734428Y-109990857D01*
X93686809Y-110086095D01*
X94115380Y-110990857D02*
X93115380Y-110990857D01*
X94067761Y-110990857D02*
X94115380Y-110895619D01*
X94115380Y-110705142D01*
X94067761Y-110609904D01*
X94020142Y-110562285D01*
X93924904Y-110514666D01*
X93639190Y-110514666D01*
X93543952Y-110562285D01*
X93496333Y-110609904D01*
X93448714Y-110705142D01*
X93448714Y-110895619D01*
X93496333Y-110990857D01*
X94115380Y-111895619D02*
X93591571Y-111895619D01*
X93496333Y-111848000D01*
X93448714Y-111752761D01*
X93448714Y-111562285D01*
X93496333Y-111467047D01*
X94067761Y-111895619D02*
X94115380Y-111800380D01*
X94115380Y-111562285D01*
X94067761Y-111467047D01*
X93972523Y-111419428D01*
X93877285Y-111419428D01*
X93782047Y-111467047D01*
X93734428Y-111562285D01*
X93734428Y-111800380D01*
X93686809Y-111895619D01*
X93448714Y-112371809D02*
X94448714Y-112371809D01*
X93496333Y-112371809D02*
X93448714Y-112467047D01*
X93448714Y-112657523D01*
X93496333Y-112752761D01*
X93543952Y-112800380D01*
X93639190Y-112848000D01*
X93924904Y-112848000D01*
X94020142Y-112800380D01*
X94067761Y-112752761D01*
X94115380Y-112657523D01*
X94115380Y-112467047D01*
X94067761Y-112371809D01*
X93448714Y-113133714D02*
X93448714Y-113514666D01*
X93115380Y-113276571D02*
X93972523Y-113276571D01*
X94067761Y-113324190D01*
X94115380Y-113419428D01*
X94115380Y-113514666D01*
X94067761Y-114228952D02*
X94115380Y-114133714D01*
X94115380Y-113943238D01*
X94067761Y-113848000D01*
X93972523Y-113800380D01*
X93591571Y-113800380D01*
X93496333Y-113848000D01*
X93448714Y-113943238D01*
X93448714Y-114133714D01*
X93496333Y-114228952D01*
X93591571Y-114276571D01*
X93686809Y-114276571D01*
X93782047Y-113800380D01*
X94115380Y-114705142D02*
X93448714Y-114705142D01*
X93639190Y-114705142D02*
X93543952Y-114752761D01*
X93496333Y-114800380D01*
X93448714Y-114895619D01*
X93448714Y-114990857D01*
X93448714Y-115990857D02*
X94115380Y-116228952D01*
X93448714Y-116467047D01*
X94115380Y-117371809D02*
X94115380Y-116800380D01*
X94115380Y-117086095D02*
X93115380Y-117086095D01*
X93258238Y-116990857D01*
X93353476Y-116895619D01*
X93401095Y-116800380D01*
X94020142Y-117800380D02*
X94067761Y-117847999D01*
X94115380Y-117800380D01*
X94067761Y-117752761D01*
X94020142Y-117800380D01*
X94115380Y-117800380D01*
X93115380Y-118467047D02*
X93115380Y-118562285D01*
X93163000Y-118657523D01*
X93210619Y-118705142D01*
X93305857Y-118752761D01*
X93496333Y-118800380D01*
X93734428Y-118800380D01*
X93924904Y-118752761D01*
X94020142Y-118705142D01*
X94067761Y-118657523D01*
X94115380Y-118562285D01*
X94115380Y-118467047D01*
X94067761Y-118371809D01*
X94020142Y-118324190D01*
X93924904Y-118276571D01*
X93734428Y-118228952D01*
X93496333Y-118228952D01*
X93305857Y-118276571D01*
X93210619Y-118324190D01*
X93163000Y-118371809D01*
X93115380Y-118467047D01*
X94496333Y-119514666D02*
X94448714Y-119467047D01*
X94305857Y-119371809D01*
X94210619Y-119324190D01*
X94067761Y-119276571D01*
X93829666Y-119228952D01*
X93639190Y-119228952D01*
X93401095Y-119276571D01*
X93258238Y-119324190D01*
X93163000Y-119371809D01*
X93020142Y-119467047D01*
X92972523Y-119514666D01*
X93210619Y-119847999D02*
X93163000Y-119895619D01*
X93115380Y-119990857D01*
X93115380Y-120228952D01*
X93163000Y-120324190D01*
X93210619Y-120371809D01*
X93305857Y-120419428D01*
X93401095Y-120419428D01*
X93543952Y-120371809D01*
X94115380Y-119800380D01*
X94115380Y-120419428D01*
X93115380Y-121038476D02*
X93115380Y-121133714D01*
X93163000Y-121228952D01*
X93210619Y-121276571D01*
X93305857Y-121324190D01*
X93496333Y-121371809D01*
X93734428Y-121371809D01*
X93924904Y-121324190D01*
X94020142Y-121276571D01*
X94067761Y-121228952D01*
X94115380Y-121133714D01*
X94115380Y-121038476D01*
X94067761Y-120943238D01*
X94020142Y-120895619D01*
X93924904Y-120847999D01*
X93734428Y-120800380D01*
X93496333Y-120800380D01*
X93305857Y-120847999D01*
X93210619Y-120895619D01*
X93163000Y-120943238D01*
X93115380Y-121038476D01*
X93210619Y-121752761D02*
X93163000Y-121800380D01*
X93115380Y-121895619D01*
X93115380Y-122133714D01*
X93163000Y-122228952D01*
X93210619Y-122276571D01*
X93305857Y-122324190D01*
X93401095Y-122324190D01*
X93543952Y-122276571D01*
X94115380Y-121705142D01*
X94115380Y-122324190D01*
X94115380Y-123276571D02*
X94115380Y-122705142D01*
X94115380Y-122990857D02*
X93115380Y-122990857D01*
X93258238Y-122895619D01*
X93353476Y-122800380D01*
X93401095Y-122705142D01*
X94020142Y-123705142D02*
X94067761Y-123752761D01*
X94115380Y-123705142D01*
X94067761Y-123657523D01*
X94020142Y-123705142D01*
X94115380Y-123705142D01*
X93115380Y-124371809D02*
X93115380Y-124467047D01*
X93163000Y-124562285D01*
X93210619Y-124609904D01*
X93305857Y-124657523D01*
X93496333Y-124705142D01*
X93734428Y-124705142D01*
X93924904Y-124657523D01*
X94020142Y-124609904D01*
X94067761Y-124562285D01*
X94115380Y-124467047D01*
X94115380Y-124371809D01*
X94067761Y-124276571D01*
X94020142Y-124228952D01*
X93924904Y-124181333D01*
X93734428Y-124133714D01*
X93496333Y-124133714D01*
X93305857Y-124181333D01*
X93210619Y-124228952D01*
X93163000Y-124276571D01*
X93115380Y-124371809D01*
X94115380Y-125181333D02*
X94115380Y-125371809D01*
X94067761Y-125467047D01*
X94020142Y-125514666D01*
X93877285Y-125609904D01*
X93686809Y-125657523D01*
X93305857Y-125657523D01*
X93210619Y-125609904D01*
X93163000Y-125562285D01*
X93115380Y-125467047D01*
X93115380Y-125276571D01*
X93163000Y-125181333D01*
X93210619Y-125133714D01*
X93305857Y-125086095D01*
X93543952Y-125086095D01*
X93639190Y-125133714D01*
X93686809Y-125181333D01*
X93734428Y-125276571D01*
X93734428Y-125467047D01*
X93686809Y-125562285D01*
X93639190Y-125609904D01*
X93543952Y-125657523D01*
X94020142Y-126086095D02*
X94067761Y-126133714D01*
X94115380Y-126086095D01*
X94067761Y-126038476D01*
X94020142Y-126086095D01*
X94115380Y-126086095D01*
X93115380Y-126752761D02*
X93115380Y-126847999D01*
X93163000Y-126943238D01*
X93210619Y-126990857D01*
X93305857Y-127038476D01*
X93496333Y-127086095D01*
X93734428Y-127086095D01*
X93924904Y-127038476D01*
X94020142Y-126990857D01*
X94067761Y-126943238D01*
X94115380Y-126847999D01*
X94115380Y-126752761D01*
X94067761Y-126657523D01*
X94020142Y-126609904D01*
X93924904Y-126562285D01*
X93734428Y-126514666D01*
X93496333Y-126514666D01*
X93305857Y-126562285D01*
X93210619Y-126609904D01*
X93163000Y-126657523D01*
X93115380Y-126752761D01*
X93115380Y-127419428D02*
X93115380Y-128038476D01*
X93496333Y-127705142D01*
X93496333Y-127847999D01*
X93543952Y-127943238D01*
X93591571Y-127990857D01*
X93686809Y-128038476D01*
X93924904Y-128038476D01*
X94020142Y-127990857D01*
X94067761Y-127943238D01*
X94115380Y-127847999D01*
X94115380Y-127562285D01*
X94067761Y-127467047D01*
X94020142Y-127419428D01*
X94496333Y-128371809D02*
X94448714Y-128419428D01*
X94305857Y-128514666D01*
X94210619Y-128562285D01*
X94067761Y-128609904D01*
X93829666Y-128657523D01*
X93639190Y-128657523D01*
X93401095Y-128609904D01*
X93258238Y-128562285D01*
X93163000Y-128514666D01*
X93020142Y-128419428D01*
X92972523Y-128371809D01*
X95289190Y-113681333D02*
X95241571Y-113633714D01*
X95193952Y-113538476D01*
X95193952Y-113443238D01*
X95241571Y-113348000D01*
X95289190Y-113300380D01*
X95384428Y-113252761D01*
X95479666Y-113252761D01*
X95574904Y-113300380D01*
X95622523Y-113348000D01*
X95670142Y-113443238D01*
X95670142Y-113538476D01*
X95622523Y-113633714D01*
X95574904Y-113681333D01*
X95193952Y-113681333D02*
X95574904Y-113681333D01*
X95622523Y-113728952D01*
X95622523Y-113776571D01*
X95574904Y-113871809D01*
X95479666Y-113919428D01*
X95241571Y-113919428D01*
X95098714Y-113824190D01*
X95003476Y-113681333D01*
X94955857Y-113490857D01*
X95003476Y-113300380D01*
X95098714Y-113157523D01*
X95241571Y-113062285D01*
X95432047Y-113014666D01*
X95622523Y-113062285D01*
X95765380Y-113157523D01*
X95860619Y-113300380D01*
X95908238Y-113490857D01*
X95860619Y-113681333D01*
X95765380Y-113824190D01*
X95098714Y-114205142D02*
X95098714Y-114586095D01*
X94765380Y-114348000D02*
X95622523Y-114348000D01*
X95717761Y-114395619D01*
X95765380Y-114490857D01*
X95765380Y-114586095D01*
X95098714Y-114919428D02*
X95765380Y-114919428D01*
X95193952Y-114919428D02*
X95146333Y-114967047D01*
X95098714Y-115062285D01*
X95098714Y-115205142D01*
X95146333Y-115300380D01*
X95241571Y-115348000D01*
X95765380Y-115348000D01*
X95765380Y-115824190D02*
X95098714Y-115824190D01*
X94765380Y-115824190D02*
X94813000Y-115776571D01*
X94860619Y-115824190D01*
X94813000Y-115871809D01*
X94765380Y-115824190D01*
X94860619Y-115824190D01*
X95717761Y-116252761D02*
X95765380Y-116348000D01*
X95765380Y-116538476D01*
X95717761Y-116633714D01*
X95622523Y-116681333D01*
X95574904Y-116681333D01*
X95479666Y-116633714D01*
X95432047Y-116538476D01*
X95432047Y-116395619D01*
X95384428Y-116300380D01*
X95289190Y-116252761D01*
X95241571Y-116252761D01*
X95146333Y-116300380D01*
X95098714Y-116395619D01*
X95098714Y-116538476D01*
X95146333Y-116633714D01*
X95765380Y-117109904D02*
X94765380Y-117109904D01*
X95765380Y-117538476D02*
X95241571Y-117538476D01*
X95146333Y-117490857D01*
X95098714Y-117395619D01*
X95098714Y-117252761D01*
X95146333Y-117157523D01*
X95193952Y-117109904D01*
X95765380Y-118014666D02*
X95098714Y-118014666D01*
X94765380Y-118014666D02*
X94813000Y-117967047D01*
X94860619Y-118014666D01*
X94813000Y-118062285D01*
X94765380Y-118014666D01*
X94860619Y-118014666D01*
X95098714Y-118490857D02*
X95765380Y-118490857D01*
X95193952Y-118490857D02*
X95146333Y-118538476D01*
X95098714Y-118633714D01*
X95098714Y-118776571D01*
X95146333Y-118871809D01*
X95241571Y-118919428D01*
X95765380Y-118919428D01*
X95765380Y-119824190D02*
X95241571Y-119824190D01*
X95146333Y-119776571D01*
X95098714Y-119681333D01*
X95098714Y-119490857D01*
X95146333Y-119395619D01*
X95717761Y-119824190D02*
X95765380Y-119728952D01*
X95765380Y-119490857D01*
X95717761Y-119395619D01*
X95622523Y-119348000D01*
X95527285Y-119348000D01*
X95432047Y-119395619D01*
X95384428Y-119490857D01*
X95384428Y-119728952D01*
X95336809Y-119824190D01*
X95098714Y-120728952D02*
X95908238Y-120728952D01*
X96003476Y-120681333D01*
X96051095Y-120633714D01*
X96098714Y-120538476D01*
X96098714Y-120395619D01*
X96051095Y-120300380D01*
X95717761Y-120728952D02*
X95765380Y-120633714D01*
X95765380Y-120443238D01*
X95717761Y-120348000D01*
X95670142Y-120300380D01*
X95574904Y-120252761D01*
X95289190Y-120252761D01*
X95193952Y-120300380D01*
X95146333Y-120348000D01*
X95098714Y-120443238D01*
X95098714Y-120633714D01*
X95146333Y-120728952D01*
X95765380Y-121633714D02*
X95241571Y-121633714D01*
X95146333Y-121586095D01*
X95098714Y-121490857D01*
X95098714Y-121300380D01*
X95146333Y-121205142D01*
X95717761Y-121633714D02*
X95765380Y-121538476D01*
X95765380Y-121300380D01*
X95717761Y-121205142D01*
X95622523Y-121157523D01*
X95527285Y-121157523D01*
X95432047Y-121205142D01*
X95384428Y-121300380D01*
X95384428Y-121538476D01*
X95336809Y-121633714D01*
D11*
X104612779Y-159860000D02*
X104287221Y-159860000D01*
X104612779Y-160880000D02*
X104287221Y-160880000D01*
X54612779Y-159860000D02*
X54287221Y-159860000D01*
X54612779Y-160880000D02*
X54287221Y-160880000D01*
X104612779Y-125860000D02*
X104287221Y-125860000D01*
X104612779Y-126880000D02*
X104287221Y-126880000D01*
X107652779Y-158320000D02*
X107327221Y-158320000D01*
X107652779Y-159340000D02*
X107327221Y-159340000D01*
X57652779Y-158320000D02*
X57327221Y-158320000D01*
X57652779Y-159340000D02*
X57327221Y-159340000D01*
X107652779Y-124320000D02*
X107327221Y-124320000D01*
X107652779Y-125340000D02*
X107327221Y-125340000D01*
X109977258Y-151237500D02*
X109502742Y-151237500D01*
X109977258Y-152282500D02*
X109502742Y-152282500D01*
X59977258Y-151237500D02*
X59502742Y-151237500D01*
X59977258Y-152282500D02*
X59502742Y-152282500D01*
X109977258Y-117237500D02*
X109502742Y-117237500D01*
X109977258Y-118282500D02*
X109502742Y-118282500D01*
X109977258Y-149717500D02*
X109502742Y-149717500D01*
X109977258Y-150762500D02*
X109502742Y-150762500D01*
X59977258Y-149717500D02*
X59502742Y-149717500D01*
X59977258Y-150762500D02*
X59502742Y-150762500D01*
X109977258Y-115717500D02*
X109502742Y-115717500D01*
X109977258Y-116762500D02*
X109502742Y-116762500D01*
X112227258Y-161597500D02*
X111752742Y-161597500D01*
X112227258Y-162642500D02*
X111752742Y-162642500D01*
X62227258Y-161597500D02*
X61752742Y-161597500D01*
X62227258Y-162642500D02*
X61752742Y-162642500D01*
X112227258Y-127597500D02*
X111752742Y-127597500D01*
X112227258Y-128642500D02*
X111752742Y-128642500D01*
X109902779Y-146170000D02*
X109577221Y-146170000D01*
X109902779Y-145150000D02*
X109577221Y-145150000D01*
X59902779Y-146170000D02*
X59577221Y-146170000D01*
X59902779Y-145150000D02*
X59577221Y-145150000D01*
X109902779Y-112170000D02*
X109577221Y-112170000D01*
X109902779Y-111150000D02*
X109577221Y-111150000D01*
X124897258Y-158942500D02*
X124422742Y-158942500D01*
X124897258Y-157897500D02*
X124422742Y-157897500D01*
X74897258Y-158942500D02*
X74422742Y-158942500D01*
X74897258Y-157897500D02*
X74422742Y-157897500D01*
X124897258Y-124942500D02*
X124422742Y-124942500D01*
X124897258Y-123897500D02*
X124422742Y-123897500D01*
X109967258Y-153802500D02*
X109492742Y-153802500D01*
X109967258Y-152757500D02*
X109492742Y-152757500D01*
X59967258Y-153802500D02*
X59492742Y-153802500D01*
X59967258Y-152757500D02*
X59492742Y-152757500D01*
X109967258Y-119802500D02*
X109492742Y-119802500D01*
X109967258Y-118757500D02*
X109492742Y-118757500D01*
X126217258Y-153032500D02*
X125742742Y-153032500D01*
X126217258Y-151987500D02*
X125742742Y-151987500D01*
X76217258Y-153032500D02*
X75742742Y-153032500D01*
X76217258Y-151987500D02*
X75742742Y-151987500D01*
X126217258Y-119032500D02*
X125742742Y-119032500D01*
X126217258Y-117987500D02*
X125742742Y-117987500D01*
X104480000Y-149890000D02*
X104480000Y-152290000D01*
X101380000Y-152290000D02*
X101380000Y-149340000D01*
X54480000Y-149890000D02*
X54480000Y-152290000D01*
X51380000Y-152290000D02*
X51380000Y-149340000D01*
X104480000Y-115890000D02*
X104480000Y-118290000D01*
X101380000Y-118290000D02*
X101380000Y-115340000D01*
X104299420Y-159340000D02*
X104580580Y-159340000D01*
X104299420Y-158320000D02*
X104580580Y-158320000D01*
X54299420Y-159340000D02*
X54580580Y-159340000D01*
X54299420Y-158320000D02*
X54580580Y-158320000D01*
X104299420Y-125340000D02*
X104580580Y-125340000D01*
X104299420Y-124320000D02*
X104580580Y-124320000D01*
X111829420Y-161070000D02*
X112110580Y-161070000D01*
X111829420Y-160050000D02*
X112110580Y-160050000D01*
X61829420Y-161070000D02*
X62110580Y-161070000D01*
X61829420Y-160050000D02*
X62110580Y-160050000D01*
X111829420Y-127070000D02*
X112110580Y-127070000D01*
X111829420Y-126050000D02*
X112110580Y-126050000D01*
X124800580Y-156380000D02*
X124519420Y-156380000D01*
X124800580Y-157400000D02*
X124519420Y-157400000D01*
X74800580Y-156380000D02*
X74519420Y-156380000D01*
X74800580Y-157400000D02*
X74519420Y-157400000D01*
X124800580Y-122380000D02*
X124519420Y-122380000D01*
X124800580Y-123400000D02*
X124519420Y-123400000D01*
X117600580Y-160310000D02*
X117319420Y-160310000D01*
X117600580Y-161330000D02*
X117319420Y-161330000D01*
X67600580Y-160310000D02*
X67319420Y-160310000D01*
X67600580Y-161330000D02*
X67319420Y-161330000D01*
X117600580Y-126310000D02*
X117319420Y-126310000D01*
X117600580Y-127330000D02*
X117319420Y-127330000D01*
X121479420Y-158920000D02*
X121760580Y-158920000D01*
X121479420Y-157900000D02*
X121760580Y-157900000D01*
X71479420Y-158920000D02*
X71760580Y-158920000D01*
X71479420Y-157900000D02*
X71760580Y-157900000D01*
X121479420Y-124920000D02*
X121760580Y-124920000D01*
X121479420Y-123900000D02*
X121760580Y-123900000D01*
X117590580Y-158790000D02*
X117309420Y-158790000D01*
X117590580Y-159810000D02*
X117309420Y-159810000D01*
X67590580Y-158790000D02*
X67309420Y-158790000D01*
X67590580Y-159810000D02*
X67309420Y-159810000D01*
X117590580Y-124790000D02*
X117309420Y-124790000D01*
X117590580Y-125810000D02*
X117309420Y-125810000D01*
X107630580Y-156800000D02*
X107349420Y-156800000D01*
X107630580Y-157820000D02*
X107349420Y-157820000D01*
X57630580Y-156800000D02*
X57349420Y-156800000D01*
X57630580Y-157820000D02*
X57349420Y-157820000D01*
X107630580Y-122800000D02*
X107349420Y-122800000D01*
X107630580Y-123820000D02*
X107349420Y-123820000D01*
X114040000Y-158229420D02*
X114040000Y-158510580D01*
X115060000Y-158229420D02*
X115060000Y-158510580D01*
X64040000Y-158229420D02*
X64040000Y-158510580D01*
X65060000Y-158229420D02*
X65060000Y-158510580D01*
X114040000Y-124229420D02*
X114040000Y-124510580D01*
X115060000Y-124229420D02*
X115060000Y-124510580D01*
X121493420Y-160456000D02*
X121774580Y-160456000D01*
X121493420Y-159436000D02*
X121774580Y-159436000D01*
X71493420Y-160456000D02*
X71774580Y-160456000D01*
X71493420Y-159436000D02*
X71774580Y-159436000D01*
X121493420Y-126456000D02*
X121774580Y-126456000D01*
X121493420Y-125436000D02*
X121774580Y-125436000D01*
X109870580Y-154290000D02*
X109589420Y-154290000D01*
X109870580Y-155310000D02*
X109589420Y-155310000D01*
X59870580Y-154290000D02*
X59589420Y-154290000D01*
X59870580Y-155310000D02*
X59589420Y-155310000D01*
X109870580Y-120290000D02*
X109589420Y-120290000D01*
X109870580Y-121310000D02*
X109589420Y-121310000D01*
X113290000Y-144390580D02*
X113290000Y-144109420D01*
X112270000Y-144390580D02*
X112270000Y-144109420D01*
X63290000Y-144390580D02*
X63290000Y-144109420D01*
X62270000Y-144390580D02*
X62270000Y-144109420D01*
X113290000Y-110390580D02*
X113290000Y-110109420D01*
X112270000Y-110390580D02*
X112270000Y-110109420D01*
X121493420Y-161976000D02*
X121774580Y-161976000D01*
X121493420Y-160956000D02*
X121774580Y-160956000D01*
X71493420Y-161976000D02*
X71774580Y-161976000D01*
X71493420Y-160956000D02*
X71774580Y-160956000D01*
X121493420Y-127976000D02*
X121774580Y-127976000D01*
X121493420Y-126956000D02*
X121774580Y-126956000D01*
X121479420Y-157400000D02*
X121760580Y-157400000D01*
X121479420Y-156380000D02*
X121760580Y-156380000D01*
X71479420Y-157400000D02*
X71760580Y-157400000D01*
X71479420Y-156380000D02*
X71760580Y-156380000D01*
X121479420Y-123400000D02*
X121760580Y-123400000D01*
X121479420Y-122380000D02*
X121760580Y-122380000D01*
X109880580Y-146670000D02*
X109599420Y-146670000D01*
X109880580Y-147690000D02*
X109599420Y-147690000D01*
X59880580Y-146670000D02*
X59599420Y-146670000D01*
X59880580Y-147690000D02*
X59599420Y-147690000D01*
X109880580Y-112670000D02*
X109599420Y-112670000D01*
X109880580Y-113690000D02*
X109599420Y-113690000D01*
X109880580Y-148200000D02*
X109599420Y-148200000D01*
X109880580Y-149220000D02*
X109599420Y-149220000D01*
X59880580Y-148200000D02*
X59599420Y-148200000D01*
X59880580Y-149220000D02*
X59599420Y-149220000D01*
X109880580Y-114200000D02*
X109599420Y-114200000D01*
X109880580Y-115220000D02*
X109599420Y-115220000D01*
X126690000Y-154860000D02*
X124840000Y-154860000D01*
X126690000Y-156060000D02*
X124840000Y-156060000D01*
X124840000Y-156060000D02*
X124840000Y-154860000D01*
X76690000Y-154860000D02*
X74840000Y-154860000D01*
X76690000Y-156060000D02*
X74840000Y-156060000D01*
X74840000Y-156060000D02*
X74840000Y-154860000D01*
X126690000Y-120860000D02*
X124840000Y-120860000D01*
X126690000Y-122060000D02*
X124840000Y-122060000D01*
X124840000Y-122060000D02*
X124840000Y-120860000D01*
X118880580Y-141920000D02*
X118599420Y-141920000D01*
X118880580Y-142940000D02*
X118599420Y-142940000D01*
X68880580Y-141920000D02*
X68599420Y-141920000D01*
X68880580Y-142940000D02*
X68599420Y-142940000D01*
X118880580Y-107920000D02*
X118599420Y-107920000D01*
X118880580Y-108940000D02*
X118599420Y-108940000D01*
X126690000Y-153400000D02*
X124840000Y-153400000D01*
X126690000Y-154600000D02*
X124840000Y-154600000D01*
X124840000Y-154600000D02*
X124840000Y-153400000D01*
X76690000Y-153400000D02*
X74840000Y-153400000D01*
X76690000Y-154600000D02*
X74840000Y-154600000D01*
X74840000Y-154600000D02*
X74840000Y-153400000D01*
X126690000Y-119400000D02*
X124840000Y-119400000D01*
X126690000Y-120600000D02*
X124840000Y-120600000D01*
X124840000Y-120600000D02*
X124840000Y-119400000D01*
X113310000Y-154140000D02*
X112020000Y-154140000D01*
X113310000Y-154590000D02*
X113310000Y-154140000D01*
X113760000Y-154590000D02*
X113310000Y-154590000D01*
X120530000Y-154590000D02*
X120530000Y-154140000D01*
X120080000Y-154590000D02*
X120530000Y-154590000D01*
X113310000Y-147370000D02*
X113310000Y-147820000D01*
X113760000Y-147370000D02*
X113310000Y-147370000D01*
X120530000Y-147370000D02*
X120530000Y-147820000D01*
X120080000Y-147370000D02*
X120530000Y-147370000D01*
X63310000Y-154140000D02*
X62020000Y-154140000D01*
X63310000Y-154590000D02*
X63310000Y-154140000D01*
X63760000Y-154590000D02*
X63310000Y-154590000D01*
X70530000Y-154590000D02*
X70530000Y-154140000D01*
X70080000Y-154590000D02*
X70530000Y-154590000D01*
X63310000Y-147370000D02*
X63310000Y-147820000D01*
X63760000Y-147370000D02*
X63310000Y-147370000D01*
X70530000Y-147370000D02*
X70530000Y-147820000D01*
X70080000Y-147370000D02*
X70530000Y-147370000D01*
X113310000Y-120140000D02*
X112020000Y-120140000D01*
X113310000Y-120590000D02*
X113310000Y-120140000D01*
X113760000Y-120590000D02*
X113310000Y-120590000D01*
X120530000Y-120590000D02*
X120530000Y-120140000D01*
X120080000Y-120590000D02*
X120530000Y-120590000D01*
X113310000Y-113370000D02*
X113310000Y-113820000D01*
X113760000Y-113370000D02*
X113310000Y-113370000D01*
X120530000Y-113370000D02*
X120530000Y-113820000D01*
X120080000Y-113370000D02*
X120530000Y-113370000D01*
X113420000Y-156880000D02*
X113420000Y-159330000D01*
X110200000Y-158680000D02*
X110200000Y-156880000D01*
X63420000Y-156880000D02*
X63420000Y-159330000D01*
X60200000Y-158680000D02*
X60200000Y-156880000D01*
X113420000Y-122880000D02*
X113420000Y-125330000D01*
X110200000Y-124680000D02*
X110200000Y-122880000D01*
X74840000Y-122060000D02*
X74840000Y-120860000D01*
X76690000Y-122060000D02*
X74840000Y-122060000D01*
X76690000Y-120860000D02*
X74840000Y-120860000D01*
X68880580Y-108940000D02*
X68599420Y-108940000D01*
X68880580Y-107920000D02*
X68599420Y-107920000D01*
X70080000Y-113370000D02*
X70530000Y-113370000D01*
X70530000Y-113370000D02*
X70530000Y-113820000D01*
X63760000Y-113370000D02*
X63310000Y-113370000D01*
X63310000Y-113370000D02*
X63310000Y-113820000D01*
X70080000Y-120590000D02*
X70530000Y-120590000D01*
X70530000Y-120590000D02*
X70530000Y-120140000D01*
X63760000Y-120590000D02*
X63310000Y-120590000D01*
X63310000Y-120590000D02*
X63310000Y-120140000D01*
X63310000Y-120140000D02*
X62020000Y-120140000D01*
X74840000Y-120600000D02*
X74840000Y-119400000D01*
X76690000Y-120600000D02*
X74840000Y-120600000D01*
X76690000Y-119400000D02*
X74840000Y-119400000D01*
X60200000Y-124680000D02*
X60200000Y-122880000D01*
X63420000Y-122880000D02*
X63420000Y-125330000D01*
X76217258Y-117987500D02*
X75742742Y-117987500D01*
X76217258Y-119032500D02*
X75742742Y-119032500D01*
X59967258Y-118757500D02*
X59492742Y-118757500D01*
X59967258Y-119802500D02*
X59492742Y-119802500D01*
X74897258Y-123897500D02*
X74422742Y-123897500D01*
X74897258Y-124942500D02*
X74422742Y-124942500D01*
X59902779Y-111150000D02*
X59577221Y-111150000D01*
X59902779Y-112170000D02*
X59577221Y-112170000D01*
X62227258Y-128642500D02*
X61752742Y-128642500D01*
X62227258Y-127597500D02*
X61752742Y-127597500D01*
X59977258Y-116762500D02*
X59502742Y-116762500D01*
X59977258Y-115717500D02*
X59502742Y-115717500D01*
X59977258Y-118282500D02*
X59502742Y-118282500D01*
X59977258Y-117237500D02*
X59502742Y-117237500D01*
X57652779Y-125340000D02*
X57327221Y-125340000D01*
X57652779Y-124320000D02*
X57327221Y-124320000D01*
X54612779Y-126880000D02*
X54287221Y-126880000D01*
X54612779Y-125860000D02*
X54287221Y-125860000D01*
X51380000Y-118290000D02*
X51380000Y-115340000D01*
X54480000Y-115890000D02*
X54480000Y-118290000D01*
X59880580Y-115220000D02*
X59599420Y-115220000D01*
X59880580Y-114200000D02*
X59599420Y-114200000D01*
X59880580Y-113690000D02*
X59599420Y-113690000D01*
X59880580Y-112670000D02*
X59599420Y-112670000D01*
X71479420Y-122380000D02*
X71760580Y-122380000D01*
X71479420Y-123400000D02*
X71760580Y-123400000D01*
X71493420Y-126956000D02*
X71774580Y-126956000D01*
X71493420Y-127976000D02*
X71774580Y-127976000D01*
X62270000Y-110390580D02*
X62270000Y-110109420D01*
X63290000Y-110390580D02*
X63290000Y-110109420D01*
X59870580Y-121310000D02*
X59589420Y-121310000D01*
X59870580Y-120290000D02*
X59589420Y-120290000D01*
X71493420Y-125436000D02*
X71774580Y-125436000D01*
X71493420Y-126456000D02*
X71774580Y-126456000D01*
X65060000Y-124229420D02*
X65060000Y-124510580D01*
X64040000Y-124229420D02*
X64040000Y-124510580D01*
X57630580Y-123820000D02*
X57349420Y-123820000D01*
X57630580Y-122800000D02*
X57349420Y-122800000D01*
X67590580Y-125810000D02*
X67309420Y-125810000D01*
X67590580Y-124790000D02*
X67309420Y-124790000D01*
X71479420Y-123900000D02*
X71760580Y-123900000D01*
X71479420Y-124920000D02*
X71760580Y-124920000D01*
X67600580Y-127330000D02*
X67319420Y-127330000D01*
X67600580Y-126310000D02*
X67319420Y-126310000D01*
X74800580Y-123400000D02*
X74519420Y-123400000D01*
X74800580Y-122380000D02*
X74519420Y-122380000D01*
X61829420Y-126050000D02*
X62110580Y-126050000D01*
X61829420Y-127070000D02*
X62110580Y-127070000D01*
X54299420Y-124320000D02*
X54580580Y-124320000D01*
X54299420Y-125340000D02*
X54580580Y-125340000D01*
D10*
X102490666Y-160944380D02*
X102966857Y-160944380D01*
X102966857Y-159944380D01*
X102204952Y-160039619D02*
X102157333Y-159992000D01*
X102062095Y-159944380D01*
X101824000Y-159944380D01*
X101728761Y-159992000D01*
X101681142Y-160039619D01*
X101633523Y-160134857D01*
X101633523Y-160230095D01*
X101681142Y-160372952D01*
X102252571Y-160944380D01*
X101633523Y-160944380D01*
X52490666Y-160944380D02*
X52966857Y-160944380D01*
X52966857Y-159944380D01*
X52204952Y-160039619D02*
X52157333Y-159992000D01*
X52062095Y-159944380D01*
X51824000Y-159944380D01*
X51728761Y-159992000D01*
X51681142Y-160039619D01*
X51633523Y-160134857D01*
X51633523Y-160230095D01*
X51681142Y-160372952D01*
X52252571Y-160944380D01*
X51633523Y-160944380D01*
X102490666Y-126944380D02*
X102966857Y-126944380D01*
X102966857Y-125944380D01*
X102204952Y-126039619D02*
X102157333Y-125992000D01*
X102062095Y-125944380D01*
X101824000Y-125944380D01*
X101728761Y-125992000D01*
X101681142Y-126039619D01*
X101633523Y-126134857D01*
X101633523Y-126230095D01*
X101681142Y-126372952D01*
X102252571Y-126944380D01*
X101633523Y-126944380D01*
X107656666Y-162468380D02*
X108132857Y-162468380D01*
X108132857Y-161468380D01*
X107418571Y-161468380D02*
X106799523Y-161468380D01*
X107132857Y-161849333D01*
X106990000Y-161849333D01*
X106894761Y-161896952D01*
X106847142Y-161944571D01*
X106799523Y-162039809D01*
X106799523Y-162277904D01*
X106847142Y-162373142D01*
X106894761Y-162420761D01*
X106990000Y-162468380D01*
X107275714Y-162468380D01*
X107370952Y-162420761D01*
X107418571Y-162373142D01*
X57656666Y-162468380D02*
X58132857Y-162468380D01*
X58132857Y-161468380D01*
X57418571Y-161468380D02*
X56799523Y-161468380D01*
X57132857Y-161849333D01*
X56990000Y-161849333D01*
X56894761Y-161896952D01*
X56847142Y-161944571D01*
X56799523Y-162039809D01*
X56799523Y-162277904D01*
X56847142Y-162373142D01*
X56894761Y-162420761D01*
X56990000Y-162468380D01*
X57275714Y-162468380D01*
X57370952Y-162420761D01*
X57418571Y-162373142D01*
X107656666Y-128468380D02*
X108132857Y-128468380D01*
X108132857Y-127468380D01*
X107418571Y-127468380D02*
X106799523Y-127468380D01*
X107132857Y-127849333D01*
X106990000Y-127849333D01*
X106894761Y-127896952D01*
X106847142Y-127944571D01*
X106799523Y-128039809D01*
X106799523Y-128277904D01*
X106847142Y-128373142D01*
X106894761Y-128420761D01*
X106990000Y-128468380D01*
X107275714Y-128468380D01*
X107370952Y-128420761D01*
X107418571Y-128373142D01*
X109856666Y-141386380D02*
X110190000Y-140910190D01*
X110428095Y-141386380D02*
X110428095Y-140386380D01*
X110047142Y-140386380D01*
X109951904Y-140434000D01*
X109904285Y-140481619D01*
X109856666Y-140576857D01*
X109856666Y-140719714D01*
X109904285Y-140814952D01*
X109951904Y-140862571D01*
X110047142Y-140910190D01*
X110428095Y-140910190D01*
X108951904Y-140386380D02*
X109428095Y-140386380D01*
X109475714Y-140862571D01*
X109428095Y-140814952D01*
X109332857Y-140767333D01*
X109094761Y-140767333D01*
X108999523Y-140814952D01*
X108951904Y-140862571D01*
X108904285Y-140957809D01*
X108904285Y-141195904D01*
X108951904Y-141291142D01*
X108999523Y-141338761D01*
X109094761Y-141386380D01*
X109332857Y-141386380D01*
X109428095Y-141338761D01*
X109475714Y-141291142D01*
X59856666Y-141386380D02*
X60190000Y-140910190D01*
X60428095Y-141386380D02*
X60428095Y-140386380D01*
X60047142Y-140386380D01*
X59951904Y-140434000D01*
X59904285Y-140481619D01*
X59856666Y-140576857D01*
X59856666Y-140719714D01*
X59904285Y-140814952D01*
X59951904Y-140862571D01*
X60047142Y-140910190D01*
X60428095Y-140910190D01*
X58951904Y-140386380D02*
X59428095Y-140386380D01*
X59475714Y-140862571D01*
X59428095Y-140814952D01*
X59332857Y-140767333D01*
X59094761Y-140767333D01*
X58999523Y-140814952D01*
X58951904Y-140862571D01*
X58904285Y-140957809D01*
X58904285Y-141195904D01*
X58951904Y-141291142D01*
X58999523Y-141338761D01*
X59094761Y-141386380D01*
X59332857Y-141386380D01*
X59428095Y-141338761D01*
X59475714Y-141291142D01*
X109856666Y-107386380D02*
X110190000Y-106910190D01*
X110428095Y-107386380D02*
X110428095Y-106386380D01*
X110047142Y-106386380D01*
X109951904Y-106434000D01*
X109904285Y-106481619D01*
X109856666Y-106576857D01*
X109856666Y-106719714D01*
X109904285Y-106814952D01*
X109951904Y-106862571D01*
X110047142Y-106910190D01*
X110428095Y-106910190D01*
X108951904Y-106386380D02*
X109428095Y-106386380D01*
X109475714Y-106862571D01*
X109428095Y-106814952D01*
X109332857Y-106767333D01*
X109094761Y-106767333D01*
X108999523Y-106814952D01*
X108951904Y-106862571D01*
X108904285Y-106957809D01*
X108904285Y-107195904D01*
X108951904Y-107291142D01*
X108999523Y-107338761D01*
X109094761Y-107386380D01*
X109332857Y-107386380D01*
X109428095Y-107338761D01*
X109475714Y-107291142D01*
X109856666Y-140116380D02*
X110190000Y-139640190D01*
X110428095Y-140116380D02*
X110428095Y-139116380D01*
X110047142Y-139116380D01*
X109951904Y-139164000D01*
X109904285Y-139211619D01*
X109856666Y-139306857D01*
X109856666Y-139449714D01*
X109904285Y-139544952D01*
X109951904Y-139592571D01*
X110047142Y-139640190D01*
X110428095Y-139640190D01*
X108999523Y-139116380D02*
X109190000Y-139116380D01*
X109285238Y-139164000D01*
X109332857Y-139211619D01*
X109428095Y-139354476D01*
X109475714Y-139544952D01*
X109475714Y-139925904D01*
X109428095Y-140021142D01*
X109380476Y-140068761D01*
X109285238Y-140116380D01*
X109094761Y-140116380D01*
X108999523Y-140068761D01*
X108951904Y-140021142D01*
X108904285Y-139925904D01*
X108904285Y-139687809D01*
X108951904Y-139592571D01*
X108999523Y-139544952D01*
X109094761Y-139497333D01*
X109285238Y-139497333D01*
X109380476Y-139544952D01*
X109428095Y-139592571D01*
X109475714Y-139687809D01*
X59856666Y-140116380D02*
X60190000Y-139640190D01*
X60428095Y-140116380D02*
X60428095Y-139116380D01*
X60047142Y-139116380D01*
X59951904Y-139164000D01*
X59904285Y-139211619D01*
X59856666Y-139306857D01*
X59856666Y-139449714D01*
X59904285Y-139544952D01*
X59951904Y-139592571D01*
X60047142Y-139640190D01*
X60428095Y-139640190D01*
X58999523Y-139116380D02*
X59190000Y-139116380D01*
X59285238Y-139164000D01*
X59332857Y-139211619D01*
X59428095Y-139354476D01*
X59475714Y-139544952D01*
X59475714Y-139925904D01*
X59428095Y-140021142D01*
X59380476Y-140068761D01*
X59285238Y-140116380D01*
X59094761Y-140116380D01*
X58999523Y-140068761D01*
X58951904Y-140021142D01*
X58904285Y-139925904D01*
X58904285Y-139687809D01*
X58951904Y-139592571D01*
X58999523Y-139544952D01*
X59094761Y-139497333D01*
X59285238Y-139497333D01*
X59380476Y-139544952D01*
X59428095Y-139592571D01*
X59475714Y-139687809D01*
X109856666Y-106116380D02*
X110190000Y-105640190D01*
X110428095Y-106116380D02*
X110428095Y-105116380D01*
X110047142Y-105116380D01*
X109951904Y-105164000D01*
X109904285Y-105211619D01*
X109856666Y-105306857D01*
X109856666Y-105449714D01*
X109904285Y-105544952D01*
X109951904Y-105592571D01*
X110047142Y-105640190D01*
X110428095Y-105640190D01*
X108999523Y-105116380D02*
X109190000Y-105116380D01*
X109285238Y-105164000D01*
X109332857Y-105211619D01*
X109428095Y-105354476D01*
X109475714Y-105544952D01*
X109475714Y-105925904D01*
X109428095Y-106021142D01*
X109380476Y-106068761D01*
X109285238Y-106116380D01*
X109094761Y-106116380D01*
X108999523Y-106068761D01*
X108951904Y-106021142D01*
X108904285Y-105925904D01*
X108904285Y-105687809D01*
X108951904Y-105592571D01*
X108999523Y-105544952D01*
X109094761Y-105497333D01*
X109285238Y-105497333D01*
X109380476Y-105544952D01*
X109428095Y-105592571D01*
X109475714Y-105687809D01*
X112142666Y-165516380D02*
X112476000Y-165040190D01*
X112714095Y-165516380D02*
X112714095Y-164516380D01*
X112333142Y-164516380D01*
X112237904Y-164564000D01*
X112190285Y-164611619D01*
X112142666Y-164706857D01*
X112142666Y-164849714D01*
X112190285Y-164944952D01*
X112237904Y-164992571D01*
X112333142Y-165040190D01*
X112714095Y-165040190D01*
X111571238Y-164944952D02*
X111666476Y-164897333D01*
X111714095Y-164849714D01*
X111761714Y-164754476D01*
X111761714Y-164706857D01*
X111714095Y-164611619D01*
X111666476Y-164564000D01*
X111571238Y-164516380D01*
X111380761Y-164516380D01*
X111285523Y-164564000D01*
X111237904Y-164611619D01*
X111190285Y-164706857D01*
X111190285Y-164754476D01*
X111237904Y-164849714D01*
X111285523Y-164897333D01*
X111380761Y-164944952D01*
X111571238Y-164944952D01*
X111666476Y-164992571D01*
X111714095Y-165040190D01*
X111761714Y-165135428D01*
X111761714Y-165325904D01*
X111714095Y-165421142D01*
X111666476Y-165468761D01*
X111571238Y-165516380D01*
X111380761Y-165516380D01*
X111285523Y-165468761D01*
X111237904Y-165421142D01*
X111190285Y-165325904D01*
X111190285Y-165135428D01*
X111237904Y-165040190D01*
X111285523Y-164992571D01*
X111380761Y-164944952D01*
X62142666Y-165516380D02*
X62476000Y-165040190D01*
X62714095Y-165516380D02*
X62714095Y-164516380D01*
X62333142Y-164516380D01*
X62237904Y-164564000D01*
X62190285Y-164611619D01*
X62142666Y-164706857D01*
X62142666Y-164849714D01*
X62190285Y-164944952D01*
X62237904Y-164992571D01*
X62333142Y-165040190D01*
X62714095Y-165040190D01*
X61571238Y-164944952D02*
X61666476Y-164897333D01*
X61714095Y-164849714D01*
X61761714Y-164754476D01*
X61761714Y-164706857D01*
X61714095Y-164611619D01*
X61666476Y-164564000D01*
X61571238Y-164516380D01*
X61380761Y-164516380D01*
X61285523Y-164564000D01*
X61237904Y-164611619D01*
X61190285Y-164706857D01*
X61190285Y-164754476D01*
X61237904Y-164849714D01*
X61285523Y-164897333D01*
X61380761Y-164944952D01*
X61571238Y-164944952D01*
X61666476Y-164992571D01*
X61714095Y-165040190D01*
X61761714Y-165135428D01*
X61761714Y-165325904D01*
X61714095Y-165421142D01*
X61666476Y-165468761D01*
X61571238Y-165516380D01*
X61380761Y-165516380D01*
X61285523Y-165468761D01*
X61237904Y-165421142D01*
X61190285Y-165325904D01*
X61190285Y-165135428D01*
X61237904Y-165040190D01*
X61285523Y-164992571D01*
X61380761Y-164944952D01*
X112142666Y-131516380D02*
X112476000Y-131040190D01*
X112714095Y-131516380D02*
X112714095Y-130516380D01*
X112333142Y-130516380D01*
X112237904Y-130564000D01*
X112190285Y-130611619D01*
X112142666Y-130706857D01*
X112142666Y-130849714D01*
X112190285Y-130944952D01*
X112237904Y-130992571D01*
X112333142Y-131040190D01*
X112714095Y-131040190D01*
X111571238Y-130944952D02*
X111666476Y-130897333D01*
X111714095Y-130849714D01*
X111761714Y-130754476D01*
X111761714Y-130706857D01*
X111714095Y-130611619D01*
X111666476Y-130564000D01*
X111571238Y-130516380D01*
X111380761Y-130516380D01*
X111285523Y-130564000D01*
X111237904Y-130611619D01*
X111190285Y-130706857D01*
X111190285Y-130754476D01*
X111237904Y-130849714D01*
X111285523Y-130897333D01*
X111380761Y-130944952D01*
X111571238Y-130944952D01*
X111666476Y-130992571D01*
X111714095Y-131040190D01*
X111761714Y-131135428D01*
X111761714Y-131325904D01*
X111714095Y-131421142D01*
X111666476Y-131468761D01*
X111571238Y-131516380D01*
X111380761Y-131516380D01*
X111285523Y-131468761D01*
X111237904Y-131421142D01*
X111190285Y-131325904D01*
X111190285Y-131135428D01*
X111237904Y-131040190D01*
X111285523Y-130992571D01*
X111380761Y-130944952D01*
X109856666Y-136052380D02*
X110332857Y-136052380D01*
X110332857Y-135052380D01*
X109094761Y-135385714D02*
X109094761Y-136052380D01*
X109332857Y-135004761D02*
X109570952Y-135719047D01*
X108951904Y-135719047D01*
X59856666Y-136052380D02*
X60332857Y-136052380D01*
X60332857Y-135052380D01*
X59094761Y-135385714D02*
X59094761Y-136052380D01*
X59332857Y-135004761D02*
X59570952Y-135719047D01*
X58951904Y-135719047D01*
X109856666Y-102052380D02*
X110332857Y-102052380D01*
X110332857Y-101052380D01*
X109094761Y-101385714D02*
X109094761Y-102052380D01*
X109332857Y-101004761D02*
X109570952Y-101719047D01*
X108951904Y-101719047D01*
X127858857Y-158912380D02*
X128192190Y-158436190D01*
X128430285Y-158912380D02*
X128430285Y-157912380D01*
X128049333Y-157912380D01*
X127954095Y-157960000D01*
X127906476Y-158007619D01*
X127858857Y-158102857D01*
X127858857Y-158245714D01*
X127906476Y-158340952D01*
X127954095Y-158388571D01*
X128049333Y-158436190D01*
X128430285Y-158436190D01*
X126906476Y-158912380D02*
X127477904Y-158912380D01*
X127192190Y-158912380D02*
X127192190Y-157912380D01*
X127287428Y-158055238D01*
X127382666Y-158150476D01*
X127477904Y-158198095D01*
X126525523Y-158007619D02*
X126477904Y-157960000D01*
X126382666Y-157912380D01*
X126144571Y-157912380D01*
X126049333Y-157960000D01*
X126001714Y-158007619D01*
X125954095Y-158102857D01*
X125954095Y-158198095D01*
X126001714Y-158340952D01*
X126573142Y-158912380D01*
X125954095Y-158912380D01*
X77858857Y-158912380D02*
X78192190Y-158436190D01*
X78430285Y-158912380D02*
X78430285Y-157912380D01*
X78049333Y-157912380D01*
X77954095Y-157960000D01*
X77906476Y-158007619D01*
X77858857Y-158102857D01*
X77858857Y-158245714D01*
X77906476Y-158340952D01*
X77954095Y-158388571D01*
X78049333Y-158436190D01*
X78430285Y-158436190D01*
X76906476Y-158912380D02*
X77477904Y-158912380D01*
X77192190Y-158912380D02*
X77192190Y-157912380D01*
X77287428Y-158055238D01*
X77382666Y-158150476D01*
X77477904Y-158198095D01*
X76525523Y-158007619D02*
X76477904Y-157960000D01*
X76382666Y-157912380D01*
X76144571Y-157912380D01*
X76049333Y-157960000D01*
X76001714Y-158007619D01*
X75954095Y-158102857D01*
X75954095Y-158198095D01*
X76001714Y-158340952D01*
X76573142Y-158912380D01*
X75954095Y-158912380D01*
X127858857Y-124912380D02*
X128192190Y-124436190D01*
X128430285Y-124912380D02*
X128430285Y-123912380D01*
X128049333Y-123912380D01*
X127954095Y-123960000D01*
X127906476Y-124007619D01*
X127858857Y-124102857D01*
X127858857Y-124245714D01*
X127906476Y-124340952D01*
X127954095Y-124388571D01*
X128049333Y-124436190D01*
X128430285Y-124436190D01*
X126906476Y-124912380D02*
X127477904Y-124912380D01*
X127192190Y-124912380D02*
X127192190Y-123912380D01*
X127287428Y-124055238D01*
X127382666Y-124150476D01*
X127477904Y-124198095D01*
X126525523Y-124007619D02*
X126477904Y-123960000D01*
X126382666Y-123912380D01*
X126144571Y-123912380D01*
X126049333Y-123960000D01*
X126001714Y-124007619D01*
X125954095Y-124102857D01*
X125954095Y-124198095D01*
X126001714Y-124340952D01*
X126573142Y-124912380D01*
X125954095Y-124912380D01*
X110332857Y-142656380D02*
X110666190Y-142180190D01*
X110904285Y-142656380D02*
X110904285Y-141656380D01*
X110523333Y-141656380D01*
X110428095Y-141704000D01*
X110380476Y-141751619D01*
X110332857Y-141846857D01*
X110332857Y-141989714D01*
X110380476Y-142084952D01*
X110428095Y-142132571D01*
X110523333Y-142180190D01*
X110904285Y-142180190D01*
X109380476Y-142656380D02*
X109951904Y-142656380D01*
X109666190Y-142656380D02*
X109666190Y-141656380D01*
X109761428Y-141799238D01*
X109856666Y-141894476D01*
X109951904Y-141942095D01*
X109047142Y-141656380D02*
X108428095Y-141656380D01*
X108761428Y-142037333D01*
X108618571Y-142037333D01*
X108523333Y-142084952D01*
X108475714Y-142132571D01*
X108428095Y-142227809D01*
X108428095Y-142465904D01*
X108475714Y-142561142D01*
X108523333Y-142608761D01*
X108618571Y-142656380D01*
X108904285Y-142656380D01*
X108999523Y-142608761D01*
X109047142Y-142561142D01*
X60332857Y-142656380D02*
X60666190Y-142180190D01*
X60904285Y-142656380D02*
X60904285Y-141656380D01*
X60523333Y-141656380D01*
X60428095Y-141704000D01*
X60380476Y-141751619D01*
X60332857Y-141846857D01*
X60332857Y-141989714D01*
X60380476Y-142084952D01*
X60428095Y-142132571D01*
X60523333Y-142180190D01*
X60904285Y-142180190D01*
X59380476Y-142656380D02*
X59951904Y-142656380D01*
X59666190Y-142656380D02*
X59666190Y-141656380D01*
X59761428Y-141799238D01*
X59856666Y-141894476D01*
X59951904Y-141942095D01*
X59047142Y-141656380D02*
X58428095Y-141656380D01*
X58761428Y-142037333D01*
X58618571Y-142037333D01*
X58523333Y-142084952D01*
X58475714Y-142132571D01*
X58428095Y-142227809D01*
X58428095Y-142465904D01*
X58475714Y-142561142D01*
X58523333Y-142608761D01*
X58618571Y-142656380D01*
X58904285Y-142656380D01*
X58999523Y-142608761D01*
X59047142Y-142561142D01*
X110332857Y-108656380D02*
X110666190Y-108180190D01*
X110904285Y-108656380D02*
X110904285Y-107656380D01*
X110523333Y-107656380D01*
X110428095Y-107704000D01*
X110380476Y-107751619D01*
X110332857Y-107846857D01*
X110332857Y-107989714D01*
X110380476Y-108084952D01*
X110428095Y-108132571D01*
X110523333Y-108180190D01*
X110904285Y-108180190D01*
X109380476Y-108656380D02*
X109951904Y-108656380D01*
X109666190Y-108656380D02*
X109666190Y-107656380D01*
X109761428Y-107799238D01*
X109856666Y-107894476D01*
X109951904Y-107942095D01*
X109047142Y-107656380D02*
X108428095Y-107656380D01*
X108761428Y-108037333D01*
X108618571Y-108037333D01*
X108523333Y-108084952D01*
X108475714Y-108132571D01*
X108428095Y-108227809D01*
X108428095Y-108465904D01*
X108475714Y-108561142D01*
X108523333Y-108608761D01*
X108618571Y-108656380D01*
X108904285Y-108656380D01*
X108999523Y-108608761D01*
X109047142Y-108561142D01*
X129382857Y-152816380D02*
X129716190Y-152340190D01*
X129954285Y-152816380D02*
X129954285Y-151816380D01*
X129573333Y-151816380D01*
X129478095Y-151864000D01*
X129430476Y-151911619D01*
X129382857Y-152006857D01*
X129382857Y-152149714D01*
X129430476Y-152244952D01*
X129478095Y-152292571D01*
X129573333Y-152340190D01*
X129954285Y-152340190D01*
X128430476Y-152816380D02*
X129001904Y-152816380D01*
X128716190Y-152816380D02*
X128716190Y-151816380D01*
X128811428Y-151959238D01*
X128906666Y-152054476D01*
X129001904Y-152102095D01*
X127525714Y-151816380D02*
X128001904Y-151816380D01*
X128049523Y-152292571D01*
X128001904Y-152244952D01*
X127906666Y-152197333D01*
X127668571Y-152197333D01*
X127573333Y-152244952D01*
X127525714Y-152292571D01*
X127478095Y-152387809D01*
X127478095Y-152625904D01*
X127525714Y-152721142D01*
X127573333Y-152768761D01*
X127668571Y-152816380D01*
X127906666Y-152816380D01*
X128001904Y-152768761D01*
X128049523Y-152721142D01*
X79382857Y-152816380D02*
X79716190Y-152340190D01*
X79954285Y-152816380D02*
X79954285Y-151816380D01*
X79573333Y-151816380D01*
X79478095Y-151864000D01*
X79430476Y-151911619D01*
X79382857Y-152006857D01*
X79382857Y-152149714D01*
X79430476Y-152244952D01*
X79478095Y-152292571D01*
X79573333Y-152340190D01*
X79954285Y-152340190D01*
X78430476Y-152816380D02*
X79001904Y-152816380D01*
X78716190Y-152816380D02*
X78716190Y-151816380D01*
X78811428Y-151959238D01*
X78906666Y-152054476D01*
X79001904Y-152102095D01*
X77525714Y-151816380D02*
X78001904Y-151816380D01*
X78049523Y-152292571D01*
X78001904Y-152244952D01*
X77906666Y-152197333D01*
X77668571Y-152197333D01*
X77573333Y-152244952D01*
X77525714Y-152292571D01*
X77478095Y-152387809D01*
X77478095Y-152625904D01*
X77525714Y-152721142D01*
X77573333Y-152768761D01*
X77668571Y-152816380D01*
X77906666Y-152816380D01*
X78001904Y-152768761D01*
X78049523Y-152721142D01*
X129382857Y-118816380D02*
X129716190Y-118340190D01*
X129954285Y-118816380D02*
X129954285Y-117816380D01*
X129573333Y-117816380D01*
X129478095Y-117864000D01*
X129430476Y-117911619D01*
X129382857Y-118006857D01*
X129382857Y-118149714D01*
X129430476Y-118244952D01*
X129478095Y-118292571D01*
X129573333Y-118340190D01*
X129954285Y-118340190D01*
X128430476Y-118816380D02*
X129001904Y-118816380D01*
X128716190Y-118816380D02*
X128716190Y-117816380D01*
X128811428Y-117959238D01*
X128906666Y-118054476D01*
X129001904Y-118102095D01*
X127525714Y-117816380D02*
X128001904Y-117816380D01*
X128049523Y-118292571D01*
X128001904Y-118244952D01*
X127906666Y-118197333D01*
X127668571Y-118197333D01*
X127573333Y-118244952D01*
X127525714Y-118292571D01*
X127478095Y-118387809D01*
X127478095Y-118625904D01*
X127525714Y-118721142D01*
X127573333Y-118768761D01*
X127668571Y-118816380D01*
X127906666Y-118816380D01*
X128001904Y-118768761D01*
X128049523Y-118721142D01*
X103570095Y-149006380D02*
X103570095Y-148006380D01*
X103332000Y-148006380D01*
X103189142Y-148054000D01*
X103093904Y-148149238D01*
X103046285Y-148244476D01*
X102998666Y-148434952D01*
X102998666Y-148577809D01*
X103046285Y-148768285D01*
X103093904Y-148863523D01*
X103189142Y-148958761D01*
X103332000Y-149006380D01*
X103570095Y-149006380D01*
X102617714Y-148101619D02*
X102570095Y-148054000D01*
X102474857Y-148006380D01*
X102236761Y-148006380D01*
X102141523Y-148054000D01*
X102093904Y-148101619D01*
X102046285Y-148196857D01*
X102046285Y-148292095D01*
X102093904Y-148434952D01*
X102665333Y-149006380D01*
X102046285Y-149006380D01*
X53570095Y-149006380D02*
X53570095Y-148006380D01*
X53332000Y-148006380D01*
X53189142Y-148054000D01*
X53093904Y-148149238D01*
X53046285Y-148244476D01*
X52998666Y-148434952D01*
X52998666Y-148577809D01*
X53046285Y-148768285D01*
X53093904Y-148863523D01*
X53189142Y-148958761D01*
X53332000Y-149006380D01*
X53570095Y-149006380D01*
X52617714Y-148101619D02*
X52570095Y-148054000D01*
X52474857Y-148006380D01*
X52236761Y-148006380D01*
X52141523Y-148054000D01*
X52093904Y-148101619D01*
X52046285Y-148196857D01*
X52046285Y-148292095D01*
X52093904Y-148434952D01*
X52665333Y-149006380D01*
X52046285Y-149006380D01*
X103570095Y-115006380D02*
X103570095Y-114006380D01*
X103332000Y-114006380D01*
X103189142Y-114054000D01*
X103093904Y-114149238D01*
X103046285Y-114244476D01*
X102998666Y-114434952D01*
X102998666Y-114577809D01*
X103046285Y-114768285D01*
X103093904Y-114863523D01*
X103189142Y-114958761D01*
X103332000Y-115006380D01*
X103570095Y-115006380D01*
X102617714Y-114101619D02*
X102570095Y-114054000D01*
X102474857Y-114006380D01*
X102236761Y-114006380D01*
X102141523Y-114054000D01*
X102093904Y-114101619D01*
X102046285Y-114196857D01*
X102046285Y-114292095D01*
X102093904Y-114434952D01*
X102665333Y-115006380D01*
X102046285Y-115006380D01*
X102490666Y-159325142D02*
X102538285Y-159372761D01*
X102681142Y-159420380D01*
X102776380Y-159420380D01*
X102919238Y-159372761D01*
X103014476Y-159277523D01*
X103062095Y-159182285D01*
X103109714Y-158991809D01*
X103109714Y-158848952D01*
X103062095Y-158658476D01*
X103014476Y-158563238D01*
X102919238Y-158468000D01*
X102776380Y-158420380D01*
X102681142Y-158420380D01*
X102538285Y-158468000D01*
X102490666Y-158515619D01*
X101538285Y-159420380D02*
X102109714Y-159420380D01*
X101824000Y-159420380D02*
X101824000Y-158420380D01*
X101919238Y-158563238D01*
X102014476Y-158658476D01*
X102109714Y-158706095D01*
X52490666Y-159325142D02*
X52538285Y-159372761D01*
X52681142Y-159420380D01*
X52776380Y-159420380D01*
X52919238Y-159372761D01*
X53014476Y-159277523D01*
X53062095Y-159182285D01*
X53109714Y-158991809D01*
X53109714Y-158848952D01*
X53062095Y-158658476D01*
X53014476Y-158563238D01*
X52919238Y-158468000D01*
X52776380Y-158420380D01*
X52681142Y-158420380D01*
X52538285Y-158468000D01*
X52490666Y-158515619D01*
X51538285Y-159420380D02*
X52109714Y-159420380D01*
X51824000Y-159420380D02*
X51824000Y-158420380D01*
X51919238Y-158563238D01*
X52014476Y-158658476D01*
X52109714Y-158706095D01*
X102490666Y-125325142D02*
X102538285Y-125372761D01*
X102681142Y-125420380D01*
X102776380Y-125420380D01*
X102919238Y-125372761D01*
X103014476Y-125277523D01*
X103062095Y-125182285D01*
X103109714Y-124991809D01*
X103109714Y-124848952D01*
X103062095Y-124658476D01*
X103014476Y-124563238D01*
X102919238Y-124468000D01*
X102776380Y-124420380D01*
X102681142Y-124420380D01*
X102538285Y-124468000D01*
X102490666Y-124515619D01*
X101538285Y-125420380D02*
X102109714Y-125420380D01*
X101824000Y-125420380D02*
X101824000Y-124420380D01*
X101919238Y-124563238D01*
X102014476Y-124658476D01*
X102109714Y-124706095D01*
X112142666Y-163897142D02*
X112190285Y-163944761D01*
X112333142Y-163992380D01*
X112428380Y-163992380D01*
X112571238Y-163944761D01*
X112666476Y-163849523D01*
X112714095Y-163754285D01*
X112761714Y-163563809D01*
X112761714Y-163420952D01*
X112714095Y-163230476D01*
X112666476Y-163135238D01*
X112571238Y-163040000D01*
X112428380Y-162992380D01*
X112333142Y-162992380D01*
X112190285Y-163040000D01*
X112142666Y-163087619D01*
X111809333Y-162992380D02*
X111190285Y-162992380D01*
X111523619Y-163373333D01*
X111380761Y-163373333D01*
X111285523Y-163420952D01*
X111237904Y-163468571D01*
X111190285Y-163563809D01*
X111190285Y-163801904D01*
X111237904Y-163897142D01*
X111285523Y-163944761D01*
X111380761Y-163992380D01*
X111666476Y-163992380D01*
X111761714Y-163944761D01*
X111809333Y-163897142D01*
X62142666Y-163897142D02*
X62190285Y-163944761D01*
X62333142Y-163992380D01*
X62428380Y-163992380D01*
X62571238Y-163944761D01*
X62666476Y-163849523D01*
X62714095Y-163754285D01*
X62761714Y-163563809D01*
X62761714Y-163420952D01*
X62714095Y-163230476D01*
X62666476Y-163135238D01*
X62571238Y-163040000D01*
X62428380Y-162992380D01*
X62333142Y-162992380D01*
X62190285Y-163040000D01*
X62142666Y-163087619D01*
X61809333Y-162992380D02*
X61190285Y-162992380D01*
X61523619Y-163373333D01*
X61380761Y-163373333D01*
X61285523Y-163420952D01*
X61237904Y-163468571D01*
X61190285Y-163563809D01*
X61190285Y-163801904D01*
X61237904Y-163897142D01*
X61285523Y-163944761D01*
X61380761Y-163992380D01*
X61666476Y-163992380D01*
X61761714Y-163944761D01*
X61809333Y-163897142D01*
X112142666Y-129897142D02*
X112190285Y-129944761D01*
X112333142Y-129992380D01*
X112428380Y-129992380D01*
X112571238Y-129944761D01*
X112666476Y-129849523D01*
X112714095Y-129754285D01*
X112761714Y-129563809D01*
X112761714Y-129420952D01*
X112714095Y-129230476D01*
X112666476Y-129135238D01*
X112571238Y-129040000D01*
X112428380Y-128992380D01*
X112333142Y-128992380D01*
X112190285Y-129040000D01*
X112142666Y-129087619D01*
X111809333Y-128992380D02*
X111190285Y-128992380D01*
X111523619Y-129373333D01*
X111380761Y-129373333D01*
X111285523Y-129420952D01*
X111237904Y-129468571D01*
X111190285Y-129563809D01*
X111190285Y-129801904D01*
X111237904Y-129897142D01*
X111285523Y-129944761D01*
X111380761Y-129992380D01*
X111666476Y-129992380D01*
X111761714Y-129944761D01*
X111809333Y-129897142D01*
X127382666Y-157293142D02*
X127430285Y-157340761D01*
X127573142Y-157388380D01*
X127668380Y-157388380D01*
X127811238Y-157340761D01*
X127906476Y-157245523D01*
X127954095Y-157150285D01*
X128001714Y-156959809D01*
X128001714Y-156816952D01*
X127954095Y-156626476D01*
X127906476Y-156531238D01*
X127811238Y-156436000D01*
X127668380Y-156388380D01*
X127573142Y-156388380D01*
X127430285Y-156436000D01*
X127382666Y-156483619D01*
X126525523Y-156721714D02*
X126525523Y-157388380D01*
X126763619Y-156340761D02*
X127001714Y-157055047D01*
X126382666Y-157055047D01*
X77382666Y-157293142D02*
X77430285Y-157340761D01*
X77573142Y-157388380D01*
X77668380Y-157388380D01*
X77811238Y-157340761D01*
X77906476Y-157245523D01*
X77954095Y-157150285D01*
X78001714Y-156959809D01*
X78001714Y-156816952D01*
X77954095Y-156626476D01*
X77906476Y-156531238D01*
X77811238Y-156436000D01*
X77668380Y-156388380D01*
X77573142Y-156388380D01*
X77430285Y-156436000D01*
X77382666Y-156483619D01*
X76525523Y-156721714D02*
X76525523Y-157388380D01*
X76763619Y-156340761D02*
X77001714Y-157055047D01*
X76382666Y-157055047D01*
X127382666Y-123293142D02*
X127430285Y-123340761D01*
X127573142Y-123388380D01*
X127668380Y-123388380D01*
X127811238Y-123340761D01*
X127906476Y-123245523D01*
X127954095Y-123150285D01*
X128001714Y-122959809D01*
X128001714Y-122816952D01*
X127954095Y-122626476D01*
X127906476Y-122531238D01*
X127811238Y-122436000D01*
X127668380Y-122388380D01*
X127573142Y-122388380D01*
X127430285Y-122436000D01*
X127382666Y-122483619D01*
X126525523Y-122721714D02*
X126525523Y-123388380D01*
X126763619Y-122340761D02*
X127001714Y-123055047D01*
X126382666Y-123055047D01*
X117730666Y-164151142D02*
X117778285Y-164198761D01*
X117921142Y-164246380D01*
X118016380Y-164246380D01*
X118159238Y-164198761D01*
X118254476Y-164103523D01*
X118302095Y-164008285D01*
X118349714Y-163817809D01*
X118349714Y-163674952D01*
X118302095Y-163484476D01*
X118254476Y-163389238D01*
X118159238Y-163294000D01*
X118016380Y-163246380D01*
X117921142Y-163246380D01*
X117778285Y-163294000D01*
X117730666Y-163341619D01*
X116825904Y-163246380D02*
X117302095Y-163246380D01*
X117349714Y-163722571D01*
X117302095Y-163674952D01*
X117206857Y-163627333D01*
X116968761Y-163627333D01*
X116873523Y-163674952D01*
X116825904Y-163722571D01*
X116778285Y-163817809D01*
X116778285Y-164055904D01*
X116825904Y-164151142D01*
X116873523Y-164198761D01*
X116968761Y-164246380D01*
X117206857Y-164246380D01*
X117302095Y-164198761D01*
X117349714Y-164151142D01*
X67730666Y-164151142D02*
X67778285Y-164198761D01*
X67921142Y-164246380D01*
X68016380Y-164246380D01*
X68159238Y-164198761D01*
X68254476Y-164103523D01*
X68302095Y-164008285D01*
X68349714Y-163817809D01*
X68349714Y-163674952D01*
X68302095Y-163484476D01*
X68254476Y-163389238D01*
X68159238Y-163294000D01*
X68016380Y-163246380D01*
X67921142Y-163246380D01*
X67778285Y-163294000D01*
X67730666Y-163341619D01*
X66825904Y-163246380D02*
X67302095Y-163246380D01*
X67349714Y-163722571D01*
X67302095Y-163674952D01*
X67206857Y-163627333D01*
X66968761Y-163627333D01*
X66873523Y-163674952D01*
X66825904Y-163722571D01*
X66778285Y-163817809D01*
X66778285Y-164055904D01*
X66825904Y-164151142D01*
X66873523Y-164198761D01*
X66968761Y-164246380D01*
X67206857Y-164246380D01*
X67302095Y-164198761D01*
X67349714Y-164151142D01*
X117730666Y-130151142D02*
X117778285Y-130198761D01*
X117921142Y-130246380D01*
X118016380Y-130246380D01*
X118159238Y-130198761D01*
X118254476Y-130103523D01*
X118302095Y-130008285D01*
X118349714Y-129817809D01*
X118349714Y-129674952D01*
X118302095Y-129484476D01*
X118254476Y-129389238D01*
X118159238Y-129294000D01*
X118016380Y-129246380D01*
X117921142Y-129246380D01*
X117778285Y-129294000D01*
X117730666Y-129341619D01*
X116825904Y-129246380D02*
X117302095Y-129246380D01*
X117349714Y-129722571D01*
X117302095Y-129674952D01*
X117206857Y-129627333D01*
X116968761Y-129627333D01*
X116873523Y-129674952D01*
X116825904Y-129722571D01*
X116778285Y-129817809D01*
X116778285Y-130055904D01*
X116825904Y-130151142D01*
X116873523Y-130198761D01*
X116968761Y-130246380D01*
X117206857Y-130246380D01*
X117302095Y-130198761D01*
X117349714Y-130151142D01*
X121794666Y-164659142D02*
X121842285Y-164706761D01*
X121985142Y-164754380D01*
X122080380Y-164754380D01*
X122223238Y-164706761D01*
X122318476Y-164611523D01*
X122366095Y-164516285D01*
X122413714Y-164325809D01*
X122413714Y-164182952D01*
X122366095Y-163992476D01*
X122318476Y-163897238D01*
X122223238Y-163802000D01*
X122080380Y-163754380D01*
X121985142Y-163754380D01*
X121842285Y-163802000D01*
X121794666Y-163849619D01*
X120937523Y-163754380D02*
X121128000Y-163754380D01*
X121223238Y-163802000D01*
X121270857Y-163849619D01*
X121366095Y-163992476D01*
X121413714Y-164182952D01*
X121413714Y-164563904D01*
X121366095Y-164659142D01*
X121318476Y-164706761D01*
X121223238Y-164754380D01*
X121032761Y-164754380D01*
X120937523Y-164706761D01*
X120889904Y-164659142D01*
X120842285Y-164563904D01*
X120842285Y-164325809D01*
X120889904Y-164230571D01*
X120937523Y-164182952D01*
X121032761Y-164135333D01*
X121223238Y-164135333D01*
X121318476Y-164182952D01*
X121366095Y-164230571D01*
X121413714Y-164325809D01*
X71794666Y-164659142D02*
X71842285Y-164706761D01*
X71985142Y-164754380D01*
X72080380Y-164754380D01*
X72223238Y-164706761D01*
X72318476Y-164611523D01*
X72366095Y-164516285D01*
X72413714Y-164325809D01*
X72413714Y-164182952D01*
X72366095Y-163992476D01*
X72318476Y-163897238D01*
X72223238Y-163802000D01*
X72080380Y-163754380D01*
X71985142Y-163754380D01*
X71842285Y-163802000D01*
X71794666Y-163849619D01*
X70937523Y-163754380D02*
X71128000Y-163754380D01*
X71223238Y-163802000D01*
X71270857Y-163849619D01*
X71366095Y-163992476D01*
X71413714Y-164182952D01*
X71413714Y-164563904D01*
X71366095Y-164659142D01*
X71318476Y-164706761D01*
X71223238Y-164754380D01*
X71032761Y-164754380D01*
X70937523Y-164706761D01*
X70889904Y-164659142D01*
X70842285Y-164563904D01*
X70842285Y-164325809D01*
X70889904Y-164230571D01*
X70937523Y-164182952D01*
X71032761Y-164135333D01*
X71223238Y-164135333D01*
X71318476Y-164182952D01*
X71366095Y-164230571D01*
X71413714Y-164325809D01*
X121794666Y-130659142D02*
X121842285Y-130706761D01*
X121985142Y-130754380D01*
X122080380Y-130754380D01*
X122223238Y-130706761D01*
X122318476Y-130611523D01*
X122366095Y-130516285D01*
X122413714Y-130325809D01*
X122413714Y-130182952D01*
X122366095Y-129992476D01*
X122318476Y-129897238D01*
X122223238Y-129802000D01*
X122080380Y-129754380D01*
X121985142Y-129754380D01*
X121842285Y-129802000D01*
X121794666Y-129849619D01*
X120937523Y-129754380D02*
X121128000Y-129754380D01*
X121223238Y-129802000D01*
X121270857Y-129849619D01*
X121366095Y-129992476D01*
X121413714Y-130182952D01*
X121413714Y-130563904D01*
X121366095Y-130659142D01*
X121318476Y-130706761D01*
X121223238Y-130754380D01*
X121032761Y-130754380D01*
X120937523Y-130706761D01*
X120889904Y-130659142D01*
X120842285Y-130563904D01*
X120842285Y-130325809D01*
X120889904Y-130230571D01*
X120937523Y-130182952D01*
X121032761Y-130135333D01*
X121223238Y-130135333D01*
X121318476Y-130182952D01*
X121366095Y-130230571D01*
X121413714Y-130325809D01*
X117730666Y-162881142D02*
X117778285Y-162928761D01*
X117921142Y-162976380D01*
X118016380Y-162976380D01*
X118159238Y-162928761D01*
X118254476Y-162833523D01*
X118302095Y-162738285D01*
X118349714Y-162547809D01*
X118349714Y-162404952D01*
X118302095Y-162214476D01*
X118254476Y-162119238D01*
X118159238Y-162024000D01*
X118016380Y-161976380D01*
X117921142Y-161976380D01*
X117778285Y-162024000D01*
X117730666Y-162071619D01*
X117397333Y-161976380D02*
X116730666Y-161976380D01*
X117159238Y-162976380D01*
X67730666Y-162881142D02*
X67778285Y-162928761D01*
X67921142Y-162976380D01*
X68016380Y-162976380D01*
X68159238Y-162928761D01*
X68254476Y-162833523D01*
X68302095Y-162738285D01*
X68349714Y-162547809D01*
X68349714Y-162404952D01*
X68302095Y-162214476D01*
X68254476Y-162119238D01*
X68159238Y-162024000D01*
X68016380Y-161976380D01*
X67921142Y-161976380D01*
X67778285Y-162024000D01*
X67730666Y-162071619D01*
X67397333Y-161976380D02*
X66730666Y-161976380D01*
X67159238Y-162976380D01*
X117730666Y-128881142D02*
X117778285Y-128928761D01*
X117921142Y-128976380D01*
X118016380Y-128976380D01*
X118159238Y-128928761D01*
X118254476Y-128833523D01*
X118302095Y-128738285D01*
X118349714Y-128547809D01*
X118349714Y-128404952D01*
X118302095Y-128214476D01*
X118254476Y-128119238D01*
X118159238Y-128024000D01*
X118016380Y-127976380D01*
X117921142Y-127976380D01*
X117778285Y-128024000D01*
X117730666Y-128071619D01*
X117397333Y-127976380D02*
X116730666Y-127976380D01*
X117159238Y-128976380D01*
X107656666Y-160849142D02*
X107704285Y-160896761D01*
X107847142Y-160944380D01*
X107942380Y-160944380D01*
X108085238Y-160896761D01*
X108180476Y-160801523D01*
X108228095Y-160706285D01*
X108275714Y-160515809D01*
X108275714Y-160372952D01*
X108228095Y-160182476D01*
X108180476Y-160087238D01*
X108085238Y-159992000D01*
X107942380Y-159944380D01*
X107847142Y-159944380D01*
X107704285Y-159992000D01*
X107656666Y-160039619D01*
X107085238Y-160372952D02*
X107180476Y-160325333D01*
X107228095Y-160277714D01*
X107275714Y-160182476D01*
X107275714Y-160134857D01*
X107228095Y-160039619D01*
X107180476Y-159992000D01*
X107085238Y-159944380D01*
X106894761Y-159944380D01*
X106799523Y-159992000D01*
X106751904Y-160039619D01*
X106704285Y-160134857D01*
X106704285Y-160182476D01*
X106751904Y-160277714D01*
X106799523Y-160325333D01*
X106894761Y-160372952D01*
X107085238Y-160372952D01*
X107180476Y-160420571D01*
X107228095Y-160468190D01*
X107275714Y-160563428D01*
X107275714Y-160753904D01*
X107228095Y-160849142D01*
X107180476Y-160896761D01*
X107085238Y-160944380D01*
X106894761Y-160944380D01*
X106799523Y-160896761D01*
X106751904Y-160849142D01*
X106704285Y-160753904D01*
X106704285Y-160563428D01*
X106751904Y-160468190D01*
X106799523Y-160420571D01*
X106894761Y-160372952D01*
X57656666Y-160849142D02*
X57704285Y-160896761D01*
X57847142Y-160944380D01*
X57942380Y-160944380D01*
X58085238Y-160896761D01*
X58180476Y-160801523D01*
X58228095Y-160706285D01*
X58275714Y-160515809D01*
X58275714Y-160372952D01*
X58228095Y-160182476D01*
X58180476Y-160087238D01*
X58085238Y-159992000D01*
X57942380Y-159944380D01*
X57847142Y-159944380D01*
X57704285Y-159992000D01*
X57656666Y-160039619D01*
X57085238Y-160372952D02*
X57180476Y-160325333D01*
X57228095Y-160277714D01*
X57275714Y-160182476D01*
X57275714Y-160134857D01*
X57228095Y-160039619D01*
X57180476Y-159992000D01*
X57085238Y-159944380D01*
X56894761Y-159944380D01*
X56799523Y-159992000D01*
X56751904Y-160039619D01*
X56704285Y-160134857D01*
X56704285Y-160182476D01*
X56751904Y-160277714D01*
X56799523Y-160325333D01*
X56894761Y-160372952D01*
X57085238Y-160372952D01*
X57180476Y-160420571D01*
X57228095Y-160468190D01*
X57275714Y-160563428D01*
X57275714Y-160753904D01*
X57228095Y-160849142D01*
X57180476Y-160896761D01*
X57085238Y-160944380D01*
X56894761Y-160944380D01*
X56799523Y-160896761D01*
X56751904Y-160849142D01*
X56704285Y-160753904D01*
X56704285Y-160563428D01*
X56751904Y-160468190D01*
X56799523Y-160420571D01*
X56894761Y-160372952D01*
X107656666Y-126849142D02*
X107704285Y-126896761D01*
X107847142Y-126944380D01*
X107942380Y-126944380D01*
X108085238Y-126896761D01*
X108180476Y-126801523D01*
X108228095Y-126706285D01*
X108275714Y-126515809D01*
X108275714Y-126372952D01*
X108228095Y-126182476D01*
X108180476Y-126087238D01*
X108085238Y-125992000D01*
X107942380Y-125944380D01*
X107847142Y-125944380D01*
X107704285Y-125992000D01*
X107656666Y-126039619D01*
X107085238Y-126372952D02*
X107180476Y-126325333D01*
X107228095Y-126277714D01*
X107275714Y-126182476D01*
X107275714Y-126134857D01*
X107228095Y-126039619D01*
X107180476Y-125992000D01*
X107085238Y-125944380D01*
X106894761Y-125944380D01*
X106799523Y-125992000D01*
X106751904Y-126039619D01*
X106704285Y-126134857D01*
X106704285Y-126182476D01*
X106751904Y-126277714D01*
X106799523Y-126325333D01*
X106894761Y-126372952D01*
X107085238Y-126372952D01*
X107180476Y-126420571D01*
X107228095Y-126468190D01*
X107275714Y-126563428D01*
X107275714Y-126753904D01*
X107228095Y-126849142D01*
X107180476Y-126896761D01*
X107085238Y-126944380D01*
X106894761Y-126944380D01*
X106799523Y-126896761D01*
X106751904Y-126849142D01*
X106704285Y-126753904D01*
X106704285Y-126563428D01*
X106751904Y-126468190D01*
X106799523Y-126420571D01*
X106894761Y-126372952D01*
X114873142Y-160579333D02*
X114920761Y-160531714D01*
X114968380Y-160388857D01*
X114968380Y-160293619D01*
X114920761Y-160150761D01*
X114825523Y-160055523D01*
X114730285Y-160007904D01*
X114539809Y-159960285D01*
X114396952Y-159960285D01*
X114206476Y-160007904D01*
X114111238Y-160055523D01*
X114016000Y-160150761D01*
X113968380Y-160293619D01*
X113968380Y-160388857D01*
X114016000Y-160531714D01*
X114063619Y-160579333D01*
X114968380Y-161055523D02*
X114968380Y-161246000D01*
X114920761Y-161341238D01*
X114873142Y-161388857D01*
X114730285Y-161484095D01*
X114539809Y-161531714D01*
X114158857Y-161531714D01*
X114063619Y-161484095D01*
X114016000Y-161436476D01*
X113968380Y-161341238D01*
X113968380Y-161150761D01*
X114016000Y-161055523D01*
X114063619Y-161007904D01*
X114158857Y-160960285D01*
X114396952Y-160960285D01*
X114492190Y-161007904D01*
X114539809Y-161055523D01*
X114587428Y-161150761D01*
X114587428Y-161341238D01*
X114539809Y-161436476D01*
X114492190Y-161484095D01*
X114396952Y-161531714D01*
X64873142Y-160579333D02*
X64920761Y-160531714D01*
X64968380Y-160388857D01*
X64968380Y-160293619D01*
X64920761Y-160150761D01*
X64825523Y-160055523D01*
X64730285Y-160007904D01*
X64539809Y-159960285D01*
X64396952Y-159960285D01*
X64206476Y-160007904D01*
X64111238Y-160055523D01*
X64016000Y-160150761D01*
X63968380Y-160293619D01*
X63968380Y-160388857D01*
X64016000Y-160531714D01*
X64063619Y-160579333D01*
X64968380Y-161055523D02*
X64968380Y-161246000D01*
X64920761Y-161341238D01*
X64873142Y-161388857D01*
X64730285Y-161484095D01*
X64539809Y-161531714D01*
X64158857Y-161531714D01*
X64063619Y-161484095D01*
X64016000Y-161436476D01*
X63968380Y-161341238D01*
X63968380Y-161150761D01*
X64016000Y-161055523D01*
X64063619Y-161007904D01*
X64158857Y-160960285D01*
X64396952Y-160960285D01*
X64492190Y-161007904D01*
X64539809Y-161055523D01*
X64587428Y-161150761D01*
X64587428Y-161341238D01*
X64539809Y-161436476D01*
X64492190Y-161484095D01*
X64396952Y-161531714D01*
X114873142Y-126579333D02*
X114920761Y-126531714D01*
X114968380Y-126388857D01*
X114968380Y-126293619D01*
X114920761Y-126150761D01*
X114825523Y-126055523D01*
X114730285Y-126007904D01*
X114539809Y-125960285D01*
X114396952Y-125960285D01*
X114206476Y-126007904D01*
X114111238Y-126055523D01*
X114016000Y-126150761D01*
X113968380Y-126293619D01*
X113968380Y-126388857D01*
X114016000Y-126531714D01*
X114063619Y-126579333D01*
X114968380Y-127055523D02*
X114968380Y-127246000D01*
X114920761Y-127341238D01*
X114873142Y-127388857D01*
X114730285Y-127484095D01*
X114539809Y-127531714D01*
X114158857Y-127531714D01*
X114063619Y-127484095D01*
X114016000Y-127436476D01*
X113968380Y-127341238D01*
X113968380Y-127150761D01*
X114016000Y-127055523D01*
X114063619Y-127007904D01*
X114158857Y-126960285D01*
X114396952Y-126960285D01*
X114492190Y-127007904D01*
X114539809Y-127055523D01*
X114587428Y-127150761D01*
X114587428Y-127341238D01*
X114539809Y-127436476D01*
X114492190Y-127484095D01*
X114396952Y-127531714D01*
X122270857Y-165929142D02*
X122318476Y-165976761D01*
X122461333Y-166024380D01*
X122556571Y-166024380D01*
X122699428Y-165976761D01*
X122794666Y-165881523D01*
X122842285Y-165786285D01*
X122889904Y-165595809D01*
X122889904Y-165452952D01*
X122842285Y-165262476D01*
X122794666Y-165167238D01*
X122699428Y-165072000D01*
X122556571Y-165024380D01*
X122461333Y-165024380D01*
X122318476Y-165072000D01*
X122270857Y-165119619D01*
X121318476Y-166024380D02*
X121889904Y-166024380D01*
X121604190Y-166024380D02*
X121604190Y-165024380D01*
X121699428Y-165167238D01*
X121794666Y-165262476D01*
X121889904Y-165310095D01*
X120699428Y-165024380D02*
X120604190Y-165024380D01*
X120508952Y-165072000D01*
X120461333Y-165119619D01*
X120413714Y-165214857D01*
X120366095Y-165405333D01*
X120366095Y-165643428D01*
X120413714Y-165833904D01*
X120461333Y-165929142D01*
X120508952Y-165976761D01*
X120604190Y-166024380D01*
X120699428Y-166024380D01*
X120794666Y-165976761D01*
X120842285Y-165929142D01*
X120889904Y-165833904D01*
X120937523Y-165643428D01*
X120937523Y-165405333D01*
X120889904Y-165214857D01*
X120842285Y-165119619D01*
X120794666Y-165072000D01*
X120699428Y-165024380D01*
X72270857Y-165929142D02*
X72318476Y-165976761D01*
X72461333Y-166024380D01*
X72556571Y-166024380D01*
X72699428Y-165976761D01*
X72794666Y-165881523D01*
X72842285Y-165786285D01*
X72889904Y-165595809D01*
X72889904Y-165452952D01*
X72842285Y-165262476D01*
X72794666Y-165167238D01*
X72699428Y-165072000D01*
X72556571Y-165024380D01*
X72461333Y-165024380D01*
X72318476Y-165072000D01*
X72270857Y-165119619D01*
X71318476Y-166024380D02*
X71889904Y-166024380D01*
X71604190Y-166024380D02*
X71604190Y-165024380D01*
X71699428Y-165167238D01*
X71794666Y-165262476D01*
X71889904Y-165310095D01*
X70699428Y-165024380D02*
X70604190Y-165024380D01*
X70508952Y-165072000D01*
X70461333Y-165119619D01*
X70413714Y-165214857D01*
X70366095Y-165405333D01*
X70366095Y-165643428D01*
X70413714Y-165833904D01*
X70461333Y-165929142D01*
X70508952Y-165976761D01*
X70604190Y-166024380D01*
X70699428Y-166024380D01*
X70794666Y-165976761D01*
X70842285Y-165929142D01*
X70889904Y-165833904D01*
X70937523Y-165643428D01*
X70937523Y-165405333D01*
X70889904Y-165214857D01*
X70842285Y-165119619D01*
X70794666Y-165072000D01*
X70699428Y-165024380D01*
X122270857Y-131929142D02*
X122318476Y-131976761D01*
X122461333Y-132024380D01*
X122556571Y-132024380D01*
X122699428Y-131976761D01*
X122794666Y-131881523D01*
X122842285Y-131786285D01*
X122889904Y-131595809D01*
X122889904Y-131452952D01*
X122842285Y-131262476D01*
X122794666Y-131167238D01*
X122699428Y-131072000D01*
X122556571Y-131024380D01*
X122461333Y-131024380D01*
X122318476Y-131072000D01*
X122270857Y-131119619D01*
X121318476Y-132024380D02*
X121889904Y-132024380D01*
X121604190Y-132024380D02*
X121604190Y-131024380D01*
X121699428Y-131167238D01*
X121794666Y-131262476D01*
X121889904Y-131310095D01*
X120699428Y-131024380D02*
X120604190Y-131024380D01*
X120508952Y-131072000D01*
X120461333Y-131119619D01*
X120413714Y-131214857D01*
X120366095Y-131405333D01*
X120366095Y-131643428D01*
X120413714Y-131833904D01*
X120461333Y-131929142D01*
X120508952Y-131976761D01*
X120604190Y-132024380D01*
X120699428Y-132024380D01*
X120794666Y-131976761D01*
X120842285Y-131929142D01*
X120889904Y-131833904D01*
X120937523Y-131643428D01*
X120937523Y-131405333D01*
X120889904Y-131214857D01*
X120842285Y-131119619D01*
X120794666Y-131072000D01*
X120699428Y-131024380D01*
X110332857Y-144085142D02*
X110380476Y-144132761D01*
X110523333Y-144180380D01*
X110618571Y-144180380D01*
X110761428Y-144132761D01*
X110856666Y-144037523D01*
X110904285Y-143942285D01*
X110951904Y-143751809D01*
X110951904Y-143608952D01*
X110904285Y-143418476D01*
X110856666Y-143323238D01*
X110761428Y-143228000D01*
X110618571Y-143180380D01*
X110523333Y-143180380D01*
X110380476Y-143228000D01*
X110332857Y-143275619D01*
X109380476Y-144180380D02*
X109951904Y-144180380D01*
X109666190Y-144180380D02*
X109666190Y-143180380D01*
X109761428Y-143323238D01*
X109856666Y-143418476D01*
X109951904Y-143466095D01*
X108428095Y-144180380D02*
X108999523Y-144180380D01*
X108713809Y-144180380D02*
X108713809Y-143180380D01*
X108809047Y-143323238D01*
X108904285Y-143418476D01*
X108999523Y-143466095D01*
X60332857Y-144085142D02*
X60380476Y-144132761D01*
X60523333Y-144180380D01*
X60618571Y-144180380D01*
X60761428Y-144132761D01*
X60856666Y-144037523D01*
X60904285Y-143942285D01*
X60951904Y-143751809D01*
X60951904Y-143608952D01*
X60904285Y-143418476D01*
X60856666Y-143323238D01*
X60761428Y-143228000D01*
X60618571Y-143180380D01*
X60523333Y-143180380D01*
X60380476Y-143228000D01*
X60332857Y-143275619D01*
X59380476Y-144180380D02*
X59951904Y-144180380D01*
X59666190Y-144180380D02*
X59666190Y-143180380D01*
X59761428Y-143323238D01*
X59856666Y-143418476D01*
X59951904Y-143466095D01*
X58428095Y-144180380D02*
X58999523Y-144180380D01*
X58713809Y-144180380D02*
X58713809Y-143180380D01*
X58809047Y-143323238D01*
X58904285Y-143418476D01*
X58999523Y-143466095D01*
X110332857Y-110085142D02*
X110380476Y-110132761D01*
X110523333Y-110180380D01*
X110618571Y-110180380D01*
X110761428Y-110132761D01*
X110856666Y-110037523D01*
X110904285Y-109942285D01*
X110951904Y-109751809D01*
X110951904Y-109608952D01*
X110904285Y-109418476D01*
X110856666Y-109323238D01*
X110761428Y-109228000D01*
X110618571Y-109180380D01*
X110523333Y-109180380D01*
X110380476Y-109228000D01*
X110332857Y-109275619D01*
X109380476Y-110180380D02*
X109951904Y-110180380D01*
X109666190Y-110180380D02*
X109666190Y-109180380D01*
X109761428Y-109323238D01*
X109856666Y-109418476D01*
X109951904Y-109466095D01*
X108428095Y-110180380D02*
X108999523Y-110180380D01*
X108713809Y-110180380D02*
X108713809Y-109180380D01*
X108809047Y-109323238D01*
X108904285Y-109418476D01*
X108999523Y-109466095D01*
X114567142Y-143607142D02*
X114614761Y-143559523D01*
X114662380Y-143416666D01*
X114662380Y-143321428D01*
X114614761Y-143178571D01*
X114519523Y-143083333D01*
X114424285Y-143035714D01*
X114233809Y-142988095D01*
X114090952Y-142988095D01*
X113900476Y-143035714D01*
X113805238Y-143083333D01*
X113710000Y-143178571D01*
X113662380Y-143321428D01*
X113662380Y-143416666D01*
X113710000Y-143559523D01*
X113757619Y-143607142D01*
X114662380Y-144559523D02*
X114662380Y-143988095D01*
X114662380Y-144273809D02*
X113662380Y-144273809D01*
X113805238Y-144178571D01*
X113900476Y-144083333D01*
X113948095Y-143988095D01*
X113757619Y-144940476D02*
X113710000Y-144988095D01*
X113662380Y-145083333D01*
X113662380Y-145321428D01*
X113710000Y-145416666D01*
X113757619Y-145464285D01*
X113852857Y-145511904D01*
X113948095Y-145511904D01*
X114090952Y-145464285D01*
X114662380Y-144892857D01*
X114662380Y-145511904D01*
X64567142Y-143607142D02*
X64614761Y-143559523D01*
X64662380Y-143416666D01*
X64662380Y-143321428D01*
X64614761Y-143178571D01*
X64519523Y-143083333D01*
X64424285Y-143035714D01*
X64233809Y-142988095D01*
X64090952Y-142988095D01*
X63900476Y-143035714D01*
X63805238Y-143083333D01*
X63710000Y-143178571D01*
X63662380Y-143321428D01*
X63662380Y-143416666D01*
X63710000Y-143559523D01*
X63757619Y-143607142D01*
X64662380Y-144559523D02*
X64662380Y-143988095D01*
X64662380Y-144273809D02*
X63662380Y-144273809D01*
X63805238Y-144178571D01*
X63900476Y-144083333D01*
X63948095Y-143988095D01*
X63757619Y-144940476D02*
X63710000Y-144988095D01*
X63662380Y-145083333D01*
X63662380Y-145321428D01*
X63710000Y-145416666D01*
X63757619Y-145464285D01*
X63852857Y-145511904D01*
X63948095Y-145511904D01*
X64090952Y-145464285D01*
X64662380Y-144892857D01*
X64662380Y-145511904D01*
X114567142Y-109607142D02*
X114614761Y-109559523D01*
X114662380Y-109416666D01*
X114662380Y-109321428D01*
X114614761Y-109178571D01*
X114519523Y-109083333D01*
X114424285Y-109035714D01*
X114233809Y-108988095D01*
X114090952Y-108988095D01*
X113900476Y-109035714D01*
X113805238Y-109083333D01*
X113710000Y-109178571D01*
X113662380Y-109321428D01*
X113662380Y-109416666D01*
X113710000Y-109559523D01*
X113757619Y-109607142D01*
X114662380Y-110559523D02*
X114662380Y-109988095D01*
X114662380Y-110273809D02*
X113662380Y-110273809D01*
X113805238Y-110178571D01*
X113900476Y-110083333D01*
X113948095Y-109988095D01*
X113757619Y-110940476D02*
X113710000Y-110988095D01*
X113662380Y-111083333D01*
X113662380Y-111321428D01*
X113710000Y-111416666D01*
X113757619Y-111464285D01*
X113852857Y-111511904D01*
X113948095Y-111511904D01*
X114090952Y-111464285D01*
X114662380Y-110892857D01*
X114662380Y-111511904D01*
X122276857Y-167199142D02*
X122324476Y-167246761D01*
X122467333Y-167294380D01*
X122562571Y-167294380D01*
X122705428Y-167246761D01*
X122800666Y-167151523D01*
X122848285Y-167056285D01*
X122895904Y-166865809D01*
X122895904Y-166722952D01*
X122848285Y-166532476D01*
X122800666Y-166437238D01*
X122705428Y-166342000D01*
X122562571Y-166294380D01*
X122467333Y-166294380D01*
X122324476Y-166342000D01*
X122276857Y-166389619D01*
X121324476Y-167294380D02*
X121895904Y-167294380D01*
X121610190Y-167294380D02*
X121610190Y-166294380D01*
X121705428Y-166437238D01*
X121800666Y-166532476D01*
X121895904Y-166580095D01*
X120991142Y-166294380D02*
X120372095Y-166294380D01*
X120705428Y-166675333D01*
X120562571Y-166675333D01*
X120467333Y-166722952D01*
X120419714Y-166770571D01*
X120372095Y-166865809D01*
X120372095Y-167103904D01*
X120419714Y-167199142D01*
X120467333Y-167246761D01*
X120562571Y-167294380D01*
X120848285Y-167294380D01*
X120943523Y-167246761D01*
X120991142Y-167199142D01*
X72276857Y-167199142D02*
X72324476Y-167246761D01*
X72467333Y-167294380D01*
X72562571Y-167294380D01*
X72705428Y-167246761D01*
X72800666Y-167151523D01*
X72848285Y-167056285D01*
X72895904Y-166865809D01*
X72895904Y-166722952D01*
X72848285Y-166532476D01*
X72800666Y-166437238D01*
X72705428Y-166342000D01*
X72562571Y-166294380D01*
X72467333Y-166294380D01*
X72324476Y-166342000D01*
X72276857Y-166389619D01*
X71324476Y-167294380D02*
X71895904Y-167294380D01*
X71610190Y-167294380D02*
X71610190Y-166294380D01*
X71705428Y-166437238D01*
X71800666Y-166532476D01*
X71895904Y-166580095D01*
X70991142Y-166294380D02*
X70372095Y-166294380D01*
X70705428Y-166675333D01*
X70562571Y-166675333D01*
X70467333Y-166722952D01*
X70419714Y-166770571D01*
X70372095Y-166865809D01*
X70372095Y-167103904D01*
X70419714Y-167199142D01*
X70467333Y-167246761D01*
X70562571Y-167294380D01*
X70848285Y-167294380D01*
X70943523Y-167246761D01*
X70991142Y-167199142D01*
X122276857Y-133199142D02*
X122324476Y-133246761D01*
X122467333Y-133294380D01*
X122562571Y-133294380D01*
X122705428Y-133246761D01*
X122800666Y-133151523D01*
X122848285Y-133056285D01*
X122895904Y-132865809D01*
X122895904Y-132722952D01*
X122848285Y-132532476D01*
X122800666Y-132437238D01*
X122705428Y-132342000D01*
X122562571Y-132294380D01*
X122467333Y-132294380D01*
X122324476Y-132342000D01*
X122276857Y-132389619D01*
X121324476Y-133294380D02*
X121895904Y-133294380D01*
X121610190Y-133294380D02*
X121610190Y-132294380D01*
X121705428Y-132437238D01*
X121800666Y-132532476D01*
X121895904Y-132580095D01*
X120991142Y-132294380D02*
X120372095Y-132294380D01*
X120705428Y-132675333D01*
X120562571Y-132675333D01*
X120467333Y-132722952D01*
X120419714Y-132770571D01*
X120372095Y-132865809D01*
X120372095Y-133103904D01*
X120419714Y-133199142D01*
X120467333Y-133246761D01*
X120562571Y-133294380D01*
X120848285Y-133294380D01*
X120943523Y-133246761D01*
X120991142Y-133199142D01*
X122262857Y-163389142D02*
X122310476Y-163436761D01*
X122453333Y-163484380D01*
X122548571Y-163484380D01*
X122691428Y-163436761D01*
X122786666Y-163341523D01*
X122834285Y-163246285D01*
X122881904Y-163055809D01*
X122881904Y-162912952D01*
X122834285Y-162722476D01*
X122786666Y-162627238D01*
X122691428Y-162532000D01*
X122548571Y-162484380D01*
X122453333Y-162484380D01*
X122310476Y-162532000D01*
X122262857Y-162579619D01*
X121310476Y-163484380D02*
X121881904Y-163484380D01*
X121596190Y-163484380D02*
X121596190Y-162484380D01*
X121691428Y-162627238D01*
X121786666Y-162722476D01*
X121881904Y-162770095D01*
X120405714Y-162484380D02*
X120881904Y-162484380D01*
X120929523Y-162960571D01*
X120881904Y-162912952D01*
X120786666Y-162865333D01*
X120548571Y-162865333D01*
X120453333Y-162912952D01*
X120405714Y-162960571D01*
X120358095Y-163055809D01*
X120358095Y-163293904D01*
X120405714Y-163389142D01*
X120453333Y-163436761D01*
X120548571Y-163484380D01*
X120786666Y-163484380D01*
X120881904Y-163436761D01*
X120929523Y-163389142D01*
X72262857Y-163389142D02*
X72310476Y-163436761D01*
X72453333Y-163484380D01*
X72548571Y-163484380D01*
X72691428Y-163436761D01*
X72786666Y-163341523D01*
X72834285Y-163246285D01*
X72881904Y-163055809D01*
X72881904Y-162912952D01*
X72834285Y-162722476D01*
X72786666Y-162627238D01*
X72691428Y-162532000D01*
X72548571Y-162484380D01*
X72453333Y-162484380D01*
X72310476Y-162532000D01*
X72262857Y-162579619D01*
X71310476Y-163484380D02*
X71881904Y-163484380D01*
X71596190Y-163484380D02*
X71596190Y-162484380D01*
X71691428Y-162627238D01*
X71786666Y-162722476D01*
X71881904Y-162770095D01*
X70405714Y-162484380D02*
X70881904Y-162484380D01*
X70929523Y-162960571D01*
X70881904Y-162912952D01*
X70786666Y-162865333D01*
X70548571Y-162865333D01*
X70453333Y-162912952D01*
X70405714Y-162960571D01*
X70358095Y-163055809D01*
X70358095Y-163293904D01*
X70405714Y-163389142D01*
X70453333Y-163436761D01*
X70548571Y-163484380D01*
X70786666Y-163484380D01*
X70881904Y-163436761D01*
X70929523Y-163389142D01*
X122262857Y-129389142D02*
X122310476Y-129436761D01*
X122453333Y-129484380D01*
X122548571Y-129484380D01*
X122691428Y-129436761D01*
X122786666Y-129341523D01*
X122834285Y-129246285D01*
X122881904Y-129055809D01*
X122881904Y-128912952D01*
X122834285Y-128722476D01*
X122786666Y-128627238D01*
X122691428Y-128532000D01*
X122548571Y-128484380D01*
X122453333Y-128484380D01*
X122310476Y-128532000D01*
X122262857Y-128579619D01*
X121310476Y-129484380D02*
X121881904Y-129484380D01*
X121596190Y-129484380D02*
X121596190Y-128484380D01*
X121691428Y-128627238D01*
X121786666Y-128722476D01*
X121881904Y-128770095D01*
X120405714Y-128484380D02*
X120881904Y-128484380D01*
X120929523Y-128960571D01*
X120881904Y-128912952D01*
X120786666Y-128865333D01*
X120548571Y-128865333D01*
X120453333Y-128912952D01*
X120405714Y-128960571D01*
X120358095Y-129055809D01*
X120358095Y-129293904D01*
X120405714Y-129389142D01*
X120453333Y-129436761D01*
X120548571Y-129484380D01*
X120786666Y-129484380D01*
X120881904Y-129436761D01*
X120929523Y-129389142D01*
X110382857Y-137481142D02*
X110430476Y-137528761D01*
X110573333Y-137576380D01*
X110668571Y-137576380D01*
X110811428Y-137528761D01*
X110906666Y-137433523D01*
X110954285Y-137338285D01*
X111001904Y-137147809D01*
X111001904Y-137004952D01*
X110954285Y-136814476D01*
X110906666Y-136719238D01*
X110811428Y-136624000D01*
X110668571Y-136576380D01*
X110573333Y-136576380D01*
X110430476Y-136624000D01*
X110382857Y-136671619D01*
X109430476Y-137576380D02*
X110001904Y-137576380D01*
X109716190Y-137576380D02*
X109716190Y-136576380D01*
X109811428Y-136719238D01*
X109906666Y-136814476D01*
X110001904Y-136862095D01*
X108573333Y-136576380D02*
X108763809Y-136576380D01*
X108859047Y-136624000D01*
X108906666Y-136671619D01*
X109001904Y-136814476D01*
X109049523Y-137004952D01*
X109049523Y-137385904D01*
X109001904Y-137481142D01*
X108954285Y-137528761D01*
X108859047Y-137576380D01*
X108668571Y-137576380D01*
X108573333Y-137528761D01*
X108525714Y-137481142D01*
X108478095Y-137385904D01*
X108478095Y-137147809D01*
X108525714Y-137052571D01*
X108573333Y-137004952D01*
X108668571Y-136957333D01*
X108859047Y-136957333D01*
X108954285Y-137004952D01*
X109001904Y-137052571D01*
X109049523Y-137147809D01*
X60382857Y-137481142D02*
X60430476Y-137528761D01*
X60573333Y-137576380D01*
X60668571Y-137576380D01*
X60811428Y-137528761D01*
X60906666Y-137433523D01*
X60954285Y-137338285D01*
X61001904Y-137147809D01*
X61001904Y-137004952D01*
X60954285Y-136814476D01*
X60906666Y-136719238D01*
X60811428Y-136624000D01*
X60668571Y-136576380D01*
X60573333Y-136576380D01*
X60430476Y-136624000D01*
X60382857Y-136671619D01*
X59430476Y-137576380D02*
X60001904Y-137576380D01*
X59716190Y-137576380D02*
X59716190Y-136576380D01*
X59811428Y-136719238D01*
X59906666Y-136814476D01*
X60001904Y-136862095D01*
X58573333Y-136576380D02*
X58763809Y-136576380D01*
X58859047Y-136624000D01*
X58906666Y-136671619D01*
X59001904Y-136814476D01*
X59049523Y-137004952D01*
X59049523Y-137385904D01*
X59001904Y-137481142D01*
X58954285Y-137528761D01*
X58859047Y-137576380D01*
X58668571Y-137576380D01*
X58573333Y-137528761D01*
X58525714Y-137481142D01*
X58478095Y-137385904D01*
X58478095Y-137147809D01*
X58525714Y-137052571D01*
X58573333Y-137004952D01*
X58668571Y-136957333D01*
X58859047Y-136957333D01*
X58954285Y-137004952D01*
X59001904Y-137052571D01*
X59049523Y-137147809D01*
X110382857Y-103481142D02*
X110430476Y-103528761D01*
X110573333Y-103576380D01*
X110668571Y-103576380D01*
X110811428Y-103528761D01*
X110906666Y-103433523D01*
X110954285Y-103338285D01*
X111001904Y-103147809D01*
X111001904Y-103004952D01*
X110954285Y-102814476D01*
X110906666Y-102719238D01*
X110811428Y-102624000D01*
X110668571Y-102576380D01*
X110573333Y-102576380D01*
X110430476Y-102624000D01*
X110382857Y-102671619D01*
X109430476Y-103576380D02*
X110001904Y-103576380D01*
X109716190Y-103576380D02*
X109716190Y-102576380D01*
X109811428Y-102719238D01*
X109906666Y-102814476D01*
X110001904Y-102862095D01*
X108573333Y-102576380D02*
X108763809Y-102576380D01*
X108859047Y-102624000D01*
X108906666Y-102671619D01*
X109001904Y-102814476D01*
X109049523Y-103004952D01*
X109049523Y-103385904D01*
X109001904Y-103481142D01*
X108954285Y-103528761D01*
X108859047Y-103576380D01*
X108668571Y-103576380D01*
X108573333Y-103528761D01*
X108525714Y-103481142D01*
X108478095Y-103385904D01*
X108478095Y-103147809D01*
X108525714Y-103052571D01*
X108573333Y-103004952D01*
X108668571Y-102957333D01*
X108859047Y-102957333D01*
X108954285Y-103004952D01*
X109001904Y-103052571D01*
X109049523Y-103147809D01*
X110382857Y-138751142D02*
X110430476Y-138798761D01*
X110573333Y-138846380D01*
X110668571Y-138846380D01*
X110811428Y-138798761D01*
X110906666Y-138703523D01*
X110954285Y-138608285D01*
X111001904Y-138417809D01*
X111001904Y-138274952D01*
X110954285Y-138084476D01*
X110906666Y-137989238D01*
X110811428Y-137894000D01*
X110668571Y-137846380D01*
X110573333Y-137846380D01*
X110430476Y-137894000D01*
X110382857Y-137941619D01*
X109430476Y-138846380D02*
X110001904Y-138846380D01*
X109716190Y-138846380D02*
X109716190Y-137846380D01*
X109811428Y-137989238D01*
X109906666Y-138084476D01*
X110001904Y-138132095D01*
X109097142Y-137846380D02*
X108430476Y-137846380D01*
X108859047Y-138846380D01*
X60382857Y-138751142D02*
X60430476Y-138798761D01*
X60573333Y-138846380D01*
X60668571Y-138846380D01*
X60811428Y-138798761D01*
X60906666Y-138703523D01*
X60954285Y-138608285D01*
X61001904Y-138417809D01*
X61001904Y-138274952D01*
X60954285Y-138084476D01*
X60906666Y-137989238D01*
X60811428Y-137894000D01*
X60668571Y-137846380D01*
X60573333Y-137846380D01*
X60430476Y-137894000D01*
X60382857Y-137941619D01*
X59430476Y-138846380D02*
X60001904Y-138846380D01*
X59716190Y-138846380D02*
X59716190Y-137846380D01*
X59811428Y-137989238D01*
X59906666Y-138084476D01*
X60001904Y-138132095D01*
X59097142Y-137846380D02*
X58430476Y-137846380D01*
X58859047Y-138846380D01*
X110382857Y-104751142D02*
X110430476Y-104798761D01*
X110573333Y-104846380D01*
X110668571Y-104846380D01*
X110811428Y-104798761D01*
X110906666Y-104703523D01*
X110954285Y-104608285D01*
X111001904Y-104417809D01*
X111001904Y-104274952D01*
X110954285Y-104084476D01*
X110906666Y-103989238D01*
X110811428Y-103894000D01*
X110668571Y-103846380D01*
X110573333Y-103846380D01*
X110430476Y-103894000D01*
X110382857Y-103941619D01*
X109430476Y-104846380D02*
X110001904Y-104846380D01*
X109716190Y-104846380D02*
X109716190Y-103846380D01*
X109811428Y-103989238D01*
X109906666Y-104084476D01*
X110001904Y-104132095D01*
X109097142Y-103846380D02*
X108430476Y-103846380D01*
X108859047Y-104846380D01*
X128970095Y-155864380D02*
X128970095Y-154864380D01*
X128732000Y-154864380D01*
X128589142Y-154912000D01*
X128493904Y-155007238D01*
X128446285Y-155102476D01*
X128398666Y-155292952D01*
X128398666Y-155435809D01*
X128446285Y-155626285D01*
X128493904Y-155721523D01*
X128589142Y-155816761D01*
X128732000Y-155864380D01*
X128970095Y-155864380D01*
X127541523Y-155197714D02*
X127541523Y-155864380D01*
X127779619Y-154816761D02*
X128017714Y-155531047D01*
X127398666Y-155531047D01*
X78970095Y-155864380D02*
X78970095Y-154864380D01*
X78732000Y-154864380D01*
X78589142Y-154912000D01*
X78493904Y-155007238D01*
X78446285Y-155102476D01*
X78398666Y-155292952D01*
X78398666Y-155435809D01*
X78446285Y-155626285D01*
X78493904Y-155721523D01*
X78589142Y-155816761D01*
X78732000Y-155864380D01*
X78970095Y-155864380D01*
X77541523Y-155197714D02*
X77541523Y-155864380D01*
X77779619Y-154816761D02*
X78017714Y-155531047D01*
X77398666Y-155531047D01*
X128970095Y-121864380D02*
X128970095Y-120864380D01*
X128732000Y-120864380D01*
X128589142Y-120912000D01*
X128493904Y-121007238D01*
X128446285Y-121102476D01*
X128398666Y-121292952D01*
X128398666Y-121435809D01*
X128446285Y-121626285D01*
X128493904Y-121721523D01*
X128589142Y-121816761D01*
X128732000Y-121864380D01*
X128970095Y-121864380D01*
X127541523Y-121197714D02*
X127541523Y-121864380D01*
X127779619Y-120816761D02*
X128017714Y-121531047D01*
X127398666Y-121531047D01*
X119382857Y-141357142D02*
X119430476Y-141404761D01*
X119573333Y-141452380D01*
X119668571Y-141452380D01*
X119811428Y-141404761D01*
X119906666Y-141309523D01*
X119954285Y-141214285D01*
X120001904Y-141023809D01*
X120001904Y-140880952D01*
X119954285Y-140690476D01*
X119906666Y-140595238D01*
X119811428Y-140500000D01*
X119668571Y-140452380D01*
X119573333Y-140452380D01*
X119430476Y-140500000D01*
X119382857Y-140547619D01*
X118430476Y-141452380D02*
X119001904Y-141452380D01*
X118716190Y-141452380D02*
X118716190Y-140452380D01*
X118811428Y-140595238D01*
X118906666Y-140690476D01*
X119001904Y-140738095D01*
X117573333Y-140785714D02*
X117573333Y-141452380D01*
X117811428Y-140404761D02*
X118049523Y-141119047D01*
X117430476Y-141119047D01*
X69382857Y-141357142D02*
X69430476Y-141404761D01*
X69573333Y-141452380D01*
X69668571Y-141452380D01*
X69811428Y-141404761D01*
X69906666Y-141309523D01*
X69954285Y-141214285D01*
X70001904Y-141023809D01*
X70001904Y-140880952D01*
X69954285Y-140690476D01*
X69906666Y-140595238D01*
X69811428Y-140500000D01*
X69668571Y-140452380D01*
X69573333Y-140452380D01*
X69430476Y-140500000D01*
X69382857Y-140547619D01*
X68430476Y-141452380D02*
X69001904Y-141452380D01*
X68716190Y-141452380D02*
X68716190Y-140452380D01*
X68811428Y-140595238D01*
X68906666Y-140690476D01*
X69001904Y-140738095D01*
X67573333Y-140785714D02*
X67573333Y-141452380D01*
X67811428Y-140404761D02*
X68049523Y-141119047D01*
X67430476Y-141119047D01*
X119382857Y-107357142D02*
X119430476Y-107404761D01*
X119573333Y-107452380D01*
X119668571Y-107452380D01*
X119811428Y-107404761D01*
X119906666Y-107309523D01*
X119954285Y-107214285D01*
X120001904Y-107023809D01*
X120001904Y-106880952D01*
X119954285Y-106690476D01*
X119906666Y-106595238D01*
X119811428Y-106500000D01*
X119668571Y-106452380D01*
X119573333Y-106452380D01*
X119430476Y-106500000D01*
X119382857Y-106547619D01*
X118430476Y-107452380D02*
X119001904Y-107452380D01*
X118716190Y-107452380D02*
X118716190Y-106452380D01*
X118811428Y-106595238D01*
X118906666Y-106690476D01*
X119001904Y-106738095D01*
X117573333Y-106785714D02*
X117573333Y-107452380D01*
X117811428Y-106404761D02*
X118049523Y-107119047D01*
X117430476Y-107119047D01*
X128970095Y-154340380D02*
X128970095Y-153340380D01*
X128732000Y-153340380D01*
X128589142Y-153388000D01*
X128493904Y-153483238D01*
X128446285Y-153578476D01*
X128398666Y-153768952D01*
X128398666Y-153911809D01*
X128446285Y-154102285D01*
X128493904Y-154197523D01*
X128589142Y-154292761D01*
X128732000Y-154340380D01*
X128970095Y-154340380D01*
X127493904Y-153340380D02*
X127970095Y-153340380D01*
X128017714Y-153816571D01*
X127970095Y-153768952D01*
X127874857Y-153721333D01*
X127636761Y-153721333D01*
X127541523Y-153768952D01*
X127493904Y-153816571D01*
X127446285Y-153911809D01*
X127446285Y-154149904D01*
X127493904Y-154245142D01*
X127541523Y-154292761D01*
X127636761Y-154340380D01*
X127874857Y-154340380D01*
X127970095Y-154292761D01*
X128017714Y-154245142D01*
X78970095Y-154340380D02*
X78970095Y-153340380D01*
X78732000Y-153340380D01*
X78589142Y-153388000D01*
X78493904Y-153483238D01*
X78446285Y-153578476D01*
X78398666Y-153768952D01*
X78398666Y-153911809D01*
X78446285Y-154102285D01*
X78493904Y-154197523D01*
X78589142Y-154292761D01*
X78732000Y-154340380D01*
X78970095Y-154340380D01*
X77493904Y-153340380D02*
X77970095Y-153340380D01*
X78017714Y-153816571D01*
X77970095Y-153768952D01*
X77874857Y-153721333D01*
X77636761Y-153721333D01*
X77541523Y-153768952D01*
X77493904Y-153816571D01*
X77446285Y-153911809D01*
X77446285Y-154149904D01*
X77493904Y-154245142D01*
X77541523Y-154292761D01*
X77636761Y-154340380D01*
X77874857Y-154340380D01*
X77970095Y-154292761D01*
X78017714Y-154245142D01*
X128970095Y-120340380D02*
X128970095Y-119340380D01*
X128732000Y-119340380D01*
X128589142Y-119388000D01*
X128493904Y-119483238D01*
X128446285Y-119578476D01*
X128398666Y-119768952D01*
X128398666Y-119911809D01*
X128446285Y-120102285D01*
X128493904Y-120197523D01*
X128589142Y-120292761D01*
X128732000Y-120340380D01*
X128970095Y-120340380D01*
X127493904Y-119340380D02*
X127970095Y-119340380D01*
X128017714Y-119816571D01*
X127970095Y-119768952D01*
X127874857Y-119721333D01*
X127636761Y-119721333D01*
X127541523Y-119768952D01*
X127493904Y-119816571D01*
X127446285Y-119911809D01*
X127446285Y-120149904D01*
X127493904Y-120245142D01*
X127541523Y-120292761D01*
X127636761Y-120340380D01*
X127874857Y-120340380D01*
X127970095Y-120292761D01*
X128017714Y-120245142D01*
X117681904Y-156282380D02*
X117681904Y-157091904D01*
X117634285Y-157187142D01*
X117586666Y-157234761D01*
X117491428Y-157282380D01*
X117300952Y-157282380D01*
X117205714Y-157234761D01*
X117158095Y-157187142D01*
X117110476Y-157091904D01*
X117110476Y-156282380D01*
X116729523Y-156282380D02*
X116110476Y-156282380D01*
X116443809Y-156663333D01*
X116300952Y-156663333D01*
X116205714Y-156710952D01*
X116158095Y-156758571D01*
X116110476Y-156853809D01*
X116110476Y-157091904D01*
X116158095Y-157187142D01*
X116205714Y-157234761D01*
X116300952Y-157282380D01*
X116586666Y-157282380D01*
X116681904Y-157234761D01*
X116729523Y-157187142D01*
X67681904Y-156282380D02*
X67681904Y-157091904D01*
X67634285Y-157187142D01*
X67586666Y-157234761D01*
X67491428Y-157282380D01*
X67300952Y-157282380D01*
X67205714Y-157234761D01*
X67158095Y-157187142D01*
X67110476Y-157091904D01*
X67110476Y-156282380D01*
X66729523Y-156282380D02*
X66110476Y-156282380D01*
X66443809Y-156663333D01*
X66300952Y-156663333D01*
X66205714Y-156710952D01*
X66158095Y-156758571D01*
X66110476Y-156853809D01*
X66110476Y-157091904D01*
X66158095Y-157187142D01*
X66205714Y-157234761D01*
X66300952Y-157282380D01*
X66586666Y-157282380D01*
X66681904Y-157234761D01*
X66729523Y-157187142D01*
X117681904Y-122282380D02*
X117681904Y-123091904D01*
X117634285Y-123187142D01*
X117586666Y-123234761D01*
X117491428Y-123282380D01*
X117300952Y-123282380D01*
X117205714Y-123234761D01*
X117158095Y-123187142D01*
X117110476Y-123091904D01*
X117110476Y-122282380D01*
X116729523Y-122282380D02*
X116110476Y-122282380D01*
X116443809Y-122663333D01*
X116300952Y-122663333D01*
X116205714Y-122710952D01*
X116158095Y-122758571D01*
X116110476Y-122853809D01*
X116110476Y-123091904D01*
X116158095Y-123187142D01*
X116205714Y-123234761D01*
X116300952Y-123282380D01*
X116586666Y-123282380D01*
X116681904Y-123234761D01*
X116729523Y-123187142D01*
X109142380Y-159222095D02*
X109951904Y-159222095D01*
X110047142Y-159269714D01*
X110094761Y-159317333D01*
X110142380Y-159412571D01*
X110142380Y-159603047D01*
X110094761Y-159698285D01*
X110047142Y-159745904D01*
X109951904Y-159793523D01*
X109142380Y-159793523D01*
X109237619Y-160222095D02*
X109190000Y-160269714D01*
X109142380Y-160364952D01*
X109142380Y-160603047D01*
X109190000Y-160698285D01*
X109237619Y-160745904D01*
X109332857Y-160793523D01*
X109428095Y-160793523D01*
X109570952Y-160745904D01*
X110142380Y-160174476D01*
X110142380Y-160793523D01*
X59142380Y-159222095D02*
X59951904Y-159222095D01*
X60047142Y-159269714D01*
X60094761Y-159317333D01*
X60142380Y-159412571D01*
X60142380Y-159603047D01*
X60094761Y-159698285D01*
X60047142Y-159745904D01*
X59951904Y-159793523D01*
X59142380Y-159793523D01*
X59237619Y-160222095D02*
X59190000Y-160269714D01*
X59142380Y-160364952D01*
X59142380Y-160603047D01*
X59190000Y-160698285D01*
X59237619Y-160745904D01*
X59332857Y-160793523D01*
X59428095Y-160793523D01*
X59570952Y-160745904D01*
X60142380Y-160174476D01*
X60142380Y-160793523D01*
X109142380Y-125222095D02*
X109951904Y-125222095D01*
X110047142Y-125269714D01*
X110094761Y-125317333D01*
X110142380Y-125412571D01*
X110142380Y-125603047D01*
X110094761Y-125698285D01*
X110047142Y-125745904D01*
X109951904Y-125793523D01*
X109142380Y-125793523D01*
X109237619Y-126222095D02*
X109190000Y-126269714D01*
X109142380Y-126364952D01*
X109142380Y-126603047D01*
X109190000Y-126698285D01*
X109237619Y-126745904D01*
X109332857Y-126793523D01*
X109428095Y-126793523D01*
X109570952Y-126745904D01*
X110142380Y-126174476D01*
X110142380Y-126793523D01*
X78970095Y-121864380D02*
X78970095Y-120864380D01*
X78732000Y-120864380D01*
X78589142Y-120912000D01*
X78493904Y-121007238D01*
X78446285Y-121102476D01*
X78398666Y-121292952D01*
X78398666Y-121435809D01*
X78446285Y-121626285D01*
X78493904Y-121721523D01*
X78589142Y-121816761D01*
X78732000Y-121864380D01*
X78970095Y-121864380D01*
X77541523Y-121197714D02*
X77541523Y-121864380D01*
X77779619Y-120816761D02*
X78017714Y-121531047D01*
X77398666Y-121531047D01*
X69382857Y-107357142D02*
X69430476Y-107404761D01*
X69573333Y-107452380D01*
X69668571Y-107452380D01*
X69811428Y-107404761D01*
X69906666Y-107309523D01*
X69954285Y-107214285D01*
X70001904Y-107023809D01*
X70001904Y-106880952D01*
X69954285Y-106690476D01*
X69906666Y-106595238D01*
X69811428Y-106500000D01*
X69668571Y-106452380D01*
X69573333Y-106452380D01*
X69430476Y-106500000D01*
X69382857Y-106547619D01*
X68430476Y-107452380D02*
X69001904Y-107452380D01*
X68716190Y-107452380D02*
X68716190Y-106452380D01*
X68811428Y-106595238D01*
X68906666Y-106690476D01*
X69001904Y-106738095D01*
X67573333Y-106785714D02*
X67573333Y-107452380D01*
X67811428Y-106404761D02*
X68049523Y-107119047D01*
X67430476Y-107119047D01*
X67681904Y-122282380D02*
X67681904Y-123091904D01*
X67634285Y-123187142D01*
X67586666Y-123234761D01*
X67491428Y-123282380D01*
X67300952Y-123282380D01*
X67205714Y-123234761D01*
X67158095Y-123187142D01*
X67110476Y-123091904D01*
X67110476Y-122282380D01*
X66729523Y-122282380D02*
X66110476Y-122282380D01*
X66443809Y-122663333D01*
X66300952Y-122663333D01*
X66205714Y-122710952D01*
X66158095Y-122758571D01*
X66110476Y-122853809D01*
X66110476Y-123091904D01*
X66158095Y-123187142D01*
X66205714Y-123234761D01*
X66300952Y-123282380D01*
X66586666Y-123282380D01*
X66681904Y-123234761D01*
X66729523Y-123187142D01*
X78970095Y-120340380D02*
X78970095Y-119340380D01*
X78732000Y-119340380D01*
X78589142Y-119388000D01*
X78493904Y-119483238D01*
X78446285Y-119578476D01*
X78398666Y-119768952D01*
X78398666Y-119911809D01*
X78446285Y-120102285D01*
X78493904Y-120197523D01*
X78589142Y-120292761D01*
X78732000Y-120340380D01*
X78970095Y-120340380D01*
X77493904Y-119340380D02*
X77970095Y-119340380D01*
X78017714Y-119816571D01*
X77970095Y-119768952D01*
X77874857Y-119721333D01*
X77636761Y-119721333D01*
X77541523Y-119768952D01*
X77493904Y-119816571D01*
X77446285Y-119911809D01*
X77446285Y-120149904D01*
X77493904Y-120245142D01*
X77541523Y-120292761D01*
X77636761Y-120340380D01*
X77874857Y-120340380D01*
X77970095Y-120292761D01*
X78017714Y-120245142D01*
X59142380Y-125222095D02*
X59951904Y-125222095D01*
X60047142Y-125269714D01*
X60094761Y-125317333D01*
X60142380Y-125412571D01*
X60142380Y-125603047D01*
X60094761Y-125698285D01*
X60047142Y-125745904D01*
X59951904Y-125793523D01*
X59142380Y-125793523D01*
X59237619Y-126222095D02*
X59190000Y-126269714D01*
X59142380Y-126364952D01*
X59142380Y-126603047D01*
X59190000Y-126698285D01*
X59237619Y-126745904D01*
X59332857Y-126793523D01*
X59428095Y-126793523D01*
X59570952Y-126745904D01*
X60142380Y-126174476D01*
X60142380Y-126793523D01*
X79382857Y-118816380D02*
X79716190Y-118340190D01*
X79954285Y-118816380D02*
X79954285Y-117816380D01*
X79573333Y-117816380D01*
X79478095Y-117864000D01*
X79430476Y-117911619D01*
X79382857Y-118006857D01*
X79382857Y-118149714D01*
X79430476Y-118244952D01*
X79478095Y-118292571D01*
X79573333Y-118340190D01*
X79954285Y-118340190D01*
X78430476Y-118816380D02*
X79001904Y-118816380D01*
X78716190Y-118816380D02*
X78716190Y-117816380D01*
X78811428Y-117959238D01*
X78906666Y-118054476D01*
X79001904Y-118102095D01*
X77525714Y-117816380D02*
X78001904Y-117816380D01*
X78049523Y-118292571D01*
X78001904Y-118244952D01*
X77906666Y-118197333D01*
X77668571Y-118197333D01*
X77573333Y-118244952D01*
X77525714Y-118292571D01*
X77478095Y-118387809D01*
X77478095Y-118625904D01*
X77525714Y-118721142D01*
X77573333Y-118768761D01*
X77668571Y-118816380D01*
X77906666Y-118816380D01*
X78001904Y-118768761D01*
X78049523Y-118721142D01*
X60332857Y-108656380D02*
X60666190Y-108180190D01*
X60904285Y-108656380D02*
X60904285Y-107656380D01*
X60523333Y-107656380D01*
X60428095Y-107704000D01*
X60380476Y-107751619D01*
X60332857Y-107846857D01*
X60332857Y-107989714D01*
X60380476Y-108084952D01*
X60428095Y-108132571D01*
X60523333Y-108180190D01*
X60904285Y-108180190D01*
X59380476Y-108656380D02*
X59951904Y-108656380D01*
X59666190Y-108656380D02*
X59666190Y-107656380D01*
X59761428Y-107799238D01*
X59856666Y-107894476D01*
X59951904Y-107942095D01*
X59047142Y-107656380D02*
X58428095Y-107656380D01*
X58761428Y-108037333D01*
X58618571Y-108037333D01*
X58523333Y-108084952D01*
X58475714Y-108132571D01*
X58428095Y-108227809D01*
X58428095Y-108465904D01*
X58475714Y-108561142D01*
X58523333Y-108608761D01*
X58618571Y-108656380D01*
X58904285Y-108656380D01*
X58999523Y-108608761D01*
X59047142Y-108561142D01*
X77858857Y-124912380D02*
X78192190Y-124436190D01*
X78430285Y-124912380D02*
X78430285Y-123912380D01*
X78049333Y-123912380D01*
X77954095Y-123960000D01*
X77906476Y-124007619D01*
X77858857Y-124102857D01*
X77858857Y-124245714D01*
X77906476Y-124340952D01*
X77954095Y-124388571D01*
X78049333Y-124436190D01*
X78430285Y-124436190D01*
X76906476Y-124912380D02*
X77477904Y-124912380D01*
X77192190Y-124912380D02*
X77192190Y-123912380D01*
X77287428Y-124055238D01*
X77382666Y-124150476D01*
X77477904Y-124198095D01*
X76525523Y-124007619D02*
X76477904Y-123960000D01*
X76382666Y-123912380D01*
X76144571Y-123912380D01*
X76049333Y-123960000D01*
X76001714Y-124007619D01*
X75954095Y-124102857D01*
X75954095Y-124198095D01*
X76001714Y-124340952D01*
X76573142Y-124912380D01*
X75954095Y-124912380D01*
X59856666Y-102052380D02*
X60332857Y-102052380D01*
X60332857Y-101052380D01*
X59094761Y-101385714D02*
X59094761Y-102052380D01*
X59332857Y-101004761D02*
X59570952Y-101719047D01*
X58951904Y-101719047D01*
X62142666Y-131516380D02*
X62476000Y-131040190D01*
X62714095Y-131516380D02*
X62714095Y-130516380D01*
X62333142Y-130516380D01*
X62237904Y-130564000D01*
X62190285Y-130611619D01*
X62142666Y-130706857D01*
X62142666Y-130849714D01*
X62190285Y-130944952D01*
X62237904Y-130992571D01*
X62333142Y-131040190D01*
X62714095Y-131040190D01*
X61571238Y-130944952D02*
X61666476Y-130897333D01*
X61714095Y-130849714D01*
X61761714Y-130754476D01*
X61761714Y-130706857D01*
X61714095Y-130611619D01*
X61666476Y-130564000D01*
X61571238Y-130516380D01*
X61380761Y-130516380D01*
X61285523Y-130564000D01*
X61237904Y-130611619D01*
X61190285Y-130706857D01*
X61190285Y-130754476D01*
X61237904Y-130849714D01*
X61285523Y-130897333D01*
X61380761Y-130944952D01*
X61571238Y-130944952D01*
X61666476Y-130992571D01*
X61714095Y-131040190D01*
X61761714Y-131135428D01*
X61761714Y-131325904D01*
X61714095Y-131421142D01*
X61666476Y-131468761D01*
X61571238Y-131516380D01*
X61380761Y-131516380D01*
X61285523Y-131468761D01*
X61237904Y-131421142D01*
X61190285Y-131325904D01*
X61190285Y-131135428D01*
X61237904Y-131040190D01*
X61285523Y-130992571D01*
X61380761Y-130944952D01*
X59856666Y-106116380D02*
X60190000Y-105640190D01*
X60428095Y-106116380D02*
X60428095Y-105116380D01*
X60047142Y-105116380D01*
X59951904Y-105164000D01*
X59904285Y-105211619D01*
X59856666Y-105306857D01*
X59856666Y-105449714D01*
X59904285Y-105544952D01*
X59951904Y-105592571D01*
X60047142Y-105640190D01*
X60428095Y-105640190D01*
X58999523Y-105116380D02*
X59190000Y-105116380D01*
X59285238Y-105164000D01*
X59332857Y-105211619D01*
X59428095Y-105354476D01*
X59475714Y-105544952D01*
X59475714Y-105925904D01*
X59428095Y-106021142D01*
X59380476Y-106068761D01*
X59285238Y-106116380D01*
X59094761Y-106116380D01*
X58999523Y-106068761D01*
X58951904Y-106021142D01*
X58904285Y-105925904D01*
X58904285Y-105687809D01*
X58951904Y-105592571D01*
X58999523Y-105544952D01*
X59094761Y-105497333D01*
X59285238Y-105497333D01*
X59380476Y-105544952D01*
X59428095Y-105592571D01*
X59475714Y-105687809D01*
X59856666Y-107386380D02*
X60190000Y-106910190D01*
X60428095Y-107386380D02*
X60428095Y-106386380D01*
X60047142Y-106386380D01*
X59951904Y-106434000D01*
X59904285Y-106481619D01*
X59856666Y-106576857D01*
X59856666Y-106719714D01*
X59904285Y-106814952D01*
X59951904Y-106862571D01*
X60047142Y-106910190D01*
X60428095Y-106910190D01*
X58951904Y-106386380D02*
X59428095Y-106386380D01*
X59475714Y-106862571D01*
X59428095Y-106814952D01*
X59332857Y-106767333D01*
X59094761Y-106767333D01*
X58999523Y-106814952D01*
X58951904Y-106862571D01*
X58904285Y-106957809D01*
X58904285Y-107195904D01*
X58951904Y-107291142D01*
X58999523Y-107338761D01*
X59094761Y-107386380D01*
X59332857Y-107386380D01*
X59428095Y-107338761D01*
X59475714Y-107291142D01*
X57656666Y-128468380D02*
X58132857Y-128468380D01*
X58132857Y-127468380D01*
X57418571Y-127468380D02*
X56799523Y-127468380D01*
X57132857Y-127849333D01*
X56990000Y-127849333D01*
X56894761Y-127896952D01*
X56847142Y-127944571D01*
X56799523Y-128039809D01*
X56799523Y-128277904D01*
X56847142Y-128373142D01*
X56894761Y-128420761D01*
X56990000Y-128468380D01*
X57275714Y-128468380D01*
X57370952Y-128420761D01*
X57418571Y-128373142D01*
X52490666Y-126944380D02*
X52966857Y-126944380D01*
X52966857Y-125944380D01*
X52204952Y-126039619D02*
X52157333Y-125992000D01*
X52062095Y-125944380D01*
X51824000Y-125944380D01*
X51728761Y-125992000D01*
X51681142Y-126039619D01*
X51633523Y-126134857D01*
X51633523Y-126230095D01*
X51681142Y-126372952D01*
X52252571Y-126944380D01*
X51633523Y-126944380D01*
X53570095Y-115006380D02*
X53570095Y-114006380D01*
X53332000Y-114006380D01*
X53189142Y-114054000D01*
X53093904Y-114149238D01*
X53046285Y-114244476D01*
X52998666Y-114434952D01*
X52998666Y-114577809D01*
X53046285Y-114768285D01*
X53093904Y-114863523D01*
X53189142Y-114958761D01*
X53332000Y-115006380D01*
X53570095Y-115006380D01*
X52617714Y-114101619D02*
X52570095Y-114054000D01*
X52474857Y-114006380D01*
X52236761Y-114006380D01*
X52141523Y-114054000D01*
X52093904Y-114101619D01*
X52046285Y-114196857D01*
X52046285Y-114292095D01*
X52093904Y-114434952D01*
X52665333Y-115006380D01*
X52046285Y-115006380D01*
X60382857Y-104751142D02*
X60430476Y-104798761D01*
X60573333Y-104846380D01*
X60668571Y-104846380D01*
X60811428Y-104798761D01*
X60906666Y-104703523D01*
X60954285Y-104608285D01*
X61001904Y-104417809D01*
X61001904Y-104274952D01*
X60954285Y-104084476D01*
X60906666Y-103989238D01*
X60811428Y-103894000D01*
X60668571Y-103846380D01*
X60573333Y-103846380D01*
X60430476Y-103894000D01*
X60382857Y-103941619D01*
X59430476Y-104846380D02*
X60001904Y-104846380D01*
X59716190Y-104846380D02*
X59716190Y-103846380D01*
X59811428Y-103989238D01*
X59906666Y-104084476D01*
X60001904Y-104132095D01*
X59097142Y-103846380D02*
X58430476Y-103846380D01*
X58859047Y-104846380D01*
X60382857Y-103481142D02*
X60430476Y-103528761D01*
X60573333Y-103576380D01*
X60668571Y-103576380D01*
X60811428Y-103528761D01*
X60906666Y-103433523D01*
X60954285Y-103338285D01*
X61001904Y-103147809D01*
X61001904Y-103004952D01*
X60954285Y-102814476D01*
X60906666Y-102719238D01*
X60811428Y-102624000D01*
X60668571Y-102576380D01*
X60573333Y-102576380D01*
X60430476Y-102624000D01*
X60382857Y-102671619D01*
X59430476Y-103576380D02*
X60001904Y-103576380D01*
X59716190Y-103576380D02*
X59716190Y-102576380D01*
X59811428Y-102719238D01*
X59906666Y-102814476D01*
X60001904Y-102862095D01*
X58573333Y-102576380D02*
X58763809Y-102576380D01*
X58859047Y-102624000D01*
X58906666Y-102671619D01*
X59001904Y-102814476D01*
X59049523Y-103004952D01*
X59049523Y-103385904D01*
X59001904Y-103481142D01*
X58954285Y-103528761D01*
X58859047Y-103576380D01*
X58668571Y-103576380D01*
X58573333Y-103528761D01*
X58525714Y-103481142D01*
X58478095Y-103385904D01*
X58478095Y-103147809D01*
X58525714Y-103052571D01*
X58573333Y-103004952D01*
X58668571Y-102957333D01*
X58859047Y-102957333D01*
X58954285Y-103004952D01*
X59001904Y-103052571D01*
X59049523Y-103147809D01*
X72262857Y-129389142D02*
X72310476Y-129436761D01*
X72453333Y-129484380D01*
X72548571Y-129484380D01*
X72691428Y-129436761D01*
X72786666Y-129341523D01*
X72834285Y-129246285D01*
X72881904Y-129055809D01*
X72881904Y-128912952D01*
X72834285Y-128722476D01*
X72786666Y-128627238D01*
X72691428Y-128532000D01*
X72548571Y-128484380D01*
X72453333Y-128484380D01*
X72310476Y-128532000D01*
X72262857Y-128579619D01*
X71310476Y-129484380D02*
X71881904Y-129484380D01*
X71596190Y-129484380D02*
X71596190Y-128484380D01*
X71691428Y-128627238D01*
X71786666Y-128722476D01*
X71881904Y-128770095D01*
X70405714Y-128484380D02*
X70881904Y-128484380D01*
X70929523Y-128960571D01*
X70881904Y-128912952D01*
X70786666Y-128865333D01*
X70548571Y-128865333D01*
X70453333Y-128912952D01*
X70405714Y-128960571D01*
X70358095Y-129055809D01*
X70358095Y-129293904D01*
X70405714Y-129389142D01*
X70453333Y-129436761D01*
X70548571Y-129484380D01*
X70786666Y-129484380D01*
X70881904Y-129436761D01*
X70929523Y-129389142D01*
X72276857Y-133199142D02*
X72324476Y-133246761D01*
X72467333Y-133294380D01*
X72562571Y-133294380D01*
X72705428Y-133246761D01*
X72800666Y-133151523D01*
X72848285Y-133056285D01*
X72895904Y-132865809D01*
X72895904Y-132722952D01*
X72848285Y-132532476D01*
X72800666Y-132437238D01*
X72705428Y-132342000D01*
X72562571Y-132294380D01*
X72467333Y-132294380D01*
X72324476Y-132342000D01*
X72276857Y-132389619D01*
X71324476Y-133294380D02*
X71895904Y-133294380D01*
X71610190Y-133294380D02*
X71610190Y-132294380D01*
X71705428Y-132437238D01*
X71800666Y-132532476D01*
X71895904Y-132580095D01*
X70991142Y-132294380D02*
X70372095Y-132294380D01*
X70705428Y-132675333D01*
X70562571Y-132675333D01*
X70467333Y-132722952D01*
X70419714Y-132770571D01*
X70372095Y-132865809D01*
X70372095Y-133103904D01*
X70419714Y-133199142D01*
X70467333Y-133246761D01*
X70562571Y-133294380D01*
X70848285Y-133294380D01*
X70943523Y-133246761D01*
X70991142Y-133199142D01*
X64567142Y-109607142D02*
X64614761Y-109559523D01*
X64662380Y-109416666D01*
X64662380Y-109321428D01*
X64614761Y-109178571D01*
X64519523Y-109083333D01*
X64424285Y-109035714D01*
X64233809Y-108988095D01*
X64090952Y-108988095D01*
X63900476Y-109035714D01*
X63805238Y-109083333D01*
X63710000Y-109178571D01*
X63662380Y-109321428D01*
X63662380Y-109416666D01*
X63710000Y-109559523D01*
X63757619Y-109607142D01*
X64662380Y-110559523D02*
X64662380Y-109988095D01*
X64662380Y-110273809D02*
X63662380Y-110273809D01*
X63805238Y-110178571D01*
X63900476Y-110083333D01*
X63948095Y-109988095D01*
X63757619Y-110940476D02*
X63710000Y-110988095D01*
X63662380Y-111083333D01*
X63662380Y-111321428D01*
X63710000Y-111416666D01*
X63757619Y-111464285D01*
X63852857Y-111511904D01*
X63948095Y-111511904D01*
X64090952Y-111464285D01*
X64662380Y-110892857D01*
X64662380Y-111511904D01*
X60332857Y-110085142D02*
X60380476Y-110132761D01*
X60523333Y-110180380D01*
X60618571Y-110180380D01*
X60761428Y-110132761D01*
X60856666Y-110037523D01*
X60904285Y-109942285D01*
X60951904Y-109751809D01*
X60951904Y-109608952D01*
X60904285Y-109418476D01*
X60856666Y-109323238D01*
X60761428Y-109228000D01*
X60618571Y-109180380D01*
X60523333Y-109180380D01*
X60380476Y-109228000D01*
X60332857Y-109275619D01*
X59380476Y-110180380D02*
X59951904Y-110180380D01*
X59666190Y-110180380D02*
X59666190Y-109180380D01*
X59761428Y-109323238D01*
X59856666Y-109418476D01*
X59951904Y-109466095D01*
X58428095Y-110180380D02*
X58999523Y-110180380D01*
X58713809Y-110180380D02*
X58713809Y-109180380D01*
X58809047Y-109323238D01*
X58904285Y-109418476D01*
X58999523Y-109466095D01*
X72270857Y-131929142D02*
X72318476Y-131976761D01*
X72461333Y-132024380D01*
X72556571Y-132024380D01*
X72699428Y-131976761D01*
X72794666Y-131881523D01*
X72842285Y-131786285D01*
X72889904Y-131595809D01*
X72889904Y-131452952D01*
X72842285Y-131262476D01*
X72794666Y-131167238D01*
X72699428Y-131072000D01*
X72556571Y-131024380D01*
X72461333Y-131024380D01*
X72318476Y-131072000D01*
X72270857Y-131119619D01*
X71318476Y-132024380D02*
X71889904Y-132024380D01*
X71604190Y-132024380D02*
X71604190Y-131024380D01*
X71699428Y-131167238D01*
X71794666Y-131262476D01*
X71889904Y-131310095D01*
X70699428Y-131024380D02*
X70604190Y-131024380D01*
X70508952Y-131072000D01*
X70461333Y-131119619D01*
X70413714Y-131214857D01*
X70366095Y-131405333D01*
X70366095Y-131643428D01*
X70413714Y-131833904D01*
X70461333Y-131929142D01*
X70508952Y-131976761D01*
X70604190Y-132024380D01*
X70699428Y-132024380D01*
X70794666Y-131976761D01*
X70842285Y-131929142D01*
X70889904Y-131833904D01*
X70937523Y-131643428D01*
X70937523Y-131405333D01*
X70889904Y-131214857D01*
X70842285Y-131119619D01*
X70794666Y-131072000D01*
X70699428Y-131024380D01*
X64873142Y-126579333D02*
X64920761Y-126531714D01*
X64968380Y-126388857D01*
X64968380Y-126293619D01*
X64920761Y-126150761D01*
X64825523Y-126055523D01*
X64730285Y-126007904D01*
X64539809Y-125960285D01*
X64396952Y-125960285D01*
X64206476Y-126007904D01*
X64111238Y-126055523D01*
X64016000Y-126150761D01*
X63968380Y-126293619D01*
X63968380Y-126388857D01*
X64016000Y-126531714D01*
X64063619Y-126579333D01*
X64968380Y-127055523D02*
X64968380Y-127246000D01*
X64920761Y-127341238D01*
X64873142Y-127388857D01*
X64730285Y-127484095D01*
X64539809Y-127531714D01*
X64158857Y-127531714D01*
X64063619Y-127484095D01*
X64016000Y-127436476D01*
X63968380Y-127341238D01*
X63968380Y-127150761D01*
X64016000Y-127055523D01*
X64063619Y-127007904D01*
X64158857Y-126960285D01*
X64396952Y-126960285D01*
X64492190Y-127007904D01*
X64539809Y-127055523D01*
X64587428Y-127150761D01*
X64587428Y-127341238D01*
X64539809Y-127436476D01*
X64492190Y-127484095D01*
X64396952Y-127531714D01*
X57656666Y-126849142D02*
X57704285Y-126896761D01*
X57847142Y-126944380D01*
X57942380Y-126944380D01*
X58085238Y-126896761D01*
X58180476Y-126801523D01*
X58228095Y-126706285D01*
X58275714Y-126515809D01*
X58275714Y-126372952D01*
X58228095Y-126182476D01*
X58180476Y-126087238D01*
X58085238Y-125992000D01*
X57942380Y-125944380D01*
X57847142Y-125944380D01*
X57704285Y-125992000D01*
X57656666Y-126039619D01*
X57085238Y-126372952D02*
X57180476Y-126325333D01*
X57228095Y-126277714D01*
X57275714Y-126182476D01*
X57275714Y-126134857D01*
X57228095Y-126039619D01*
X57180476Y-125992000D01*
X57085238Y-125944380D01*
X56894761Y-125944380D01*
X56799523Y-125992000D01*
X56751904Y-126039619D01*
X56704285Y-126134857D01*
X56704285Y-126182476D01*
X56751904Y-126277714D01*
X56799523Y-126325333D01*
X56894761Y-126372952D01*
X57085238Y-126372952D01*
X57180476Y-126420571D01*
X57228095Y-126468190D01*
X57275714Y-126563428D01*
X57275714Y-126753904D01*
X57228095Y-126849142D01*
X57180476Y-126896761D01*
X57085238Y-126944380D01*
X56894761Y-126944380D01*
X56799523Y-126896761D01*
X56751904Y-126849142D01*
X56704285Y-126753904D01*
X56704285Y-126563428D01*
X56751904Y-126468190D01*
X56799523Y-126420571D01*
X56894761Y-126372952D01*
X67730666Y-128881142D02*
X67778285Y-128928761D01*
X67921142Y-128976380D01*
X68016380Y-128976380D01*
X68159238Y-128928761D01*
X68254476Y-128833523D01*
X68302095Y-128738285D01*
X68349714Y-128547809D01*
X68349714Y-128404952D01*
X68302095Y-128214476D01*
X68254476Y-128119238D01*
X68159238Y-128024000D01*
X68016380Y-127976380D01*
X67921142Y-127976380D01*
X67778285Y-128024000D01*
X67730666Y-128071619D01*
X67397333Y-127976380D02*
X66730666Y-127976380D01*
X67159238Y-128976380D01*
X71794666Y-130659142D02*
X71842285Y-130706761D01*
X71985142Y-130754380D01*
X72080380Y-130754380D01*
X72223238Y-130706761D01*
X72318476Y-130611523D01*
X72366095Y-130516285D01*
X72413714Y-130325809D01*
X72413714Y-130182952D01*
X72366095Y-129992476D01*
X72318476Y-129897238D01*
X72223238Y-129802000D01*
X72080380Y-129754380D01*
X71985142Y-129754380D01*
X71842285Y-129802000D01*
X71794666Y-129849619D01*
X70937523Y-129754380D02*
X71128000Y-129754380D01*
X71223238Y-129802000D01*
X71270857Y-129849619D01*
X71366095Y-129992476D01*
X71413714Y-130182952D01*
X71413714Y-130563904D01*
X71366095Y-130659142D01*
X71318476Y-130706761D01*
X71223238Y-130754380D01*
X71032761Y-130754380D01*
X70937523Y-130706761D01*
X70889904Y-130659142D01*
X70842285Y-130563904D01*
X70842285Y-130325809D01*
X70889904Y-130230571D01*
X70937523Y-130182952D01*
X71032761Y-130135333D01*
X71223238Y-130135333D01*
X71318476Y-130182952D01*
X71366095Y-130230571D01*
X71413714Y-130325809D01*
X67730666Y-130151142D02*
X67778285Y-130198761D01*
X67921142Y-130246380D01*
X68016380Y-130246380D01*
X68159238Y-130198761D01*
X68254476Y-130103523D01*
X68302095Y-130008285D01*
X68349714Y-129817809D01*
X68349714Y-129674952D01*
X68302095Y-129484476D01*
X68254476Y-129389238D01*
X68159238Y-129294000D01*
X68016380Y-129246380D01*
X67921142Y-129246380D01*
X67778285Y-129294000D01*
X67730666Y-129341619D01*
X66825904Y-129246380D02*
X67302095Y-129246380D01*
X67349714Y-129722571D01*
X67302095Y-129674952D01*
X67206857Y-129627333D01*
X66968761Y-129627333D01*
X66873523Y-129674952D01*
X66825904Y-129722571D01*
X66778285Y-129817809D01*
X66778285Y-130055904D01*
X66825904Y-130151142D01*
X66873523Y-130198761D01*
X66968761Y-130246380D01*
X67206857Y-130246380D01*
X67302095Y-130198761D01*
X67349714Y-130151142D01*
X77382666Y-123293142D02*
X77430285Y-123340761D01*
X77573142Y-123388380D01*
X77668380Y-123388380D01*
X77811238Y-123340761D01*
X77906476Y-123245523D01*
X77954095Y-123150285D01*
X78001714Y-122959809D01*
X78001714Y-122816952D01*
X77954095Y-122626476D01*
X77906476Y-122531238D01*
X77811238Y-122436000D01*
X77668380Y-122388380D01*
X77573142Y-122388380D01*
X77430285Y-122436000D01*
X77382666Y-122483619D01*
X76525523Y-122721714D02*
X76525523Y-123388380D01*
X76763619Y-122340761D02*
X77001714Y-123055047D01*
X76382666Y-123055047D01*
X62142666Y-129897142D02*
X62190285Y-129944761D01*
X62333142Y-129992380D01*
X62428380Y-129992380D01*
X62571238Y-129944761D01*
X62666476Y-129849523D01*
X62714095Y-129754285D01*
X62761714Y-129563809D01*
X62761714Y-129420952D01*
X62714095Y-129230476D01*
X62666476Y-129135238D01*
X62571238Y-129040000D01*
X62428380Y-128992380D01*
X62333142Y-128992380D01*
X62190285Y-129040000D01*
X62142666Y-129087619D01*
X61809333Y-128992380D02*
X61190285Y-128992380D01*
X61523619Y-129373333D01*
X61380761Y-129373333D01*
X61285523Y-129420952D01*
X61237904Y-129468571D01*
X61190285Y-129563809D01*
X61190285Y-129801904D01*
X61237904Y-129897142D01*
X61285523Y-129944761D01*
X61380761Y-129992380D01*
X61666476Y-129992380D01*
X61761714Y-129944761D01*
X61809333Y-129897142D01*
X52490666Y-125325142D02*
X52538285Y-125372761D01*
X52681142Y-125420380D01*
X52776380Y-125420380D01*
X52919238Y-125372761D01*
X53014476Y-125277523D01*
X53062095Y-125182285D01*
X53109714Y-124991809D01*
X53109714Y-124848952D01*
X53062095Y-124658476D01*
X53014476Y-124563238D01*
X52919238Y-124468000D01*
X52776380Y-124420380D01*
X52681142Y-124420380D01*
X52538285Y-124468000D01*
X52490666Y-124515619D01*
X51538285Y-125420380D02*
X52109714Y-125420380D01*
X51824000Y-125420380D02*
X51824000Y-124420380D01*
X51919238Y-124563238D01*
X52014476Y-124658476D01*
X52109714Y-124706095D01*
M02*
