M48
; DRILL file {KiCad (5.1.8-0-10_14)} date Saturday, July 17, 2021 at 04:22:30 PM
; FORMAT={-:-/ absolute / inch / decimal}
; #@! TF.CreationDate,2021-07-17T16:22:30+09:00
; #@! TF.GenerationSoftware,Kicad,Pcbnew,(5.1.8-0-10_14)
FMAT,2
INCH
T1C0.0118
T2C0.0138
T3C0.0236
T4C0.0394
T5C0.0984
%
G90
G05
T1
X2.0079Y-4.2913
X2.0079Y-4.4488
X2.0079Y-4.6063
X2.0079Y-4.7638
X2.0079Y-4.9071
X2.0079Y-5.4724
X2.0079Y-5.6299
X2.0079Y-5.7874
X2.0079Y-5.9449
X2.0079Y-6.0882
X2.0079Y-6.6535
X2.0079Y-6.811
X2.0079Y-6.9685
X2.0079Y-7.126
X2.0079Y-7.2693
X2.0083Y-4.1492
X2.0083Y-5.3303
X2.0083Y-6.5114
X2.1823Y-3.9764
X2.1823Y-5.1575
X2.1823Y-6.3386
X2.1827Y-5.0787
X2.1827Y-6.2598
X2.1827Y-7.4409
X2.2185Y-4.5043
X2.2185Y-4.5701
X2.2185Y-5.6854
X2.2185Y-5.7512
X2.2185Y-6.8665
X2.2185Y-6.9323
X2.2193Y-4.4425
X2.2193Y-4.7394
X2.2193Y-5.6236
X2.2193Y-5.9205
X2.2193Y-6.8047
X2.2193Y-7.1016
X2.222Y-4.1374
X2.222Y-5.3185
X2.222Y-6.4996
X2.2228Y-4.076
X2.2228Y-5.2571
X2.2228Y-6.4382
X2.2882Y-4.0075
X2.2882Y-4.1992
X2.2882Y-5.1886
X2.2882Y-5.3803
X2.2882Y-6.3697
X2.2882Y-6.5614
X2.2898Y-4.078
X2.2898Y-5.2591
X2.2898Y-6.4402
X2.3228Y-3.9764
X2.3228Y-5.0787
X2.3228Y-5.1575
X2.3228Y-6.2598
X2.3228Y-6.3386
X2.3228Y-7.4409
X2.3236Y-4.7843
X2.3236Y-5.9654
X2.3236Y-7.1465
X2.3646Y-4.0476
X2.3646Y-5.2287
X2.3646Y-6.4098
X2.365Y-4.1339
X2.365Y-5.315
X2.365Y-6.4961
X2.3653Y-4.5101
X2.3653Y-5.6912
X2.3653Y-6.8723
X2.3654Y-4.5441
X2.3654Y-5.7252
X2.3654Y-6.9063
X2.3657Y-4.6028
X2.3657Y-5.7839
X2.3657Y-6.965
X2.3677Y-4.2941
X2.3677Y-5.4752
X2.3677Y-6.6563
X2.3681Y-4.2307
X2.3681Y-5.4118
X2.3681Y-6.5929
X2.3693Y-4.1681
X2.3693Y-5.3492
X2.3693Y-6.5303
X2.3744Y-4.3776
X2.3744Y-5.5587
X2.3744Y-6.7398
X2.4035Y-4.1724
X2.4035Y-5.3535
X2.4035Y-6.5346
X2.415Y-4.3453
X2.415Y-5.5264
X2.415Y-6.7075
X2.4524Y-4.1264
X2.4524Y-5.3075
X2.4524Y-6.4886
X2.4756Y-4.3457
X2.4756Y-5.5268
X2.4756Y-6.7079
X2.4803Y-3.9764
X2.4803Y-5.0787
X2.4803Y-5.1575
X2.4803Y-6.2598
X2.4803Y-6.3386
X2.4803Y-7.4409
X2.4811Y-4.0685
X2.4811Y-5.2496
X2.4811Y-6.4307
X2.4925Y-4.1835
X2.4925Y-5.3646
X2.4925Y-6.5457
X2.4992Y-4.6642
X2.4992Y-5.8453
X2.4992Y-7.0264
X2.5Y-4.6035
X2.5Y-5.7846
X2.5Y-6.9657
X2.5114Y-4.3504
X2.5114Y-5.5315
X2.5114Y-6.7126
X2.5122Y-4.2614
X2.5122Y-5.4425
X2.5122Y-6.6236
X2.5394Y-4.7657
X2.5394Y-5.9469
X2.5394Y-7.128
X2.5457Y-4.135
X2.5457Y-5.3161
X2.5457Y-6.4972
X2.5484Y-4.289
X2.5484Y-5.4701
X2.5484Y-6.6512
X2.5528Y-4.2051
X2.5528Y-5.3862
X2.5528Y-6.5673
X2.5657Y-4.3547
X2.5657Y-5.5358
X2.5657Y-6.7169
X2.5831Y-4.1398
X2.5831Y-5.3209
X2.5831Y-6.502
X2.585Y-4.7917
X2.585Y-5.9728
X2.585Y-7.1539
X2.6343Y-4.3539
X2.6343Y-5.535
X2.6343Y-6.7161
X2.6378Y-3.9764
X2.6378Y-5.0787
X2.6378Y-5.1575
X2.6378Y-6.2598
X2.6378Y-6.3386
X2.6378Y-7.4409
X2.6413Y-4.689
X2.6413Y-5.8701
X2.6413Y-7.0512
X2.6417Y-4.7917
X2.6417Y-5.9728
X2.6417Y-7.1539
X2.6429Y-4.6055
X2.6429Y-5.7866
X2.6429Y-6.9677
X2.6441Y-4.1398
X2.6441Y-5.3209
X2.6441Y-6.502
X2.6441Y-4.7323
X2.6441Y-5.9134
X2.6441Y-7.0945
X2.6854Y-4.0386
X2.6854Y-5.2197
X2.6854Y-6.4008
X2.6882Y-4.8256
X2.6882Y-6.0067
X2.6882Y-7.1878
X2.69Y-4.14
X2.69Y-5.3211
X2.69Y-6.5022
X2.7084Y-4.2298
X2.7084Y-5.4109
X2.7084Y-6.592
X2.7236Y-4.3138
X2.7236Y-5.4949
X2.7236Y-6.676
X2.7256Y-4.7976
X2.7256Y-5.9787
X2.7256Y-7.1598
X2.73Y-4.14
X2.73Y-5.3211
X2.73Y-6.5022
X2.7329Y-4.2594
X2.7329Y-5.4406
X2.7329Y-6.6217
X2.7528Y-4.5413
X2.7528Y-5.7224
X2.7528Y-6.9035
X2.7531Y-4.411
X2.7531Y-5.5921
X2.7531Y-6.7732
X2.7551Y-4.8295
X2.7551Y-6.0106
X2.7551Y-7.1917
X2.7579Y-4.75
X2.7579Y-5.9311
X2.7579Y-7.1122
X2.7602Y-4.1858
X2.7602Y-5.3669
X2.7602Y-6.548
X2.7843Y-4.8854
X2.7843Y-6.0665
X2.7843Y-7.2476
X2.7953Y-3.9764
X2.7953Y-5.0787
X2.7953Y-5.1575
X2.7953Y-6.2598
X2.7953Y-6.3386
X2.7953Y-7.4409
X2.81Y-4.7532
X2.81Y-5.9343
X2.81Y-7.1154
X2.8142Y-4.8437
X2.8142Y-6.0248
X2.8142Y-7.2059
X2.82Y-4.5
X2.82Y-4.53
X2.82Y-4.56
X2.82Y-5.6811
X2.82Y-5.7111
X2.82Y-5.7411
X2.82Y-6.8622
X2.82Y-6.8922
X2.82Y-6.9222
X2.8402Y-4.9346
X2.8402Y-6.1157
X2.8402Y-7.2969
X2.8421Y-4.4157
X2.8421Y-5.5969
X2.8421Y-6.778
X2.85Y-4.5
X2.85Y-4.53
X2.85Y-4.56
X2.85Y-5.6811
X2.85Y-5.7111
X2.85Y-5.7411
X2.85Y-6.8622
X2.85Y-6.8922
X2.85Y-6.9222
X2.8531Y-4.6232
X2.8531Y-5.8043
X2.8531Y-6.9854
X2.8614Y-4.0646
X2.8614Y-5.2457
X2.8614Y-6.4268
X2.8697Y-4.3106
X2.8697Y-5.4917
X2.8697Y-6.6728
X2.88Y-4.5
X2.88Y-4.53
X2.88Y-4.56
X2.88Y-5.6811
X2.88Y-5.7111
X2.88Y-5.7411
X2.88Y-6.8622
X2.88Y-6.8922
X2.88Y-6.9222
X2.8819Y-4.4173
X2.8819Y-5.5984
X2.8819Y-6.7795
X2.8894Y-4.8594
X2.8894Y-6.0406
X2.8894Y-7.2217
X2.8898Y-4.8315
X2.8898Y-6.0126
X2.8898Y-7.1937
X2.8936Y-4.1499
X2.8936Y-5.331
X2.8936Y-6.5121
X2.9287Y-4.6417
X2.9287Y-5.8228
X2.9287Y-7.0039
X2.94Y-4.15
X2.94Y-5.3311
X2.94Y-6.5122
X2.9404Y-4.8447
X2.9404Y-6.0258
X2.9404Y-7.2069
X2.95Y-4.46
X2.95Y-4.52
X2.95Y-4.58
X2.95Y-5.6411
X2.95Y-5.7011
X2.95Y-5.7611
X2.95Y-6.8222
X2.95Y-6.8822
X2.95Y-6.9422
X2.952Y-4.9642
X2.952Y-6.1453
X2.952Y-7.3264
X2.9528Y-3.9764
X2.9528Y-5.0787
X2.9528Y-5.1575
X2.9528Y-6.2598
X2.9528Y-6.3386
X2.9528Y-7.4409
X2.9687Y-4.4293
X2.9687Y-5.6104
X2.9687Y-6.7915
X2.9933Y-4.3909
X2.9933Y-5.572
X2.9933Y-6.7531
X2.9987Y-4.1169
X2.9987Y-5.298
X2.9987Y-6.4791
X3.0008Y-4.0642
X3.0008Y-5.2453
X3.0008Y-6.4264
X3.0295Y-4.9646
X3.0295Y-6.1457
X3.0295Y-7.3268
X3.0324Y-4.1481
X3.0324Y-5.3293
X3.0324Y-6.5104
X3.0512Y-3.9764
X3.0512Y-5.0787
X3.0512Y-5.1575
X3.0512Y-6.2598
X3.0512Y-6.3386
X3.0512Y-7.4409
X3.0677Y-4.5277
X3.0677Y-5.7088
X3.0677Y-6.8899
X3.0717Y-4.1417
X3.0717Y-5.3228
X3.0717Y-6.5039
X3.1327Y-4.3661
X3.1327Y-5.5472
X3.1327Y-6.7283
X3.1335Y-4.3063
X3.1335Y-5.4874
X3.1335Y-6.6685
X3.1358Y-4.2106
X3.1358Y-5.3917
X3.1358Y-6.5728
X3.1437Y-4.8496
X3.1437Y-6.0307
X3.1437Y-7.2118
X3.1535Y-4.3921
X3.1535Y-5.5732
X3.1535Y-6.7543
X3.1949Y-4.4209
X3.1949Y-5.602
X3.1949Y-6.7831
X3.2Y-4.37
X3.2Y-5.5511
X3.2Y-6.7322
X3.2063Y-4.2925
X3.2063Y-5.4736
X3.2063Y-6.6547
X3.2449Y-4.7142
X3.2449Y-5.8953
X3.2449Y-7.0764
X3.2488Y-4.6453
X3.2488Y-5.8264
X3.2488Y-7.0075
X3.2543Y-4.8496
X3.2543Y-6.0307
X3.2543Y-7.2118
X3.2677Y-3.9764
X3.2677Y-5.0787
X3.2677Y-5.1575
X3.2677Y-6.2598
X3.2677Y-6.3386
X3.2677Y-7.4409
X3.2689Y-4.3362
X3.2689Y-5.5173
X3.2689Y-6.6984
X3.2874Y-4.6106
X3.2874Y-5.7917
X3.2874Y-6.9728
X3.2913Y-4.5445
X3.2913Y-5.7256
X3.2913Y-6.9067
X3.3268Y-4.2724
X3.3268Y-5.4535
X3.3268Y-6.6346
X3.328Y-4.4441
X3.328Y-5.6252
X3.328Y-6.8063
X3.3303Y-4.5098
X3.3303Y-5.6909
X3.3303Y-6.872
X3.352Y-4.85
X3.352Y-6.0311
X3.352Y-7.2122
X3.3539Y-4.7154
X3.3539Y-5.8965
X3.3539Y-7.0776
X3.3555Y-4.1311
X3.3555Y-5.3122
X3.3555Y-6.4933
X3.3571Y-4.2283
X3.3571Y-5.4094
X3.3571Y-6.5906
X3.4252Y-3.9764
X3.4252Y-5.0787
X3.4252Y-5.1575
X3.4252Y-6.2598
X3.4252Y-6.3386
X3.4252Y-7.4409
X3.5827Y-3.9764
X3.5827Y-5.0787
X3.5827Y-5.1575
X3.5827Y-6.2598
X3.5827Y-6.3386
X3.5827Y-7.4409
X3.6299Y-4.0776
X3.6299Y-4.235
X3.6299Y-4.3925
X3.6299Y-4.55
X3.6299Y-4.7075
X3.6299Y-4.865
X3.6299Y-5.0224
X3.6299Y-5.2587
X3.6299Y-5.4161
X3.6299Y-5.5736
X3.6299Y-5.7311
X3.6299Y-5.8886
X3.6299Y-6.0461
X3.6299Y-6.2035
X3.6299Y-6.4398
X3.6299Y-6.5972
X3.6299Y-6.7547
X3.6299Y-6.9122
X3.6299Y-7.0697
X3.6299Y-7.2272
X3.6299Y-7.3846
X3.7402Y-3.9764
X3.7402Y-5.0787
X3.7402Y-5.1575
X3.7402Y-6.2598
X3.7402Y-6.3386
X3.7402Y-7.4409
X3.8976Y-3.9764
X3.8976Y-4.1339
X3.8976Y-4.2913
X3.8976Y-4.4488
X3.8976Y-4.6063
X3.8976Y-4.7638
X3.8976Y-4.9213
X3.8976Y-5.0787
X3.8976Y-5.1575
X3.8976Y-5.315
X3.8976Y-5.4724
X3.8976Y-5.6299
X3.8976Y-5.7874
X3.8976Y-5.9449
X3.8976Y-6.1024
X3.8976Y-6.2598
X3.8976Y-6.3386
X3.8976Y-6.4961
X3.8976Y-6.6535
X3.8976Y-6.811
X3.8976Y-6.9685
X3.8976Y-7.126
X3.8976Y-7.2835
X3.8976Y-7.4409
X3.9764Y-4.2913
X3.9764Y-4.4488
X3.9764Y-4.6063
X3.9764Y-4.7638
X3.9764Y-4.9071
X3.9764Y-5.4724
X3.9764Y-5.6299
X3.9764Y-5.7874
X3.9764Y-5.9449
X3.9764Y-6.0882
X3.9764Y-6.6535
X3.9764Y-6.811
X3.9764Y-6.9685
X3.9764Y-7.126
X3.9764Y-7.2693
X3.9768Y-4.1492
X3.9768Y-5.3303
X3.9768Y-6.5114
X4.1508Y-3.9764
X4.1508Y-5.1575
X4.1508Y-6.3386
X4.1512Y-5.0787
X4.1512Y-6.2598
X4.1512Y-7.4409
X4.187Y-4.5043
X4.187Y-4.5701
X4.187Y-5.6854
X4.187Y-5.7512
X4.187Y-6.8665
X4.187Y-6.9323
X4.1878Y-4.4425
X4.1878Y-4.7394
X4.1878Y-5.6236
X4.1878Y-5.9205
X4.1878Y-6.8047
X4.1878Y-7.1016
X4.1906Y-4.1374
X4.1906Y-5.3185
X4.1906Y-6.4996
X4.1913Y-4.076
X4.1913Y-5.2571
X4.1913Y-6.4382
X4.2567Y-4.0075
X4.2567Y-4.1992
X4.2567Y-5.1886
X4.2567Y-5.3803
X4.2567Y-6.3697
X4.2567Y-6.5614
X4.2583Y-4.078
X4.2583Y-5.2591
X4.2583Y-6.4402
X4.2913Y-3.9764
X4.2913Y-5.0787
X4.2913Y-5.1575
X4.2913Y-6.2598
X4.2913Y-6.3386
X4.2913Y-7.4409
X4.2921Y-4.7843
X4.2921Y-5.9654
X4.2921Y-7.1465
X4.3331Y-4.0476
X4.3331Y-5.2287
X4.3331Y-6.4098
X4.3335Y-4.1339
X4.3335Y-5.315
X4.3335Y-6.4961
X4.3338Y-4.5101
X4.3338Y-5.6912
X4.3338Y-6.8723
X4.3339Y-4.5441
X4.3339Y-5.7252
X4.3339Y-6.9063
X4.3343Y-4.6028
X4.3343Y-5.7839
X4.3343Y-6.965
X4.3362Y-4.2941
X4.3362Y-5.4752
X4.3362Y-6.6563
X4.3366Y-4.2307
X4.3366Y-5.4118
X4.3366Y-6.5929
X4.3378Y-4.1681
X4.3378Y-5.3492
X4.3378Y-6.5303
X4.3429Y-4.3776
X4.3429Y-5.5587
X4.3429Y-6.7398
X4.372Y-4.1724
X4.372Y-5.3535
X4.372Y-6.5346
X4.3835Y-4.3453
X4.3835Y-5.5264
X4.3835Y-6.7075
X4.4209Y-4.1264
X4.4209Y-5.3075
X4.4209Y-6.4886
X4.4441Y-4.3457
X4.4441Y-5.5268
X4.4441Y-6.7079
X4.4488Y-3.9764
X4.4488Y-5.0787
X4.4488Y-5.1575
X4.4488Y-6.2598
X4.4488Y-6.3386
X4.4488Y-7.4409
X4.4496Y-4.0685
X4.4496Y-5.2496
X4.4496Y-6.4307
X4.461Y-4.1835
X4.461Y-5.3646
X4.461Y-6.5457
X4.4677Y-4.6642
X4.4677Y-5.8453
X4.4677Y-7.0264
X4.4685Y-4.6035
X4.4685Y-5.7846
X4.4685Y-6.9657
X4.4799Y-4.3504
X4.4799Y-5.5315
X4.4799Y-6.7126
X4.4807Y-4.2614
X4.4807Y-5.4425
X4.4807Y-6.6236
X4.5079Y-4.7657
X4.5079Y-5.9469
X4.5079Y-7.128
X4.5142Y-4.135
X4.5142Y-5.3161
X4.5142Y-6.4972
X4.5169Y-4.289
X4.5169Y-5.4701
X4.5169Y-6.6512
X4.5213Y-4.2051
X4.5213Y-5.3862
X4.5213Y-6.5673
X4.5343Y-4.3547
X4.5343Y-5.5358
X4.5343Y-6.7169
X4.5516Y-4.1398
X4.5516Y-5.3209
X4.5516Y-6.502
X4.5535Y-4.7917
X4.5535Y-5.9728
X4.5535Y-7.1539
X4.6028Y-4.3539
X4.6028Y-5.535
X4.6028Y-6.7161
X4.6063Y-3.9764
X4.6063Y-5.0787
X4.6063Y-5.1575
X4.6063Y-6.2598
X4.6063Y-6.3386
X4.6063Y-7.4409
X4.6098Y-4.689
X4.6098Y-5.8701
X4.6098Y-7.0512
X4.6102Y-4.7917
X4.6102Y-5.9728
X4.6102Y-7.1539
X4.6114Y-4.6055
X4.6114Y-5.7866
X4.6114Y-6.9677
X4.6126Y-4.1398
X4.6126Y-5.3209
X4.6126Y-6.502
X4.6126Y-4.7323
X4.6126Y-5.9134
X4.6126Y-7.0945
X4.6539Y-4.0386
X4.6539Y-5.2197
X4.6539Y-6.4008
X4.6567Y-4.8256
X4.6567Y-6.0067
X4.6567Y-7.1878
X4.6585Y-4.14
X4.6585Y-5.3211
X4.6585Y-6.5022
X4.6769Y-4.2298
X4.6769Y-5.4109
X4.6769Y-6.592
X4.6921Y-4.3138
X4.6921Y-5.4949
X4.6921Y-6.676
X4.6941Y-4.7976
X4.6941Y-5.9787
X4.6941Y-7.1598
X4.6985Y-4.14
X4.6985Y-5.3211
X4.6985Y-6.5022
X4.7014Y-4.2594
X4.7014Y-5.4406
X4.7014Y-6.6217
X4.7213Y-4.5413
X4.7213Y-5.7224
X4.7213Y-6.9035
X4.7217Y-4.411
X4.7217Y-5.5921
X4.7217Y-6.7732
X4.7236Y-4.8295
X4.7236Y-6.0106
X4.7236Y-7.1917
X4.7264Y-4.75
X4.7264Y-5.9311
X4.7264Y-7.1122
X4.7287Y-4.1858
X4.7287Y-5.3669
X4.7287Y-6.548
X4.7528Y-4.8854
X4.7528Y-6.0665
X4.7528Y-7.2476
X4.7638Y-3.9764
X4.7638Y-5.0787
X4.7638Y-5.1575
X4.7638Y-6.2598
X4.7638Y-6.3386
X4.7638Y-7.4409
X4.7785Y-4.7532
X4.7785Y-5.9343
X4.7785Y-7.1154
X4.7827Y-4.8437
X4.7827Y-6.0248
X4.7827Y-7.2059
X4.7885Y-4.5
X4.7885Y-4.53
X4.7885Y-4.56
X4.7885Y-5.6811
X4.7885Y-5.7111
X4.7885Y-5.7411
X4.7885Y-6.8622
X4.7885Y-6.8922
X4.7885Y-6.9222
X4.8087Y-4.9346
X4.8087Y-6.1157
X4.8087Y-7.2969
X4.8106Y-4.4157
X4.8106Y-5.5969
X4.8106Y-6.778
X4.8185Y-4.5
X4.8185Y-4.53
X4.8185Y-4.56
X4.8185Y-5.6811
X4.8185Y-5.7111
X4.8185Y-5.7411
X4.8185Y-6.8622
X4.8185Y-6.8922
X4.8185Y-6.9222
X4.8217Y-4.6232
X4.8217Y-5.8043
X4.8217Y-6.9854
X4.8299Y-4.0646
X4.8299Y-5.2457
X4.8299Y-6.4268
X4.8382Y-4.3106
X4.8382Y-5.4917
X4.8382Y-6.6728
X4.8485Y-4.5
X4.8485Y-4.53
X4.8485Y-4.56
X4.8485Y-5.6811
X4.8485Y-5.7111
X4.8485Y-5.7411
X4.8485Y-6.8622
X4.8485Y-6.8922
X4.8485Y-6.9222
X4.8504Y-4.4173
X4.8504Y-5.5984
X4.8504Y-6.7795
X4.8579Y-4.8594
X4.8579Y-6.0406
X4.8579Y-7.2217
X4.8583Y-4.8315
X4.8583Y-6.0126
X4.8583Y-7.1937
X4.8621Y-4.1499
X4.8621Y-5.331
X4.8621Y-6.5121
X4.8972Y-4.6417
X4.8972Y-5.8228
X4.8972Y-7.0039
X4.9085Y-4.15
X4.9085Y-5.3311
X4.9085Y-6.5122
X4.9089Y-4.8447
X4.9089Y-6.0258
X4.9089Y-7.2069
X4.9185Y-4.46
X4.9185Y-4.52
X4.9185Y-4.58
X4.9185Y-5.6411
X4.9185Y-5.7011
X4.9185Y-5.7611
X4.9185Y-6.8222
X4.9185Y-6.8822
X4.9185Y-6.9422
X4.9205Y-4.9642
X4.9205Y-6.1453
X4.9205Y-7.3264
X4.9213Y-3.9764
X4.9213Y-5.0787
X4.9213Y-5.1575
X4.9213Y-6.2598
X4.9213Y-6.3386
X4.9213Y-7.4409
X4.9372Y-4.4293
X4.9372Y-5.6104
X4.9372Y-6.7915
X4.9618Y-4.3909
X4.9618Y-5.572
X4.9618Y-6.7531
X4.9672Y-4.1169
X4.9672Y-5.298
X4.9672Y-6.4791
X4.9693Y-4.0642
X4.9693Y-5.2453
X4.9693Y-6.4264
X4.998Y-4.9646
X4.998Y-6.1457
X4.998Y-7.3268
X5.0009Y-4.1481
X5.0009Y-5.3293
X5.0009Y-6.5104
X5.0197Y-3.9764
X5.0197Y-5.0787
X5.0197Y-5.1575
X5.0197Y-6.2598
X5.0197Y-6.3386
X5.0197Y-7.4409
X5.0362Y-4.5277
X5.0362Y-5.7088
X5.0362Y-6.8899
X5.0402Y-4.1417
X5.0402Y-5.3228
X5.0402Y-6.5039
X5.1012Y-4.3661
X5.1012Y-5.5472
X5.1012Y-6.7283
X5.102Y-4.3063
X5.102Y-5.4874
X5.102Y-6.6685
X5.1043Y-4.2106
X5.1043Y-5.3917
X5.1043Y-6.5728
X5.1122Y-4.8496
X5.1122Y-6.0307
X5.1122Y-7.2118
X5.122Y-4.3921
X5.122Y-5.5732
X5.122Y-6.7543
X5.1634Y-4.4209
X5.1634Y-5.602
X5.1634Y-6.7831
X5.1685Y-4.37
X5.1685Y-5.5511
X5.1685Y-6.7322
X5.1748Y-4.2925
X5.1748Y-5.4736
X5.1748Y-6.6547
X5.2134Y-4.7142
X5.2134Y-5.8953
X5.2134Y-7.0764
X5.2173Y-4.6453
X5.2173Y-5.8264
X5.2173Y-7.0075
X5.2228Y-4.8496
X5.2228Y-6.0307
X5.2228Y-7.2118
X5.2362Y-3.9764
X5.2362Y-5.0787
X5.2362Y-5.1575
X5.2362Y-6.2598
X5.2362Y-6.3386
X5.2362Y-7.4409
X5.2374Y-4.3362
X5.2374Y-5.5173
X5.2374Y-6.6984
X5.2559Y-4.6106
X5.2559Y-5.7917
X5.2559Y-6.9728
X5.2598Y-4.5445
X5.2598Y-5.7256
X5.2598Y-6.9067
X5.2953Y-4.2724
X5.2953Y-5.4535
X5.2953Y-6.6346
X5.2965Y-4.4441
X5.2965Y-5.6252
X5.2965Y-6.8063
X5.2988Y-4.5098
X5.2988Y-5.6909
X5.2988Y-6.872
X5.3205Y-4.85
X5.3205Y-6.0311
X5.3205Y-7.2122
X5.3224Y-4.7154
X5.3224Y-5.8965
X5.3224Y-7.0776
X5.324Y-4.1311
X5.324Y-5.3122
X5.324Y-6.4933
X5.3256Y-4.2283
X5.3256Y-5.4094
X5.3256Y-6.5906
X5.3937Y-3.9764
X5.3937Y-5.0787
X5.3937Y-5.1575
X5.3937Y-6.2598
X5.3937Y-6.3386
X5.3937Y-7.4409
X5.5512Y-3.9764
X5.5512Y-5.0787
X5.5512Y-5.1575
X5.5512Y-6.2598
X5.5512Y-6.3386
X5.5512Y-7.4409
X5.5984Y-4.0776
X5.5984Y-4.235
X5.5984Y-4.3925
X5.5984Y-4.55
X5.5984Y-4.7075
X5.5984Y-4.865
X5.5984Y-5.0224
X5.5984Y-5.2587
X5.5984Y-5.4161
X5.5984Y-5.5736
X5.5984Y-5.7311
X5.5984Y-5.8886
X5.5984Y-6.0461
X5.5984Y-6.2035
X5.5984Y-6.4398
X5.5984Y-6.5972
X5.5984Y-6.7547
X5.5984Y-6.9122
X5.5984Y-7.0697
X5.5984Y-7.2272
X5.5984Y-7.3846
X5.7087Y-3.9764
X5.7087Y-5.0787
X5.7087Y-5.1575
X5.7087Y-6.2598
X5.7087Y-6.3386
X5.7087Y-7.4409
X5.8661Y-3.9764
X5.8661Y-4.1339
X5.8661Y-4.2913
X5.8661Y-4.4488
X5.8661Y-4.6063
X5.8661Y-4.7638
X5.8661Y-4.9213
X5.8661Y-5.0787
X5.8661Y-5.1575
X5.8661Y-5.315
X5.8661Y-5.4724
X5.8661Y-5.6299
X5.8661Y-5.7874
X5.8661Y-5.9449
X5.8661Y-6.1024
X5.8661Y-6.2598
X5.8661Y-6.3386
X5.8661Y-6.4961
X5.8661Y-6.6535
X5.8661Y-6.811
X5.8661Y-6.9685
X5.8661Y-7.126
X5.8661Y-7.2835
X5.8661Y-7.4409
T2
X2.2697Y-6.7726
X2.2697Y-6.8061
X2.2697Y-6.8396
X2.2697Y-6.873
X2.2697Y-6.9065
X2.2697Y-6.94
X2.2697Y-6.9734
X2.2697Y-7.0069
X2.3228Y-6.7726
X2.3228Y-6.8061
X2.3228Y-6.8396
X2.3228Y-6.873
X2.3228Y-6.9065
X2.3228Y-6.94
X2.3228Y-6.9734
X2.3228Y-7.0069
X2.2697Y-4.4104
X2.2697Y-4.4439
X2.2697Y-4.4774
X2.2697Y-4.5108
X2.2697Y-4.5443
X2.2697Y-4.5778
X2.2697Y-4.6112
X2.2697Y-4.6447
X2.3228Y-4.4104
X2.3228Y-4.4439
X2.3228Y-4.4774
X2.3228Y-4.5108
X2.3228Y-4.5443
X2.3228Y-4.5778
X2.3228Y-4.6112
X2.3228Y-4.6447
X4.2382Y-5.5915
X4.2382Y-5.625
X4.2382Y-5.6585
X4.2382Y-5.6919
X4.2382Y-5.7254
X4.2382Y-5.7589
X4.2382Y-5.7923
X4.2382Y-5.8258
X4.2913Y-5.5915
X4.2913Y-5.625
X4.2913Y-5.6585
X4.2913Y-5.6919
X4.2913Y-5.7254
X4.2913Y-5.7589
X4.2913Y-5.7923
X4.2913Y-5.8258
X2.2697Y-5.5915
X2.2697Y-5.625
X2.2697Y-5.6585
X2.2697Y-5.6919
X2.2697Y-5.7254
X2.2697Y-5.7589
X2.2697Y-5.7923
X2.2697Y-5.8258
X2.3228Y-5.5915
X2.3228Y-5.625
X2.3228Y-5.6585
X2.3228Y-5.6919
X2.3228Y-5.7254
X2.3228Y-5.7589
X2.3228Y-5.7923
X2.3228Y-5.8258
X4.2382Y-4.4104
X4.2382Y-4.4439
X4.2382Y-4.4774
X4.2382Y-4.5108
X4.2382Y-4.5443
X4.2382Y-4.5778
X4.2382Y-4.6112
X4.2382Y-4.6447
X4.2913Y-4.4104
X4.2913Y-4.4439
X4.2913Y-4.4774
X4.2913Y-4.5108
X4.2913Y-4.5443
X4.2913Y-4.5778
X4.2913Y-4.6112
X4.2913Y-4.6447
X4.2382Y-6.7726
X4.2382Y-6.8061
X4.2382Y-6.8396
X4.2382Y-6.873
X4.2382Y-6.9065
X4.2382Y-6.94
X4.2382Y-6.9734
X4.2382Y-7.0069
X4.2913Y-6.7726
X4.2913Y-6.8061
X4.2913Y-6.8396
X4.2913Y-6.873
X4.2913Y-6.9065
X4.2913Y-6.94
X4.2913Y-6.9734
X4.2913Y-7.0069
T4
X3.4055Y-6.4398
X3.4055Y-6.5398
X3.4055Y-6.6398
X3.4055Y-6.7398
X3.4055Y-6.8398
X3.4055Y-6.9398
X3.4055Y-7.0398
X3.4055Y-7.1398
X3.4055Y-7.2398
X3.4055Y-7.3398
X3.5055Y-6.4398
X3.5055Y-6.5398
X3.5055Y-6.6398
X3.5055Y-6.7398
X3.5055Y-6.8398
X3.5055Y-6.9398
X3.5055Y-7.0398
X3.5055Y-7.1398
X3.5055Y-7.2398
X3.5055Y-7.3398
X3.4055Y-4.0776
X3.4055Y-4.1776
X3.4055Y-4.2776
X3.4055Y-4.3776
X3.4055Y-4.4776
X3.4055Y-4.5776
X3.4055Y-4.6776
X3.4055Y-4.7776
X3.4055Y-4.8776
X3.4055Y-4.9776
X3.5055Y-4.0776
X3.5055Y-4.1776
X3.5055Y-4.2776
X3.5055Y-4.3776
X3.5055Y-4.4776
X3.5055Y-4.5776
X3.5055Y-4.6776
X3.5055Y-4.7776
X3.5055Y-4.8776
X3.5055Y-4.9776
X5.374Y-4.0776
X5.374Y-4.1776
X5.374Y-4.2776
X5.374Y-4.3776
X5.374Y-4.4776
X5.374Y-4.5776
X5.374Y-4.6776
X5.374Y-4.7776
X5.374Y-4.8776
X5.374Y-4.9776
X5.474Y-4.0776
X5.474Y-4.1776
X5.474Y-4.2776
X5.474Y-4.3776
X5.474Y-4.4776
X5.474Y-4.5776
X5.474Y-4.6776
X5.474Y-4.7776
X5.474Y-4.8776
X5.474Y-4.9776
X5.374Y-5.2587
X5.374Y-5.3587
X5.374Y-5.4587
X5.374Y-5.5587
X5.374Y-5.6587
X5.374Y-5.7587
X5.374Y-5.8587
X5.374Y-5.9587
X5.374Y-6.0587
X5.374Y-6.1587
X5.474Y-5.2587
X5.474Y-5.3587
X5.474Y-5.4587
X5.474Y-5.5587
X5.474Y-5.6587
X5.474Y-5.7587
X5.474Y-5.8587
X5.474Y-5.9587
X5.474Y-6.0587
X5.474Y-6.1587
X3.4055Y-5.2587
X3.4055Y-5.3587
X3.4055Y-5.4587
X3.4055Y-5.5587
X3.4055Y-5.6587
X3.4055Y-5.7587
X3.4055Y-5.8587
X3.4055Y-5.9587
X3.4055Y-6.0587
X3.4055Y-6.1587
X3.5055Y-5.2587
X3.5055Y-5.3587
X3.5055Y-5.4587
X3.5055Y-5.5587
X3.5055Y-5.6587
X3.5055Y-5.7587
X3.5055Y-5.8587
X3.5055Y-5.9587
X3.5055Y-6.0587
X3.5055Y-6.1587
X5.374Y-6.4398
X5.374Y-6.5398
X5.374Y-6.6398
X5.374Y-6.7398
X5.374Y-6.8398
X5.374Y-6.9398
X5.374Y-7.0398
X5.374Y-7.1398
X5.374Y-7.2398
X5.374Y-7.3398
X5.474Y-6.4398
X5.474Y-6.5398
X5.474Y-6.6398
X5.474Y-6.7398
X5.474Y-6.8398
X5.474Y-6.9398
X5.474Y-7.0398
X5.474Y-7.1398
X5.474Y-7.2398
X5.474Y-7.3398
T5
X4.0551Y-5.0
X2.0866Y-5.0
X2.0866Y-6.1811
X4.0551Y-6.1811
X2.0866Y-7.3622
X4.0551Y-7.3622
X5.1181Y-5.0
X3.1496Y-6.1811
X5.1181Y-6.1811
X3.1496Y-7.3622
X5.1181Y-7.3622
X5.1181Y-4.0551
X3.1496Y-5.2362
X5.1181Y-5.2362
X3.1496Y-6.4173
X4.0551Y-4.0551
X5.1181Y-6.4173
X2.0866Y-5.2362
X4.0551Y-5.2362
X2.0866Y-6.4173
X4.0551Y-6.4173
X3.1496Y-5.0
X3.1496Y-4.0551
X2.0866Y-4.0551
T3
G00X4.1354Y-6.7195
M15
G01X4.1039Y-6.7195
M16
G05
G00X4.1354Y-7.06
M15
G01X4.1039Y-7.06
M16
G05
G00X4.2823Y-6.7195
M15
G01X4.2232Y-6.7195
M16
G05
G00X4.2823Y-7.06
M15
G01X4.2232Y-7.06
M16
G05
G00X2.1669Y-6.7195
M15
G01X2.1354Y-6.7195
M16
G05
G00X2.1669Y-7.06
M15
G01X2.1354Y-7.06
M16
G05
G00X2.3138Y-6.7195
M15
G01X2.2547Y-6.7195
M16
G05
G00X2.3138Y-7.06
M15
G01X2.2547Y-7.06
M16
G05
G00X2.1669Y-4.3573
M15
G01X2.1354Y-4.3573
M16
G05
G00X2.1669Y-4.6978
M15
G01X2.1354Y-4.6978
M16
G05
G00X2.3138Y-4.3573
M15
G01X2.2547Y-4.3573
M16
G05
G00X2.3138Y-4.6978
M15
G01X2.2547Y-4.6978
M16
G05
G00X4.1354Y-5.5384
M15
G01X4.1039Y-5.5384
M16
G05
G00X4.1354Y-5.8789
M15
G01X4.1039Y-5.8789
M16
G05
G00X4.2823Y-5.5384
M15
G01X4.2232Y-5.5384
M16
G05
G00X4.2823Y-5.8789
M15
G01X4.2232Y-5.8789
M16
G05
G00X2.1669Y-5.5384
M15
G01X2.1354Y-5.5384
M16
G05
G00X2.1669Y-5.8789
M15
G01X2.1354Y-5.8789
M16
G05
G00X2.3138Y-5.5384
M15
G01X2.2547Y-5.5384
M16
G05
G00X2.3138Y-5.8789
M15
G01X2.2547Y-5.8789
M16
G05
G00X4.1354Y-4.3573
M15
G01X4.1039Y-4.3573
M16
G05
G00X4.1354Y-4.6978
M15
G01X4.1039Y-4.6978
M16
G05
G00X4.2823Y-4.3573
M15
G01X4.2232Y-4.3573
M16
G05
G00X4.2823Y-4.6978
M15
G01X4.2232Y-4.6978
M16
G05
T0
M30
