M48
; DRILL file {KiCad (5.1.10-1-10_14)} date Saturday, September 04, 2021 at 05:54:00 PM
; FORMAT={-:-/ absolute / metric / decimal}
; #@! TF.CreationDate,2021-09-04T17:54:00+09:00
; #@! TF.GenerationSoftware,Kicad,Pcbnew,(5.1.10-1-10_14)
FMAT,2
METRIC
T1C0.300
T2C0.400
T3C0.600
T4C1.000
T5C2.500
%
G90
G05
T1
X50.98Y-105.38
X50.98Y-139.38
X50.99Y-128.59
X50.99Y-162.59
X51.0Y-109.0
X51.0Y-113.0
X51.0Y-117.0
X51.0Y-121.0
X51.0Y-125.0
X51.0Y-143.0
X51.0Y-147.0
X51.0Y-151.0
X51.0Y-155.0
X51.0Y-159.0
X51.98Y-119.4
X51.98Y-153.4
X54.86Y-116.16
X54.86Y-150.16
X55.0Y-109.0
X55.0Y-143.0
X55.39Y-101.01
X55.39Y-135.01
X55.5Y-133.02
X55.5Y-167.02
X56.7Y-126.17
X56.7Y-160.17
X59.0Y-101.0
X59.0Y-105.0
X59.0Y-109.0
X59.0Y-133.0
X59.0Y-135.0
X59.0Y-139.0
X59.0Y-143.0
X59.0Y-167.0
X60.18Y-124.87
X60.18Y-158.87
X61.17Y-130.45
X61.17Y-164.45
X61.325Y-110.735
X61.325Y-144.735
X61.519Y-114.911
X61.519Y-148.911
X61.72Y-111.8
X61.72Y-145.8
X61.96Y-129.37
X61.96Y-163.37
X62.18Y-108.18
X62.18Y-142.18
X62.97Y-131.2
X62.97Y-165.2
X63.0Y-101.0
X63.0Y-133.0
X63.0Y-135.0
X63.0Y-167.0
X63.05Y-104.64
X63.05Y-138.64
X63.1Y-107.28
X63.1Y-141.28
X63.72Y-128.12
X63.72Y-162.12
X64.02Y-114.129
X64.02Y-148.129
X64.14Y-106.19
X64.14Y-140.19
X64.28Y-109.4
X64.28Y-143.4
X64.41Y-122.5
X64.41Y-156.5
X64.49Y-118.82
X64.49Y-152.82
X64.55Y-126.57
X64.55Y-160.57
X64.82Y-129.37
X64.82Y-163.37
X65.04Y-114.6
X65.04Y-148.6
X65.21Y-111.47
X65.21Y-145.47
X65.22Y-109.75
X65.22Y-143.75
X65.6Y-128.03
X65.6Y-130.45
X65.6Y-162.03
X65.6Y-164.45
X65.66Y-110.68
X65.66Y-144.68
X65.94Y-131.2
X65.94Y-165.2
X66.01Y-114.65
X66.01Y-148.65
X66.13Y-124.23
X66.13Y-158.23
X66.69Y-128.21
X66.69Y-162.21
X66.7Y-104.64
X66.7Y-138.64
X66.71Y-106.17
X66.71Y-108.4
X66.71Y-140.17
X66.71Y-142.4
X66.716Y-123.654
X66.716Y-157.654
X66.725Y-110.535
X66.725Y-144.535
X66.795Y-122.65
X66.795Y-156.65
X66.82Y-114.33
X66.82Y-148.33
X66.84Y-116.99
X66.84Y-118.49
X66.84Y-150.99
X66.84Y-152.49
X67.0Y-101.0
X67.0Y-133.0
X67.0Y-135.0
X67.0Y-167.0
X67.67Y-111.025
X67.67Y-114.27
X67.67Y-145.025
X67.67Y-148.27
X68.38Y-115.51
X68.38Y-117.35
X68.38Y-149.51
X68.38Y-151.35
X68.96Y-114.51
X68.96Y-148.51
X69.28Y-116.77
X69.28Y-150.77
X69.48Y-129.37
X69.48Y-163.37
X69.63Y-105.39
X69.63Y-139.39
X69.735Y-118.425
X69.735Y-152.425
X70.86Y-105.39
X70.86Y-139.39
X70.87Y-130.45
X70.87Y-164.45
X71.0Y-101.0
X71.0Y-135.0
X71.65Y-129.37
X71.65Y-163.37
X71.72Y-132.98
X71.72Y-166.98
X72.18Y-121.06
X72.18Y-155.06
X72.33Y-130.2
X72.33Y-164.2
X72.55Y-103.5
X72.55Y-137.5
X73.07Y-123.72
X73.07Y-157.72
X73.58Y-112.33
X73.58Y-146.33
X73.608Y-114.752
X73.608Y-148.752
X73.72Y-106.5
X73.72Y-140.5
X73.76Y-110.05
X73.76Y-144.05
X73.81Y-117.63
X73.81Y-151.63
X74.53Y-116.88
X74.53Y-150.88
X74.57Y-119.99
X74.57Y-153.99
X74.66Y-123.69
X74.66Y-157.69
X75.0Y-101.0
X75.0Y-133.0
X75.0Y-135.0
X75.0Y-167.0
X75.34Y-109.07
X75.34Y-143.07
X76.15Y-132.3
X76.15Y-166.3
X77.59Y-114.87
X77.59Y-148.87
X77.75Y-120.8
X77.75Y-154.8
X78.19Y-127.86
X78.19Y-161.86
X78.22Y-106.5
X78.22Y-140.5
X78.84Y-123.7
X78.84Y-157.7
X78.86Y-125.29
X78.86Y-159.29
X79.0Y-101.0
X79.0Y-129.0
X79.0Y-133.0
X79.0Y-135.0
X79.0Y-163.0
X79.0Y-167.0
X79.655Y-118.955
X79.655Y-127.17
X79.655Y-152.955
X79.655Y-161.17
X79.66Y-117.15
X79.66Y-151.15
X80.48Y-123.7
X80.48Y-157.7
X80.54Y-108.47
X80.54Y-142.47
X80.55Y-120.83
X80.55Y-154.83
X80.57Y-113.6
X80.57Y-147.6
X81.28Y-125.16
X81.28Y-159.16
X81.43Y-113.88
X81.43Y-147.88
X81.44Y-120.06
X81.44Y-154.06
X81.45Y-118.28
X81.45Y-152.28
X81.45Y-119.21
X81.45Y-153.21
X82.32Y-122.07
X82.32Y-156.07
X82.35Y-113.97
X82.35Y-147.97
X82.38Y-111.81
X82.38Y-145.81
X83.18Y-117.06
X83.18Y-151.06
X83.2Y-109.4
X83.2Y-143.4
X83.21Y-122.09
X83.21Y-124.33
X83.21Y-156.09
X83.21Y-158.33
X83.22Y-114.49
X83.22Y-119.58
X83.22Y-148.49
X83.22Y-153.58
X84.4Y-133.03
X84.4Y-167.03
X84.54Y-101.0
X84.54Y-135.0
X87.0Y-101.0
X87.0Y-133.0
X87.0Y-135.0
X87.0Y-167.0
X91.0Y-101.0
X91.0Y-105.0
X91.0Y-109.0
X91.0Y-113.0
X91.0Y-117.0
X91.0Y-121.0
X91.0Y-125.0
X91.0Y-129.0
X91.0Y-133.0
X91.0Y-135.0
X91.0Y-139.0
X91.0Y-143.0
X91.0Y-147.0
X91.0Y-151.0
X91.0Y-155.0
X91.0Y-159.0
X91.0Y-163.0
X91.0Y-167.0
X95.0Y-101.0
X95.0Y-105.0
X95.0Y-109.0
X95.0Y-113.0
X95.0Y-117.0
X95.0Y-121.0
X95.0Y-125.0
X95.0Y-129.0
X95.0Y-133.0
X95.0Y-135.0
X95.0Y-139.0
X95.0Y-143.0
X95.0Y-147.0
X95.0Y-151.0
X95.0Y-155.0
X95.0Y-159.0
X95.0Y-163.0
X95.0Y-167.0
X99.0Y-101.0
X99.0Y-105.0
X99.0Y-109.0
X99.0Y-113.0
X99.0Y-117.0
X99.0Y-121.0
X99.0Y-125.0
X99.0Y-129.0
X99.0Y-133.0
X99.0Y-135.0
X99.0Y-139.0
X99.0Y-143.0
X99.0Y-147.0
X99.0Y-151.0
X99.0Y-155.0
X99.0Y-159.0
X99.0Y-163.0
X99.0Y-167.0
X100.98Y-105.38
X100.98Y-139.38
X100.99Y-128.59
X100.99Y-162.59
X101.0Y-109.0
X101.0Y-113.0
X101.0Y-117.0
X101.0Y-121.0
X101.0Y-125.0
X101.0Y-143.0
X101.0Y-147.0
X101.0Y-151.0
X101.0Y-155.0
X101.0Y-159.0
X101.98Y-119.4
X101.98Y-153.4
X104.86Y-116.16
X104.86Y-150.16
X105.0Y-109.0
X105.0Y-143.0
X105.39Y-101.01
X105.39Y-135.01
X105.5Y-133.02
X105.5Y-167.02
X106.7Y-126.17
X106.7Y-160.17
X109.0Y-101.0
X109.0Y-105.0
X109.0Y-109.0
X109.0Y-133.0
X109.0Y-135.0
X109.0Y-139.0
X109.0Y-143.0
X109.0Y-167.0
X110.18Y-124.87
X110.18Y-158.87
X111.17Y-130.45
X111.17Y-164.45
X111.325Y-110.735
X111.325Y-144.735
X111.519Y-114.911
X111.519Y-148.911
X111.72Y-111.8
X111.72Y-145.8
X111.96Y-129.37
X111.96Y-163.37
X112.18Y-108.18
X112.18Y-142.18
X112.97Y-131.2
X112.97Y-165.2
X113.0Y-101.0
X113.0Y-133.0
X113.0Y-135.0
X113.0Y-167.0
X113.05Y-104.64
X113.05Y-138.64
X113.1Y-107.28
X113.1Y-141.28
X113.72Y-128.12
X113.72Y-162.12
X114.02Y-114.129
X114.02Y-148.129
X114.14Y-106.19
X114.14Y-140.19
X114.28Y-109.4
X114.28Y-143.4
X114.41Y-122.5
X114.41Y-156.5
X114.49Y-118.82
X114.49Y-152.82
X114.55Y-126.57
X114.55Y-160.57
X114.82Y-129.37
X114.82Y-163.37
X115.04Y-114.6
X115.04Y-148.6
X115.21Y-111.47
X115.21Y-145.47
X115.22Y-109.75
X115.22Y-143.75
X115.6Y-128.03
X115.6Y-130.45
X115.6Y-162.03
X115.6Y-164.45
X115.66Y-110.68
X115.66Y-144.68
X115.94Y-131.2
X115.94Y-165.2
X116.01Y-114.65
X116.01Y-148.65
X116.13Y-124.23
X116.13Y-158.23
X116.69Y-128.21
X116.69Y-162.21
X116.7Y-104.64
X116.7Y-138.64
X116.71Y-106.17
X116.71Y-108.4
X116.71Y-140.17
X116.71Y-142.4
X116.716Y-123.654
X116.716Y-157.654
X116.725Y-110.535
X116.725Y-144.535
X116.795Y-122.65
X116.795Y-156.65
X116.82Y-114.33
X116.82Y-148.33
X116.84Y-116.99
X116.84Y-118.49
X116.84Y-150.99
X116.84Y-152.49
X117.0Y-101.0
X117.0Y-133.0
X117.0Y-135.0
X117.0Y-167.0
X117.67Y-111.025
X117.67Y-114.27
X117.67Y-145.025
X117.67Y-148.27
X118.38Y-115.51
X118.38Y-117.35
X118.38Y-149.51
X118.38Y-151.35
X118.96Y-114.51
X118.96Y-148.51
X119.28Y-116.77
X119.28Y-150.77
X119.48Y-129.37
X119.48Y-163.37
X119.63Y-105.39
X119.63Y-139.39
X119.735Y-118.425
X119.735Y-152.425
X120.86Y-105.39
X120.86Y-139.39
X120.87Y-130.45
X120.87Y-164.45
X121.0Y-101.0
X121.0Y-135.0
X121.65Y-129.37
X121.65Y-163.37
X121.72Y-132.98
X121.72Y-166.98
X122.18Y-121.06
X122.18Y-155.06
X122.33Y-130.2
X122.33Y-164.2
X122.55Y-103.5
X122.55Y-137.5
X123.07Y-123.72
X123.07Y-157.72
X123.58Y-112.33
X123.58Y-146.33
X123.608Y-114.752
X123.608Y-148.752
X123.72Y-106.5
X123.72Y-140.5
X123.76Y-110.05
X123.76Y-144.05
X123.81Y-117.63
X123.81Y-151.63
X124.53Y-116.88
X124.53Y-150.88
X124.57Y-119.99
X124.57Y-153.99
X124.66Y-123.69
X124.66Y-157.69
X125.0Y-101.0
X125.0Y-133.0
X125.0Y-135.0
X125.0Y-167.0
X125.34Y-109.07
X125.34Y-143.07
X126.15Y-132.3
X126.15Y-166.3
X127.59Y-114.87
X127.59Y-148.87
X127.75Y-120.8
X127.75Y-154.8
X128.19Y-127.86
X128.19Y-161.86
X128.22Y-106.5
X128.22Y-140.5
X128.84Y-123.7
X128.84Y-157.7
X128.86Y-125.29
X128.86Y-159.29
X129.0Y-101.0
X129.0Y-129.0
X129.0Y-133.0
X129.0Y-135.0
X129.0Y-163.0
X129.0Y-167.0
X129.655Y-118.955
X129.655Y-127.17
X129.655Y-152.955
X129.655Y-161.17
X129.66Y-117.15
X129.66Y-151.15
X130.48Y-123.7
X130.48Y-157.7
X130.54Y-108.47
X130.54Y-142.47
X130.55Y-120.83
X130.55Y-154.83
X130.57Y-113.6
X130.57Y-147.6
X131.28Y-125.16
X131.28Y-159.16
X131.43Y-113.88
X131.43Y-147.88
X131.44Y-120.06
X131.44Y-154.06
X131.45Y-118.28
X131.45Y-152.28
X131.45Y-119.21
X131.45Y-153.21
X132.32Y-122.07
X132.32Y-156.07
X132.35Y-113.97
X132.35Y-147.97
X132.38Y-111.81
X132.38Y-145.81
X133.18Y-117.06
X133.18Y-151.06
X133.2Y-109.4
X133.2Y-143.4
X133.21Y-122.09
X133.21Y-124.33
X133.21Y-156.09
X133.21Y-158.33
X133.22Y-114.49
X133.22Y-119.58
X133.22Y-148.49
X133.22Y-153.58
X134.4Y-133.03
X134.4Y-167.03
X134.54Y-101.0
X134.54Y-135.0
X137.0Y-101.0
X137.0Y-133.0
X137.0Y-135.0
X137.0Y-167.0
X141.0Y-101.0
X141.0Y-105.0
X141.0Y-109.0
X141.0Y-113.0
X141.0Y-117.0
X141.0Y-121.0
X141.0Y-125.0
X141.0Y-129.0
X141.0Y-133.0
X141.0Y-135.0
X141.0Y-139.0
X141.0Y-143.0
X141.0Y-147.0
X141.0Y-151.0
X141.0Y-155.0
X141.0Y-159.0
X141.0Y-163.0
X141.0Y-167.0
X145.0Y-101.0
X145.0Y-105.0
X145.0Y-109.0
X145.0Y-113.0
X145.0Y-117.0
X145.0Y-121.0
X145.0Y-125.0
X145.0Y-129.0
X145.0Y-133.0
X145.0Y-135.0
X145.0Y-139.0
X145.0Y-143.0
X145.0Y-147.0
X145.0Y-151.0
X145.0Y-155.0
X145.0Y-159.0
X145.0Y-163.0
X145.0Y-167.0
X149.0Y-101.0
X149.0Y-105.0
X149.0Y-109.0
X149.0Y-113.0
X149.0Y-117.0
X149.0Y-121.0
X149.0Y-125.0
X149.0Y-129.0
X149.0Y-133.0
X149.0Y-135.0
X149.0Y-139.0
X149.0Y-143.0
X149.0Y-147.0
X149.0Y-151.0
X149.0Y-155.0
X149.0Y-159.0
X149.0Y-163.0
X149.0Y-167.0
T2
X55.65Y-114.025
X55.65Y-114.875
X55.65Y-115.725
X55.65Y-116.575
X55.65Y-117.425
X55.65Y-118.275
X55.65Y-119.125
X55.65Y-119.975
X55.65Y-148.025
X55.65Y-148.875
X55.65Y-149.725
X55.65Y-150.575
X55.65Y-151.425
X55.65Y-152.275
X55.65Y-153.125
X55.65Y-153.975
X57.0Y-114.025
X57.0Y-114.875
X57.0Y-115.725
X57.0Y-116.575
X57.0Y-117.425
X57.0Y-118.275
X57.0Y-119.125
X57.0Y-119.975
X57.0Y-148.025
X57.0Y-148.875
X57.0Y-149.725
X57.0Y-150.575
X57.0Y-151.425
X57.0Y-152.275
X57.0Y-153.125
X57.0Y-153.975
X105.65Y-114.025
X105.65Y-114.875
X105.65Y-115.725
X105.65Y-116.575
X105.65Y-117.425
X105.65Y-118.275
X105.65Y-119.125
X105.65Y-119.975
X105.65Y-148.025
X105.65Y-148.875
X105.65Y-149.725
X105.65Y-150.575
X105.65Y-151.425
X105.65Y-152.275
X105.65Y-153.125
X105.65Y-153.975
X107.0Y-114.025
X107.0Y-114.875
X107.0Y-115.725
X107.0Y-116.575
X107.0Y-117.425
X107.0Y-118.275
X107.0Y-119.125
X107.0Y-119.975
X107.0Y-148.025
X107.0Y-148.875
X107.0Y-149.725
X107.0Y-150.575
X107.0Y-151.425
X107.0Y-152.275
X107.0Y-153.125
X107.0Y-153.975
T4
X86.2Y-105.58
X86.2Y-108.12
X86.2Y-110.66
X86.2Y-113.2
X86.2Y-115.74
X86.2Y-118.28
X86.2Y-120.82
X86.2Y-123.36
X86.2Y-125.9
X86.2Y-128.44
X86.2Y-139.58
X86.2Y-142.12
X86.2Y-144.66
X86.2Y-147.2
X86.2Y-149.74
X86.2Y-152.28
X86.2Y-154.82
X86.2Y-157.36
X86.2Y-159.9
X86.2Y-162.44
X88.74Y-105.58
X88.74Y-108.12
X88.74Y-110.66
X88.74Y-113.2
X88.74Y-115.74
X88.74Y-118.28
X88.74Y-120.82
X88.74Y-123.36
X88.74Y-125.9
X88.74Y-128.44
X88.74Y-139.58
X88.74Y-142.12
X88.74Y-144.66
X88.74Y-147.2
X88.74Y-149.74
X88.74Y-152.28
X88.74Y-154.82
X88.74Y-157.36
X88.74Y-159.9
X88.74Y-162.44
X136.2Y-105.58
X136.2Y-108.12
X136.2Y-110.66
X136.2Y-113.2
X136.2Y-115.74
X136.2Y-118.28
X136.2Y-120.82
X136.2Y-123.36
X136.2Y-125.9
X136.2Y-128.44
X136.2Y-139.58
X136.2Y-142.12
X136.2Y-144.66
X136.2Y-147.2
X136.2Y-149.74
X136.2Y-152.28
X136.2Y-154.82
X136.2Y-157.36
X136.2Y-159.9
X136.2Y-162.44
X138.74Y-105.58
X138.74Y-108.12
X138.74Y-110.66
X138.74Y-113.2
X138.74Y-115.74
X138.74Y-118.28
X138.74Y-120.82
X138.74Y-123.36
X138.74Y-125.9
X138.74Y-128.44
X138.74Y-139.58
X138.74Y-142.12
X138.74Y-144.66
X138.74Y-147.2
X138.74Y-149.74
X138.74Y-152.28
X138.74Y-154.82
X138.74Y-157.36
X138.74Y-159.9
X138.74Y-162.44
T5
X53.0Y-103.0
X53.0Y-131.0
X53.0Y-137.0
X53.0Y-165.0
X82.0Y-103.0
X82.0Y-131.0
X82.0Y-137.0
X82.0Y-165.0
X103.0Y-103.0
X103.0Y-131.0
X103.0Y-137.0
X103.0Y-165.0
X132.0Y-103.0
X132.0Y-131.0
X132.0Y-137.0
X132.0Y-165.0
T3
G00X53.04Y-112.675
M15
G01X52.24Y-112.675
M16
G05
G00X53.04Y-121.325
M15
G01X52.24Y-121.325
M16
G05
G00X53.04Y-146.675
M15
G01X52.24Y-146.675
M16
G05
G00X53.04Y-155.325
M15
G01X52.24Y-155.325
M16
G05
G00X56.77Y-112.675
M15
G01X55.27Y-112.675
M16
G05
G00X56.77Y-121.325
M15
G01X55.27Y-121.325
M16
G05
G00X56.77Y-146.675
M15
G01X55.27Y-146.675
M16
G05
G00X56.77Y-155.325
M15
G01X55.27Y-155.325
M16
G05
G00X103.04Y-112.675
M15
G01X102.24Y-112.675
M16
G05
G00X103.04Y-121.325
M15
G01X102.24Y-121.325
M16
G05
G00X103.04Y-146.675
M15
G01X102.24Y-146.675
M16
G05
G00X103.04Y-155.325
M15
G01X102.24Y-155.325
M16
G05
G00X106.77Y-112.675
M15
G01X105.27Y-112.675
M16
G05
G00X106.77Y-121.325
M15
G01X105.27Y-121.325
M16
G05
G00X106.77Y-146.675
M15
G01X105.27Y-146.675
M16
G05
G00X106.77Y-155.325
M15
G01X105.27Y-155.325
M16
G05
T0
M30
