G04 #@! TF.GenerationSoftware,KiCad,Pcbnew,(5.1.8-0-10_14)*
G04 #@! TF.CreationDate,2021-07-17T16:22:24+09:00*
G04 #@! TF.ProjectId,ft2232_jtag_tap,66743232-3332-45f6-9a74-61675f746170,rev?*
G04 #@! TF.SameCoordinates,Original*
G04 #@! TF.FileFunction,Soldermask,Bot*
G04 #@! TF.FilePolarity,Negative*
%FSLAX46Y46*%
G04 Gerber Fmt 4.6, Leading zero omitted, Abs format (unit mm)*
G04 Created by KiCad (PCBNEW (5.1.8-0-10_14)) date 2021-07-17 16:22:24*
%MOMM*%
%LPD*%
G01*
G04 APERTURE LIST*
%ADD10C,2.500000*%
%ADD11R,1.000000X1.500000*%
%ADD12C,0.650000*%
%ADD13O,2.400000X0.900000*%
%ADD14O,1.700000X0.900000*%
%ADD15C,1.700000*%
G04 APERTURE END LIST*
D10*
X103000000Y-163000000D03*
X53000000Y-163000000D03*
X103000000Y-133000000D03*
X53000000Y-133000000D03*
X103000000Y-103000000D03*
X130000000Y-163000000D03*
X80000000Y-163000000D03*
X130000000Y-133000000D03*
X80000000Y-133000000D03*
X130000000Y-103000000D03*
X130000000Y-187000000D03*
X80000000Y-187000000D03*
X130000000Y-157000000D03*
X80000000Y-157000000D03*
X130000000Y-127000000D03*
D11*
X119870000Y-177430000D03*
X121170000Y-177430000D03*
X69870000Y-177430000D03*
X71170000Y-177430000D03*
X119870000Y-147430000D03*
X121170000Y-147430000D03*
X69870000Y-147430000D03*
X71170000Y-147430000D03*
X119870000Y-117430000D03*
X121170000Y-117430000D03*
D12*
X109000000Y-172025000D03*
X109000000Y-172875000D03*
X109000000Y-173725000D03*
X109000000Y-174575000D03*
X109000000Y-175425000D03*
X109000000Y-176275000D03*
X109000000Y-177125000D03*
X109000000Y-177975000D03*
X107650000Y-172875000D03*
X107650000Y-174575000D03*
X107650000Y-173725000D03*
X107650000Y-172025000D03*
X107650000Y-176275000D03*
X107650000Y-177125000D03*
X107650000Y-177975000D03*
X107650000Y-175425000D03*
D13*
X108020000Y-170675000D03*
X108020000Y-179325000D03*
D14*
X104640000Y-170675000D03*
X104640000Y-179325000D03*
D12*
X59000000Y-172025000D03*
X59000000Y-172875000D03*
X59000000Y-173725000D03*
X59000000Y-174575000D03*
X59000000Y-175425000D03*
X59000000Y-176275000D03*
X59000000Y-177125000D03*
X59000000Y-177975000D03*
X57650000Y-172875000D03*
X57650000Y-174575000D03*
X57650000Y-173725000D03*
X57650000Y-172025000D03*
X57650000Y-176275000D03*
X57650000Y-177125000D03*
X57650000Y-177975000D03*
X57650000Y-175425000D03*
D13*
X58020000Y-170675000D03*
X58020000Y-179325000D03*
D14*
X54640000Y-170675000D03*
X54640000Y-179325000D03*
D12*
X109000000Y-142025000D03*
X109000000Y-142875000D03*
X109000000Y-143725000D03*
X109000000Y-144575000D03*
X109000000Y-145425000D03*
X109000000Y-146275000D03*
X109000000Y-147125000D03*
X109000000Y-147975000D03*
X107650000Y-142875000D03*
X107650000Y-144575000D03*
X107650000Y-143725000D03*
X107650000Y-142025000D03*
X107650000Y-146275000D03*
X107650000Y-147125000D03*
X107650000Y-147975000D03*
X107650000Y-145425000D03*
D13*
X108020000Y-140675000D03*
X108020000Y-149325000D03*
D14*
X104640000Y-140675000D03*
X104640000Y-149325000D03*
D12*
X59000000Y-142025000D03*
X59000000Y-142875000D03*
X59000000Y-143725000D03*
X59000000Y-144575000D03*
X59000000Y-145425000D03*
X59000000Y-146275000D03*
X59000000Y-147125000D03*
X59000000Y-147975000D03*
X57650000Y-142875000D03*
X57650000Y-144575000D03*
X57650000Y-143725000D03*
X57650000Y-142025000D03*
X57650000Y-146275000D03*
X57650000Y-147125000D03*
X57650000Y-147975000D03*
X57650000Y-145425000D03*
D13*
X58020000Y-140675000D03*
X58020000Y-149325000D03*
D14*
X54640000Y-140675000D03*
X54640000Y-149325000D03*
D12*
X109000000Y-112025000D03*
X109000000Y-112875000D03*
X109000000Y-113725000D03*
X109000000Y-114575000D03*
X109000000Y-115425000D03*
X109000000Y-116275000D03*
X109000000Y-117125000D03*
X109000000Y-117975000D03*
X107650000Y-112875000D03*
X107650000Y-114575000D03*
X107650000Y-113725000D03*
X107650000Y-112025000D03*
X107650000Y-116275000D03*
X107650000Y-117125000D03*
X107650000Y-117975000D03*
X107650000Y-115425000D03*
D13*
X108020000Y-110675000D03*
X108020000Y-119325000D03*
D14*
X104640000Y-110675000D03*
X104640000Y-119325000D03*
D10*
X103000000Y-187000000D03*
X53000000Y-187000000D03*
X103000000Y-157000000D03*
X53000000Y-157000000D03*
X103000000Y-127000000D03*
G36*
G01*
X135650000Y-164170000D02*
X135650000Y-162970000D01*
G75*
G02*
X135900000Y-162720000I250000J0D01*
G01*
X137100000Y-162720000D01*
G75*
G02*
X137350000Y-162970000I0J-250000D01*
G01*
X137350000Y-164170000D01*
G75*
G02*
X137100000Y-164420000I-250000J0D01*
G01*
X135900000Y-164420000D01*
G75*
G02*
X135650000Y-164170000I0J250000D01*
G01*
G37*
D15*
X136500000Y-166110000D03*
X136500000Y-168650000D03*
X136500000Y-171190000D03*
X136500000Y-173730000D03*
X136500000Y-176270000D03*
X136500000Y-178810000D03*
X136500000Y-181350000D03*
X136500000Y-183890000D03*
X136500000Y-186430000D03*
X139040000Y-163570000D03*
X139040000Y-166110000D03*
X139040000Y-168650000D03*
X139040000Y-171190000D03*
X139040000Y-173730000D03*
X139040000Y-176270000D03*
X139040000Y-178810000D03*
X139040000Y-181350000D03*
X139040000Y-183890000D03*
X139040000Y-186430000D03*
G36*
G01*
X85650000Y-164170000D02*
X85650000Y-162970000D01*
G75*
G02*
X85900000Y-162720000I250000J0D01*
G01*
X87100000Y-162720000D01*
G75*
G02*
X87350000Y-162970000I0J-250000D01*
G01*
X87350000Y-164170000D01*
G75*
G02*
X87100000Y-164420000I-250000J0D01*
G01*
X85900000Y-164420000D01*
G75*
G02*
X85650000Y-164170000I0J250000D01*
G01*
G37*
X86500000Y-166110000D03*
X86500000Y-168650000D03*
X86500000Y-171190000D03*
X86500000Y-173730000D03*
X86500000Y-176270000D03*
X86500000Y-178810000D03*
X86500000Y-181350000D03*
X86500000Y-183890000D03*
X86500000Y-186430000D03*
X89040000Y-163570000D03*
X89040000Y-166110000D03*
X89040000Y-168650000D03*
X89040000Y-171190000D03*
X89040000Y-173730000D03*
X89040000Y-176270000D03*
X89040000Y-178810000D03*
X89040000Y-181350000D03*
X89040000Y-183890000D03*
X89040000Y-186430000D03*
G36*
G01*
X135650000Y-134170000D02*
X135650000Y-132970000D01*
G75*
G02*
X135900000Y-132720000I250000J0D01*
G01*
X137100000Y-132720000D01*
G75*
G02*
X137350000Y-132970000I0J-250000D01*
G01*
X137350000Y-134170000D01*
G75*
G02*
X137100000Y-134420000I-250000J0D01*
G01*
X135900000Y-134420000D01*
G75*
G02*
X135650000Y-134170000I0J250000D01*
G01*
G37*
X136500000Y-136110000D03*
X136500000Y-138650000D03*
X136500000Y-141190000D03*
X136500000Y-143730000D03*
X136500000Y-146270000D03*
X136500000Y-148810000D03*
X136500000Y-151350000D03*
X136500000Y-153890000D03*
X136500000Y-156430000D03*
X139040000Y-133570000D03*
X139040000Y-136110000D03*
X139040000Y-138650000D03*
X139040000Y-141190000D03*
X139040000Y-143730000D03*
X139040000Y-146270000D03*
X139040000Y-148810000D03*
X139040000Y-151350000D03*
X139040000Y-153890000D03*
X139040000Y-156430000D03*
G36*
G01*
X85650000Y-134170000D02*
X85650000Y-132970000D01*
G75*
G02*
X85900000Y-132720000I250000J0D01*
G01*
X87100000Y-132720000D01*
G75*
G02*
X87350000Y-132970000I0J-250000D01*
G01*
X87350000Y-134170000D01*
G75*
G02*
X87100000Y-134420000I-250000J0D01*
G01*
X85900000Y-134420000D01*
G75*
G02*
X85650000Y-134170000I0J250000D01*
G01*
G37*
X86500000Y-136110000D03*
X86500000Y-138650000D03*
X86500000Y-141190000D03*
X86500000Y-143730000D03*
X86500000Y-146270000D03*
X86500000Y-148810000D03*
X86500000Y-151350000D03*
X86500000Y-153890000D03*
X86500000Y-156430000D03*
X89040000Y-133570000D03*
X89040000Y-136110000D03*
X89040000Y-138650000D03*
X89040000Y-141190000D03*
X89040000Y-143730000D03*
X89040000Y-146270000D03*
X89040000Y-148810000D03*
X89040000Y-151350000D03*
X89040000Y-153890000D03*
X89040000Y-156430000D03*
G36*
G01*
X135650000Y-104170000D02*
X135650000Y-102970000D01*
G75*
G02*
X135900000Y-102720000I250000J0D01*
G01*
X137100000Y-102720000D01*
G75*
G02*
X137350000Y-102970000I0J-250000D01*
G01*
X137350000Y-104170000D01*
G75*
G02*
X137100000Y-104420000I-250000J0D01*
G01*
X135900000Y-104420000D01*
G75*
G02*
X135650000Y-104170000I0J250000D01*
G01*
G37*
X136500000Y-106110000D03*
X136500000Y-108650000D03*
X136500000Y-111190000D03*
X136500000Y-113730000D03*
X136500000Y-116270000D03*
X136500000Y-118810000D03*
X136500000Y-121350000D03*
X136500000Y-123890000D03*
X136500000Y-126430000D03*
X139040000Y-103570000D03*
X139040000Y-106110000D03*
X139040000Y-108650000D03*
X139040000Y-111190000D03*
X139040000Y-113730000D03*
X139040000Y-116270000D03*
X139040000Y-118810000D03*
X139040000Y-121350000D03*
X139040000Y-123890000D03*
X139040000Y-126430000D03*
X89040000Y-126430000D03*
X89040000Y-123890000D03*
X89040000Y-121350000D03*
X89040000Y-118810000D03*
X89040000Y-116270000D03*
X89040000Y-113730000D03*
X89040000Y-111190000D03*
X89040000Y-108650000D03*
X89040000Y-106110000D03*
X89040000Y-103570000D03*
X86500000Y-126430000D03*
X86500000Y-123890000D03*
X86500000Y-121350000D03*
X86500000Y-118810000D03*
X86500000Y-116270000D03*
X86500000Y-113730000D03*
X86500000Y-111190000D03*
X86500000Y-108650000D03*
X86500000Y-106110000D03*
G36*
G01*
X85650000Y-104170000D02*
X85650000Y-102970000D01*
G75*
G02*
X85900000Y-102720000I250000J0D01*
G01*
X87100000Y-102720000D01*
G75*
G02*
X87350000Y-102970000I0J-250000D01*
G01*
X87350000Y-104170000D01*
G75*
G02*
X87100000Y-104420000I-250000J0D01*
G01*
X85900000Y-104420000D01*
G75*
G02*
X85650000Y-104170000I0J250000D01*
G01*
G37*
D10*
X53000000Y-127000000D03*
D14*
X54640000Y-119325000D03*
X54640000Y-110675000D03*
D13*
X58020000Y-119325000D03*
X58020000Y-110675000D03*
D12*
X57650000Y-115425000D03*
X57650000Y-117975000D03*
X57650000Y-117125000D03*
X57650000Y-116275000D03*
X57650000Y-112025000D03*
X57650000Y-113725000D03*
X57650000Y-114575000D03*
X57650000Y-112875000D03*
X59000000Y-117975000D03*
X59000000Y-117125000D03*
X59000000Y-116275000D03*
X59000000Y-115425000D03*
X59000000Y-114575000D03*
X59000000Y-113725000D03*
X59000000Y-112875000D03*
X59000000Y-112025000D03*
D11*
X71170000Y-117430000D03*
X69870000Y-117430000D03*
D10*
X80000000Y-127000000D03*
X80000000Y-103000000D03*
X53000000Y-103000000D03*
M02*
