G04 #@! TF.GenerationSoftware,KiCad,Pcbnew,(5.1.8-0-10_14)*
G04 #@! TF.CreationDate,2021-07-17T16:22:24+09:00*
G04 #@! TF.ProjectId,ft2232_jtag_tap,66743232-3332-45f6-9a74-61675f746170,rev?*
G04 #@! TF.SameCoordinates,Original*
G04 #@! TF.FileFunction,Legend,Bot*
G04 #@! TF.FilePolarity,Positive*
%FSLAX46Y46*%
G04 Gerber Fmt 4.6, Leading zero omitted, Abs format (unit mm)*
G04 Created by KiCad (PCBNEW (5.1.8-0-10_14)) date 2021-07-17 16:22:24*
%MOMM*%
%LPD*%
G01*
G04 APERTURE LIST*
%ADD10C,0.150000*%
%ADD11C,0.120000*%
G04 APERTURE END LIST*
D10*
X143360714Y-163990476D02*
X144217857Y-163990476D01*
X144313095Y-163942857D01*
X144360714Y-163847619D01*
X144360714Y-163800000D01*
X143027380Y-163990476D02*
X143075000Y-163942857D01*
X143122619Y-163990476D01*
X143075000Y-164038095D01*
X143027380Y-163990476D01*
X143122619Y-163990476D01*
X143360714Y-164323809D02*
X143360714Y-164704761D01*
X143027380Y-164466666D02*
X143884523Y-164466666D01*
X143979761Y-164514285D01*
X144027380Y-164609523D01*
X144027380Y-164704761D01*
X144027380Y-165466666D02*
X143503571Y-165466666D01*
X143408333Y-165419047D01*
X143360714Y-165323809D01*
X143360714Y-165133333D01*
X143408333Y-165038095D01*
X143979761Y-165466666D02*
X144027380Y-165371428D01*
X144027380Y-165133333D01*
X143979761Y-165038095D01*
X143884523Y-164990476D01*
X143789285Y-164990476D01*
X143694047Y-165038095D01*
X143646428Y-165133333D01*
X143646428Y-165371428D01*
X143598809Y-165466666D01*
X143360714Y-166371428D02*
X144170238Y-166371428D01*
X144265476Y-166323809D01*
X144313095Y-166276190D01*
X144360714Y-166180952D01*
X144360714Y-166038095D01*
X144313095Y-165942857D01*
X143979761Y-166371428D02*
X144027380Y-166276190D01*
X144027380Y-166085714D01*
X143979761Y-165990476D01*
X143932142Y-165942857D01*
X143836904Y-165895238D01*
X143551190Y-165895238D01*
X143455952Y-165942857D01*
X143408333Y-165990476D01*
X143360714Y-166085714D01*
X143360714Y-166276190D01*
X143408333Y-166371428D01*
X144027380Y-168038095D02*
X143503571Y-168038095D01*
X143408333Y-167990476D01*
X143360714Y-167895238D01*
X143360714Y-167704761D01*
X143408333Y-167609523D01*
X143979761Y-168038095D02*
X144027380Y-167942857D01*
X144027380Y-167704761D01*
X143979761Y-167609523D01*
X143884523Y-167561904D01*
X143789285Y-167561904D01*
X143694047Y-167609523D01*
X143646428Y-167704761D01*
X143646428Y-167942857D01*
X143598809Y-168038095D01*
X144027380Y-168942857D02*
X143027380Y-168942857D01*
X143979761Y-168942857D02*
X144027380Y-168847619D01*
X144027380Y-168657142D01*
X143979761Y-168561904D01*
X143932142Y-168514285D01*
X143836904Y-168466666D01*
X143551190Y-168466666D01*
X143455952Y-168514285D01*
X143408333Y-168561904D01*
X143360714Y-168657142D01*
X143360714Y-168847619D01*
X143408333Y-168942857D01*
X144027380Y-169847619D02*
X143503571Y-169847619D01*
X143408333Y-169800000D01*
X143360714Y-169704761D01*
X143360714Y-169514285D01*
X143408333Y-169419047D01*
X143979761Y-169847619D02*
X144027380Y-169752380D01*
X144027380Y-169514285D01*
X143979761Y-169419047D01*
X143884523Y-169371428D01*
X143789285Y-169371428D01*
X143694047Y-169419047D01*
X143646428Y-169514285D01*
X143646428Y-169752380D01*
X143598809Y-169847619D01*
X143360714Y-170323809D02*
X144360714Y-170323809D01*
X143408333Y-170323809D02*
X143360714Y-170419047D01*
X143360714Y-170609523D01*
X143408333Y-170704761D01*
X143455952Y-170752380D01*
X143551190Y-170800000D01*
X143836904Y-170800000D01*
X143932142Y-170752380D01*
X143979761Y-170704761D01*
X144027380Y-170609523D01*
X144027380Y-170419047D01*
X143979761Y-170323809D01*
X143360714Y-171085714D02*
X143360714Y-171466666D01*
X143027380Y-171228571D02*
X143884523Y-171228571D01*
X143979761Y-171276190D01*
X144027380Y-171371428D01*
X144027380Y-171466666D01*
X143979761Y-172180952D02*
X144027380Y-172085714D01*
X144027380Y-171895238D01*
X143979761Y-171800000D01*
X143884523Y-171752380D01*
X143503571Y-171752380D01*
X143408333Y-171800000D01*
X143360714Y-171895238D01*
X143360714Y-172085714D01*
X143408333Y-172180952D01*
X143503571Y-172228571D01*
X143598809Y-172228571D01*
X143694047Y-171752380D01*
X144027380Y-172657142D02*
X143360714Y-172657142D01*
X143551190Y-172657142D02*
X143455952Y-172704761D01*
X143408333Y-172752380D01*
X143360714Y-172847619D01*
X143360714Y-172942857D01*
X143360714Y-173942857D02*
X144027380Y-174180952D01*
X143360714Y-174419047D01*
X143027380Y-174990476D02*
X143027380Y-175085714D01*
X143075000Y-175180952D01*
X143122619Y-175228571D01*
X143217857Y-175276190D01*
X143408333Y-175323809D01*
X143646428Y-175323809D01*
X143836904Y-175276190D01*
X143932142Y-175228571D01*
X143979761Y-175180952D01*
X144027380Y-175085714D01*
X144027380Y-174990476D01*
X143979761Y-174895238D01*
X143932142Y-174847619D01*
X143836904Y-174800000D01*
X143646428Y-174752380D01*
X143408333Y-174752380D01*
X143217857Y-174800000D01*
X143122619Y-174847619D01*
X143075000Y-174895238D01*
X143027380Y-174990476D01*
X143932142Y-175752380D02*
X143979761Y-175800000D01*
X144027380Y-175752380D01*
X143979761Y-175704761D01*
X143932142Y-175752380D01*
X144027380Y-175752380D01*
X143122619Y-176180952D02*
X143075000Y-176228571D01*
X143027380Y-176323809D01*
X143027380Y-176561904D01*
X143075000Y-176657142D01*
X143122619Y-176704761D01*
X143217857Y-176752380D01*
X143313095Y-176752380D01*
X143455952Y-176704761D01*
X144027380Y-176133333D01*
X144027380Y-176752380D01*
X144408333Y-177466666D02*
X144360714Y-177419047D01*
X144217857Y-177323809D01*
X144122619Y-177276190D01*
X143979761Y-177228571D01*
X143741666Y-177180952D01*
X143551190Y-177180952D01*
X143313095Y-177228571D01*
X143170238Y-177276190D01*
X143075000Y-177323809D01*
X142932142Y-177419047D01*
X142884523Y-177466666D01*
X143122619Y-177800000D02*
X143075000Y-177847619D01*
X143027380Y-177942857D01*
X143027380Y-178180952D01*
X143075000Y-178276190D01*
X143122619Y-178323809D01*
X143217857Y-178371428D01*
X143313095Y-178371428D01*
X143455952Y-178323809D01*
X144027380Y-177752380D01*
X144027380Y-178371428D01*
X143027380Y-178990476D02*
X143027380Y-179085714D01*
X143075000Y-179180952D01*
X143122619Y-179228571D01*
X143217857Y-179276190D01*
X143408333Y-179323809D01*
X143646428Y-179323809D01*
X143836904Y-179276190D01*
X143932142Y-179228571D01*
X143979761Y-179180952D01*
X144027380Y-179085714D01*
X144027380Y-178990476D01*
X143979761Y-178895238D01*
X143932142Y-178847619D01*
X143836904Y-178800000D01*
X143646428Y-178752380D01*
X143408333Y-178752380D01*
X143217857Y-178800000D01*
X143122619Y-178847619D01*
X143075000Y-178895238D01*
X143027380Y-178990476D01*
X143122619Y-179704761D02*
X143075000Y-179752380D01*
X143027380Y-179847619D01*
X143027380Y-180085714D01*
X143075000Y-180180952D01*
X143122619Y-180228571D01*
X143217857Y-180276190D01*
X143313095Y-180276190D01*
X143455952Y-180228571D01*
X144027380Y-179657142D01*
X144027380Y-180276190D01*
X144027380Y-181228571D02*
X144027380Y-180657142D01*
X144027380Y-180942857D02*
X143027380Y-180942857D01*
X143170238Y-180847619D01*
X143265476Y-180752380D01*
X143313095Y-180657142D01*
X143932142Y-181657142D02*
X143979761Y-181704761D01*
X144027380Y-181657142D01*
X143979761Y-181609523D01*
X143932142Y-181657142D01*
X144027380Y-181657142D01*
X143027380Y-182323809D02*
X143027380Y-182419047D01*
X143075000Y-182514285D01*
X143122619Y-182561904D01*
X143217857Y-182609523D01*
X143408333Y-182657142D01*
X143646428Y-182657142D01*
X143836904Y-182609523D01*
X143932142Y-182561904D01*
X143979761Y-182514285D01*
X144027380Y-182419047D01*
X144027380Y-182323809D01*
X143979761Y-182228571D01*
X143932142Y-182180952D01*
X143836904Y-182133333D01*
X143646428Y-182085714D01*
X143408333Y-182085714D01*
X143217857Y-182133333D01*
X143122619Y-182180952D01*
X143075000Y-182228571D01*
X143027380Y-182323809D01*
X143027380Y-182990476D02*
X143027380Y-183657142D01*
X144027380Y-183228571D01*
X143932142Y-184038095D02*
X143979761Y-184085714D01*
X144027380Y-184038095D01*
X143979761Y-183990476D01*
X143932142Y-184038095D01*
X144027380Y-184038095D01*
X144027380Y-185038095D02*
X144027380Y-184466666D01*
X144027380Y-184752380D02*
X143027380Y-184752380D01*
X143170238Y-184657142D01*
X143265476Y-184561904D01*
X143313095Y-184466666D01*
X143027380Y-185371428D02*
X143027380Y-186038095D01*
X144027380Y-185609523D01*
X144408333Y-186323809D02*
X144360714Y-186371428D01*
X144217857Y-186466666D01*
X144122619Y-186514285D01*
X143979761Y-186561904D01*
X143741666Y-186609523D01*
X143551190Y-186609523D01*
X143313095Y-186561904D01*
X143170238Y-186514285D01*
X143075000Y-186466666D01*
X142932142Y-186371428D01*
X142884523Y-186323809D01*
X145201190Y-171633333D02*
X145153571Y-171585714D01*
X145105952Y-171490476D01*
X145105952Y-171395238D01*
X145153571Y-171300000D01*
X145201190Y-171252380D01*
X145296428Y-171204761D01*
X145391666Y-171204761D01*
X145486904Y-171252380D01*
X145534523Y-171300000D01*
X145582142Y-171395238D01*
X145582142Y-171490476D01*
X145534523Y-171585714D01*
X145486904Y-171633333D01*
X145105952Y-171633333D02*
X145486904Y-171633333D01*
X145534523Y-171680952D01*
X145534523Y-171728571D01*
X145486904Y-171823809D01*
X145391666Y-171871428D01*
X145153571Y-171871428D01*
X145010714Y-171776190D01*
X144915476Y-171633333D01*
X144867857Y-171442857D01*
X144915476Y-171252380D01*
X145010714Y-171109523D01*
X145153571Y-171014285D01*
X145344047Y-170966666D01*
X145534523Y-171014285D01*
X145677380Y-171109523D01*
X145772619Y-171252380D01*
X145820238Y-171442857D01*
X145772619Y-171633333D01*
X145677380Y-171776190D01*
X145010714Y-172157142D02*
X145010714Y-172538095D01*
X144677380Y-172300000D02*
X145534523Y-172300000D01*
X145629761Y-172347619D01*
X145677380Y-172442857D01*
X145677380Y-172538095D01*
X145010714Y-172871428D02*
X145677380Y-172871428D01*
X145105952Y-172871428D02*
X145058333Y-172919047D01*
X145010714Y-173014285D01*
X145010714Y-173157142D01*
X145058333Y-173252380D01*
X145153571Y-173300000D01*
X145677380Y-173300000D01*
X145677380Y-173776190D02*
X145010714Y-173776190D01*
X144677380Y-173776190D02*
X144725000Y-173728571D01*
X144772619Y-173776190D01*
X144725000Y-173823809D01*
X144677380Y-173776190D01*
X144772619Y-173776190D01*
X145629761Y-174204761D02*
X145677380Y-174300000D01*
X145677380Y-174490476D01*
X145629761Y-174585714D01*
X145534523Y-174633333D01*
X145486904Y-174633333D01*
X145391666Y-174585714D01*
X145344047Y-174490476D01*
X145344047Y-174347619D01*
X145296428Y-174252380D01*
X145201190Y-174204761D01*
X145153571Y-174204761D01*
X145058333Y-174252380D01*
X145010714Y-174347619D01*
X145010714Y-174490476D01*
X145058333Y-174585714D01*
X145677380Y-175061904D02*
X144677380Y-175061904D01*
X145677380Y-175490476D02*
X145153571Y-175490476D01*
X145058333Y-175442857D01*
X145010714Y-175347619D01*
X145010714Y-175204761D01*
X145058333Y-175109523D01*
X145105952Y-175061904D01*
X145677380Y-175966666D02*
X145010714Y-175966666D01*
X144677380Y-175966666D02*
X144725000Y-175919047D01*
X144772619Y-175966666D01*
X144725000Y-176014285D01*
X144677380Y-175966666D01*
X144772619Y-175966666D01*
X145010714Y-176442857D02*
X145677380Y-176442857D01*
X145105952Y-176442857D02*
X145058333Y-176490476D01*
X145010714Y-176585714D01*
X145010714Y-176728571D01*
X145058333Y-176823809D01*
X145153571Y-176871428D01*
X145677380Y-176871428D01*
X145677380Y-177776190D02*
X145153571Y-177776190D01*
X145058333Y-177728571D01*
X145010714Y-177633333D01*
X145010714Y-177442857D01*
X145058333Y-177347619D01*
X145629761Y-177776190D02*
X145677380Y-177680952D01*
X145677380Y-177442857D01*
X145629761Y-177347619D01*
X145534523Y-177300000D01*
X145439285Y-177300000D01*
X145344047Y-177347619D01*
X145296428Y-177442857D01*
X145296428Y-177680952D01*
X145248809Y-177776190D01*
X145010714Y-178680952D02*
X145820238Y-178680952D01*
X145915476Y-178633333D01*
X145963095Y-178585714D01*
X146010714Y-178490476D01*
X146010714Y-178347619D01*
X145963095Y-178252380D01*
X145629761Y-178680952D02*
X145677380Y-178585714D01*
X145677380Y-178395238D01*
X145629761Y-178300000D01*
X145582142Y-178252380D01*
X145486904Y-178204761D01*
X145201190Y-178204761D01*
X145105952Y-178252380D01*
X145058333Y-178300000D01*
X145010714Y-178395238D01*
X145010714Y-178585714D01*
X145058333Y-178680952D01*
X145677380Y-179585714D02*
X145153571Y-179585714D01*
X145058333Y-179538095D01*
X145010714Y-179442857D01*
X145010714Y-179252380D01*
X145058333Y-179157142D01*
X145629761Y-179585714D02*
X145677380Y-179490476D01*
X145677380Y-179252380D01*
X145629761Y-179157142D01*
X145534523Y-179109523D01*
X145439285Y-179109523D01*
X145344047Y-179157142D01*
X145296428Y-179252380D01*
X145296428Y-179490476D01*
X145248809Y-179585714D01*
X93360714Y-163990476D02*
X94217857Y-163990476D01*
X94313095Y-163942857D01*
X94360714Y-163847619D01*
X94360714Y-163800000D01*
X93027380Y-163990476D02*
X93075000Y-163942857D01*
X93122619Y-163990476D01*
X93075000Y-164038095D01*
X93027380Y-163990476D01*
X93122619Y-163990476D01*
X93360714Y-164323809D02*
X93360714Y-164704761D01*
X93027380Y-164466666D02*
X93884523Y-164466666D01*
X93979761Y-164514285D01*
X94027380Y-164609523D01*
X94027380Y-164704761D01*
X94027380Y-165466666D02*
X93503571Y-165466666D01*
X93408333Y-165419047D01*
X93360714Y-165323809D01*
X93360714Y-165133333D01*
X93408333Y-165038095D01*
X93979761Y-165466666D02*
X94027380Y-165371428D01*
X94027380Y-165133333D01*
X93979761Y-165038095D01*
X93884523Y-164990476D01*
X93789285Y-164990476D01*
X93694047Y-165038095D01*
X93646428Y-165133333D01*
X93646428Y-165371428D01*
X93598809Y-165466666D01*
X93360714Y-166371428D02*
X94170238Y-166371428D01*
X94265476Y-166323809D01*
X94313095Y-166276190D01*
X94360714Y-166180952D01*
X94360714Y-166038095D01*
X94313095Y-165942857D01*
X93979761Y-166371428D02*
X94027380Y-166276190D01*
X94027380Y-166085714D01*
X93979761Y-165990476D01*
X93932142Y-165942857D01*
X93836904Y-165895238D01*
X93551190Y-165895238D01*
X93455952Y-165942857D01*
X93408333Y-165990476D01*
X93360714Y-166085714D01*
X93360714Y-166276190D01*
X93408333Y-166371428D01*
X94027380Y-168038095D02*
X93503571Y-168038095D01*
X93408333Y-167990476D01*
X93360714Y-167895238D01*
X93360714Y-167704761D01*
X93408333Y-167609523D01*
X93979761Y-168038095D02*
X94027380Y-167942857D01*
X94027380Y-167704761D01*
X93979761Y-167609523D01*
X93884523Y-167561904D01*
X93789285Y-167561904D01*
X93694047Y-167609523D01*
X93646428Y-167704761D01*
X93646428Y-167942857D01*
X93598809Y-168038095D01*
X94027380Y-168942857D02*
X93027380Y-168942857D01*
X93979761Y-168942857D02*
X94027380Y-168847619D01*
X94027380Y-168657142D01*
X93979761Y-168561904D01*
X93932142Y-168514285D01*
X93836904Y-168466666D01*
X93551190Y-168466666D01*
X93455952Y-168514285D01*
X93408333Y-168561904D01*
X93360714Y-168657142D01*
X93360714Y-168847619D01*
X93408333Y-168942857D01*
X94027380Y-169847619D02*
X93503571Y-169847619D01*
X93408333Y-169800000D01*
X93360714Y-169704761D01*
X93360714Y-169514285D01*
X93408333Y-169419047D01*
X93979761Y-169847619D02*
X94027380Y-169752380D01*
X94027380Y-169514285D01*
X93979761Y-169419047D01*
X93884523Y-169371428D01*
X93789285Y-169371428D01*
X93694047Y-169419047D01*
X93646428Y-169514285D01*
X93646428Y-169752380D01*
X93598809Y-169847619D01*
X93360714Y-170323809D02*
X94360714Y-170323809D01*
X93408333Y-170323809D02*
X93360714Y-170419047D01*
X93360714Y-170609523D01*
X93408333Y-170704761D01*
X93455952Y-170752380D01*
X93551190Y-170800000D01*
X93836904Y-170800000D01*
X93932142Y-170752380D01*
X93979761Y-170704761D01*
X94027380Y-170609523D01*
X94027380Y-170419047D01*
X93979761Y-170323809D01*
X93360714Y-171085714D02*
X93360714Y-171466666D01*
X93027380Y-171228571D02*
X93884523Y-171228571D01*
X93979761Y-171276190D01*
X94027380Y-171371428D01*
X94027380Y-171466666D01*
X93979761Y-172180952D02*
X94027380Y-172085714D01*
X94027380Y-171895238D01*
X93979761Y-171800000D01*
X93884523Y-171752380D01*
X93503571Y-171752380D01*
X93408333Y-171800000D01*
X93360714Y-171895238D01*
X93360714Y-172085714D01*
X93408333Y-172180952D01*
X93503571Y-172228571D01*
X93598809Y-172228571D01*
X93694047Y-171752380D01*
X94027380Y-172657142D02*
X93360714Y-172657142D01*
X93551190Y-172657142D02*
X93455952Y-172704761D01*
X93408333Y-172752380D01*
X93360714Y-172847619D01*
X93360714Y-172942857D01*
X93360714Y-173942857D02*
X94027380Y-174180952D01*
X93360714Y-174419047D01*
X93027380Y-174990476D02*
X93027380Y-175085714D01*
X93075000Y-175180952D01*
X93122619Y-175228571D01*
X93217857Y-175276190D01*
X93408333Y-175323809D01*
X93646428Y-175323809D01*
X93836904Y-175276190D01*
X93932142Y-175228571D01*
X93979761Y-175180952D01*
X94027380Y-175085714D01*
X94027380Y-174990476D01*
X93979761Y-174895238D01*
X93932142Y-174847619D01*
X93836904Y-174800000D01*
X93646428Y-174752380D01*
X93408333Y-174752380D01*
X93217857Y-174800000D01*
X93122619Y-174847619D01*
X93075000Y-174895238D01*
X93027380Y-174990476D01*
X93932142Y-175752380D02*
X93979761Y-175800000D01*
X94027380Y-175752380D01*
X93979761Y-175704761D01*
X93932142Y-175752380D01*
X94027380Y-175752380D01*
X93122619Y-176180952D02*
X93075000Y-176228571D01*
X93027380Y-176323809D01*
X93027380Y-176561904D01*
X93075000Y-176657142D01*
X93122619Y-176704761D01*
X93217857Y-176752380D01*
X93313095Y-176752380D01*
X93455952Y-176704761D01*
X94027380Y-176133333D01*
X94027380Y-176752380D01*
X94408333Y-177466666D02*
X94360714Y-177419047D01*
X94217857Y-177323809D01*
X94122619Y-177276190D01*
X93979761Y-177228571D01*
X93741666Y-177180952D01*
X93551190Y-177180952D01*
X93313095Y-177228571D01*
X93170238Y-177276190D01*
X93075000Y-177323809D01*
X92932142Y-177419047D01*
X92884523Y-177466666D01*
X93122619Y-177800000D02*
X93075000Y-177847619D01*
X93027380Y-177942857D01*
X93027380Y-178180952D01*
X93075000Y-178276190D01*
X93122619Y-178323809D01*
X93217857Y-178371428D01*
X93313095Y-178371428D01*
X93455952Y-178323809D01*
X94027380Y-177752380D01*
X94027380Y-178371428D01*
X93027380Y-178990476D02*
X93027380Y-179085714D01*
X93075000Y-179180952D01*
X93122619Y-179228571D01*
X93217857Y-179276190D01*
X93408333Y-179323809D01*
X93646428Y-179323809D01*
X93836904Y-179276190D01*
X93932142Y-179228571D01*
X93979761Y-179180952D01*
X94027380Y-179085714D01*
X94027380Y-178990476D01*
X93979761Y-178895238D01*
X93932142Y-178847619D01*
X93836904Y-178800000D01*
X93646428Y-178752380D01*
X93408333Y-178752380D01*
X93217857Y-178800000D01*
X93122619Y-178847619D01*
X93075000Y-178895238D01*
X93027380Y-178990476D01*
X93122619Y-179704761D02*
X93075000Y-179752380D01*
X93027380Y-179847619D01*
X93027380Y-180085714D01*
X93075000Y-180180952D01*
X93122619Y-180228571D01*
X93217857Y-180276190D01*
X93313095Y-180276190D01*
X93455952Y-180228571D01*
X94027380Y-179657142D01*
X94027380Y-180276190D01*
X94027380Y-181228571D02*
X94027380Y-180657142D01*
X94027380Y-180942857D02*
X93027380Y-180942857D01*
X93170238Y-180847619D01*
X93265476Y-180752380D01*
X93313095Y-180657142D01*
X93932142Y-181657142D02*
X93979761Y-181704761D01*
X94027380Y-181657142D01*
X93979761Y-181609523D01*
X93932142Y-181657142D01*
X94027380Y-181657142D01*
X93027380Y-182323809D02*
X93027380Y-182419047D01*
X93075000Y-182514285D01*
X93122619Y-182561904D01*
X93217857Y-182609523D01*
X93408333Y-182657142D01*
X93646428Y-182657142D01*
X93836904Y-182609523D01*
X93932142Y-182561904D01*
X93979761Y-182514285D01*
X94027380Y-182419047D01*
X94027380Y-182323809D01*
X93979761Y-182228571D01*
X93932142Y-182180952D01*
X93836904Y-182133333D01*
X93646428Y-182085714D01*
X93408333Y-182085714D01*
X93217857Y-182133333D01*
X93122619Y-182180952D01*
X93075000Y-182228571D01*
X93027380Y-182323809D01*
X93027380Y-182990476D02*
X93027380Y-183657142D01*
X94027380Y-183228571D01*
X93932142Y-184038095D02*
X93979761Y-184085714D01*
X94027380Y-184038095D01*
X93979761Y-183990476D01*
X93932142Y-184038095D01*
X94027380Y-184038095D01*
X94027380Y-185038095D02*
X94027380Y-184466666D01*
X94027380Y-184752380D02*
X93027380Y-184752380D01*
X93170238Y-184657142D01*
X93265476Y-184561904D01*
X93313095Y-184466666D01*
X93027380Y-185371428D02*
X93027380Y-186038095D01*
X94027380Y-185609523D01*
X94408333Y-186323809D02*
X94360714Y-186371428D01*
X94217857Y-186466666D01*
X94122619Y-186514285D01*
X93979761Y-186561904D01*
X93741666Y-186609523D01*
X93551190Y-186609523D01*
X93313095Y-186561904D01*
X93170238Y-186514285D01*
X93075000Y-186466666D01*
X92932142Y-186371428D01*
X92884523Y-186323809D01*
X95201190Y-171633333D02*
X95153571Y-171585714D01*
X95105952Y-171490476D01*
X95105952Y-171395238D01*
X95153571Y-171300000D01*
X95201190Y-171252380D01*
X95296428Y-171204761D01*
X95391666Y-171204761D01*
X95486904Y-171252380D01*
X95534523Y-171300000D01*
X95582142Y-171395238D01*
X95582142Y-171490476D01*
X95534523Y-171585714D01*
X95486904Y-171633333D01*
X95105952Y-171633333D02*
X95486904Y-171633333D01*
X95534523Y-171680952D01*
X95534523Y-171728571D01*
X95486904Y-171823809D01*
X95391666Y-171871428D01*
X95153571Y-171871428D01*
X95010714Y-171776190D01*
X94915476Y-171633333D01*
X94867857Y-171442857D01*
X94915476Y-171252380D01*
X95010714Y-171109523D01*
X95153571Y-171014285D01*
X95344047Y-170966666D01*
X95534523Y-171014285D01*
X95677380Y-171109523D01*
X95772619Y-171252380D01*
X95820238Y-171442857D01*
X95772619Y-171633333D01*
X95677380Y-171776190D01*
X95010714Y-172157142D02*
X95010714Y-172538095D01*
X94677380Y-172300000D02*
X95534523Y-172300000D01*
X95629761Y-172347619D01*
X95677380Y-172442857D01*
X95677380Y-172538095D01*
X95010714Y-172871428D02*
X95677380Y-172871428D01*
X95105952Y-172871428D02*
X95058333Y-172919047D01*
X95010714Y-173014285D01*
X95010714Y-173157142D01*
X95058333Y-173252380D01*
X95153571Y-173300000D01*
X95677380Y-173300000D01*
X95677380Y-173776190D02*
X95010714Y-173776190D01*
X94677380Y-173776190D02*
X94725000Y-173728571D01*
X94772619Y-173776190D01*
X94725000Y-173823809D01*
X94677380Y-173776190D01*
X94772619Y-173776190D01*
X95629761Y-174204761D02*
X95677380Y-174300000D01*
X95677380Y-174490476D01*
X95629761Y-174585714D01*
X95534523Y-174633333D01*
X95486904Y-174633333D01*
X95391666Y-174585714D01*
X95344047Y-174490476D01*
X95344047Y-174347619D01*
X95296428Y-174252380D01*
X95201190Y-174204761D01*
X95153571Y-174204761D01*
X95058333Y-174252380D01*
X95010714Y-174347619D01*
X95010714Y-174490476D01*
X95058333Y-174585714D01*
X95677380Y-175061904D02*
X94677380Y-175061904D01*
X95677380Y-175490476D02*
X95153571Y-175490476D01*
X95058333Y-175442857D01*
X95010714Y-175347619D01*
X95010714Y-175204761D01*
X95058333Y-175109523D01*
X95105952Y-175061904D01*
X95677380Y-175966666D02*
X95010714Y-175966666D01*
X94677380Y-175966666D02*
X94725000Y-175919047D01*
X94772619Y-175966666D01*
X94725000Y-176014285D01*
X94677380Y-175966666D01*
X94772619Y-175966666D01*
X95010714Y-176442857D02*
X95677380Y-176442857D01*
X95105952Y-176442857D02*
X95058333Y-176490476D01*
X95010714Y-176585714D01*
X95010714Y-176728571D01*
X95058333Y-176823809D01*
X95153571Y-176871428D01*
X95677380Y-176871428D01*
X95677380Y-177776190D02*
X95153571Y-177776190D01*
X95058333Y-177728571D01*
X95010714Y-177633333D01*
X95010714Y-177442857D01*
X95058333Y-177347619D01*
X95629761Y-177776190D02*
X95677380Y-177680952D01*
X95677380Y-177442857D01*
X95629761Y-177347619D01*
X95534523Y-177300000D01*
X95439285Y-177300000D01*
X95344047Y-177347619D01*
X95296428Y-177442857D01*
X95296428Y-177680952D01*
X95248809Y-177776190D01*
X95010714Y-178680952D02*
X95820238Y-178680952D01*
X95915476Y-178633333D01*
X95963095Y-178585714D01*
X96010714Y-178490476D01*
X96010714Y-178347619D01*
X95963095Y-178252380D01*
X95629761Y-178680952D02*
X95677380Y-178585714D01*
X95677380Y-178395238D01*
X95629761Y-178300000D01*
X95582142Y-178252380D01*
X95486904Y-178204761D01*
X95201190Y-178204761D01*
X95105952Y-178252380D01*
X95058333Y-178300000D01*
X95010714Y-178395238D01*
X95010714Y-178585714D01*
X95058333Y-178680952D01*
X95677380Y-179585714D02*
X95153571Y-179585714D01*
X95058333Y-179538095D01*
X95010714Y-179442857D01*
X95010714Y-179252380D01*
X95058333Y-179157142D01*
X95629761Y-179585714D02*
X95677380Y-179490476D01*
X95677380Y-179252380D01*
X95629761Y-179157142D01*
X95534523Y-179109523D01*
X95439285Y-179109523D01*
X95344047Y-179157142D01*
X95296428Y-179252380D01*
X95296428Y-179490476D01*
X95248809Y-179585714D01*
X143360714Y-133990476D02*
X144217857Y-133990476D01*
X144313095Y-133942857D01*
X144360714Y-133847619D01*
X144360714Y-133800000D01*
X143027380Y-133990476D02*
X143075000Y-133942857D01*
X143122619Y-133990476D01*
X143075000Y-134038095D01*
X143027380Y-133990476D01*
X143122619Y-133990476D01*
X143360714Y-134323809D02*
X143360714Y-134704761D01*
X143027380Y-134466666D02*
X143884523Y-134466666D01*
X143979761Y-134514285D01*
X144027380Y-134609523D01*
X144027380Y-134704761D01*
X144027380Y-135466666D02*
X143503571Y-135466666D01*
X143408333Y-135419047D01*
X143360714Y-135323809D01*
X143360714Y-135133333D01*
X143408333Y-135038095D01*
X143979761Y-135466666D02*
X144027380Y-135371428D01*
X144027380Y-135133333D01*
X143979761Y-135038095D01*
X143884523Y-134990476D01*
X143789285Y-134990476D01*
X143694047Y-135038095D01*
X143646428Y-135133333D01*
X143646428Y-135371428D01*
X143598809Y-135466666D01*
X143360714Y-136371428D02*
X144170238Y-136371428D01*
X144265476Y-136323809D01*
X144313095Y-136276190D01*
X144360714Y-136180952D01*
X144360714Y-136038095D01*
X144313095Y-135942857D01*
X143979761Y-136371428D02*
X144027380Y-136276190D01*
X144027380Y-136085714D01*
X143979761Y-135990476D01*
X143932142Y-135942857D01*
X143836904Y-135895238D01*
X143551190Y-135895238D01*
X143455952Y-135942857D01*
X143408333Y-135990476D01*
X143360714Y-136085714D01*
X143360714Y-136276190D01*
X143408333Y-136371428D01*
X144027380Y-138038095D02*
X143503571Y-138038095D01*
X143408333Y-137990476D01*
X143360714Y-137895238D01*
X143360714Y-137704761D01*
X143408333Y-137609523D01*
X143979761Y-138038095D02*
X144027380Y-137942857D01*
X144027380Y-137704761D01*
X143979761Y-137609523D01*
X143884523Y-137561904D01*
X143789285Y-137561904D01*
X143694047Y-137609523D01*
X143646428Y-137704761D01*
X143646428Y-137942857D01*
X143598809Y-138038095D01*
X144027380Y-138942857D02*
X143027380Y-138942857D01*
X143979761Y-138942857D02*
X144027380Y-138847619D01*
X144027380Y-138657142D01*
X143979761Y-138561904D01*
X143932142Y-138514285D01*
X143836904Y-138466666D01*
X143551190Y-138466666D01*
X143455952Y-138514285D01*
X143408333Y-138561904D01*
X143360714Y-138657142D01*
X143360714Y-138847619D01*
X143408333Y-138942857D01*
X144027380Y-139847619D02*
X143503571Y-139847619D01*
X143408333Y-139800000D01*
X143360714Y-139704761D01*
X143360714Y-139514285D01*
X143408333Y-139419047D01*
X143979761Y-139847619D02*
X144027380Y-139752380D01*
X144027380Y-139514285D01*
X143979761Y-139419047D01*
X143884523Y-139371428D01*
X143789285Y-139371428D01*
X143694047Y-139419047D01*
X143646428Y-139514285D01*
X143646428Y-139752380D01*
X143598809Y-139847619D01*
X143360714Y-140323809D02*
X144360714Y-140323809D01*
X143408333Y-140323809D02*
X143360714Y-140419047D01*
X143360714Y-140609523D01*
X143408333Y-140704761D01*
X143455952Y-140752380D01*
X143551190Y-140800000D01*
X143836904Y-140800000D01*
X143932142Y-140752380D01*
X143979761Y-140704761D01*
X144027380Y-140609523D01*
X144027380Y-140419047D01*
X143979761Y-140323809D01*
X143360714Y-141085714D02*
X143360714Y-141466666D01*
X143027380Y-141228571D02*
X143884523Y-141228571D01*
X143979761Y-141276190D01*
X144027380Y-141371428D01*
X144027380Y-141466666D01*
X143979761Y-142180952D02*
X144027380Y-142085714D01*
X144027380Y-141895238D01*
X143979761Y-141800000D01*
X143884523Y-141752380D01*
X143503571Y-141752380D01*
X143408333Y-141800000D01*
X143360714Y-141895238D01*
X143360714Y-142085714D01*
X143408333Y-142180952D01*
X143503571Y-142228571D01*
X143598809Y-142228571D01*
X143694047Y-141752380D01*
X144027380Y-142657142D02*
X143360714Y-142657142D01*
X143551190Y-142657142D02*
X143455952Y-142704761D01*
X143408333Y-142752380D01*
X143360714Y-142847619D01*
X143360714Y-142942857D01*
X143360714Y-143942857D02*
X144027380Y-144180952D01*
X143360714Y-144419047D01*
X143027380Y-144990476D02*
X143027380Y-145085714D01*
X143075000Y-145180952D01*
X143122619Y-145228571D01*
X143217857Y-145276190D01*
X143408333Y-145323809D01*
X143646428Y-145323809D01*
X143836904Y-145276190D01*
X143932142Y-145228571D01*
X143979761Y-145180952D01*
X144027380Y-145085714D01*
X144027380Y-144990476D01*
X143979761Y-144895238D01*
X143932142Y-144847619D01*
X143836904Y-144800000D01*
X143646428Y-144752380D01*
X143408333Y-144752380D01*
X143217857Y-144800000D01*
X143122619Y-144847619D01*
X143075000Y-144895238D01*
X143027380Y-144990476D01*
X143932142Y-145752380D02*
X143979761Y-145800000D01*
X144027380Y-145752380D01*
X143979761Y-145704761D01*
X143932142Y-145752380D01*
X144027380Y-145752380D01*
X143122619Y-146180952D02*
X143075000Y-146228571D01*
X143027380Y-146323809D01*
X143027380Y-146561904D01*
X143075000Y-146657142D01*
X143122619Y-146704761D01*
X143217857Y-146752380D01*
X143313095Y-146752380D01*
X143455952Y-146704761D01*
X144027380Y-146133333D01*
X144027380Y-146752380D01*
X144408333Y-147466666D02*
X144360714Y-147419047D01*
X144217857Y-147323809D01*
X144122619Y-147276190D01*
X143979761Y-147228571D01*
X143741666Y-147180952D01*
X143551190Y-147180952D01*
X143313095Y-147228571D01*
X143170238Y-147276190D01*
X143075000Y-147323809D01*
X142932142Y-147419047D01*
X142884523Y-147466666D01*
X143122619Y-147800000D02*
X143075000Y-147847619D01*
X143027380Y-147942857D01*
X143027380Y-148180952D01*
X143075000Y-148276190D01*
X143122619Y-148323809D01*
X143217857Y-148371428D01*
X143313095Y-148371428D01*
X143455952Y-148323809D01*
X144027380Y-147752380D01*
X144027380Y-148371428D01*
X143027380Y-148990476D02*
X143027380Y-149085714D01*
X143075000Y-149180952D01*
X143122619Y-149228571D01*
X143217857Y-149276190D01*
X143408333Y-149323809D01*
X143646428Y-149323809D01*
X143836904Y-149276190D01*
X143932142Y-149228571D01*
X143979761Y-149180952D01*
X144027380Y-149085714D01*
X144027380Y-148990476D01*
X143979761Y-148895238D01*
X143932142Y-148847619D01*
X143836904Y-148800000D01*
X143646428Y-148752380D01*
X143408333Y-148752380D01*
X143217857Y-148800000D01*
X143122619Y-148847619D01*
X143075000Y-148895238D01*
X143027380Y-148990476D01*
X143122619Y-149704761D02*
X143075000Y-149752380D01*
X143027380Y-149847619D01*
X143027380Y-150085714D01*
X143075000Y-150180952D01*
X143122619Y-150228571D01*
X143217857Y-150276190D01*
X143313095Y-150276190D01*
X143455952Y-150228571D01*
X144027380Y-149657142D01*
X144027380Y-150276190D01*
X144027380Y-151228571D02*
X144027380Y-150657142D01*
X144027380Y-150942857D02*
X143027380Y-150942857D01*
X143170238Y-150847619D01*
X143265476Y-150752380D01*
X143313095Y-150657142D01*
X143932142Y-151657142D02*
X143979761Y-151704761D01*
X144027380Y-151657142D01*
X143979761Y-151609523D01*
X143932142Y-151657142D01*
X144027380Y-151657142D01*
X143027380Y-152323809D02*
X143027380Y-152419047D01*
X143075000Y-152514285D01*
X143122619Y-152561904D01*
X143217857Y-152609523D01*
X143408333Y-152657142D01*
X143646428Y-152657142D01*
X143836904Y-152609523D01*
X143932142Y-152561904D01*
X143979761Y-152514285D01*
X144027380Y-152419047D01*
X144027380Y-152323809D01*
X143979761Y-152228571D01*
X143932142Y-152180952D01*
X143836904Y-152133333D01*
X143646428Y-152085714D01*
X143408333Y-152085714D01*
X143217857Y-152133333D01*
X143122619Y-152180952D01*
X143075000Y-152228571D01*
X143027380Y-152323809D01*
X143027380Y-152990476D02*
X143027380Y-153657142D01*
X144027380Y-153228571D01*
X143932142Y-154038095D02*
X143979761Y-154085714D01*
X144027380Y-154038095D01*
X143979761Y-153990476D01*
X143932142Y-154038095D01*
X144027380Y-154038095D01*
X144027380Y-155038095D02*
X144027380Y-154466666D01*
X144027380Y-154752380D02*
X143027380Y-154752380D01*
X143170238Y-154657142D01*
X143265476Y-154561904D01*
X143313095Y-154466666D01*
X143027380Y-155371428D02*
X143027380Y-156038095D01*
X144027380Y-155609523D01*
X144408333Y-156323809D02*
X144360714Y-156371428D01*
X144217857Y-156466666D01*
X144122619Y-156514285D01*
X143979761Y-156561904D01*
X143741666Y-156609523D01*
X143551190Y-156609523D01*
X143313095Y-156561904D01*
X143170238Y-156514285D01*
X143075000Y-156466666D01*
X142932142Y-156371428D01*
X142884523Y-156323809D01*
X145201190Y-141633333D02*
X145153571Y-141585714D01*
X145105952Y-141490476D01*
X145105952Y-141395238D01*
X145153571Y-141300000D01*
X145201190Y-141252380D01*
X145296428Y-141204761D01*
X145391666Y-141204761D01*
X145486904Y-141252380D01*
X145534523Y-141300000D01*
X145582142Y-141395238D01*
X145582142Y-141490476D01*
X145534523Y-141585714D01*
X145486904Y-141633333D01*
X145105952Y-141633333D02*
X145486904Y-141633333D01*
X145534523Y-141680952D01*
X145534523Y-141728571D01*
X145486904Y-141823809D01*
X145391666Y-141871428D01*
X145153571Y-141871428D01*
X145010714Y-141776190D01*
X144915476Y-141633333D01*
X144867857Y-141442857D01*
X144915476Y-141252380D01*
X145010714Y-141109523D01*
X145153571Y-141014285D01*
X145344047Y-140966666D01*
X145534523Y-141014285D01*
X145677380Y-141109523D01*
X145772619Y-141252380D01*
X145820238Y-141442857D01*
X145772619Y-141633333D01*
X145677380Y-141776190D01*
X145010714Y-142157142D02*
X145010714Y-142538095D01*
X144677380Y-142300000D02*
X145534523Y-142300000D01*
X145629761Y-142347619D01*
X145677380Y-142442857D01*
X145677380Y-142538095D01*
X145010714Y-142871428D02*
X145677380Y-142871428D01*
X145105952Y-142871428D02*
X145058333Y-142919047D01*
X145010714Y-143014285D01*
X145010714Y-143157142D01*
X145058333Y-143252380D01*
X145153571Y-143300000D01*
X145677380Y-143300000D01*
X145677380Y-143776190D02*
X145010714Y-143776190D01*
X144677380Y-143776190D02*
X144725000Y-143728571D01*
X144772619Y-143776190D01*
X144725000Y-143823809D01*
X144677380Y-143776190D01*
X144772619Y-143776190D01*
X145629761Y-144204761D02*
X145677380Y-144300000D01*
X145677380Y-144490476D01*
X145629761Y-144585714D01*
X145534523Y-144633333D01*
X145486904Y-144633333D01*
X145391666Y-144585714D01*
X145344047Y-144490476D01*
X145344047Y-144347619D01*
X145296428Y-144252380D01*
X145201190Y-144204761D01*
X145153571Y-144204761D01*
X145058333Y-144252380D01*
X145010714Y-144347619D01*
X145010714Y-144490476D01*
X145058333Y-144585714D01*
X145677380Y-145061904D02*
X144677380Y-145061904D01*
X145677380Y-145490476D02*
X145153571Y-145490476D01*
X145058333Y-145442857D01*
X145010714Y-145347619D01*
X145010714Y-145204761D01*
X145058333Y-145109523D01*
X145105952Y-145061904D01*
X145677380Y-145966666D02*
X145010714Y-145966666D01*
X144677380Y-145966666D02*
X144725000Y-145919047D01*
X144772619Y-145966666D01*
X144725000Y-146014285D01*
X144677380Y-145966666D01*
X144772619Y-145966666D01*
X145010714Y-146442857D02*
X145677380Y-146442857D01*
X145105952Y-146442857D02*
X145058333Y-146490476D01*
X145010714Y-146585714D01*
X145010714Y-146728571D01*
X145058333Y-146823809D01*
X145153571Y-146871428D01*
X145677380Y-146871428D01*
X145677380Y-147776190D02*
X145153571Y-147776190D01*
X145058333Y-147728571D01*
X145010714Y-147633333D01*
X145010714Y-147442857D01*
X145058333Y-147347619D01*
X145629761Y-147776190D02*
X145677380Y-147680952D01*
X145677380Y-147442857D01*
X145629761Y-147347619D01*
X145534523Y-147300000D01*
X145439285Y-147300000D01*
X145344047Y-147347619D01*
X145296428Y-147442857D01*
X145296428Y-147680952D01*
X145248809Y-147776190D01*
X145010714Y-148680952D02*
X145820238Y-148680952D01*
X145915476Y-148633333D01*
X145963095Y-148585714D01*
X146010714Y-148490476D01*
X146010714Y-148347619D01*
X145963095Y-148252380D01*
X145629761Y-148680952D02*
X145677380Y-148585714D01*
X145677380Y-148395238D01*
X145629761Y-148300000D01*
X145582142Y-148252380D01*
X145486904Y-148204761D01*
X145201190Y-148204761D01*
X145105952Y-148252380D01*
X145058333Y-148300000D01*
X145010714Y-148395238D01*
X145010714Y-148585714D01*
X145058333Y-148680952D01*
X145677380Y-149585714D02*
X145153571Y-149585714D01*
X145058333Y-149538095D01*
X145010714Y-149442857D01*
X145010714Y-149252380D01*
X145058333Y-149157142D01*
X145629761Y-149585714D02*
X145677380Y-149490476D01*
X145677380Y-149252380D01*
X145629761Y-149157142D01*
X145534523Y-149109523D01*
X145439285Y-149109523D01*
X145344047Y-149157142D01*
X145296428Y-149252380D01*
X145296428Y-149490476D01*
X145248809Y-149585714D01*
X93360714Y-133990476D02*
X94217857Y-133990476D01*
X94313095Y-133942857D01*
X94360714Y-133847619D01*
X94360714Y-133800000D01*
X93027380Y-133990476D02*
X93075000Y-133942857D01*
X93122619Y-133990476D01*
X93075000Y-134038095D01*
X93027380Y-133990476D01*
X93122619Y-133990476D01*
X93360714Y-134323809D02*
X93360714Y-134704761D01*
X93027380Y-134466666D02*
X93884523Y-134466666D01*
X93979761Y-134514285D01*
X94027380Y-134609523D01*
X94027380Y-134704761D01*
X94027380Y-135466666D02*
X93503571Y-135466666D01*
X93408333Y-135419047D01*
X93360714Y-135323809D01*
X93360714Y-135133333D01*
X93408333Y-135038095D01*
X93979761Y-135466666D02*
X94027380Y-135371428D01*
X94027380Y-135133333D01*
X93979761Y-135038095D01*
X93884523Y-134990476D01*
X93789285Y-134990476D01*
X93694047Y-135038095D01*
X93646428Y-135133333D01*
X93646428Y-135371428D01*
X93598809Y-135466666D01*
X93360714Y-136371428D02*
X94170238Y-136371428D01*
X94265476Y-136323809D01*
X94313095Y-136276190D01*
X94360714Y-136180952D01*
X94360714Y-136038095D01*
X94313095Y-135942857D01*
X93979761Y-136371428D02*
X94027380Y-136276190D01*
X94027380Y-136085714D01*
X93979761Y-135990476D01*
X93932142Y-135942857D01*
X93836904Y-135895238D01*
X93551190Y-135895238D01*
X93455952Y-135942857D01*
X93408333Y-135990476D01*
X93360714Y-136085714D01*
X93360714Y-136276190D01*
X93408333Y-136371428D01*
X94027380Y-138038095D02*
X93503571Y-138038095D01*
X93408333Y-137990476D01*
X93360714Y-137895238D01*
X93360714Y-137704761D01*
X93408333Y-137609523D01*
X93979761Y-138038095D02*
X94027380Y-137942857D01*
X94027380Y-137704761D01*
X93979761Y-137609523D01*
X93884523Y-137561904D01*
X93789285Y-137561904D01*
X93694047Y-137609523D01*
X93646428Y-137704761D01*
X93646428Y-137942857D01*
X93598809Y-138038095D01*
X94027380Y-138942857D02*
X93027380Y-138942857D01*
X93979761Y-138942857D02*
X94027380Y-138847619D01*
X94027380Y-138657142D01*
X93979761Y-138561904D01*
X93932142Y-138514285D01*
X93836904Y-138466666D01*
X93551190Y-138466666D01*
X93455952Y-138514285D01*
X93408333Y-138561904D01*
X93360714Y-138657142D01*
X93360714Y-138847619D01*
X93408333Y-138942857D01*
X94027380Y-139847619D02*
X93503571Y-139847619D01*
X93408333Y-139800000D01*
X93360714Y-139704761D01*
X93360714Y-139514285D01*
X93408333Y-139419047D01*
X93979761Y-139847619D02*
X94027380Y-139752380D01*
X94027380Y-139514285D01*
X93979761Y-139419047D01*
X93884523Y-139371428D01*
X93789285Y-139371428D01*
X93694047Y-139419047D01*
X93646428Y-139514285D01*
X93646428Y-139752380D01*
X93598809Y-139847619D01*
X93360714Y-140323809D02*
X94360714Y-140323809D01*
X93408333Y-140323809D02*
X93360714Y-140419047D01*
X93360714Y-140609523D01*
X93408333Y-140704761D01*
X93455952Y-140752380D01*
X93551190Y-140800000D01*
X93836904Y-140800000D01*
X93932142Y-140752380D01*
X93979761Y-140704761D01*
X94027380Y-140609523D01*
X94027380Y-140419047D01*
X93979761Y-140323809D01*
X93360714Y-141085714D02*
X93360714Y-141466666D01*
X93027380Y-141228571D02*
X93884523Y-141228571D01*
X93979761Y-141276190D01*
X94027380Y-141371428D01*
X94027380Y-141466666D01*
X93979761Y-142180952D02*
X94027380Y-142085714D01*
X94027380Y-141895238D01*
X93979761Y-141800000D01*
X93884523Y-141752380D01*
X93503571Y-141752380D01*
X93408333Y-141800000D01*
X93360714Y-141895238D01*
X93360714Y-142085714D01*
X93408333Y-142180952D01*
X93503571Y-142228571D01*
X93598809Y-142228571D01*
X93694047Y-141752380D01*
X94027380Y-142657142D02*
X93360714Y-142657142D01*
X93551190Y-142657142D02*
X93455952Y-142704761D01*
X93408333Y-142752380D01*
X93360714Y-142847619D01*
X93360714Y-142942857D01*
X93360714Y-143942857D02*
X94027380Y-144180952D01*
X93360714Y-144419047D01*
X93027380Y-144990476D02*
X93027380Y-145085714D01*
X93075000Y-145180952D01*
X93122619Y-145228571D01*
X93217857Y-145276190D01*
X93408333Y-145323809D01*
X93646428Y-145323809D01*
X93836904Y-145276190D01*
X93932142Y-145228571D01*
X93979761Y-145180952D01*
X94027380Y-145085714D01*
X94027380Y-144990476D01*
X93979761Y-144895238D01*
X93932142Y-144847619D01*
X93836904Y-144800000D01*
X93646428Y-144752380D01*
X93408333Y-144752380D01*
X93217857Y-144800000D01*
X93122619Y-144847619D01*
X93075000Y-144895238D01*
X93027380Y-144990476D01*
X93932142Y-145752380D02*
X93979761Y-145800000D01*
X94027380Y-145752380D01*
X93979761Y-145704761D01*
X93932142Y-145752380D01*
X94027380Y-145752380D01*
X93122619Y-146180952D02*
X93075000Y-146228571D01*
X93027380Y-146323809D01*
X93027380Y-146561904D01*
X93075000Y-146657142D01*
X93122619Y-146704761D01*
X93217857Y-146752380D01*
X93313095Y-146752380D01*
X93455952Y-146704761D01*
X94027380Y-146133333D01*
X94027380Y-146752380D01*
X94408333Y-147466666D02*
X94360714Y-147419047D01*
X94217857Y-147323809D01*
X94122619Y-147276190D01*
X93979761Y-147228571D01*
X93741666Y-147180952D01*
X93551190Y-147180952D01*
X93313095Y-147228571D01*
X93170238Y-147276190D01*
X93075000Y-147323809D01*
X92932142Y-147419047D01*
X92884523Y-147466666D01*
X93122619Y-147800000D02*
X93075000Y-147847619D01*
X93027380Y-147942857D01*
X93027380Y-148180952D01*
X93075000Y-148276190D01*
X93122619Y-148323809D01*
X93217857Y-148371428D01*
X93313095Y-148371428D01*
X93455952Y-148323809D01*
X94027380Y-147752380D01*
X94027380Y-148371428D01*
X93027380Y-148990476D02*
X93027380Y-149085714D01*
X93075000Y-149180952D01*
X93122619Y-149228571D01*
X93217857Y-149276190D01*
X93408333Y-149323809D01*
X93646428Y-149323809D01*
X93836904Y-149276190D01*
X93932142Y-149228571D01*
X93979761Y-149180952D01*
X94027380Y-149085714D01*
X94027380Y-148990476D01*
X93979761Y-148895238D01*
X93932142Y-148847619D01*
X93836904Y-148800000D01*
X93646428Y-148752380D01*
X93408333Y-148752380D01*
X93217857Y-148800000D01*
X93122619Y-148847619D01*
X93075000Y-148895238D01*
X93027380Y-148990476D01*
X93122619Y-149704761D02*
X93075000Y-149752380D01*
X93027380Y-149847619D01*
X93027380Y-150085714D01*
X93075000Y-150180952D01*
X93122619Y-150228571D01*
X93217857Y-150276190D01*
X93313095Y-150276190D01*
X93455952Y-150228571D01*
X94027380Y-149657142D01*
X94027380Y-150276190D01*
X94027380Y-151228571D02*
X94027380Y-150657142D01*
X94027380Y-150942857D02*
X93027380Y-150942857D01*
X93170238Y-150847619D01*
X93265476Y-150752380D01*
X93313095Y-150657142D01*
X93932142Y-151657142D02*
X93979761Y-151704761D01*
X94027380Y-151657142D01*
X93979761Y-151609523D01*
X93932142Y-151657142D01*
X94027380Y-151657142D01*
X93027380Y-152323809D02*
X93027380Y-152419047D01*
X93075000Y-152514285D01*
X93122619Y-152561904D01*
X93217857Y-152609523D01*
X93408333Y-152657142D01*
X93646428Y-152657142D01*
X93836904Y-152609523D01*
X93932142Y-152561904D01*
X93979761Y-152514285D01*
X94027380Y-152419047D01*
X94027380Y-152323809D01*
X93979761Y-152228571D01*
X93932142Y-152180952D01*
X93836904Y-152133333D01*
X93646428Y-152085714D01*
X93408333Y-152085714D01*
X93217857Y-152133333D01*
X93122619Y-152180952D01*
X93075000Y-152228571D01*
X93027380Y-152323809D01*
X93027380Y-152990476D02*
X93027380Y-153657142D01*
X94027380Y-153228571D01*
X93932142Y-154038095D02*
X93979761Y-154085714D01*
X94027380Y-154038095D01*
X93979761Y-153990476D01*
X93932142Y-154038095D01*
X94027380Y-154038095D01*
X94027380Y-155038095D02*
X94027380Y-154466666D01*
X94027380Y-154752380D02*
X93027380Y-154752380D01*
X93170238Y-154657142D01*
X93265476Y-154561904D01*
X93313095Y-154466666D01*
X93027380Y-155371428D02*
X93027380Y-156038095D01*
X94027380Y-155609523D01*
X94408333Y-156323809D02*
X94360714Y-156371428D01*
X94217857Y-156466666D01*
X94122619Y-156514285D01*
X93979761Y-156561904D01*
X93741666Y-156609523D01*
X93551190Y-156609523D01*
X93313095Y-156561904D01*
X93170238Y-156514285D01*
X93075000Y-156466666D01*
X92932142Y-156371428D01*
X92884523Y-156323809D01*
X95201190Y-141633333D02*
X95153571Y-141585714D01*
X95105952Y-141490476D01*
X95105952Y-141395238D01*
X95153571Y-141300000D01*
X95201190Y-141252380D01*
X95296428Y-141204761D01*
X95391666Y-141204761D01*
X95486904Y-141252380D01*
X95534523Y-141300000D01*
X95582142Y-141395238D01*
X95582142Y-141490476D01*
X95534523Y-141585714D01*
X95486904Y-141633333D01*
X95105952Y-141633333D02*
X95486904Y-141633333D01*
X95534523Y-141680952D01*
X95534523Y-141728571D01*
X95486904Y-141823809D01*
X95391666Y-141871428D01*
X95153571Y-141871428D01*
X95010714Y-141776190D01*
X94915476Y-141633333D01*
X94867857Y-141442857D01*
X94915476Y-141252380D01*
X95010714Y-141109523D01*
X95153571Y-141014285D01*
X95344047Y-140966666D01*
X95534523Y-141014285D01*
X95677380Y-141109523D01*
X95772619Y-141252380D01*
X95820238Y-141442857D01*
X95772619Y-141633333D01*
X95677380Y-141776190D01*
X95010714Y-142157142D02*
X95010714Y-142538095D01*
X94677380Y-142300000D02*
X95534523Y-142300000D01*
X95629761Y-142347619D01*
X95677380Y-142442857D01*
X95677380Y-142538095D01*
X95010714Y-142871428D02*
X95677380Y-142871428D01*
X95105952Y-142871428D02*
X95058333Y-142919047D01*
X95010714Y-143014285D01*
X95010714Y-143157142D01*
X95058333Y-143252380D01*
X95153571Y-143300000D01*
X95677380Y-143300000D01*
X95677380Y-143776190D02*
X95010714Y-143776190D01*
X94677380Y-143776190D02*
X94725000Y-143728571D01*
X94772619Y-143776190D01*
X94725000Y-143823809D01*
X94677380Y-143776190D01*
X94772619Y-143776190D01*
X95629761Y-144204761D02*
X95677380Y-144300000D01*
X95677380Y-144490476D01*
X95629761Y-144585714D01*
X95534523Y-144633333D01*
X95486904Y-144633333D01*
X95391666Y-144585714D01*
X95344047Y-144490476D01*
X95344047Y-144347619D01*
X95296428Y-144252380D01*
X95201190Y-144204761D01*
X95153571Y-144204761D01*
X95058333Y-144252380D01*
X95010714Y-144347619D01*
X95010714Y-144490476D01*
X95058333Y-144585714D01*
X95677380Y-145061904D02*
X94677380Y-145061904D01*
X95677380Y-145490476D02*
X95153571Y-145490476D01*
X95058333Y-145442857D01*
X95010714Y-145347619D01*
X95010714Y-145204761D01*
X95058333Y-145109523D01*
X95105952Y-145061904D01*
X95677380Y-145966666D02*
X95010714Y-145966666D01*
X94677380Y-145966666D02*
X94725000Y-145919047D01*
X94772619Y-145966666D01*
X94725000Y-146014285D01*
X94677380Y-145966666D01*
X94772619Y-145966666D01*
X95010714Y-146442857D02*
X95677380Y-146442857D01*
X95105952Y-146442857D02*
X95058333Y-146490476D01*
X95010714Y-146585714D01*
X95010714Y-146728571D01*
X95058333Y-146823809D01*
X95153571Y-146871428D01*
X95677380Y-146871428D01*
X95677380Y-147776190D02*
X95153571Y-147776190D01*
X95058333Y-147728571D01*
X95010714Y-147633333D01*
X95010714Y-147442857D01*
X95058333Y-147347619D01*
X95629761Y-147776190D02*
X95677380Y-147680952D01*
X95677380Y-147442857D01*
X95629761Y-147347619D01*
X95534523Y-147300000D01*
X95439285Y-147300000D01*
X95344047Y-147347619D01*
X95296428Y-147442857D01*
X95296428Y-147680952D01*
X95248809Y-147776190D01*
X95010714Y-148680952D02*
X95820238Y-148680952D01*
X95915476Y-148633333D01*
X95963095Y-148585714D01*
X96010714Y-148490476D01*
X96010714Y-148347619D01*
X95963095Y-148252380D01*
X95629761Y-148680952D02*
X95677380Y-148585714D01*
X95677380Y-148395238D01*
X95629761Y-148300000D01*
X95582142Y-148252380D01*
X95486904Y-148204761D01*
X95201190Y-148204761D01*
X95105952Y-148252380D01*
X95058333Y-148300000D01*
X95010714Y-148395238D01*
X95010714Y-148585714D01*
X95058333Y-148680952D01*
X95677380Y-149585714D02*
X95153571Y-149585714D01*
X95058333Y-149538095D01*
X95010714Y-149442857D01*
X95010714Y-149252380D01*
X95058333Y-149157142D01*
X95629761Y-149585714D02*
X95677380Y-149490476D01*
X95677380Y-149252380D01*
X95629761Y-149157142D01*
X95534523Y-149109523D01*
X95439285Y-149109523D01*
X95344047Y-149157142D01*
X95296428Y-149252380D01*
X95296428Y-149490476D01*
X95248809Y-149585714D01*
X143360714Y-103990476D02*
X144217857Y-103990476D01*
X144313095Y-103942857D01*
X144360714Y-103847619D01*
X144360714Y-103800000D01*
X143027380Y-103990476D02*
X143075000Y-103942857D01*
X143122619Y-103990476D01*
X143075000Y-104038095D01*
X143027380Y-103990476D01*
X143122619Y-103990476D01*
X143360714Y-104323809D02*
X143360714Y-104704761D01*
X143027380Y-104466666D02*
X143884523Y-104466666D01*
X143979761Y-104514285D01*
X144027380Y-104609523D01*
X144027380Y-104704761D01*
X144027380Y-105466666D02*
X143503571Y-105466666D01*
X143408333Y-105419047D01*
X143360714Y-105323809D01*
X143360714Y-105133333D01*
X143408333Y-105038095D01*
X143979761Y-105466666D02*
X144027380Y-105371428D01*
X144027380Y-105133333D01*
X143979761Y-105038095D01*
X143884523Y-104990476D01*
X143789285Y-104990476D01*
X143694047Y-105038095D01*
X143646428Y-105133333D01*
X143646428Y-105371428D01*
X143598809Y-105466666D01*
X143360714Y-106371428D02*
X144170238Y-106371428D01*
X144265476Y-106323809D01*
X144313095Y-106276190D01*
X144360714Y-106180952D01*
X144360714Y-106038095D01*
X144313095Y-105942857D01*
X143979761Y-106371428D02*
X144027380Y-106276190D01*
X144027380Y-106085714D01*
X143979761Y-105990476D01*
X143932142Y-105942857D01*
X143836904Y-105895238D01*
X143551190Y-105895238D01*
X143455952Y-105942857D01*
X143408333Y-105990476D01*
X143360714Y-106085714D01*
X143360714Y-106276190D01*
X143408333Y-106371428D01*
X144027380Y-108038095D02*
X143503571Y-108038095D01*
X143408333Y-107990476D01*
X143360714Y-107895238D01*
X143360714Y-107704761D01*
X143408333Y-107609523D01*
X143979761Y-108038095D02*
X144027380Y-107942857D01*
X144027380Y-107704761D01*
X143979761Y-107609523D01*
X143884523Y-107561904D01*
X143789285Y-107561904D01*
X143694047Y-107609523D01*
X143646428Y-107704761D01*
X143646428Y-107942857D01*
X143598809Y-108038095D01*
X144027380Y-108942857D02*
X143027380Y-108942857D01*
X143979761Y-108942857D02*
X144027380Y-108847619D01*
X144027380Y-108657142D01*
X143979761Y-108561904D01*
X143932142Y-108514285D01*
X143836904Y-108466666D01*
X143551190Y-108466666D01*
X143455952Y-108514285D01*
X143408333Y-108561904D01*
X143360714Y-108657142D01*
X143360714Y-108847619D01*
X143408333Y-108942857D01*
X144027380Y-109847619D02*
X143503571Y-109847619D01*
X143408333Y-109800000D01*
X143360714Y-109704761D01*
X143360714Y-109514285D01*
X143408333Y-109419047D01*
X143979761Y-109847619D02*
X144027380Y-109752380D01*
X144027380Y-109514285D01*
X143979761Y-109419047D01*
X143884523Y-109371428D01*
X143789285Y-109371428D01*
X143694047Y-109419047D01*
X143646428Y-109514285D01*
X143646428Y-109752380D01*
X143598809Y-109847619D01*
X143360714Y-110323809D02*
X144360714Y-110323809D01*
X143408333Y-110323809D02*
X143360714Y-110419047D01*
X143360714Y-110609523D01*
X143408333Y-110704761D01*
X143455952Y-110752380D01*
X143551190Y-110800000D01*
X143836904Y-110800000D01*
X143932142Y-110752380D01*
X143979761Y-110704761D01*
X144027380Y-110609523D01*
X144027380Y-110419047D01*
X143979761Y-110323809D01*
X143360714Y-111085714D02*
X143360714Y-111466666D01*
X143027380Y-111228571D02*
X143884523Y-111228571D01*
X143979761Y-111276190D01*
X144027380Y-111371428D01*
X144027380Y-111466666D01*
X143979761Y-112180952D02*
X144027380Y-112085714D01*
X144027380Y-111895238D01*
X143979761Y-111800000D01*
X143884523Y-111752380D01*
X143503571Y-111752380D01*
X143408333Y-111800000D01*
X143360714Y-111895238D01*
X143360714Y-112085714D01*
X143408333Y-112180952D01*
X143503571Y-112228571D01*
X143598809Y-112228571D01*
X143694047Y-111752380D01*
X144027380Y-112657142D02*
X143360714Y-112657142D01*
X143551190Y-112657142D02*
X143455952Y-112704761D01*
X143408333Y-112752380D01*
X143360714Y-112847619D01*
X143360714Y-112942857D01*
X143360714Y-113942857D02*
X144027380Y-114180952D01*
X143360714Y-114419047D01*
X143027380Y-114990476D02*
X143027380Y-115085714D01*
X143075000Y-115180952D01*
X143122619Y-115228571D01*
X143217857Y-115276190D01*
X143408333Y-115323809D01*
X143646428Y-115323809D01*
X143836904Y-115276190D01*
X143932142Y-115228571D01*
X143979761Y-115180952D01*
X144027380Y-115085714D01*
X144027380Y-114990476D01*
X143979761Y-114895238D01*
X143932142Y-114847619D01*
X143836904Y-114800000D01*
X143646428Y-114752380D01*
X143408333Y-114752380D01*
X143217857Y-114800000D01*
X143122619Y-114847619D01*
X143075000Y-114895238D01*
X143027380Y-114990476D01*
X143932142Y-115752380D02*
X143979761Y-115800000D01*
X144027380Y-115752380D01*
X143979761Y-115704761D01*
X143932142Y-115752380D01*
X144027380Y-115752380D01*
X143122619Y-116180952D02*
X143075000Y-116228571D01*
X143027380Y-116323809D01*
X143027380Y-116561904D01*
X143075000Y-116657142D01*
X143122619Y-116704761D01*
X143217857Y-116752380D01*
X143313095Y-116752380D01*
X143455952Y-116704761D01*
X144027380Y-116133333D01*
X144027380Y-116752380D01*
X144408333Y-117466666D02*
X144360714Y-117419047D01*
X144217857Y-117323809D01*
X144122619Y-117276190D01*
X143979761Y-117228571D01*
X143741666Y-117180952D01*
X143551190Y-117180952D01*
X143313095Y-117228571D01*
X143170238Y-117276190D01*
X143075000Y-117323809D01*
X142932142Y-117419047D01*
X142884523Y-117466666D01*
X143122619Y-117800000D02*
X143075000Y-117847619D01*
X143027380Y-117942857D01*
X143027380Y-118180952D01*
X143075000Y-118276190D01*
X143122619Y-118323809D01*
X143217857Y-118371428D01*
X143313095Y-118371428D01*
X143455952Y-118323809D01*
X144027380Y-117752380D01*
X144027380Y-118371428D01*
X143027380Y-118990476D02*
X143027380Y-119085714D01*
X143075000Y-119180952D01*
X143122619Y-119228571D01*
X143217857Y-119276190D01*
X143408333Y-119323809D01*
X143646428Y-119323809D01*
X143836904Y-119276190D01*
X143932142Y-119228571D01*
X143979761Y-119180952D01*
X144027380Y-119085714D01*
X144027380Y-118990476D01*
X143979761Y-118895238D01*
X143932142Y-118847619D01*
X143836904Y-118800000D01*
X143646428Y-118752380D01*
X143408333Y-118752380D01*
X143217857Y-118800000D01*
X143122619Y-118847619D01*
X143075000Y-118895238D01*
X143027380Y-118990476D01*
X143122619Y-119704761D02*
X143075000Y-119752380D01*
X143027380Y-119847619D01*
X143027380Y-120085714D01*
X143075000Y-120180952D01*
X143122619Y-120228571D01*
X143217857Y-120276190D01*
X143313095Y-120276190D01*
X143455952Y-120228571D01*
X144027380Y-119657142D01*
X144027380Y-120276190D01*
X144027380Y-121228571D02*
X144027380Y-120657142D01*
X144027380Y-120942857D02*
X143027380Y-120942857D01*
X143170238Y-120847619D01*
X143265476Y-120752380D01*
X143313095Y-120657142D01*
X143932142Y-121657142D02*
X143979761Y-121704761D01*
X144027380Y-121657142D01*
X143979761Y-121609523D01*
X143932142Y-121657142D01*
X144027380Y-121657142D01*
X143027380Y-122323809D02*
X143027380Y-122419047D01*
X143075000Y-122514285D01*
X143122619Y-122561904D01*
X143217857Y-122609523D01*
X143408333Y-122657142D01*
X143646428Y-122657142D01*
X143836904Y-122609523D01*
X143932142Y-122561904D01*
X143979761Y-122514285D01*
X144027380Y-122419047D01*
X144027380Y-122323809D01*
X143979761Y-122228571D01*
X143932142Y-122180952D01*
X143836904Y-122133333D01*
X143646428Y-122085714D01*
X143408333Y-122085714D01*
X143217857Y-122133333D01*
X143122619Y-122180952D01*
X143075000Y-122228571D01*
X143027380Y-122323809D01*
X143027380Y-122990476D02*
X143027380Y-123657142D01*
X144027380Y-123228571D01*
X143932142Y-124038095D02*
X143979761Y-124085714D01*
X144027380Y-124038095D01*
X143979761Y-123990476D01*
X143932142Y-124038095D01*
X144027380Y-124038095D01*
X144027380Y-125038095D02*
X144027380Y-124466666D01*
X144027380Y-124752380D02*
X143027380Y-124752380D01*
X143170238Y-124657142D01*
X143265476Y-124561904D01*
X143313095Y-124466666D01*
X143027380Y-125371428D02*
X143027380Y-126038095D01*
X144027380Y-125609523D01*
X144408333Y-126323809D02*
X144360714Y-126371428D01*
X144217857Y-126466666D01*
X144122619Y-126514285D01*
X143979761Y-126561904D01*
X143741666Y-126609523D01*
X143551190Y-126609523D01*
X143313095Y-126561904D01*
X143170238Y-126514285D01*
X143075000Y-126466666D01*
X142932142Y-126371428D01*
X142884523Y-126323809D01*
X145201190Y-111633333D02*
X145153571Y-111585714D01*
X145105952Y-111490476D01*
X145105952Y-111395238D01*
X145153571Y-111300000D01*
X145201190Y-111252380D01*
X145296428Y-111204761D01*
X145391666Y-111204761D01*
X145486904Y-111252380D01*
X145534523Y-111300000D01*
X145582142Y-111395238D01*
X145582142Y-111490476D01*
X145534523Y-111585714D01*
X145486904Y-111633333D01*
X145105952Y-111633333D02*
X145486904Y-111633333D01*
X145534523Y-111680952D01*
X145534523Y-111728571D01*
X145486904Y-111823809D01*
X145391666Y-111871428D01*
X145153571Y-111871428D01*
X145010714Y-111776190D01*
X144915476Y-111633333D01*
X144867857Y-111442857D01*
X144915476Y-111252380D01*
X145010714Y-111109523D01*
X145153571Y-111014285D01*
X145344047Y-110966666D01*
X145534523Y-111014285D01*
X145677380Y-111109523D01*
X145772619Y-111252380D01*
X145820238Y-111442857D01*
X145772619Y-111633333D01*
X145677380Y-111776190D01*
X145010714Y-112157142D02*
X145010714Y-112538095D01*
X144677380Y-112300000D02*
X145534523Y-112300000D01*
X145629761Y-112347619D01*
X145677380Y-112442857D01*
X145677380Y-112538095D01*
X145010714Y-112871428D02*
X145677380Y-112871428D01*
X145105952Y-112871428D02*
X145058333Y-112919047D01*
X145010714Y-113014285D01*
X145010714Y-113157142D01*
X145058333Y-113252380D01*
X145153571Y-113300000D01*
X145677380Y-113300000D01*
X145677380Y-113776190D02*
X145010714Y-113776190D01*
X144677380Y-113776190D02*
X144725000Y-113728571D01*
X144772619Y-113776190D01*
X144725000Y-113823809D01*
X144677380Y-113776190D01*
X144772619Y-113776190D01*
X145629761Y-114204761D02*
X145677380Y-114300000D01*
X145677380Y-114490476D01*
X145629761Y-114585714D01*
X145534523Y-114633333D01*
X145486904Y-114633333D01*
X145391666Y-114585714D01*
X145344047Y-114490476D01*
X145344047Y-114347619D01*
X145296428Y-114252380D01*
X145201190Y-114204761D01*
X145153571Y-114204761D01*
X145058333Y-114252380D01*
X145010714Y-114347619D01*
X145010714Y-114490476D01*
X145058333Y-114585714D01*
X145677380Y-115061904D02*
X144677380Y-115061904D01*
X145677380Y-115490476D02*
X145153571Y-115490476D01*
X145058333Y-115442857D01*
X145010714Y-115347619D01*
X145010714Y-115204761D01*
X145058333Y-115109523D01*
X145105952Y-115061904D01*
X145677380Y-115966666D02*
X145010714Y-115966666D01*
X144677380Y-115966666D02*
X144725000Y-115919047D01*
X144772619Y-115966666D01*
X144725000Y-116014285D01*
X144677380Y-115966666D01*
X144772619Y-115966666D01*
X145010714Y-116442857D02*
X145677380Y-116442857D01*
X145105952Y-116442857D02*
X145058333Y-116490476D01*
X145010714Y-116585714D01*
X145010714Y-116728571D01*
X145058333Y-116823809D01*
X145153571Y-116871428D01*
X145677380Y-116871428D01*
X145677380Y-117776190D02*
X145153571Y-117776190D01*
X145058333Y-117728571D01*
X145010714Y-117633333D01*
X145010714Y-117442857D01*
X145058333Y-117347619D01*
X145629761Y-117776190D02*
X145677380Y-117680952D01*
X145677380Y-117442857D01*
X145629761Y-117347619D01*
X145534523Y-117300000D01*
X145439285Y-117300000D01*
X145344047Y-117347619D01*
X145296428Y-117442857D01*
X145296428Y-117680952D01*
X145248809Y-117776190D01*
X145010714Y-118680952D02*
X145820238Y-118680952D01*
X145915476Y-118633333D01*
X145963095Y-118585714D01*
X146010714Y-118490476D01*
X146010714Y-118347619D01*
X145963095Y-118252380D01*
X145629761Y-118680952D02*
X145677380Y-118585714D01*
X145677380Y-118395238D01*
X145629761Y-118300000D01*
X145582142Y-118252380D01*
X145486904Y-118204761D01*
X145201190Y-118204761D01*
X145105952Y-118252380D01*
X145058333Y-118300000D01*
X145010714Y-118395238D01*
X145010714Y-118585714D01*
X145058333Y-118680952D01*
X145677380Y-119585714D02*
X145153571Y-119585714D01*
X145058333Y-119538095D01*
X145010714Y-119442857D01*
X145010714Y-119252380D01*
X145058333Y-119157142D01*
X145629761Y-119585714D02*
X145677380Y-119490476D01*
X145677380Y-119252380D01*
X145629761Y-119157142D01*
X145534523Y-119109523D01*
X145439285Y-119109523D01*
X145344047Y-119157142D01*
X145296428Y-119252380D01*
X145296428Y-119490476D01*
X145248809Y-119585714D01*
X93360714Y-103990476D02*
X94217857Y-103990476D01*
X94313095Y-103942857D01*
X94360714Y-103847619D01*
X94360714Y-103800000D01*
X93027380Y-103990476D02*
X93075000Y-103942857D01*
X93122619Y-103990476D01*
X93075000Y-104038095D01*
X93027380Y-103990476D01*
X93122619Y-103990476D01*
X93360714Y-104323809D02*
X93360714Y-104704761D01*
X93027380Y-104466666D02*
X93884523Y-104466666D01*
X93979761Y-104514285D01*
X94027380Y-104609523D01*
X94027380Y-104704761D01*
X94027380Y-105466666D02*
X93503571Y-105466666D01*
X93408333Y-105419047D01*
X93360714Y-105323809D01*
X93360714Y-105133333D01*
X93408333Y-105038095D01*
X93979761Y-105466666D02*
X94027380Y-105371428D01*
X94027380Y-105133333D01*
X93979761Y-105038095D01*
X93884523Y-104990476D01*
X93789285Y-104990476D01*
X93694047Y-105038095D01*
X93646428Y-105133333D01*
X93646428Y-105371428D01*
X93598809Y-105466666D01*
X93360714Y-106371428D02*
X94170238Y-106371428D01*
X94265476Y-106323809D01*
X94313095Y-106276190D01*
X94360714Y-106180952D01*
X94360714Y-106038095D01*
X94313095Y-105942857D01*
X93979761Y-106371428D02*
X94027380Y-106276190D01*
X94027380Y-106085714D01*
X93979761Y-105990476D01*
X93932142Y-105942857D01*
X93836904Y-105895238D01*
X93551190Y-105895238D01*
X93455952Y-105942857D01*
X93408333Y-105990476D01*
X93360714Y-106085714D01*
X93360714Y-106276190D01*
X93408333Y-106371428D01*
X94027380Y-108038095D02*
X93503571Y-108038095D01*
X93408333Y-107990476D01*
X93360714Y-107895238D01*
X93360714Y-107704761D01*
X93408333Y-107609523D01*
X93979761Y-108038095D02*
X94027380Y-107942857D01*
X94027380Y-107704761D01*
X93979761Y-107609523D01*
X93884523Y-107561904D01*
X93789285Y-107561904D01*
X93694047Y-107609523D01*
X93646428Y-107704761D01*
X93646428Y-107942857D01*
X93598809Y-108038095D01*
X94027380Y-108942857D02*
X93027380Y-108942857D01*
X93979761Y-108942857D02*
X94027380Y-108847619D01*
X94027380Y-108657142D01*
X93979761Y-108561904D01*
X93932142Y-108514285D01*
X93836904Y-108466666D01*
X93551190Y-108466666D01*
X93455952Y-108514285D01*
X93408333Y-108561904D01*
X93360714Y-108657142D01*
X93360714Y-108847619D01*
X93408333Y-108942857D01*
X94027380Y-109847619D02*
X93503571Y-109847619D01*
X93408333Y-109800000D01*
X93360714Y-109704761D01*
X93360714Y-109514285D01*
X93408333Y-109419047D01*
X93979761Y-109847619D02*
X94027380Y-109752380D01*
X94027380Y-109514285D01*
X93979761Y-109419047D01*
X93884523Y-109371428D01*
X93789285Y-109371428D01*
X93694047Y-109419047D01*
X93646428Y-109514285D01*
X93646428Y-109752380D01*
X93598809Y-109847619D01*
X93360714Y-110323809D02*
X94360714Y-110323809D01*
X93408333Y-110323809D02*
X93360714Y-110419047D01*
X93360714Y-110609523D01*
X93408333Y-110704761D01*
X93455952Y-110752380D01*
X93551190Y-110800000D01*
X93836904Y-110800000D01*
X93932142Y-110752380D01*
X93979761Y-110704761D01*
X94027380Y-110609523D01*
X94027380Y-110419047D01*
X93979761Y-110323809D01*
X93360714Y-111085714D02*
X93360714Y-111466666D01*
X93027380Y-111228571D02*
X93884523Y-111228571D01*
X93979761Y-111276190D01*
X94027380Y-111371428D01*
X94027380Y-111466666D01*
X93979761Y-112180952D02*
X94027380Y-112085714D01*
X94027380Y-111895238D01*
X93979761Y-111800000D01*
X93884523Y-111752380D01*
X93503571Y-111752380D01*
X93408333Y-111800000D01*
X93360714Y-111895238D01*
X93360714Y-112085714D01*
X93408333Y-112180952D01*
X93503571Y-112228571D01*
X93598809Y-112228571D01*
X93694047Y-111752380D01*
X94027380Y-112657142D02*
X93360714Y-112657142D01*
X93551190Y-112657142D02*
X93455952Y-112704761D01*
X93408333Y-112752380D01*
X93360714Y-112847619D01*
X93360714Y-112942857D01*
X93360714Y-113942857D02*
X94027380Y-114180952D01*
X93360714Y-114419047D01*
X93027380Y-114990476D02*
X93027380Y-115085714D01*
X93075000Y-115180952D01*
X93122619Y-115228571D01*
X93217857Y-115276190D01*
X93408333Y-115323809D01*
X93646428Y-115323809D01*
X93836904Y-115276190D01*
X93932142Y-115228571D01*
X93979761Y-115180952D01*
X94027380Y-115085714D01*
X94027380Y-114990476D01*
X93979761Y-114895238D01*
X93932142Y-114847619D01*
X93836904Y-114799999D01*
X93646428Y-114752380D01*
X93408333Y-114752380D01*
X93217857Y-114799999D01*
X93122619Y-114847619D01*
X93075000Y-114895238D01*
X93027380Y-114990476D01*
X93932142Y-115752380D02*
X93979761Y-115799999D01*
X94027380Y-115752380D01*
X93979761Y-115704761D01*
X93932142Y-115752380D01*
X94027380Y-115752380D01*
X93122619Y-116180952D02*
X93075000Y-116228571D01*
X93027380Y-116323809D01*
X93027380Y-116561904D01*
X93075000Y-116657142D01*
X93122619Y-116704761D01*
X93217857Y-116752380D01*
X93313095Y-116752380D01*
X93455952Y-116704761D01*
X94027380Y-116133333D01*
X94027380Y-116752380D01*
X94408333Y-117466666D02*
X94360714Y-117419047D01*
X94217857Y-117323809D01*
X94122619Y-117276190D01*
X93979761Y-117228571D01*
X93741666Y-117180952D01*
X93551190Y-117180952D01*
X93313095Y-117228571D01*
X93170238Y-117276190D01*
X93075000Y-117323809D01*
X92932142Y-117419047D01*
X92884523Y-117466666D01*
X93122619Y-117799999D02*
X93075000Y-117847619D01*
X93027380Y-117942857D01*
X93027380Y-118180952D01*
X93075000Y-118276190D01*
X93122619Y-118323809D01*
X93217857Y-118371428D01*
X93313095Y-118371428D01*
X93455952Y-118323809D01*
X94027380Y-117752380D01*
X94027380Y-118371428D01*
X93027380Y-118990476D02*
X93027380Y-119085714D01*
X93075000Y-119180952D01*
X93122619Y-119228571D01*
X93217857Y-119276190D01*
X93408333Y-119323809D01*
X93646428Y-119323809D01*
X93836904Y-119276190D01*
X93932142Y-119228571D01*
X93979761Y-119180952D01*
X94027380Y-119085714D01*
X94027380Y-118990476D01*
X93979761Y-118895238D01*
X93932142Y-118847619D01*
X93836904Y-118799999D01*
X93646428Y-118752380D01*
X93408333Y-118752380D01*
X93217857Y-118799999D01*
X93122619Y-118847619D01*
X93075000Y-118895238D01*
X93027380Y-118990476D01*
X93122619Y-119704761D02*
X93075000Y-119752380D01*
X93027380Y-119847619D01*
X93027380Y-120085714D01*
X93075000Y-120180952D01*
X93122619Y-120228571D01*
X93217857Y-120276190D01*
X93313095Y-120276190D01*
X93455952Y-120228571D01*
X94027380Y-119657142D01*
X94027380Y-120276190D01*
X94027380Y-121228571D02*
X94027380Y-120657142D01*
X94027380Y-120942857D02*
X93027380Y-120942857D01*
X93170238Y-120847619D01*
X93265476Y-120752380D01*
X93313095Y-120657142D01*
X93932142Y-121657142D02*
X93979761Y-121704761D01*
X94027380Y-121657142D01*
X93979761Y-121609523D01*
X93932142Y-121657142D01*
X94027380Y-121657142D01*
X93027380Y-122323809D02*
X93027380Y-122419047D01*
X93075000Y-122514285D01*
X93122619Y-122561904D01*
X93217857Y-122609523D01*
X93408333Y-122657142D01*
X93646428Y-122657142D01*
X93836904Y-122609523D01*
X93932142Y-122561904D01*
X93979761Y-122514285D01*
X94027380Y-122419047D01*
X94027380Y-122323809D01*
X93979761Y-122228571D01*
X93932142Y-122180952D01*
X93836904Y-122133333D01*
X93646428Y-122085714D01*
X93408333Y-122085714D01*
X93217857Y-122133333D01*
X93122619Y-122180952D01*
X93075000Y-122228571D01*
X93027380Y-122323809D01*
X93027380Y-122990476D02*
X93027380Y-123657142D01*
X94027380Y-123228571D01*
X93932142Y-124038095D02*
X93979761Y-124085714D01*
X94027380Y-124038095D01*
X93979761Y-123990476D01*
X93932142Y-124038095D01*
X94027380Y-124038095D01*
X94027380Y-125038095D02*
X94027380Y-124466666D01*
X94027380Y-124752380D02*
X93027380Y-124752380D01*
X93170238Y-124657142D01*
X93265476Y-124561904D01*
X93313095Y-124466666D01*
X93027380Y-125371428D02*
X93027380Y-126038095D01*
X94027380Y-125609523D01*
X94408333Y-126323809D02*
X94360714Y-126371428D01*
X94217857Y-126466666D01*
X94122619Y-126514285D01*
X93979761Y-126561904D01*
X93741666Y-126609523D01*
X93551190Y-126609523D01*
X93313095Y-126561904D01*
X93170238Y-126514285D01*
X93075000Y-126466666D01*
X92932142Y-126371428D01*
X92884523Y-126323809D01*
X95201190Y-111633333D02*
X95153571Y-111585714D01*
X95105952Y-111490476D01*
X95105952Y-111395238D01*
X95153571Y-111300000D01*
X95201190Y-111252380D01*
X95296428Y-111204761D01*
X95391666Y-111204761D01*
X95486904Y-111252380D01*
X95534523Y-111300000D01*
X95582142Y-111395238D01*
X95582142Y-111490476D01*
X95534523Y-111585714D01*
X95486904Y-111633333D01*
X95105952Y-111633333D02*
X95486904Y-111633333D01*
X95534523Y-111680952D01*
X95534523Y-111728571D01*
X95486904Y-111823809D01*
X95391666Y-111871428D01*
X95153571Y-111871428D01*
X95010714Y-111776190D01*
X94915476Y-111633333D01*
X94867857Y-111442857D01*
X94915476Y-111252380D01*
X95010714Y-111109523D01*
X95153571Y-111014285D01*
X95344047Y-110966666D01*
X95534523Y-111014285D01*
X95677380Y-111109523D01*
X95772619Y-111252380D01*
X95820238Y-111442857D01*
X95772619Y-111633333D01*
X95677380Y-111776190D01*
X95010714Y-112157142D02*
X95010714Y-112538095D01*
X94677380Y-112300000D02*
X95534523Y-112300000D01*
X95629761Y-112347619D01*
X95677380Y-112442857D01*
X95677380Y-112538095D01*
X95010714Y-112871428D02*
X95677380Y-112871428D01*
X95105952Y-112871428D02*
X95058333Y-112919047D01*
X95010714Y-113014285D01*
X95010714Y-113157142D01*
X95058333Y-113252380D01*
X95153571Y-113300000D01*
X95677380Y-113300000D01*
X95677380Y-113776190D02*
X95010714Y-113776190D01*
X94677380Y-113776190D02*
X94725000Y-113728571D01*
X94772619Y-113776190D01*
X94725000Y-113823809D01*
X94677380Y-113776190D01*
X94772619Y-113776190D01*
X95629761Y-114204761D02*
X95677380Y-114300000D01*
X95677380Y-114490476D01*
X95629761Y-114585714D01*
X95534523Y-114633333D01*
X95486904Y-114633333D01*
X95391666Y-114585714D01*
X95344047Y-114490476D01*
X95344047Y-114347619D01*
X95296428Y-114252380D01*
X95201190Y-114204761D01*
X95153571Y-114204761D01*
X95058333Y-114252380D01*
X95010714Y-114347619D01*
X95010714Y-114490476D01*
X95058333Y-114585714D01*
X95677380Y-115061904D02*
X94677380Y-115061904D01*
X95677380Y-115490476D02*
X95153571Y-115490476D01*
X95058333Y-115442857D01*
X95010714Y-115347619D01*
X95010714Y-115204761D01*
X95058333Y-115109523D01*
X95105952Y-115061904D01*
X95677380Y-115966666D02*
X95010714Y-115966666D01*
X94677380Y-115966666D02*
X94725000Y-115919047D01*
X94772619Y-115966666D01*
X94725000Y-116014285D01*
X94677380Y-115966666D01*
X94772619Y-115966666D01*
X95010714Y-116442857D02*
X95677380Y-116442857D01*
X95105952Y-116442857D02*
X95058333Y-116490476D01*
X95010714Y-116585714D01*
X95010714Y-116728571D01*
X95058333Y-116823809D01*
X95153571Y-116871428D01*
X95677380Y-116871428D01*
X95677380Y-117776190D02*
X95153571Y-117776190D01*
X95058333Y-117728571D01*
X95010714Y-117633333D01*
X95010714Y-117442857D01*
X95058333Y-117347619D01*
X95629761Y-117776190D02*
X95677380Y-117680952D01*
X95677380Y-117442857D01*
X95629761Y-117347619D01*
X95534523Y-117300000D01*
X95439285Y-117300000D01*
X95344047Y-117347619D01*
X95296428Y-117442857D01*
X95296428Y-117680952D01*
X95248809Y-117776190D01*
X95010714Y-118680952D02*
X95820238Y-118680952D01*
X95915476Y-118633333D01*
X95963095Y-118585714D01*
X96010714Y-118490476D01*
X96010714Y-118347619D01*
X95963095Y-118252380D01*
X95629761Y-118680952D02*
X95677380Y-118585714D01*
X95677380Y-118395238D01*
X95629761Y-118300000D01*
X95582142Y-118252380D01*
X95486904Y-118204761D01*
X95201190Y-118204761D01*
X95105952Y-118252380D01*
X95058333Y-118300000D01*
X95010714Y-118395238D01*
X95010714Y-118585714D01*
X95058333Y-118680952D01*
X95677380Y-119585714D02*
X95153571Y-119585714D01*
X95058333Y-119538095D01*
X95010714Y-119442857D01*
X95010714Y-119252380D01*
X95058333Y-119157142D01*
X95629761Y-119585714D02*
X95677380Y-119490476D01*
X95677380Y-119252380D01*
X95629761Y-119157142D01*
X95534523Y-119109523D01*
X95439285Y-119109523D01*
X95344047Y-119157142D01*
X95296428Y-119252380D01*
X95296428Y-119490476D01*
X95248809Y-119585714D01*
D11*
X119120000Y-178430000D02*
X121920000Y-178430000D01*
X121920000Y-178430000D02*
X121920000Y-176430000D01*
X121920000Y-176430000D02*
X119120000Y-176430000D01*
X119120000Y-176430000D02*
X119120000Y-178430000D01*
X69120000Y-178430000D02*
X71920000Y-178430000D01*
X71920000Y-178430000D02*
X71920000Y-176430000D01*
X71920000Y-176430000D02*
X69120000Y-176430000D01*
X69120000Y-176430000D02*
X69120000Y-178430000D01*
X119120000Y-148430000D02*
X121920000Y-148430000D01*
X121920000Y-148430000D02*
X121920000Y-146430000D01*
X121920000Y-146430000D02*
X119120000Y-146430000D01*
X119120000Y-146430000D02*
X119120000Y-148430000D01*
X69120000Y-148430000D02*
X71920000Y-148430000D01*
X71920000Y-148430000D02*
X71920000Y-146430000D01*
X71920000Y-146430000D02*
X69120000Y-146430000D01*
X69120000Y-146430000D02*
X69120000Y-148430000D01*
X119120000Y-118430000D02*
X121920000Y-118430000D01*
X121920000Y-118430000D02*
X121920000Y-116430000D01*
X121920000Y-116430000D02*
X119120000Y-116430000D01*
X119120000Y-116430000D02*
X119120000Y-118430000D01*
X69120000Y-116430000D02*
X69120000Y-118430000D01*
X71920000Y-116430000D02*
X69120000Y-116430000D01*
X71920000Y-118430000D02*
X71920000Y-116430000D01*
X69120000Y-118430000D02*
X71920000Y-118430000D01*
D10*
X121353333Y-178682380D02*
X121353333Y-179396666D01*
X121400952Y-179539523D01*
X121496190Y-179634761D01*
X121639047Y-179682380D01*
X121734285Y-179682380D01*
X120877142Y-179682380D02*
X120877142Y-178682380D01*
X120496190Y-178682380D01*
X120400952Y-178730000D01*
X120353333Y-178777619D01*
X120305714Y-178872857D01*
X120305714Y-179015714D01*
X120353333Y-179110952D01*
X120400952Y-179158571D01*
X120496190Y-179206190D01*
X120877142Y-179206190D01*
X119353333Y-179682380D02*
X119924761Y-179682380D01*
X119639047Y-179682380D02*
X119639047Y-178682380D01*
X119734285Y-178825238D01*
X119829523Y-178920476D01*
X119924761Y-178968095D01*
X71353333Y-178682380D02*
X71353333Y-179396666D01*
X71400952Y-179539523D01*
X71496190Y-179634761D01*
X71639047Y-179682380D01*
X71734285Y-179682380D01*
X70877142Y-179682380D02*
X70877142Y-178682380D01*
X70496190Y-178682380D01*
X70400952Y-178730000D01*
X70353333Y-178777619D01*
X70305714Y-178872857D01*
X70305714Y-179015714D01*
X70353333Y-179110952D01*
X70400952Y-179158571D01*
X70496190Y-179206190D01*
X70877142Y-179206190D01*
X69353333Y-179682380D02*
X69924761Y-179682380D01*
X69639047Y-179682380D02*
X69639047Y-178682380D01*
X69734285Y-178825238D01*
X69829523Y-178920476D01*
X69924761Y-178968095D01*
X121353333Y-148682380D02*
X121353333Y-149396666D01*
X121400952Y-149539523D01*
X121496190Y-149634761D01*
X121639047Y-149682380D01*
X121734285Y-149682380D01*
X120877142Y-149682380D02*
X120877142Y-148682380D01*
X120496190Y-148682380D01*
X120400952Y-148730000D01*
X120353333Y-148777619D01*
X120305714Y-148872857D01*
X120305714Y-149015714D01*
X120353333Y-149110952D01*
X120400952Y-149158571D01*
X120496190Y-149206190D01*
X120877142Y-149206190D01*
X119353333Y-149682380D02*
X119924761Y-149682380D01*
X119639047Y-149682380D02*
X119639047Y-148682380D01*
X119734285Y-148825238D01*
X119829523Y-148920476D01*
X119924761Y-148968095D01*
X71353333Y-148682380D02*
X71353333Y-149396666D01*
X71400952Y-149539523D01*
X71496190Y-149634761D01*
X71639047Y-149682380D01*
X71734285Y-149682380D01*
X70877142Y-149682380D02*
X70877142Y-148682380D01*
X70496190Y-148682380D01*
X70400952Y-148730000D01*
X70353333Y-148777619D01*
X70305714Y-148872857D01*
X70305714Y-149015714D01*
X70353333Y-149110952D01*
X70400952Y-149158571D01*
X70496190Y-149206190D01*
X70877142Y-149206190D01*
X69353333Y-149682380D02*
X69924761Y-149682380D01*
X69639047Y-149682380D02*
X69639047Y-148682380D01*
X69734285Y-148825238D01*
X69829523Y-148920476D01*
X69924761Y-148968095D01*
X121353333Y-118682380D02*
X121353333Y-119396666D01*
X121400952Y-119539523D01*
X121496190Y-119634761D01*
X121639047Y-119682380D01*
X121734285Y-119682380D01*
X120877142Y-119682380D02*
X120877142Y-118682380D01*
X120496190Y-118682380D01*
X120400952Y-118730000D01*
X120353333Y-118777619D01*
X120305714Y-118872857D01*
X120305714Y-119015714D01*
X120353333Y-119110952D01*
X120400952Y-119158571D01*
X120496190Y-119206190D01*
X120877142Y-119206190D01*
X119353333Y-119682380D02*
X119924761Y-119682380D01*
X119639047Y-119682380D02*
X119639047Y-118682380D01*
X119734285Y-118825238D01*
X119829523Y-118920476D01*
X119924761Y-118968095D01*
X71353333Y-118682380D02*
X71353333Y-119396666D01*
X71400952Y-119539523D01*
X71496190Y-119634761D01*
X71639047Y-119682380D01*
X71734285Y-119682380D01*
X70877142Y-119682380D02*
X70877142Y-118682380D01*
X70496190Y-118682380D01*
X70400952Y-118730000D01*
X70353333Y-118777619D01*
X70305714Y-118872857D01*
X70305714Y-119015714D01*
X70353333Y-119110952D01*
X70400952Y-119158571D01*
X70496190Y-119206190D01*
X70877142Y-119206190D01*
X69353333Y-119682380D02*
X69924761Y-119682380D01*
X69639047Y-119682380D02*
X69639047Y-118682380D01*
X69734285Y-118825238D01*
X69829523Y-118920476D01*
X69924761Y-118968095D01*
M02*
