G04 #@! TF.GenerationSoftware,KiCad,Pcbnew,(5.1.10-1-10_14)*
G04 #@! TF.CreationDate,2021-09-04T17:53:57+09:00*
G04 #@! TF.ProjectId,ft2232_jtag_tap,66743232-3332-45f6-9a74-61675f746170,rev?*
G04 #@! TF.SameCoordinates,Original*
G04 #@! TF.FileFunction,Soldermask,Top*
G04 #@! TF.FilePolarity,Negative*
%FSLAX46Y46*%
G04 Gerber Fmt 4.6, Leading zero omitted, Abs format (unit mm)*
G04 Created by KiCad (PCBNEW (5.1.10-1-10_14)) date 2021-09-04 17:53:57*
%MOMM*%
%LPD*%
G01*
G04 APERTURE LIST*
%ADD10C,1.700000*%
%ADD11R,1.060000X0.650000*%
%ADD12R,0.900000X0.800000*%
%ADD13C,2.500000*%
%ADD14C,0.600000*%
%ADD15O,2.400000X0.900000*%
%ADD16O,1.700000X0.900000*%
%ADD17C,1.000000*%
G04 APERTURE END LIST*
G36*
G01*
X135350000Y-140180000D02*
X135350000Y-138980000D01*
G75*
G02*
X135600000Y-138730000I250000J0D01*
G01*
X136800000Y-138730000D01*
G75*
G02*
X137050000Y-138980000I0J-250000D01*
G01*
X137050000Y-140180000D01*
G75*
G02*
X136800000Y-140430000I-250000J0D01*
G01*
X135600000Y-140430000D01*
G75*
G02*
X135350000Y-140180000I0J250000D01*
G01*
G37*
D10*
X136200000Y-142120000D03*
X136200000Y-144660000D03*
X136200000Y-147200000D03*
X136200000Y-149740000D03*
X136200000Y-152280000D03*
X136200000Y-154820000D03*
X136200000Y-157360000D03*
X136200000Y-159900000D03*
X136200000Y-162440000D03*
X138740000Y-139580000D03*
X138740000Y-142120000D03*
X138740000Y-144660000D03*
X138740000Y-147200000D03*
X138740000Y-149740000D03*
X138740000Y-152280000D03*
X138740000Y-154820000D03*
X138740000Y-157360000D03*
X138740000Y-159900000D03*
X138740000Y-162440000D03*
G36*
G01*
X85350000Y-140180000D02*
X85350000Y-138980000D01*
G75*
G02*
X85600000Y-138730000I250000J0D01*
G01*
X86800000Y-138730000D01*
G75*
G02*
X87050000Y-138980000I0J-250000D01*
G01*
X87050000Y-140180000D01*
G75*
G02*
X86800000Y-140430000I-250000J0D01*
G01*
X85600000Y-140430000D01*
G75*
G02*
X85350000Y-140180000I0J250000D01*
G01*
G37*
X86200000Y-142120000D03*
X86200000Y-144660000D03*
X86200000Y-147200000D03*
X86200000Y-149740000D03*
X86200000Y-152280000D03*
X86200000Y-154820000D03*
X86200000Y-157360000D03*
X86200000Y-159900000D03*
X86200000Y-162440000D03*
X88740000Y-139580000D03*
X88740000Y-142120000D03*
X88740000Y-144660000D03*
X88740000Y-147200000D03*
X88740000Y-149740000D03*
X88740000Y-152280000D03*
X88740000Y-154820000D03*
X88740000Y-157360000D03*
X88740000Y-159900000D03*
X88740000Y-162440000D03*
G36*
G01*
X135350000Y-106180000D02*
X135350000Y-104980000D01*
G75*
G02*
X135600000Y-104730000I250000J0D01*
G01*
X136800000Y-104730000D01*
G75*
G02*
X137050000Y-104980000I0J-250000D01*
G01*
X137050000Y-106180000D01*
G75*
G02*
X136800000Y-106430000I-250000J0D01*
G01*
X135600000Y-106430000D01*
G75*
G02*
X135350000Y-106180000I0J250000D01*
G01*
G37*
X136200000Y-108120000D03*
X136200000Y-110660000D03*
X136200000Y-113200000D03*
X136200000Y-115740000D03*
X136200000Y-118280000D03*
X136200000Y-120820000D03*
X136200000Y-123360000D03*
X136200000Y-125900000D03*
X136200000Y-128440000D03*
X138740000Y-105580000D03*
X138740000Y-108120000D03*
X138740000Y-110660000D03*
X138740000Y-113200000D03*
X138740000Y-115740000D03*
X138740000Y-118280000D03*
X138740000Y-120820000D03*
X138740000Y-123360000D03*
X138740000Y-125900000D03*
X138740000Y-128440000D03*
G36*
G01*
X109745000Y-165995000D02*
X109745000Y-165445000D01*
G75*
G02*
X109945000Y-165245000I200000J0D01*
G01*
X110345000Y-165245000D01*
G75*
G02*
X110545000Y-165445000I0J-200000D01*
G01*
X110545000Y-165995000D01*
G75*
G02*
X110345000Y-166195000I-200000J0D01*
G01*
X109945000Y-166195000D01*
G75*
G02*
X109745000Y-165995000I0J200000D01*
G01*
G37*
G36*
G01*
X111395000Y-165995000D02*
X111395000Y-165445000D01*
G75*
G02*
X111595000Y-165245000I200000J0D01*
G01*
X111995000Y-165245000D01*
G75*
G02*
X112195000Y-165445000I0J-200000D01*
G01*
X112195000Y-165995000D01*
G75*
G02*
X111995000Y-166195000I-200000J0D01*
G01*
X111595000Y-166195000D01*
G75*
G02*
X111395000Y-165995000I0J200000D01*
G01*
G37*
G36*
G01*
X59745000Y-165995000D02*
X59745000Y-165445000D01*
G75*
G02*
X59945000Y-165245000I200000J0D01*
G01*
X60345000Y-165245000D01*
G75*
G02*
X60545000Y-165445000I0J-200000D01*
G01*
X60545000Y-165995000D01*
G75*
G02*
X60345000Y-166195000I-200000J0D01*
G01*
X59945000Y-166195000D01*
G75*
G02*
X59745000Y-165995000I0J200000D01*
G01*
G37*
G36*
G01*
X61395000Y-165995000D02*
X61395000Y-165445000D01*
G75*
G02*
X61595000Y-165245000I200000J0D01*
G01*
X61995000Y-165245000D01*
G75*
G02*
X62195000Y-165445000I0J-200000D01*
G01*
X62195000Y-165995000D01*
G75*
G02*
X61995000Y-166195000I-200000J0D01*
G01*
X61595000Y-166195000D01*
G75*
G02*
X61395000Y-165995000I0J200000D01*
G01*
G37*
G36*
G01*
X109745000Y-131995000D02*
X109745000Y-131445000D01*
G75*
G02*
X109945000Y-131245000I200000J0D01*
G01*
X110345000Y-131245000D01*
G75*
G02*
X110545000Y-131445000I0J-200000D01*
G01*
X110545000Y-131995000D01*
G75*
G02*
X110345000Y-132195000I-200000J0D01*
G01*
X109945000Y-132195000D01*
G75*
G02*
X109745000Y-131995000I0J200000D01*
G01*
G37*
G36*
G01*
X111395000Y-131995000D02*
X111395000Y-131445000D01*
G75*
G02*
X111595000Y-131245000I200000J0D01*
G01*
X111995000Y-131245000D01*
G75*
G02*
X112195000Y-131445000I0J-200000D01*
G01*
X112195000Y-131995000D01*
G75*
G02*
X111995000Y-132195000I-200000J0D01*
G01*
X111595000Y-132195000D01*
G75*
G02*
X111395000Y-131995000I0J200000D01*
G01*
G37*
G36*
G01*
X105345000Y-145065000D02*
X105345000Y-144515000D01*
G75*
G02*
X105545000Y-144315000I200000J0D01*
G01*
X105945000Y-144315000D01*
G75*
G02*
X106145000Y-144515000I0J-200000D01*
G01*
X106145000Y-145065000D01*
G75*
G02*
X105945000Y-145265000I-200000J0D01*
G01*
X105545000Y-145265000D01*
G75*
G02*
X105345000Y-145065000I0J200000D01*
G01*
G37*
G36*
G01*
X106995000Y-145065000D02*
X106995000Y-144515000D01*
G75*
G02*
X107195000Y-144315000I200000J0D01*
G01*
X107595000Y-144315000D01*
G75*
G02*
X107795000Y-144515000I0J-200000D01*
G01*
X107795000Y-145065000D01*
G75*
G02*
X107595000Y-145265000I-200000J0D01*
G01*
X107195000Y-145265000D01*
G75*
G02*
X106995000Y-145065000I0J200000D01*
G01*
G37*
G36*
G01*
X55345000Y-145065000D02*
X55345000Y-144515000D01*
G75*
G02*
X55545000Y-144315000I200000J0D01*
G01*
X55945000Y-144315000D01*
G75*
G02*
X56145000Y-144515000I0J-200000D01*
G01*
X56145000Y-145065000D01*
G75*
G02*
X55945000Y-145265000I-200000J0D01*
G01*
X55545000Y-145265000D01*
G75*
G02*
X55345000Y-145065000I0J200000D01*
G01*
G37*
G36*
G01*
X56995000Y-145065000D02*
X56995000Y-144515000D01*
G75*
G02*
X57195000Y-144315000I200000J0D01*
G01*
X57595000Y-144315000D01*
G75*
G02*
X57795000Y-144515000I0J-200000D01*
G01*
X57795000Y-145065000D01*
G75*
G02*
X57595000Y-145265000I-200000J0D01*
G01*
X57195000Y-145265000D01*
G75*
G02*
X56995000Y-145065000I0J200000D01*
G01*
G37*
G36*
G01*
X105345000Y-111065000D02*
X105345000Y-110515000D01*
G75*
G02*
X105545000Y-110315000I200000J0D01*
G01*
X105945000Y-110315000D01*
G75*
G02*
X106145000Y-110515000I0J-200000D01*
G01*
X106145000Y-111065000D01*
G75*
G02*
X105945000Y-111265000I-200000J0D01*
G01*
X105545000Y-111265000D01*
G75*
G02*
X105345000Y-111065000I0J200000D01*
G01*
G37*
G36*
G01*
X106995000Y-111065000D02*
X106995000Y-110515000D01*
G75*
G02*
X107195000Y-110315000I200000J0D01*
G01*
X107595000Y-110315000D01*
G75*
G02*
X107795000Y-110515000I0J-200000D01*
G01*
X107795000Y-111065000D01*
G75*
G02*
X107595000Y-111265000I-200000J0D01*
G01*
X107195000Y-111265000D01*
G75*
G02*
X106995000Y-111065000I0J200000D01*
G01*
G37*
G36*
G01*
X106365000Y-157025000D02*
X106365000Y-157575000D01*
G75*
G02*
X106165000Y-157775000I-200000J0D01*
G01*
X105765000Y-157775000D01*
G75*
G02*
X105565000Y-157575000I0J200000D01*
G01*
X105565000Y-157025000D01*
G75*
G02*
X105765000Y-156825000I200000J0D01*
G01*
X106165000Y-156825000D01*
G75*
G02*
X106365000Y-157025000I0J-200000D01*
G01*
G37*
G36*
G01*
X104715000Y-157025000D02*
X104715000Y-157575000D01*
G75*
G02*
X104515000Y-157775000I-200000J0D01*
G01*
X104115000Y-157775000D01*
G75*
G02*
X103915000Y-157575000I0J200000D01*
G01*
X103915000Y-157025000D01*
G75*
G02*
X104115000Y-156825000I200000J0D01*
G01*
X104515000Y-156825000D01*
G75*
G02*
X104715000Y-157025000I0J-200000D01*
G01*
G37*
G36*
G01*
X56365000Y-157025000D02*
X56365000Y-157575000D01*
G75*
G02*
X56165000Y-157775000I-200000J0D01*
G01*
X55765000Y-157775000D01*
G75*
G02*
X55565000Y-157575000I0J200000D01*
G01*
X55565000Y-157025000D01*
G75*
G02*
X55765000Y-156825000I200000J0D01*
G01*
X56165000Y-156825000D01*
G75*
G02*
X56365000Y-157025000I0J-200000D01*
G01*
G37*
G36*
G01*
X54715000Y-157025000D02*
X54715000Y-157575000D01*
G75*
G02*
X54515000Y-157775000I-200000J0D01*
G01*
X54115000Y-157775000D01*
G75*
G02*
X53915000Y-157575000I0J200000D01*
G01*
X53915000Y-157025000D01*
G75*
G02*
X54115000Y-156825000I200000J0D01*
G01*
X54515000Y-156825000D01*
G75*
G02*
X54715000Y-157025000I0J-200000D01*
G01*
G37*
G36*
G01*
X106365000Y-123025000D02*
X106365000Y-123575000D01*
G75*
G02*
X106165000Y-123775000I-200000J0D01*
G01*
X105765000Y-123775000D01*
G75*
G02*
X105565000Y-123575000I0J200000D01*
G01*
X105565000Y-123025000D01*
G75*
G02*
X105765000Y-122825000I200000J0D01*
G01*
X106165000Y-122825000D01*
G75*
G02*
X106365000Y-123025000I0J-200000D01*
G01*
G37*
G36*
G01*
X104715000Y-123025000D02*
X104715000Y-123575000D01*
G75*
G02*
X104515000Y-123775000I-200000J0D01*
G01*
X104115000Y-123775000D01*
G75*
G02*
X103915000Y-123575000I0J200000D01*
G01*
X103915000Y-123025000D01*
G75*
G02*
X104115000Y-122825000I200000J0D01*
G01*
X104515000Y-122825000D01*
G75*
G02*
X104715000Y-123025000I0J-200000D01*
G01*
G37*
G36*
G01*
X116825000Y-158885000D02*
X117375000Y-158885000D01*
G75*
G02*
X117575000Y-159085000I0J-200000D01*
G01*
X117575000Y-159485000D01*
G75*
G02*
X117375000Y-159685000I-200000J0D01*
G01*
X116825000Y-159685000D01*
G75*
G02*
X116625000Y-159485000I0J200000D01*
G01*
X116625000Y-159085000D01*
G75*
G02*
X116825000Y-158885000I200000J0D01*
G01*
G37*
G36*
G01*
X116825000Y-160535000D02*
X117375000Y-160535000D01*
G75*
G02*
X117575000Y-160735000I0J-200000D01*
G01*
X117575000Y-161135000D01*
G75*
G02*
X117375000Y-161335000I-200000J0D01*
G01*
X116825000Y-161335000D01*
G75*
G02*
X116625000Y-161135000I0J200000D01*
G01*
X116625000Y-160735000D01*
G75*
G02*
X116825000Y-160535000I200000J0D01*
G01*
G37*
G36*
G01*
X66825000Y-158885000D02*
X67375000Y-158885000D01*
G75*
G02*
X67575000Y-159085000I0J-200000D01*
G01*
X67575000Y-159485000D01*
G75*
G02*
X67375000Y-159685000I-200000J0D01*
G01*
X66825000Y-159685000D01*
G75*
G02*
X66625000Y-159485000I0J200000D01*
G01*
X66625000Y-159085000D01*
G75*
G02*
X66825000Y-158885000I200000J0D01*
G01*
G37*
G36*
G01*
X66825000Y-160535000D02*
X67375000Y-160535000D01*
G75*
G02*
X67575000Y-160735000I0J-200000D01*
G01*
X67575000Y-161135000D01*
G75*
G02*
X67375000Y-161335000I-200000J0D01*
G01*
X66825000Y-161335000D01*
G75*
G02*
X66625000Y-161135000I0J200000D01*
G01*
X66625000Y-160735000D01*
G75*
G02*
X66825000Y-160535000I200000J0D01*
G01*
G37*
G36*
G01*
X116825000Y-124885000D02*
X117375000Y-124885000D01*
G75*
G02*
X117575000Y-125085000I0J-200000D01*
G01*
X117575000Y-125485000D01*
G75*
G02*
X117375000Y-125685000I-200000J0D01*
G01*
X116825000Y-125685000D01*
G75*
G02*
X116625000Y-125485000I0J200000D01*
G01*
X116625000Y-125085000D01*
G75*
G02*
X116825000Y-124885000I200000J0D01*
G01*
G37*
G36*
G01*
X116825000Y-126535000D02*
X117375000Y-126535000D01*
G75*
G02*
X117575000Y-126735000I0J-200000D01*
G01*
X117575000Y-127135000D01*
G75*
G02*
X117375000Y-127335000I-200000J0D01*
G01*
X116825000Y-127335000D01*
G75*
G02*
X116625000Y-127135000I0J200000D01*
G01*
X116625000Y-126735000D01*
G75*
G02*
X116825000Y-126535000I200000J0D01*
G01*
G37*
G36*
G01*
X128185000Y-165135000D02*
X128185000Y-165685000D01*
G75*
G02*
X127985000Y-165885000I-200000J0D01*
G01*
X127585000Y-165885000D01*
G75*
G02*
X127385000Y-165685000I0J200000D01*
G01*
X127385000Y-165135000D01*
G75*
G02*
X127585000Y-164935000I200000J0D01*
G01*
X127985000Y-164935000D01*
G75*
G02*
X128185000Y-165135000I0J-200000D01*
G01*
G37*
G36*
G01*
X126535000Y-165135000D02*
X126535000Y-165685000D01*
G75*
G02*
X126335000Y-165885000I-200000J0D01*
G01*
X125935000Y-165885000D01*
G75*
G02*
X125735000Y-165685000I0J200000D01*
G01*
X125735000Y-165135000D01*
G75*
G02*
X125935000Y-164935000I200000J0D01*
G01*
X126335000Y-164935000D01*
G75*
G02*
X126535000Y-165135000I0J-200000D01*
G01*
G37*
G36*
G01*
X78185000Y-165135000D02*
X78185000Y-165685000D01*
G75*
G02*
X77985000Y-165885000I-200000J0D01*
G01*
X77585000Y-165885000D01*
G75*
G02*
X77385000Y-165685000I0J200000D01*
G01*
X77385000Y-165135000D01*
G75*
G02*
X77585000Y-164935000I200000J0D01*
G01*
X77985000Y-164935000D01*
G75*
G02*
X78185000Y-165135000I0J-200000D01*
G01*
G37*
G36*
G01*
X76535000Y-165135000D02*
X76535000Y-165685000D01*
G75*
G02*
X76335000Y-165885000I-200000J0D01*
G01*
X75935000Y-165885000D01*
G75*
G02*
X75735000Y-165685000I0J200000D01*
G01*
X75735000Y-165135000D01*
G75*
G02*
X75935000Y-164935000I200000J0D01*
G01*
X76335000Y-164935000D01*
G75*
G02*
X76535000Y-165135000I0J-200000D01*
G01*
G37*
G36*
G01*
X128185000Y-131135000D02*
X128185000Y-131685000D01*
G75*
G02*
X127985000Y-131885000I-200000J0D01*
G01*
X127585000Y-131885000D01*
G75*
G02*
X127385000Y-131685000I0J200000D01*
G01*
X127385000Y-131135000D01*
G75*
G02*
X127585000Y-130935000I200000J0D01*
G01*
X127985000Y-130935000D01*
G75*
G02*
X128185000Y-131135000I0J-200000D01*
G01*
G37*
G36*
G01*
X126535000Y-131135000D02*
X126535000Y-131685000D01*
G75*
G02*
X126335000Y-131885000I-200000J0D01*
G01*
X125935000Y-131885000D01*
G75*
G02*
X125735000Y-131685000I0J200000D01*
G01*
X125735000Y-131135000D01*
G75*
G02*
X125935000Y-130935000I200000J0D01*
G01*
X126335000Y-130935000D01*
G75*
G02*
X126535000Y-131135000I0J-200000D01*
G01*
G37*
G36*
G01*
X126855000Y-161615000D02*
X127405000Y-161615000D01*
G75*
G02*
X127605000Y-161815000I0J-200000D01*
G01*
X127605000Y-162215000D01*
G75*
G02*
X127405000Y-162415000I-200000J0D01*
G01*
X126855000Y-162415000D01*
G75*
G02*
X126655000Y-162215000I0J200000D01*
G01*
X126655000Y-161815000D01*
G75*
G02*
X126855000Y-161615000I200000J0D01*
G01*
G37*
G36*
G01*
X126855000Y-163265000D02*
X127405000Y-163265000D01*
G75*
G02*
X127605000Y-163465000I0J-200000D01*
G01*
X127605000Y-163865000D01*
G75*
G02*
X127405000Y-164065000I-200000J0D01*
G01*
X126855000Y-164065000D01*
G75*
G02*
X126655000Y-163865000I0J200000D01*
G01*
X126655000Y-163465000D01*
G75*
G02*
X126855000Y-163265000I200000J0D01*
G01*
G37*
G36*
G01*
X76855000Y-161615000D02*
X77405000Y-161615000D01*
G75*
G02*
X77605000Y-161815000I0J-200000D01*
G01*
X77605000Y-162215000D01*
G75*
G02*
X77405000Y-162415000I-200000J0D01*
G01*
X76855000Y-162415000D01*
G75*
G02*
X76655000Y-162215000I0J200000D01*
G01*
X76655000Y-161815000D01*
G75*
G02*
X76855000Y-161615000I200000J0D01*
G01*
G37*
G36*
G01*
X76855000Y-163265000D02*
X77405000Y-163265000D01*
G75*
G02*
X77605000Y-163465000I0J-200000D01*
G01*
X77605000Y-163865000D01*
G75*
G02*
X77405000Y-164065000I-200000J0D01*
G01*
X76855000Y-164065000D01*
G75*
G02*
X76655000Y-163865000I0J200000D01*
G01*
X76655000Y-163465000D01*
G75*
G02*
X76855000Y-163265000I200000J0D01*
G01*
G37*
G36*
G01*
X126855000Y-127615000D02*
X127405000Y-127615000D01*
G75*
G02*
X127605000Y-127815000I0J-200000D01*
G01*
X127605000Y-128215000D01*
G75*
G02*
X127405000Y-128415000I-200000J0D01*
G01*
X126855000Y-128415000D01*
G75*
G02*
X126655000Y-128215000I0J200000D01*
G01*
X126655000Y-127815000D01*
G75*
G02*
X126855000Y-127615000I200000J0D01*
G01*
G37*
G36*
G01*
X126855000Y-129265000D02*
X127405000Y-129265000D01*
G75*
G02*
X127605000Y-129465000I0J-200000D01*
G01*
X127605000Y-129865000D01*
G75*
G02*
X127405000Y-130065000I-200000J0D01*
G01*
X126855000Y-130065000D01*
G75*
G02*
X126655000Y-129865000I0J200000D01*
G01*
X126655000Y-129465000D01*
G75*
G02*
X126855000Y-129265000I200000J0D01*
G01*
G37*
G36*
G01*
X115295000Y-158885000D02*
X115845000Y-158885000D01*
G75*
G02*
X116045000Y-159085000I0J-200000D01*
G01*
X116045000Y-159485000D01*
G75*
G02*
X115845000Y-159685000I-200000J0D01*
G01*
X115295000Y-159685000D01*
G75*
G02*
X115095000Y-159485000I0J200000D01*
G01*
X115095000Y-159085000D01*
G75*
G02*
X115295000Y-158885000I200000J0D01*
G01*
G37*
G36*
G01*
X115295000Y-160535000D02*
X115845000Y-160535000D01*
G75*
G02*
X116045000Y-160735000I0J-200000D01*
G01*
X116045000Y-161135000D01*
G75*
G02*
X115845000Y-161335000I-200000J0D01*
G01*
X115295000Y-161335000D01*
G75*
G02*
X115095000Y-161135000I0J200000D01*
G01*
X115095000Y-160735000D01*
G75*
G02*
X115295000Y-160535000I200000J0D01*
G01*
G37*
G36*
G01*
X65295000Y-158885000D02*
X65845000Y-158885000D01*
G75*
G02*
X66045000Y-159085000I0J-200000D01*
G01*
X66045000Y-159485000D01*
G75*
G02*
X65845000Y-159685000I-200000J0D01*
G01*
X65295000Y-159685000D01*
G75*
G02*
X65095000Y-159485000I0J200000D01*
G01*
X65095000Y-159085000D01*
G75*
G02*
X65295000Y-158885000I200000J0D01*
G01*
G37*
G36*
G01*
X65295000Y-160535000D02*
X65845000Y-160535000D01*
G75*
G02*
X66045000Y-160735000I0J-200000D01*
G01*
X66045000Y-161135000D01*
G75*
G02*
X65845000Y-161335000I-200000J0D01*
G01*
X65295000Y-161335000D01*
G75*
G02*
X65095000Y-161135000I0J200000D01*
G01*
X65095000Y-160735000D01*
G75*
G02*
X65295000Y-160535000I200000J0D01*
G01*
G37*
G36*
G01*
X115295000Y-124885000D02*
X115845000Y-124885000D01*
G75*
G02*
X116045000Y-125085000I0J-200000D01*
G01*
X116045000Y-125485000D01*
G75*
G02*
X115845000Y-125685000I-200000J0D01*
G01*
X115295000Y-125685000D01*
G75*
G02*
X115095000Y-125485000I0J200000D01*
G01*
X115095000Y-125085000D01*
G75*
G02*
X115295000Y-124885000I200000J0D01*
G01*
G37*
G36*
G01*
X115295000Y-126535000D02*
X115845000Y-126535000D01*
G75*
G02*
X116045000Y-126735000I0J-200000D01*
G01*
X116045000Y-127135000D01*
G75*
G02*
X115845000Y-127335000I-200000J0D01*
G01*
X115295000Y-127335000D01*
G75*
G02*
X115095000Y-127135000I0J200000D01*
G01*
X115095000Y-126735000D01*
G75*
G02*
X115295000Y-126535000I200000J0D01*
G01*
G37*
D11*
X125450000Y-163760000D03*
X125450000Y-162810000D03*
X125450000Y-161860000D03*
X123250000Y-161860000D03*
X123250000Y-163760000D03*
X123250000Y-162810000D03*
X75450000Y-163760000D03*
X75450000Y-162810000D03*
X75450000Y-161860000D03*
X73250000Y-161860000D03*
X73250000Y-163760000D03*
X73250000Y-162810000D03*
X125450000Y-129760000D03*
X125450000Y-128810000D03*
X125450000Y-127860000D03*
X123250000Y-127860000D03*
X123250000Y-129760000D03*
X123250000Y-128810000D03*
D12*
X125610000Y-138450000D03*
X125610000Y-136550000D03*
X123610000Y-137500000D03*
X75610000Y-138450000D03*
X75610000Y-136550000D03*
X73610000Y-137500000D03*
X125610000Y-104450000D03*
X125610000Y-102550000D03*
X123610000Y-103500000D03*
X132410000Y-161160000D03*
X132410000Y-159260000D03*
X130410000Y-160210000D03*
X82410000Y-161160000D03*
X82410000Y-159260000D03*
X80410000Y-160210000D03*
X132410000Y-127160000D03*
X132410000Y-125260000D03*
X130410000Y-126210000D03*
G36*
G01*
X121585000Y-159815000D02*
X121585000Y-160365000D01*
G75*
G02*
X121385000Y-160565000I-200000J0D01*
G01*
X120985000Y-160565000D01*
G75*
G02*
X120785000Y-160365000I0J200000D01*
G01*
X120785000Y-159815000D01*
G75*
G02*
X120985000Y-159615000I200000J0D01*
G01*
X121385000Y-159615000D01*
G75*
G02*
X121585000Y-159815000I0J-200000D01*
G01*
G37*
G36*
G01*
X119935000Y-159815000D02*
X119935000Y-160365000D01*
G75*
G02*
X119735000Y-160565000I-200000J0D01*
G01*
X119335000Y-160565000D01*
G75*
G02*
X119135000Y-160365000I0J200000D01*
G01*
X119135000Y-159815000D01*
G75*
G02*
X119335000Y-159615000I200000J0D01*
G01*
X119735000Y-159615000D01*
G75*
G02*
X119935000Y-159815000I0J-200000D01*
G01*
G37*
G36*
G01*
X71585000Y-159815000D02*
X71585000Y-160365000D01*
G75*
G02*
X71385000Y-160565000I-200000J0D01*
G01*
X70985000Y-160565000D01*
G75*
G02*
X70785000Y-160365000I0J200000D01*
G01*
X70785000Y-159815000D01*
G75*
G02*
X70985000Y-159615000I200000J0D01*
G01*
X71385000Y-159615000D01*
G75*
G02*
X71585000Y-159815000I0J-200000D01*
G01*
G37*
G36*
G01*
X69935000Y-159815000D02*
X69935000Y-160365000D01*
G75*
G02*
X69735000Y-160565000I-200000J0D01*
G01*
X69335000Y-160565000D01*
G75*
G02*
X69135000Y-160365000I0J200000D01*
G01*
X69135000Y-159815000D01*
G75*
G02*
X69335000Y-159615000I200000J0D01*
G01*
X69735000Y-159615000D01*
G75*
G02*
X69935000Y-159815000I0J-200000D01*
G01*
G37*
G36*
G01*
X121585000Y-125815000D02*
X121585000Y-126365000D01*
G75*
G02*
X121385000Y-126565000I-200000J0D01*
G01*
X120985000Y-126565000D01*
G75*
G02*
X120785000Y-126365000I0J200000D01*
G01*
X120785000Y-125815000D01*
G75*
G02*
X120985000Y-125615000I200000J0D01*
G01*
X121385000Y-125615000D01*
G75*
G02*
X121585000Y-125815000I0J-200000D01*
G01*
G37*
G36*
G01*
X119935000Y-125815000D02*
X119935000Y-126365000D01*
G75*
G02*
X119735000Y-126565000I-200000J0D01*
G01*
X119335000Y-126565000D01*
G75*
G02*
X119135000Y-126365000I0J200000D01*
G01*
X119135000Y-125815000D01*
G75*
G02*
X119335000Y-125615000I200000J0D01*
G01*
X119735000Y-125615000D01*
G75*
G02*
X119935000Y-125815000I0J-200000D01*
G01*
G37*
G36*
G01*
X128315000Y-159795000D02*
X128315000Y-160345000D01*
G75*
G02*
X128115000Y-160545000I-200000J0D01*
G01*
X127715000Y-160545000D01*
G75*
G02*
X127515000Y-160345000I0J200000D01*
G01*
X127515000Y-159795000D01*
G75*
G02*
X127715000Y-159595000I200000J0D01*
G01*
X128115000Y-159595000D01*
G75*
G02*
X128315000Y-159795000I0J-200000D01*
G01*
G37*
G36*
G01*
X126665000Y-159795000D02*
X126665000Y-160345000D01*
G75*
G02*
X126465000Y-160545000I-200000J0D01*
G01*
X126065000Y-160545000D01*
G75*
G02*
X125865000Y-160345000I0J200000D01*
G01*
X125865000Y-159795000D01*
G75*
G02*
X126065000Y-159595000I200000J0D01*
G01*
X126465000Y-159595000D01*
G75*
G02*
X126665000Y-159795000I0J-200000D01*
G01*
G37*
G36*
G01*
X78315000Y-159795000D02*
X78315000Y-160345000D01*
G75*
G02*
X78115000Y-160545000I-200000J0D01*
G01*
X77715000Y-160545000D01*
G75*
G02*
X77515000Y-160345000I0J200000D01*
G01*
X77515000Y-159795000D01*
G75*
G02*
X77715000Y-159595000I200000J0D01*
G01*
X78115000Y-159595000D01*
G75*
G02*
X78315000Y-159795000I0J-200000D01*
G01*
G37*
G36*
G01*
X76665000Y-159795000D02*
X76665000Y-160345000D01*
G75*
G02*
X76465000Y-160545000I-200000J0D01*
G01*
X76065000Y-160545000D01*
G75*
G02*
X75865000Y-160345000I0J200000D01*
G01*
X75865000Y-159795000D01*
G75*
G02*
X76065000Y-159595000I200000J0D01*
G01*
X76465000Y-159595000D01*
G75*
G02*
X76665000Y-159795000I0J-200000D01*
G01*
G37*
G36*
G01*
X128315000Y-125795000D02*
X128315000Y-126345000D01*
G75*
G02*
X128115000Y-126545000I-200000J0D01*
G01*
X127715000Y-126545000D01*
G75*
G02*
X127515000Y-126345000I0J200000D01*
G01*
X127515000Y-125795000D01*
G75*
G02*
X127715000Y-125595000I200000J0D01*
G01*
X128115000Y-125595000D01*
G75*
G02*
X128315000Y-125795000I0J-200000D01*
G01*
G37*
G36*
G01*
X126665000Y-125795000D02*
X126665000Y-126345000D01*
G75*
G02*
X126465000Y-126545000I-200000J0D01*
G01*
X126065000Y-126545000D01*
G75*
G02*
X125865000Y-126345000I0J200000D01*
G01*
X125865000Y-125795000D01*
G75*
G02*
X126065000Y-125595000I200000J0D01*
G01*
X126465000Y-125595000D01*
G75*
G02*
X126665000Y-125795000I0J-200000D01*
G01*
G37*
G36*
G01*
X126895000Y-136235000D02*
X127445000Y-136235000D01*
G75*
G02*
X127645000Y-136435000I0J-200000D01*
G01*
X127645000Y-136835000D01*
G75*
G02*
X127445000Y-137035000I-200000J0D01*
G01*
X126895000Y-137035000D01*
G75*
G02*
X126695000Y-136835000I0J200000D01*
G01*
X126695000Y-136435000D01*
G75*
G02*
X126895000Y-136235000I200000J0D01*
G01*
G37*
G36*
G01*
X126895000Y-137885000D02*
X127445000Y-137885000D01*
G75*
G02*
X127645000Y-138085000I0J-200000D01*
G01*
X127645000Y-138485000D01*
G75*
G02*
X127445000Y-138685000I-200000J0D01*
G01*
X126895000Y-138685000D01*
G75*
G02*
X126695000Y-138485000I0J200000D01*
G01*
X126695000Y-138085000D01*
G75*
G02*
X126895000Y-137885000I200000J0D01*
G01*
G37*
G36*
G01*
X76895000Y-136235000D02*
X77445000Y-136235000D01*
G75*
G02*
X77645000Y-136435000I0J-200000D01*
G01*
X77645000Y-136835000D01*
G75*
G02*
X77445000Y-137035000I-200000J0D01*
G01*
X76895000Y-137035000D01*
G75*
G02*
X76695000Y-136835000I0J200000D01*
G01*
X76695000Y-136435000D01*
G75*
G02*
X76895000Y-136235000I200000J0D01*
G01*
G37*
G36*
G01*
X76895000Y-137885000D02*
X77445000Y-137885000D01*
G75*
G02*
X77645000Y-138085000I0J-200000D01*
G01*
X77645000Y-138485000D01*
G75*
G02*
X77445000Y-138685000I-200000J0D01*
G01*
X76895000Y-138685000D01*
G75*
G02*
X76695000Y-138485000I0J200000D01*
G01*
X76695000Y-138085000D01*
G75*
G02*
X76895000Y-137885000I200000J0D01*
G01*
G37*
G36*
G01*
X126895000Y-102235000D02*
X127445000Y-102235000D01*
G75*
G02*
X127645000Y-102435000I0J-200000D01*
G01*
X127645000Y-102835000D01*
G75*
G02*
X127445000Y-103035000I-200000J0D01*
G01*
X126895000Y-103035000D01*
G75*
G02*
X126695000Y-102835000I0J200000D01*
G01*
X126695000Y-102435000D01*
G75*
G02*
X126895000Y-102235000I200000J0D01*
G01*
G37*
G36*
G01*
X126895000Y-103885000D02*
X127445000Y-103885000D01*
G75*
G02*
X127645000Y-104085000I0J-200000D01*
G01*
X127645000Y-104485000D01*
G75*
G02*
X127445000Y-104685000I-200000J0D01*
G01*
X126895000Y-104685000D01*
G75*
G02*
X126695000Y-104485000I0J200000D01*
G01*
X126695000Y-104085000D01*
G75*
G02*
X126895000Y-103885000I200000J0D01*
G01*
G37*
G36*
G01*
X133725000Y-158915000D02*
X134275000Y-158915000D01*
G75*
G02*
X134475000Y-159115000I0J-200000D01*
G01*
X134475000Y-159515000D01*
G75*
G02*
X134275000Y-159715000I-200000J0D01*
G01*
X133725000Y-159715000D01*
G75*
G02*
X133525000Y-159515000I0J200000D01*
G01*
X133525000Y-159115000D01*
G75*
G02*
X133725000Y-158915000I200000J0D01*
G01*
G37*
G36*
G01*
X133725000Y-160565000D02*
X134275000Y-160565000D01*
G75*
G02*
X134475000Y-160765000I0J-200000D01*
G01*
X134475000Y-161165000D01*
G75*
G02*
X134275000Y-161365000I-200000J0D01*
G01*
X133725000Y-161365000D01*
G75*
G02*
X133525000Y-161165000I0J200000D01*
G01*
X133525000Y-160765000D01*
G75*
G02*
X133725000Y-160565000I200000J0D01*
G01*
G37*
G36*
G01*
X83725000Y-158915000D02*
X84275000Y-158915000D01*
G75*
G02*
X84475000Y-159115000I0J-200000D01*
G01*
X84475000Y-159515000D01*
G75*
G02*
X84275000Y-159715000I-200000J0D01*
G01*
X83725000Y-159715000D01*
G75*
G02*
X83525000Y-159515000I0J200000D01*
G01*
X83525000Y-159115000D01*
G75*
G02*
X83725000Y-158915000I200000J0D01*
G01*
G37*
G36*
G01*
X83725000Y-160565000D02*
X84275000Y-160565000D01*
G75*
G02*
X84475000Y-160765000I0J-200000D01*
G01*
X84475000Y-161165000D01*
G75*
G02*
X84275000Y-161365000I-200000J0D01*
G01*
X83725000Y-161365000D01*
G75*
G02*
X83525000Y-161165000I0J200000D01*
G01*
X83525000Y-160765000D01*
G75*
G02*
X83725000Y-160565000I200000J0D01*
G01*
G37*
G36*
G01*
X133725000Y-124915000D02*
X134275000Y-124915000D01*
G75*
G02*
X134475000Y-125115000I0J-200000D01*
G01*
X134475000Y-125515000D01*
G75*
G02*
X134275000Y-125715000I-200000J0D01*
G01*
X133725000Y-125715000D01*
G75*
G02*
X133525000Y-125515000I0J200000D01*
G01*
X133525000Y-125115000D01*
G75*
G02*
X133725000Y-124915000I200000J0D01*
G01*
G37*
G36*
G01*
X133725000Y-126565000D02*
X134275000Y-126565000D01*
G75*
G02*
X134475000Y-126765000I0J-200000D01*
G01*
X134475000Y-127165000D01*
G75*
G02*
X134275000Y-127365000I-200000J0D01*
G01*
X133725000Y-127365000D01*
G75*
G02*
X133525000Y-127165000I0J200000D01*
G01*
X133525000Y-126765000D01*
G75*
G02*
X133725000Y-126565000I200000J0D01*
G01*
G37*
G36*
G01*
X131955000Y-142395000D02*
X131955000Y-141845000D01*
G75*
G02*
X132155000Y-141645000I200000J0D01*
G01*
X132555000Y-141645000D01*
G75*
G02*
X132755000Y-141845000I0J-200000D01*
G01*
X132755000Y-142395000D01*
G75*
G02*
X132555000Y-142595000I-200000J0D01*
G01*
X132155000Y-142595000D01*
G75*
G02*
X131955000Y-142395000I0J200000D01*
G01*
G37*
G36*
G01*
X133605000Y-142395000D02*
X133605000Y-141845000D01*
G75*
G02*
X133805000Y-141645000I200000J0D01*
G01*
X134205000Y-141645000D01*
G75*
G02*
X134405000Y-141845000I0J-200000D01*
G01*
X134405000Y-142395000D01*
G75*
G02*
X134205000Y-142595000I-200000J0D01*
G01*
X133805000Y-142595000D01*
G75*
G02*
X133605000Y-142395000I0J200000D01*
G01*
G37*
G36*
G01*
X81955000Y-142395000D02*
X81955000Y-141845000D01*
G75*
G02*
X82155000Y-141645000I200000J0D01*
G01*
X82555000Y-141645000D01*
G75*
G02*
X82755000Y-141845000I0J-200000D01*
G01*
X82755000Y-142395000D01*
G75*
G02*
X82555000Y-142595000I-200000J0D01*
G01*
X82155000Y-142595000D01*
G75*
G02*
X81955000Y-142395000I0J200000D01*
G01*
G37*
G36*
G01*
X83605000Y-142395000D02*
X83605000Y-141845000D01*
G75*
G02*
X83805000Y-141645000I200000J0D01*
G01*
X84205000Y-141645000D01*
G75*
G02*
X84405000Y-141845000I0J-200000D01*
G01*
X84405000Y-142395000D01*
G75*
G02*
X84205000Y-142595000I-200000J0D01*
G01*
X83805000Y-142595000D01*
G75*
G02*
X83605000Y-142395000I0J200000D01*
G01*
G37*
G36*
G01*
X131955000Y-108395000D02*
X131955000Y-107845000D01*
G75*
G02*
X132155000Y-107645000I200000J0D01*
G01*
X132555000Y-107645000D01*
G75*
G02*
X132755000Y-107845000I0J-200000D01*
G01*
X132755000Y-108395000D01*
G75*
G02*
X132555000Y-108595000I-200000J0D01*
G01*
X132155000Y-108595000D01*
G75*
G02*
X131955000Y-108395000I0J200000D01*
G01*
G37*
G36*
G01*
X133605000Y-108395000D02*
X133605000Y-107845000D01*
G75*
G02*
X133805000Y-107645000I200000J0D01*
G01*
X134205000Y-107645000D01*
G75*
G02*
X134405000Y-107845000I0J-200000D01*
G01*
X134405000Y-108395000D01*
G75*
G02*
X134205000Y-108595000I-200000J0D01*
G01*
X133805000Y-108595000D01*
G75*
G02*
X133605000Y-108395000I0J200000D01*
G01*
G37*
G36*
G01*
X132005000Y-157635000D02*
X132005000Y-157085000D01*
G75*
G02*
X132205000Y-156885000I200000J0D01*
G01*
X132605000Y-156885000D01*
G75*
G02*
X132805000Y-157085000I0J-200000D01*
G01*
X132805000Y-157635000D01*
G75*
G02*
X132605000Y-157835000I-200000J0D01*
G01*
X132205000Y-157835000D01*
G75*
G02*
X132005000Y-157635000I0J200000D01*
G01*
G37*
G36*
G01*
X133655000Y-157635000D02*
X133655000Y-157085000D01*
G75*
G02*
X133855000Y-156885000I200000J0D01*
G01*
X134255000Y-156885000D01*
G75*
G02*
X134455000Y-157085000I0J-200000D01*
G01*
X134455000Y-157635000D01*
G75*
G02*
X134255000Y-157835000I-200000J0D01*
G01*
X133855000Y-157835000D01*
G75*
G02*
X133655000Y-157635000I0J200000D01*
G01*
G37*
G36*
G01*
X82005000Y-157635000D02*
X82005000Y-157085000D01*
G75*
G02*
X82205000Y-156885000I200000J0D01*
G01*
X82605000Y-156885000D01*
G75*
G02*
X82805000Y-157085000I0J-200000D01*
G01*
X82805000Y-157635000D01*
G75*
G02*
X82605000Y-157835000I-200000J0D01*
G01*
X82205000Y-157835000D01*
G75*
G02*
X82005000Y-157635000I0J200000D01*
G01*
G37*
G36*
G01*
X83655000Y-157635000D02*
X83655000Y-157085000D01*
G75*
G02*
X83855000Y-156885000I200000J0D01*
G01*
X84255000Y-156885000D01*
G75*
G02*
X84455000Y-157085000I0J-200000D01*
G01*
X84455000Y-157635000D01*
G75*
G02*
X84255000Y-157835000I-200000J0D01*
G01*
X83855000Y-157835000D01*
G75*
G02*
X83655000Y-157635000I0J200000D01*
G01*
G37*
G36*
G01*
X132005000Y-123635000D02*
X132005000Y-123085000D01*
G75*
G02*
X132205000Y-122885000I200000J0D01*
G01*
X132605000Y-122885000D01*
G75*
G02*
X132805000Y-123085000I0J-200000D01*
G01*
X132805000Y-123635000D01*
G75*
G02*
X132605000Y-123835000I-200000J0D01*
G01*
X132205000Y-123835000D01*
G75*
G02*
X132005000Y-123635000I0J200000D01*
G01*
G37*
G36*
G01*
X133655000Y-123635000D02*
X133655000Y-123085000D01*
G75*
G02*
X133855000Y-122885000I200000J0D01*
G01*
X134255000Y-122885000D01*
G75*
G02*
X134455000Y-123085000I0J-200000D01*
G01*
X134455000Y-123635000D01*
G75*
G02*
X134255000Y-123835000I-200000J0D01*
G01*
X133855000Y-123835000D01*
G75*
G02*
X133655000Y-123635000I0J200000D01*
G01*
G37*
G36*
G01*
X131975000Y-152555000D02*
X131975000Y-152005000D01*
G75*
G02*
X132175000Y-151805000I200000J0D01*
G01*
X132575000Y-151805000D01*
G75*
G02*
X132775000Y-152005000I0J-200000D01*
G01*
X132775000Y-152555000D01*
G75*
G02*
X132575000Y-152755000I-200000J0D01*
G01*
X132175000Y-152755000D01*
G75*
G02*
X131975000Y-152555000I0J200000D01*
G01*
G37*
G36*
G01*
X133625000Y-152555000D02*
X133625000Y-152005000D01*
G75*
G02*
X133825000Y-151805000I200000J0D01*
G01*
X134225000Y-151805000D01*
G75*
G02*
X134425000Y-152005000I0J-200000D01*
G01*
X134425000Y-152555000D01*
G75*
G02*
X134225000Y-152755000I-200000J0D01*
G01*
X133825000Y-152755000D01*
G75*
G02*
X133625000Y-152555000I0J200000D01*
G01*
G37*
G36*
G01*
X81975000Y-152555000D02*
X81975000Y-152005000D01*
G75*
G02*
X82175000Y-151805000I200000J0D01*
G01*
X82575000Y-151805000D01*
G75*
G02*
X82775000Y-152005000I0J-200000D01*
G01*
X82775000Y-152555000D01*
G75*
G02*
X82575000Y-152755000I-200000J0D01*
G01*
X82175000Y-152755000D01*
G75*
G02*
X81975000Y-152555000I0J200000D01*
G01*
G37*
G36*
G01*
X83625000Y-152555000D02*
X83625000Y-152005000D01*
G75*
G02*
X83825000Y-151805000I200000J0D01*
G01*
X84225000Y-151805000D01*
G75*
G02*
X84425000Y-152005000I0J-200000D01*
G01*
X84425000Y-152555000D01*
G75*
G02*
X84225000Y-152755000I-200000J0D01*
G01*
X83825000Y-152755000D01*
G75*
G02*
X83625000Y-152555000I0J200000D01*
G01*
G37*
G36*
G01*
X131975000Y-118555000D02*
X131975000Y-118005000D01*
G75*
G02*
X132175000Y-117805000I200000J0D01*
G01*
X132575000Y-117805000D01*
G75*
G02*
X132775000Y-118005000I0J-200000D01*
G01*
X132775000Y-118555000D01*
G75*
G02*
X132575000Y-118755000I-200000J0D01*
G01*
X132175000Y-118755000D01*
G75*
G02*
X131975000Y-118555000I0J200000D01*
G01*
G37*
G36*
G01*
X133625000Y-118555000D02*
X133625000Y-118005000D01*
G75*
G02*
X133825000Y-117805000I200000J0D01*
G01*
X134225000Y-117805000D01*
G75*
G02*
X134425000Y-118005000I0J-200000D01*
G01*
X134425000Y-118555000D01*
G75*
G02*
X134225000Y-118755000I-200000J0D01*
G01*
X133825000Y-118755000D01*
G75*
G02*
X133625000Y-118555000I0J200000D01*
G01*
G37*
G36*
G01*
X131975000Y-150015000D02*
X131975000Y-149465000D01*
G75*
G02*
X132175000Y-149265000I200000J0D01*
G01*
X132575000Y-149265000D01*
G75*
G02*
X132775000Y-149465000I0J-200000D01*
G01*
X132775000Y-150015000D01*
G75*
G02*
X132575000Y-150215000I-200000J0D01*
G01*
X132175000Y-150215000D01*
G75*
G02*
X131975000Y-150015000I0J200000D01*
G01*
G37*
G36*
G01*
X133625000Y-150015000D02*
X133625000Y-149465000D01*
G75*
G02*
X133825000Y-149265000I200000J0D01*
G01*
X134225000Y-149265000D01*
G75*
G02*
X134425000Y-149465000I0J-200000D01*
G01*
X134425000Y-150015000D01*
G75*
G02*
X134225000Y-150215000I-200000J0D01*
G01*
X133825000Y-150215000D01*
G75*
G02*
X133625000Y-150015000I0J200000D01*
G01*
G37*
G36*
G01*
X81975000Y-150015000D02*
X81975000Y-149465000D01*
G75*
G02*
X82175000Y-149265000I200000J0D01*
G01*
X82575000Y-149265000D01*
G75*
G02*
X82775000Y-149465000I0J-200000D01*
G01*
X82775000Y-150015000D01*
G75*
G02*
X82575000Y-150215000I-200000J0D01*
G01*
X82175000Y-150215000D01*
G75*
G02*
X81975000Y-150015000I0J200000D01*
G01*
G37*
G36*
G01*
X83625000Y-150015000D02*
X83625000Y-149465000D01*
G75*
G02*
X83825000Y-149265000I200000J0D01*
G01*
X84225000Y-149265000D01*
G75*
G02*
X84425000Y-149465000I0J-200000D01*
G01*
X84425000Y-150015000D01*
G75*
G02*
X84225000Y-150215000I-200000J0D01*
G01*
X83825000Y-150215000D01*
G75*
G02*
X83625000Y-150015000I0J200000D01*
G01*
G37*
G36*
G01*
X131975000Y-116015000D02*
X131975000Y-115465000D01*
G75*
G02*
X132175000Y-115265000I200000J0D01*
G01*
X132575000Y-115265000D01*
G75*
G02*
X132775000Y-115465000I0J-200000D01*
G01*
X132775000Y-116015000D01*
G75*
G02*
X132575000Y-116215000I-200000J0D01*
G01*
X132175000Y-116215000D01*
G75*
G02*
X131975000Y-116015000I0J200000D01*
G01*
G37*
G36*
G01*
X133625000Y-116015000D02*
X133625000Y-115465000D01*
G75*
G02*
X133825000Y-115265000I200000J0D01*
G01*
X134225000Y-115265000D01*
G75*
G02*
X134425000Y-115465000I0J-200000D01*
G01*
X134425000Y-116015000D01*
G75*
G02*
X134225000Y-116215000I-200000J0D01*
G01*
X133825000Y-116215000D01*
G75*
G02*
X133625000Y-116015000I0J200000D01*
G01*
G37*
G36*
G01*
X131995000Y-147465000D02*
X131995000Y-146915000D01*
G75*
G02*
X132195000Y-146715000I200000J0D01*
G01*
X132595000Y-146715000D01*
G75*
G02*
X132795000Y-146915000I0J-200000D01*
G01*
X132795000Y-147465000D01*
G75*
G02*
X132595000Y-147665000I-200000J0D01*
G01*
X132195000Y-147665000D01*
G75*
G02*
X131995000Y-147465000I0J200000D01*
G01*
G37*
G36*
G01*
X133645000Y-147465000D02*
X133645000Y-146915000D01*
G75*
G02*
X133845000Y-146715000I200000J0D01*
G01*
X134245000Y-146715000D01*
G75*
G02*
X134445000Y-146915000I0J-200000D01*
G01*
X134445000Y-147465000D01*
G75*
G02*
X134245000Y-147665000I-200000J0D01*
G01*
X133845000Y-147665000D01*
G75*
G02*
X133645000Y-147465000I0J200000D01*
G01*
G37*
G36*
G01*
X81995000Y-147465000D02*
X81995000Y-146915000D01*
G75*
G02*
X82195000Y-146715000I200000J0D01*
G01*
X82595000Y-146715000D01*
G75*
G02*
X82795000Y-146915000I0J-200000D01*
G01*
X82795000Y-147465000D01*
G75*
G02*
X82595000Y-147665000I-200000J0D01*
G01*
X82195000Y-147665000D01*
G75*
G02*
X81995000Y-147465000I0J200000D01*
G01*
G37*
G36*
G01*
X83645000Y-147465000D02*
X83645000Y-146915000D01*
G75*
G02*
X83845000Y-146715000I200000J0D01*
G01*
X84245000Y-146715000D01*
G75*
G02*
X84445000Y-146915000I0J-200000D01*
G01*
X84445000Y-147465000D01*
G75*
G02*
X84245000Y-147665000I-200000J0D01*
G01*
X83845000Y-147665000D01*
G75*
G02*
X83645000Y-147465000I0J200000D01*
G01*
G37*
G36*
G01*
X131995000Y-113465000D02*
X131995000Y-112915000D01*
G75*
G02*
X132195000Y-112715000I200000J0D01*
G01*
X132595000Y-112715000D01*
G75*
G02*
X132795000Y-112915000I0J-200000D01*
G01*
X132795000Y-113465000D01*
G75*
G02*
X132595000Y-113665000I-200000J0D01*
G01*
X132195000Y-113665000D01*
G75*
G02*
X131995000Y-113465000I0J200000D01*
G01*
G37*
G36*
G01*
X133645000Y-113465000D02*
X133645000Y-112915000D01*
G75*
G02*
X133845000Y-112715000I200000J0D01*
G01*
X134245000Y-112715000D01*
G75*
G02*
X134445000Y-112915000I0J-200000D01*
G01*
X134445000Y-113465000D01*
G75*
G02*
X134245000Y-113665000I-200000J0D01*
G01*
X133845000Y-113665000D01*
G75*
G02*
X133645000Y-113465000I0J200000D01*
G01*
G37*
G36*
G01*
X132005000Y-155105000D02*
X132005000Y-154555000D01*
G75*
G02*
X132205000Y-154355000I200000J0D01*
G01*
X132605000Y-154355000D01*
G75*
G02*
X132805000Y-154555000I0J-200000D01*
G01*
X132805000Y-155105000D01*
G75*
G02*
X132605000Y-155305000I-200000J0D01*
G01*
X132205000Y-155305000D01*
G75*
G02*
X132005000Y-155105000I0J200000D01*
G01*
G37*
G36*
G01*
X133655000Y-155105000D02*
X133655000Y-154555000D01*
G75*
G02*
X133855000Y-154355000I200000J0D01*
G01*
X134255000Y-154355000D01*
G75*
G02*
X134455000Y-154555000I0J-200000D01*
G01*
X134455000Y-155105000D01*
G75*
G02*
X134255000Y-155305000I-200000J0D01*
G01*
X133855000Y-155305000D01*
G75*
G02*
X133655000Y-155105000I0J200000D01*
G01*
G37*
G36*
G01*
X82005000Y-155105000D02*
X82005000Y-154555000D01*
G75*
G02*
X82205000Y-154355000I200000J0D01*
G01*
X82605000Y-154355000D01*
G75*
G02*
X82805000Y-154555000I0J-200000D01*
G01*
X82805000Y-155105000D01*
G75*
G02*
X82605000Y-155305000I-200000J0D01*
G01*
X82205000Y-155305000D01*
G75*
G02*
X82005000Y-155105000I0J200000D01*
G01*
G37*
G36*
G01*
X83655000Y-155105000D02*
X83655000Y-154555000D01*
G75*
G02*
X83855000Y-154355000I200000J0D01*
G01*
X84255000Y-154355000D01*
G75*
G02*
X84455000Y-154555000I0J-200000D01*
G01*
X84455000Y-155105000D01*
G75*
G02*
X84255000Y-155305000I-200000J0D01*
G01*
X83855000Y-155305000D01*
G75*
G02*
X83655000Y-155105000I0J200000D01*
G01*
G37*
G36*
G01*
X132005000Y-121105000D02*
X132005000Y-120555000D01*
G75*
G02*
X132205000Y-120355000I200000J0D01*
G01*
X132605000Y-120355000D01*
G75*
G02*
X132805000Y-120555000I0J-200000D01*
G01*
X132805000Y-121105000D01*
G75*
G02*
X132605000Y-121305000I-200000J0D01*
G01*
X132205000Y-121305000D01*
G75*
G02*
X132005000Y-121105000I0J200000D01*
G01*
G37*
G36*
G01*
X133655000Y-121105000D02*
X133655000Y-120555000D01*
G75*
G02*
X133855000Y-120355000I200000J0D01*
G01*
X134255000Y-120355000D01*
G75*
G02*
X134455000Y-120555000I0J-200000D01*
G01*
X134455000Y-121105000D01*
G75*
G02*
X134255000Y-121305000I-200000J0D01*
G01*
X133855000Y-121305000D01*
G75*
G02*
X133655000Y-121105000I0J200000D01*
G01*
G37*
G36*
G01*
X106675000Y-165976250D02*
X106675000Y-165463750D01*
G75*
G02*
X106893750Y-165245000I218750J0D01*
G01*
X107331250Y-165245000D01*
G75*
G02*
X107550000Y-165463750I0J-218750D01*
G01*
X107550000Y-165976250D01*
G75*
G02*
X107331250Y-166195000I-218750J0D01*
G01*
X106893750Y-166195000D01*
G75*
G02*
X106675000Y-165976250I0J218750D01*
G01*
G37*
G36*
G01*
X108250000Y-165976250D02*
X108250000Y-165463750D01*
G75*
G02*
X108468750Y-165245000I218750J0D01*
G01*
X108906250Y-165245000D01*
G75*
G02*
X109125000Y-165463750I0J-218750D01*
G01*
X109125000Y-165976250D01*
G75*
G02*
X108906250Y-166195000I-218750J0D01*
G01*
X108468750Y-166195000D01*
G75*
G02*
X108250000Y-165976250I0J218750D01*
G01*
G37*
G36*
G01*
X56675000Y-165976250D02*
X56675000Y-165463750D01*
G75*
G02*
X56893750Y-165245000I218750J0D01*
G01*
X57331250Y-165245000D01*
G75*
G02*
X57550000Y-165463750I0J-218750D01*
G01*
X57550000Y-165976250D01*
G75*
G02*
X57331250Y-166195000I-218750J0D01*
G01*
X56893750Y-166195000D01*
G75*
G02*
X56675000Y-165976250I0J218750D01*
G01*
G37*
G36*
G01*
X58250000Y-165976250D02*
X58250000Y-165463750D01*
G75*
G02*
X58468750Y-165245000I218750J0D01*
G01*
X58906250Y-165245000D01*
G75*
G02*
X59125000Y-165463750I0J-218750D01*
G01*
X59125000Y-165976250D01*
G75*
G02*
X58906250Y-166195000I-218750J0D01*
G01*
X58468750Y-166195000D01*
G75*
G02*
X58250000Y-165976250I0J218750D01*
G01*
G37*
G36*
G01*
X106675000Y-131976250D02*
X106675000Y-131463750D01*
G75*
G02*
X106893750Y-131245000I218750J0D01*
G01*
X107331250Y-131245000D01*
G75*
G02*
X107550000Y-131463750I0J-218750D01*
G01*
X107550000Y-131976250D01*
G75*
G02*
X107331250Y-132195000I-218750J0D01*
G01*
X106893750Y-132195000D01*
G75*
G02*
X106675000Y-131976250I0J218750D01*
G01*
G37*
G36*
G01*
X108250000Y-131976250D02*
X108250000Y-131463750D01*
G75*
G02*
X108468750Y-131245000I218750J0D01*
G01*
X108906250Y-131245000D01*
G75*
G02*
X109125000Y-131463750I0J-218750D01*
G01*
X109125000Y-131976250D01*
G75*
G02*
X108906250Y-132195000I-218750J0D01*
G01*
X108468750Y-132195000D01*
G75*
G02*
X108250000Y-131976250I0J218750D01*
G01*
G37*
D13*
X103000000Y-137000000D03*
X53000000Y-137000000D03*
X103000000Y-103000000D03*
X103000000Y-165000000D03*
X53000000Y-165000000D03*
X103000000Y-131000000D03*
X132000000Y-137000000D03*
X82000000Y-137000000D03*
X132000000Y-103000000D03*
X132000000Y-165000000D03*
X82000000Y-165000000D03*
X132000000Y-131000000D03*
G36*
G01*
X124595000Y-140750000D02*
X124595000Y-140250000D01*
G75*
G02*
X124820000Y-140025000I225000J0D01*
G01*
X125270000Y-140025000D01*
G75*
G02*
X125495000Y-140250000I0J-225000D01*
G01*
X125495000Y-140750000D01*
G75*
G02*
X125270000Y-140975000I-225000J0D01*
G01*
X124820000Y-140975000D01*
G75*
G02*
X124595000Y-140750000I0J225000D01*
G01*
G37*
G36*
G01*
X126145000Y-140750000D02*
X126145000Y-140250000D01*
G75*
G02*
X126370000Y-140025000I225000J0D01*
G01*
X126820000Y-140025000D01*
G75*
G02*
X127045000Y-140250000I0J-225000D01*
G01*
X127045000Y-140750000D01*
G75*
G02*
X126820000Y-140975000I-225000J0D01*
G01*
X126370000Y-140975000D01*
G75*
G02*
X126145000Y-140750000I0J225000D01*
G01*
G37*
G36*
G01*
X74595000Y-140750000D02*
X74595000Y-140250000D01*
G75*
G02*
X74820000Y-140025000I225000J0D01*
G01*
X75270000Y-140025000D01*
G75*
G02*
X75495000Y-140250000I0J-225000D01*
G01*
X75495000Y-140750000D01*
G75*
G02*
X75270000Y-140975000I-225000J0D01*
G01*
X74820000Y-140975000D01*
G75*
G02*
X74595000Y-140750000I0J225000D01*
G01*
G37*
G36*
G01*
X76145000Y-140750000D02*
X76145000Y-140250000D01*
G75*
G02*
X76370000Y-140025000I225000J0D01*
G01*
X76820000Y-140025000D01*
G75*
G02*
X77045000Y-140250000I0J-225000D01*
G01*
X77045000Y-140750000D01*
G75*
G02*
X76820000Y-140975000I-225000J0D01*
G01*
X76370000Y-140975000D01*
G75*
G02*
X76145000Y-140750000I0J225000D01*
G01*
G37*
G36*
G01*
X124595000Y-106750000D02*
X124595000Y-106250000D01*
G75*
G02*
X124820000Y-106025000I225000J0D01*
G01*
X125270000Y-106025000D01*
G75*
G02*
X125495000Y-106250000I0J-225000D01*
G01*
X125495000Y-106750000D01*
G75*
G02*
X125270000Y-106975000I-225000J0D01*
G01*
X124820000Y-106975000D01*
G75*
G02*
X124595000Y-106750000I0J225000D01*
G01*
G37*
G36*
G01*
X126145000Y-106750000D02*
X126145000Y-106250000D01*
G75*
G02*
X126370000Y-106025000I225000J0D01*
G01*
X126820000Y-106025000D01*
G75*
G02*
X127045000Y-106250000I0J-225000D01*
G01*
X127045000Y-106750000D01*
G75*
G02*
X126820000Y-106975000I-225000J0D01*
G01*
X126370000Y-106975000D01*
G75*
G02*
X126145000Y-106750000I0J225000D01*
G01*
G37*
G36*
G01*
X124565000Y-153250000D02*
X124565000Y-152750000D01*
G75*
G02*
X124790000Y-152525000I225000J0D01*
G01*
X125240000Y-152525000D01*
G75*
G02*
X125465000Y-152750000I0J-225000D01*
G01*
X125465000Y-153250000D01*
G75*
G02*
X125240000Y-153475000I-225000J0D01*
G01*
X124790000Y-153475000D01*
G75*
G02*
X124565000Y-153250000I0J225000D01*
G01*
G37*
G36*
G01*
X126115000Y-153250000D02*
X126115000Y-152750000D01*
G75*
G02*
X126340000Y-152525000I225000J0D01*
G01*
X126790000Y-152525000D01*
G75*
G02*
X127015000Y-152750000I0J-225000D01*
G01*
X127015000Y-153250000D01*
G75*
G02*
X126790000Y-153475000I-225000J0D01*
G01*
X126340000Y-153475000D01*
G75*
G02*
X126115000Y-153250000I0J225000D01*
G01*
G37*
G36*
G01*
X74565000Y-153250000D02*
X74565000Y-152750000D01*
G75*
G02*
X74790000Y-152525000I225000J0D01*
G01*
X75240000Y-152525000D01*
G75*
G02*
X75465000Y-152750000I0J-225000D01*
G01*
X75465000Y-153250000D01*
G75*
G02*
X75240000Y-153475000I-225000J0D01*
G01*
X74790000Y-153475000D01*
G75*
G02*
X74565000Y-153250000I0J225000D01*
G01*
G37*
G36*
G01*
X76115000Y-153250000D02*
X76115000Y-152750000D01*
G75*
G02*
X76340000Y-152525000I225000J0D01*
G01*
X76790000Y-152525000D01*
G75*
G02*
X77015000Y-152750000I0J-225000D01*
G01*
X77015000Y-153250000D01*
G75*
G02*
X76790000Y-153475000I-225000J0D01*
G01*
X76340000Y-153475000D01*
G75*
G02*
X76115000Y-153250000I0J225000D01*
G01*
G37*
G36*
G01*
X124565000Y-119250000D02*
X124565000Y-118750000D01*
G75*
G02*
X124790000Y-118525000I225000J0D01*
G01*
X125240000Y-118525000D01*
G75*
G02*
X125465000Y-118750000I0J-225000D01*
G01*
X125465000Y-119250000D01*
G75*
G02*
X125240000Y-119475000I-225000J0D01*
G01*
X124790000Y-119475000D01*
G75*
G02*
X124565000Y-119250000I0J225000D01*
G01*
G37*
G36*
G01*
X126115000Y-119250000D02*
X126115000Y-118750000D01*
G75*
G02*
X126340000Y-118525000I225000J0D01*
G01*
X126790000Y-118525000D01*
G75*
G02*
X127015000Y-118750000I0J-225000D01*
G01*
X127015000Y-119250000D01*
G75*
G02*
X126790000Y-119475000I-225000J0D01*
G01*
X126340000Y-119475000D01*
G75*
G02*
X126115000Y-119250000I0J225000D01*
G01*
G37*
G36*
G01*
X121130000Y-150865000D02*
X120630000Y-150865000D01*
G75*
G02*
X120405000Y-150640000I0J225000D01*
G01*
X120405000Y-150190000D01*
G75*
G02*
X120630000Y-149965000I225000J0D01*
G01*
X121130000Y-149965000D01*
G75*
G02*
X121355000Y-150190000I0J-225000D01*
G01*
X121355000Y-150640000D01*
G75*
G02*
X121130000Y-150865000I-225000J0D01*
G01*
G37*
G36*
G01*
X121130000Y-149315000D02*
X120630000Y-149315000D01*
G75*
G02*
X120405000Y-149090000I0J225000D01*
G01*
X120405000Y-148640000D01*
G75*
G02*
X120630000Y-148415000I225000J0D01*
G01*
X121130000Y-148415000D01*
G75*
G02*
X121355000Y-148640000I0J-225000D01*
G01*
X121355000Y-149090000D01*
G75*
G02*
X121130000Y-149315000I-225000J0D01*
G01*
G37*
G36*
G01*
X71130000Y-150865000D02*
X70630000Y-150865000D01*
G75*
G02*
X70405000Y-150640000I0J225000D01*
G01*
X70405000Y-150190000D01*
G75*
G02*
X70630000Y-149965000I225000J0D01*
G01*
X71130000Y-149965000D01*
G75*
G02*
X71355000Y-150190000I0J-225000D01*
G01*
X71355000Y-150640000D01*
G75*
G02*
X71130000Y-150865000I-225000J0D01*
G01*
G37*
G36*
G01*
X71130000Y-149315000D02*
X70630000Y-149315000D01*
G75*
G02*
X70405000Y-149090000I0J225000D01*
G01*
X70405000Y-148640000D01*
G75*
G02*
X70630000Y-148415000I225000J0D01*
G01*
X71130000Y-148415000D01*
G75*
G02*
X71355000Y-148640000I0J-225000D01*
G01*
X71355000Y-149090000D01*
G75*
G02*
X71130000Y-149315000I-225000J0D01*
G01*
G37*
G36*
G01*
X121130000Y-116865000D02*
X120630000Y-116865000D01*
G75*
G02*
X120405000Y-116640000I0J225000D01*
G01*
X120405000Y-116190000D01*
G75*
G02*
X120630000Y-115965000I225000J0D01*
G01*
X121130000Y-115965000D01*
G75*
G02*
X121355000Y-116190000I0J-225000D01*
G01*
X121355000Y-116640000D01*
G75*
G02*
X121130000Y-116865000I-225000J0D01*
G01*
G37*
G36*
G01*
X121130000Y-115315000D02*
X120630000Y-115315000D01*
G75*
G02*
X120405000Y-115090000I0J225000D01*
G01*
X120405000Y-114640000D01*
G75*
G02*
X120630000Y-114415000I225000J0D01*
G01*
X121130000Y-114415000D01*
G75*
G02*
X121355000Y-114640000I0J-225000D01*
G01*
X121355000Y-115090000D01*
G75*
G02*
X121130000Y-115315000I-225000J0D01*
G01*
G37*
G36*
G01*
X126040000Y-148405000D02*
X126540000Y-148405000D01*
G75*
G02*
X126765000Y-148630000I0J-225000D01*
G01*
X126765000Y-149080000D01*
G75*
G02*
X126540000Y-149305000I-225000J0D01*
G01*
X126040000Y-149305000D01*
G75*
G02*
X125815000Y-149080000I0J225000D01*
G01*
X125815000Y-148630000D01*
G75*
G02*
X126040000Y-148405000I225000J0D01*
G01*
G37*
G36*
G01*
X126040000Y-149955000D02*
X126540000Y-149955000D01*
G75*
G02*
X126765000Y-150180000I0J-225000D01*
G01*
X126765000Y-150630000D01*
G75*
G02*
X126540000Y-150855000I-225000J0D01*
G01*
X126040000Y-150855000D01*
G75*
G02*
X125815000Y-150630000I0J225000D01*
G01*
X125815000Y-150180000D01*
G75*
G02*
X126040000Y-149955000I225000J0D01*
G01*
G37*
G36*
G01*
X76040000Y-148405000D02*
X76540000Y-148405000D01*
G75*
G02*
X76765000Y-148630000I0J-225000D01*
G01*
X76765000Y-149080000D01*
G75*
G02*
X76540000Y-149305000I-225000J0D01*
G01*
X76040000Y-149305000D01*
G75*
G02*
X75815000Y-149080000I0J225000D01*
G01*
X75815000Y-148630000D01*
G75*
G02*
X76040000Y-148405000I225000J0D01*
G01*
G37*
G36*
G01*
X76040000Y-149955000D02*
X76540000Y-149955000D01*
G75*
G02*
X76765000Y-150180000I0J-225000D01*
G01*
X76765000Y-150630000D01*
G75*
G02*
X76540000Y-150855000I-225000J0D01*
G01*
X76040000Y-150855000D01*
G75*
G02*
X75815000Y-150630000I0J225000D01*
G01*
X75815000Y-150180000D01*
G75*
G02*
X76040000Y-149955000I225000J0D01*
G01*
G37*
G36*
G01*
X126040000Y-114405000D02*
X126540000Y-114405000D01*
G75*
G02*
X126765000Y-114630000I0J-225000D01*
G01*
X126765000Y-115080000D01*
G75*
G02*
X126540000Y-115305000I-225000J0D01*
G01*
X126040000Y-115305000D01*
G75*
G02*
X125815000Y-115080000I0J225000D01*
G01*
X125815000Y-114630000D01*
G75*
G02*
X126040000Y-114405000I225000J0D01*
G01*
G37*
G36*
G01*
X126040000Y-115955000D02*
X126540000Y-115955000D01*
G75*
G02*
X126765000Y-116180000I0J-225000D01*
G01*
X126765000Y-116630000D01*
G75*
G02*
X126540000Y-116855000I-225000J0D01*
G01*
X126040000Y-116855000D01*
G75*
G02*
X125815000Y-116630000I0J225000D01*
G01*
X125815000Y-116180000D01*
G75*
G02*
X126040000Y-115955000I225000J0D01*
G01*
G37*
G36*
G01*
X122715000Y-165670000D02*
X122715000Y-165170000D01*
G75*
G02*
X122940000Y-164945000I225000J0D01*
G01*
X123390000Y-164945000D01*
G75*
G02*
X123615000Y-165170000I0J-225000D01*
G01*
X123615000Y-165670000D01*
G75*
G02*
X123390000Y-165895000I-225000J0D01*
G01*
X122940000Y-165895000D01*
G75*
G02*
X122715000Y-165670000I0J225000D01*
G01*
G37*
G36*
G01*
X124265000Y-165670000D02*
X124265000Y-165170000D01*
G75*
G02*
X124490000Y-164945000I225000J0D01*
G01*
X124940000Y-164945000D01*
G75*
G02*
X125165000Y-165170000I0J-225000D01*
G01*
X125165000Y-165670000D01*
G75*
G02*
X124940000Y-165895000I-225000J0D01*
G01*
X124490000Y-165895000D01*
G75*
G02*
X124265000Y-165670000I0J225000D01*
G01*
G37*
G36*
G01*
X72715000Y-165670000D02*
X72715000Y-165170000D01*
G75*
G02*
X72940000Y-164945000I225000J0D01*
G01*
X73390000Y-164945000D01*
G75*
G02*
X73615000Y-165170000I0J-225000D01*
G01*
X73615000Y-165670000D01*
G75*
G02*
X73390000Y-165895000I-225000J0D01*
G01*
X72940000Y-165895000D01*
G75*
G02*
X72715000Y-165670000I0J225000D01*
G01*
G37*
G36*
G01*
X74265000Y-165670000D02*
X74265000Y-165170000D01*
G75*
G02*
X74490000Y-164945000I225000J0D01*
G01*
X74940000Y-164945000D01*
G75*
G02*
X75165000Y-165170000I0J-225000D01*
G01*
X75165000Y-165670000D01*
G75*
G02*
X74940000Y-165895000I-225000J0D01*
G01*
X74490000Y-165895000D01*
G75*
G02*
X74265000Y-165670000I0J225000D01*
G01*
G37*
G36*
G01*
X122715000Y-131670000D02*
X122715000Y-131170000D01*
G75*
G02*
X122940000Y-130945000I225000J0D01*
G01*
X123390000Y-130945000D01*
G75*
G02*
X123615000Y-131170000I0J-225000D01*
G01*
X123615000Y-131670000D01*
G75*
G02*
X123390000Y-131895000I-225000J0D01*
G01*
X122940000Y-131895000D01*
G75*
G02*
X122715000Y-131670000I0J225000D01*
G01*
G37*
G36*
G01*
X124265000Y-131670000D02*
X124265000Y-131170000D01*
G75*
G02*
X124490000Y-130945000I225000J0D01*
G01*
X124940000Y-130945000D01*
G75*
G02*
X125165000Y-131170000I0J-225000D01*
G01*
X125165000Y-131670000D01*
G75*
G02*
X124940000Y-131895000I-225000J0D01*
G01*
X124490000Y-131895000D01*
G75*
G02*
X124265000Y-131670000I0J225000D01*
G01*
G37*
G36*
G01*
X120415000Y-140750000D02*
X120415000Y-140250000D01*
G75*
G02*
X120640000Y-140025000I225000J0D01*
G01*
X121090000Y-140025000D01*
G75*
G02*
X121315000Y-140250000I0J-225000D01*
G01*
X121315000Y-140750000D01*
G75*
G02*
X121090000Y-140975000I-225000J0D01*
G01*
X120640000Y-140975000D01*
G75*
G02*
X120415000Y-140750000I0J225000D01*
G01*
G37*
G36*
G01*
X121965000Y-140750000D02*
X121965000Y-140250000D01*
G75*
G02*
X122190000Y-140025000I225000J0D01*
G01*
X122640000Y-140025000D01*
G75*
G02*
X122865000Y-140250000I0J-225000D01*
G01*
X122865000Y-140750000D01*
G75*
G02*
X122640000Y-140975000I-225000J0D01*
G01*
X122190000Y-140975000D01*
G75*
G02*
X121965000Y-140750000I0J225000D01*
G01*
G37*
G36*
G01*
X70415000Y-140750000D02*
X70415000Y-140250000D01*
G75*
G02*
X70640000Y-140025000I225000J0D01*
G01*
X71090000Y-140025000D01*
G75*
G02*
X71315000Y-140250000I0J-225000D01*
G01*
X71315000Y-140750000D01*
G75*
G02*
X71090000Y-140975000I-225000J0D01*
G01*
X70640000Y-140975000D01*
G75*
G02*
X70415000Y-140750000I0J225000D01*
G01*
G37*
G36*
G01*
X71965000Y-140750000D02*
X71965000Y-140250000D01*
G75*
G02*
X72190000Y-140025000I225000J0D01*
G01*
X72640000Y-140025000D01*
G75*
G02*
X72865000Y-140250000I0J-225000D01*
G01*
X72865000Y-140750000D01*
G75*
G02*
X72640000Y-140975000I-225000J0D01*
G01*
X72190000Y-140975000D01*
G75*
G02*
X71965000Y-140750000I0J225000D01*
G01*
G37*
G36*
G01*
X120415000Y-106750000D02*
X120415000Y-106250000D01*
G75*
G02*
X120640000Y-106025000I225000J0D01*
G01*
X121090000Y-106025000D01*
G75*
G02*
X121315000Y-106250000I0J-225000D01*
G01*
X121315000Y-106750000D01*
G75*
G02*
X121090000Y-106975000I-225000J0D01*
G01*
X120640000Y-106975000D01*
G75*
G02*
X120415000Y-106750000I0J225000D01*
G01*
G37*
G36*
G01*
X121965000Y-106750000D02*
X121965000Y-106250000D01*
G75*
G02*
X122190000Y-106025000I225000J0D01*
G01*
X122640000Y-106025000D01*
G75*
G02*
X122865000Y-106250000I0J-225000D01*
G01*
X122865000Y-106750000D01*
G75*
G02*
X122640000Y-106975000I-225000J0D01*
G01*
X122190000Y-106975000D01*
G75*
G02*
X121965000Y-106750000I0J225000D01*
G01*
G37*
G36*
G01*
X120425000Y-153210000D02*
X120425000Y-152710000D01*
G75*
G02*
X120650000Y-152485000I225000J0D01*
G01*
X121100000Y-152485000D01*
G75*
G02*
X121325000Y-152710000I0J-225000D01*
G01*
X121325000Y-153210000D01*
G75*
G02*
X121100000Y-153435000I-225000J0D01*
G01*
X120650000Y-153435000D01*
G75*
G02*
X120425000Y-153210000I0J225000D01*
G01*
G37*
G36*
G01*
X121975000Y-153210000D02*
X121975000Y-152710000D01*
G75*
G02*
X122200000Y-152485000I225000J0D01*
G01*
X122650000Y-152485000D01*
G75*
G02*
X122875000Y-152710000I0J-225000D01*
G01*
X122875000Y-153210000D01*
G75*
G02*
X122650000Y-153435000I-225000J0D01*
G01*
X122200000Y-153435000D01*
G75*
G02*
X121975000Y-153210000I0J225000D01*
G01*
G37*
G36*
G01*
X70425000Y-153210000D02*
X70425000Y-152710000D01*
G75*
G02*
X70650000Y-152485000I225000J0D01*
G01*
X71100000Y-152485000D01*
G75*
G02*
X71325000Y-152710000I0J-225000D01*
G01*
X71325000Y-153210000D01*
G75*
G02*
X71100000Y-153435000I-225000J0D01*
G01*
X70650000Y-153435000D01*
G75*
G02*
X70425000Y-153210000I0J225000D01*
G01*
G37*
G36*
G01*
X71975000Y-153210000D02*
X71975000Y-152710000D01*
G75*
G02*
X72200000Y-152485000I225000J0D01*
G01*
X72650000Y-152485000D01*
G75*
G02*
X72875000Y-152710000I0J-225000D01*
G01*
X72875000Y-153210000D01*
G75*
G02*
X72650000Y-153435000I-225000J0D01*
G01*
X72200000Y-153435000D01*
G75*
G02*
X71975000Y-153210000I0J225000D01*
G01*
G37*
G36*
G01*
X120425000Y-119210000D02*
X120425000Y-118710000D01*
G75*
G02*
X120650000Y-118485000I225000J0D01*
G01*
X121100000Y-118485000D01*
G75*
G02*
X121325000Y-118710000I0J-225000D01*
G01*
X121325000Y-119210000D01*
G75*
G02*
X121100000Y-119435000I-225000J0D01*
G01*
X120650000Y-119435000D01*
G75*
G02*
X120425000Y-119210000I0J225000D01*
G01*
G37*
G36*
G01*
X121975000Y-119210000D02*
X121975000Y-118710000D01*
G75*
G02*
X122200000Y-118485000I225000J0D01*
G01*
X122650000Y-118485000D01*
G75*
G02*
X122875000Y-118710000I0J-225000D01*
G01*
X122875000Y-119210000D01*
G75*
G02*
X122650000Y-119435000I-225000J0D01*
G01*
X122200000Y-119435000D01*
G75*
G02*
X121975000Y-119210000I0J225000D01*
G01*
G37*
D14*
X107000000Y-148025000D03*
X107000000Y-148875000D03*
X107000000Y-149725000D03*
X107000000Y-150575000D03*
X107000000Y-151425000D03*
X107000000Y-152275000D03*
X107000000Y-153125000D03*
X107000000Y-153975000D03*
X105650000Y-148875000D03*
X105650000Y-150575000D03*
X105650000Y-149725000D03*
X105650000Y-148025000D03*
X105650000Y-152275000D03*
X105650000Y-153125000D03*
X105650000Y-153975000D03*
X105650000Y-151425000D03*
D15*
X106020000Y-146675000D03*
X106020000Y-155325000D03*
D16*
X102640000Y-146675000D03*
X102640000Y-155325000D03*
D14*
X57000000Y-148025000D03*
X57000000Y-148875000D03*
X57000000Y-149725000D03*
X57000000Y-150575000D03*
X57000000Y-151425000D03*
X57000000Y-152275000D03*
X57000000Y-153125000D03*
X57000000Y-153975000D03*
X55650000Y-148875000D03*
X55650000Y-150575000D03*
X55650000Y-149725000D03*
X55650000Y-148025000D03*
X55650000Y-152275000D03*
X55650000Y-153125000D03*
X55650000Y-153975000D03*
X55650000Y-151425000D03*
D15*
X56020000Y-146675000D03*
X56020000Y-155325000D03*
D16*
X52640000Y-146675000D03*
X52640000Y-155325000D03*
D14*
X107000000Y-114025000D03*
X107000000Y-114875000D03*
X107000000Y-115725000D03*
X107000000Y-116575000D03*
X107000000Y-117425000D03*
X107000000Y-118275000D03*
X107000000Y-119125000D03*
X107000000Y-119975000D03*
X105650000Y-114875000D03*
X105650000Y-116575000D03*
X105650000Y-115725000D03*
X105650000Y-114025000D03*
X105650000Y-118275000D03*
X105650000Y-119125000D03*
X105650000Y-119975000D03*
X105650000Y-117425000D03*
D15*
X106020000Y-112675000D03*
X106020000Y-121325000D03*
D16*
X102640000Y-112675000D03*
X102640000Y-121325000D03*
G36*
G01*
X120140000Y-141875000D02*
X120140000Y-141675000D01*
G75*
G02*
X120240000Y-141575000I100000J0D01*
G01*
X121515000Y-141575000D01*
G75*
G02*
X121615000Y-141675000I0J-100000D01*
G01*
X121615000Y-141875000D01*
G75*
G02*
X121515000Y-141975000I-100000J0D01*
G01*
X120240000Y-141975000D01*
G75*
G02*
X120140000Y-141875000I0J100000D01*
G01*
G37*
G36*
G01*
X120140000Y-142525000D02*
X120140000Y-142325000D01*
G75*
G02*
X120240000Y-142225000I100000J0D01*
G01*
X121515000Y-142225000D01*
G75*
G02*
X121615000Y-142325000I0J-100000D01*
G01*
X121615000Y-142525000D01*
G75*
G02*
X121515000Y-142625000I-100000J0D01*
G01*
X120240000Y-142625000D01*
G75*
G02*
X120140000Y-142525000I0J100000D01*
G01*
G37*
G36*
G01*
X120140000Y-143175000D02*
X120140000Y-142975000D01*
G75*
G02*
X120240000Y-142875000I100000J0D01*
G01*
X121515000Y-142875000D01*
G75*
G02*
X121615000Y-142975000I0J-100000D01*
G01*
X121615000Y-143175000D01*
G75*
G02*
X121515000Y-143275000I-100000J0D01*
G01*
X120240000Y-143275000D01*
G75*
G02*
X120140000Y-143175000I0J100000D01*
G01*
G37*
G36*
G01*
X120140000Y-143825000D02*
X120140000Y-143625000D01*
G75*
G02*
X120240000Y-143525000I100000J0D01*
G01*
X121515000Y-143525000D01*
G75*
G02*
X121615000Y-143625000I0J-100000D01*
G01*
X121615000Y-143825000D01*
G75*
G02*
X121515000Y-143925000I-100000J0D01*
G01*
X120240000Y-143925000D01*
G75*
G02*
X120140000Y-143825000I0J100000D01*
G01*
G37*
G36*
G01*
X120140000Y-144475000D02*
X120140000Y-144275000D01*
G75*
G02*
X120240000Y-144175000I100000J0D01*
G01*
X121515000Y-144175000D01*
G75*
G02*
X121615000Y-144275000I0J-100000D01*
G01*
X121615000Y-144475000D01*
G75*
G02*
X121515000Y-144575000I-100000J0D01*
G01*
X120240000Y-144575000D01*
G75*
G02*
X120140000Y-144475000I0J100000D01*
G01*
G37*
G36*
G01*
X120140000Y-145125000D02*
X120140000Y-144925000D01*
G75*
G02*
X120240000Y-144825000I100000J0D01*
G01*
X121515000Y-144825000D01*
G75*
G02*
X121615000Y-144925000I0J-100000D01*
G01*
X121615000Y-145125000D01*
G75*
G02*
X121515000Y-145225000I-100000J0D01*
G01*
X120240000Y-145225000D01*
G75*
G02*
X120140000Y-145125000I0J100000D01*
G01*
G37*
G36*
G01*
X120140000Y-145775000D02*
X120140000Y-145575000D01*
G75*
G02*
X120240000Y-145475000I100000J0D01*
G01*
X121515000Y-145475000D01*
G75*
G02*
X121615000Y-145575000I0J-100000D01*
G01*
X121615000Y-145775000D01*
G75*
G02*
X121515000Y-145875000I-100000J0D01*
G01*
X120240000Y-145875000D01*
G75*
G02*
X120140000Y-145775000I0J100000D01*
G01*
G37*
G36*
G01*
X120140000Y-146425000D02*
X120140000Y-146225000D01*
G75*
G02*
X120240000Y-146125000I100000J0D01*
G01*
X121515000Y-146125000D01*
G75*
G02*
X121615000Y-146225000I0J-100000D01*
G01*
X121615000Y-146425000D01*
G75*
G02*
X121515000Y-146525000I-100000J0D01*
G01*
X120240000Y-146525000D01*
G75*
G02*
X120140000Y-146425000I0J100000D01*
G01*
G37*
G36*
G01*
X125865000Y-146425000D02*
X125865000Y-146225000D01*
G75*
G02*
X125965000Y-146125000I100000J0D01*
G01*
X127240000Y-146125000D01*
G75*
G02*
X127340000Y-146225000I0J-100000D01*
G01*
X127340000Y-146425000D01*
G75*
G02*
X127240000Y-146525000I-100000J0D01*
G01*
X125965000Y-146525000D01*
G75*
G02*
X125865000Y-146425000I0J100000D01*
G01*
G37*
G36*
G01*
X125865000Y-145775000D02*
X125865000Y-145575000D01*
G75*
G02*
X125965000Y-145475000I100000J0D01*
G01*
X127240000Y-145475000D01*
G75*
G02*
X127340000Y-145575000I0J-100000D01*
G01*
X127340000Y-145775000D01*
G75*
G02*
X127240000Y-145875000I-100000J0D01*
G01*
X125965000Y-145875000D01*
G75*
G02*
X125865000Y-145775000I0J100000D01*
G01*
G37*
G36*
G01*
X125865000Y-145125000D02*
X125865000Y-144925000D01*
G75*
G02*
X125965000Y-144825000I100000J0D01*
G01*
X127240000Y-144825000D01*
G75*
G02*
X127340000Y-144925000I0J-100000D01*
G01*
X127340000Y-145125000D01*
G75*
G02*
X127240000Y-145225000I-100000J0D01*
G01*
X125965000Y-145225000D01*
G75*
G02*
X125865000Y-145125000I0J100000D01*
G01*
G37*
G36*
G01*
X125865000Y-144475000D02*
X125865000Y-144275000D01*
G75*
G02*
X125965000Y-144175000I100000J0D01*
G01*
X127240000Y-144175000D01*
G75*
G02*
X127340000Y-144275000I0J-100000D01*
G01*
X127340000Y-144475000D01*
G75*
G02*
X127240000Y-144575000I-100000J0D01*
G01*
X125965000Y-144575000D01*
G75*
G02*
X125865000Y-144475000I0J100000D01*
G01*
G37*
G36*
G01*
X125865000Y-143825000D02*
X125865000Y-143625000D01*
G75*
G02*
X125965000Y-143525000I100000J0D01*
G01*
X127240000Y-143525000D01*
G75*
G02*
X127340000Y-143625000I0J-100000D01*
G01*
X127340000Y-143825000D01*
G75*
G02*
X127240000Y-143925000I-100000J0D01*
G01*
X125965000Y-143925000D01*
G75*
G02*
X125865000Y-143825000I0J100000D01*
G01*
G37*
G36*
G01*
X125865000Y-143175000D02*
X125865000Y-142975000D01*
G75*
G02*
X125965000Y-142875000I100000J0D01*
G01*
X127240000Y-142875000D01*
G75*
G02*
X127340000Y-142975000I0J-100000D01*
G01*
X127340000Y-143175000D01*
G75*
G02*
X127240000Y-143275000I-100000J0D01*
G01*
X125965000Y-143275000D01*
G75*
G02*
X125865000Y-143175000I0J100000D01*
G01*
G37*
G36*
G01*
X125865000Y-142525000D02*
X125865000Y-142325000D01*
G75*
G02*
X125965000Y-142225000I100000J0D01*
G01*
X127240000Y-142225000D01*
G75*
G02*
X127340000Y-142325000I0J-100000D01*
G01*
X127340000Y-142525000D01*
G75*
G02*
X127240000Y-142625000I-100000J0D01*
G01*
X125965000Y-142625000D01*
G75*
G02*
X125865000Y-142525000I0J100000D01*
G01*
G37*
G36*
G01*
X125865000Y-141875000D02*
X125865000Y-141675000D01*
G75*
G02*
X125965000Y-141575000I100000J0D01*
G01*
X127240000Y-141575000D01*
G75*
G02*
X127340000Y-141675000I0J-100000D01*
G01*
X127340000Y-141875000D01*
G75*
G02*
X127240000Y-141975000I-100000J0D01*
G01*
X125965000Y-141975000D01*
G75*
G02*
X125865000Y-141875000I0J100000D01*
G01*
G37*
G36*
G01*
X70140000Y-141875000D02*
X70140000Y-141675000D01*
G75*
G02*
X70240000Y-141575000I100000J0D01*
G01*
X71515000Y-141575000D01*
G75*
G02*
X71615000Y-141675000I0J-100000D01*
G01*
X71615000Y-141875000D01*
G75*
G02*
X71515000Y-141975000I-100000J0D01*
G01*
X70240000Y-141975000D01*
G75*
G02*
X70140000Y-141875000I0J100000D01*
G01*
G37*
G36*
G01*
X70140000Y-142525000D02*
X70140000Y-142325000D01*
G75*
G02*
X70240000Y-142225000I100000J0D01*
G01*
X71515000Y-142225000D01*
G75*
G02*
X71615000Y-142325000I0J-100000D01*
G01*
X71615000Y-142525000D01*
G75*
G02*
X71515000Y-142625000I-100000J0D01*
G01*
X70240000Y-142625000D01*
G75*
G02*
X70140000Y-142525000I0J100000D01*
G01*
G37*
G36*
G01*
X70140000Y-143175000D02*
X70140000Y-142975000D01*
G75*
G02*
X70240000Y-142875000I100000J0D01*
G01*
X71515000Y-142875000D01*
G75*
G02*
X71615000Y-142975000I0J-100000D01*
G01*
X71615000Y-143175000D01*
G75*
G02*
X71515000Y-143275000I-100000J0D01*
G01*
X70240000Y-143275000D01*
G75*
G02*
X70140000Y-143175000I0J100000D01*
G01*
G37*
G36*
G01*
X70140000Y-143825000D02*
X70140000Y-143625000D01*
G75*
G02*
X70240000Y-143525000I100000J0D01*
G01*
X71515000Y-143525000D01*
G75*
G02*
X71615000Y-143625000I0J-100000D01*
G01*
X71615000Y-143825000D01*
G75*
G02*
X71515000Y-143925000I-100000J0D01*
G01*
X70240000Y-143925000D01*
G75*
G02*
X70140000Y-143825000I0J100000D01*
G01*
G37*
G36*
G01*
X70140000Y-144475000D02*
X70140000Y-144275000D01*
G75*
G02*
X70240000Y-144175000I100000J0D01*
G01*
X71515000Y-144175000D01*
G75*
G02*
X71615000Y-144275000I0J-100000D01*
G01*
X71615000Y-144475000D01*
G75*
G02*
X71515000Y-144575000I-100000J0D01*
G01*
X70240000Y-144575000D01*
G75*
G02*
X70140000Y-144475000I0J100000D01*
G01*
G37*
G36*
G01*
X70140000Y-145125000D02*
X70140000Y-144925000D01*
G75*
G02*
X70240000Y-144825000I100000J0D01*
G01*
X71515000Y-144825000D01*
G75*
G02*
X71615000Y-144925000I0J-100000D01*
G01*
X71615000Y-145125000D01*
G75*
G02*
X71515000Y-145225000I-100000J0D01*
G01*
X70240000Y-145225000D01*
G75*
G02*
X70140000Y-145125000I0J100000D01*
G01*
G37*
G36*
G01*
X70140000Y-145775000D02*
X70140000Y-145575000D01*
G75*
G02*
X70240000Y-145475000I100000J0D01*
G01*
X71515000Y-145475000D01*
G75*
G02*
X71615000Y-145575000I0J-100000D01*
G01*
X71615000Y-145775000D01*
G75*
G02*
X71515000Y-145875000I-100000J0D01*
G01*
X70240000Y-145875000D01*
G75*
G02*
X70140000Y-145775000I0J100000D01*
G01*
G37*
G36*
G01*
X70140000Y-146425000D02*
X70140000Y-146225000D01*
G75*
G02*
X70240000Y-146125000I100000J0D01*
G01*
X71515000Y-146125000D01*
G75*
G02*
X71615000Y-146225000I0J-100000D01*
G01*
X71615000Y-146425000D01*
G75*
G02*
X71515000Y-146525000I-100000J0D01*
G01*
X70240000Y-146525000D01*
G75*
G02*
X70140000Y-146425000I0J100000D01*
G01*
G37*
G36*
G01*
X75865000Y-146425000D02*
X75865000Y-146225000D01*
G75*
G02*
X75965000Y-146125000I100000J0D01*
G01*
X77240000Y-146125000D01*
G75*
G02*
X77340000Y-146225000I0J-100000D01*
G01*
X77340000Y-146425000D01*
G75*
G02*
X77240000Y-146525000I-100000J0D01*
G01*
X75965000Y-146525000D01*
G75*
G02*
X75865000Y-146425000I0J100000D01*
G01*
G37*
G36*
G01*
X75865000Y-145775000D02*
X75865000Y-145575000D01*
G75*
G02*
X75965000Y-145475000I100000J0D01*
G01*
X77240000Y-145475000D01*
G75*
G02*
X77340000Y-145575000I0J-100000D01*
G01*
X77340000Y-145775000D01*
G75*
G02*
X77240000Y-145875000I-100000J0D01*
G01*
X75965000Y-145875000D01*
G75*
G02*
X75865000Y-145775000I0J100000D01*
G01*
G37*
G36*
G01*
X75865000Y-145125000D02*
X75865000Y-144925000D01*
G75*
G02*
X75965000Y-144825000I100000J0D01*
G01*
X77240000Y-144825000D01*
G75*
G02*
X77340000Y-144925000I0J-100000D01*
G01*
X77340000Y-145125000D01*
G75*
G02*
X77240000Y-145225000I-100000J0D01*
G01*
X75965000Y-145225000D01*
G75*
G02*
X75865000Y-145125000I0J100000D01*
G01*
G37*
G36*
G01*
X75865000Y-144475000D02*
X75865000Y-144275000D01*
G75*
G02*
X75965000Y-144175000I100000J0D01*
G01*
X77240000Y-144175000D01*
G75*
G02*
X77340000Y-144275000I0J-100000D01*
G01*
X77340000Y-144475000D01*
G75*
G02*
X77240000Y-144575000I-100000J0D01*
G01*
X75965000Y-144575000D01*
G75*
G02*
X75865000Y-144475000I0J100000D01*
G01*
G37*
G36*
G01*
X75865000Y-143825000D02*
X75865000Y-143625000D01*
G75*
G02*
X75965000Y-143525000I100000J0D01*
G01*
X77240000Y-143525000D01*
G75*
G02*
X77340000Y-143625000I0J-100000D01*
G01*
X77340000Y-143825000D01*
G75*
G02*
X77240000Y-143925000I-100000J0D01*
G01*
X75965000Y-143925000D01*
G75*
G02*
X75865000Y-143825000I0J100000D01*
G01*
G37*
G36*
G01*
X75865000Y-143175000D02*
X75865000Y-142975000D01*
G75*
G02*
X75965000Y-142875000I100000J0D01*
G01*
X77240000Y-142875000D01*
G75*
G02*
X77340000Y-142975000I0J-100000D01*
G01*
X77340000Y-143175000D01*
G75*
G02*
X77240000Y-143275000I-100000J0D01*
G01*
X75965000Y-143275000D01*
G75*
G02*
X75865000Y-143175000I0J100000D01*
G01*
G37*
G36*
G01*
X75865000Y-142525000D02*
X75865000Y-142325000D01*
G75*
G02*
X75965000Y-142225000I100000J0D01*
G01*
X77240000Y-142225000D01*
G75*
G02*
X77340000Y-142325000I0J-100000D01*
G01*
X77340000Y-142525000D01*
G75*
G02*
X77240000Y-142625000I-100000J0D01*
G01*
X75965000Y-142625000D01*
G75*
G02*
X75865000Y-142525000I0J100000D01*
G01*
G37*
G36*
G01*
X75865000Y-141875000D02*
X75865000Y-141675000D01*
G75*
G02*
X75965000Y-141575000I100000J0D01*
G01*
X77240000Y-141575000D01*
G75*
G02*
X77340000Y-141675000I0J-100000D01*
G01*
X77340000Y-141875000D01*
G75*
G02*
X77240000Y-141975000I-100000J0D01*
G01*
X75965000Y-141975000D01*
G75*
G02*
X75865000Y-141875000I0J100000D01*
G01*
G37*
G36*
G01*
X120140000Y-107875000D02*
X120140000Y-107675000D01*
G75*
G02*
X120240000Y-107575000I100000J0D01*
G01*
X121515000Y-107575000D01*
G75*
G02*
X121615000Y-107675000I0J-100000D01*
G01*
X121615000Y-107875000D01*
G75*
G02*
X121515000Y-107975000I-100000J0D01*
G01*
X120240000Y-107975000D01*
G75*
G02*
X120140000Y-107875000I0J100000D01*
G01*
G37*
G36*
G01*
X120140000Y-108525000D02*
X120140000Y-108325000D01*
G75*
G02*
X120240000Y-108225000I100000J0D01*
G01*
X121515000Y-108225000D01*
G75*
G02*
X121615000Y-108325000I0J-100000D01*
G01*
X121615000Y-108525000D01*
G75*
G02*
X121515000Y-108625000I-100000J0D01*
G01*
X120240000Y-108625000D01*
G75*
G02*
X120140000Y-108525000I0J100000D01*
G01*
G37*
G36*
G01*
X120140000Y-109175000D02*
X120140000Y-108975000D01*
G75*
G02*
X120240000Y-108875000I100000J0D01*
G01*
X121515000Y-108875000D01*
G75*
G02*
X121615000Y-108975000I0J-100000D01*
G01*
X121615000Y-109175000D01*
G75*
G02*
X121515000Y-109275000I-100000J0D01*
G01*
X120240000Y-109275000D01*
G75*
G02*
X120140000Y-109175000I0J100000D01*
G01*
G37*
G36*
G01*
X120140000Y-109825000D02*
X120140000Y-109625000D01*
G75*
G02*
X120240000Y-109525000I100000J0D01*
G01*
X121515000Y-109525000D01*
G75*
G02*
X121615000Y-109625000I0J-100000D01*
G01*
X121615000Y-109825000D01*
G75*
G02*
X121515000Y-109925000I-100000J0D01*
G01*
X120240000Y-109925000D01*
G75*
G02*
X120140000Y-109825000I0J100000D01*
G01*
G37*
G36*
G01*
X120140000Y-110475000D02*
X120140000Y-110275000D01*
G75*
G02*
X120240000Y-110175000I100000J0D01*
G01*
X121515000Y-110175000D01*
G75*
G02*
X121615000Y-110275000I0J-100000D01*
G01*
X121615000Y-110475000D01*
G75*
G02*
X121515000Y-110575000I-100000J0D01*
G01*
X120240000Y-110575000D01*
G75*
G02*
X120140000Y-110475000I0J100000D01*
G01*
G37*
G36*
G01*
X120140000Y-111125000D02*
X120140000Y-110925000D01*
G75*
G02*
X120240000Y-110825000I100000J0D01*
G01*
X121515000Y-110825000D01*
G75*
G02*
X121615000Y-110925000I0J-100000D01*
G01*
X121615000Y-111125000D01*
G75*
G02*
X121515000Y-111225000I-100000J0D01*
G01*
X120240000Y-111225000D01*
G75*
G02*
X120140000Y-111125000I0J100000D01*
G01*
G37*
G36*
G01*
X120140000Y-111775000D02*
X120140000Y-111575000D01*
G75*
G02*
X120240000Y-111475000I100000J0D01*
G01*
X121515000Y-111475000D01*
G75*
G02*
X121615000Y-111575000I0J-100000D01*
G01*
X121615000Y-111775000D01*
G75*
G02*
X121515000Y-111875000I-100000J0D01*
G01*
X120240000Y-111875000D01*
G75*
G02*
X120140000Y-111775000I0J100000D01*
G01*
G37*
G36*
G01*
X120140000Y-112425000D02*
X120140000Y-112225000D01*
G75*
G02*
X120240000Y-112125000I100000J0D01*
G01*
X121515000Y-112125000D01*
G75*
G02*
X121615000Y-112225000I0J-100000D01*
G01*
X121615000Y-112425000D01*
G75*
G02*
X121515000Y-112525000I-100000J0D01*
G01*
X120240000Y-112525000D01*
G75*
G02*
X120140000Y-112425000I0J100000D01*
G01*
G37*
G36*
G01*
X125865000Y-112425000D02*
X125865000Y-112225000D01*
G75*
G02*
X125965000Y-112125000I100000J0D01*
G01*
X127240000Y-112125000D01*
G75*
G02*
X127340000Y-112225000I0J-100000D01*
G01*
X127340000Y-112425000D01*
G75*
G02*
X127240000Y-112525000I-100000J0D01*
G01*
X125965000Y-112525000D01*
G75*
G02*
X125865000Y-112425000I0J100000D01*
G01*
G37*
G36*
G01*
X125865000Y-111775000D02*
X125865000Y-111575000D01*
G75*
G02*
X125965000Y-111475000I100000J0D01*
G01*
X127240000Y-111475000D01*
G75*
G02*
X127340000Y-111575000I0J-100000D01*
G01*
X127340000Y-111775000D01*
G75*
G02*
X127240000Y-111875000I-100000J0D01*
G01*
X125965000Y-111875000D01*
G75*
G02*
X125865000Y-111775000I0J100000D01*
G01*
G37*
G36*
G01*
X125865000Y-111125000D02*
X125865000Y-110925000D01*
G75*
G02*
X125965000Y-110825000I100000J0D01*
G01*
X127240000Y-110825000D01*
G75*
G02*
X127340000Y-110925000I0J-100000D01*
G01*
X127340000Y-111125000D01*
G75*
G02*
X127240000Y-111225000I-100000J0D01*
G01*
X125965000Y-111225000D01*
G75*
G02*
X125865000Y-111125000I0J100000D01*
G01*
G37*
G36*
G01*
X125865000Y-110475000D02*
X125865000Y-110275000D01*
G75*
G02*
X125965000Y-110175000I100000J0D01*
G01*
X127240000Y-110175000D01*
G75*
G02*
X127340000Y-110275000I0J-100000D01*
G01*
X127340000Y-110475000D01*
G75*
G02*
X127240000Y-110575000I-100000J0D01*
G01*
X125965000Y-110575000D01*
G75*
G02*
X125865000Y-110475000I0J100000D01*
G01*
G37*
G36*
G01*
X125865000Y-109825000D02*
X125865000Y-109625000D01*
G75*
G02*
X125965000Y-109525000I100000J0D01*
G01*
X127240000Y-109525000D01*
G75*
G02*
X127340000Y-109625000I0J-100000D01*
G01*
X127340000Y-109825000D01*
G75*
G02*
X127240000Y-109925000I-100000J0D01*
G01*
X125965000Y-109925000D01*
G75*
G02*
X125865000Y-109825000I0J100000D01*
G01*
G37*
G36*
G01*
X125865000Y-109175000D02*
X125865000Y-108975000D01*
G75*
G02*
X125965000Y-108875000I100000J0D01*
G01*
X127240000Y-108875000D01*
G75*
G02*
X127340000Y-108975000I0J-100000D01*
G01*
X127340000Y-109175000D01*
G75*
G02*
X127240000Y-109275000I-100000J0D01*
G01*
X125965000Y-109275000D01*
G75*
G02*
X125865000Y-109175000I0J100000D01*
G01*
G37*
G36*
G01*
X125865000Y-108525000D02*
X125865000Y-108325000D01*
G75*
G02*
X125965000Y-108225000I100000J0D01*
G01*
X127240000Y-108225000D01*
G75*
G02*
X127340000Y-108325000I0J-100000D01*
G01*
X127340000Y-108525000D01*
G75*
G02*
X127240000Y-108625000I-100000J0D01*
G01*
X125965000Y-108625000D01*
G75*
G02*
X125865000Y-108525000I0J100000D01*
G01*
G37*
G36*
G01*
X125865000Y-107875000D02*
X125865000Y-107675000D01*
G75*
G02*
X125965000Y-107575000I100000J0D01*
G01*
X127240000Y-107575000D01*
G75*
G02*
X127340000Y-107675000I0J-100000D01*
G01*
X127340000Y-107875000D01*
G75*
G02*
X127240000Y-107975000I-100000J0D01*
G01*
X125965000Y-107975000D01*
G75*
G02*
X125865000Y-107875000I0J100000D01*
G01*
G37*
G36*
G01*
X114726250Y-155865000D02*
X114213750Y-155865000D01*
G75*
G02*
X113995000Y-155646250I0J218750D01*
G01*
X113995000Y-155208750D01*
G75*
G02*
X114213750Y-154990000I218750J0D01*
G01*
X114726250Y-154990000D01*
G75*
G02*
X114945000Y-155208750I0J-218750D01*
G01*
X114945000Y-155646250D01*
G75*
G02*
X114726250Y-155865000I-218750J0D01*
G01*
G37*
G36*
G01*
X114726250Y-154290000D02*
X114213750Y-154290000D01*
G75*
G02*
X113995000Y-154071250I0J218750D01*
G01*
X113995000Y-153633750D01*
G75*
G02*
X114213750Y-153415000I218750J0D01*
G01*
X114726250Y-153415000D01*
G75*
G02*
X114945000Y-153633750I0J-218750D01*
G01*
X114945000Y-154071250D01*
G75*
G02*
X114726250Y-154290000I-218750J0D01*
G01*
G37*
G36*
G01*
X64726250Y-155865000D02*
X64213750Y-155865000D01*
G75*
G02*
X63995000Y-155646250I0J218750D01*
G01*
X63995000Y-155208750D01*
G75*
G02*
X64213750Y-154990000I218750J0D01*
G01*
X64726250Y-154990000D01*
G75*
G02*
X64945000Y-155208750I0J-218750D01*
G01*
X64945000Y-155646250D01*
G75*
G02*
X64726250Y-155865000I-218750J0D01*
G01*
G37*
G36*
G01*
X64726250Y-154290000D02*
X64213750Y-154290000D01*
G75*
G02*
X63995000Y-154071250I0J218750D01*
G01*
X63995000Y-153633750D01*
G75*
G02*
X64213750Y-153415000I218750J0D01*
G01*
X64726250Y-153415000D01*
G75*
G02*
X64945000Y-153633750I0J-218750D01*
G01*
X64945000Y-154071250D01*
G75*
G02*
X64726250Y-154290000I-218750J0D01*
G01*
G37*
G36*
G01*
X114726250Y-121865000D02*
X114213750Y-121865000D01*
G75*
G02*
X113995000Y-121646250I0J218750D01*
G01*
X113995000Y-121208750D01*
G75*
G02*
X114213750Y-120990000I218750J0D01*
G01*
X114726250Y-120990000D01*
G75*
G02*
X114945000Y-121208750I0J-218750D01*
G01*
X114945000Y-121646250D01*
G75*
G02*
X114726250Y-121865000I-218750J0D01*
G01*
G37*
G36*
G01*
X114726250Y-120290000D02*
X114213750Y-120290000D01*
G75*
G02*
X113995000Y-120071250I0J218750D01*
G01*
X113995000Y-119633750D01*
G75*
G02*
X114213750Y-119415000I218750J0D01*
G01*
X114726250Y-119415000D01*
G75*
G02*
X114945000Y-119633750I0J-218750D01*
G01*
X114945000Y-120071250D01*
G75*
G02*
X114726250Y-120290000I-218750J0D01*
G01*
G37*
D11*
X124684000Y-149702000D03*
X124684000Y-148752000D03*
X124684000Y-147802000D03*
X122484000Y-147802000D03*
X122484000Y-149702000D03*
X122484000Y-148752000D03*
X74684000Y-149702000D03*
X74684000Y-148752000D03*
X74684000Y-147802000D03*
X72484000Y-147802000D03*
X72484000Y-149702000D03*
X72484000Y-148752000D03*
X124684000Y-115702000D03*
X124684000Y-114752000D03*
X124684000Y-113802000D03*
X122484000Y-113802000D03*
X122484000Y-115702000D03*
X122484000Y-114752000D03*
G36*
G01*
X120120000Y-154385000D02*
X120120000Y-154185000D01*
G75*
G02*
X120220000Y-154085000I100000J0D01*
G01*
X121495000Y-154085000D01*
G75*
G02*
X121595000Y-154185000I0J-100000D01*
G01*
X121595000Y-154385000D01*
G75*
G02*
X121495000Y-154485000I-100000J0D01*
G01*
X120220000Y-154485000D01*
G75*
G02*
X120120000Y-154385000I0J100000D01*
G01*
G37*
G36*
G01*
X120120000Y-155035000D02*
X120120000Y-154835000D01*
G75*
G02*
X120220000Y-154735000I100000J0D01*
G01*
X121495000Y-154735000D01*
G75*
G02*
X121595000Y-154835000I0J-100000D01*
G01*
X121595000Y-155035000D01*
G75*
G02*
X121495000Y-155135000I-100000J0D01*
G01*
X120220000Y-155135000D01*
G75*
G02*
X120120000Y-155035000I0J100000D01*
G01*
G37*
G36*
G01*
X120120000Y-155685000D02*
X120120000Y-155485000D01*
G75*
G02*
X120220000Y-155385000I100000J0D01*
G01*
X121495000Y-155385000D01*
G75*
G02*
X121595000Y-155485000I0J-100000D01*
G01*
X121595000Y-155685000D01*
G75*
G02*
X121495000Y-155785000I-100000J0D01*
G01*
X120220000Y-155785000D01*
G75*
G02*
X120120000Y-155685000I0J100000D01*
G01*
G37*
G36*
G01*
X120120000Y-156335000D02*
X120120000Y-156135000D01*
G75*
G02*
X120220000Y-156035000I100000J0D01*
G01*
X121495000Y-156035000D01*
G75*
G02*
X121595000Y-156135000I0J-100000D01*
G01*
X121595000Y-156335000D01*
G75*
G02*
X121495000Y-156435000I-100000J0D01*
G01*
X120220000Y-156435000D01*
G75*
G02*
X120120000Y-156335000I0J100000D01*
G01*
G37*
G36*
G01*
X120120000Y-156985000D02*
X120120000Y-156785000D01*
G75*
G02*
X120220000Y-156685000I100000J0D01*
G01*
X121495000Y-156685000D01*
G75*
G02*
X121595000Y-156785000I0J-100000D01*
G01*
X121595000Y-156985000D01*
G75*
G02*
X121495000Y-157085000I-100000J0D01*
G01*
X120220000Y-157085000D01*
G75*
G02*
X120120000Y-156985000I0J100000D01*
G01*
G37*
G36*
G01*
X120120000Y-157635000D02*
X120120000Y-157435000D01*
G75*
G02*
X120220000Y-157335000I100000J0D01*
G01*
X121495000Y-157335000D01*
G75*
G02*
X121595000Y-157435000I0J-100000D01*
G01*
X121595000Y-157635000D01*
G75*
G02*
X121495000Y-157735000I-100000J0D01*
G01*
X120220000Y-157735000D01*
G75*
G02*
X120120000Y-157635000I0J100000D01*
G01*
G37*
G36*
G01*
X120120000Y-158285000D02*
X120120000Y-158085000D01*
G75*
G02*
X120220000Y-157985000I100000J0D01*
G01*
X121495000Y-157985000D01*
G75*
G02*
X121595000Y-158085000I0J-100000D01*
G01*
X121595000Y-158285000D01*
G75*
G02*
X121495000Y-158385000I-100000J0D01*
G01*
X120220000Y-158385000D01*
G75*
G02*
X120120000Y-158285000I0J100000D01*
G01*
G37*
G36*
G01*
X120120000Y-158935000D02*
X120120000Y-158735000D01*
G75*
G02*
X120220000Y-158635000I100000J0D01*
G01*
X121495000Y-158635000D01*
G75*
G02*
X121595000Y-158735000I0J-100000D01*
G01*
X121595000Y-158935000D01*
G75*
G02*
X121495000Y-159035000I-100000J0D01*
G01*
X120220000Y-159035000D01*
G75*
G02*
X120120000Y-158935000I0J100000D01*
G01*
G37*
G36*
G01*
X125845000Y-158935000D02*
X125845000Y-158735000D01*
G75*
G02*
X125945000Y-158635000I100000J0D01*
G01*
X127220000Y-158635000D01*
G75*
G02*
X127320000Y-158735000I0J-100000D01*
G01*
X127320000Y-158935000D01*
G75*
G02*
X127220000Y-159035000I-100000J0D01*
G01*
X125945000Y-159035000D01*
G75*
G02*
X125845000Y-158935000I0J100000D01*
G01*
G37*
G36*
G01*
X125845000Y-158285000D02*
X125845000Y-158085000D01*
G75*
G02*
X125945000Y-157985000I100000J0D01*
G01*
X127220000Y-157985000D01*
G75*
G02*
X127320000Y-158085000I0J-100000D01*
G01*
X127320000Y-158285000D01*
G75*
G02*
X127220000Y-158385000I-100000J0D01*
G01*
X125945000Y-158385000D01*
G75*
G02*
X125845000Y-158285000I0J100000D01*
G01*
G37*
G36*
G01*
X125845000Y-157635000D02*
X125845000Y-157435000D01*
G75*
G02*
X125945000Y-157335000I100000J0D01*
G01*
X127220000Y-157335000D01*
G75*
G02*
X127320000Y-157435000I0J-100000D01*
G01*
X127320000Y-157635000D01*
G75*
G02*
X127220000Y-157735000I-100000J0D01*
G01*
X125945000Y-157735000D01*
G75*
G02*
X125845000Y-157635000I0J100000D01*
G01*
G37*
G36*
G01*
X125845000Y-156985000D02*
X125845000Y-156785000D01*
G75*
G02*
X125945000Y-156685000I100000J0D01*
G01*
X127220000Y-156685000D01*
G75*
G02*
X127320000Y-156785000I0J-100000D01*
G01*
X127320000Y-156985000D01*
G75*
G02*
X127220000Y-157085000I-100000J0D01*
G01*
X125945000Y-157085000D01*
G75*
G02*
X125845000Y-156985000I0J100000D01*
G01*
G37*
G36*
G01*
X125845000Y-156335000D02*
X125845000Y-156135000D01*
G75*
G02*
X125945000Y-156035000I100000J0D01*
G01*
X127220000Y-156035000D01*
G75*
G02*
X127320000Y-156135000I0J-100000D01*
G01*
X127320000Y-156335000D01*
G75*
G02*
X127220000Y-156435000I-100000J0D01*
G01*
X125945000Y-156435000D01*
G75*
G02*
X125845000Y-156335000I0J100000D01*
G01*
G37*
G36*
G01*
X125845000Y-155685000D02*
X125845000Y-155485000D01*
G75*
G02*
X125945000Y-155385000I100000J0D01*
G01*
X127220000Y-155385000D01*
G75*
G02*
X127320000Y-155485000I0J-100000D01*
G01*
X127320000Y-155685000D01*
G75*
G02*
X127220000Y-155785000I-100000J0D01*
G01*
X125945000Y-155785000D01*
G75*
G02*
X125845000Y-155685000I0J100000D01*
G01*
G37*
G36*
G01*
X125845000Y-155035000D02*
X125845000Y-154835000D01*
G75*
G02*
X125945000Y-154735000I100000J0D01*
G01*
X127220000Y-154735000D01*
G75*
G02*
X127320000Y-154835000I0J-100000D01*
G01*
X127320000Y-155035000D01*
G75*
G02*
X127220000Y-155135000I-100000J0D01*
G01*
X125945000Y-155135000D01*
G75*
G02*
X125845000Y-155035000I0J100000D01*
G01*
G37*
G36*
G01*
X125845000Y-154385000D02*
X125845000Y-154185000D01*
G75*
G02*
X125945000Y-154085000I100000J0D01*
G01*
X127220000Y-154085000D01*
G75*
G02*
X127320000Y-154185000I0J-100000D01*
G01*
X127320000Y-154385000D01*
G75*
G02*
X127220000Y-154485000I-100000J0D01*
G01*
X125945000Y-154485000D01*
G75*
G02*
X125845000Y-154385000I0J100000D01*
G01*
G37*
G36*
G01*
X70120000Y-154385000D02*
X70120000Y-154185000D01*
G75*
G02*
X70220000Y-154085000I100000J0D01*
G01*
X71495000Y-154085000D01*
G75*
G02*
X71595000Y-154185000I0J-100000D01*
G01*
X71595000Y-154385000D01*
G75*
G02*
X71495000Y-154485000I-100000J0D01*
G01*
X70220000Y-154485000D01*
G75*
G02*
X70120000Y-154385000I0J100000D01*
G01*
G37*
G36*
G01*
X70120000Y-155035000D02*
X70120000Y-154835000D01*
G75*
G02*
X70220000Y-154735000I100000J0D01*
G01*
X71495000Y-154735000D01*
G75*
G02*
X71595000Y-154835000I0J-100000D01*
G01*
X71595000Y-155035000D01*
G75*
G02*
X71495000Y-155135000I-100000J0D01*
G01*
X70220000Y-155135000D01*
G75*
G02*
X70120000Y-155035000I0J100000D01*
G01*
G37*
G36*
G01*
X70120000Y-155685000D02*
X70120000Y-155485000D01*
G75*
G02*
X70220000Y-155385000I100000J0D01*
G01*
X71495000Y-155385000D01*
G75*
G02*
X71595000Y-155485000I0J-100000D01*
G01*
X71595000Y-155685000D01*
G75*
G02*
X71495000Y-155785000I-100000J0D01*
G01*
X70220000Y-155785000D01*
G75*
G02*
X70120000Y-155685000I0J100000D01*
G01*
G37*
G36*
G01*
X70120000Y-156335000D02*
X70120000Y-156135000D01*
G75*
G02*
X70220000Y-156035000I100000J0D01*
G01*
X71495000Y-156035000D01*
G75*
G02*
X71595000Y-156135000I0J-100000D01*
G01*
X71595000Y-156335000D01*
G75*
G02*
X71495000Y-156435000I-100000J0D01*
G01*
X70220000Y-156435000D01*
G75*
G02*
X70120000Y-156335000I0J100000D01*
G01*
G37*
G36*
G01*
X70120000Y-156985000D02*
X70120000Y-156785000D01*
G75*
G02*
X70220000Y-156685000I100000J0D01*
G01*
X71495000Y-156685000D01*
G75*
G02*
X71595000Y-156785000I0J-100000D01*
G01*
X71595000Y-156985000D01*
G75*
G02*
X71495000Y-157085000I-100000J0D01*
G01*
X70220000Y-157085000D01*
G75*
G02*
X70120000Y-156985000I0J100000D01*
G01*
G37*
G36*
G01*
X70120000Y-157635000D02*
X70120000Y-157435000D01*
G75*
G02*
X70220000Y-157335000I100000J0D01*
G01*
X71495000Y-157335000D01*
G75*
G02*
X71595000Y-157435000I0J-100000D01*
G01*
X71595000Y-157635000D01*
G75*
G02*
X71495000Y-157735000I-100000J0D01*
G01*
X70220000Y-157735000D01*
G75*
G02*
X70120000Y-157635000I0J100000D01*
G01*
G37*
G36*
G01*
X70120000Y-158285000D02*
X70120000Y-158085000D01*
G75*
G02*
X70220000Y-157985000I100000J0D01*
G01*
X71495000Y-157985000D01*
G75*
G02*
X71595000Y-158085000I0J-100000D01*
G01*
X71595000Y-158285000D01*
G75*
G02*
X71495000Y-158385000I-100000J0D01*
G01*
X70220000Y-158385000D01*
G75*
G02*
X70120000Y-158285000I0J100000D01*
G01*
G37*
G36*
G01*
X70120000Y-158935000D02*
X70120000Y-158735000D01*
G75*
G02*
X70220000Y-158635000I100000J0D01*
G01*
X71495000Y-158635000D01*
G75*
G02*
X71595000Y-158735000I0J-100000D01*
G01*
X71595000Y-158935000D01*
G75*
G02*
X71495000Y-159035000I-100000J0D01*
G01*
X70220000Y-159035000D01*
G75*
G02*
X70120000Y-158935000I0J100000D01*
G01*
G37*
G36*
G01*
X75845000Y-158935000D02*
X75845000Y-158735000D01*
G75*
G02*
X75945000Y-158635000I100000J0D01*
G01*
X77220000Y-158635000D01*
G75*
G02*
X77320000Y-158735000I0J-100000D01*
G01*
X77320000Y-158935000D01*
G75*
G02*
X77220000Y-159035000I-100000J0D01*
G01*
X75945000Y-159035000D01*
G75*
G02*
X75845000Y-158935000I0J100000D01*
G01*
G37*
G36*
G01*
X75845000Y-158285000D02*
X75845000Y-158085000D01*
G75*
G02*
X75945000Y-157985000I100000J0D01*
G01*
X77220000Y-157985000D01*
G75*
G02*
X77320000Y-158085000I0J-100000D01*
G01*
X77320000Y-158285000D01*
G75*
G02*
X77220000Y-158385000I-100000J0D01*
G01*
X75945000Y-158385000D01*
G75*
G02*
X75845000Y-158285000I0J100000D01*
G01*
G37*
G36*
G01*
X75845000Y-157635000D02*
X75845000Y-157435000D01*
G75*
G02*
X75945000Y-157335000I100000J0D01*
G01*
X77220000Y-157335000D01*
G75*
G02*
X77320000Y-157435000I0J-100000D01*
G01*
X77320000Y-157635000D01*
G75*
G02*
X77220000Y-157735000I-100000J0D01*
G01*
X75945000Y-157735000D01*
G75*
G02*
X75845000Y-157635000I0J100000D01*
G01*
G37*
G36*
G01*
X75845000Y-156985000D02*
X75845000Y-156785000D01*
G75*
G02*
X75945000Y-156685000I100000J0D01*
G01*
X77220000Y-156685000D01*
G75*
G02*
X77320000Y-156785000I0J-100000D01*
G01*
X77320000Y-156985000D01*
G75*
G02*
X77220000Y-157085000I-100000J0D01*
G01*
X75945000Y-157085000D01*
G75*
G02*
X75845000Y-156985000I0J100000D01*
G01*
G37*
G36*
G01*
X75845000Y-156335000D02*
X75845000Y-156135000D01*
G75*
G02*
X75945000Y-156035000I100000J0D01*
G01*
X77220000Y-156035000D01*
G75*
G02*
X77320000Y-156135000I0J-100000D01*
G01*
X77320000Y-156335000D01*
G75*
G02*
X77220000Y-156435000I-100000J0D01*
G01*
X75945000Y-156435000D01*
G75*
G02*
X75845000Y-156335000I0J100000D01*
G01*
G37*
G36*
G01*
X75845000Y-155685000D02*
X75845000Y-155485000D01*
G75*
G02*
X75945000Y-155385000I100000J0D01*
G01*
X77220000Y-155385000D01*
G75*
G02*
X77320000Y-155485000I0J-100000D01*
G01*
X77320000Y-155685000D01*
G75*
G02*
X77220000Y-155785000I-100000J0D01*
G01*
X75945000Y-155785000D01*
G75*
G02*
X75845000Y-155685000I0J100000D01*
G01*
G37*
G36*
G01*
X75845000Y-155035000D02*
X75845000Y-154835000D01*
G75*
G02*
X75945000Y-154735000I100000J0D01*
G01*
X77220000Y-154735000D01*
G75*
G02*
X77320000Y-154835000I0J-100000D01*
G01*
X77320000Y-155035000D01*
G75*
G02*
X77220000Y-155135000I-100000J0D01*
G01*
X75945000Y-155135000D01*
G75*
G02*
X75845000Y-155035000I0J100000D01*
G01*
G37*
G36*
G01*
X75845000Y-154385000D02*
X75845000Y-154185000D01*
G75*
G02*
X75945000Y-154085000I100000J0D01*
G01*
X77220000Y-154085000D01*
G75*
G02*
X77320000Y-154185000I0J-100000D01*
G01*
X77320000Y-154385000D01*
G75*
G02*
X77220000Y-154485000I-100000J0D01*
G01*
X75945000Y-154485000D01*
G75*
G02*
X75845000Y-154385000I0J100000D01*
G01*
G37*
G36*
G01*
X120120000Y-120385000D02*
X120120000Y-120185000D01*
G75*
G02*
X120220000Y-120085000I100000J0D01*
G01*
X121495000Y-120085000D01*
G75*
G02*
X121595000Y-120185000I0J-100000D01*
G01*
X121595000Y-120385000D01*
G75*
G02*
X121495000Y-120485000I-100000J0D01*
G01*
X120220000Y-120485000D01*
G75*
G02*
X120120000Y-120385000I0J100000D01*
G01*
G37*
G36*
G01*
X120120000Y-121035000D02*
X120120000Y-120835000D01*
G75*
G02*
X120220000Y-120735000I100000J0D01*
G01*
X121495000Y-120735000D01*
G75*
G02*
X121595000Y-120835000I0J-100000D01*
G01*
X121595000Y-121035000D01*
G75*
G02*
X121495000Y-121135000I-100000J0D01*
G01*
X120220000Y-121135000D01*
G75*
G02*
X120120000Y-121035000I0J100000D01*
G01*
G37*
G36*
G01*
X120120000Y-121685000D02*
X120120000Y-121485000D01*
G75*
G02*
X120220000Y-121385000I100000J0D01*
G01*
X121495000Y-121385000D01*
G75*
G02*
X121595000Y-121485000I0J-100000D01*
G01*
X121595000Y-121685000D01*
G75*
G02*
X121495000Y-121785000I-100000J0D01*
G01*
X120220000Y-121785000D01*
G75*
G02*
X120120000Y-121685000I0J100000D01*
G01*
G37*
G36*
G01*
X120120000Y-122335000D02*
X120120000Y-122135000D01*
G75*
G02*
X120220000Y-122035000I100000J0D01*
G01*
X121495000Y-122035000D01*
G75*
G02*
X121595000Y-122135000I0J-100000D01*
G01*
X121595000Y-122335000D01*
G75*
G02*
X121495000Y-122435000I-100000J0D01*
G01*
X120220000Y-122435000D01*
G75*
G02*
X120120000Y-122335000I0J100000D01*
G01*
G37*
G36*
G01*
X120120000Y-122985000D02*
X120120000Y-122785000D01*
G75*
G02*
X120220000Y-122685000I100000J0D01*
G01*
X121495000Y-122685000D01*
G75*
G02*
X121595000Y-122785000I0J-100000D01*
G01*
X121595000Y-122985000D01*
G75*
G02*
X121495000Y-123085000I-100000J0D01*
G01*
X120220000Y-123085000D01*
G75*
G02*
X120120000Y-122985000I0J100000D01*
G01*
G37*
G36*
G01*
X120120000Y-123635000D02*
X120120000Y-123435000D01*
G75*
G02*
X120220000Y-123335000I100000J0D01*
G01*
X121495000Y-123335000D01*
G75*
G02*
X121595000Y-123435000I0J-100000D01*
G01*
X121595000Y-123635000D01*
G75*
G02*
X121495000Y-123735000I-100000J0D01*
G01*
X120220000Y-123735000D01*
G75*
G02*
X120120000Y-123635000I0J100000D01*
G01*
G37*
G36*
G01*
X120120000Y-124285000D02*
X120120000Y-124085000D01*
G75*
G02*
X120220000Y-123985000I100000J0D01*
G01*
X121495000Y-123985000D01*
G75*
G02*
X121595000Y-124085000I0J-100000D01*
G01*
X121595000Y-124285000D01*
G75*
G02*
X121495000Y-124385000I-100000J0D01*
G01*
X120220000Y-124385000D01*
G75*
G02*
X120120000Y-124285000I0J100000D01*
G01*
G37*
G36*
G01*
X120120000Y-124935000D02*
X120120000Y-124735000D01*
G75*
G02*
X120220000Y-124635000I100000J0D01*
G01*
X121495000Y-124635000D01*
G75*
G02*
X121595000Y-124735000I0J-100000D01*
G01*
X121595000Y-124935000D01*
G75*
G02*
X121495000Y-125035000I-100000J0D01*
G01*
X120220000Y-125035000D01*
G75*
G02*
X120120000Y-124935000I0J100000D01*
G01*
G37*
G36*
G01*
X125845000Y-124935000D02*
X125845000Y-124735000D01*
G75*
G02*
X125945000Y-124635000I100000J0D01*
G01*
X127220000Y-124635000D01*
G75*
G02*
X127320000Y-124735000I0J-100000D01*
G01*
X127320000Y-124935000D01*
G75*
G02*
X127220000Y-125035000I-100000J0D01*
G01*
X125945000Y-125035000D01*
G75*
G02*
X125845000Y-124935000I0J100000D01*
G01*
G37*
G36*
G01*
X125845000Y-124285000D02*
X125845000Y-124085000D01*
G75*
G02*
X125945000Y-123985000I100000J0D01*
G01*
X127220000Y-123985000D01*
G75*
G02*
X127320000Y-124085000I0J-100000D01*
G01*
X127320000Y-124285000D01*
G75*
G02*
X127220000Y-124385000I-100000J0D01*
G01*
X125945000Y-124385000D01*
G75*
G02*
X125845000Y-124285000I0J100000D01*
G01*
G37*
G36*
G01*
X125845000Y-123635000D02*
X125845000Y-123435000D01*
G75*
G02*
X125945000Y-123335000I100000J0D01*
G01*
X127220000Y-123335000D01*
G75*
G02*
X127320000Y-123435000I0J-100000D01*
G01*
X127320000Y-123635000D01*
G75*
G02*
X127220000Y-123735000I-100000J0D01*
G01*
X125945000Y-123735000D01*
G75*
G02*
X125845000Y-123635000I0J100000D01*
G01*
G37*
G36*
G01*
X125845000Y-122985000D02*
X125845000Y-122785000D01*
G75*
G02*
X125945000Y-122685000I100000J0D01*
G01*
X127220000Y-122685000D01*
G75*
G02*
X127320000Y-122785000I0J-100000D01*
G01*
X127320000Y-122985000D01*
G75*
G02*
X127220000Y-123085000I-100000J0D01*
G01*
X125945000Y-123085000D01*
G75*
G02*
X125845000Y-122985000I0J100000D01*
G01*
G37*
G36*
G01*
X125845000Y-122335000D02*
X125845000Y-122135000D01*
G75*
G02*
X125945000Y-122035000I100000J0D01*
G01*
X127220000Y-122035000D01*
G75*
G02*
X127320000Y-122135000I0J-100000D01*
G01*
X127320000Y-122335000D01*
G75*
G02*
X127220000Y-122435000I-100000J0D01*
G01*
X125945000Y-122435000D01*
G75*
G02*
X125845000Y-122335000I0J100000D01*
G01*
G37*
G36*
G01*
X125845000Y-121685000D02*
X125845000Y-121485000D01*
G75*
G02*
X125945000Y-121385000I100000J0D01*
G01*
X127220000Y-121385000D01*
G75*
G02*
X127320000Y-121485000I0J-100000D01*
G01*
X127320000Y-121685000D01*
G75*
G02*
X127220000Y-121785000I-100000J0D01*
G01*
X125945000Y-121785000D01*
G75*
G02*
X125845000Y-121685000I0J100000D01*
G01*
G37*
G36*
G01*
X125845000Y-121035000D02*
X125845000Y-120835000D01*
G75*
G02*
X125945000Y-120735000I100000J0D01*
G01*
X127220000Y-120735000D01*
G75*
G02*
X127320000Y-120835000I0J-100000D01*
G01*
X127320000Y-121035000D01*
G75*
G02*
X127220000Y-121135000I-100000J0D01*
G01*
X125945000Y-121135000D01*
G75*
G02*
X125845000Y-121035000I0J100000D01*
G01*
G37*
G36*
G01*
X125845000Y-120385000D02*
X125845000Y-120185000D01*
G75*
G02*
X125945000Y-120085000I100000J0D01*
G01*
X127220000Y-120085000D01*
G75*
G02*
X127320000Y-120185000I0J-100000D01*
G01*
X127320000Y-120385000D01*
G75*
G02*
X127220000Y-120485000I-100000J0D01*
G01*
X125945000Y-120485000D01*
G75*
G02*
X125845000Y-120385000I0J100000D01*
G01*
G37*
D17*
X120670000Y-165910000D03*
X70670000Y-165910000D03*
X120670000Y-131910000D03*
X116400000Y-165910000D03*
X66400000Y-165910000D03*
X116400000Y-131910000D03*
X118500000Y-165930000D03*
X68500000Y-165930000D03*
X118500000Y-131930000D03*
G36*
G01*
X131985000Y-144935000D02*
X131985000Y-144385000D01*
G75*
G02*
X132185000Y-144185000I200000J0D01*
G01*
X132585000Y-144185000D01*
G75*
G02*
X132785000Y-144385000I0J-200000D01*
G01*
X132785000Y-144935000D01*
G75*
G02*
X132585000Y-145135000I-200000J0D01*
G01*
X132185000Y-145135000D01*
G75*
G02*
X131985000Y-144935000I0J200000D01*
G01*
G37*
G36*
G01*
X133635000Y-144935000D02*
X133635000Y-144385000D01*
G75*
G02*
X133835000Y-144185000I200000J0D01*
G01*
X134235000Y-144185000D01*
G75*
G02*
X134435000Y-144385000I0J-200000D01*
G01*
X134435000Y-144935000D01*
G75*
G02*
X134235000Y-145135000I-200000J0D01*
G01*
X133835000Y-145135000D01*
G75*
G02*
X133635000Y-144935000I0J200000D01*
G01*
G37*
G36*
G01*
X81985000Y-144935000D02*
X81985000Y-144385000D01*
G75*
G02*
X82185000Y-144185000I200000J0D01*
G01*
X82585000Y-144185000D01*
G75*
G02*
X82785000Y-144385000I0J-200000D01*
G01*
X82785000Y-144935000D01*
G75*
G02*
X82585000Y-145135000I-200000J0D01*
G01*
X82185000Y-145135000D01*
G75*
G02*
X81985000Y-144935000I0J200000D01*
G01*
G37*
G36*
G01*
X83635000Y-144935000D02*
X83635000Y-144385000D01*
G75*
G02*
X83835000Y-144185000I200000J0D01*
G01*
X84235000Y-144185000D01*
G75*
G02*
X84435000Y-144385000I0J-200000D01*
G01*
X84435000Y-144935000D01*
G75*
G02*
X84235000Y-145135000I-200000J0D01*
G01*
X83835000Y-145135000D01*
G75*
G02*
X83635000Y-144935000I0J200000D01*
G01*
G37*
G36*
G01*
X131985000Y-110935000D02*
X131985000Y-110385000D01*
G75*
G02*
X132185000Y-110185000I200000J0D01*
G01*
X132585000Y-110185000D01*
G75*
G02*
X132785000Y-110385000I0J-200000D01*
G01*
X132785000Y-110935000D01*
G75*
G02*
X132585000Y-111135000I-200000J0D01*
G01*
X132185000Y-111135000D01*
G75*
G02*
X131985000Y-110935000I0J200000D01*
G01*
G37*
G36*
G01*
X133635000Y-110935000D02*
X133635000Y-110385000D01*
G75*
G02*
X133835000Y-110185000I200000J0D01*
G01*
X134235000Y-110185000D01*
G75*
G02*
X134435000Y-110385000I0J-200000D01*
G01*
X134435000Y-110935000D01*
G75*
G02*
X134235000Y-111135000I-200000J0D01*
G01*
X133835000Y-111135000D01*
G75*
G02*
X133635000Y-110935000I0J200000D01*
G01*
G37*
G36*
G01*
X64726250Y-120290000D02*
X64213750Y-120290000D01*
G75*
G02*
X63995000Y-120071250I0J218750D01*
G01*
X63995000Y-119633750D01*
G75*
G02*
X64213750Y-119415000I218750J0D01*
G01*
X64726250Y-119415000D01*
G75*
G02*
X64945000Y-119633750I0J-218750D01*
G01*
X64945000Y-120071250D01*
G75*
G02*
X64726250Y-120290000I-218750J0D01*
G01*
G37*
G36*
G01*
X64726250Y-121865000D02*
X64213750Y-121865000D01*
G75*
G02*
X63995000Y-121646250I0J218750D01*
G01*
X63995000Y-121208750D01*
G75*
G02*
X64213750Y-120990000I218750J0D01*
G01*
X64726250Y-120990000D01*
G75*
G02*
X64945000Y-121208750I0J-218750D01*
G01*
X64945000Y-121646250D01*
G75*
G02*
X64726250Y-121865000I-218750J0D01*
G01*
G37*
D16*
X52640000Y-121325000D03*
X52640000Y-112675000D03*
D15*
X56020000Y-121325000D03*
X56020000Y-112675000D03*
D14*
X55650000Y-117425000D03*
X55650000Y-119975000D03*
X55650000Y-119125000D03*
X55650000Y-118275000D03*
X55650000Y-114025000D03*
X55650000Y-115725000D03*
X55650000Y-116575000D03*
X55650000Y-114875000D03*
X57000000Y-119975000D03*
X57000000Y-119125000D03*
X57000000Y-118275000D03*
X57000000Y-117425000D03*
X57000000Y-116575000D03*
X57000000Y-115725000D03*
X57000000Y-114875000D03*
X57000000Y-114025000D03*
D11*
X72484000Y-114752000D03*
X72484000Y-115702000D03*
X72484000Y-113802000D03*
X74684000Y-113802000D03*
X74684000Y-114752000D03*
X74684000Y-115702000D03*
G36*
G01*
X75845000Y-120385000D02*
X75845000Y-120185000D01*
G75*
G02*
X75945000Y-120085000I100000J0D01*
G01*
X77220000Y-120085000D01*
G75*
G02*
X77320000Y-120185000I0J-100000D01*
G01*
X77320000Y-120385000D01*
G75*
G02*
X77220000Y-120485000I-100000J0D01*
G01*
X75945000Y-120485000D01*
G75*
G02*
X75845000Y-120385000I0J100000D01*
G01*
G37*
G36*
G01*
X75845000Y-121035000D02*
X75845000Y-120835000D01*
G75*
G02*
X75945000Y-120735000I100000J0D01*
G01*
X77220000Y-120735000D01*
G75*
G02*
X77320000Y-120835000I0J-100000D01*
G01*
X77320000Y-121035000D01*
G75*
G02*
X77220000Y-121135000I-100000J0D01*
G01*
X75945000Y-121135000D01*
G75*
G02*
X75845000Y-121035000I0J100000D01*
G01*
G37*
G36*
G01*
X75845000Y-121685000D02*
X75845000Y-121485000D01*
G75*
G02*
X75945000Y-121385000I100000J0D01*
G01*
X77220000Y-121385000D01*
G75*
G02*
X77320000Y-121485000I0J-100000D01*
G01*
X77320000Y-121685000D01*
G75*
G02*
X77220000Y-121785000I-100000J0D01*
G01*
X75945000Y-121785000D01*
G75*
G02*
X75845000Y-121685000I0J100000D01*
G01*
G37*
G36*
G01*
X75845000Y-122335000D02*
X75845000Y-122135000D01*
G75*
G02*
X75945000Y-122035000I100000J0D01*
G01*
X77220000Y-122035000D01*
G75*
G02*
X77320000Y-122135000I0J-100000D01*
G01*
X77320000Y-122335000D01*
G75*
G02*
X77220000Y-122435000I-100000J0D01*
G01*
X75945000Y-122435000D01*
G75*
G02*
X75845000Y-122335000I0J100000D01*
G01*
G37*
G36*
G01*
X75845000Y-122985000D02*
X75845000Y-122785000D01*
G75*
G02*
X75945000Y-122685000I100000J0D01*
G01*
X77220000Y-122685000D01*
G75*
G02*
X77320000Y-122785000I0J-100000D01*
G01*
X77320000Y-122985000D01*
G75*
G02*
X77220000Y-123085000I-100000J0D01*
G01*
X75945000Y-123085000D01*
G75*
G02*
X75845000Y-122985000I0J100000D01*
G01*
G37*
G36*
G01*
X75845000Y-123635000D02*
X75845000Y-123435000D01*
G75*
G02*
X75945000Y-123335000I100000J0D01*
G01*
X77220000Y-123335000D01*
G75*
G02*
X77320000Y-123435000I0J-100000D01*
G01*
X77320000Y-123635000D01*
G75*
G02*
X77220000Y-123735000I-100000J0D01*
G01*
X75945000Y-123735000D01*
G75*
G02*
X75845000Y-123635000I0J100000D01*
G01*
G37*
G36*
G01*
X75845000Y-124285000D02*
X75845000Y-124085000D01*
G75*
G02*
X75945000Y-123985000I100000J0D01*
G01*
X77220000Y-123985000D01*
G75*
G02*
X77320000Y-124085000I0J-100000D01*
G01*
X77320000Y-124285000D01*
G75*
G02*
X77220000Y-124385000I-100000J0D01*
G01*
X75945000Y-124385000D01*
G75*
G02*
X75845000Y-124285000I0J100000D01*
G01*
G37*
G36*
G01*
X75845000Y-124935000D02*
X75845000Y-124735000D01*
G75*
G02*
X75945000Y-124635000I100000J0D01*
G01*
X77220000Y-124635000D01*
G75*
G02*
X77320000Y-124735000I0J-100000D01*
G01*
X77320000Y-124935000D01*
G75*
G02*
X77220000Y-125035000I-100000J0D01*
G01*
X75945000Y-125035000D01*
G75*
G02*
X75845000Y-124935000I0J100000D01*
G01*
G37*
G36*
G01*
X70120000Y-124935000D02*
X70120000Y-124735000D01*
G75*
G02*
X70220000Y-124635000I100000J0D01*
G01*
X71495000Y-124635000D01*
G75*
G02*
X71595000Y-124735000I0J-100000D01*
G01*
X71595000Y-124935000D01*
G75*
G02*
X71495000Y-125035000I-100000J0D01*
G01*
X70220000Y-125035000D01*
G75*
G02*
X70120000Y-124935000I0J100000D01*
G01*
G37*
G36*
G01*
X70120000Y-124285000D02*
X70120000Y-124085000D01*
G75*
G02*
X70220000Y-123985000I100000J0D01*
G01*
X71495000Y-123985000D01*
G75*
G02*
X71595000Y-124085000I0J-100000D01*
G01*
X71595000Y-124285000D01*
G75*
G02*
X71495000Y-124385000I-100000J0D01*
G01*
X70220000Y-124385000D01*
G75*
G02*
X70120000Y-124285000I0J100000D01*
G01*
G37*
G36*
G01*
X70120000Y-123635000D02*
X70120000Y-123435000D01*
G75*
G02*
X70220000Y-123335000I100000J0D01*
G01*
X71495000Y-123335000D01*
G75*
G02*
X71595000Y-123435000I0J-100000D01*
G01*
X71595000Y-123635000D01*
G75*
G02*
X71495000Y-123735000I-100000J0D01*
G01*
X70220000Y-123735000D01*
G75*
G02*
X70120000Y-123635000I0J100000D01*
G01*
G37*
G36*
G01*
X70120000Y-122985000D02*
X70120000Y-122785000D01*
G75*
G02*
X70220000Y-122685000I100000J0D01*
G01*
X71495000Y-122685000D01*
G75*
G02*
X71595000Y-122785000I0J-100000D01*
G01*
X71595000Y-122985000D01*
G75*
G02*
X71495000Y-123085000I-100000J0D01*
G01*
X70220000Y-123085000D01*
G75*
G02*
X70120000Y-122985000I0J100000D01*
G01*
G37*
G36*
G01*
X70120000Y-122335000D02*
X70120000Y-122135000D01*
G75*
G02*
X70220000Y-122035000I100000J0D01*
G01*
X71495000Y-122035000D01*
G75*
G02*
X71595000Y-122135000I0J-100000D01*
G01*
X71595000Y-122335000D01*
G75*
G02*
X71495000Y-122435000I-100000J0D01*
G01*
X70220000Y-122435000D01*
G75*
G02*
X70120000Y-122335000I0J100000D01*
G01*
G37*
G36*
G01*
X70120000Y-121685000D02*
X70120000Y-121485000D01*
G75*
G02*
X70220000Y-121385000I100000J0D01*
G01*
X71495000Y-121385000D01*
G75*
G02*
X71595000Y-121485000I0J-100000D01*
G01*
X71595000Y-121685000D01*
G75*
G02*
X71495000Y-121785000I-100000J0D01*
G01*
X70220000Y-121785000D01*
G75*
G02*
X70120000Y-121685000I0J100000D01*
G01*
G37*
G36*
G01*
X70120000Y-121035000D02*
X70120000Y-120835000D01*
G75*
G02*
X70220000Y-120735000I100000J0D01*
G01*
X71495000Y-120735000D01*
G75*
G02*
X71595000Y-120835000I0J-100000D01*
G01*
X71595000Y-121035000D01*
G75*
G02*
X71495000Y-121135000I-100000J0D01*
G01*
X70220000Y-121135000D01*
G75*
G02*
X70120000Y-121035000I0J100000D01*
G01*
G37*
G36*
G01*
X70120000Y-120385000D02*
X70120000Y-120185000D01*
G75*
G02*
X70220000Y-120085000I100000J0D01*
G01*
X71495000Y-120085000D01*
G75*
G02*
X71595000Y-120185000I0J-100000D01*
G01*
X71595000Y-120385000D01*
G75*
G02*
X71495000Y-120485000I-100000J0D01*
G01*
X70220000Y-120485000D01*
G75*
G02*
X70120000Y-120385000I0J100000D01*
G01*
G37*
G36*
G01*
X75865000Y-107875000D02*
X75865000Y-107675000D01*
G75*
G02*
X75965000Y-107575000I100000J0D01*
G01*
X77240000Y-107575000D01*
G75*
G02*
X77340000Y-107675000I0J-100000D01*
G01*
X77340000Y-107875000D01*
G75*
G02*
X77240000Y-107975000I-100000J0D01*
G01*
X75965000Y-107975000D01*
G75*
G02*
X75865000Y-107875000I0J100000D01*
G01*
G37*
G36*
G01*
X75865000Y-108525000D02*
X75865000Y-108325000D01*
G75*
G02*
X75965000Y-108225000I100000J0D01*
G01*
X77240000Y-108225000D01*
G75*
G02*
X77340000Y-108325000I0J-100000D01*
G01*
X77340000Y-108525000D01*
G75*
G02*
X77240000Y-108625000I-100000J0D01*
G01*
X75965000Y-108625000D01*
G75*
G02*
X75865000Y-108525000I0J100000D01*
G01*
G37*
G36*
G01*
X75865000Y-109175000D02*
X75865000Y-108975000D01*
G75*
G02*
X75965000Y-108875000I100000J0D01*
G01*
X77240000Y-108875000D01*
G75*
G02*
X77340000Y-108975000I0J-100000D01*
G01*
X77340000Y-109175000D01*
G75*
G02*
X77240000Y-109275000I-100000J0D01*
G01*
X75965000Y-109275000D01*
G75*
G02*
X75865000Y-109175000I0J100000D01*
G01*
G37*
G36*
G01*
X75865000Y-109825000D02*
X75865000Y-109625000D01*
G75*
G02*
X75965000Y-109525000I100000J0D01*
G01*
X77240000Y-109525000D01*
G75*
G02*
X77340000Y-109625000I0J-100000D01*
G01*
X77340000Y-109825000D01*
G75*
G02*
X77240000Y-109925000I-100000J0D01*
G01*
X75965000Y-109925000D01*
G75*
G02*
X75865000Y-109825000I0J100000D01*
G01*
G37*
G36*
G01*
X75865000Y-110475000D02*
X75865000Y-110275000D01*
G75*
G02*
X75965000Y-110175000I100000J0D01*
G01*
X77240000Y-110175000D01*
G75*
G02*
X77340000Y-110275000I0J-100000D01*
G01*
X77340000Y-110475000D01*
G75*
G02*
X77240000Y-110575000I-100000J0D01*
G01*
X75965000Y-110575000D01*
G75*
G02*
X75865000Y-110475000I0J100000D01*
G01*
G37*
G36*
G01*
X75865000Y-111125000D02*
X75865000Y-110925000D01*
G75*
G02*
X75965000Y-110825000I100000J0D01*
G01*
X77240000Y-110825000D01*
G75*
G02*
X77340000Y-110925000I0J-100000D01*
G01*
X77340000Y-111125000D01*
G75*
G02*
X77240000Y-111225000I-100000J0D01*
G01*
X75965000Y-111225000D01*
G75*
G02*
X75865000Y-111125000I0J100000D01*
G01*
G37*
G36*
G01*
X75865000Y-111775000D02*
X75865000Y-111575000D01*
G75*
G02*
X75965000Y-111475000I100000J0D01*
G01*
X77240000Y-111475000D01*
G75*
G02*
X77340000Y-111575000I0J-100000D01*
G01*
X77340000Y-111775000D01*
G75*
G02*
X77240000Y-111875000I-100000J0D01*
G01*
X75965000Y-111875000D01*
G75*
G02*
X75865000Y-111775000I0J100000D01*
G01*
G37*
G36*
G01*
X75865000Y-112425000D02*
X75865000Y-112225000D01*
G75*
G02*
X75965000Y-112125000I100000J0D01*
G01*
X77240000Y-112125000D01*
G75*
G02*
X77340000Y-112225000I0J-100000D01*
G01*
X77340000Y-112425000D01*
G75*
G02*
X77240000Y-112525000I-100000J0D01*
G01*
X75965000Y-112525000D01*
G75*
G02*
X75865000Y-112425000I0J100000D01*
G01*
G37*
G36*
G01*
X70140000Y-112425000D02*
X70140000Y-112225000D01*
G75*
G02*
X70240000Y-112125000I100000J0D01*
G01*
X71515000Y-112125000D01*
G75*
G02*
X71615000Y-112225000I0J-100000D01*
G01*
X71615000Y-112425000D01*
G75*
G02*
X71515000Y-112525000I-100000J0D01*
G01*
X70240000Y-112525000D01*
G75*
G02*
X70140000Y-112425000I0J100000D01*
G01*
G37*
G36*
G01*
X70140000Y-111775000D02*
X70140000Y-111575000D01*
G75*
G02*
X70240000Y-111475000I100000J0D01*
G01*
X71515000Y-111475000D01*
G75*
G02*
X71615000Y-111575000I0J-100000D01*
G01*
X71615000Y-111775000D01*
G75*
G02*
X71515000Y-111875000I-100000J0D01*
G01*
X70240000Y-111875000D01*
G75*
G02*
X70140000Y-111775000I0J100000D01*
G01*
G37*
G36*
G01*
X70140000Y-111125000D02*
X70140000Y-110925000D01*
G75*
G02*
X70240000Y-110825000I100000J0D01*
G01*
X71515000Y-110825000D01*
G75*
G02*
X71615000Y-110925000I0J-100000D01*
G01*
X71615000Y-111125000D01*
G75*
G02*
X71515000Y-111225000I-100000J0D01*
G01*
X70240000Y-111225000D01*
G75*
G02*
X70140000Y-111125000I0J100000D01*
G01*
G37*
G36*
G01*
X70140000Y-110475000D02*
X70140000Y-110275000D01*
G75*
G02*
X70240000Y-110175000I100000J0D01*
G01*
X71515000Y-110175000D01*
G75*
G02*
X71615000Y-110275000I0J-100000D01*
G01*
X71615000Y-110475000D01*
G75*
G02*
X71515000Y-110575000I-100000J0D01*
G01*
X70240000Y-110575000D01*
G75*
G02*
X70140000Y-110475000I0J100000D01*
G01*
G37*
G36*
G01*
X70140000Y-109825000D02*
X70140000Y-109625000D01*
G75*
G02*
X70240000Y-109525000I100000J0D01*
G01*
X71515000Y-109525000D01*
G75*
G02*
X71615000Y-109625000I0J-100000D01*
G01*
X71615000Y-109825000D01*
G75*
G02*
X71515000Y-109925000I-100000J0D01*
G01*
X70240000Y-109925000D01*
G75*
G02*
X70140000Y-109825000I0J100000D01*
G01*
G37*
G36*
G01*
X70140000Y-109175000D02*
X70140000Y-108975000D01*
G75*
G02*
X70240000Y-108875000I100000J0D01*
G01*
X71515000Y-108875000D01*
G75*
G02*
X71615000Y-108975000I0J-100000D01*
G01*
X71615000Y-109175000D01*
G75*
G02*
X71515000Y-109275000I-100000J0D01*
G01*
X70240000Y-109275000D01*
G75*
G02*
X70140000Y-109175000I0J100000D01*
G01*
G37*
G36*
G01*
X70140000Y-108525000D02*
X70140000Y-108325000D01*
G75*
G02*
X70240000Y-108225000I100000J0D01*
G01*
X71515000Y-108225000D01*
G75*
G02*
X71615000Y-108325000I0J-100000D01*
G01*
X71615000Y-108525000D01*
G75*
G02*
X71515000Y-108625000I-100000J0D01*
G01*
X70240000Y-108625000D01*
G75*
G02*
X70140000Y-108525000I0J100000D01*
G01*
G37*
G36*
G01*
X70140000Y-107875000D02*
X70140000Y-107675000D01*
G75*
G02*
X70240000Y-107575000I100000J0D01*
G01*
X71515000Y-107575000D01*
G75*
G02*
X71615000Y-107675000I0J-100000D01*
G01*
X71615000Y-107875000D01*
G75*
G02*
X71515000Y-107975000I-100000J0D01*
G01*
X70240000Y-107975000D01*
G75*
G02*
X70140000Y-107875000I0J100000D01*
G01*
G37*
D17*
X68500000Y-131930000D03*
X66400000Y-131910000D03*
X70670000Y-131910000D03*
G36*
G01*
X83635000Y-110935000D02*
X83635000Y-110385000D01*
G75*
G02*
X83835000Y-110185000I200000J0D01*
G01*
X84235000Y-110185000D01*
G75*
G02*
X84435000Y-110385000I0J-200000D01*
G01*
X84435000Y-110935000D01*
G75*
G02*
X84235000Y-111135000I-200000J0D01*
G01*
X83835000Y-111135000D01*
G75*
G02*
X83635000Y-110935000I0J200000D01*
G01*
G37*
G36*
G01*
X81985000Y-110935000D02*
X81985000Y-110385000D01*
G75*
G02*
X82185000Y-110185000I200000J0D01*
G01*
X82585000Y-110185000D01*
G75*
G02*
X82785000Y-110385000I0J-200000D01*
G01*
X82785000Y-110935000D01*
G75*
G02*
X82585000Y-111135000I-200000J0D01*
G01*
X82185000Y-111135000D01*
G75*
G02*
X81985000Y-110935000I0J200000D01*
G01*
G37*
G36*
G01*
X83655000Y-121105000D02*
X83655000Y-120555000D01*
G75*
G02*
X83855000Y-120355000I200000J0D01*
G01*
X84255000Y-120355000D01*
G75*
G02*
X84455000Y-120555000I0J-200000D01*
G01*
X84455000Y-121105000D01*
G75*
G02*
X84255000Y-121305000I-200000J0D01*
G01*
X83855000Y-121305000D01*
G75*
G02*
X83655000Y-121105000I0J200000D01*
G01*
G37*
G36*
G01*
X82005000Y-121105000D02*
X82005000Y-120555000D01*
G75*
G02*
X82205000Y-120355000I200000J0D01*
G01*
X82605000Y-120355000D01*
G75*
G02*
X82805000Y-120555000I0J-200000D01*
G01*
X82805000Y-121105000D01*
G75*
G02*
X82605000Y-121305000I-200000J0D01*
G01*
X82205000Y-121305000D01*
G75*
G02*
X82005000Y-121105000I0J200000D01*
G01*
G37*
G36*
G01*
X83645000Y-113465000D02*
X83645000Y-112915000D01*
G75*
G02*
X83845000Y-112715000I200000J0D01*
G01*
X84245000Y-112715000D01*
G75*
G02*
X84445000Y-112915000I0J-200000D01*
G01*
X84445000Y-113465000D01*
G75*
G02*
X84245000Y-113665000I-200000J0D01*
G01*
X83845000Y-113665000D01*
G75*
G02*
X83645000Y-113465000I0J200000D01*
G01*
G37*
G36*
G01*
X81995000Y-113465000D02*
X81995000Y-112915000D01*
G75*
G02*
X82195000Y-112715000I200000J0D01*
G01*
X82595000Y-112715000D01*
G75*
G02*
X82795000Y-112915000I0J-200000D01*
G01*
X82795000Y-113465000D01*
G75*
G02*
X82595000Y-113665000I-200000J0D01*
G01*
X82195000Y-113665000D01*
G75*
G02*
X81995000Y-113465000I0J200000D01*
G01*
G37*
G36*
G01*
X83625000Y-116015000D02*
X83625000Y-115465000D01*
G75*
G02*
X83825000Y-115265000I200000J0D01*
G01*
X84225000Y-115265000D01*
G75*
G02*
X84425000Y-115465000I0J-200000D01*
G01*
X84425000Y-116015000D01*
G75*
G02*
X84225000Y-116215000I-200000J0D01*
G01*
X83825000Y-116215000D01*
G75*
G02*
X83625000Y-116015000I0J200000D01*
G01*
G37*
G36*
G01*
X81975000Y-116015000D02*
X81975000Y-115465000D01*
G75*
G02*
X82175000Y-115265000I200000J0D01*
G01*
X82575000Y-115265000D01*
G75*
G02*
X82775000Y-115465000I0J-200000D01*
G01*
X82775000Y-116015000D01*
G75*
G02*
X82575000Y-116215000I-200000J0D01*
G01*
X82175000Y-116215000D01*
G75*
G02*
X81975000Y-116015000I0J200000D01*
G01*
G37*
G36*
G01*
X83625000Y-118555000D02*
X83625000Y-118005000D01*
G75*
G02*
X83825000Y-117805000I200000J0D01*
G01*
X84225000Y-117805000D01*
G75*
G02*
X84425000Y-118005000I0J-200000D01*
G01*
X84425000Y-118555000D01*
G75*
G02*
X84225000Y-118755000I-200000J0D01*
G01*
X83825000Y-118755000D01*
G75*
G02*
X83625000Y-118555000I0J200000D01*
G01*
G37*
G36*
G01*
X81975000Y-118555000D02*
X81975000Y-118005000D01*
G75*
G02*
X82175000Y-117805000I200000J0D01*
G01*
X82575000Y-117805000D01*
G75*
G02*
X82775000Y-118005000I0J-200000D01*
G01*
X82775000Y-118555000D01*
G75*
G02*
X82575000Y-118755000I-200000J0D01*
G01*
X82175000Y-118755000D01*
G75*
G02*
X81975000Y-118555000I0J200000D01*
G01*
G37*
G36*
G01*
X83655000Y-123635000D02*
X83655000Y-123085000D01*
G75*
G02*
X83855000Y-122885000I200000J0D01*
G01*
X84255000Y-122885000D01*
G75*
G02*
X84455000Y-123085000I0J-200000D01*
G01*
X84455000Y-123635000D01*
G75*
G02*
X84255000Y-123835000I-200000J0D01*
G01*
X83855000Y-123835000D01*
G75*
G02*
X83655000Y-123635000I0J200000D01*
G01*
G37*
G36*
G01*
X82005000Y-123635000D02*
X82005000Y-123085000D01*
G75*
G02*
X82205000Y-122885000I200000J0D01*
G01*
X82605000Y-122885000D01*
G75*
G02*
X82805000Y-123085000I0J-200000D01*
G01*
X82805000Y-123635000D01*
G75*
G02*
X82605000Y-123835000I-200000J0D01*
G01*
X82205000Y-123835000D01*
G75*
G02*
X82005000Y-123635000I0J200000D01*
G01*
G37*
G36*
G01*
X83605000Y-108395000D02*
X83605000Y-107845000D01*
G75*
G02*
X83805000Y-107645000I200000J0D01*
G01*
X84205000Y-107645000D01*
G75*
G02*
X84405000Y-107845000I0J-200000D01*
G01*
X84405000Y-108395000D01*
G75*
G02*
X84205000Y-108595000I-200000J0D01*
G01*
X83805000Y-108595000D01*
G75*
G02*
X83605000Y-108395000I0J200000D01*
G01*
G37*
G36*
G01*
X81955000Y-108395000D02*
X81955000Y-107845000D01*
G75*
G02*
X82155000Y-107645000I200000J0D01*
G01*
X82555000Y-107645000D01*
G75*
G02*
X82755000Y-107845000I0J-200000D01*
G01*
X82755000Y-108395000D01*
G75*
G02*
X82555000Y-108595000I-200000J0D01*
G01*
X82155000Y-108595000D01*
G75*
G02*
X81955000Y-108395000I0J200000D01*
G01*
G37*
G36*
G01*
X83725000Y-126565000D02*
X84275000Y-126565000D01*
G75*
G02*
X84475000Y-126765000I0J-200000D01*
G01*
X84475000Y-127165000D01*
G75*
G02*
X84275000Y-127365000I-200000J0D01*
G01*
X83725000Y-127365000D01*
G75*
G02*
X83525000Y-127165000I0J200000D01*
G01*
X83525000Y-126765000D01*
G75*
G02*
X83725000Y-126565000I200000J0D01*
G01*
G37*
G36*
G01*
X83725000Y-124915000D02*
X84275000Y-124915000D01*
G75*
G02*
X84475000Y-125115000I0J-200000D01*
G01*
X84475000Y-125515000D01*
G75*
G02*
X84275000Y-125715000I-200000J0D01*
G01*
X83725000Y-125715000D01*
G75*
G02*
X83525000Y-125515000I0J200000D01*
G01*
X83525000Y-125115000D01*
G75*
G02*
X83725000Y-124915000I200000J0D01*
G01*
G37*
G36*
G01*
X76895000Y-103885000D02*
X77445000Y-103885000D01*
G75*
G02*
X77645000Y-104085000I0J-200000D01*
G01*
X77645000Y-104485000D01*
G75*
G02*
X77445000Y-104685000I-200000J0D01*
G01*
X76895000Y-104685000D01*
G75*
G02*
X76695000Y-104485000I0J200000D01*
G01*
X76695000Y-104085000D01*
G75*
G02*
X76895000Y-103885000I200000J0D01*
G01*
G37*
G36*
G01*
X76895000Y-102235000D02*
X77445000Y-102235000D01*
G75*
G02*
X77645000Y-102435000I0J-200000D01*
G01*
X77645000Y-102835000D01*
G75*
G02*
X77445000Y-103035000I-200000J0D01*
G01*
X76895000Y-103035000D01*
G75*
G02*
X76695000Y-102835000I0J200000D01*
G01*
X76695000Y-102435000D01*
G75*
G02*
X76895000Y-102235000I200000J0D01*
G01*
G37*
G36*
G01*
X76665000Y-125795000D02*
X76665000Y-126345000D01*
G75*
G02*
X76465000Y-126545000I-200000J0D01*
G01*
X76065000Y-126545000D01*
G75*
G02*
X75865000Y-126345000I0J200000D01*
G01*
X75865000Y-125795000D01*
G75*
G02*
X76065000Y-125595000I200000J0D01*
G01*
X76465000Y-125595000D01*
G75*
G02*
X76665000Y-125795000I0J-200000D01*
G01*
G37*
G36*
G01*
X78315000Y-125795000D02*
X78315000Y-126345000D01*
G75*
G02*
X78115000Y-126545000I-200000J0D01*
G01*
X77715000Y-126545000D01*
G75*
G02*
X77515000Y-126345000I0J200000D01*
G01*
X77515000Y-125795000D01*
G75*
G02*
X77715000Y-125595000I200000J0D01*
G01*
X78115000Y-125595000D01*
G75*
G02*
X78315000Y-125795000I0J-200000D01*
G01*
G37*
G36*
G01*
X69935000Y-125815000D02*
X69935000Y-126365000D01*
G75*
G02*
X69735000Y-126565000I-200000J0D01*
G01*
X69335000Y-126565000D01*
G75*
G02*
X69135000Y-126365000I0J200000D01*
G01*
X69135000Y-125815000D01*
G75*
G02*
X69335000Y-125615000I200000J0D01*
G01*
X69735000Y-125615000D01*
G75*
G02*
X69935000Y-125815000I0J-200000D01*
G01*
G37*
G36*
G01*
X71585000Y-125815000D02*
X71585000Y-126365000D01*
G75*
G02*
X71385000Y-126565000I-200000J0D01*
G01*
X70985000Y-126565000D01*
G75*
G02*
X70785000Y-126365000I0J200000D01*
G01*
X70785000Y-125815000D01*
G75*
G02*
X70985000Y-125615000I200000J0D01*
G01*
X71385000Y-125615000D01*
G75*
G02*
X71585000Y-125815000I0J-200000D01*
G01*
G37*
D12*
X80410000Y-126210000D03*
X82410000Y-125260000D03*
X82410000Y-127160000D03*
X73610000Y-103500000D03*
X75610000Y-102550000D03*
X75610000Y-104450000D03*
D11*
X73250000Y-128810000D03*
X73250000Y-129760000D03*
X73250000Y-127860000D03*
X75450000Y-127860000D03*
X75450000Y-128810000D03*
X75450000Y-129760000D03*
G36*
G01*
X65295000Y-126535000D02*
X65845000Y-126535000D01*
G75*
G02*
X66045000Y-126735000I0J-200000D01*
G01*
X66045000Y-127135000D01*
G75*
G02*
X65845000Y-127335000I-200000J0D01*
G01*
X65295000Y-127335000D01*
G75*
G02*
X65095000Y-127135000I0J200000D01*
G01*
X65095000Y-126735000D01*
G75*
G02*
X65295000Y-126535000I200000J0D01*
G01*
G37*
G36*
G01*
X65295000Y-124885000D02*
X65845000Y-124885000D01*
G75*
G02*
X66045000Y-125085000I0J-200000D01*
G01*
X66045000Y-125485000D01*
G75*
G02*
X65845000Y-125685000I-200000J0D01*
G01*
X65295000Y-125685000D01*
G75*
G02*
X65095000Y-125485000I0J200000D01*
G01*
X65095000Y-125085000D01*
G75*
G02*
X65295000Y-124885000I200000J0D01*
G01*
G37*
G36*
G01*
X76855000Y-129265000D02*
X77405000Y-129265000D01*
G75*
G02*
X77605000Y-129465000I0J-200000D01*
G01*
X77605000Y-129865000D01*
G75*
G02*
X77405000Y-130065000I-200000J0D01*
G01*
X76855000Y-130065000D01*
G75*
G02*
X76655000Y-129865000I0J200000D01*
G01*
X76655000Y-129465000D01*
G75*
G02*
X76855000Y-129265000I200000J0D01*
G01*
G37*
G36*
G01*
X76855000Y-127615000D02*
X77405000Y-127615000D01*
G75*
G02*
X77605000Y-127815000I0J-200000D01*
G01*
X77605000Y-128215000D01*
G75*
G02*
X77405000Y-128415000I-200000J0D01*
G01*
X76855000Y-128415000D01*
G75*
G02*
X76655000Y-128215000I0J200000D01*
G01*
X76655000Y-127815000D01*
G75*
G02*
X76855000Y-127615000I200000J0D01*
G01*
G37*
G36*
G01*
X76535000Y-131135000D02*
X76535000Y-131685000D01*
G75*
G02*
X76335000Y-131885000I-200000J0D01*
G01*
X75935000Y-131885000D01*
G75*
G02*
X75735000Y-131685000I0J200000D01*
G01*
X75735000Y-131135000D01*
G75*
G02*
X75935000Y-130935000I200000J0D01*
G01*
X76335000Y-130935000D01*
G75*
G02*
X76535000Y-131135000I0J-200000D01*
G01*
G37*
G36*
G01*
X78185000Y-131135000D02*
X78185000Y-131685000D01*
G75*
G02*
X77985000Y-131885000I-200000J0D01*
G01*
X77585000Y-131885000D01*
G75*
G02*
X77385000Y-131685000I0J200000D01*
G01*
X77385000Y-131135000D01*
G75*
G02*
X77585000Y-130935000I200000J0D01*
G01*
X77985000Y-130935000D01*
G75*
G02*
X78185000Y-131135000I0J-200000D01*
G01*
G37*
G36*
G01*
X66825000Y-126535000D02*
X67375000Y-126535000D01*
G75*
G02*
X67575000Y-126735000I0J-200000D01*
G01*
X67575000Y-127135000D01*
G75*
G02*
X67375000Y-127335000I-200000J0D01*
G01*
X66825000Y-127335000D01*
G75*
G02*
X66625000Y-127135000I0J200000D01*
G01*
X66625000Y-126735000D01*
G75*
G02*
X66825000Y-126535000I200000J0D01*
G01*
G37*
G36*
G01*
X66825000Y-124885000D02*
X67375000Y-124885000D01*
G75*
G02*
X67575000Y-125085000I0J-200000D01*
G01*
X67575000Y-125485000D01*
G75*
G02*
X67375000Y-125685000I-200000J0D01*
G01*
X66825000Y-125685000D01*
G75*
G02*
X66625000Y-125485000I0J200000D01*
G01*
X66625000Y-125085000D01*
G75*
G02*
X66825000Y-124885000I200000J0D01*
G01*
G37*
G36*
G01*
X54715000Y-123025000D02*
X54715000Y-123575000D01*
G75*
G02*
X54515000Y-123775000I-200000J0D01*
G01*
X54115000Y-123775000D01*
G75*
G02*
X53915000Y-123575000I0J200000D01*
G01*
X53915000Y-123025000D01*
G75*
G02*
X54115000Y-122825000I200000J0D01*
G01*
X54515000Y-122825000D01*
G75*
G02*
X54715000Y-123025000I0J-200000D01*
G01*
G37*
G36*
G01*
X56365000Y-123025000D02*
X56365000Y-123575000D01*
G75*
G02*
X56165000Y-123775000I-200000J0D01*
G01*
X55765000Y-123775000D01*
G75*
G02*
X55565000Y-123575000I0J200000D01*
G01*
X55565000Y-123025000D01*
G75*
G02*
X55765000Y-122825000I200000J0D01*
G01*
X56165000Y-122825000D01*
G75*
G02*
X56365000Y-123025000I0J-200000D01*
G01*
G37*
G36*
G01*
X56995000Y-111065000D02*
X56995000Y-110515000D01*
G75*
G02*
X57195000Y-110315000I200000J0D01*
G01*
X57595000Y-110315000D01*
G75*
G02*
X57795000Y-110515000I0J-200000D01*
G01*
X57795000Y-111065000D01*
G75*
G02*
X57595000Y-111265000I-200000J0D01*
G01*
X57195000Y-111265000D01*
G75*
G02*
X56995000Y-111065000I0J200000D01*
G01*
G37*
G36*
G01*
X55345000Y-111065000D02*
X55345000Y-110515000D01*
G75*
G02*
X55545000Y-110315000I200000J0D01*
G01*
X55945000Y-110315000D01*
G75*
G02*
X56145000Y-110515000I0J-200000D01*
G01*
X56145000Y-111065000D01*
G75*
G02*
X55945000Y-111265000I-200000J0D01*
G01*
X55545000Y-111265000D01*
G75*
G02*
X55345000Y-111065000I0J200000D01*
G01*
G37*
G36*
G01*
X61395000Y-131995000D02*
X61395000Y-131445000D01*
G75*
G02*
X61595000Y-131245000I200000J0D01*
G01*
X61995000Y-131245000D01*
G75*
G02*
X62195000Y-131445000I0J-200000D01*
G01*
X62195000Y-131995000D01*
G75*
G02*
X61995000Y-132195000I-200000J0D01*
G01*
X61595000Y-132195000D01*
G75*
G02*
X61395000Y-131995000I0J200000D01*
G01*
G37*
G36*
G01*
X59745000Y-131995000D02*
X59745000Y-131445000D01*
G75*
G02*
X59945000Y-131245000I200000J0D01*
G01*
X60345000Y-131245000D01*
G75*
G02*
X60545000Y-131445000I0J-200000D01*
G01*
X60545000Y-131995000D01*
G75*
G02*
X60345000Y-132195000I-200000J0D01*
G01*
X59945000Y-132195000D01*
G75*
G02*
X59745000Y-131995000I0J200000D01*
G01*
G37*
D10*
X88740000Y-128440000D03*
X88740000Y-125900000D03*
X88740000Y-123360000D03*
X88740000Y-120820000D03*
X88740000Y-118280000D03*
X88740000Y-115740000D03*
X88740000Y-113200000D03*
X88740000Y-110660000D03*
X88740000Y-108120000D03*
X88740000Y-105580000D03*
X86200000Y-128440000D03*
X86200000Y-125900000D03*
X86200000Y-123360000D03*
X86200000Y-120820000D03*
X86200000Y-118280000D03*
X86200000Y-115740000D03*
X86200000Y-113200000D03*
X86200000Y-110660000D03*
X86200000Y-108120000D03*
G36*
G01*
X85350000Y-106180000D02*
X85350000Y-104980000D01*
G75*
G02*
X85600000Y-104730000I250000J0D01*
G01*
X86800000Y-104730000D01*
G75*
G02*
X87050000Y-104980000I0J-250000D01*
G01*
X87050000Y-106180000D01*
G75*
G02*
X86800000Y-106430000I-250000J0D01*
G01*
X85600000Y-106430000D01*
G75*
G02*
X85350000Y-106180000I0J250000D01*
G01*
G37*
D13*
X82000000Y-131000000D03*
X82000000Y-103000000D03*
X53000000Y-131000000D03*
X53000000Y-103000000D03*
G36*
G01*
X58250000Y-131976250D02*
X58250000Y-131463750D01*
G75*
G02*
X58468750Y-131245000I218750J0D01*
G01*
X58906250Y-131245000D01*
G75*
G02*
X59125000Y-131463750I0J-218750D01*
G01*
X59125000Y-131976250D01*
G75*
G02*
X58906250Y-132195000I-218750J0D01*
G01*
X58468750Y-132195000D01*
G75*
G02*
X58250000Y-131976250I0J218750D01*
G01*
G37*
G36*
G01*
X56675000Y-131976250D02*
X56675000Y-131463750D01*
G75*
G02*
X56893750Y-131245000I218750J0D01*
G01*
X57331250Y-131245000D01*
G75*
G02*
X57550000Y-131463750I0J-218750D01*
G01*
X57550000Y-131976250D01*
G75*
G02*
X57331250Y-132195000I-218750J0D01*
G01*
X56893750Y-132195000D01*
G75*
G02*
X56675000Y-131976250I0J218750D01*
G01*
G37*
G36*
G01*
X76040000Y-115955000D02*
X76540000Y-115955000D01*
G75*
G02*
X76765000Y-116180000I0J-225000D01*
G01*
X76765000Y-116630000D01*
G75*
G02*
X76540000Y-116855000I-225000J0D01*
G01*
X76040000Y-116855000D01*
G75*
G02*
X75815000Y-116630000I0J225000D01*
G01*
X75815000Y-116180000D01*
G75*
G02*
X76040000Y-115955000I225000J0D01*
G01*
G37*
G36*
G01*
X76040000Y-114405000D02*
X76540000Y-114405000D01*
G75*
G02*
X76765000Y-114630000I0J-225000D01*
G01*
X76765000Y-115080000D01*
G75*
G02*
X76540000Y-115305000I-225000J0D01*
G01*
X76040000Y-115305000D01*
G75*
G02*
X75815000Y-115080000I0J225000D01*
G01*
X75815000Y-114630000D01*
G75*
G02*
X76040000Y-114405000I225000J0D01*
G01*
G37*
G36*
G01*
X71130000Y-115315000D02*
X70630000Y-115315000D01*
G75*
G02*
X70405000Y-115090000I0J225000D01*
G01*
X70405000Y-114640000D01*
G75*
G02*
X70630000Y-114415000I225000J0D01*
G01*
X71130000Y-114415000D01*
G75*
G02*
X71355000Y-114640000I0J-225000D01*
G01*
X71355000Y-115090000D01*
G75*
G02*
X71130000Y-115315000I-225000J0D01*
G01*
G37*
G36*
G01*
X71130000Y-116865000D02*
X70630000Y-116865000D01*
G75*
G02*
X70405000Y-116640000I0J225000D01*
G01*
X70405000Y-116190000D01*
G75*
G02*
X70630000Y-115965000I225000J0D01*
G01*
X71130000Y-115965000D01*
G75*
G02*
X71355000Y-116190000I0J-225000D01*
G01*
X71355000Y-116640000D01*
G75*
G02*
X71130000Y-116865000I-225000J0D01*
G01*
G37*
G36*
G01*
X76115000Y-119250000D02*
X76115000Y-118750000D01*
G75*
G02*
X76340000Y-118525000I225000J0D01*
G01*
X76790000Y-118525000D01*
G75*
G02*
X77015000Y-118750000I0J-225000D01*
G01*
X77015000Y-119250000D01*
G75*
G02*
X76790000Y-119475000I-225000J0D01*
G01*
X76340000Y-119475000D01*
G75*
G02*
X76115000Y-119250000I0J225000D01*
G01*
G37*
G36*
G01*
X74565000Y-119250000D02*
X74565000Y-118750000D01*
G75*
G02*
X74790000Y-118525000I225000J0D01*
G01*
X75240000Y-118525000D01*
G75*
G02*
X75465000Y-118750000I0J-225000D01*
G01*
X75465000Y-119250000D01*
G75*
G02*
X75240000Y-119475000I-225000J0D01*
G01*
X74790000Y-119475000D01*
G75*
G02*
X74565000Y-119250000I0J225000D01*
G01*
G37*
G36*
G01*
X76145000Y-106750000D02*
X76145000Y-106250000D01*
G75*
G02*
X76370000Y-106025000I225000J0D01*
G01*
X76820000Y-106025000D01*
G75*
G02*
X77045000Y-106250000I0J-225000D01*
G01*
X77045000Y-106750000D01*
G75*
G02*
X76820000Y-106975000I-225000J0D01*
G01*
X76370000Y-106975000D01*
G75*
G02*
X76145000Y-106750000I0J225000D01*
G01*
G37*
G36*
G01*
X74595000Y-106750000D02*
X74595000Y-106250000D01*
G75*
G02*
X74820000Y-106025000I225000J0D01*
G01*
X75270000Y-106025000D01*
G75*
G02*
X75495000Y-106250000I0J-225000D01*
G01*
X75495000Y-106750000D01*
G75*
G02*
X75270000Y-106975000I-225000J0D01*
G01*
X74820000Y-106975000D01*
G75*
G02*
X74595000Y-106750000I0J225000D01*
G01*
G37*
G36*
G01*
X71975000Y-119210000D02*
X71975000Y-118710000D01*
G75*
G02*
X72200000Y-118485000I225000J0D01*
G01*
X72650000Y-118485000D01*
G75*
G02*
X72875000Y-118710000I0J-225000D01*
G01*
X72875000Y-119210000D01*
G75*
G02*
X72650000Y-119435000I-225000J0D01*
G01*
X72200000Y-119435000D01*
G75*
G02*
X71975000Y-119210000I0J225000D01*
G01*
G37*
G36*
G01*
X70425000Y-119210000D02*
X70425000Y-118710000D01*
G75*
G02*
X70650000Y-118485000I225000J0D01*
G01*
X71100000Y-118485000D01*
G75*
G02*
X71325000Y-118710000I0J-225000D01*
G01*
X71325000Y-119210000D01*
G75*
G02*
X71100000Y-119435000I-225000J0D01*
G01*
X70650000Y-119435000D01*
G75*
G02*
X70425000Y-119210000I0J225000D01*
G01*
G37*
G36*
G01*
X71965000Y-106750000D02*
X71965000Y-106250000D01*
G75*
G02*
X72190000Y-106025000I225000J0D01*
G01*
X72640000Y-106025000D01*
G75*
G02*
X72865000Y-106250000I0J-225000D01*
G01*
X72865000Y-106750000D01*
G75*
G02*
X72640000Y-106975000I-225000J0D01*
G01*
X72190000Y-106975000D01*
G75*
G02*
X71965000Y-106750000I0J225000D01*
G01*
G37*
G36*
G01*
X70415000Y-106750000D02*
X70415000Y-106250000D01*
G75*
G02*
X70640000Y-106025000I225000J0D01*
G01*
X71090000Y-106025000D01*
G75*
G02*
X71315000Y-106250000I0J-225000D01*
G01*
X71315000Y-106750000D01*
G75*
G02*
X71090000Y-106975000I-225000J0D01*
G01*
X70640000Y-106975000D01*
G75*
G02*
X70415000Y-106750000I0J225000D01*
G01*
G37*
G36*
G01*
X74265000Y-131670000D02*
X74265000Y-131170000D01*
G75*
G02*
X74490000Y-130945000I225000J0D01*
G01*
X74940000Y-130945000D01*
G75*
G02*
X75165000Y-131170000I0J-225000D01*
G01*
X75165000Y-131670000D01*
G75*
G02*
X74940000Y-131895000I-225000J0D01*
G01*
X74490000Y-131895000D01*
G75*
G02*
X74265000Y-131670000I0J225000D01*
G01*
G37*
G36*
G01*
X72715000Y-131670000D02*
X72715000Y-131170000D01*
G75*
G02*
X72940000Y-130945000I225000J0D01*
G01*
X73390000Y-130945000D01*
G75*
G02*
X73615000Y-131170000I0J-225000D01*
G01*
X73615000Y-131670000D01*
G75*
G02*
X73390000Y-131895000I-225000J0D01*
G01*
X72940000Y-131895000D01*
G75*
G02*
X72715000Y-131670000I0J225000D01*
G01*
G37*
M02*
