G04 #@! TF.GenerationSoftware,KiCad,Pcbnew,(5.1.10-1-10_14)*
G04 #@! TF.CreationDate,2022-01-16T16:12:51+09:00*
G04 #@! TF.ProjectId,ft2232_jtag_tap,66743232-3332-45f6-9a74-61675f746170,rev?*
G04 #@! TF.SameCoordinates,Original*
G04 #@! TF.FileFunction,Soldermask,Bot*
G04 #@! TF.FilePolarity,Negative*
%FSLAX46Y46*%
G04 Gerber Fmt 4.6, Leading zero omitted, Abs format (unit mm)*
G04 Created by KiCad (PCBNEW (5.1.10-1-10_14)) date 2022-01-16 16:12:51*
%MOMM*%
%LPD*%
G01*
G04 APERTURE LIST*
%ADD10R,0.800000X0.300000*%
%ADD11R,3.600000X3.600000*%
%ADD12O,1.700000X0.900000*%
%ADD13O,2.400000X0.900000*%
%ADD14C,0.600000*%
%ADD15R,0.650000X1.060000*%
%ADD16C,1.700000*%
%ADD17C,2.500000*%
%ADD18R,1.000000X1.400000*%
%ADD19R,1.200000X1.400000*%
G04 APERTURE END LIST*
D10*
X77032000Y-120078000D03*
X77032000Y-119578000D03*
X77032000Y-119078000D03*
X77032000Y-118578000D03*
X73932000Y-118578000D03*
X73932000Y-119078000D03*
X73932000Y-119578000D03*
X73932000Y-120078000D03*
G36*
G01*
X77425000Y-121608000D02*
X77425000Y-121108000D01*
G75*
G02*
X77650000Y-120883000I225000J0D01*
G01*
X78100000Y-120883000D01*
G75*
G02*
X78325000Y-121108000I0J-225000D01*
G01*
X78325000Y-121608000D01*
G75*
G02*
X78100000Y-121833000I-225000J0D01*
G01*
X77650000Y-121833000D01*
G75*
G02*
X77425000Y-121608000I0J225000D01*
G01*
G37*
G36*
G01*
X75875000Y-121608000D02*
X75875000Y-121108000D01*
G75*
G02*
X76100000Y-120883000I225000J0D01*
G01*
X76550000Y-120883000D01*
G75*
G02*
X76775000Y-121108000I0J-225000D01*
G01*
X76775000Y-121608000D01*
G75*
G02*
X76550000Y-121833000I-225000J0D01*
G01*
X76100000Y-121833000D01*
G75*
G02*
X75875000Y-121608000I0J225000D01*
G01*
G37*
G36*
G01*
X68415000Y-108180000D02*
X68415000Y-108680000D01*
G75*
G02*
X68190000Y-108905000I-225000J0D01*
G01*
X67740000Y-108905000D01*
G75*
G02*
X67515000Y-108680000I0J225000D01*
G01*
X67515000Y-108180000D01*
G75*
G02*
X67740000Y-107955000I225000J0D01*
G01*
X68190000Y-107955000D01*
G75*
G02*
X68415000Y-108180000I0J-225000D01*
G01*
G37*
G36*
G01*
X69965000Y-108180000D02*
X69965000Y-108680000D01*
G75*
G02*
X69740000Y-108905000I-225000J0D01*
G01*
X69290000Y-108905000D01*
G75*
G02*
X69065000Y-108680000I0J225000D01*
G01*
X69065000Y-108180000D01*
G75*
G02*
X69290000Y-107955000I225000J0D01*
G01*
X69740000Y-107955000D01*
G75*
G02*
X69965000Y-108180000I0J-225000D01*
G01*
G37*
D11*
X66920000Y-116980000D03*
G36*
G01*
X64020000Y-121805000D02*
X64020000Y-120480000D01*
G75*
G02*
X64095000Y-120405000I75000J0D01*
G01*
X64245000Y-120405000D01*
G75*
G02*
X64320000Y-120480000I0J-75000D01*
G01*
X64320000Y-121805000D01*
G75*
G02*
X64245000Y-121880000I-75000J0D01*
G01*
X64095000Y-121880000D01*
G75*
G02*
X64020000Y-121805000I0J75000D01*
G01*
G37*
G36*
G01*
X64520000Y-121805000D02*
X64520000Y-120480000D01*
G75*
G02*
X64595000Y-120405000I75000J0D01*
G01*
X64745000Y-120405000D01*
G75*
G02*
X64820000Y-120480000I0J-75000D01*
G01*
X64820000Y-121805000D01*
G75*
G02*
X64745000Y-121880000I-75000J0D01*
G01*
X64595000Y-121880000D01*
G75*
G02*
X64520000Y-121805000I0J75000D01*
G01*
G37*
G36*
G01*
X65020000Y-121805000D02*
X65020000Y-120480000D01*
G75*
G02*
X65095000Y-120405000I75000J0D01*
G01*
X65245000Y-120405000D01*
G75*
G02*
X65320000Y-120480000I0J-75000D01*
G01*
X65320000Y-121805000D01*
G75*
G02*
X65245000Y-121880000I-75000J0D01*
G01*
X65095000Y-121880000D01*
G75*
G02*
X65020000Y-121805000I0J75000D01*
G01*
G37*
G36*
G01*
X65520000Y-121805000D02*
X65520000Y-120480000D01*
G75*
G02*
X65595000Y-120405000I75000J0D01*
G01*
X65745000Y-120405000D01*
G75*
G02*
X65820000Y-120480000I0J-75000D01*
G01*
X65820000Y-121805000D01*
G75*
G02*
X65745000Y-121880000I-75000J0D01*
G01*
X65595000Y-121880000D01*
G75*
G02*
X65520000Y-121805000I0J75000D01*
G01*
G37*
G36*
G01*
X66020000Y-121805000D02*
X66020000Y-120480000D01*
G75*
G02*
X66095000Y-120405000I75000J0D01*
G01*
X66245000Y-120405000D01*
G75*
G02*
X66320000Y-120480000I0J-75000D01*
G01*
X66320000Y-121805000D01*
G75*
G02*
X66245000Y-121880000I-75000J0D01*
G01*
X66095000Y-121880000D01*
G75*
G02*
X66020000Y-121805000I0J75000D01*
G01*
G37*
G36*
G01*
X66520000Y-121805000D02*
X66520000Y-120480000D01*
G75*
G02*
X66595000Y-120405000I75000J0D01*
G01*
X66745000Y-120405000D01*
G75*
G02*
X66820000Y-120480000I0J-75000D01*
G01*
X66820000Y-121805000D01*
G75*
G02*
X66745000Y-121880000I-75000J0D01*
G01*
X66595000Y-121880000D01*
G75*
G02*
X66520000Y-121805000I0J75000D01*
G01*
G37*
G36*
G01*
X67020000Y-121805000D02*
X67020000Y-120480000D01*
G75*
G02*
X67095000Y-120405000I75000J0D01*
G01*
X67245000Y-120405000D01*
G75*
G02*
X67320000Y-120480000I0J-75000D01*
G01*
X67320000Y-121805000D01*
G75*
G02*
X67245000Y-121880000I-75000J0D01*
G01*
X67095000Y-121880000D01*
G75*
G02*
X67020000Y-121805000I0J75000D01*
G01*
G37*
G36*
G01*
X67520000Y-121805000D02*
X67520000Y-120480000D01*
G75*
G02*
X67595000Y-120405000I75000J0D01*
G01*
X67745000Y-120405000D01*
G75*
G02*
X67820000Y-120480000I0J-75000D01*
G01*
X67820000Y-121805000D01*
G75*
G02*
X67745000Y-121880000I-75000J0D01*
G01*
X67595000Y-121880000D01*
G75*
G02*
X67520000Y-121805000I0J75000D01*
G01*
G37*
G36*
G01*
X68020000Y-121805000D02*
X68020000Y-120480000D01*
G75*
G02*
X68095000Y-120405000I75000J0D01*
G01*
X68245000Y-120405000D01*
G75*
G02*
X68320000Y-120480000I0J-75000D01*
G01*
X68320000Y-121805000D01*
G75*
G02*
X68245000Y-121880000I-75000J0D01*
G01*
X68095000Y-121880000D01*
G75*
G02*
X68020000Y-121805000I0J75000D01*
G01*
G37*
G36*
G01*
X68520000Y-121805000D02*
X68520000Y-120480000D01*
G75*
G02*
X68595000Y-120405000I75000J0D01*
G01*
X68745000Y-120405000D01*
G75*
G02*
X68820000Y-120480000I0J-75000D01*
G01*
X68820000Y-121805000D01*
G75*
G02*
X68745000Y-121880000I-75000J0D01*
G01*
X68595000Y-121880000D01*
G75*
G02*
X68520000Y-121805000I0J75000D01*
G01*
G37*
G36*
G01*
X69020000Y-121805000D02*
X69020000Y-120480000D01*
G75*
G02*
X69095000Y-120405000I75000J0D01*
G01*
X69245000Y-120405000D01*
G75*
G02*
X69320000Y-120480000I0J-75000D01*
G01*
X69320000Y-121805000D01*
G75*
G02*
X69245000Y-121880000I-75000J0D01*
G01*
X69095000Y-121880000D01*
G75*
G02*
X69020000Y-121805000I0J75000D01*
G01*
G37*
G36*
G01*
X69520000Y-121805000D02*
X69520000Y-120480000D01*
G75*
G02*
X69595000Y-120405000I75000J0D01*
G01*
X69745000Y-120405000D01*
G75*
G02*
X69820000Y-120480000I0J-75000D01*
G01*
X69820000Y-121805000D01*
G75*
G02*
X69745000Y-121880000I-75000J0D01*
G01*
X69595000Y-121880000D01*
G75*
G02*
X69520000Y-121805000I0J75000D01*
G01*
G37*
G36*
G01*
X70345000Y-119805000D02*
X70345000Y-119655000D01*
G75*
G02*
X70420000Y-119580000I75000J0D01*
G01*
X71745000Y-119580000D01*
G75*
G02*
X71820000Y-119655000I0J-75000D01*
G01*
X71820000Y-119805000D01*
G75*
G02*
X71745000Y-119880000I-75000J0D01*
G01*
X70420000Y-119880000D01*
G75*
G02*
X70345000Y-119805000I0J75000D01*
G01*
G37*
G36*
G01*
X70345000Y-119305000D02*
X70345000Y-119155000D01*
G75*
G02*
X70420000Y-119080000I75000J0D01*
G01*
X71745000Y-119080000D01*
G75*
G02*
X71820000Y-119155000I0J-75000D01*
G01*
X71820000Y-119305000D01*
G75*
G02*
X71745000Y-119380000I-75000J0D01*
G01*
X70420000Y-119380000D01*
G75*
G02*
X70345000Y-119305000I0J75000D01*
G01*
G37*
G36*
G01*
X70345000Y-118805000D02*
X70345000Y-118655000D01*
G75*
G02*
X70420000Y-118580000I75000J0D01*
G01*
X71745000Y-118580000D01*
G75*
G02*
X71820000Y-118655000I0J-75000D01*
G01*
X71820000Y-118805000D01*
G75*
G02*
X71745000Y-118880000I-75000J0D01*
G01*
X70420000Y-118880000D01*
G75*
G02*
X70345000Y-118805000I0J75000D01*
G01*
G37*
G36*
G01*
X70345000Y-118305000D02*
X70345000Y-118155000D01*
G75*
G02*
X70420000Y-118080000I75000J0D01*
G01*
X71745000Y-118080000D01*
G75*
G02*
X71820000Y-118155000I0J-75000D01*
G01*
X71820000Y-118305000D01*
G75*
G02*
X71745000Y-118380000I-75000J0D01*
G01*
X70420000Y-118380000D01*
G75*
G02*
X70345000Y-118305000I0J75000D01*
G01*
G37*
G36*
G01*
X70345000Y-117805000D02*
X70345000Y-117655000D01*
G75*
G02*
X70420000Y-117580000I75000J0D01*
G01*
X71745000Y-117580000D01*
G75*
G02*
X71820000Y-117655000I0J-75000D01*
G01*
X71820000Y-117805000D01*
G75*
G02*
X71745000Y-117880000I-75000J0D01*
G01*
X70420000Y-117880000D01*
G75*
G02*
X70345000Y-117805000I0J75000D01*
G01*
G37*
G36*
G01*
X70345000Y-117305000D02*
X70345000Y-117155000D01*
G75*
G02*
X70420000Y-117080000I75000J0D01*
G01*
X71745000Y-117080000D01*
G75*
G02*
X71820000Y-117155000I0J-75000D01*
G01*
X71820000Y-117305000D01*
G75*
G02*
X71745000Y-117380000I-75000J0D01*
G01*
X70420000Y-117380000D01*
G75*
G02*
X70345000Y-117305000I0J75000D01*
G01*
G37*
G36*
G01*
X70345000Y-116805000D02*
X70345000Y-116655000D01*
G75*
G02*
X70420000Y-116580000I75000J0D01*
G01*
X71745000Y-116580000D01*
G75*
G02*
X71820000Y-116655000I0J-75000D01*
G01*
X71820000Y-116805000D01*
G75*
G02*
X71745000Y-116880000I-75000J0D01*
G01*
X70420000Y-116880000D01*
G75*
G02*
X70345000Y-116805000I0J75000D01*
G01*
G37*
G36*
G01*
X70345000Y-116305000D02*
X70345000Y-116155000D01*
G75*
G02*
X70420000Y-116080000I75000J0D01*
G01*
X71745000Y-116080000D01*
G75*
G02*
X71820000Y-116155000I0J-75000D01*
G01*
X71820000Y-116305000D01*
G75*
G02*
X71745000Y-116380000I-75000J0D01*
G01*
X70420000Y-116380000D01*
G75*
G02*
X70345000Y-116305000I0J75000D01*
G01*
G37*
G36*
G01*
X70345000Y-115805000D02*
X70345000Y-115655000D01*
G75*
G02*
X70420000Y-115580000I75000J0D01*
G01*
X71745000Y-115580000D01*
G75*
G02*
X71820000Y-115655000I0J-75000D01*
G01*
X71820000Y-115805000D01*
G75*
G02*
X71745000Y-115880000I-75000J0D01*
G01*
X70420000Y-115880000D01*
G75*
G02*
X70345000Y-115805000I0J75000D01*
G01*
G37*
G36*
G01*
X70345000Y-115305000D02*
X70345000Y-115155000D01*
G75*
G02*
X70420000Y-115080000I75000J0D01*
G01*
X71745000Y-115080000D01*
G75*
G02*
X71820000Y-115155000I0J-75000D01*
G01*
X71820000Y-115305000D01*
G75*
G02*
X71745000Y-115380000I-75000J0D01*
G01*
X70420000Y-115380000D01*
G75*
G02*
X70345000Y-115305000I0J75000D01*
G01*
G37*
G36*
G01*
X70345000Y-114805000D02*
X70345000Y-114655000D01*
G75*
G02*
X70420000Y-114580000I75000J0D01*
G01*
X71745000Y-114580000D01*
G75*
G02*
X71820000Y-114655000I0J-75000D01*
G01*
X71820000Y-114805000D01*
G75*
G02*
X71745000Y-114880000I-75000J0D01*
G01*
X70420000Y-114880000D01*
G75*
G02*
X70345000Y-114805000I0J75000D01*
G01*
G37*
G36*
G01*
X70345000Y-114305000D02*
X70345000Y-114155000D01*
G75*
G02*
X70420000Y-114080000I75000J0D01*
G01*
X71745000Y-114080000D01*
G75*
G02*
X71820000Y-114155000I0J-75000D01*
G01*
X71820000Y-114305000D01*
G75*
G02*
X71745000Y-114380000I-75000J0D01*
G01*
X70420000Y-114380000D01*
G75*
G02*
X70345000Y-114305000I0J75000D01*
G01*
G37*
G36*
G01*
X69520000Y-113480000D02*
X69520000Y-112155000D01*
G75*
G02*
X69595000Y-112080000I75000J0D01*
G01*
X69745000Y-112080000D01*
G75*
G02*
X69820000Y-112155000I0J-75000D01*
G01*
X69820000Y-113480000D01*
G75*
G02*
X69745000Y-113555000I-75000J0D01*
G01*
X69595000Y-113555000D01*
G75*
G02*
X69520000Y-113480000I0J75000D01*
G01*
G37*
G36*
G01*
X69020000Y-113480000D02*
X69020000Y-112155000D01*
G75*
G02*
X69095000Y-112080000I75000J0D01*
G01*
X69245000Y-112080000D01*
G75*
G02*
X69320000Y-112155000I0J-75000D01*
G01*
X69320000Y-113480000D01*
G75*
G02*
X69245000Y-113555000I-75000J0D01*
G01*
X69095000Y-113555000D01*
G75*
G02*
X69020000Y-113480000I0J75000D01*
G01*
G37*
G36*
G01*
X68520000Y-113480000D02*
X68520000Y-112155000D01*
G75*
G02*
X68595000Y-112080000I75000J0D01*
G01*
X68745000Y-112080000D01*
G75*
G02*
X68820000Y-112155000I0J-75000D01*
G01*
X68820000Y-113480000D01*
G75*
G02*
X68745000Y-113555000I-75000J0D01*
G01*
X68595000Y-113555000D01*
G75*
G02*
X68520000Y-113480000I0J75000D01*
G01*
G37*
G36*
G01*
X68020000Y-113480000D02*
X68020000Y-112155000D01*
G75*
G02*
X68095000Y-112080000I75000J0D01*
G01*
X68245000Y-112080000D01*
G75*
G02*
X68320000Y-112155000I0J-75000D01*
G01*
X68320000Y-113480000D01*
G75*
G02*
X68245000Y-113555000I-75000J0D01*
G01*
X68095000Y-113555000D01*
G75*
G02*
X68020000Y-113480000I0J75000D01*
G01*
G37*
G36*
G01*
X67520000Y-113480000D02*
X67520000Y-112155000D01*
G75*
G02*
X67595000Y-112080000I75000J0D01*
G01*
X67745000Y-112080000D01*
G75*
G02*
X67820000Y-112155000I0J-75000D01*
G01*
X67820000Y-113480000D01*
G75*
G02*
X67745000Y-113555000I-75000J0D01*
G01*
X67595000Y-113555000D01*
G75*
G02*
X67520000Y-113480000I0J75000D01*
G01*
G37*
G36*
G01*
X67020000Y-113480000D02*
X67020000Y-112155000D01*
G75*
G02*
X67095000Y-112080000I75000J0D01*
G01*
X67245000Y-112080000D01*
G75*
G02*
X67320000Y-112155000I0J-75000D01*
G01*
X67320000Y-113480000D01*
G75*
G02*
X67245000Y-113555000I-75000J0D01*
G01*
X67095000Y-113555000D01*
G75*
G02*
X67020000Y-113480000I0J75000D01*
G01*
G37*
G36*
G01*
X66520000Y-113480000D02*
X66520000Y-112155000D01*
G75*
G02*
X66595000Y-112080000I75000J0D01*
G01*
X66745000Y-112080000D01*
G75*
G02*
X66820000Y-112155000I0J-75000D01*
G01*
X66820000Y-113480000D01*
G75*
G02*
X66745000Y-113555000I-75000J0D01*
G01*
X66595000Y-113555000D01*
G75*
G02*
X66520000Y-113480000I0J75000D01*
G01*
G37*
G36*
G01*
X66020000Y-113480000D02*
X66020000Y-112155000D01*
G75*
G02*
X66095000Y-112080000I75000J0D01*
G01*
X66245000Y-112080000D01*
G75*
G02*
X66320000Y-112155000I0J-75000D01*
G01*
X66320000Y-113480000D01*
G75*
G02*
X66245000Y-113555000I-75000J0D01*
G01*
X66095000Y-113555000D01*
G75*
G02*
X66020000Y-113480000I0J75000D01*
G01*
G37*
G36*
G01*
X65520000Y-113480000D02*
X65520000Y-112155000D01*
G75*
G02*
X65595000Y-112080000I75000J0D01*
G01*
X65745000Y-112080000D01*
G75*
G02*
X65820000Y-112155000I0J-75000D01*
G01*
X65820000Y-113480000D01*
G75*
G02*
X65745000Y-113555000I-75000J0D01*
G01*
X65595000Y-113555000D01*
G75*
G02*
X65520000Y-113480000I0J75000D01*
G01*
G37*
G36*
G01*
X65020000Y-113480000D02*
X65020000Y-112155000D01*
G75*
G02*
X65095000Y-112080000I75000J0D01*
G01*
X65245000Y-112080000D01*
G75*
G02*
X65320000Y-112155000I0J-75000D01*
G01*
X65320000Y-113480000D01*
G75*
G02*
X65245000Y-113555000I-75000J0D01*
G01*
X65095000Y-113555000D01*
G75*
G02*
X65020000Y-113480000I0J75000D01*
G01*
G37*
G36*
G01*
X64520000Y-113480000D02*
X64520000Y-112155000D01*
G75*
G02*
X64595000Y-112080000I75000J0D01*
G01*
X64745000Y-112080000D01*
G75*
G02*
X64820000Y-112155000I0J-75000D01*
G01*
X64820000Y-113480000D01*
G75*
G02*
X64745000Y-113555000I-75000J0D01*
G01*
X64595000Y-113555000D01*
G75*
G02*
X64520000Y-113480000I0J75000D01*
G01*
G37*
G36*
G01*
X64020000Y-113480000D02*
X64020000Y-112155000D01*
G75*
G02*
X64095000Y-112080000I75000J0D01*
G01*
X64245000Y-112080000D01*
G75*
G02*
X64320000Y-112155000I0J-75000D01*
G01*
X64320000Y-113480000D01*
G75*
G02*
X64245000Y-113555000I-75000J0D01*
G01*
X64095000Y-113555000D01*
G75*
G02*
X64020000Y-113480000I0J75000D01*
G01*
G37*
G36*
G01*
X62020000Y-114305000D02*
X62020000Y-114155000D01*
G75*
G02*
X62095000Y-114080000I75000J0D01*
G01*
X63420000Y-114080000D01*
G75*
G02*
X63495000Y-114155000I0J-75000D01*
G01*
X63495000Y-114305000D01*
G75*
G02*
X63420000Y-114380000I-75000J0D01*
G01*
X62095000Y-114380000D01*
G75*
G02*
X62020000Y-114305000I0J75000D01*
G01*
G37*
G36*
G01*
X62020000Y-114805000D02*
X62020000Y-114655000D01*
G75*
G02*
X62095000Y-114580000I75000J0D01*
G01*
X63420000Y-114580000D01*
G75*
G02*
X63495000Y-114655000I0J-75000D01*
G01*
X63495000Y-114805000D01*
G75*
G02*
X63420000Y-114880000I-75000J0D01*
G01*
X62095000Y-114880000D01*
G75*
G02*
X62020000Y-114805000I0J75000D01*
G01*
G37*
G36*
G01*
X62020000Y-115305000D02*
X62020000Y-115155000D01*
G75*
G02*
X62095000Y-115080000I75000J0D01*
G01*
X63420000Y-115080000D01*
G75*
G02*
X63495000Y-115155000I0J-75000D01*
G01*
X63495000Y-115305000D01*
G75*
G02*
X63420000Y-115380000I-75000J0D01*
G01*
X62095000Y-115380000D01*
G75*
G02*
X62020000Y-115305000I0J75000D01*
G01*
G37*
G36*
G01*
X62020000Y-115805000D02*
X62020000Y-115655000D01*
G75*
G02*
X62095000Y-115580000I75000J0D01*
G01*
X63420000Y-115580000D01*
G75*
G02*
X63495000Y-115655000I0J-75000D01*
G01*
X63495000Y-115805000D01*
G75*
G02*
X63420000Y-115880000I-75000J0D01*
G01*
X62095000Y-115880000D01*
G75*
G02*
X62020000Y-115805000I0J75000D01*
G01*
G37*
G36*
G01*
X62020000Y-116305000D02*
X62020000Y-116155000D01*
G75*
G02*
X62095000Y-116080000I75000J0D01*
G01*
X63420000Y-116080000D01*
G75*
G02*
X63495000Y-116155000I0J-75000D01*
G01*
X63495000Y-116305000D01*
G75*
G02*
X63420000Y-116380000I-75000J0D01*
G01*
X62095000Y-116380000D01*
G75*
G02*
X62020000Y-116305000I0J75000D01*
G01*
G37*
G36*
G01*
X62020000Y-116805000D02*
X62020000Y-116655000D01*
G75*
G02*
X62095000Y-116580000I75000J0D01*
G01*
X63420000Y-116580000D01*
G75*
G02*
X63495000Y-116655000I0J-75000D01*
G01*
X63495000Y-116805000D01*
G75*
G02*
X63420000Y-116880000I-75000J0D01*
G01*
X62095000Y-116880000D01*
G75*
G02*
X62020000Y-116805000I0J75000D01*
G01*
G37*
G36*
G01*
X62020000Y-117305000D02*
X62020000Y-117155000D01*
G75*
G02*
X62095000Y-117080000I75000J0D01*
G01*
X63420000Y-117080000D01*
G75*
G02*
X63495000Y-117155000I0J-75000D01*
G01*
X63495000Y-117305000D01*
G75*
G02*
X63420000Y-117380000I-75000J0D01*
G01*
X62095000Y-117380000D01*
G75*
G02*
X62020000Y-117305000I0J75000D01*
G01*
G37*
G36*
G01*
X62020000Y-117805000D02*
X62020000Y-117655000D01*
G75*
G02*
X62095000Y-117580000I75000J0D01*
G01*
X63420000Y-117580000D01*
G75*
G02*
X63495000Y-117655000I0J-75000D01*
G01*
X63495000Y-117805000D01*
G75*
G02*
X63420000Y-117880000I-75000J0D01*
G01*
X62095000Y-117880000D01*
G75*
G02*
X62020000Y-117805000I0J75000D01*
G01*
G37*
G36*
G01*
X62020000Y-118305000D02*
X62020000Y-118155000D01*
G75*
G02*
X62095000Y-118080000I75000J0D01*
G01*
X63420000Y-118080000D01*
G75*
G02*
X63495000Y-118155000I0J-75000D01*
G01*
X63495000Y-118305000D01*
G75*
G02*
X63420000Y-118380000I-75000J0D01*
G01*
X62095000Y-118380000D01*
G75*
G02*
X62020000Y-118305000I0J75000D01*
G01*
G37*
G36*
G01*
X62020000Y-118805000D02*
X62020000Y-118655000D01*
G75*
G02*
X62095000Y-118580000I75000J0D01*
G01*
X63420000Y-118580000D01*
G75*
G02*
X63495000Y-118655000I0J-75000D01*
G01*
X63495000Y-118805000D01*
G75*
G02*
X63420000Y-118880000I-75000J0D01*
G01*
X62095000Y-118880000D01*
G75*
G02*
X62020000Y-118805000I0J75000D01*
G01*
G37*
G36*
G01*
X62020000Y-119305000D02*
X62020000Y-119155000D01*
G75*
G02*
X62095000Y-119080000I75000J0D01*
G01*
X63420000Y-119080000D01*
G75*
G02*
X63495000Y-119155000I0J-75000D01*
G01*
X63495000Y-119305000D01*
G75*
G02*
X63420000Y-119380000I-75000J0D01*
G01*
X62095000Y-119380000D01*
G75*
G02*
X62020000Y-119305000I0J75000D01*
G01*
G37*
G36*
G01*
X62020000Y-119805000D02*
X62020000Y-119655000D01*
G75*
G02*
X62095000Y-119580000I75000J0D01*
G01*
X63420000Y-119580000D01*
G75*
G02*
X63495000Y-119655000I0J-75000D01*
G01*
X63495000Y-119805000D01*
G75*
G02*
X63420000Y-119880000I-75000J0D01*
G01*
X62095000Y-119880000D01*
G75*
G02*
X62020000Y-119805000I0J75000D01*
G01*
G37*
D12*
X52640000Y-121325000D03*
X52640000Y-112675000D03*
D13*
X56020000Y-121325000D03*
X56020000Y-112675000D03*
D14*
X55650000Y-117425000D03*
X55650000Y-119975000D03*
X55650000Y-119125000D03*
X55650000Y-118275000D03*
X55650000Y-114025000D03*
X55650000Y-115725000D03*
X55650000Y-116575000D03*
X55650000Y-114875000D03*
X57000000Y-119975000D03*
X57000000Y-119125000D03*
X57000000Y-118275000D03*
X57000000Y-117425000D03*
X57000000Y-116575000D03*
X57000000Y-115725000D03*
X57000000Y-114875000D03*
X57000000Y-114025000D03*
D15*
X62760000Y-122680000D03*
X60860000Y-122680000D03*
X60860000Y-124880000D03*
X61810000Y-124880000D03*
X62760000Y-124880000D03*
G36*
G01*
X59305000Y-119005000D02*
X59305000Y-119555000D01*
G75*
G02*
X59105000Y-119755000I-200000J0D01*
G01*
X58705000Y-119755000D01*
G75*
G02*
X58505000Y-119555000I0J200000D01*
G01*
X58505000Y-119005000D01*
G75*
G02*
X58705000Y-118805000I200000J0D01*
G01*
X59105000Y-118805000D01*
G75*
G02*
X59305000Y-119005000I0J-200000D01*
G01*
G37*
G36*
G01*
X60955000Y-119005000D02*
X60955000Y-119555000D01*
G75*
G02*
X60755000Y-119755000I-200000J0D01*
G01*
X60355000Y-119755000D01*
G75*
G02*
X60155000Y-119555000I0J200000D01*
G01*
X60155000Y-119005000D01*
G75*
G02*
X60355000Y-118805000I200000J0D01*
G01*
X60755000Y-118805000D01*
G75*
G02*
X60955000Y-119005000I0J-200000D01*
G01*
G37*
G36*
G01*
X74235000Y-124145000D02*
X74235000Y-124695000D01*
G75*
G02*
X74035000Y-124895000I-200000J0D01*
G01*
X73635000Y-124895000D01*
G75*
G02*
X73435000Y-124695000I0J200000D01*
G01*
X73435000Y-124145000D01*
G75*
G02*
X73635000Y-123945000I200000J0D01*
G01*
X74035000Y-123945000D01*
G75*
G02*
X74235000Y-124145000I0J-200000D01*
G01*
G37*
G36*
G01*
X75885000Y-124145000D02*
X75885000Y-124695000D01*
G75*
G02*
X75685000Y-124895000I-200000J0D01*
G01*
X75285000Y-124895000D01*
G75*
G02*
X75085000Y-124695000I0J200000D01*
G01*
X75085000Y-124145000D01*
G75*
G02*
X75285000Y-123945000I200000J0D01*
G01*
X75685000Y-123945000D01*
G75*
G02*
X75885000Y-124145000I0J-200000D01*
G01*
G37*
G36*
G01*
X59390000Y-111403750D02*
X59390000Y-111916250D01*
G75*
G02*
X59171250Y-112135000I-218750J0D01*
G01*
X58733750Y-112135000D01*
G75*
G02*
X58515000Y-111916250I0J218750D01*
G01*
X58515000Y-111403750D01*
G75*
G02*
X58733750Y-111185000I218750J0D01*
G01*
X59171250Y-111185000D01*
G75*
G02*
X59390000Y-111403750I0J-218750D01*
G01*
G37*
G36*
G01*
X60965000Y-111403750D02*
X60965000Y-111916250D01*
G75*
G02*
X60746250Y-112135000I-218750J0D01*
G01*
X60308750Y-112135000D01*
G75*
G02*
X60090000Y-111916250I0J218750D01*
G01*
X60090000Y-111403750D01*
G75*
G02*
X60308750Y-111185000I218750J0D01*
G01*
X60746250Y-111185000D01*
G75*
G02*
X60965000Y-111403750I0J-218750D01*
G01*
G37*
G36*
G01*
X61565000Y-127845000D02*
X61565000Y-128395000D01*
G75*
G02*
X61365000Y-128595000I-200000J0D01*
G01*
X60965000Y-128595000D01*
G75*
G02*
X60765000Y-128395000I0J200000D01*
G01*
X60765000Y-127845000D01*
G75*
G02*
X60965000Y-127645000I200000J0D01*
G01*
X61365000Y-127645000D01*
G75*
G02*
X61565000Y-127845000I0J-200000D01*
G01*
G37*
G36*
G01*
X63215000Y-127845000D02*
X63215000Y-128395000D01*
G75*
G02*
X63015000Y-128595000I-200000J0D01*
G01*
X62615000Y-128595000D01*
G75*
G02*
X62415000Y-128395000I0J200000D01*
G01*
X62415000Y-127845000D01*
G75*
G02*
X62615000Y-127645000I200000J0D01*
G01*
X63015000Y-127645000D01*
G75*
G02*
X63215000Y-127845000I0J-200000D01*
G01*
G37*
G36*
G01*
X59315000Y-115965000D02*
X59315000Y-116515000D01*
G75*
G02*
X59115000Y-116715000I-200000J0D01*
G01*
X58715000Y-116715000D01*
G75*
G02*
X58515000Y-116515000I0J200000D01*
G01*
X58515000Y-115965000D01*
G75*
G02*
X58715000Y-115765000I200000J0D01*
G01*
X59115000Y-115765000D01*
G75*
G02*
X59315000Y-115965000I0J-200000D01*
G01*
G37*
G36*
G01*
X60965000Y-115965000D02*
X60965000Y-116515000D01*
G75*
G02*
X60765000Y-116715000I-200000J0D01*
G01*
X60365000Y-116715000D01*
G75*
G02*
X60165000Y-116515000I0J200000D01*
G01*
X60165000Y-115965000D01*
G75*
G02*
X60365000Y-115765000I200000J0D01*
G01*
X60765000Y-115765000D01*
G75*
G02*
X60965000Y-115965000I0J-200000D01*
G01*
G37*
G36*
G01*
X59315000Y-117485000D02*
X59315000Y-118035000D01*
G75*
G02*
X59115000Y-118235000I-200000J0D01*
G01*
X58715000Y-118235000D01*
G75*
G02*
X58515000Y-118035000I0J200000D01*
G01*
X58515000Y-117485000D01*
G75*
G02*
X58715000Y-117285000I200000J0D01*
G01*
X59115000Y-117285000D01*
G75*
G02*
X59315000Y-117485000I0J-200000D01*
G01*
G37*
G36*
G01*
X60965000Y-117485000D02*
X60965000Y-118035000D01*
G75*
G02*
X60765000Y-118235000I-200000J0D01*
G01*
X60365000Y-118235000D01*
G75*
G02*
X60165000Y-118035000I0J200000D01*
G01*
X60165000Y-117485000D01*
G75*
G02*
X60365000Y-117285000I200000J0D01*
G01*
X60765000Y-117285000D01*
G75*
G02*
X60965000Y-117485000I0J-200000D01*
G01*
G37*
G36*
G01*
X57140000Y-124573750D02*
X57140000Y-125086250D01*
G75*
G02*
X56921250Y-125305000I-218750J0D01*
G01*
X56483750Y-125305000D01*
G75*
G02*
X56265000Y-125086250I0J218750D01*
G01*
X56265000Y-124573750D01*
G75*
G02*
X56483750Y-124355000I218750J0D01*
G01*
X56921250Y-124355000D01*
G75*
G02*
X57140000Y-124573750I0J-218750D01*
G01*
G37*
G36*
G01*
X58715000Y-124573750D02*
X58715000Y-125086250D01*
G75*
G02*
X58496250Y-125305000I-218750J0D01*
G01*
X58058750Y-125305000D01*
G75*
G02*
X57840000Y-125086250I0J218750D01*
G01*
X57840000Y-124573750D01*
G75*
G02*
X58058750Y-124355000I218750J0D01*
G01*
X58496250Y-124355000D01*
G75*
G02*
X58715000Y-124573750I0J-218750D01*
G01*
G37*
G36*
G01*
X54100000Y-126113750D02*
X54100000Y-126626250D01*
G75*
G02*
X53881250Y-126845000I-218750J0D01*
G01*
X53443750Y-126845000D01*
G75*
G02*
X53225000Y-126626250I0J218750D01*
G01*
X53225000Y-126113750D01*
G75*
G02*
X53443750Y-125895000I218750J0D01*
G01*
X53881250Y-125895000D01*
G75*
G02*
X54100000Y-126113750I0J-218750D01*
G01*
G37*
G36*
G01*
X55675000Y-126113750D02*
X55675000Y-126626250D01*
G75*
G02*
X55456250Y-126845000I-218750J0D01*
G01*
X55018750Y-126845000D01*
G75*
G02*
X54800000Y-126626250I0J218750D01*
G01*
X54800000Y-126113750D01*
G75*
G02*
X55018750Y-125895000I218750J0D01*
G01*
X55456250Y-125895000D01*
G75*
G02*
X55675000Y-126113750I0J-218750D01*
G01*
G37*
D16*
X88740000Y-128440000D03*
X88740000Y-125900000D03*
X88740000Y-123360000D03*
X88740000Y-120820000D03*
X88740000Y-118280000D03*
X88740000Y-115740000D03*
X88740000Y-113200000D03*
X88740000Y-110660000D03*
X88740000Y-108120000D03*
X88740000Y-105580000D03*
X86200000Y-128440000D03*
X86200000Y-125900000D03*
X86200000Y-123360000D03*
X86200000Y-120820000D03*
X86200000Y-118280000D03*
X86200000Y-115740000D03*
X86200000Y-113200000D03*
X86200000Y-110660000D03*
X86200000Y-108120000D03*
G36*
G01*
X85350000Y-106180000D02*
X85350000Y-104980000D01*
G75*
G02*
X85600000Y-104730000I250000J0D01*
G01*
X86800000Y-104730000D01*
G75*
G02*
X87050000Y-104980000I0J-250000D01*
G01*
X87050000Y-106180000D01*
G75*
G02*
X86800000Y-106430000I-250000J0D01*
G01*
X85600000Y-106430000D01*
G75*
G02*
X85350000Y-106180000I0J250000D01*
G01*
G37*
D17*
X82000000Y-131000000D03*
X82000000Y-103000000D03*
X53000000Y-131000000D03*
X53000000Y-103000000D03*
D18*
X51980000Y-118190000D03*
X53880000Y-118190000D03*
X53880000Y-115990000D03*
D19*
X52160000Y-115990000D03*
G36*
G01*
X59415000Y-114460000D02*
X59415000Y-114960000D01*
G75*
G02*
X59190000Y-115185000I-225000J0D01*
G01*
X58740000Y-115185000D01*
G75*
G02*
X58515000Y-114960000I0J225000D01*
G01*
X58515000Y-114460000D01*
G75*
G02*
X58740000Y-114235000I225000J0D01*
G01*
X59190000Y-114235000D01*
G75*
G02*
X59415000Y-114460000I0J-225000D01*
G01*
G37*
G36*
G01*
X60965000Y-114460000D02*
X60965000Y-114960000D01*
G75*
G02*
X60740000Y-115185000I-225000J0D01*
G01*
X60290000Y-115185000D01*
G75*
G02*
X60065000Y-114960000I0J225000D01*
G01*
X60065000Y-114460000D01*
G75*
G02*
X60290000Y-114235000I225000J0D01*
G01*
X60740000Y-114235000D01*
G75*
G02*
X60965000Y-114460000I0J-225000D01*
G01*
G37*
G36*
G01*
X59415000Y-112930000D02*
X59415000Y-113430000D01*
G75*
G02*
X59190000Y-113655000I-225000J0D01*
G01*
X58740000Y-113655000D01*
G75*
G02*
X58515000Y-113430000I0J225000D01*
G01*
X58515000Y-112930000D01*
G75*
G02*
X58740000Y-112705000I225000J0D01*
G01*
X59190000Y-112705000D01*
G75*
G02*
X59415000Y-112930000I0J-225000D01*
G01*
G37*
G36*
G01*
X60965000Y-112930000D02*
X60965000Y-113430000D01*
G75*
G02*
X60740000Y-113655000I-225000J0D01*
G01*
X60290000Y-113655000D01*
G75*
G02*
X60065000Y-113430000I0J225000D01*
G01*
X60065000Y-112930000D01*
G75*
G02*
X60290000Y-112705000I225000J0D01*
G01*
X60740000Y-112705000D01*
G75*
G02*
X60965000Y-112930000I0J-225000D01*
G01*
G37*
G36*
G01*
X71945000Y-123140000D02*
X71945000Y-122640000D01*
G75*
G02*
X72170000Y-122415000I225000J0D01*
G01*
X72620000Y-122415000D01*
G75*
G02*
X72845000Y-122640000I0J-225000D01*
G01*
X72845000Y-123140000D01*
G75*
G02*
X72620000Y-123365000I-225000J0D01*
G01*
X72170000Y-123365000D01*
G75*
G02*
X71945000Y-123140000I0J225000D01*
G01*
G37*
G36*
G01*
X70395000Y-123140000D02*
X70395000Y-122640000D01*
G75*
G02*
X70620000Y-122415000I225000J0D01*
G01*
X71070000Y-122415000D01*
G75*
G02*
X71295000Y-122640000I0J-225000D01*
G01*
X71295000Y-123140000D01*
G75*
G02*
X71070000Y-123365000I-225000J0D01*
G01*
X70620000Y-123365000D01*
G75*
G02*
X70395000Y-123140000I0J225000D01*
G01*
G37*
G36*
G01*
X71959000Y-127716000D02*
X71959000Y-127216000D01*
G75*
G02*
X72184000Y-126991000I225000J0D01*
G01*
X72634000Y-126991000D01*
G75*
G02*
X72859000Y-127216000I0J-225000D01*
G01*
X72859000Y-127716000D01*
G75*
G02*
X72634000Y-127941000I-225000J0D01*
G01*
X72184000Y-127941000D01*
G75*
G02*
X71959000Y-127716000I0J225000D01*
G01*
G37*
G36*
G01*
X70409000Y-127716000D02*
X70409000Y-127216000D01*
G75*
G02*
X70634000Y-126991000I225000J0D01*
G01*
X71084000Y-126991000D01*
G75*
G02*
X71309000Y-127216000I0J-225000D01*
G01*
X71309000Y-127716000D01*
G75*
G02*
X71084000Y-127941000I-225000J0D01*
G01*
X70634000Y-127941000D01*
G75*
G02*
X70409000Y-127716000I0J225000D01*
G01*
G37*
G36*
G01*
X63030000Y-109925000D02*
X62530000Y-109925000D01*
G75*
G02*
X62305000Y-109700000I0J225000D01*
G01*
X62305000Y-109250000D01*
G75*
G02*
X62530000Y-109025000I225000J0D01*
G01*
X63030000Y-109025000D01*
G75*
G02*
X63255000Y-109250000I0J-225000D01*
G01*
X63255000Y-109700000D01*
G75*
G02*
X63030000Y-109925000I-225000J0D01*
G01*
G37*
G36*
G01*
X63030000Y-111475000D02*
X62530000Y-111475000D01*
G75*
G02*
X62305000Y-111250000I0J225000D01*
G01*
X62305000Y-110800000D01*
G75*
G02*
X62530000Y-110575000I225000J0D01*
G01*
X63030000Y-110575000D01*
G75*
G02*
X63255000Y-110800000I0J-225000D01*
G01*
X63255000Y-111250000D01*
G75*
G02*
X63030000Y-111475000I-225000J0D01*
G01*
G37*
G36*
G01*
X59405000Y-120550000D02*
X59405000Y-121050000D01*
G75*
G02*
X59180000Y-121275000I-225000J0D01*
G01*
X58730000Y-121275000D01*
G75*
G02*
X58505000Y-121050000I0J225000D01*
G01*
X58505000Y-120550000D01*
G75*
G02*
X58730000Y-120325000I225000J0D01*
G01*
X59180000Y-120325000D01*
G75*
G02*
X59405000Y-120550000I0J-225000D01*
G01*
G37*
G36*
G01*
X60955000Y-120550000D02*
X60955000Y-121050000D01*
G75*
G02*
X60730000Y-121275000I-225000J0D01*
G01*
X60280000Y-121275000D01*
G75*
G02*
X60055000Y-121050000I0J225000D01*
G01*
X60055000Y-120550000D01*
G75*
G02*
X60280000Y-120325000I225000J0D01*
G01*
X60730000Y-120325000D01*
G75*
G02*
X60955000Y-120550000I0J-225000D01*
G01*
G37*
G36*
G01*
X71959000Y-126196000D02*
X71959000Y-125696000D01*
G75*
G02*
X72184000Y-125471000I225000J0D01*
G01*
X72634000Y-125471000D01*
G75*
G02*
X72859000Y-125696000I0J-225000D01*
G01*
X72859000Y-126196000D01*
G75*
G02*
X72634000Y-126421000I-225000J0D01*
G01*
X72184000Y-126421000D01*
G75*
G02*
X71959000Y-126196000I0J225000D01*
G01*
G37*
G36*
G01*
X70409000Y-126196000D02*
X70409000Y-125696000D01*
G75*
G02*
X70634000Y-125471000I225000J0D01*
G01*
X71084000Y-125471000D01*
G75*
G02*
X71309000Y-125696000I0J-225000D01*
G01*
X71309000Y-126196000D01*
G75*
G02*
X71084000Y-126421000I-225000J0D01*
G01*
X70634000Y-126421000D01*
G75*
G02*
X70409000Y-126196000I0J225000D01*
G01*
G37*
G36*
G01*
X64300000Y-124695000D02*
X64800000Y-124695000D01*
G75*
G02*
X65025000Y-124920000I0J-225000D01*
G01*
X65025000Y-125370000D01*
G75*
G02*
X64800000Y-125595000I-225000J0D01*
G01*
X64300000Y-125595000D01*
G75*
G02*
X64075000Y-125370000I0J225000D01*
G01*
X64075000Y-124920000D01*
G75*
G02*
X64300000Y-124695000I225000J0D01*
G01*
G37*
G36*
G01*
X64300000Y-123145000D02*
X64800000Y-123145000D01*
G75*
G02*
X65025000Y-123370000I0J-225000D01*
G01*
X65025000Y-123820000D01*
G75*
G02*
X64800000Y-124045000I-225000J0D01*
G01*
X64300000Y-124045000D01*
G75*
G02*
X64075000Y-123820000I0J225000D01*
G01*
X64075000Y-123370000D01*
G75*
G02*
X64300000Y-123145000I225000J0D01*
G01*
G37*
G36*
G01*
X57165000Y-123060000D02*
X57165000Y-123560000D01*
G75*
G02*
X56940000Y-123785000I-225000J0D01*
G01*
X56490000Y-123785000D01*
G75*
G02*
X56265000Y-123560000I0J225000D01*
G01*
X56265000Y-123060000D01*
G75*
G02*
X56490000Y-122835000I225000J0D01*
G01*
X56940000Y-122835000D01*
G75*
G02*
X57165000Y-123060000I0J-225000D01*
G01*
G37*
G36*
G01*
X58715000Y-123060000D02*
X58715000Y-123560000D01*
G75*
G02*
X58490000Y-123785000I-225000J0D01*
G01*
X58040000Y-123785000D01*
G75*
G02*
X57815000Y-123560000I0J225000D01*
G01*
X57815000Y-123060000D01*
G75*
G02*
X58040000Y-122835000I225000J0D01*
G01*
X58490000Y-122835000D01*
G75*
G02*
X58715000Y-123060000I0J-225000D01*
G01*
G37*
G36*
G01*
X67125000Y-125050000D02*
X67125000Y-125550000D01*
G75*
G02*
X66900000Y-125775000I-225000J0D01*
G01*
X66450000Y-125775000D01*
G75*
G02*
X66225000Y-125550000I0J225000D01*
G01*
X66225000Y-125050000D01*
G75*
G02*
X66450000Y-124825000I225000J0D01*
G01*
X66900000Y-124825000D01*
G75*
G02*
X67125000Y-125050000I0J-225000D01*
G01*
G37*
G36*
G01*
X68675000Y-125050000D02*
X68675000Y-125550000D01*
G75*
G02*
X68450000Y-125775000I-225000J0D01*
G01*
X68000000Y-125775000D01*
G75*
G02*
X67775000Y-125550000I0J225000D01*
G01*
X67775000Y-125050000D01*
G75*
G02*
X68000000Y-124825000I225000J0D01*
G01*
X68450000Y-124825000D01*
G75*
G02*
X68675000Y-125050000I0J-225000D01*
G01*
G37*
G36*
G01*
X71945000Y-124660000D02*
X71945000Y-124160000D01*
G75*
G02*
X72170000Y-123935000I225000J0D01*
G01*
X72620000Y-123935000D01*
G75*
G02*
X72845000Y-124160000I0J-225000D01*
G01*
X72845000Y-124660000D01*
G75*
G02*
X72620000Y-124885000I-225000J0D01*
G01*
X72170000Y-124885000D01*
G75*
G02*
X71945000Y-124660000I0J225000D01*
G01*
G37*
G36*
G01*
X70395000Y-124660000D02*
X70395000Y-124160000D01*
G75*
G02*
X70620000Y-123935000I225000J0D01*
G01*
X71070000Y-123935000D01*
G75*
G02*
X71295000Y-124160000I0J-225000D01*
G01*
X71295000Y-124660000D01*
G75*
G02*
X71070000Y-124885000I-225000J0D01*
G01*
X70620000Y-124885000D01*
G75*
G02*
X70395000Y-124660000I0J225000D01*
G01*
G37*
G36*
G01*
X67135000Y-126570000D02*
X67135000Y-127070000D01*
G75*
G02*
X66910000Y-127295000I-225000J0D01*
G01*
X66460000Y-127295000D01*
G75*
G02*
X66235000Y-127070000I0J225000D01*
G01*
X66235000Y-126570000D01*
G75*
G02*
X66460000Y-126345000I225000J0D01*
G01*
X66910000Y-126345000D01*
G75*
G02*
X67135000Y-126570000I0J-225000D01*
G01*
G37*
G36*
G01*
X68685000Y-126570000D02*
X68685000Y-127070000D01*
G75*
G02*
X68460000Y-127295000I-225000J0D01*
G01*
X68010000Y-127295000D01*
G75*
G02*
X67785000Y-127070000I0J225000D01*
G01*
X67785000Y-126570000D01*
G75*
G02*
X68010000Y-126345000I225000J0D01*
G01*
X68460000Y-126345000D01*
G75*
G02*
X68685000Y-126570000I0J-225000D01*
G01*
G37*
G36*
G01*
X74335000Y-122640000D02*
X74335000Y-123140000D01*
G75*
G02*
X74110000Y-123365000I-225000J0D01*
G01*
X73660000Y-123365000D01*
G75*
G02*
X73435000Y-123140000I0J225000D01*
G01*
X73435000Y-122640000D01*
G75*
G02*
X73660000Y-122415000I225000J0D01*
G01*
X74110000Y-122415000D01*
G75*
G02*
X74335000Y-122640000I0J-225000D01*
G01*
G37*
G36*
G01*
X75885000Y-122640000D02*
X75885000Y-123140000D01*
G75*
G02*
X75660000Y-123365000I-225000J0D01*
G01*
X75210000Y-123365000D01*
G75*
G02*
X74985000Y-123140000I0J225000D01*
G01*
X74985000Y-122640000D01*
G75*
G02*
X75210000Y-122415000I225000J0D01*
G01*
X75660000Y-122415000D01*
G75*
G02*
X75885000Y-122640000I0J-225000D01*
G01*
G37*
G36*
G01*
X62295000Y-126810000D02*
X62295000Y-126310000D01*
G75*
G02*
X62520000Y-126085000I225000J0D01*
G01*
X62970000Y-126085000D01*
G75*
G02*
X63195000Y-126310000I0J-225000D01*
G01*
X63195000Y-126810000D01*
G75*
G02*
X62970000Y-127035000I-225000J0D01*
G01*
X62520000Y-127035000D01*
G75*
G02*
X62295000Y-126810000I0J225000D01*
G01*
G37*
G36*
G01*
X60745000Y-126810000D02*
X60745000Y-126310000D01*
G75*
G02*
X60970000Y-126085000I225000J0D01*
G01*
X61420000Y-126085000D01*
G75*
G02*
X61645000Y-126310000I0J-225000D01*
G01*
X61645000Y-126810000D01*
G75*
G02*
X61420000Y-127035000I-225000J0D01*
G01*
X60970000Y-127035000D01*
G75*
G02*
X60745000Y-126810000I0J225000D01*
G01*
G37*
G36*
G01*
X54765000Y-125080000D02*
X54765000Y-124580000D01*
G75*
G02*
X54990000Y-124355000I225000J0D01*
G01*
X55440000Y-124355000D01*
G75*
G02*
X55665000Y-124580000I0J-225000D01*
G01*
X55665000Y-125080000D01*
G75*
G02*
X55440000Y-125305000I-225000J0D01*
G01*
X54990000Y-125305000D01*
G75*
G02*
X54765000Y-125080000I0J225000D01*
G01*
G37*
G36*
G01*
X53215000Y-125080000D02*
X53215000Y-124580000D01*
G75*
G02*
X53440000Y-124355000I225000J0D01*
G01*
X53890000Y-124355000D01*
G75*
G02*
X54115000Y-124580000I0J-225000D01*
G01*
X54115000Y-125080000D01*
G75*
G02*
X53890000Y-125305000I-225000J0D01*
G01*
X53440000Y-125305000D01*
G75*
G02*
X53215000Y-125080000I0J225000D01*
G01*
G37*
M02*
