G04 #@! TF.GenerationSoftware,KiCad,Pcbnew,(5.1.10-1-10_14)*
G04 #@! TF.CreationDate,2022-01-16T16:12:51+09:00*
G04 #@! TF.ProjectId,ft2232_jtag_tap,66743232-3332-45f6-9a74-61675f746170,rev?*
G04 #@! TF.SameCoordinates,Original*
G04 #@! TF.FileFunction,Legend,Top*
G04 #@! TF.FilePolarity,Positive*
%FSLAX46Y46*%
G04 Gerber Fmt 4.6, Leading zero omitted, Abs format (unit mm)*
G04 Created by KiCad (PCBNEW (5.1.10-1-10_14)) date 2022-01-16 16:12:51*
%MOMM*%
%LPD*%
G01*
G04 APERTURE LIST*
%ADD10C,0.150000*%
%ADD11C,0.120000*%
G04 APERTURE END LIST*
D10*
X56166666Y-130382380D02*
X56166666Y-129382380D01*
X56547619Y-129382380D01*
X56642857Y-129430000D01*
X56690476Y-129477619D01*
X56738095Y-129572857D01*
X56738095Y-129715714D01*
X56690476Y-129810952D01*
X56642857Y-129858571D01*
X56547619Y-129906190D01*
X56166666Y-129906190D01*
X57071428Y-129382380D02*
X57309523Y-130382380D01*
X57500000Y-129668095D01*
X57690476Y-130382380D01*
X57928571Y-129382380D01*
X58880952Y-130382380D02*
X58547619Y-129906190D01*
X58309523Y-130382380D02*
X58309523Y-129382380D01*
X58690476Y-129382380D01*
X58785714Y-129430000D01*
X58833333Y-129477619D01*
X58880952Y-129572857D01*
X58880952Y-129715714D01*
X58833333Y-129810952D01*
X58785714Y-129858571D01*
X58690476Y-129906190D01*
X58309523Y-129906190D01*
D11*
X73740000Y-107315000D02*
X70140000Y-107315000D01*
X73740000Y-107315000D02*
X75940000Y-107315000D01*
X73740000Y-112785000D02*
X71540000Y-112785000D01*
X73740000Y-112785000D02*
X75940000Y-112785000D01*
X63960000Y-120802779D02*
X63960000Y-120477221D01*
X64980000Y-120802779D02*
X64980000Y-120477221D01*
X48270000Y-112405000D02*
X48270000Y-121595000D01*
X57680000Y-112525000D02*
X57680000Y-121475000D01*
X51000000Y-121595000D02*
X48270000Y-121595000D01*
X51000000Y-112405000D02*
X48270000Y-112405000D01*
X54600000Y-121595000D02*
X53700000Y-121595000D01*
X54600000Y-112405000D02*
X53700000Y-112405000D01*
X72684000Y-116362000D02*
X75134000Y-116362000D01*
X74484000Y-113142000D02*
X72684000Y-113142000D01*
X73720000Y-119825000D02*
X70120000Y-119825000D01*
X73720000Y-119825000D02*
X75920000Y-119825000D01*
X73720000Y-125295000D02*
X71520000Y-125295000D01*
X73720000Y-125295000D02*
X75920000Y-125295000D01*
X69200000Y-131930000D02*
G75*
G03*
X69200000Y-131930000I-700000J0D01*
G01*
X67100000Y-131910000D02*
G75*
G03*
X67100000Y-131910000I-700000J0D01*
G01*
X71370000Y-131910000D02*
G75*
G03*
X71370000Y-131910000I-700000J0D01*
G01*
X82972742Y-111182500D02*
X83447258Y-111182500D01*
X82972742Y-110137500D02*
X83447258Y-110137500D01*
X82992742Y-121352500D02*
X83467258Y-121352500D01*
X82992742Y-120307500D02*
X83467258Y-120307500D01*
X82982742Y-113712500D02*
X83457258Y-113712500D01*
X82982742Y-112667500D02*
X83457258Y-112667500D01*
X82962742Y-116262500D02*
X83437258Y-116262500D01*
X82962742Y-115217500D02*
X83437258Y-115217500D01*
X82962742Y-118802500D02*
X83437258Y-118802500D01*
X82962742Y-117757500D02*
X83437258Y-117757500D01*
X82992742Y-123882500D02*
X83467258Y-123882500D01*
X82992742Y-122837500D02*
X83467258Y-122837500D01*
X82942742Y-108642500D02*
X83417258Y-108642500D01*
X82942742Y-107597500D02*
X83417258Y-107597500D01*
X83477500Y-125902742D02*
X83477500Y-126377258D01*
X84522500Y-125902742D02*
X84522500Y-126377258D01*
X76647500Y-103222742D02*
X76647500Y-103697258D01*
X77692500Y-103222742D02*
X77692500Y-103697258D01*
X80650000Y-124630000D02*
X82110000Y-124630000D01*
X80650000Y-127790000D02*
X82810000Y-127790000D01*
X80650000Y-127790000D02*
X80650000Y-126860000D01*
X80650000Y-124630000D02*
X80650000Y-125560000D01*
X73850000Y-101920000D02*
X75310000Y-101920000D01*
X73850000Y-105080000D02*
X76010000Y-105080000D01*
X73850000Y-105080000D02*
X73850000Y-104150000D01*
X73850000Y-101920000D02*
X73850000Y-102850000D01*
X75250000Y-127200000D02*
X73450000Y-127200000D01*
X73450000Y-130420000D02*
X75900000Y-130420000D01*
X66092500Y-125872742D02*
X66092500Y-126347258D01*
X65047500Y-125872742D02*
X65047500Y-126347258D01*
X77652500Y-128602742D02*
X77652500Y-129077258D01*
X76607500Y-128602742D02*
X76607500Y-129077258D01*
X77197258Y-131932500D02*
X76722742Y-131932500D01*
X77197258Y-130887500D02*
X76722742Y-130887500D01*
X67622500Y-125872742D02*
X67622500Y-126347258D01*
X66577500Y-125872742D02*
X66577500Y-126347258D01*
X55377258Y-123822500D02*
X54902742Y-123822500D01*
X55377258Y-122777500D02*
X54902742Y-122777500D01*
X56332742Y-110267500D02*
X56807258Y-110267500D01*
X56332742Y-111312500D02*
X56807258Y-111312500D01*
X60732742Y-131197500D02*
X61207258Y-131197500D01*
X60732742Y-132242500D02*
X61207258Y-132242500D01*
X90470000Y-114960000D02*
X99590000Y-114960000D01*
X90470000Y-119060000D02*
X99590000Y-119060000D01*
X90470000Y-100370000D02*
X99590000Y-100370000D01*
X99590000Y-100370000D02*
X99590000Y-133650000D01*
X99590000Y-133650000D02*
X90470000Y-133650000D01*
X90470000Y-133650000D02*
X90470000Y-100370000D01*
X84850000Y-105580000D02*
X83850000Y-105080000D01*
X83850000Y-105080000D02*
X83850000Y-106080000D01*
X83850000Y-106080000D02*
X84850000Y-105580000D01*
X58700000Y-130985000D02*
X56415000Y-130985000D01*
X56415000Y-130985000D02*
X56415000Y-132455000D01*
X56415000Y-132455000D02*
X58700000Y-132455000D01*
X76800000Y-115489420D02*
X76800000Y-115770580D01*
X75780000Y-115489420D02*
X75780000Y-115770580D01*
X70370000Y-115780580D02*
X70370000Y-115499420D01*
X71390000Y-115780580D02*
X71390000Y-115499420D01*
X75649420Y-118490000D02*
X75930580Y-118490000D01*
X75649420Y-119510000D02*
X75930580Y-119510000D01*
X75679420Y-105990000D02*
X75960580Y-105990000D01*
X75679420Y-107010000D02*
X75960580Y-107010000D01*
X71509420Y-118450000D02*
X71790580Y-118450000D01*
X71509420Y-119470000D02*
X71790580Y-119470000D01*
X71499420Y-105990000D02*
X71780580Y-105990000D01*
X71499420Y-107010000D02*
X71780580Y-107010000D01*
X73799420Y-130910000D02*
X74080580Y-130910000D01*
X73799420Y-131930000D02*
X74080580Y-131930000D01*
D10*
X72898095Y-109434380D02*
X72898095Y-110243904D01*
X72945714Y-110339142D01*
X72993333Y-110386761D01*
X73088571Y-110434380D01*
X73279047Y-110434380D01*
X73374285Y-110386761D01*
X73421904Y-110339142D01*
X73469523Y-110243904D01*
X73469523Y-109434380D01*
X74374285Y-109767714D02*
X74374285Y-110434380D01*
X74136190Y-109386761D02*
X73898095Y-110101047D01*
X74517142Y-110101047D01*
X63492380Y-120806666D02*
X63492380Y-121282857D01*
X62492380Y-121282857D01*
X63492380Y-119949523D02*
X63492380Y-120520952D01*
X63492380Y-120235238D02*
X62492380Y-120235238D01*
X62635238Y-120330476D01*
X62730476Y-120425714D01*
X62778095Y-120520952D01*
X58252380Y-117333333D02*
X58966666Y-117333333D01*
X59109523Y-117380952D01*
X59204761Y-117476190D01*
X59252380Y-117619047D01*
X59252380Y-117714285D01*
X59252380Y-116333333D02*
X59252380Y-116904761D01*
X59252380Y-116619047D02*
X58252380Y-116619047D01*
X58395238Y-116714285D01*
X58490476Y-116809523D01*
X58538095Y-116904761D01*
X69850095Y-112990380D02*
X69850095Y-113799904D01*
X69897714Y-113895142D01*
X69945333Y-113942761D01*
X70040571Y-113990380D01*
X70231047Y-113990380D01*
X70326285Y-113942761D01*
X70373904Y-113895142D01*
X70421523Y-113799904D01*
X70421523Y-112990380D01*
X71326285Y-112990380D02*
X71135809Y-112990380D01*
X71040571Y-113038000D01*
X70992952Y-113085619D01*
X70897714Y-113228476D01*
X70850095Y-113418952D01*
X70850095Y-113799904D01*
X70897714Y-113895142D01*
X70945333Y-113942761D01*
X71040571Y-113990380D01*
X71231047Y-113990380D01*
X71326285Y-113942761D01*
X71373904Y-113895142D01*
X71421523Y-113799904D01*
X71421523Y-113561809D01*
X71373904Y-113466571D01*
X71326285Y-113418952D01*
X71231047Y-113371333D01*
X71040571Y-113371333D01*
X70945333Y-113418952D01*
X70897714Y-113466571D01*
X70850095Y-113561809D01*
X72958095Y-122134380D02*
X72958095Y-122943904D01*
X73005714Y-123039142D01*
X73053333Y-123086761D01*
X73148571Y-123134380D01*
X73339047Y-123134380D01*
X73434285Y-123086761D01*
X73481904Y-123039142D01*
X73529523Y-122943904D01*
X73529523Y-122134380D01*
X74481904Y-122134380D02*
X74005714Y-122134380D01*
X73958095Y-122610571D01*
X74005714Y-122562952D01*
X74100952Y-122515333D01*
X74339047Y-122515333D01*
X74434285Y-122562952D01*
X74481904Y-122610571D01*
X74529523Y-122705809D01*
X74529523Y-122943904D01*
X74481904Y-123039142D01*
X74434285Y-123086761D01*
X74339047Y-123134380D01*
X74100952Y-123134380D01*
X74005714Y-123086761D01*
X73958095Y-123039142D01*
X67338095Y-128712380D02*
X67909523Y-128712380D01*
X67623809Y-129712380D02*
X67623809Y-128712380D01*
X68242857Y-129712380D02*
X68242857Y-128712380D01*
X68623809Y-128712380D01*
X68719047Y-128760000D01*
X68766666Y-128807619D01*
X68814285Y-128902857D01*
X68814285Y-129045714D01*
X68766666Y-129140952D01*
X68719047Y-129188571D01*
X68623809Y-129236190D01*
X68242857Y-129236190D01*
X69147619Y-128712380D02*
X69766666Y-128712380D01*
X69433333Y-129093333D01*
X69576190Y-129093333D01*
X69671428Y-129140952D01*
X69719047Y-129188571D01*
X69766666Y-129283809D01*
X69766666Y-129521904D01*
X69719047Y-129617142D01*
X69671428Y-129664761D01*
X69576190Y-129712380D01*
X69290476Y-129712380D01*
X69195238Y-129664761D01*
X69147619Y-129617142D01*
X62908095Y-131432380D02*
X63479523Y-131432380D01*
X63193809Y-132432380D02*
X63193809Y-131432380D01*
X63812857Y-132432380D02*
X63812857Y-131432380D01*
X64193809Y-131432380D01*
X64289047Y-131480000D01*
X64336666Y-131527619D01*
X64384285Y-131622857D01*
X64384285Y-131765714D01*
X64336666Y-131860952D01*
X64289047Y-131908571D01*
X64193809Y-131956190D01*
X63812857Y-131956190D01*
X64765238Y-131527619D02*
X64812857Y-131480000D01*
X64908095Y-131432380D01*
X65146190Y-131432380D01*
X65241428Y-131480000D01*
X65289047Y-131527619D01*
X65336666Y-131622857D01*
X65336666Y-131718095D01*
X65289047Y-131860952D01*
X64717619Y-132432380D01*
X65336666Y-132432380D01*
X69398095Y-129832380D02*
X69969523Y-129832380D01*
X69683809Y-130832380D02*
X69683809Y-129832380D01*
X70302857Y-130832380D02*
X70302857Y-129832380D01*
X70683809Y-129832380D01*
X70779047Y-129880000D01*
X70826666Y-129927619D01*
X70874285Y-130022857D01*
X70874285Y-130165714D01*
X70826666Y-130260952D01*
X70779047Y-130308571D01*
X70683809Y-130356190D01*
X70302857Y-130356190D01*
X71826666Y-130832380D02*
X71255238Y-130832380D01*
X71540952Y-130832380D02*
X71540952Y-129832380D01*
X71445714Y-129975238D01*
X71350476Y-130070476D01*
X71255238Y-130118095D01*
X79247142Y-111072380D02*
X78913809Y-110596190D01*
X78675714Y-111072380D02*
X78675714Y-110072380D01*
X79056666Y-110072380D01*
X79151904Y-110120000D01*
X79199523Y-110167619D01*
X79247142Y-110262857D01*
X79247142Y-110405714D01*
X79199523Y-110500952D01*
X79151904Y-110548571D01*
X79056666Y-110596190D01*
X78675714Y-110596190D01*
X79628095Y-110167619D02*
X79675714Y-110120000D01*
X79770952Y-110072380D01*
X80009047Y-110072380D01*
X80104285Y-110120000D01*
X80151904Y-110167619D01*
X80199523Y-110262857D01*
X80199523Y-110358095D01*
X80151904Y-110500952D01*
X79580476Y-111072380D01*
X80199523Y-111072380D01*
X81056666Y-110072380D02*
X80866190Y-110072380D01*
X80770952Y-110120000D01*
X80723333Y-110167619D01*
X80628095Y-110310476D01*
X80580476Y-110500952D01*
X80580476Y-110881904D01*
X80628095Y-110977142D01*
X80675714Y-111024761D01*
X80770952Y-111072380D01*
X80961428Y-111072380D01*
X81056666Y-111024761D01*
X81104285Y-110977142D01*
X81151904Y-110881904D01*
X81151904Y-110643809D01*
X81104285Y-110548571D01*
X81056666Y-110500952D01*
X80961428Y-110453333D01*
X80770952Y-110453333D01*
X80675714Y-110500952D01*
X80628095Y-110548571D01*
X80580476Y-110643809D01*
X79367142Y-121272380D02*
X79033809Y-120796190D01*
X78795714Y-121272380D02*
X78795714Y-120272380D01*
X79176666Y-120272380D01*
X79271904Y-120320000D01*
X79319523Y-120367619D01*
X79367142Y-120462857D01*
X79367142Y-120605714D01*
X79319523Y-120700952D01*
X79271904Y-120748571D01*
X79176666Y-120796190D01*
X78795714Y-120796190D01*
X79748095Y-120367619D02*
X79795714Y-120320000D01*
X79890952Y-120272380D01*
X80129047Y-120272380D01*
X80224285Y-120320000D01*
X80271904Y-120367619D01*
X80319523Y-120462857D01*
X80319523Y-120558095D01*
X80271904Y-120700952D01*
X79700476Y-121272380D01*
X80319523Y-121272380D01*
X81224285Y-120272380D02*
X80748095Y-120272380D01*
X80700476Y-120748571D01*
X80748095Y-120700952D01*
X80843333Y-120653333D01*
X81081428Y-120653333D01*
X81176666Y-120700952D01*
X81224285Y-120748571D01*
X81271904Y-120843809D01*
X81271904Y-121081904D01*
X81224285Y-121177142D01*
X81176666Y-121224761D01*
X81081428Y-121272380D01*
X80843333Y-121272380D01*
X80748095Y-121224761D01*
X80700476Y-121177142D01*
X79317142Y-113532380D02*
X78983809Y-113056190D01*
X78745714Y-113532380D02*
X78745714Y-112532380D01*
X79126666Y-112532380D01*
X79221904Y-112580000D01*
X79269523Y-112627619D01*
X79317142Y-112722857D01*
X79317142Y-112865714D01*
X79269523Y-112960952D01*
X79221904Y-113008571D01*
X79126666Y-113056190D01*
X78745714Y-113056190D01*
X79698095Y-112627619D02*
X79745714Y-112580000D01*
X79840952Y-112532380D01*
X80079047Y-112532380D01*
X80174285Y-112580000D01*
X80221904Y-112627619D01*
X80269523Y-112722857D01*
X80269523Y-112818095D01*
X80221904Y-112960952D01*
X79650476Y-113532380D01*
X80269523Y-113532380D01*
X81126666Y-112865714D02*
X81126666Y-113532380D01*
X80888571Y-112484761D02*
X80650476Y-113199047D01*
X81269523Y-113199047D01*
X79197142Y-116192380D02*
X78863809Y-115716190D01*
X78625714Y-116192380D02*
X78625714Y-115192380D01*
X79006666Y-115192380D01*
X79101904Y-115240000D01*
X79149523Y-115287619D01*
X79197142Y-115382857D01*
X79197142Y-115525714D01*
X79149523Y-115620952D01*
X79101904Y-115668571D01*
X79006666Y-115716190D01*
X78625714Y-115716190D01*
X79578095Y-115287619D02*
X79625714Y-115240000D01*
X79720952Y-115192380D01*
X79959047Y-115192380D01*
X80054285Y-115240000D01*
X80101904Y-115287619D01*
X80149523Y-115382857D01*
X80149523Y-115478095D01*
X80101904Y-115620952D01*
X79530476Y-116192380D01*
X80149523Y-116192380D01*
X80482857Y-115192380D02*
X81101904Y-115192380D01*
X80768571Y-115573333D01*
X80911428Y-115573333D01*
X81006666Y-115620952D01*
X81054285Y-115668571D01*
X81101904Y-115763809D01*
X81101904Y-116001904D01*
X81054285Y-116097142D01*
X81006666Y-116144761D01*
X80911428Y-116192380D01*
X80625714Y-116192380D01*
X80530476Y-116144761D01*
X80482857Y-116097142D01*
X79237142Y-118702380D02*
X78903809Y-118226190D01*
X78665714Y-118702380D02*
X78665714Y-117702380D01*
X79046666Y-117702380D01*
X79141904Y-117750000D01*
X79189523Y-117797619D01*
X79237142Y-117892857D01*
X79237142Y-118035714D01*
X79189523Y-118130952D01*
X79141904Y-118178571D01*
X79046666Y-118226190D01*
X78665714Y-118226190D01*
X79618095Y-117797619D02*
X79665714Y-117750000D01*
X79760952Y-117702380D01*
X79999047Y-117702380D01*
X80094285Y-117750000D01*
X80141904Y-117797619D01*
X80189523Y-117892857D01*
X80189523Y-117988095D01*
X80141904Y-118130952D01*
X79570476Y-118702380D01*
X80189523Y-118702380D01*
X80570476Y-117797619D02*
X80618095Y-117750000D01*
X80713333Y-117702380D01*
X80951428Y-117702380D01*
X81046666Y-117750000D01*
X81094285Y-117797619D01*
X81141904Y-117892857D01*
X81141904Y-117988095D01*
X81094285Y-118130952D01*
X80522857Y-118702380D01*
X81141904Y-118702380D01*
X79367142Y-123642380D02*
X79033809Y-123166190D01*
X78795714Y-123642380D02*
X78795714Y-122642380D01*
X79176666Y-122642380D01*
X79271904Y-122690000D01*
X79319523Y-122737619D01*
X79367142Y-122832857D01*
X79367142Y-122975714D01*
X79319523Y-123070952D01*
X79271904Y-123118571D01*
X79176666Y-123166190D01*
X78795714Y-123166190D01*
X79748095Y-122737619D02*
X79795714Y-122690000D01*
X79890952Y-122642380D01*
X80129047Y-122642380D01*
X80224285Y-122690000D01*
X80271904Y-122737619D01*
X80319523Y-122832857D01*
X80319523Y-122928095D01*
X80271904Y-123070952D01*
X79700476Y-123642380D01*
X80319523Y-123642380D01*
X81271904Y-123642380D02*
X80700476Y-123642380D01*
X80986190Y-123642380D02*
X80986190Y-122642380D01*
X80890952Y-122785238D01*
X80795714Y-122880476D01*
X80700476Y-122928095D01*
X79297142Y-108532380D02*
X78963809Y-108056190D01*
X78725714Y-108532380D02*
X78725714Y-107532380D01*
X79106666Y-107532380D01*
X79201904Y-107580000D01*
X79249523Y-107627619D01*
X79297142Y-107722857D01*
X79297142Y-107865714D01*
X79249523Y-107960952D01*
X79201904Y-108008571D01*
X79106666Y-108056190D01*
X78725714Y-108056190D01*
X79678095Y-107627619D02*
X79725714Y-107580000D01*
X79820952Y-107532380D01*
X80059047Y-107532380D01*
X80154285Y-107580000D01*
X80201904Y-107627619D01*
X80249523Y-107722857D01*
X80249523Y-107818095D01*
X80201904Y-107960952D01*
X79630476Y-108532380D01*
X80249523Y-108532380D01*
X80868571Y-107532380D02*
X80963809Y-107532380D01*
X81059047Y-107580000D01*
X81106666Y-107627619D01*
X81154285Y-107722857D01*
X81201904Y-107913333D01*
X81201904Y-108151428D01*
X81154285Y-108341904D01*
X81106666Y-108437142D01*
X81059047Y-108484761D01*
X80963809Y-108532380D01*
X80868571Y-108532380D01*
X80773333Y-108484761D01*
X80725714Y-108437142D01*
X80678095Y-108341904D01*
X80630476Y-108151428D01*
X80630476Y-107913333D01*
X80678095Y-107722857D01*
X80725714Y-107627619D01*
X80773333Y-107580000D01*
X80868571Y-107532380D01*
X86304380Y-131706857D02*
X85828190Y-132040190D01*
X86304380Y-132278285D02*
X85304380Y-132278285D01*
X85304380Y-131897333D01*
X85352000Y-131802095D01*
X85399619Y-131754476D01*
X85494857Y-131706857D01*
X85637714Y-131706857D01*
X85732952Y-131754476D01*
X85780571Y-131802095D01*
X85828190Y-131897333D01*
X85828190Y-132278285D01*
X86304380Y-130754476D02*
X86304380Y-131325904D01*
X86304380Y-131040190D02*
X85304380Y-131040190D01*
X85447238Y-131135428D01*
X85542476Y-131230666D01*
X85590095Y-131325904D01*
X86304380Y-130278285D02*
X86304380Y-130087809D01*
X86256761Y-129992571D01*
X86209142Y-129944952D01*
X86066285Y-129849714D01*
X85875809Y-129802095D01*
X85494857Y-129802095D01*
X85399619Y-129849714D01*
X85352000Y-129897333D01*
X85304380Y-129992571D01*
X85304380Y-130183047D01*
X85352000Y-130278285D01*
X85399619Y-130325904D01*
X85494857Y-130373523D01*
X85732952Y-130373523D01*
X85828190Y-130325904D01*
X85875809Y-130278285D01*
X85923428Y-130183047D01*
X85923428Y-129992571D01*
X85875809Y-129897333D01*
X85828190Y-129849714D01*
X85732952Y-129802095D01*
X79052380Y-104102857D02*
X78576190Y-104436190D01*
X79052380Y-104674285D02*
X78052380Y-104674285D01*
X78052380Y-104293333D01*
X78100000Y-104198095D01*
X78147619Y-104150476D01*
X78242857Y-104102857D01*
X78385714Y-104102857D01*
X78480952Y-104150476D01*
X78528571Y-104198095D01*
X78576190Y-104293333D01*
X78576190Y-104674285D01*
X79052380Y-103150476D02*
X79052380Y-103721904D01*
X79052380Y-103436190D02*
X78052380Y-103436190D01*
X78195238Y-103531428D01*
X78290476Y-103626666D01*
X78338095Y-103721904D01*
X78480952Y-102579047D02*
X78433333Y-102674285D01*
X78385714Y-102721904D01*
X78290476Y-102769523D01*
X78242857Y-102769523D01*
X78147619Y-102721904D01*
X78100000Y-102674285D01*
X78052380Y-102579047D01*
X78052380Y-102388571D01*
X78100000Y-102293333D01*
X78147619Y-102245714D01*
X78242857Y-102198095D01*
X78290476Y-102198095D01*
X78385714Y-102245714D01*
X78433333Y-102293333D01*
X78480952Y-102388571D01*
X78480952Y-102579047D01*
X78528571Y-102674285D01*
X78576190Y-102721904D01*
X78671428Y-102769523D01*
X78861904Y-102769523D01*
X78957142Y-102721904D01*
X79004761Y-102674285D01*
X79052380Y-102579047D01*
X79052380Y-102388571D01*
X79004761Y-102293333D01*
X78957142Y-102245714D01*
X78861904Y-102198095D01*
X78671428Y-102198095D01*
X78576190Y-102245714D01*
X78528571Y-102293333D01*
X78480952Y-102388571D01*
X80168761Y-128309619D02*
X80073523Y-128262000D01*
X79978285Y-128166761D01*
X79835428Y-128023904D01*
X79740190Y-127976285D01*
X79644952Y-127976285D01*
X79692571Y-128214380D02*
X79597333Y-128166761D01*
X79502095Y-128071523D01*
X79454476Y-127881047D01*
X79454476Y-127547714D01*
X79502095Y-127357238D01*
X79597333Y-127262000D01*
X79692571Y-127214380D01*
X79883047Y-127214380D01*
X79978285Y-127262000D01*
X80073523Y-127357238D01*
X80121142Y-127547714D01*
X80121142Y-127881047D01*
X80073523Y-128071523D01*
X79978285Y-128166761D01*
X79883047Y-128214380D01*
X79692571Y-128214380D01*
X80502095Y-127309619D02*
X80549714Y-127262000D01*
X80644952Y-127214380D01*
X80883047Y-127214380D01*
X80978285Y-127262000D01*
X81025904Y-127309619D01*
X81073523Y-127404857D01*
X81073523Y-127500095D01*
X81025904Y-127642952D01*
X80454476Y-128214380D01*
X81073523Y-128214380D01*
X72548761Y-102909619D02*
X72453523Y-102862000D01*
X72358285Y-102766761D01*
X72215428Y-102623904D01*
X72120190Y-102576285D01*
X72024952Y-102576285D01*
X72072571Y-102814380D02*
X71977333Y-102766761D01*
X71882095Y-102671523D01*
X71834476Y-102481047D01*
X71834476Y-102147714D01*
X71882095Y-101957238D01*
X71977333Y-101862000D01*
X72072571Y-101814380D01*
X72263047Y-101814380D01*
X72358285Y-101862000D01*
X72453523Y-101957238D01*
X72501142Y-102147714D01*
X72501142Y-102481047D01*
X72453523Y-102671523D01*
X72358285Y-102766761D01*
X72263047Y-102814380D01*
X72072571Y-102814380D01*
X73453523Y-102814380D02*
X72882095Y-102814380D01*
X73167809Y-102814380D02*
X73167809Y-101814380D01*
X73072571Y-101957238D01*
X72977333Y-102052476D01*
X72882095Y-102100095D01*
X73660095Y-125944380D02*
X73660095Y-126753904D01*
X73707714Y-126849142D01*
X73755333Y-126896761D01*
X73850571Y-126944380D01*
X74041047Y-126944380D01*
X74136285Y-126896761D01*
X74183904Y-126849142D01*
X74231523Y-126753904D01*
X74231523Y-125944380D01*
X75231523Y-126944380D02*
X74660095Y-126944380D01*
X74945809Y-126944380D02*
X74945809Y-125944380D01*
X74850571Y-126087238D01*
X74755333Y-126182476D01*
X74660095Y-126230095D01*
X65942380Y-124042857D02*
X65466190Y-124376190D01*
X65942380Y-124614285D02*
X64942380Y-124614285D01*
X64942380Y-124233333D01*
X64990000Y-124138095D01*
X65037619Y-124090476D01*
X65132857Y-124042857D01*
X65275714Y-124042857D01*
X65370952Y-124090476D01*
X65418571Y-124138095D01*
X65466190Y-124233333D01*
X65466190Y-124614285D01*
X65942380Y-123090476D02*
X65942380Y-123661904D01*
X65942380Y-123376190D02*
X64942380Y-123376190D01*
X65085238Y-123471428D01*
X65180476Y-123566666D01*
X65228095Y-123661904D01*
X65942380Y-122138095D02*
X65942380Y-122709523D01*
X65942380Y-122423809D02*
X64942380Y-122423809D01*
X65085238Y-122519047D01*
X65180476Y-122614285D01*
X65228095Y-122709523D01*
X79012380Y-129482857D02*
X78536190Y-129816190D01*
X79012380Y-130054285D02*
X78012380Y-130054285D01*
X78012380Y-129673333D01*
X78060000Y-129578095D01*
X78107619Y-129530476D01*
X78202857Y-129482857D01*
X78345714Y-129482857D01*
X78440952Y-129530476D01*
X78488571Y-129578095D01*
X78536190Y-129673333D01*
X78536190Y-130054285D01*
X79012380Y-128530476D02*
X79012380Y-129101904D01*
X79012380Y-128816190D02*
X78012380Y-128816190D01*
X78155238Y-128911428D01*
X78250476Y-129006666D01*
X78298095Y-129101904D01*
X78012380Y-127911428D02*
X78012380Y-127816190D01*
X78060000Y-127720952D01*
X78107619Y-127673333D01*
X78202857Y-127625714D01*
X78393333Y-127578095D01*
X78631428Y-127578095D01*
X78821904Y-127625714D01*
X78917142Y-127673333D01*
X78964761Y-127720952D01*
X79012380Y-127816190D01*
X79012380Y-127911428D01*
X78964761Y-128006666D01*
X78917142Y-128054285D01*
X78821904Y-128101904D01*
X78631428Y-128149523D01*
X78393333Y-128149523D01*
X78202857Y-128101904D01*
X78107619Y-128054285D01*
X78060000Y-128006666D01*
X78012380Y-127911428D01*
X76795333Y-133040380D02*
X76462000Y-132564190D01*
X76223904Y-133040380D02*
X76223904Y-132040380D01*
X76604857Y-132040380D01*
X76700095Y-132088000D01*
X76747714Y-132135619D01*
X76795333Y-132230857D01*
X76795333Y-132373714D01*
X76747714Y-132468952D01*
X76700095Y-132516571D01*
X76604857Y-132564190D01*
X76223904Y-132564190D01*
X77271523Y-133040380D02*
X77462000Y-133040380D01*
X77557238Y-132992761D01*
X77604857Y-132945142D01*
X77700095Y-132802285D01*
X77747714Y-132611809D01*
X77747714Y-132230857D01*
X77700095Y-132135619D01*
X77652476Y-132088000D01*
X77557238Y-132040380D01*
X77366761Y-132040380D01*
X77271523Y-132088000D01*
X77223904Y-132135619D01*
X77176285Y-132230857D01*
X77176285Y-132468952D01*
X77223904Y-132564190D01*
X77271523Y-132611809D01*
X77366761Y-132659428D01*
X77557238Y-132659428D01*
X77652476Y-132611809D01*
X77700095Y-132564190D01*
X77747714Y-132468952D01*
X67642380Y-124036666D02*
X67166190Y-124370000D01*
X67642380Y-124608095D02*
X66642380Y-124608095D01*
X66642380Y-124227142D01*
X66690000Y-124131904D01*
X66737619Y-124084285D01*
X66832857Y-124036666D01*
X66975714Y-124036666D01*
X67070952Y-124084285D01*
X67118571Y-124131904D01*
X67166190Y-124227142D01*
X67166190Y-124608095D01*
X66642380Y-123703333D02*
X66642380Y-123036666D01*
X67642380Y-123465238D01*
X54973333Y-125182380D02*
X54640000Y-124706190D01*
X54401904Y-125182380D02*
X54401904Y-124182380D01*
X54782857Y-124182380D01*
X54878095Y-124230000D01*
X54925714Y-124277619D01*
X54973333Y-124372857D01*
X54973333Y-124515714D01*
X54925714Y-124610952D01*
X54878095Y-124658571D01*
X54782857Y-124706190D01*
X54401904Y-124706190D01*
X55830476Y-124515714D02*
X55830476Y-125182380D01*
X55592380Y-124134761D02*
X55354285Y-124849047D01*
X55973333Y-124849047D01*
X56403333Y-109812380D02*
X56070000Y-109336190D01*
X55831904Y-109812380D02*
X55831904Y-108812380D01*
X56212857Y-108812380D01*
X56308095Y-108860000D01*
X56355714Y-108907619D01*
X56403333Y-109002857D01*
X56403333Y-109145714D01*
X56355714Y-109240952D01*
X56308095Y-109288571D01*
X56212857Y-109336190D01*
X55831904Y-109336190D01*
X56736666Y-108812380D02*
X57355714Y-108812380D01*
X57022380Y-109193333D01*
X57165238Y-109193333D01*
X57260476Y-109240952D01*
X57308095Y-109288571D01*
X57355714Y-109383809D01*
X57355714Y-109621904D01*
X57308095Y-109717142D01*
X57260476Y-109764761D01*
X57165238Y-109812380D01*
X56879523Y-109812380D01*
X56784285Y-109764761D01*
X56736666Y-109717142D01*
X62453333Y-130642380D02*
X62120000Y-130166190D01*
X61881904Y-130642380D02*
X61881904Y-129642380D01*
X62262857Y-129642380D01*
X62358095Y-129690000D01*
X62405714Y-129737619D01*
X62453333Y-129832857D01*
X62453333Y-129975714D01*
X62405714Y-130070952D01*
X62358095Y-130118571D01*
X62262857Y-130166190D01*
X61881904Y-130166190D01*
X63405714Y-130642380D02*
X62834285Y-130642380D01*
X63120000Y-130642380D02*
X63120000Y-129642380D01*
X63024761Y-129785238D01*
X62929523Y-129880476D01*
X62834285Y-129928095D01*
X92081666Y-98932380D02*
X92081666Y-99646666D01*
X92034047Y-99789523D01*
X91938809Y-99884761D01*
X91795952Y-99932380D01*
X91700714Y-99932380D01*
X92510238Y-99027619D02*
X92557857Y-98980000D01*
X92653095Y-98932380D01*
X92891190Y-98932380D01*
X92986428Y-98980000D01*
X93034047Y-99027619D01*
X93081666Y-99122857D01*
X93081666Y-99218095D01*
X93034047Y-99360952D01*
X92462619Y-99932380D01*
X93081666Y-99932380D01*
X59681904Y-130602380D02*
X59681904Y-129602380D01*
X59920000Y-129602380D01*
X60062857Y-129650000D01*
X60158095Y-129745238D01*
X60205714Y-129840476D01*
X60253333Y-130030952D01*
X60253333Y-130173809D01*
X60205714Y-130364285D01*
X60158095Y-130459523D01*
X60062857Y-130554761D01*
X59920000Y-130602380D01*
X59681904Y-130602380D01*
X61205714Y-130602380D02*
X60634285Y-130602380D01*
X60920000Y-130602380D02*
X60920000Y-129602380D01*
X60824761Y-129745238D01*
X60729523Y-129840476D01*
X60634285Y-129888095D01*
X78077142Y-116272857D02*
X78124761Y-116320476D01*
X78172380Y-116463333D01*
X78172380Y-116558571D01*
X78124761Y-116701428D01*
X78029523Y-116796666D01*
X77934285Y-116844285D01*
X77743809Y-116891904D01*
X77600952Y-116891904D01*
X77410476Y-116844285D01*
X77315238Y-116796666D01*
X77220000Y-116701428D01*
X77172380Y-116558571D01*
X77172380Y-116463333D01*
X77220000Y-116320476D01*
X77267619Y-116272857D01*
X77267619Y-115891904D02*
X77220000Y-115844285D01*
X77172380Y-115749047D01*
X77172380Y-115510952D01*
X77220000Y-115415714D01*
X77267619Y-115368095D01*
X77362857Y-115320476D01*
X77458095Y-115320476D01*
X77600952Y-115368095D01*
X78172380Y-115939523D01*
X78172380Y-115320476D01*
X77172380Y-114987142D02*
X77172380Y-114368095D01*
X77553333Y-114701428D01*
X77553333Y-114558571D01*
X77600952Y-114463333D01*
X77648571Y-114415714D01*
X77743809Y-114368095D01*
X77981904Y-114368095D01*
X78077142Y-114415714D01*
X78124761Y-114463333D01*
X78172380Y-114558571D01*
X78172380Y-114844285D01*
X78124761Y-114939523D01*
X78077142Y-114987142D01*
X69807142Y-116282857D02*
X69854761Y-116330476D01*
X69902380Y-116473333D01*
X69902380Y-116568571D01*
X69854761Y-116711428D01*
X69759523Y-116806666D01*
X69664285Y-116854285D01*
X69473809Y-116901904D01*
X69330952Y-116901904D01*
X69140476Y-116854285D01*
X69045238Y-116806666D01*
X68950000Y-116711428D01*
X68902380Y-116568571D01*
X68902380Y-116473333D01*
X68950000Y-116330476D01*
X68997619Y-116282857D01*
X68997619Y-115901904D02*
X68950000Y-115854285D01*
X68902380Y-115759047D01*
X68902380Y-115520952D01*
X68950000Y-115425714D01*
X68997619Y-115378095D01*
X69092857Y-115330476D01*
X69188095Y-115330476D01*
X69330952Y-115378095D01*
X69902380Y-115949523D01*
X69902380Y-115330476D01*
X68997619Y-114949523D02*
X68950000Y-114901904D01*
X68902380Y-114806666D01*
X68902380Y-114568571D01*
X68950000Y-114473333D01*
X68997619Y-114425714D01*
X69092857Y-114378095D01*
X69188095Y-114378095D01*
X69330952Y-114425714D01*
X69902380Y-114997142D01*
X69902380Y-114378095D01*
X75049142Y-118213142D02*
X75001523Y-118260761D01*
X74858666Y-118308380D01*
X74763428Y-118308380D01*
X74620571Y-118260761D01*
X74525333Y-118165523D01*
X74477714Y-118070285D01*
X74430095Y-117879809D01*
X74430095Y-117736952D01*
X74477714Y-117546476D01*
X74525333Y-117451238D01*
X74620571Y-117356000D01*
X74763428Y-117308380D01*
X74858666Y-117308380D01*
X75001523Y-117356000D01*
X75049142Y-117403619D01*
X75430095Y-117403619D02*
X75477714Y-117356000D01*
X75572952Y-117308380D01*
X75811047Y-117308380D01*
X75906285Y-117356000D01*
X75953904Y-117403619D01*
X76001523Y-117498857D01*
X76001523Y-117594095D01*
X75953904Y-117736952D01*
X75382476Y-118308380D01*
X76001523Y-118308380D01*
X76953904Y-118308380D02*
X76382476Y-118308380D01*
X76668190Y-118308380D02*
X76668190Y-117308380D01*
X76572952Y-117451238D01*
X76477714Y-117546476D01*
X76382476Y-117594095D01*
X77843142Y-106783142D02*
X77795523Y-106830761D01*
X77652666Y-106878380D01*
X77557428Y-106878380D01*
X77414571Y-106830761D01*
X77319333Y-106735523D01*
X77271714Y-106640285D01*
X77224095Y-106449809D01*
X77224095Y-106306952D01*
X77271714Y-106116476D01*
X77319333Y-106021238D01*
X77414571Y-105926000D01*
X77557428Y-105878380D01*
X77652666Y-105878380D01*
X77795523Y-105926000D01*
X77843142Y-105973619D01*
X78224095Y-105973619D02*
X78271714Y-105926000D01*
X78366952Y-105878380D01*
X78605047Y-105878380D01*
X78700285Y-105926000D01*
X78747904Y-105973619D01*
X78795523Y-106068857D01*
X78795523Y-106164095D01*
X78747904Y-106306952D01*
X78176476Y-106878380D01*
X78795523Y-106878380D01*
X79414571Y-105878380D02*
X79509809Y-105878380D01*
X79605047Y-105926000D01*
X79652666Y-105973619D01*
X79700285Y-106068857D01*
X79747904Y-106259333D01*
X79747904Y-106497428D01*
X79700285Y-106687904D01*
X79652666Y-106783142D01*
X79605047Y-106830761D01*
X79509809Y-106878380D01*
X79414571Y-106878380D01*
X79319333Y-106830761D01*
X79271714Y-106783142D01*
X79224095Y-106687904D01*
X79176476Y-106497428D01*
X79176476Y-106259333D01*
X79224095Y-106068857D01*
X79271714Y-105973619D01*
X79319333Y-105926000D01*
X79414571Y-105878380D01*
X70985142Y-117959142D02*
X70937523Y-118006761D01*
X70794666Y-118054380D01*
X70699428Y-118054380D01*
X70556571Y-118006761D01*
X70461333Y-117911523D01*
X70413714Y-117816285D01*
X70366095Y-117625809D01*
X70366095Y-117482952D01*
X70413714Y-117292476D01*
X70461333Y-117197238D01*
X70556571Y-117102000D01*
X70699428Y-117054380D01*
X70794666Y-117054380D01*
X70937523Y-117102000D01*
X70985142Y-117149619D01*
X71937523Y-118054380D02*
X71366095Y-118054380D01*
X71651809Y-118054380D02*
X71651809Y-117054380D01*
X71556571Y-117197238D01*
X71461333Y-117292476D01*
X71366095Y-117340095D01*
X72413714Y-118054380D02*
X72604190Y-118054380D01*
X72699428Y-118006761D01*
X72747047Y-117959142D01*
X72842285Y-117816285D01*
X72889904Y-117625809D01*
X72889904Y-117244857D01*
X72842285Y-117149619D01*
X72794666Y-117102000D01*
X72699428Y-117054380D01*
X72508952Y-117054380D01*
X72413714Y-117102000D01*
X72366095Y-117149619D01*
X72318476Y-117244857D01*
X72318476Y-117482952D01*
X72366095Y-117578190D01*
X72413714Y-117625809D01*
X72508952Y-117673428D01*
X72699428Y-117673428D01*
X72794666Y-117625809D01*
X72842285Y-117578190D01*
X72889904Y-117482952D01*
X68191142Y-106783142D02*
X68143523Y-106830761D01*
X68000666Y-106878380D01*
X67905428Y-106878380D01*
X67762571Y-106830761D01*
X67667333Y-106735523D01*
X67619714Y-106640285D01*
X67572095Y-106449809D01*
X67572095Y-106306952D01*
X67619714Y-106116476D01*
X67667333Y-106021238D01*
X67762571Y-105926000D01*
X67905428Y-105878380D01*
X68000666Y-105878380D01*
X68143523Y-105926000D01*
X68191142Y-105973619D01*
X69143523Y-106878380D02*
X68572095Y-106878380D01*
X68857809Y-106878380D02*
X68857809Y-105878380D01*
X68762571Y-106021238D01*
X68667333Y-106116476D01*
X68572095Y-106164095D01*
X69714952Y-106306952D02*
X69619714Y-106259333D01*
X69572095Y-106211714D01*
X69524476Y-106116476D01*
X69524476Y-106068857D01*
X69572095Y-105973619D01*
X69619714Y-105926000D01*
X69714952Y-105878380D01*
X69905428Y-105878380D01*
X70000666Y-105926000D01*
X70048285Y-105973619D01*
X70095904Y-106068857D01*
X70095904Y-106116476D01*
X70048285Y-106211714D01*
X70000666Y-106259333D01*
X69905428Y-106306952D01*
X69714952Y-106306952D01*
X69619714Y-106354571D01*
X69572095Y-106402190D01*
X69524476Y-106497428D01*
X69524476Y-106687904D01*
X69572095Y-106783142D01*
X69619714Y-106830761D01*
X69714952Y-106878380D01*
X69905428Y-106878380D01*
X70000666Y-106830761D01*
X70048285Y-106783142D01*
X70095904Y-106687904D01*
X70095904Y-106497428D01*
X70048285Y-106402190D01*
X70000666Y-106354571D01*
X69905428Y-106306952D01*
X73747333Y-132945142D02*
X73699714Y-132992761D01*
X73556857Y-133040380D01*
X73461619Y-133040380D01*
X73318761Y-132992761D01*
X73223523Y-132897523D01*
X73175904Y-132802285D01*
X73128285Y-132611809D01*
X73128285Y-132468952D01*
X73175904Y-132278476D01*
X73223523Y-132183238D01*
X73318761Y-132088000D01*
X73461619Y-132040380D01*
X73556857Y-132040380D01*
X73699714Y-132088000D01*
X73747333Y-132135619D01*
X74128285Y-132135619D02*
X74175904Y-132088000D01*
X74271142Y-132040380D01*
X74509238Y-132040380D01*
X74604476Y-132088000D01*
X74652095Y-132135619D01*
X74699714Y-132230857D01*
X74699714Y-132326095D01*
X74652095Y-132468952D01*
X74080666Y-133040380D01*
X74699714Y-133040380D01*
M02*
