M48
; DRILL file {KiCad (5.1.10-1-10_14)} date Sunday, January 16, 2022 at 04:12:54 PM
; FORMAT={-:-/ absolute / metric / decimal}
; #@! TF.CreationDate,2022-01-16T16:12:54+09:00
; #@! TF.GenerationSoftware,Kicad,Pcbnew,(5.1.10-1-10_14)
FMAT,2
METRIC
T1C0.300
T2C0.400
T3C0.600
T4C1.000
T5C2.500
%
G90
G05
T1
X50.98Y-105.38
X50.99Y-128.59
X51.0Y-109.0
X51.0Y-113.0
X51.0Y-117.0
X51.0Y-121.0
X51.0Y-125.0
X51.98Y-119.4
X54.86Y-116.16
X55.0Y-109.0
X55.39Y-101.01
X55.5Y-133.02
X56.7Y-126.17
X59.0Y-101.0
X59.0Y-105.0
X59.0Y-109.0
X59.0Y-133.0
X60.18Y-124.87
X61.17Y-130.45
X61.325Y-110.735
X61.519Y-114.911
X61.72Y-111.8
X61.96Y-129.37
X62.18Y-108.18
X62.97Y-131.2
X63.0Y-101.0
X63.0Y-133.0
X63.05Y-104.64
X63.1Y-107.28
X63.72Y-128.12
X64.02Y-114.129
X64.14Y-106.19
X64.28Y-109.4
X64.41Y-122.5
X64.49Y-118.82
X64.55Y-126.57
X64.82Y-129.37
X65.04Y-114.6
X65.21Y-111.47
X65.22Y-109.75
X65.6Y-128.03
X65.6Y-130.45
X65.66Y-110.68
X65.94Y-131.2
X66.01Y-114.65
X66.13Y-124.23
X66.69Y-128.21
X66.7Y-104.64
X66.71Y-106.17
X66.71Y-108.4
X66.716Y-123.654
X66.725Y-110.535
X66.795Y-122.65
X66.82Y-114.33
X66.84Y-116.99
X66.84Y-118.49
X67.0Y-101.0
X67.0Y-133.0
X67.67Y-111.025
X67.67Y-114.27
X68.38Y-115.51
X68.38Y-117.35
X68.96Y-114.51
X69.28Y-116.77
X69.48Y-129.37
X69.63Y-105.39
X69.78Y-118.43
X70.865Y-105.39
X70.87Y-130.45
X71.0Y-101.0
X71.65Y-129.37
X71.72Y-132.98
X72.18Y-121.06
X72.33Y-130.2
X72.415Y-107.985
X72.415Y-109.155
X72.415Y-111.385
X72.46Y-103.52
X73.07Y-123.72
X73.327Y-116.9
X73.58Y-112.33
X73.608Y-114.752
X73.72Y-106.5
X73.76Y-110.05
X74.6Y-109.3
X74.6Y-121.3
X74.66Y-123.69
X74.832Y-120.0
X75.0Y-101.0
X75.0Y-133.0
X75.2Y-108.1
X75.3Y-110.8
X75.4Y-109.1
X75.757Y-118.257
X76.15Y-132.3
X77.59Y-114.87
X77.9Y-108.8
X78.0Y-119.75
X78.22Y-106.5
X78.52Y-126.97
X78.86Y-125.29
X79.0Y-101.0
X79.0Y-129.0
X79.0Y-133.0
X79.655Y-118.955
X79.655Y-127.17
X79.66Y-117.15
X80.1Y-105.5
X80.48Y-123.7
X80.54Y-108.47
X80.55Y-120.83
X80.57Y-113.6
X81.28Y-125.16
X81.43Y-113.88
X81.44Y-120.06
X81.45Y-118.28
X81.45Y-119.21
X82.32Y-122.07
X82.35Y-113.97
X82.38Y-111.81
X83.18Y-117.06
X83.2Y-107.4
X83.2Y-109.4
X83.21Y-122.09
X83.21Y-124.33
X83.22Y-114.49
X83.22Y-119.58
X83.7Y-105.6
X84.4Y-133.03
X84.54Y-101.0
X87.0Y-101.0
X87.0Y-133.0
X91.0Y-101.0
X91.0Y-105.0
X91.0Y-109.0
X91.0Y-113.0
X91.0Y-117.0
X91.0Y-121.0
X91.0Y-125.0
X91.0Y-129.0
X91.0Y-133.0
X95.0Y-101.0
X95.0Y-105.0
X95.0Y-109.0
X95.0Y-113.0
X95.0Y-117.0
X95.0Y-121.0
X95.0Y-125.0
X95.0Y-129.0
X95.0Y-133.0
X99.0Y-101.0
X99.0Y-105.0
X99.0Y-109.0
X99.0Y-113.0
X99.0Y-117.0
X99.0Y-121.0
X99.0Y-125.0
X99.0Y-129.0
X99.0Y-133.0
T2
X55.65Y-114.025
X55.65Y-114.875
X55.65Y-115.725
X55.65Y-116.575
X55.65Y-117.425
X55.65Y-118.275
X55.65Y-119.125
X55.65Y-119.975
X57.0Y-114.025
X57.0Y-114.875
X57.0Y-115.725
X57.0Y-116.575
X57.0Y-117.425
X57.0Y-118.275
X57.0Y-119.125
X57.0Y-119.975
T4
X86.2Y-105.58
X86.2Y-108.12
X86.2Y-110.66
X86.2Y-113.2
X86.2Y-115.74
X86.2Y-118.28
X86.2Y-120.82
X86.2Y-123.36
X86.2Y-125.9
X86.2Y-128.44
X88.74Y-105.58
X88.74Y-108.12
X88.74Y-110.66
X88.74Y-113.2
X88.74Y-115.74
X88.74Y-118.28
X88.74Y-120.82
X88.74Y-123.36
X88.74Y-125.9
X88.74Y-128.44
T5
X53.0Y-103.0
X53.0Y-131.0
X82.0Y-103.0
X82.0Y-131.0
T3
G00X53.04Y-112.675
M15
G01X52.24Y-112.675
M16
G05
G00X53.04Y-121.325
M15
G01X52.24Y-121.325
M16
G05
G00X56.77Y-112.675
M15
G01X55.27Y-112.675
M16
G05
G00X56.77Y-121.325
M15
G01X55.27Y-121.325
M16
G05
T0
M30
