G04 #@! TF.GenerationSoftware,KiCad,Pcbnew,(5.1.10-1-10_14)*
G04 #@! TF.CreationDate,2022-01-16T16:12:51+09:00*
G04 #@! TF.ProjectId,ft2232_jtag_tap,66743232-3332-45f6-9a74-61675f746170,rev?*
G04 #@! TF.SameCoordinates,Original*
G04 #@! TF.FileFunction,Legend,Bot*
G04 #@! TF.FilePolarity,Positive*
%FSLAX46Y46*%
G04 Gerber Fmt 4.6, Leading zero omitted, Abs format (unit mm)*
G04 Created by KiCad (PCBNEW (5.1.10-1-10_14)) date 2022-01-16 16:12:51*
%MOMM*%
%LPD*%
G01*
G04 APERTURE LIST*
%ADD10C,0.150000*%
%ADD11C,0.120000*%
G04 APERTURE END LIST*
D10*
X93448714Y-106038476D02*
X94305857Y-106038476D01*
X94401095Y-105990857D01*
X94448714Y-105895619D01*
X94448714Y-105848000D01*
X93115380Y-106038476D02*
X93163000Y-105990857D01*
X93210619Y-106038476D01*
X93163000Y-106086095D01*
X93115380Y-106038476D01*
X93210619Y-106038476D01*
X93448714Y-106371809D02*
X93448714Y-106752761D01*
X93115380Y-106514666D02*
X93972523Y-106514666D01*
X94067761Y-106562285D01*
X94115380Y-106657523D01*
X94115380Y-106752761D01*
X94115380Y-107514666D02*
X93591571Y-107514666D01*
X93496333Y-107467047D01*
X93448714Y-107371809D01*
X93448714Y-107181333D01*
X93496333Y-107086095D01*
X94067761Y-107514666D02*
X94115380Y-107419428D01*
X94115380Y-107181333D01*
X94067761Y-107086095D01*
X93972523Y-107038476D01*
X93877285Y-107038476D01*
X93782047Y-107086095D01*
X93734428Y-107181333D01*
X93734428Y-107419428D01*
X93686809Y-107514666D01*
X93448714Y-108419428D02*
X94258238Y-108419428D01*
X94353476Y-108371809D01*
X94401095Y-108324190D01*
X94448714Y-108228952D01*
X94448714Y-108086095D01*
X94401095Y-107990857D01*
X94067761Y-108419428D02*
X94115380Y-108324190D01*
X94115380Y-108133714D01*
X94067761Y-108038476D01*
X94020142Y-107990857D01*
X93924904Y-107943238D01*
X93639190Y-107943238D01*
X93543952Y-107990857D01*
X93496333Y-108038476D01*
X93448714Y-108133714D01*
X93448714Y-108324190D01*
X93496333Y-108419428D01*
X94115380Y-110086095D02*
X93591571Y-110086095D01*
X93496333Y-110038476D01*
X93448714Y-109943238D01*
X93448714Y-109752761D01*
X93496333Y-109657523D01*
X94067761Y-110086095D02*
X94115380Y-109990857D01*
X94115380Y-109752761D01*
X94067761Y-109657523D01*
X93972523Y-109609904D01*
X93877285Y-109609904D01*
X93782047Y-109657523D01*
X93734428Y-109752761D01*
X93734428Y-109990857D01*
X93686809Y-110086095D01*
X94115380Y-110990857D02*
X93115380Y-110990857D01*
X94067761Y-110990857D02*
X94115380Y-110895619D01*
X94115380Y-110705142D01*
X94067761Y-110609904D01*
X94020142Y-110562285D01*
X93924904Y-110514666D01*
X93639190Y-110514666D01*
X93543952Y-110562285D01*
X93496333Y-110609904D01*
X93448714Y-110705142D01*
X93448714Y-110895619D01*
X93496333Y-110990857D01*
X94115380Y-111895619D02*
X93591571Y-111895619D01*
X93496333Y-111848000D01*
X93448714Y-111752761D01*
X93448714Y-111562285D01*
X93496333Y-111467047D01*
X94067761Y-111895619D02*
X94115380Y-111800380D01*
X94115380Y-111562285D01*
X94067761Y-111467047D01*
X93972523Y-111419428D01*
X93877285Y-111419428D01*
X93782047Y-111467047D01*
X93734428Y-111562285D01*
X93734428Y-111800380D01*
X93686809Y-111895619D01*
X93448714Y-112371809D02*
X94448714Y-112371809D01*
X93496333Y-112371809D02*
X93448714Y-112467047D01*
X93448714Y-112657523D01*
X93496333Y-112752761D01*
X93543952Y-112800380D01*
X93639190Y-112848000D01*
X93924904Y-112848000D01*
X94020142Y-112800380D01*
X94067761Y-112752761D01*
X94115380Y-112657523D01*
X94115380Y-112467047D01*
X94067761Y-112371809D01*
X93448714Y-113133714D02*
X93448714Y-113514666D01*
X93115380Y-113276571D02*
X93972523Y-113276571D01*
X94067761Y-113324190D01*
X94115380Y-113419428D01*
X94115380Y-113514666D01*
X94067761Y-114228952D02*
X94115380Y-114133714D01*
X94115380Y-113943238D01*
X94067761Y-113848000D01*
X93972523Y-113800380D01*
X93591571Y-113800380D01*
X93496333Y-113848000D01*
X93448714Y-113943238D01*
X93448714Y-114133714D01*
X93496333Y-114228952D01*
X93591571Y-114276571D01*
X93686809Y-114276571D01*
X93782047Y-113800380D01*
X94115380Y-114705142D02*
X93448714Y-114705142D01*
X93639190Y-114705142D02*
X93543952Y-114752761D01*
X93496333Y-114800380D01*
X93448714Y-114895619D01*
X93448714Y-114990857D01*
X93448714Y-115990857D02*
X94115380Y-116228952D01*
X93448714Y-116467047D01*
X94115380Y-117371809D02*
X94115380Y-116800380D01*
X94115380Y-117086095D02*
X93115380Y-117086095D01*
X93258238Y-116990857D01*
X93353476Y-116895619D01*
X93401095Y-116800380D01*
X94020142Y-117800380D02*
X94067761Y-117847999D01*
X94115380Y-117800380D01*
X94067761Y-117752761D01*
X94020142Y-117800380D01*
X94115380Y-117800380D01*
X94115380Y-118800380D02*
X94115380Y-118228952D01*
X94115380Y-118514666D02*
X93115380Y-118514666D01*
X93258238Y-118419428D01*
X93353476Y-118324190D01*
X93401095Y-118228952D01*
X94496333Y-119514666D02*
X94448714Y-119467047D01*
X94305857Y-119371809D01*
X94210619Y-119324190D01*
X94067761Y-119276571D01*
X93829666Y-119228952D01*
X93639190Y-119228952D01*
X93401095Y-119276571D01*
X93258238Y-119324190D01*
X93163000Y-119371809D01*
X93020142Y-119467047D01*
X92972523Y-119514666D01*
X93210619Y-119847999D02*
X93163000Y-119895619D01*
X93115380Y-119990857D01*
X93115380Y-120228952D01*
X93163000Y-120324190D01*
X93210619Y-120371809D01*
X93305857Y-120419428D01*
X93401095Y-120419428D01*
X93543952Y-120371809D01*
X94115380Y-119800380D01*
X94115380Y-120419428D01*
X93115380Y-121038476D02*
X93115380Y-121133714D01*
X93163000Y-121228952D01*
X93210619Y-121276571D01*
X93305857Y-121324190D01*
X93496333Y-121371809D01*
X93734428Y-121371809D01*
X93924904Y-121324190D01*
X94020142Y-121276571D01*
X94067761Y-121228952D01*
X94115380Y-121133714D01*
X94115380Y-121038476D01*
X94067761Y-120943238D01*
X94020142Y-120895619D01*
X93924904Y-120847999D01*
X93734428Y-120800380D01*
X93496333Y-120800380D01*
X93305857Y-120847999D01*
X93210619Y-120895619D01*
X93163000Y-120943238D01*
X93115380Y-121038476D01*
X93210619Y-121752761D02*
X93163000Y-121800380D01*
X93115380Y-121895619D01*
X93115380Y-122133714D01*
X93163000Y-122228952D01*
X93210619Y-122276571D01*
X93305857Y-122324190D01*
X93401095Y-122324190D01*
X93543952Y-122276571D01*
X94115380Y-121705142D01*
X94115380Y-122324190D01*
X93210619Y-122705142D02*
X93163000Y-122752761D01*
X93115380Y-122847999D01*
X93115380Y-123086095D01*
X93163000Y-123181333D01*
X93210619Y-123228952D01*
X93305857Y-123276571D01*
X93401095Y-123276571D01*
X93543952Y-123228952D01*
X94115380Y-122657523D01*
X94115380Y-123276571D01*
X94020142Y-123705142D02*
X94067761Y-123752761D01*
X94115380Y-123705142D01*
X94067761Y-123657523D01*
X94020142Y-123705142D01*
X94115380Y-123705142D01*
X93115380Y-124371809D02*
X93115380Y-124467047D01*
X93163000Y-124562285D01*
X93210619Y-124609904D01*
X93305857Y-124657523D01*
X93496333Y-124705142D01*
X93734428Y-124705142D01*
X93924904Y-124657523D01*
X94020142Y-124609904D01*
X94067761Y-124562285D01*
X94115380Y-124467047D01*
X94115380Y-124371809D01*
X94067761Y-124276571D01*
X94020142Y-124228952D01*
X93924904Y-124181333D01*
X93734428Y-124133714D01*
X93496333Y-124133714D01*
X93305857Y-124181333D01*
X93210619Y-124228952D01*
X93163000Y-124276571D01*
X93115380Y-124371809D01*
X94115380Y-125657523D02*
X94115380Y-125086095D01*
X94115380Y-125371809D02*
X93115380Y-125371809D01*
X93258238Y-125276571D01*
X93353476Y-125181333D01*
X93401095Y-125086095D01*
X94020142Y-126086095D02*
X94067761Y-126133714D01*
X94115380Y-126086095D01*
X94067761Y-126038476D01*
X94020142Y-126086095D01*
X94115380Y-126086095D01*
X94115380Y-127086095D02*
X94115380Y-126514666D01*
X94115380Y-126800380D02*
X93115380Y-126800380D01*
X93258238Y-126705142D01*
X93353476Y-126609904D01*
X93401095Y-126514666D01*
X93115380Y-127943238D02*
X93115380Y-127752761D01*
X93163000Y-127657523D01*
X93210619Y-127609904D01*
X93353476Y-127514666D01*
X93543952Y-127467047D01*
X93924904Y-127467047D01*
X94020142Y-127514666D01*
X94067761Y-127562285D01*
X94115380Y-127657523D01*
X94115380Y-127847999D01*
X94067761Y-127943238D01*
X94020142Y-127990857D01*
X93924904Y-128038476D01*
X93686809Y-128038476D01*
X93591571Y-127990857D01*
X93543952Y-127943238D01*
X93496333Y-127847999D01*
X93496333Y-127657523D01*
X93543952Y-127562285D01*
X93591571Y-127514666D01*
X93686809Y-127467047D01*
X94496333Y-128371809D02*
X94448714Y-128419428D01*
X94305857Y-128514666D01*
X94210619Y-128562285D01*
X94067761Y-128609904D01*
X93829666Y-128657523D01*
X93639190Y-128657523D01*
X93401095Y-128609904D01*
X93258238Y-128562285D01*
X93163000Y-128514666D01*
X93020142Y-128419428D01*
X92972523Y-128371809D01*
X95289190Y-113681333D02*
X95241571Y-113633714D01*
X95193952Y-113538476D01*
X95193952Y-113443238D01*
X95241571Y-113348000D01*
X95289190Y-113300380D01*
X95384428Y-113252761D01*
X95479666Y-113252761D01*
X95574904Y-113300380D01*
X95622523Y-113348000D01*
X95670142Y-113443238D01*
X95670142Y-113538476D01*
X95622523Y-113633714D01*
X95574904Y-113681333D01*
X95193952Y-113681333D02*
X95574904Y-113681333D01*
X95622523Y-113728952D01*
X95622523Y-113776571D01*
X95574904Y-113871809D01*
X95479666Y-113919428D01*
X95241571Y-113919428D01*
X95098714Y-113824190D01*
X95003476Y-113681333D01*
X94955857Y-113490857D01*
X95003476Y-113300380D01*
X95098714Y-113157523D01*
X95241571Y-113062285D01*
X95432047Y-113014666D01*
X95622523Y-113062285D01*
X95765380Y-113157523D01*
X95860619Y-113300380D01*
X95908238Y-113490857D01*
X95860619Y-113681333D01*
X95765380Y-113824190D01*
X95098714Y-114205142D02*
X95098714Y-114586095D01*
X94765380Y-114348000D02*
X95622523Y-114348000D01*
X95717761Y-114395619D01*
X95765380Y-114490857D01*
X95765380Y-114586095D01*
X95098714Y-114919428D02*
X95765380Y-114919428D01*
X95193952Y-114919428D02*
X95146333Y-114967047D01*
X95098714Y-115062285D01*
X95098714Y-115205142D01*
X95146333Y-115300380D01*
X95241571Y-115348000D01*
X95765380Y-115348000D01*
X95765380Y-115824190D02*
X95098714Y-115824190D01*
X94765380Y-115824190D02*
X94813000Y-115776571D01*
X94860619Y-115824190D01*
X94813000Y-115871809D01*
X94765380Y-115824190D01*
X94860619Y-115824190D01*
X95717761Y-116252761D02*
X95765380Y-116348000D01*
X95765380Y-116538476D01*
X95717761Y-116633714D01*
X95622523Y-116681333D01*
X95574904Y-116681333D01*
X95479666Y-116633714D01*
X95432047Y-116538476D01*
X95432047Y-116395619D01*
X95384428Y-116300380D01*
X95289190Y-116252761D01*
X95241571Y-116252761D01*
X95146333Y-116300380D01*
X95098714Y-116395619D01*
X95098714Y-116538476D01*
X95146333Y-116633714D01*
X95765380Y-117109904D02*
X94765380Y-117109904D01*
X95765380Y-117538476D02*
X95241571Y-117538476D01*
X95146333Y-117490857D01*
X95098714Y-117395619D01*
X95098714Y-117252761D01*
X95146333Y-117157523D01*
X95193952Y-117109904D01*
X95765380Y-118014666D02*
X95098714Y-118014666D01*
X94765380Y-118014666D02*
X94813000Y-117967047D01*
X94860619Y-118014666D01*
X94813000Y-118062285D01*
X94765380Y-118014666D01*
X94860619Y-118014666D01*
X95098714Y-118490857D02*
X95765380Y-118490857D01*
X95193952Y-118490857D02*
X95146333Y-118538476D01*
X95098714Y-118633714D01*
X95098714Y-118776571D01*
X95146333Y-118871809D01*
X95241571Y-118919428D01*
X95765380Y-118919428D01*
X95765380Y-119824190D02*
X95241571Y-119824190D01*
X95146333Y-119776571D01*
X95098714Y-119681333D01*
X95098714Y-119490857D01*
X95146333Y-119395619D01*
X95717761Y-119824190D02*
X95765380Y-119728952D01*
X95765380Y-119490857D01*
X95717761Y-119395619D01*
X95622523Y-119348000D01*
X95527285Y-119348000D01*
X95432047Y-119395619D01*
X95384428Y-119490857D01*
X95384428Y-119728952D01*
X95336809Y-119824190D01*
X95098714Y-120728952D02*
X95908238Y-120728952D01*
X96003476Y-120681333D01*
X96051095Y-120633714D01*
X96098714Y-120538476D01*
X96098714Y-120395619D01*
X96051095Y-120300380D01*
X95717761Y-120728952D02*
X95765380Y-120633714D01*
X95765380Y-120443238D01*
X95717761Y-120348000D01*
X95670142Y-120300380D01*
X95574904Y-120252761D01*
X95289190Y-120252761D01*
X95193952Y-120300380D01*
X95146333Y-120348000D01*
X95098714Y-120443238D01*
X95098714Y-120633714D01*
X95146333Y-120728952D01*
X95765380Y-121633714D02*
X95241571Y-121633714D01*
X95146333Y-121586095D01*
X95098714Y-121490857D01*
X95098714Y-121300380D01*
X95146333Y-121205142D01*
X95717761Y-121633714D02*
X95765380Y-121538476D01*
X95765380Y-121300380D01*
X95717761Y-121205142D01*
X95622523Y-121157523D01*
X95527285Y-121157523D01*
X95432047Y-121205142D01*
X95384428Y-121300380D01*
X95384428Y-121538476D01*
X95336809Y-121633714D01*
D11*
X76582000Y-118228000D02*
X74382000Y-118228000D01*
X76582000Y-120428000D02*
X73582000Y-120428000D01*
X76959420Y-121868000D02*
X77240580Y-121868000D01*
X76959420Y-120848000D02*
X77240580Y-120848000D01*
X68880580Y-107920000D02*
X68599420Y-107920000D01*
X68880580Y-108940000D02*
X68599420Y-108940000D01*
X63310000Y-120140000D02*
X62020000Y-120140000D01*
X63310000Y-120590000D02*
X63310000Y-120140000D01*
X63760000Y-120590000D02*
X63310000Y-120590000D01*
X70530000Y-120590000D02*
X70530000Y-120140000D01*
X70080000Y-120590000D02*
X70530000Y-120590000D01*
X63310000Y-113370000D02*
X63310000Y-113820000D01*
X63760000Y-113370000D02*
X63310000Y-113370000D01*
X70530000Y-113370000D02*
X70530000Y-113820000D01*
X70080000Y-113370000D02*
X70530000Y-113370000D01*
X63420000Y-122880000D02*
X63420000Y-125330000D01*
X60200000Y-124680000D02*
X60200000Y-122880000D01*
X59967258Y-119802500D02*
X59492742Y-119802500D01*
X59967258Y-118757500D02*
X59492742Y-118757500D01*
X74897258Y-124942500D02*
X74422742Y-124942500D01*
X74897258Y-123897500D02*
X74422742Y-123897500D01*
X59902779Y-112170000D02*
X59577221Y-112170000D01*
X59902779Y-111150000D02*
X59577221Y-111150000D01*
X62227258Y-127597500D02*
X61752742Y-127597500D01*
X62227258Y-128642500D02*
X61752742Y-128642500D01*
X59977258Y-115717500D02*
X59502742Y-115717500D01*
X59977258Y-116762500D02*
X59502742Y-116762500D01*
X59977258Y-117237500D02*
X59502742Y-117237500D01*
X59977258Y-118282500D02*
X59502742Y-118282500D01*
X57652779Y-124320000D02*
X57327221Y-124320000D01*
X57652779Y-125340000D02*
X57327221Y-125340000D01*
X54612779Y-125860000D02*
X54287221Y-125860000D01*
X54612779Y-126880000D02*
X54287221Y-126880000D01*
X54480000Y-115890000D02*
X54480000Y-118290000D01*
X51380000Y-118290000D02*
X51380000Y-115340000D01*
X59880580Y-114200000D02*
X59599420Y-114200000D01*
X59880580Y-115220000D02*
X59599420Y-115220000D01*
X59880580Y-112670000D02*
X59599420Y-112670000D01*
X59880580Y-113690000D02*
X59599420Y-113690000D01*
X71479420Y-123400000D02*
X71760580Y-123400000D01*
X71479420Y-122380000D02*
X71760580Y-122380000D01*
X71493420Y-127976000D02*
X71774580Y-127976000D01*
X71493420Y-126956000D02*
X71774580Y-126956000D01*
X63290000Y-110390580D02*
X63290000Y-110109420D01*
X62270000Y-110390580D02*
X62270000Y-110109420D01*
X59870580Y-120290000D02*
X59589420Y-120290000D01*
X59870580Y-121310000D02*
X59589420Y-121310000D01*
X71493420Y-126456000D02*
X71774580Y-126456000D01*
X71493420Y-125436000D02*
X71774580Y-125436000D01*
X64040000Y-124229420D02*
X64040000Y-124510580D01*
X65060000Y-124229420D02*
X65060000Y-124510580D01*
X57630580Y-122800000D02*
X57349420Y-122800000D01*
X57630580Y-123820000D02*
X57349420Y-123820000D01*
X67590580Y-124790000D02*
X67309420Y-124790000D01*
X67590580Y-125810000D02*
X67309420Y-125810000D01*
X71479420Y-124920000D02*
X71760580Y-124920000D01*
X71479420Y-123900000D02*
X71760580Y-123900000D01*
X67600580Y-126310000D02*
X67319420Y-126310000D01*
X67600580Y-127330000D02*
X67319420Y-127330000D01*
X74800580Y-122380000D02*
X74519420Y-122380000D01*
X74800580Y-123400000D02*
X74519420Y-123400000D01*
X61829420Y-127070000D02*
X62110580Y-127070000D01*
X61829420Y-126050000D02*
X62110580Y-126050000D01*
X54299420Y-125340000D02*
X54580580Y-125340000D01*
X54299420Y-124320000D02*
X54580580Y-124320000D01*
D10*
X76243904Y-116952380D02*
X76243904Y-117761904D01*
X76196285Y-117857142D01*
X76148666Y-117904761D01*
X76053428Y-117952380D01*
X75862952Y-117952380D01*
X75767714Y-117904761D01*
X75720095Y-117857142D01*
X75672476Y-117761904D01*
X75672476Y-116952380D01*
X75291523Y-116952380D02*
X74624857Y-116952380D01*
X75053428Y-117952380D01*
X80542857Y-122257142D02*
X80590476Y-122304761D01*
X80733333Y-122352380D01*
X80828571Y-122352380D01*
X80971428Y-122304761D01*
X81066666Y-122209523D01*
X81114285Y-122114285D01*
X81161904Y-121923809D01*
X81161904Y-121780952D01*
X81114285Y-121590476D01*
X81066666Y-121495238D01*
X80971428Y-121400000D01*
X80828571Y-121352380D01*
X80733333Y-121352380D01*
X80590476Y-121400000D01*
X80542857Y-121447619D01*
X80161904Y-121447619D02*
X80114285Y-121400000D01*
X80019047Y-121352380D01*
X79780952Y-121352380D01*
X79685714Y-121400000D01*
X79638095Y-121447619D01*
X79590476Y-121542857D01*
X79590476Y-121638095D01*
X79638095Y-121780952D01*
X80209523Y-122352380D01*
X79590476Y-122352380D01*
X78733333Y-121685714D02*
X78733333Y-122352380D01*
X78971428Y-121304761D02*
X79209523Y-122019047D01*
X78590476Y-122019047D01*
X69382857Y-107357142D02*
X69430476Y-107404761D01*
X69573333Y-107452380D01*
X69668571Y-107452380D01*
X69811428Y-107404761D01*
X69906666Y-107309523D01*
X69954285Y-107214285D01*
X70001904Y-107023809D01*
X70001904Y-106880952D01*
X69954285Y-106690476D01*
X69906666Y-106595238D01*
X69811428Y-106500000D01*
X69668571Y-106452380D01*
X69573333Y-106452380D01*
X69430476Y-106500000D01*
X69382857Y-106547619D01*
X68430476Y-107452380D02*
X69001904Y-107452380D01*
X68716190Y-107452380D02*
X68716190Y-106452380D01*
X68811428Y-106595238D01*
X68906666Y-106690476D01*
X69001904Y-106738095D01*
X67573333Y-106785714D02*
X67573333Y-107452380D01*
X67811428Y-106404761D02*
X68049523Y-107119047D01*
X67430476Y-107119047D01*
X67681904Y-122282380D02*
X67681904Y-123091904D01*
X67634285Y-123187142D01*
X67586666Y-123234761D01*
X67491428Y-123282380D01*
X67300952Y-123282380D01*
X67205714Y-123234761D01*
X67158095Y-123187142D01*
X67110476Y-123091904D01*
X67110476Y-122282380D01*
X66729523Y-122282380D02*
X66110476Y-122282380D01*
X66443809Y-122663333D01*
X66300952Y-122663333D01*
X66205714Y-122710952D01*
X66158095Y-122758571D01*
X66110476Y-122853809D01*
X66110476Y-123091904D01*
X66158095Y-123187142D01*
X66205714Y-123234761D01*
X66300952Y-123282380D01*
X66586666Y-123282380D01*
X66681904Y-123234761D01*
X66729523Y-123187142D01*
X59142380Y-125222095D02*
X59951904Y-125222095D01*
X60047142Y-125269714D01*
X60094761Y-125317333D01*
X60142380Y-125412571D01*
X60142380Y-125603047D01*
X60094761Y-125698285D01*
X60047142Y-125745904D01*
X59951904Y-125793523D01*
X59142380Y-125793523D01*
X59237619Y-126222095D02*
X59190000Y-126269714D01*
X59142380Y-126364952D01*
X59142380Y-126603047D01*
X59190000Y-126698285D01*
X59237619Y-126745904D01*
X59332857Y-126793523D01*
X59428095Y-126793523D01*
X59570952Y-126745904D01*
X60142380Y-126174476D01*
X60142380Y-126793523D01*
X60332857Y-108656380D02*
X60666190Y-108180190D01*
X60904285Y-108656380D02*
X60904285Y-107656380D01*
X60523333Y-107656380D01*
X60428095Y-107704000D01*
X60380476Y-107751619D01*
X60332857Y-107846857D01*
X60332857Y-107989714D01*
X60380476Y-108084952D01*
X60428095Y-108132571D01*
X60523333Y-108180190D01*
X60904285Y-108180190D01*
X59380476Y-108656380D02*
X59951904Y-108656380D01*
X59666190Y-108656380D02*
X59666190Y-107656380D01*
X59761428Y-107799238D01*
X59856666Y-107894476D01*
X59951904Y-107942095D01*
X59047142Y-107656380D02*
X58428095Y-107656380D01*
X58761428Y-108037333D01*
X58618571Y-108037333D01*
X58523333Y-108084952D01*
X58475714Y-108132571D01*
X58428095Y-108227809D01*
X58428095Y-108465904D01*
X58475714Y-108561142D01*
X58523333Y-108608761D01*
X58618571Y-108656380D01*
X58904285Y-108656380D01*
X58999523Y-108608761D01*
X59047142Y-108561142D01*
X77858857Y-124912380D02*
X78192190Y-124436190D01*
X78430285Y-124912380D02*
X78430285Y-123912380D01*
X78049333Y-123912380D01*
X77954095Y-123960000D01*
X77906476Y-124007619D01*
X77858857Y-124102857D01*
X77858857Y-124245714D01*
X77906476Y-124340952D01*
X77954095Y-124388571D01*
X78049333Y-124436190D01*
X78430285Y-124436190D01*
X76906476Y-124912380D02*
X77477904Y-124912380D01*
X77192190Y-124912380D02*
X77192190Y-123912380D01*
X77287428Y-124055238D01*
X77382666Y-124150476D01*
X77477904Y-124198095D01*
X76525523Y-124007619D02*
X76477904Y-123960000D01*
X76382666Y-123912380D01*
X76144571Y-123912380D01*
X76049333Y-123960000D01*
X76001714Y-124007619D01*
X75954095Y-124102857D01*
X75954095Y-124198095D01*
X76001714Y-124340952D01*
X76573142Y-124912380D01*
X75954095Y-124912380D01*
X59856666Y-102052380D02*
X60332857Y-102052380D01*
X60332857Y-101052380D01*
X59094761Y-101385714D02*
X59094761Y-102052380D01*
X59332857Y-101004761D02*
X59570952Y-101719047D01*
X58951904Y-101719047D01*
X62142666Y-131516380D02*
X62476000Y-131040190D01*
X62714095Y-131516380D02*
X62714095Y-130516380D01*
X62333142Y-130516380D01*
X62237904Y-130564000D01*
X62190285Y-130611619D01*
X62142666Y-130706857D01*
X62142666Y-130849714D01*
X62190285Y-130944952D01*
X62237904Y-130992571D01*
X62333142Y-131040190D01*
X62714095Y-131040190D01*
X61571238Y-130944952D02*
X61666476Y-130897333D01*
X61714095Y-130849714D01*
X61761714Y-130754476D01*
X61761714Y-130706857D01*
X61714095Y-130611619D01*
X61666476Y-130564000D01*
X61571238Y-130516380D01*
X61380761Y-130516380D01*
X61285523Y-130564000D01*
X61237904Y-130611619D01*
X61190285Y-130706857D01*
X61190285Y-130754476D01*
X61237904Y-130849714D01*
X61285523Y-130897333D01*
X61380761Y-130944952D01*
X61571238Y-130944952D01*
X61666476Y-130992571D01*
X61714095Y-131040190D01*
X61761714Y-131135428D01*
X61761714Y-131325904D01*
X61714095Y-131421142D01*
X61666476Y-131468761D01*
X61571238Y-131516380D01*
X61380761Y-131516380D01*
X61285523Y-131468761D01*
X61237904Y-131421142D01*
X61190285Y-131325904D01*
X61190285Y-131135428D01*
X61237904Y-131040190D01*
X61285523Y-130992571D01*
X61380761Y-130944952D01*
X59856666Y-106116380D02*
X60190000Y-105640190D01*
X60428095Y-106116380D02*
X60428095Y-105116380D01*
X60047142Y-105116380D01*
X59951904Y-105164000D01*
X59904285Y-105211619D01*
X59856666Y-105306857D01*
X59856666Y-105449714D01*
X59904285Y-105544952D01*
X59951904Y-105592571D01*
X60047142Y-105640190D01*
X60428095Y-105640190D01*
X58999523Y-105116380D02*
X59190000Y-105116380D01*
X59285238Y-105164000D01*
X59332857Y-105211619D01*
X59428095Y-105354476D01*
X59475714Y-105544952D01*
X59475714Y-105925904D01*
X59428095Y-106021142D01*
X59380476Y-106068761D01*
X59285238Y-106116380D01*
X59094761Y-106116380D01*
X58999523Y-106068761D01*
X58951904Y-106021142D01*
X58904285Y-105925904D01*
X58904285Y-105687809D01*
X58951904Y-105592571D01*
X58999523Y-105544952D01*
X59094761Y-105497333D01*
X59285238Y-105497333D01*
X59380476Y-105544952D01*
X59428095Y-105592571D01*
X59475714Y-105687809D01*
X59856666Y-107386380D02*
X60190000Y-106910190D01*
X60428095Y-107386380D02*
X60428095Y-106386380D01*
X60047142Y-106386380D01*
X59951904Y-106434000D01*
X59904285Y-106481619D01*
X59856666Y-106576857D01*
X59856666Y-106719714D01*
X59904285Y-106814952D01*
X59951904Y-106862571D01*
X60047142Y-106910190D01*
X60428095Y-106910190D01*
X58951904Y-106386380D02*
X59428095Y-106386380D01*
X59475714Y-106862571D01*
X59428095Y-106814952D01*
X59332857Y-106767333D01*
X59094761Y-106767333D01*
X58999523Y-106814952D01*
X58951904Y-106862571D01*
X58904285Y-106957809D01*
X58904285Y-107195904D01*
X58951904Y-107291142D01*
X58999523Y-107338761D01*
X59094761Y-107386380D01*
X59332857Y-107386380D01*
X59428095Y-107338761D01*
X59475714Y-107291142D01*
X57656666Y-128468380D02*
X58132857Y-128468380D01*
X58132857Y-127468380D01*
X57418571Y-127468380D02*
X56799523Y-127468380D01*
X57132857Y-127849333D01*
X56990000Y-127849333D01*
X56894761Y-127896952D01*
X56847142Y-127944571D01*
X56799523Y-128039809D01*
X56799523Y-128277904D01*
X56847142Y-128373142D01*
X56894761Y-128420761D01*
X56990000Y-128468380D01*
X57275714Y-128468380D01*
X57370952Y-128420761D01*
X57418571Y-128373142D01*
X52490666Y-126944380D02*
X52966857Y-126944380D01*
X52966857Y-125944380D01*
X52204952Y-126039619D02*
X52157333Y-125992000D01*
X52062095Y-125944380D01*
X51824000Y-125944380D01*
X51728761Y-125992000D01*
X51681142Y-126039619D01*
X51633523Y-126134857D01*
X51633523Y-126230095D01*
X51681142Y-126372952D01*
X52252571Y-126944380D01*
X51633523Y-126944380D01*
X53570095Y-115006380D02*
X53570095Y-114006380D01*
X53332000Y-114006380D01*
X53189142Y-114054000D01*
X53093904Y-114149238D01*
X53046285Y-114244476D01*
X52998666Y-114434952D01*
X52998666Y-114577809D01*
X53046285Y-114768285D01*
X53093904Y-114863523D01*
X53189142Y-114958761D01*
X53332000Y-115006380D01*
X53570095Y-115006380D01*
X52617714Y-114101619D02*
X52570095Y-114054000D01*
X52474857Y-114006380D01*
X52236761Y-114006380D01*
X52141523Y-114054000D01*
X52093904Y-114101619D01*
X52046285Y-114196857D01*
X52046285Y-114292095D01*
X52093904Y-114434952D01*
X52665333Y-115006380D01*
X52046285Y-115006380D01*
X60382857Y-104751142D02*
X60430476Y-104798761D01*
X60573333Y-104846380D01*
X60668571Y-104846380D01*
X60811428Y-104798761D01*
X60906666Y-104703523D01*
X60954285Y-104608285D01*
X61001904Y-104417809D01*
X61001904Y-104274952D01*
X60954285Y-104084476D01*
X60906666Y-103989238D01*
X60811428Y-103894000D01*
X60668571Y-103846380D01*
X60573333Y-103846380D01*
X60430476Y-103894000D01*
X60382857Y-103941619D01*
X59430476Y-104846380D02*
X60001904Y-104846380D01*
X59716190Y-104846380D02*
X59716190Y-103846380D01*
X59811428Y-103989238D01*
X59906666Y-104084476D01*
X60001904Y-104132095D01*
X59097142Y-103846380D02*
X58430476Y-103846380D01*
X58859047Y-104846380D01*
X60382857Y-103481142D02*
X60430476Y-103528761D01*
X60573333Y-103576380D01*
X60668571Y-103576380D01*
X60811428Y-103528761D01*
X60906666Y-103433523D01*
X60954285Y-103338285D01*
X61001904Y-103147809D01*
X61001904Y-103004952D01*
X60954285Y-102814476D01*
X60906666Y-102719238D01*
X60811428Y-102624000D01*
X60668571Y-102576380D01*
X60573333Y-102576380D01*
X60430476Y-102624000D01*
X60382857Y-102671619D01*
X59430476Y-103576380D02*
X60001904Y-103576380D01*
X59716190Y-103576380D02*
X59716190Y-102576380D01*
X59811428Y-102719238D01*
X59906666Y-102814476D01*
X60001904Y-102862095D01*
X58573333Y-102576380D02*
X58763809Y-102576380D01*
X58859047Y-102624000D01*
X58906666Y-102671619D01*
X59001904Y-102814476D01*
X59049523Y-103004952D01*
X59049523Y-103385904D01*
X59001904Y-103481142D01*
X58954285Y-103528761D01*
X58859047Y-103576380D01*
X58668571Y-103576380D01*
X58573333Y-103528761D01*
X58525714Y-103481142D01*
X58478095Y-103385904D01*
X58478095Y-103147809D01*
X58525714Y-103052571D01*
X58573333Y-103004952D01*
X58668571Y-102957333D01*
X58859047Y-102957333D01*
X58954285Y-103004952D01*
X59001904Y-103052571D01*
X59049523Y-103147809D01*
X72262857Y-129389142D02*
X72310476Y-129436761D01*
X72453333Y-129484380D01*
X72548571Y-129484380D01*
X72691428Y-129436761D01*
X72786666Y-129341523D01*
X72834285Y-129246285D01*
X72881904Y-129055809D01*
X72881904Y-128912952D01*
X72834285Y-128722476D01*
X72786666Y-128627238D01*
X72691428Y-128532000D01*
X72548571Y-128484380D01*
X72453333Y-128484380D01*
X72310476Y-128532000D01*
X72262857Y-128579619D01*
X71310476Y-129484380D02*
X71881904Y-129484380D01*
X71596190Y-129484380D02*
X71596190Y-128484380D01*
X71691428Y-128627238D01*
X71786666Y-128722476D01*
X71881904Y-128770095D01*
X70405714Y-128484380D02*
X70881904Y-128484380D01*
X70929523Y-128960571D01*
X70881904Y-128912952D01*
X70786666Y-128865333D01*
X70548571Y-128865333D01*
X70453333Y-128912952D01*
X70405714Y-128960571D01*
X70358095Y-129055809D01*
X70358095Y-129293904D01*
X70405714Y-129389142D01*
X70453333Y-129436761D01*
X70548571Y-129484380D01*
X70786666Y-129484380D01*
X70881904Y-129436761D01*
X70929523Y-129389142D01*
X72276857Y-133199142D02*
X72324476Y-133246761D01*
X72467333Y-133294380D01*
X72562571Y-133294380D01*
X72705428Y-133246761D01*
X72800666Y-133151523D01*
X72848285Y-133056285D01*
X72895904Y-132865809D01*
X72895904Y-132722952D01*
X72848285Y-132532476D01*
X72800666Y-132437238D01*
X72705428Y-132342000D01*
X72562571Y-132294380D01*
X72467333Y-132294380D01*
X72324476Y-132342000D01*
X72276857Y-132389619D01*
X71324476Y-133294380D02*
X71895904Y-133294380D01*
X71610190Y-133294380D02*
X71610190Y-132294380D01*
X71705428Y-132437238D01*
X71800666Y-132532476D01*
X71895904Y-132580095D01*
X70991142Y-132294380D02*
X70372095Y-132294380D01*
X70705428Y-132675333D01*
X70562571Y-132675333D01*
X70467333Y-132722952D01*
X70419714Y-132770571D01*
X70372095Y-132865809D01*
X70372095Y-133103904D01*
X70419714Y-133199142D01*
X70467333Y-133246761D01*
X70562571Y-133294380D01*
X70848285Y-133294380D01*
X70943523Y-133246761D01*
X70991142Y-133199142D01*
X64567142Y-109607142D02*
X64614761Y-109559523D01*
X64662380Y-109416666D01*
X64662380Y-109321428D01*
X64614761Y-109178571D01*
X64519523Y-109083333D01*
X64424285Y-109035714D01*
X64233809Y-108988095D01*
X64090952Y-108988095D01*
X63900476Y-109035714D01*
X63805238Y-109083333D01*
X63710000Y-109178571D01*
X63662380Y-109321428D01*
X63662380Y-109416666D01*
X63710000Y-109559523D01*
X63757619Y-109607142D01*
X64662380Y-110559523D02*
X64662380Y-109988095D01*
X64662380Y-110273809D02*
X63662380Y-110273809D01*
X63805238Y-110178571D01*
X63900476Y-110083333D01*
X63948095Y-109988095D01*
X63757619Y-110940476D02*
X63710000Y-110988095D01*
X63662380Y-111083333D01*
X63662380Y-111321428D01*
X63710000Y-111416666D01*
X63757619Y-111464285D01*
X63852857Y-111511904D01*
X63948095Y-111511904D01*
X64090952Y-111464285D01*
X64662380Y-110892857D01*
X64662380Y-111511904D01*
X60332857Y-110085142D02*
X60380476Y-110132761D01*
X60523333Y-110180380D01*
X60618571Y-110180380D01*
X60761428Y-110132761D01*
X60856666Y-110037523D01*
X60904285Y-109942285D01*
X60951904Y-109751809D01*
X60951904Y-109608952D01*
X60904285Y-109418476D01*
X60856666Y-109323238D01*
X60761428Y-109228000D01*
X60618571Y-109180380D01*
X60523333Y-109180380D01*
X60380476Y-109228000D01*
X60332857Y-109275619D01*
X59380476Y-110180380D02*
X59951904Y-110180380D01*
X59666190Y-110180380D02*
X59666190Y-109180380D01*
X59761428Y-109323238D01*
X59856666Y-109418476D01*
X59951904Y-109466095D01*
X58428095Y-110180380D02*
X58999523Y-110180380D01*
X58713809Y-110180380D02*
X58713809Y-109180380D01*
X58809047Y-109323238D01*
X58904285Y-109418476D01*
X58999523Y-109466095D01*
X72270857Y-131929142D02*
X72318476Y-131976761D01*
X72461333Y-132024380D01*
X72556571Y-132024380D01*
X72699428Y-131976761D01*
X72794666Y-131881523D01*
X72842285Y-131786285D01*
X72889904Y-131595809D01*
X72889904Y-131452952D01*
X72842285Y-131262476D01*
X72794666Y-131167238D01*
X72699428Y-131072000D01*
X72556571Y-131024380D01*
X72461333Y-131024380D01*
X72318476Y-131072000D01*
X72270857Y-131119619D01*
X71318476Y-132024380D02*
X71889904Y-132024380D01*
X71604190Y-132024380D02*
X71604190Y-131024380D01*
X71699428Y-131167238D01*
X71794666Y-131262476D01*
X71889904Y-131310095D01*
X70699428Y-131024380D02*
X70604190Y-131024380D01*
X70508952Y-131072000D01*
X70461333Y-131119619D01*
X70413714Y-131214857D01*
X70366095Y-131405333D01*
X70366095Y-131643428D01*
X70413714Y-131833904D01*
X70461333Y-131929142D01*
X70508952Y-131976761D01*
X70604190Y-132024380D01*
X70699428Y-132024380D01*
X70794666Y-131976761D01*
X70842285Y-131929142D01*
X70889904Y-131833904D01*
X70937523Y-131643428D01*
X70937523Y-131405333D01*
X70889904Y-131214857D01*
X70842285Y-131119619D01*
X70794666Y-131072000D01*
X70699428Y-131024380D01*
X64873142Y-126579333D02*
X64920761Y-126531714D01*
X64968380Y-126388857D01*
X64968380Y-126293619D01*
X64920761Y-126150761D01*
X64825523Y-126055523D01*
X64730285Y-126007904D01*
X64539809Y-125960285D01*
X64396952Y-125960285D01*
X64206476Y-126007904D01*
X64111238Y-126055523D01*
X64016000Y-126150761D01*
X63968380Y-126293619D01*
X63968380Y-126388857D01*
X64016000Y-126531714D01*
X64063619Y-126579333D01*
X64968380Y-127055523D02*
X64968380Y-127246000D01*
X64920761Y-127341238D01*
X64873142Y-127388857D01*
X64730285Y-127484095D01*
X64539809Y-127531714D01*
X64158857Y-127531714D01*
X64063619Y-127484095D01*
X64016000Y-127436476D01*
X63968380Y-127341238D01*
X63968380Y-127150761D01*
X64016000Y-127055523D01*
X64063619Y-127007904D01*
X64158857Y-126960285D01*
X64396952Y-126960285D01*
X64492190Y-127007904D01*
X64539809Y-127055523D01*
X64587428Y-127150761D01*
X64587428Y-127341238D01*
X64539809Y-127436476D01*
X64492190Y-127484095D01*
X64396952Y-127531714D01*
X57656666Y-126849142D02*
X57704285Y-126896761D01*
X57847142Y-126944380D01*
X57942380Y-126944380D01*
X58085238Y-126896761D01*
X58180476Y-126801523D01*
X58228095Y-126706285D01*
X58275714Y-126515809D01*
X58275714Y-126372952D01*
X58228095Y-126182476D01*
X58180476Y-126087238D01*
X58085238Y-125992000D01*
X57942380Y-125944380D01*
X57847142Y-125944380D01*
X57704285Y-125992000D01*
X57656666Y-126039619D01*
X57085238Y-126372952D02*
X57180476Y-126325333D01*
X57228095Y-126277714D01*
X57275714Y-126182476D01*
X57275714Y-126134857D01*
X57228095Y-126039619D01*
X57180476Y-125992000D01*
X57085238Y-125944380D01*
X56894761Y-125944380D01*
X56799523Y-125992000D01*
X56751904Y-126039619D01*
X56704285Y-126134857D01*
X56704285Y-126182476D01*
X56751904Y-126277714D01*
X56799523Y-126325333D01*
X56894761Y-126372952D01*
X57085238Y-126372952D01*
X57180476Y-126420571D01*
X57228095Y-126468190D01*
X57275714Y-126563428D01*
X57275714Y-126753904D01*
X57228095Y-126849142D01*
X57180476Y-126896761D01*
X57085238Y-126944380D01*
X56894761Y-126944380D01*
X56799523Y-126896761D01*
X56751904Y-126849142D01*
X56704285Y-126753904D01*
X56704285Y-126563428D01*
X56751904Y-126468190D01*
X56799523Y-126420571D01*
X56894761Y-126372952D01*
X67730666Y-128881142D02*
X67778285Y-128928761D01*
X67921142Y-128976380D01*
X68016380Y-128976380D01*
X68159238Y-128928761D01*
X68254476Y-128833523D01*
X68302095Y-128738285D01*
X68349714Y-128547809D01*
X68349714Y-128404952D01*
X68302095Y-128214476D01*
X68254476Y-128119238D01*
X68159238Y-128024000D01*
X68016380Y-127976380D01*
X67921142Y-127976380D01*
X67778285Y-128024000D01*
X67730666Y-128071619D01*
X67397333Y-127976380D02*
X66730666Y-127976380D01*
X67159238Y-128976380D01*
X71794666Y-130659142D02*
X71842285Y-130706761D01*
X71985142Y-130754380D01*
X72080380Y-130754380D01*
X72223238Y-130706761D01*
X72318476Y-130611523D01*
X72366095Y-130516285D01*
X72413714Y-130325809D01*
X72413714Y-130182952D01*
X72366095Y-129992476D01*
X72318476Y-129897238D01*
X72223238Y-129802000D01*
X72080380Y-129754380D01*
X71985142Y-129754380D01*
X71842285Y-129802000D01*
X71794666Y-129849619D01*
X70937523Y-129754380D02*
X71128000Y-129754380D01*
X71223238Y-129802000D01*
X71270857Y-129849619D01*
X71366095Y-129992476D01*
X71413714Y-130182952D01*
X71413714Y-130563904D01*
X71366095Y-130659142D01*
X71318476Y-130706761D01*
X71223238Y-130754380D01*
X71032761Y-130754380D01*
X70937523Y-130706761D01*
X70889904Y-130659142D01*
X70842285Y-130563904D01*
X70842285Y-130325809D01*
X70889904Y-130230571D01*
X70937523Y-130182952D01*
X71032761Y-130135333D01*
X71223238Y-130135333D01*
X71318476Y-130182952D01*
X71366095Y-130230571D01*
X71413714Y-130325809D01*
X67730666Y-130151142D02*
X67778285Y-130198761D01*
X67921142Y-130246380D01*
X68016380Y-130246380D01*
X68159238Y-130198761D01*
X68254476Y-130103523D01*
X68302095Y-130008285D01*
X68349714Y-129817809D01*
X68349714Y-129674952D01*
X68302095Y-129484476D01*
X68254476Y-129389238D01*
X68159238Y-129294000D01*
X68016380Y-129246380D01*
X67921142Y-129246380D01*
X67778285Y-129294000D01*
X67730666Y-129341619D01*
X66825904Y-129246380D02*
X67302095Y-129246380D01*
X67349714Y-129722571D01*
X67302095Y-129674952D01*
X67206857Y-129627333D01*
X66968761Y-129627333D01*
X66873523Y-129674952D01*
X66825904Y-129722571D01*
X66778285Y-129817809D01*
X66778285Y-130055904D01*
X66825904Y-130151142D01*
X66873523Y-130198761D01*
X66968761Y-130246380D01*
X67206857Y-130246380D01*
X67302095Y-130198761D01*
X67349714Y-130151142D01*
X77382666Y-123293142D02*
X77430285Y-123340761D01*
X77573142Y-123388380D01*
X77668380Y-123388380D01*
X77811238Y-123340761D01*
X77906476Y-123245523D01*
X77954095Y-123150285D01*
X78001714Y-122959809D01*
X78001714Y-122816952D01*
X77954095Y-122626476D01*
X77906476Y-122531238D01*
X77811238Y-122436000D01*
X77668380Y-122388380D01*
X77573142Y-122388380D01*
X77430285Y-122436000D01*
X77382666Y-122483619D01*
X76525523Y-122721714D02*
X76525523Y-123388380D01*
X76763619Y-122340761D02*
X77001714Y-123055047D01*
X76382666Y-123055047D01*
X62142666Y-129897142D02*
X62190285Y-129944761D01*
X62333142Y-129992380D01*
X62428380Y-129992380D01*
X62571238Y-129944761D01*
X62666476Y-129849523D01*
X62714095Y-129754285D01*
X62761714Y-129563809D01*
X62761714Y-129420952D01*
X62714095Y-129230476D01*
X62666476Y-129135238D01*
X62571238Y-129040000D01*
X62428380Y-128992380D01*
X62333142Y-128992380D01*
X62190285Y-129040000D01*
X62142666Y-129087619D01*
X61809333Y-128992380D02*
X61190285Y-128992380D01*
X61523619Y-129373333D01*
X61380761Y-129373333D01*
X61285523Y-129420952D01*
X61237904Y-129468571D01*
X61190285Y-129563809D01*
X61190285Y-129801904D01*
X61237904Y-129897142D01*
X61285523Y-129944761D01*
X61380761Y-129992380D01*
X61666476Y-129992380D01*
X61761714Y-129944761D01*
X61809333Y-129897142D01*
X52490666Y-125325142D02*
X52538285Y-125372761D01*
X52681142Y-125420380D01*
X52776380Y-125420380D01*
X52919238Y-125372761D01*
X53014476Y-125277523D01*
X53062095Y-125182285D01*
X53109714Y-124991809D01*
X53109714Y-124848952D01*
X53062095Y-124658476D01*
X53014476Y-124563238D01*
X52919238Y-124468000D01*
X52776380Y-124420380D01*
X52681142Y-124420380D01*
X52538285Y-124468000D01*
X52490666Y-124515619D01*
X51538285Y-125420380D02*
X52109714Y-125420380D01*
X51824000Y-125420380D02*
X51824000Y-124420380D01*
X51919238Y-124563238D01*
X52014476Y-124658476D01*
X52109714Y-124706095D01*
M02*
