%TF.GenerationSoftware,KiCad,Pcbnew,(5.1.8-0-10_14)*%
%TF.CreationDate,2021-07-18T19:29:13+09:00*%
%TF.ProjectId,ft2232_jtag_tap,66743232-3332-45f6-9a74-61675f746170,rev?*%
%TF.SameCoordinates,Original*%
%TF.FileFunction,Legend,Bot*%
%TF.FilePolarity,Positive*%
%FSLAX46Y46*%
G04 Gerber Fmt 4.6, Leading zero omitted, Abs format (unit mm)*
G04 Created by KiCad (PCBNEW (5.1.8-0-10_14)) date 2021-07-18 19:29:13*
%MOMM*%
%LPD*%
G01*
G04 APERTURE LIST*
%ADD10C,0.150000*%
%ADD11C,0.120000*%
G04 APERTURE END LIST*
D10*
X93360714Y-103990476D02*
X94217857Y-103990476D01*
X94313095Y-103942857D01*
X94360714Y-103847619D01*
X94360714Y-103800000D01*
X93027380Y-103990476D02*
X93075000Y-103942857D01*
X93122619Y-103990476D01*
X93075000Y-104038095D01*
X93027380Y-103990476D01*
X93122619Y-103990476D01*
X93360714Y-104323809D02*
X93360714Y-104704761D01*
X93027380Y-104466666D02*
X93884523Y-104466666D01*
X93979761Y-104514285D01*
X94027380Y-104609523D01*
X94027380Y-104704761D01*
X94027380Y-105466666D02*
X93503571Y-105466666D01*
X93408333Y-105419047D01*
X93360714Y-105323809D01*
X93360714Y-105133333D01*
X93408333Y-105038095D01*
X93979761Y-105466666D02*
X94027380Y-105371428D01*
X94027380Y-105133333D01*
X93979761Y-105038095D01*
X93884523Y-104990476D01*
X93789285Y-104990476D01*
X93694047Y-105038095D01*
X93646428Y-105133333D01*
X93646428Y-105371428D01*
X93598809Y-105466666D01*
X93360714Y-106371428D02*
X94170238Y-106371428D01*
X94265476Y-106323809D01*
X94313095Y-106276190D01*
X94360714Y-106180952D01*
X94360714Y-106038095D01*
X94313095Y-105942857D01*
X93979761Y-106371428D02*
X94027380Y-106276190D01*
X94027380Y-106085714D01*
X93979761Y-105990476D01*
X93932142Y-105942857D01*
X93836904Y-105895238D01*
X93551190Y-105895238D01*
X93455952Y-105942857D01*
X93408333Y-105990476D01*
X93360714Y-106085714D01*
X93360714Y-106276190D01*
X93408333Y-106371428D01*
X94027380Y-108038095D02*
X93503571Y-108038095D01*
X93408333Y-107990476D01*
X93360714Y-107895238D01*
X93360714Y-107704761D01*
X93408333Y-107609523D01*
X93979761Y-108038095D02*
X94027380Y-107942857D01*
X94027380Y-107704761D01*
X93979761Y-107609523D01*
X93884523Y-107561904D01*
X93789285Y-107561904D01*
X93694047Y-107609523D01*
X93646428Y-107704761D01*
X93646428Y-107942857D01*
X93598809Y-108038095D01*
X94027380Y-108942857D02*
X93027380Y-108942857D01*
X93979761Y-108942857D02*
X94027380Y-108847619D01*
X94027380Y-108657142D01*
X93979761Y-108561904D01*
X93932142Y-108514285D01*
X93836904Y-108466666D01*
X93551190Y-108466666D01*
X93455952Y-108514285D01*
X93408333Y-108561904D01*
X93360714Y-108657142D01*
X93360714Y-108847619D01*
X93408333Y-108942857D01*
X94027380Y-109847619D02*
X93503571Y-109847619D01*
X93408333Y-109800000D01*
X93360714Y-109704761D01*
X93360714Y-109514285D01*
X93408333Y-109419047D01*
X93979761Y-109847619D02*
X94027380Y-109752380D01*
X94027380Y-109514285D01*
X93979761Y-109419047D01*
X93884523Y-109371428D01*
X93789285Y-109371428D01*
X93694047Y-109419047D01*
X93646428Y-109514285D01*
X93646428Y-109752380D01*
X93598809Y-109847619D01*
X93360714Y-110323809D02*
X94360714Y-110323809D01*
X93408333Y-110323809D02*
X93360714Y-110419047D01*
X93360714Y-110609523D01*
X93408333Y-110704761D01*
X93455952Y-110752380D01*
X93551190Y-110800000D01*
X93836904Y-110800000D01*
X93932142Y-110752380D01*
X93979761Y-110704761D01*
X94027380Y-110609523D01*
X94027380Y-110419047D01*
X93979761Y-110323809D01*
X93360714Y-111085714D02*
X93360714Y-111466666D01*
X93027380Y-111228571D02*
X93884523Y-111228571D01*
X93979761Y-111276190D01*
X94027380Y-111371428D01*
X94027380Y-111466666D01*
X93979761Y-112180952D02*
X94027380Y-112085714D01*
X94027380Y-111895238D01*
X93979761Y-111800000D01*
X93884523Y-111752380D01*
X93503571Y-111752380D01*
X93408333Y-111800000D01*
X93360714Y-111895238D01*
X93360714Y-112085714D01*
X93408333Y-112180952D01*
X93503571Y-112228571D01*
X93598809Y-112228571D01*
X93694047Y-111752380D01*
X94027380Y-112657142D02*
X93360714Y-112657142D01*
X93551190Y-112657142D02*
X93455952Y-112704761D01*
X93408333Y-112752380D01*
X93360714Y-112847619D01*
X93360714Y-112942857D01*
X93360714Y-113942857D02*
X94027380Y-114180952D01*
X93360714Y-114419047D01*
X93027380Y-114990476D02*
X93027380Y-115085714D01*
X93075000Y-115180952D01*
X93122619Y-115228571D01*
X93217857Y-115276190D01*
X93408333Y-115323809D01*
X93646428Y-115323809D01*
X93836904Y-115276190D01*
X93932142Y-115228571D01*
X93979761Y-115180952D01*
X94027380Y-115085714D01*
X94027380Y-114990476D01*
X93979761Y-114895238D01*
X93932142Y-114847619D01*
X93836904Y-114799999D01*
X93646428Y-114752380D01*
X93408333Y-114752380D01*
X93217857Y-114799999D01*
X93122619Y-114847619D01*
X93075000Y-114895238D01*
X93027380Y-114990476D01*
X93932142Y-115752380D02*
X93979761Y-115799999D01*
X94027380Y-115752380D01*
X93979761Y-115704761D01*
X93932142Y-115752380D01*
X94027380Y-115752380D01*
X93122619Y-116180952D02*
X93075000Y-116228571D01*
X93027380Y-116323809D01*
X93027380Y-116561904D01*
X93075000Y-116657142D01*
X93122619Y-116704761D01*
X93217857Y-116752380D01*
X93313095Y-116752380D01*
X93455952Y-116704761D01*
X94027380Y-116133333D01*
X94027380Y-116752380D01*
X94408333Y-117466666D02*
X94360714Y-117419047D01*
X94217857Y-117323809D01*
X94122619Y-117276190D01*
X93979761Y-117228571D01*
X93741666Y-117180952D01*
X93551190Y-117180952D01*
X93313095Y-117228571D01*
X93170238Y-117276190D01*
X93075000Y-117323809D01*
X92932142Y-117419047D01*
X92884523Y-117466666D01*
X93122619Y-117799999D02*
X93075000Y-117847619D01*
X93027380Y-117942857D01*
X93027380Y-118180952D01*
X93075000Y-118276190D01*
X93122619Y-118323809D01*
X93217857Y-118371428D01*
X93313095Y-118371428D01*
X93455952Y-118323809D01*
X94027380Y-117752380D01*
X94027380Y-118371428D01*
X93027380Y-118990476D02*
X93027380Y-119085714D01*
X93075000Y-119180952D01*
X93122619Y-119228571D01*
X93217857Y-119276190D01*
X93408333Y-119323809D01*
X93646428Y-119323809D01*
X93836904Y-119276190D01*
X93932142Y-119228571D01*
X93979761Y-119180952D01*
X94027380Y-119085714D01*
X94027380Y-118990476D01*
X93979761Y-118895238D01*
X93932142Y-118847619D01*
X93836904Y-118799999D01*
X93646428Y-118752380D01*
X93408333Y-118752380D01*
X93217857Y-118799999D01*
X93122619Y-118847619D01*
X93075000Y-118895238D01*
X93027380Y-118990476D01*
X93122619Y-119704761D02*
X93075000Y-119752380D01*
X93027380Y-119847619D01*
X93027380Y-120085714D01*
X93075000Y-120180952D01*
X93122619Y-120228571D01*
X93217857Y-120276190D01*
X93313095Y-120276190D01*
X93455952Y-120228571D01*
X94027380Y-119657142D01*
X94027380Y-120276190D01*
X94027380Y-121228571D02*
X94027380Y-120657142D01*
X94027380Y-120942857D02*
X93027380Y-120942857D01*
X93170238Y-120847619D01*
X93265476Y-120752380D01*
X93313095Y-120657142D01*
X93932142Y-121657142D02*
X93979761Y-121704761D01*
X94027380Y-121657142D01*
X93979761Y-121609523D01*
X93932142Y-121657142D01*
X94027380Y-121657142D01*
X93027380Y-122323809D02*
X93027380Y-122419047D01*
X93075000Y-122514285D01*
X93122619Y-122561904D01*
X93217857Y-122609523D01*
X93408333Y-122657142D01*
X93646428Y-122657142D01*
X93836904Y-122609523D01*
X93932142Y-122561904D01*
X93979761Y-122514285D01*
X94027380Y-122419047D01*
X94027380Y-122323809D01*
X93979761Y-122228571D01*
X93932142Y-122180952D01*
X93836904Y-122133333D01*
X93646428Y-122085714D01*
X93408333Y-122085714D01*
X93217857Y-122133333D01*
X93122619Y-122180952D01*
X93075000Y-122228571D01*
X93027380Y-122323809D01*
X93027380Y-122990476D02*
X93027380Y-123657142D01*
X94027380Y-123228571D01*
X93932142Y-124038095D02*
X93979761Y-124085714D01*
X94027380Y-124038095D01*
X93979761Y-123990476D01*
X93932142Y-124038095D01*
X94027380Y-124038095D01*
X94027380Y-125038095D02*
X94027380Y-124466666D01*
X94027380Y-124752380D02*
X93027380Y-124752380D01*
X93170238Y-124657142D01*
X93265476Y-124561904D01*
X93313095Y-124466666D01*
X93027380Y-125371428D02*
X93027380Y-126038095D01*
X94027380Y-125609523D01*
X94408333Y-126323809D02*
X94360714Y-126371428D01*
X94217857Y-126466666D01*
X94122619Y-126514285D01*
X93979761Y-126561904D01*
X93741666Y-126609523D01*
X93551190Y-126609523D01*
X93313095Y-126561904D01*
X93170238Y-126514285D01*
X93075000Y-126466666D01*
X92932142Y-126371428D01*
X92884523Y-126323809D01*
X95201190Y-111633333D02*
X95153571Y-111585714D01*
X95105952Y-111490476D01*
X95105952Y-111395238D01*
X95153571Y-111300000D01*
X95201190Y-111252380D01*
X95296428Y-111204761D01*
X95391666Y-111204761D01*
X95486904Y-111252380D01*
X95534523Y-111300000D01*
X95582142Y-111395238D01*
X95582142Y-111490476D01*
X95534523Y-111585714D01*
X95486904Y-111633333D01*
X95105952Y-111633333D02*
X95486904Y-111633333D01*
X95534523Y-111680952D01*
X95534523Y-111728571D01*
X95486904Y-111823809D01*
X95391666Y-111871428D01*
X95153571Y-111871428D01*
X95010714Y-111776190D01*
X94915476Y-111633333D01*
X94867857Y-111442857D01*
X94915476Y-111252380D01*
X95010714Y-111109523D01*
X95153571Y-111014285D01*
X95344047Y-110966666D01*
X95534523Y-111014285D01*
X95677380Y-111109523D01*
X95772619Y-111252380D01*
X95820238Y-111442857D01*
X95772619Y-111633333D01*
X95677380Y-111776190D01*
X95010714Y-112157142D02*
X95010714Y-112538095D01*
X94677380Y-112300000D02*
X95534523Y-112300000D01*
X95629761Y-112347619D01*
X95677380Y-112442857D01*
X95677380Y-112538095D01*
X95010714Y-112871428D02*
X95677380Y-112871428D01*
X95105952Y-112871428D02*
X95058333Y-112919047D01*
X95010714Y-113014285D01*
X95010714Y-113157142D01*
X95058333Y-113252380D01*
X95153571Y-113300000D01*
X95677380Y-113300000D01*
X95677380Y-113776190D02*
X95010714Y-113776190D01*
X94677380Y-113776190D02*
X94725000Y-113728571D01*
X94772619Y-113776190D01*
X94725000Y-113823809D01*
X94677380Y-113776190D01*
X94772619Y-113776190D01*
X95629761Y-114204761D02*
X95677380Y-114300000D01*
X95677380Y-114490476D01*
X95629761Y-114585714D01*
X95534523Y-114633333D01*
X95486904Y-114633333D01*
X95391666Y-114585714D01*
X95344047Y-114490476D01*
X95344047Y-114347619D01*
X95296428Y-114252380D01*
X95201190Y-114204761D01*
X95153571Y-114204761D01*
X95058333Y-114252380D01*
X95010714Y-114347619D01*
X95010714Y-114490476D01*
X95058333Y-114585714D01*
X95677380Y-115061904D02*
X94677380Y-115061904D01*
X95677380Y-115490476D02*
X95153571Y-115490476D01*
X95058333Y-115442857D01*
X95010714Y-115347619D01*
X95010714Y-115204761D01*
X95058333Y-115109523D01*
X95105952Y-115061904D01*
X95677380Y-115966666D02*
X95010714Y-115966666D01*
X94677380Y-115966666D02*
X94725000Y-115919047D01*
X94772619Y-115966666D01*
X94725000Y-116014285D01*
X94677380Y-115966666D01*
X94772619Y-115966666D01*
X95010714Y-116442857D02*
X95677380Y-116442857D01*
X95105952Y-116442857D02*
X95058333Y-116490476D01*
X95010714Y-116585714D01*
X95010714Y-116728571D01*
X95058333Y-116823809D01*
X95153571Y-116871428D01*
X95677380Y-116871428D01*
X95677380Y-117776190D02*
X95153571Y-117776190D01*
X95058333Y-117728571D01*
X95010714Y-117633333D01*
X95010714Y-117442857D01*
X95058333Y-117347619D01*
X95629761Y-117776190D02*
X95677380Y-117680952D01*
X95677380Y-117442857D01*
X95629761Y-117347619D01*
X95534523Y-117300000D01*
X95439285Y-117300000D01*
X95344047Y-117347619D01*
X95296428Y-117442857D01*
X95296428Y-117680952D01*
X95248809Y-117776190D01*
X95010714Y-118680952D02*
X95820238Y-118680952D01*
X95915476Y-118633333D01*
X95963095Y-118585714D01*
X96010714Y-118490476D01*
X96010714Y-118347619D01*
X95963095Y-118252380D01*
X95629761Y-118680952D02*
X95677380Y-118585714D01*
X95677380Y-118395238D01*
X95629761Y-118300000D01*
X95582142Y-118252380D01*
X95486904Y-118204761D01*
X95201190Y-118204761D01*
X95105952Y-118252380D01*
X95058333Y-118300000D01*
X95010714Y-118395238D01*
X95010714Y-118585714D01*
X95058333Y-118680952D01*
X95677380Y-119585714D02*
X95153571Y-119585714D01*
X95058333Y-119538095D01*
X95010714Y-119442857D01*
X95010714Y-119252380D01*
X95058333Y-119157142D01*
X95629761Y-119585714D02*
X95677380Y-119490476D01*
X95677380Y-119252380D01*
X95629761Y-119157142D01*
X95534523Y-119109523D01*
X95439285Y-119109523D01*
X95344047Y-119157142D01*
X95296428Y-119252380D01*
X95296428Y-119490476D01*
X95248809Y-119585714D01*
D11*
%TO.C,JP1*%
X69120000Y-116430000D02*
X69120000Y-118430000D01*
X71920000Y-116430000D02*
X69120000Y-116430000D01*
X71920000Y-118430000D02*
X71920000Y-116430000D01*
X69120000Y-118430000D02*
X71920000Y-118430000D01*
D10*
X71353333Y-118682380D02*
X71353333Y-119396666D01*
X71400952Y-119539523D01*
X71496190Y-119634761D01*
X71639047Y-119682380D01*
X71734285Y-119682380D01*
X70877142Y-119682380D02*
X70877142Y-118682380D01*
X70496190Y-118682380D01*
X70400952Y-118730000D01*
X70353333Y-118777619D01*
X70305714Y-118872857D01*
X70305714Y-119015714D01*
X70353333Y-119110952D01*
X70400952Y-119158571D01*
X70496190Y-119206190D01*
X70877142Y-119206190D01*
X69353333Y-119682380D02*
X69924761Y-119682380D01*
X69639047Y-119682380D02*
X69639047Y-118682380D01*
X69734285Y-118825238D01*
X69829523Y-118920476D01*
X69924761Y-118968095D01*
%TD*%
M02*
