G04 #@! TF.GenerationSoftware,KiCad,Pcbnew,(5.1.8-0-10_14)*
G04 #@! TF.CreationDate,2021-07-18T19:29:47+09:00*
G04 #@! TF.ProjectId,ft2232_jtag_tap,66743232-3332-45f6-9a74-61675f746170,rev?*
G04 #@! TF.SameCoordinates,Original*
G04 #@! TF.FileFunction,Soldermask,Bot*
G04 #@! TF.FilePolarity,Negative*
%FSLAX46Y46*%
G04 Gerber Fmt 4.6, Leading zero omitted, Abs format (unit mm)*
G04 Created by KiCad (PCBNEW (5.1.8-0-10_14)) date 2021-07-18 19:29:47*
%MOMM*%
%LPD*%
G01*
G04 APERTURE LIST*
%ADD10C,1.700000*%
%ADD11C,2.500000*%
%ADD12O,1.700000X0.900000*%
%ADD13O,2.400000X0.900000*%
%ADD14C,0.650000*%
%ADD15R,1.000000X1.500000*%
G04 APERTURE END LIST*
D10*
X89040000Y-126430000D03*
X89040000Y-123890000D03*
X89040000Y-121350000D03*
X89040000Y-118810000D03*
X89040000Y-116270000D03*
X89040000Y-113730000D03*
X89040000Y-111190000D03*
X89040000Y-108650000D03*
X89040000Y-106110000D03*
X89040000Y-103570000D03*
X86500000Y-126430000D03*
X86500000Y-123890000D03*
X86500000Y-121350000D03*
X86500000Y-118810000D03*
X86500000Y-116270000D03*
X86500000Y-113730000D03*
X86500000Y-111190000D03*
X86500000Y-108650000D03*
X86500000Y-106110000D03*
G36*
G01*
X85650000Y-104170000D02*
X85650000Y-102970000D01*
G75*
G02*
X85900000Y-102720000I250000J0D01*
G01*
X87100000Y-102720000D01*
G75*
G02*
X87350000Y-102970000I0J-250000D01*
G01*
X87350000Y-104170000D01*
G75*
G02*
X87100000Y-104420000I-250000J0D01*
G01*
X85900000Y-104420000D01*
G75*
G02*
X85650000Y-104170000I0J250000D01*
G01*
G37*
D11*
X53000000Y-127000000D03*
D12*
X54640000Y-119325000D03*
X54640000Y-110675000D03*
D13*
X58020000Y-119325000D03*
X58020000Y-110675000D03*
D14*
X57650000Y-115425000D03*
X57650000Y-117975000D03*
X57650000Y-117125000D03*
X57650000Y-116275000D03*
X57650000Y-112025000D03*
X57650000Y-113725000D03*
X57650000Y-114575000D03*
X57650000Y-112875000D03*
X59000000Y-117975000D03*
X59000000Y-117125000D03*
X59000000Y-116275000D03*
X59000000Y-115425000D03*
X59000000Y-114575000D03*
X59000000Y-113725000D03*
X59000000Y-112875000D03*
X59000000Y-112025000D03*
D15*
X71170000Y-117430000D03*
X69870000Y-117430000D03*
D11*
X80000000Y-127000000D03*
X80000000Y-103000000D03*
X53000000Y-103000000D03*
M02*
