%TF.GenerationSoftware,KiCad,Pcbnew,(5.1.8-0-10_14)*%
%TF.CreationDate,2021-07-18T19:29:13+09:00*%
%TF.ProjectId,ft2232_jtag_tap,66743232-3332-45f6-9a74-61675f746170,rev?*%
%TF.SameCoordinates,Original*%
%TF.FileFunction,Legend,Top*%
%TF.FilePolarity,Positive*%
%FSLAX46Y46*%
G04 Gerber Fmt 4.6, Leading zero omitted, Abs format (unit mm)*
G04 Created by KiCad (PCBNEW (5.1.8-0-10_14)) date 2021-07-18 19:29:13*
%MOMM*%
%LPD*%
G01*
G04 APERTURE LIST*
%ADD10C,0.150000*%
%ADD11C,0.120000*%
G04 APERTURE END LIST*
D10*
X56298571Y-101562380D02*
X56298571Y-100562380D01*
X56679523Y-100562380D01*
X56774761Y-100610000D01*
X56822380Y-100657619D01*
X56870000Y-100752857D01*
X56870000Y-100895714D01*
X56822380Y-100990952D01*
X56774761Y-101038571D01*
X56679523Y-101086190D01*
X56298571Y-101086190D01*
X57203333Y-100562380D02*
X57441428Y-101562380D01*
X57631904Y-100848095D01*
X57822380Y-101562380D01*
X58060476Y-100562380D01*
X59012857Y-101562380D02*
X58679523Y-101086190D01*
X58441428Y-101562380D02*
X58441428Y-100562380D01*
X58822380Y-100562380D01*
X58917619Y-100610000D01*
X58965238Y-100657619D01*
X59012857Y-100752857D01*
X59012857Y-100895714D01*
X58965238Y-100990952D01*
X58917619Y-101038571D01*
X58822380Y-101086190D01*
X58441428Y-101086190D01*
X59203333Y-101657619D02*
X59965238Y-101657619D01*
X60679523Y-101562380D02*
X60203333Y-101562380D01*
X60203333Y-100562380D01*
X61012857Y-101038571D02*
X61346190Y-101038571D01*
X61489047Y-101562380D02*
X61012857Y-101562380D01*
X61012857Y-100562380D01*
X61489047Y-100562380D01*
X61917619Y-101562380D02*
X61917619Y-100562380D01*
X62155714Y-100562380D01*
X62298571Y-100610000D01*
X62393809Y-100705238D01*
X62441428Y-100800476D01*
X62489047Y-100990952D01*
X62489047Y-101133809D01*
X62441428Y-101324285D01*
X62393809Y-101419523D01*
X62298571Y-101514761D01*
X62155714Y-101562380D01*
X61917619Y-101562380D01*
D11*
%TO.C,J2*%
X84150000Y-104070000D02*
X85150000Y-103570000D01*
X84150000Y-103070000D02*
X84150000Y-104070000D01*
X85150000Y-103570000D02*
X84150000Y-103070000D01*
%TO.C,R6*%
X64544500Y-103102742D02*
X64544500Y-103577258D01*
X63499500Y-103102742D02*
X63499500Y-103577258D01*
%TO.C,R1*%
X66124500Y-103102742D02*
X66124500Y-103577258D01*
X65079500Y-103102742D02*
X65079500Y-103577258D01*
%TO.C,C1*%
X67670000Y-103490580D02*
X67670000Y-103209420D01*
X66650000Y-103490580D02*
X66650000Y-103209420D01*
%TO.C,D1*%
X57370000Y-103525000D02*
X59655000Y-103525000D01*
X59655000Y-103525000D02*
X59655000Y-102055000D01*
X59655000Y-102055000D02*
X57370000Y-102055000D01*
%TO.C,J1*%
X50270000Y-110405000D02*
X50270000Y-119595000D01*
X59680000Y-110525000D02*
X59680000Y-119475000D01*
X53000000Y-119595000D02*
X50270000Y-119595000D01*
X53000000Y-110405000D02*
X50270000Y-110405000D01*
X56600000Y-119595000D02*
X55700000Y-119595000D01*
X56600000Y-110405000D02*
X55700000Y-110405000D01*
%TO.C,U1*%
X71310000Y-101630000D02*
X69510000Y-101630000D01*
X69510000Y-104850000D02*
X71960000Y-104850000D01*
%TO.C,Y1*%
X68370000Y-105820000D02*
X65170000Y-105820000D01*
X65170000Y-105820000D02*
X65170000Y-109820000D01*
%TO.C,U2*%
X75610000Y-118600000D02*
X76060000Y-118600000D01*
X76060000Y-118600000D02*
X76060000Y-118150000D01*
X69290000Y-118600000D02*
X68840000Y-118600000D01*
X68840000Y-118600000D02*
X68840000Y-118150000D01*
X75610000Y-111380000D02*
X76060000Y-111380000D01*
X76060000Y-111380000D02*
X76060000Y-111830000D01*
X69290000Y-111380000D02*
X68840000Y-111380000D01*
X68840000Y-111380000D02*
X68840000Y-111830000D01*
X68840000Y-111830000D02*
X67550000Y-111830000D01*
%TO.C,R9*%
X57942742Y-103807500D02*
X58417258Y-103807500D01*
X57942742Y-104852500D02*
X58417258Y-104852500D01*
%TO.C,R8*%
X61862500Y-111932742D02*
X61862500Y-112407258D01*
X60817500Y-111932742D02*
X60817500Y-112407258D01*
%TO.C,R7*%
X79587500Y-113537258D02*
X79587500Y-113062742D01*
X80632500Y-113537258D02*
X80632500Y-113062742D01*
%TO.C,R5*%
X74687258Y-102852500D02*
X74212742Y-102852500D01*
X74687258Y-101807500D02*
X74212742Y-101807500D01*
%TO.C,R4*%
X74212742Y-103407500D02*
X74687258Y-103407500D01*
X74212742Y-104452500D02*
X74687258Y-104452500D01*
%TO.C,R3*%
X57437258Y-122022500D02*
X56962742Y-122022500D01*
X57437258Y-120977500D02*
X56962742Y-120977500D01*
%TO.C,R2*%
X58417258Y-109592500D02*
X57942742Y-109592500D01*
X58417258Y-108547500D02*
X57942742Y-108547500D01*
%TO.C,L3*%
X65452779Y-120520000D02*
X65127221Y-120520000D01*
X65452779Y-119500000D02*
X65127221Y-119500000D01*
%TO.C,L2*%
X62370000Y-112332779D02*
X62370000Y-112007221D01*
X63390000Y-112332779D02*
X63390000Y-112007221D01*
%TO.C,L1*%
X58342779Y-106380000D02*
X58017221Y-106380000D01*
X58342779Y-105360000D02*
X58017221Y-105360000D01*
%TO.C,C18*%
X65440580Y-117450000D02*
X65159420Y-117450000D01*
X65440580Y-116430000D02*
X65159420Y-116430000D01*
%TO.C,C17*%
X65440580Y-118980000D02*
X65159420Y-118980000D01*
X65440580Y-117960000D02*
X65159420Y-117960000D01*
%TO.C,C16*%
X77657420Y-110376000D02*
X77938580Y-110376000D01*
X77657420Y-111396000D02*
X77938580Y-111396000D01*
%TO.C,C15*%
X68790000Y-120439420D02*
X68790000Y-120720580D01*
X67770000Y-120439420D02*
X67770000Y-120720580D01*
%TO.C,C14*%
X77657420Y-105876000D02*
X77938580Y-105876000D01*
X77657420Y-106896000D02*
X77938580Y-106896000D01*
%TO.C,C13*%
X77619420Y-118650000D02*
X77900580Y-118650000D01*
X77619420Y-119670000D02*
X77900580Y-119670000D01*
%TO.C,C12*%
X65440000Y-112310580D02*
X65440000Y-112029420D01*
X66460000Y-112310580D02*
X66460000Y-112029420D01*
%TO.C,C11*%
X77657420Y-107376000D02*
X77938580Y-107376000D01*
X77657420Y-108396000D02*
X77938580Y-108396000D01*
%TO.C,C10*%
X69594000Y-108270580D02*
X69594000Y-107989420D01*
X70614000Y-108270580D02*
X70614000Y-107989420D01*
%TO.C,C9*%
X63900000Y-112310580D02*
X63900000Y-112029420D01*
X64920000Y-112310580D02*
X64920000Y-112029420D01*
%TO.C,C8*%
X73662000Y-107328580D02*
X73662000Y-107047420D01*
X72642000Y-107328580D02*
X72642000Y-107047420D01*
%TO.C,C7*%
X77657420Y-108876000D02*
X77938580Y-108876000D01*
X77657420Y-109896000D02*
X77938580Y-109896000D01*
%TO.C,C6*%
X75186000Y-107328580D02*
X75186000Y-107047420D01*
X74166000Y-107328580D02*
X74166000Y-107047420D01*
%TO.C,C5*%
X62230580Y-109590000D02*
X61949420Y-109590000D01*
X62230580Y-108570000D02*
X61949420Y-108570000D01*
%TO.C,C4*%
X62230580Y-107990000D02*
X61949420Y-107990000D01*
X62230580Y-106970000D02*
X61949420Y-106970000D01*
%TO.C,C3*%
X78060000Y-113440580D02*
X78060000Y-113159420D01*
X79080000Y-113440580D02*
X79080000Y-113159420D01*
%TO.C,C2*%
X58039420Y-106960000D02*
X58320580Y-106960000D01*
X58039420Y-107980000D02*
X58320580Y-107980000D01*
%TO.C,J2*%
D10*
X83626666Y-101222380D02*
X83626666Y-101936666D01*
X83579047Y-102079523D01*
X83483809Y-102174761D01*
X83340952Y-102222380D01*
X83245714Y-102222380D01*
X84055238Y-101317619D02*
X84102857Y-101270000D01*
X84198095Y-101222380D01*
X84436190Y-101222380D01*
X84531428Y-101270000D01*
X84579047Y-101317619D01*
X84626666Y-101412857D01*
X84626666Y-101508095D01*
X84579047Y-101650952D01*
X84007619Y-102222380D01*
X84626666Y-102222380D01*
%TO.C,R6*%
X64254380Y-101096666D02*
X63778190Y-101430000D01*
X64254380Y-101668095D02*
X63254380Y-101668095D01*
X63254380Y-101287142D01*
X63302000Y-101191904D01*
X63349619Y-101144285D01*
X63444857Y-101096666D01*
X63587714Y-101096666D01*
X63682952Y-101144285D01*
X63730571Y-101191904D01*
X63778190Y-101287142D01*
X63778190Y-101668095D01*
X63254380Y-100239523D02*
X63254380Y-100430000D01*
X63302000Y-100525238D01*
X63349619Y-100572857D01*
X63492476Y-100668095D01*
X63682952Y-100715714D01*
X64063904Y-100715714D01*
X64159142Y-100668095D01*
X64206761Y-100620476D01*
X64254380Y-100525238D01*
X64254380Y-100334761D01*
X64206761Y-100239523D01*
X64159142Y-100191904D01*
X64063904Y-100144285D01*
X63825809Y-100144285D01*
X63730571Y-100191904D01*
X63682952Y-100239523D01*
X63635333Y-100334761D01*
X63635333Y-100525238D01*
X63682952Y-100620476D01*
X63730571Y-100668095D01*
X63825809Y-100715714D01*
%TO.C,R1*%
X66034380Y-101146666D02*
X65558190Y-101480000D01*
X66034380Y-101718095D02*
X65034380Y-101718095D01*
X65034380Y-101337142D01*
X65082000Y-101241904D01*
X65129619Y-101194285D01*
X65224857Y-101146666D01*
X65367714Y-101146666D01*
X65462952Y-101194285D01*
X65510571Y-101241904D01*
X65558190Y-101337142D01*
X65558190Y-101718095D01*
X66034380Y-100194285D02*
X66034380Y-100765714D01*
X66034380Y-100480000D02*
X65034380Y-100480000D01*
X65177238Y-100575238D01*
X65272476Y-100670476D01*
X65320095Y-100765714D01*
%TO.C,C1*%
X67697142Y-101106666D02*
X67744761Y-101154285D01*
X67792380Y-101297142D01*
X67792380Y-101392380D01*
X67744761Y-101535238D01*
X67649523Y-101630476D01*
X67554285Y-101678095D01*
X67363809Y-101725714D01*
X67220952Y-101725714D01*
X67030476Y-101678095D01*
X66935238Y-101630476D01*
X66840000Y-101535238D01*
X66792380Y-101392380D01*
X66792380Y-101297142D01*
X66840000Y-101154285D01*
X66887619Y-101106666D01*
X67792380Y-100154285D02*
X67792380Y-100725714D01*
X67792380Y-100440000D02*
X66792380Y-100440000D01*
X66935238Y-100535238D01*
X67030476Y-100630476D01*
X67078095Y-100725714D01*
%TO.C,D1*%
X60221904Y-103202380D02*
X60221904Y-102202380D01*
X60460000Y-102202380D01*
X60602857Y-102250000D01*
X60698095Y-102345238D01*
X60745714Y-102440476D01*
X60793333Y-102630952D01*
X60793333Y-102773809D01*
X60745714Y-102964285D01*
X60698095Y-103059523D01*
X60602857Y-103154761D01*
X60460000Y-103202380D01*
X60221904Y-103202380D01*
X61745714Y-103202380D02*
X61174285Y-103202380D01*
X61460000Y-103202380D02*
X61460000Y-102202380D01*
X61364761Y-102345238D01*
X61269523Y-102440476D01*
X61174285Y-102488095D01*
%TO.C,J1*%
X50602380Y-119008333D02*
X51316666Y-119008333D01*
X51459523Y-119055952D01*
X51554761Y-119151190D01*
X51602380Y-119294047D01*
X51602380Y-119389285D01*
X51602380Y-118008333D02*
X51602380Y-118579761D01*
X51602380Y-118294047D02*
X50602380Y-118294047D01*
X50745238Y-118389285D01*
X50840476Y-118484523D01*
X50888095Y-118579761D01*
%TO.C,U1*%
X69678095Y-102732380D02*
X69678095Y-103541904D01*
X69725714Y-103637142D01*
X69773333Y-103684761D01*
X69868571Y-103732380D01*
X70059047Y-103732380D01*
X70154285Y-103684761D01*
X70201904Y-103637142D01*
X70249523Y-103541904D01*
X70249523Y-102732380D01*
X71249523Y-103732380D02*
X70678095Y-103732380D01*
X70963809Y-103732380D02*
X70963809Y-102732380D01*
X70868571Y-102875238D01*
X70773333Y-102970476D01*
X70678095Y-103018095D01*
%TO.C,Y1*%
X64336190Y-108186190D02*
X64812380Y-108186190D01*
X63812380Y-108519523D02*
X64336190Y-108186190D01*
X63812380Y-107852857D01*
X64812380Y-106995714D02*
X64812380Y-107567142D01*
X64812380Y-107281428D02*
X63812380Y-107281428D01*
X63955238Y-107376666D01*
X64050476Y-107471904D01*
X64098095Y-107567142D01*
%TO.C,U2*%
X71128095Y-108722380D02*
X71128095Y-109531904D01*
X71175714Y-109627142D01*
X71223333Y-109674761D01*
X71318571Y-109722380D01*
X71509047Y-109722380D01*
X71604285Y-109674761D01*
X71651904Y-109627142D01*
X71699523Y-109531904D01*
X71699523Y-108722380D01*
X72128095Y-108817619D02*
X72175714Y-108770000D01*
X72270952Y-108722380D01*
X72509047Y-108722380D01*
X72604285Y-108770000D01*
X72651904Y-108817619D01*
X72699523Y-108912857D01*
X72699523Y-109008095D01*
X72651904Y-109150952D01*
X72080476Y-109722380D01*
X72699523Y-109722380D01*
%TO.C,R9*%
X60703333Y-104852380D02*
X60370000Y-104376190D01*
X60131904Y-104852380D02*
X60131904Y-103852380D01*
X60512857Y-103852380D01*
X60608095Y-103900000D01*
X60655714Y-103947619D01*
X60703333Y-104042857D01*
X60703333Y-104185714D01*
X60655714Y-104280952D01*
X60608095Y-104328571D01*
X60512857Y-104376190D01*
X60131904Y-104376190D01*
X61179523Y-104852380D02*
X61370000Y-104852380D01*
X61465238Y-104804761D01*
X61512857Y-104757142D01*
X61608095Y-104614285D01*
X61655714Y-104423809D01*
X61655714Y-104042857D01*
X61608095Y-103947619D01*
X61560476Y-103900000D01*
X61465238Y-103852380D01*
X61274761Y-103852380D01*
X61179523Y-103900000D01*
X61131904Y-103947619D01*
X61084285Y-104042857D01*
X61084285Y-104280952D01*
X61131904Y-104376190D01*
X61179523Y-104423809D01*
X61274761Y-104471428D01*
X61465238Y-104471428D01*
X61560476Y-104423809D01*
X61608095Y-104376190D01*
X61655714Y-104280952D01*
%TO.C,R8*%
X61812380Y-115126666D02*
X61336190Y-115460000D01*
X61812380Y-115698095D02*
X60812380Y-115698095D01*
X60812380Y-115317142D01*
X60860000Y-115221904D01*
X60907619Y-115174285D01*
X61002857Y-115126666D01*
X61145714Y-115126666D01*
X61240952Y-115174285D01*
X61288571Y-115221904D01*
X61336190Y-115317142D01*
X61336190Y-115698095D01*
X61240952Y-114555238D02*
X61193333Y-114650476D01*
X61145714Y-114698095D01*
X61050476Y-114745714D01*
X61002857Y-114745714D01*
X60907619Y-114698095D01*
X60860000Y-114650476D01*
X60812380Y-114555238D01*
X60812380Y-114364761D01*
X60860000Y-114269523D01*
X60907619Y-114221904D01*
X61002857Y-114174285D01*
X61050476Y-114174285D01*
X61145714Y-114221904D01*
X61193333Y-114269523D01*
X61240952Y-114364761D01*
X61240952Y-114555238D01*
X61288571Y-114650476D01*
X61336190Y-114698095D01*
X61431428Y-114745714D01*
X61621904Y-114745714D01*
X61717142Y-114698095D01*
X61764761Y-114650476D01*
X61812380Y-114555238D01*
X61812380Y-114364761D01*
X61764761Y-114269523D01*
X61717142Y-114221904D01*
X61621904Y-114174285D01*
X61431428Y-114174285D01*
X61336190Y-114221904D01*
X61288571Y-114269523D01*
X61240952Y-114364761D01*
%TO.C,R7*%
X85452380Y-113426666D02*
X84976190Y-113760000D01*
X85452380Y-113998095D02*
X84452380Y-113998095D01*
X84452380Y-113617142D01*
X84500000Y-113521904D01*
X84547619Y-113474285D01*
X84642857Y-113426666D01*
X84785714Y-113426666D01*
X84880952Y-113474285D01*
X84928571Y-113521904D01*
X84976190Y-113617142D01*
X84976190Y-113998095D01*
X84452380Y-113093333D02*
X84452380Y-112426666D01*
X85452380Y-112855238D01*
%TO.C,R5*%
X76573333Y-105502380D02*
X76240000Y-105026190D01*
X76001904Y-105502380D02*
X76001904Y-104502380D01*
X76382857Y-104502380D01*
X76478095Y-104550000D01*
X76525714Y-104597619D01*
X76573333Y-104692857D01*
X76573333Y-104835714D01*
X76525714Y-104930952D01*
X76478095Y-104978571D01*
X76382857Y-105026190D01*
X76001904Y-105026190D01*
X77478095Y-104502380D02*
X77001904Y-104502380D01*
X76954285Y-104978571D01*
X77001904Y-104930952D01*
X77097142Y-104883333D01*
X77335238Y-104883333D01*
X77430476Y-104930952D01*
X77478095Y-104978571D01*
X77525714Y-105073809D01*
X77525714Y-105311904D01*
X77478095Y-105407142D01*
X77430476Y-105454761D01*
X77335238Y-105502380D01*
X77097142Y-105502380D01*
X77001904Y-105454761D01*
X76954285Y-105407142D01*
%TO.C,R4*%
X75973333Y-101402380D02*
X75640000Y-100926190D01*
X75401904Y-101402380D02*
X75401904Y-100402380D01*
X75782857Y-100402380D01*
X75878095Y-100450000D01*
X75925714Y-100497619D01*
X75973333Y-100592857D01*
X75973333Y-100735714D01*
X75925714Y-100830952D01*
X75878095Y-100878571D01*
X75782857Y-100926190D01*
X75401904Y-100926190D01*
X76830476Y-100735714D02*
X76830476Y-101402380D01*
X76592380Y-100354761D02*
X76354285Y-101069047D01*
X76973333Y-101069047D01*
%TO.C,R3*%
X57033333Y-123382380D02*
X56700000Y-122906190D01*
X56461904Y-123382380D02*
X56461904Y-122382380D01*
X56842857Y-122382380D01*
X56938095Y-122430000D01*
X56985714Y-122477619D01*
X57033333Y-122572857D01*
X57033333Y-122715714D01*
X56985714Y-122810952D01*
X56938095Y-122858571D01*
X56842857Y-122906190D01*
X56461904Y-122906190D01*
X57366666Y-122382380D02*
X57985714Y-122382380D01*
X57652380Y-122763333D01*
X57795238Y-122763333D01*
X57890476Y-122810952D01*
X57938095Y-122858571D01*
X57985714Y-122953809D01*
X57985714Y-123191904D01*
X57938095Y-123287142D01*
X57890476Y-123334761D01*
X57795238Y-123382380D01*
X57509523Y-123382380D01*
X57414285Y-123334761D01*
X57366666Y-123287142D01*
%TO.C,R2*%
X54863333Y-110072380D02*
X54530000Y-109596190D01*
X54291904Y-110072380D02*
X54291904Y-109072380D01*
X54672857Y-109072380D01*
X54768095Y-109120000D01*
X54815714Y-109167619D01*
X54863333Y-109262857D01*
X54863333Y-109405714D01*
X54815714Y-109500952D01*
X54768095Y-109548571D01*
X54672857Y-109596190D01*
X54291904Y-109596190D01*
X55244285Y-109167619D02*
X55291904Y-109120000D01*
X55387142Y-109072380D01*
X55625238Y-109072380D01*
X55720476Y-109120000D01*
X55768095Y-109167619D01*
X55815714Y-109262857D01*
X55815714Y-109358095D01*
X55768095Y-109500952D01*
X55196666Y-110072380D01*
X55815714Y-110072380D01*
%TO.C,L3*%
X62603333Y-120552380D02*
X62127142Y-120552380D01*
X62127142Y-119552380D01*
X62841428Y-119552380D02*
X63460476Y-119552380D01*
X63127142Y-119933333D01*
X63270000Y-119933333D01*
X63365238Y-119980952D01*
X63412857Y-120028571D01*
X63460476Y-120123809D01*
X63460476Y-120361904D01*
X63412857Y-120457142D01*
X63365238Y-120504761D01*
X63270000Y-120552380D01*
X62984285Y-120552380D01*
X62889047Y-120504761D01*
X62841428Y-120457142D01*
%TO.C,L2*%
X63352380Y-115096666D02*
X63352380Y-115572857D01*
X62352380Y-115572857D01*
X62447619Y-114810952D02*
X62400000Y-114763333D01*
X62352380Y-114668095D01*
X62352380Y-114430000D01*
X62400000Y-114334761D01*
X62447619Y-114287142D01*
X62542857Y-114239523D01*
X62638095Y-114239523D01*
X62780952Y-114287142D01*
X63352380Y-114858571D01*
X63352380Y-114239523D01*
%TO.C,L1*%
X54863333Y-107472380D02*
X54387142Y-107472380D01*
X54387142Y-106472380D01*
X55720476Y-107472380D02*
X55149047Y-107472380D01*
X55434761Y-107472380D02*
X55434761Y-106472380D01*
X55339523Y-106615238D01*
X55244285Y-106710476D01*
X55149047Y-106758095D01*
%TO.C,C18*%
X61647142Y-117347142D02*
X61599523Y-117394761D01*
X61456666Y-117442380D01*
X61361428Y-117442380D01*
X61218571Y-117394761D01*
X61123333Y-117299523D01*
X61075714Y-117204285D01*
X61028095Y-117013809D01*
X61028095Y-116870952D01*
X61075714Y-116680476D01*
X61123333Y-116585238D01*
X61218571Y-116490000D01*
X61361428Y-116442380D01*
X61456666Y-116442380D01*
X61599523Y-116490000D01*
X61647142Y-116537619D01*
X62599523Y-117442380D02*
X62028095Y-117442380D01*
X62313809Y-117442380D02*
X62313809Y-116442380D01*
X62218571Y-116585238D01*
X62123333Y-116680476D01*
X62028095Y-116728095D01*
X63170952Y-116870952D02*
X63075714Y-116823333D01*
X63028095Y-116775714D01*
X62980476Y-116680476D01*
X62980476Y-116632857D01*
X63028095Y-116537619D01*
X63075714Y-116490000D01*
X63170952Y-116442380D01*
X63361428Y-116442380D01*
X63456666Y-116490000D01*
X63504285Y-116537619D01*
X63551904Y-116632857D01*
X63551904Y-116680476D01*
X63504285Y-116775714D01*
X63456666Y-116823333D01*
X63361428Y-116870952D01*
X63170952Y-116870952D01*
X63075714Y-116918571D01*
X63028095Y-116966190D01*
X62980476Y-117061428D01*
X62980476Y-117251904D01*
X63028095Y-117347142D01*
X63075714Y-117394761D01*
X63170952Y-117442380D01*
X63361428Y-117442380D01*
X63456666Y-117394761D01*
X63504285Y-117347142D01*
X63551904Y-117251904D01*
X63551904Y-117061428D01*
X63504285Y-116966190D01*
X63456666Y-116918571D01*
X63361428Y-116870952D01*
%TO.C,C17*%
X61617142Y-118827142D02*
X61569523Y-118874761D01*
X61426666Y-118922380D01*
X61331428Y-118922380D01*
X61188571Y-118874761D01*
X61093333Y-118779523D01*
X61045714Y-118684285D01*
X60998095Y-118493809D01*
X60998095Y-118350952D01*
X61045714Y-118160476D01*
X61093333Y-118065238D01*
X61188571Y-117970000D01*
X61331428Y-117922380D01*
X61426666Y-117922380D01*
X61569523Y-117970000D01*
X61617142Y-118017619D01*
X62569523Y-118922380D02*
X61998095Y-118922380D01*
X62283809Y-118922380D02*
X62283809Y-117922380D01*
X62188571Y-118065238D01*
X62093333Y-118160476D01*
X61998095Y-118208095D01*
X62902857Y-117922380D02*
X63569523Y-117922380D01*
X63140952Y-118922380D01*
%TO.C,C15*%
X66997142Y-123222857D02*
X67044761Y-123270476D01*
X67092380Y-123413333D01*
X67092380Y-123508571D01*
X67044761Y-123651428D01*
X66949523Y-123746666D01*
X66854285Y-123794285D01*
X66663809Y-123841904D01*
X66520952Y-123841904D01*
X66330476Y-123794285D01*
X66235238Y-123746666D01*
X66140000Y-123651428D01*
X66092380Y-123508571D01*
X66092380Y-123413333D01*
X66140000Y-123270476D01*
X66187619Y-123222857D01*
X67092380Y-122270476D02*
X67092380Y-122841904D01*
X67092380Y-122556190D02*
X66092380Y-122556190D01*
X66235238Y-122651428D01*
X66330476Y-122746666D01*
X66378095Y-122841904D01*
X66092380Y-121365714D02*
X66092380Y-121841904D01*
X66568571Y-121889523D01*
X66520952Y-121841904D01*
X66473333Y-121746666D01*
X66473333Y-121508571D01*
X66520952Y-121413333D01*
X66568571Y-121365714D01*
X66663809Y-121318095D01*
X66901904Y-121318095D01*
X66997142Y-121365714D01*
X67044761Y-121413333D01*
X67092380Y-121508571D01*
X67092380Y-121746666D01*
X67044761Y-121841904D01*
X66997142Y-121889523D01*
%TO.C,C13*%
X80617142Y-119517142D02*
X80569523Y-119564761D01*
X80426666Y-119612380D01*
X80331428Y-119612380D01*
X80188571Y-119564761D01*
X80093333Y-119469523D01*
X80045714Y-119374285D01*
X79998095Y-119183809D01*
X79998095Y-119040952D01*
X80045714Y-118850476D01*
X80093333Y-118755238D01*
X80188571Y-118660000D01*
X80331428Y-118612380D01*
X80426666Y-118612380D01*
X80569523Y-118660000D01*
X80617142Y-118707619D01*
X81569523Y-119612380D02*
X80998095Y-119612380D01*
X81283809Y-119612380D02*
X81283809Y-118612380D01*
X81188571Y-118755238D01*
X81093333Y-118850476D01*
X80998095Y-118898095D01*
X81902857Y-118612380D02*
X82521904Y-118612380D01*
X82188571Y-118993333D01*
X82331428Y-118993333D01*
X82426666Y-119040952D01*
X82474285Y-119088571D01*
X82521904Y-119183809D01*
X82521904Y-119421904D01*
X82474285Y-119517142D01*
X82426666Y-119564761D01*
X82331428Y-119612380D01*
X82045714Y-119612380D01*
X81950476Y-119564761D01*
X81902857Y-119517142D01*
%TO.C,C12*%
X66307142Y-115572857D02*
X66354761Y-115620476D01*
X66402380Y-115763333D01*
X66402380Y-115858571D01*
X66354761Y-116001428D01*
X66259523Y-116096666D01*
X66164285Y-116144285D01*
X65973809Y-116191904D01*
X65830952Y-116191904D01*
X65640476Y-116144285D01*
X65545238Y-116096666D01*
X65450000Y-116001428D01*
X65402380Y-115858571D01*
X65402380Y-115763333D01*
X65450000Y-115620476D01*
X65497619Y-115572857D01*
X66402380Y-114620476D02*
X66402380Y-115191904D01*
X66402380Y-114906190D02*
X65402380Y-114906190D01*
X65545238Y-115001428D01*
X65640476Y-115096666D01*
X65688095Y-115191904D01*
X65497619Y-114239523D02*
X65450000Y-114191904D01*
X65402380Y-114096666D01*
X65402380Y-113858571D01*
X65450000Y-113763333D01*
X65497619Y-113715714D01*
X65592857Y-113668095D01*
X65688095Y-113668095D01*
X65830952Y-113715714D01*
X66402380Y-114287142D01*
X66402380Y-113668095D01*
%TO.C,C10*%
X71927142Y-107312857D02*
X71974761Y-107360476D01*
X72022380Y-107503333D01*
X72022380Y-107598571D01*
X71974761Y-107741428D01*
X71879523Y-107836666D01*
X71784285Y-107884285D01*
X71593809Y-107931904D01*
X71450952Y-107931904D01*
X71260476Y-107884285D01*
X71165238Y-107836666D01*
X71070000Y-107741428D01*
X71022380Y-107598571D01*
X71022380Y-107503333D01*
X71070000Y-107360476D01*
X71117619Y-107312857D01*
X72022380Y-106360476D02*
X72022380Y-106931904D01*
X72022380Y-106646190D02*
X71022380Y-106646190D01*
X71165238Y-106741428D01*
X71260476Y-106836666D01*
X71308095Y-106931904D01*
X71022380Y-105741428D02*
X71022380Y-105646190D01*
X71070000Y-105550952D01*
X71117619Y-105503333D01*
X71212857Y-105455714D01*
X71403333Y-105408095D01*
X71641428Y-105408095D01*
X71831904Y-105455714D01*
X71927142Y-105503333D01*
X71974761Y-105550952D01*
X72022380Y-105646190D01*
X72022380Y-105741428D01*
X71974761Y-105836666D01*
X71927142Y-105884285D01*
X71831904Y-105931904D01*
X71641428Y-105979523D01*
X71403333Y-105979523D01*
X71212857Y-105931904D01*
X71117619Y-105884285D01*
X71070000Y-105836666D01*
X71022380Y-105741428D01*
%TO.C,C9*%
X64847142Y-115016666D02*
X64894761Y-115064285D01*
X64942380Y-115207142D01*
X64942380Y-115302380D01*
X64894761Y-115445238D01*
X64799523Y-115540476D01*
X64704285Y-115588095D01*
X64513809Y-115635714D01*
X64370952Y-115635714D01*
X64180476Y-115588095D01*
X64085238Y-115540476D01*
X63990000Y-115445238D01*
X63942380Y-115302380D01*
X63942380Y-115207142D01*
X63990000Y-115064285D01*
X64037619Y-115016666D01*
X64942380Y-114540476D02*
X64942380Y-114350000D01*
X64894761Y-114254761D01*
X64847142Y-114207142D01*
X64704285Y-114111904D01*
X64513809Y-114064285D01*
X64132857Y-114064285D01*
X64037619Y-114111904D01*
X63990000Y-114159523D01*
X63942380Y-114254761D01*
X63942380Y-114445238D01*
X63990000Y-114540476D01*
X64037619Y-114588095D01*
X64132857Y-114635714D01*
X64370952Y-114635714D01*
X64466190Y-114588095D01*
X64513809Y-114540476D01*
X64561428Y-114445238D01*
X64561428Y-114254761D01*
X64513809Y-114159523D01*
X64466190Y-114111904D01*
X64370952Y-114064285D01*
%TO.C,C5*%
X62203333Y-106507142D02*
X62155714Y-106554761D01*
X62012857Y-106602380D01*
X61917619Y-106602380D01*
X61774761Y-106554761D01*
X61679523Y-106459523D01*
X61631904Y-106364285D01*
X61584285Y-106173809D01*
X61584285Y-106030952D01*
X61631904Y-105840476D01*
X61679523Y-105745238D01*
X61774761Y-105650000D01*
X61917619Y-105602380D01*
X62012857Y-105602380D01*
X62155714Y-105650000D01*
X62203333Y-105697619D01*
X63108095Y-105602380D02*
X62631904Y-105602380D01*
X62584285Y-106078571D01*
X62631904Y-106030952D01*
X62727142Y-105983333D01*
X62965238Y-105983333D01*
X63060476Y-106030952D01*
X63108095Y-106078571D01*
X63155714Y-106173809D01*
X63155714Y-106411904D01*
X63108095Y-106507142D01*
X63060476Y-106554761D01*
X62965238Y-106602380D01*
X62727142Y-106602380D01*
X62631904Y-106554761D01*
X62584285Y-106507142D01*
%TO.C,C4*%
X62153333Y-104907142D02*
X62105714Y-104954761D01*
X61962857Y-105002380D01*
X61867619Y-105002380D01*
X61724761Y-104954761D01*
X61629523Y-104859523D01*
X61581904Y-104764285D01*
X61534285Y-104573809D01*
X61534285Y-104430952D01*
X61581904Y-104240476D01*
X61629523Y-104145238D01*
X61724761Y-104050000D01*
X61867619Y-104002380D01*
X61962857Y-104002380D01*
X62105714Y-104050000D01*
X62153333Y-104097619D01*
X63010476Y-104335714D02*
X63010476Y-105002380D01*
X62772380Y-103954761D02*
X62534285Y-104669047D01*
X63153333Y-104669047D01*
%TO.C,C3*%
X83347142Y-113456666D02*
X83394761Y-113504285D01*
X83442380Y-113647142D01*
X83442380Y-113742380D01*
X83394761Y-113885238D01*
X83299523Y-113980476D01*
X83204285Y-114028095D01*
X83013809Y-114075714D01*
X82870952Y-114075714D01*
X82680476Y-114028095D01*
X82585238Y-113980476D01*
X82490000Y-113885238D01*
X82442380Y-113742380D01*
X82442380Y-113647142D01*
X82490000Y-113504285D01*
X82537619Y-113456666D01*
X82442380Y-113123333D02*
X82442380Y-112504285D01*
X82823333Y-112837619D01*
X82823333Y-112694761D01*
X82870952Y-112599523D01*
X82918571Y-112551904D01*
X83013809Y-112504285D01*
X83251904Y-112504285D01*
X83347142Y-112551904D01*
X83394761Y-112599523D01*
X83442380Y-112694761D01*
X83442380Y-112980476D01*
X83394761Y-113075714D01*
X83347142Y-113123333D01*
%TO.C,C2*%
X54813333Y-108727142D02*
X54765714Y-108774761D01*
X54622857Y-108822380D01*
X54527619Y-108822380D01*
X54384761Y-108774761D01*
X54289523Y-108679523D01*
X54241904Y-108584285D01*
X54194285Y-108393809D01*
X54194285Y-108250952D01*
X54241904Y-108060476D01*
X54289523Y-107965238D01*
X54384761Y-107870000D01*
X54527619Y-107822380D01*
X54622857Y-107822380D01*
X54765714Y-107870000D01*
X54813333Y-107917619D01*
X55194285Y-107917619D02*
X55241904Y-107870000D01*
X55337142Y-107822380D01*
X55575238Y-107822380D01*
X55670476Y-107870000D01*
X55718095Y-107917619D01*
X55765714Y-108012857D01*
X55765714Y-108108095D01*
X55718095Y-108250952D01*
X55146666Y-108822380D01*
X55765714Y-108822380D01*
%TD*%
M02*
