M48
; DRILL file {KiCad (5.1.8-0-10_14)} date Sunday, July 18, 2021 at 07:29:50 PM
; FORMAT={-:-/ absolute / inch / decimal}
; #@! TF.CreationDate,2021-07-18T19:29:50+09:00
; #@! TF.GenerationSoftware,Kicad,Pcbnew,(5.1.8-0-10_14)
FMAT,2
INCH
T1C0.0118
T2C0.0138
T3C0.0236
T4C0.0394
T5C0.0984
%
G90
G05
T1
X2.0079Y-4.2913
X2.0079Y-4.4488
X2.0079Y-4.6063
X2.0079Y-4.7638
X2.0079Y-4.9071
X2.0083Y-4.1492
X2.1823Y-3.9764
X2.1827Y-5.0787
X2.2185Y-4.5043
X2.2185Y-4.5701
X2.2193Y-4.4425
X2.2193Y-4.7394
X2.222Y-4.1374
X2.2228Y-4.076
X2.2882Y-4.0075
X2.2882Y-4.1992
X2.2898Y-4.078
X2.3228Y-3.9764
X2.3228Y-5.0787
X2.3236Y-4.7843
X2.3646Y-4.0476
X2.365Y-4.1339
X2.3653Y-4.5101
X2.3654Y-4.5441
X2.3657Y-4.6028
X2.3677Y-4.2941
X2.3681Y-4.2307
X2.3693Y-4.1681
X2.3744Y-4.3776
X2.4035Y-4.1724
X2.415Y-4.3453
X2.4524Y-4.1264
X2.4756Y-4.3457
X2.4803Y-3.9764
X2.4803Y-5.0787
X2.4811Y-4.0685
X2.4925Y-4.1835
X2.4992Y-4.6642
X2.5Y-4.6035
X2.5114Y-4.3504
X2.5122Y-4.2614
X2.5394Y-4.7657
X2.5457Y-4.135
X2.5484Y-4.289
X2.5528Y-4.2051
X2.5657Y-4.3547
X2.5831Y-4.1398
X2.585Y-4.7917
X2.6343Y-4.3539
X2.6378Y-3.9764
X2.6378Y-5.0787
X2.6413Y-4.689
X2.6417Y-4.7917
X2.6429Y-4.6055
X2.6441Y-4.1398
X2.6441Y-4.7323
X2.6854Y-4.0386
X2.6882Y-4.8256
X2.69Y-4.14
X2.7084Y-4.2298
X2.7236Y-4.3138
X2.7256Y-4.7976
X2.73Y-4.14
X2.7329Y-4.2594
X2.7528Y-4.5413
X2.7531Y-4.411
X2.7551Y-4.8295
X2.7579Y-4.75
X2.7602Y-4.1858
X2.7843Y-4.8854
X2.7953Y-3.9764
X2.7953Y-5.0787
X2.81Y-4.7532
X2.8142Y-4.8437
X2.82Y-4.5
X2.82Y-4.53
X2.82Y-4.56
X2.8402Y-4.9346
X2.8421Y-4.4157
X2.85Y-4.5
X2.85Y-4.53
X2.85Y-4.56
X2.8531Y-4.6232
X2.8614Y-4.0646
X2.8697Y-4.3106
X2.88Y-4.5
X2.88Y-4.53
X2.88Y-4.56
X2.8819Y-4.4173
X2.8894Y-4.8594
X2.8898Y-4.8315
X2.8936Y-4.1499
X2.9287Y-4.6417
X2.94Y-4.15
X2.9404Y-4.8447
X2.95Y-4.46
X2.95Y-4.52
X2.95Y-4.58
X2.952Y-4.9642
X2.9528Y-3.9764
X2.9528Y-5.0787
X2.9687Y-4.4293
X2.9933Y-4.3909
X2.9987Y-4.1169
X3.0008Y-4.0642
X3.0295Y-4.9646
X3.0324Y-4.1481
X3.0512Y-3.9764
X3.0512Y-5.0787
X3.0677Y-4.5277
X3.0717Y-4.1417
X3.1327Y-4.3661
X3.1335Y-4.3063
X3.1358Y-4.2106
X3.1437Y-4.8496
X3.1535Y-4.3921
X3.1949Y-4.4209
X3.2Y-4.37
X3.2063Y-4.2925
X3.2449Y-4.7142
X3.2488Y-4.6453
X3.2543Y-4.8496
X3.2677Y-3.9764
X3.2677Y-5.0787
X3.2689Y-4.3362
X3.2874Y-4.6106
X3.2913Y-4.5445
X3.3268Y-4.2724
X3.328Y-4.4441
X3.3303Y-4.5098
X3.352Y-4.85
X3.3539Y-4.7154
X3.3555Y-4.1311
X3.3571Y-4.2283
X3.4252Y-3.9764
X3.4252Y-5.0787
X3.5827Y-3.9764
X3.5827Y-5.0787
X3.6299Y-4.0776
X3.6299Y-4.235
X3.6299Y-4.3925
X3.6299Y-4.55
X3.6299Y-4.7075
X3.6299Y-4.865
X3.6299Y-5.0224
X3.7402Y-3.9764
X3.7402Y-5.0787
X3.8976Y-3.9764
X3.8976Y-4.1339
X3.8976Y-4.2913
X3.8976Y-4.4488
X3.8976Y-4.6063
X3.8976Y-4.7638
X3.8976Y-4.9213
X3.8976Y-5.0787
T2
X2.2697Y-4.4104
X2.2697Y-4.4439
X2.2697Y-4.4774
X2.2697Y-4.5108
X2.2697Y-4.5443
X2.2697Y-4.5778
X2.2697Y-4.6112
X2.2697Y-4.6447
X2.3228Y-4.4104
X2.3228Y-4.4439
X2.3228Y-4.4774
X2.3228Y-4.5108
X2.3228Y-4.5443
X2.3228Y-4.5778
X2.3228Y-4.6112
X2.3228Y-4.6447
T4
X3.4055Y-4.0776
X3.4055Y-4.1776
X3.4055Y-4.2776
X3.4055Y-4.3776
X3.4055Y-4.4776
X3.4055Y-4.5776
X3.4055Y-4.6776
X3.4055Y-4.7776
X3.4055Y-4.8776
X3.4055Y-4.9776
X3.5055Y-4.0776
X3.5055Y-4.1776
X3.5055Y-4.2776
X3.5055Y-4.3776
X3.5055Y-4.4776
X3.5055Y-4.5776
X3.5055Y-4.6776
X3.5055Y-4.7776
X3.5055Y-4.8776
X3.5055Y-4.9776
T5
X3.1496Y-5.0
X2.0866Y-5.0
X3.1496Y-4.0551
X2.0866Y-4.0551
T3
G00X2.1669Y-4.3573
M15
G01X2.1354Y-4.3573
M16
G05
G00X2.1669Y-4.6978
M15
G01X2.1354Y-4.6978
M16
G05
G00X2.3138Y-4.3573
M15
G01X2.2547Y-4.3573
M16
G05
G00X2.3138Y-4.6978
M15
G01X2.2547Y-4.6978
M16
G05
T0
M30
